<svg version="1.1" xmlns="http://www.w3.org/2000/svg" style="display: block;" viewBox="0 0 2000 2000" width="500" height="500" preserveAspectRatio="none">
<defs>
	<linearGradient id="Gradient1" gradientUnits="userSpaceOnUse" x1="471.565" y1="842.831" x2="456.089" y2="853.557">
		<stop class="stop0" offset="0" stop-opacity="1" stop-color="rgb(80,52,123)"/>
		<stop class="stop1" offset="1" stop-opacity="1" stop-color="rgb(66,51,164)"/>
	</linearGradient>
	<linearGradient id="Gradient2" gradientUnits="userSpaceOnUse" x1="664.093" y1="679.494" x2="380.072" y2="473.66">
		<stop class="stop0" offset="0" stop-opacity="1" stop-color="rgb(163,67,7)"/>
		<stop class="stop1" offset="1" stop-opacity="1" stop-color="rgb(196,98,27)"/>
	</linearGradient>
	<linearGradient id="Gradient3" gradientUnits="userSpaceOnUse" x1="1364.97" y1="1136.2" x2="1956.03" y2="1109.88">
		<stop class="stop0" offset="0" stop-opacity="1" stop-color="rgb(43,33,127)"/>
		<stop class="stop1" offset="1" stop-opacity="1" stop-color="rgb(69,65,181)"/>
	</linearGradient>
</defs>
<path transform="translate(0,0)" fill="rgb(255,255,255)" d="M 0 0 L 2000 0 L 2000 2000 L 0 2000 L 0 0 z"/>
<path transform="translate(0,0)" fill="rgb(96,81,209)" d="M 411.692 1750.03 C 397.266 1741.09 358.943 1706.32 346.432 1694.65 C 224.903 1579.82 135.448 1435.26 86.9093 1275.26 C 14.529 1031.75 41.0907 769.519 160.831 545.468 C 280.899 317.2 487.604 146.71 734.547 72.2672 C 969.782 1.96196 1223.26 27.3371 1439.89 142.878 C 1668.75 264.962 1838.78 474.086 1911.6 723.037 C 1919.03 748.752 1927.53 779.666 1932.89 805.861 C 1979.62 1030.95 1944.59 1265.33 1834.07 1466.92 C 1786 1553.88 1710.54 1647.09 1636.57 1712.98 C 1623.6 1724.53 1601.01 1744.43 1586.31 1753.56 C 1561.96 1774.98 1480.42 1828.48 1451.3 1841.81 C 1433.5 1851.33 1415.44 1860.35 1397.14 1868.88 C 1352.21 1890.46 1321.06 1899.41 1275.94 1914.66 C 1275.63 1914.81 1275.33 1914.95 1275.02 1915.1 C 1120.21 1964.43 952.439 1969.27 794.247 1933.2 C 771.179 1927.94 744.119 1921.59 721.837 1913.37 C 684.198 1902.54 632.132 1882.3 596.66 1864.9 C 579.695 1857.47 559.942 1847 543.985 1837.66 C 505.556 1816.47 477.487 1797.46 441.405 1772.54 C 431.566 1765.51 421.349 1757.43 411.692 1750.03 z"/>
<path transform="translate(0,0)" fill="rgb(211,106,25)" d="M 1018.44 353.251 C 1038.98 350.678 1049.58 359.24 1061.05 375.195 C 1072.78 387.815 1076.71 402.585 1080.8 419.027 C 1096.54 422.637 1116.9 420.648 1126.99 434.518 C 1136.98 448.253 1126.28 468.173 1132.16 480.743 C 1132.8 482.121 1156.67 485.398 1163.34 491.352 C 1175.72 495.469 1190.56 498.175 1201.76 502.359 C 1222.9 504.673 1287.39 545.217 1292.29 545.315 C 1300.87 548.815 1318.58 561.782 1326.37 567.398 C 1382.33 606.919 1428.42 658.825 1461.04 719.075 C 1464.88 726.046 1474.92 742.926 1477.21 749.937 C 1478.2 754.96 1480.75 759.292 1482.91 764.015 C 1491.38 782.52 1497.83 801.483 1504.17 820.738 C 1506.39 827.468 1511.77 845.803 1514.38 851.119 C 1519.98 867.128 1527.38 910.18 1530.06 927.994 C 1545.66 1032.04 1538.74 1143.45 1492.43 1239.38 C 1462.61 1301.14 1424.16 1340.98 1371.42 1383.2 C 1367.35 1383.86 1348.13 1399.73 1342.6 1402.79 C 1298.73 1427.09 1255.17 1450.88 1206.8 1465.16 C 1198.17 1467.71 1189.51 1471.63 1180.89 1474.39 C 1175.15 1476.22 1167.41 1476.34 1161.64 1478.68 C 1018.46 1512.64 860.282 1501.38 726.091 1439.39 C 695.201 1425.12 677.928 1413.7 649.82 1397.22 C 643.519 1393.53 631.223 1384.13 627.034 1382.53 C 586.876 1353.45 551.19 1312.81 524.826 1271.06 C 449.405 1151.64 450.414 1007.08 478.338 873.693 C 480.391 865.999 482.296 858.139 484.246 850.408 C 493.585 820.47 506.606 777.689 522.083 750.793 C 525.84 747.302 530.304 736.647 531.795 731.705 C 568.22 661.637 614.279 609.256 678.332 564.321 C 686.832 558.357 697.448 552.346 705.19 546.339 L 706.693 545.154 C 710.897 544.5 738.461 528.12 745.244 524.484 C 761.644 515.692 785.57 509.821 799.684 502.414 C 805.252 500.764 809.646 499.756 815.294 498.531 C 841.733 490.879 861.729 487.559 888.907 482.909 C 892.408 482.191 897.587 481.608 901.254 481.073 C 906.592 435.701 929.119 394.715 968.086 369.707 C 981.741 360.943 1001.97 352.967 1018.44 353.251 z"/>
<path transform="translate(0,0)" fill="rgb(71,56,164)" d="M 1061.05 375.195 C 1072.78 387.815 1076.71 402.585 1080.8 419.027 C 1096.54 422.637 1116.9 420.648 1126.99 434.518 C 1136.98 448.253 1126.28 468.173 1132.16 480.743 C 1132.8 482.121 1156.67 485.398 1163.34 491.352 C 1147.66 487.803 1131.68 483.964 1115.63 482.719 C 1116.46 459.515 1120.23 448.808 1100.49 433.088 C 1088.86 426.347 1065.58 428.214 1053.11 432.42 C 1056.2 413.637 1064.62 396.461 1061.05 375.195 z"/>
<path transform="translate(0,0)" fill="rgb(232,130,52)" d="M 901.254 481.073 C 906.592 435.701 929.119 394.715 968.086 369.707 C 981.741 360.943 1001.97 352.967 1018.44 353.251 C 1015.03 354.297 1010.87 355.04 1008.63 357.456 L 1008.88 357.682 C 1001.52 361.553 984.335 369.913 978.614 373.984 C 945.272 397.715 924.359 426.865 913.408 466.472 C 912.473 469.853 912.017 470.607 911.544 474.216 C 909.225 465.412 920.725 443.167 923.68 434.118 C 924.084 432.882 921.591 432.785 923.295 427.728 L 924.879 427.396 L 926.771 428.642 C 929.505 423.389 933.689 414.362 937.808 410.475 C 936.169 408.142 937.213 409.07 934.225 408.147 C 923.096 410.493 916.975 434.856 912.155 443.2 C 905.495 454.728 910.663 486.687 892.862 483.182 C 891.823 482.978 889.873 482.979 888.907 482.909 C 892.408 482.191 897.587 481.608 901.254 481.073 z"/>
<path transform="translate(0,0)" fill="rgb(232,130,52)" d="M 1053.11 432.42 C 1065.58 428.214 1088.86 426.347 1100.49 433.088 C 1091.72 432.983 1072.16 435.572 1063.63 438.316 C 1056.71 440.54 1048.9 443.599 1041.79 445.333 C 1037.25 446.441 1037.98 446.308 1034.87 444.3 L 1034.64 442.946 C 1040.5 437.738 1047.38 437.047 1053.11 432.42 z"/>
<path transform="translate(0,0)" fill="rgb(253,217,184)" d="M 895.538 1015.2 C 908.417 997.621 920.867 992.379 942.46 989.069 C 979.346 983.414 1083.52 976.349 1102.89 1015.53 C 1195.75 1030.43 1305.72 1095.5 1329.6 1191.8 C 1338.87 1229.23 1332.74 1268.81 1312.58 1301.68 C 1218.01 1458.76 905.958 1465.23 762.736 1377.35 C 581.562 1266.19 671.55 1084.98 838.44 1030.43 C 857.878 1024.08 875.579 1019.82 895.538 1015.2 z"/>
<path transform="translate(0,0)" fill="rgb(73,29,5)" d="M 895.538 1015.2 C 908.417 997.621 920.867 992.379 942.46 989.069 C 979.346 983.414 1083.52 976.349 1102.89 1015.53 C 1111.47 1060.6 1074.4 1100.43 1034.92 1116.19 C 1027.81 1119.02 1018.42 1120.26 1012.01 1123.01 C 1005.88 1123.61 991.72 1123.33 985.124 1123.33 C 982.535 1121.88 966.063 1117.04 961.604 1115.4 C 936.968 1106.27 916.407 1088.63 903.628 1065.67 C 894.583 1049.36 890.267 1033.63 895.538 1015.2 z"/>
<path transform="translate(0,0)" fill="rgb(140,67,19)" d="M 927.276 1003.28 C 931.837 1003.74 934.036 1004.48 937.859 1006.78 C 941.943 1015.66 921.868 1019.86 919.798 1027.17 L 922.951 1031.18 C 909.211 1035.17 908.142 1022.56 911.725 1012.63 C 917.451 1006.87 919.083 1004.53 927.276 1003.28 z"/>
<path transform="translate(0,0)" fill="rgb(140,67,19)" d="M 985.124 1123.33 C 991.72 1123.33 1005.88 1123.61 1012.01 1123.01 C 1018.11 1160.69 998.897 1214.01 1037.08 1239.17 C 1069.77 1260.63 1117.15 1245.63 1128.24 1207.23 C 1130.55 1199.23 1132.69 1185.52 1142.49 1184.78 C 1164.96 1183.08 1160.37 1203.31 1155.97 1217.43 C 1140.5 1267.1 1078.23 1292.51 1032.03 1268.86 C 1017.14 1261.29 1010.35 1255.11 999.394 1242.63 C 997.288 1245.13 995.065 1247.53 992.732 1249.82 C 943.377 1298.38 862.216 1281.01 841.169 1214.42 C 838.907 1206.62 835.328 1193.55 843.928 1187.97 C 865.636 1173.89 867.457 1200.81 871.951 1212.8 C 880.625 1235.92 909.091 1251.89 932.977 1249.04 C 970.189 1244.6 987.511 1216.17 984.594 1180.36 C 983.777 1164.42 983.531 1138.61 985.124 1123.33 z"/>
<path transform="translate(0,0)" fill="rgb(35,17,15)" d="M 1121.21 919.211 C 1113.27 886.918 1113.7 855.36 1130.83 826.06 C 1149.02 794.953 1187.81 781.721 1219.13 802.21 C 1236.91 813.84 1249.57 833.207 1253.65 854.003 C 1257.59 874.329 1257.52 901.234 1251.19 921.189 C 1248.97 928.21 1244.13 935.945 1241.07 942.868 C 1253.63 949.847 1298.21 969.489 1279.14 987.489 C 1271.35 995.755 1259.62 989.841 1250.91 985.096 C 1196.21 955.319 1151.78 949.087 1090.18 948.907 C 1055 926.446 1102.48 917.404 1120.2 919.436 C 1120.54 919.361 1120.88 919.286 1121.21 919.211 z"/>
<path transform="translate(0,0)" fill="rgb(177,79,14)" d="M 1121.21 919.211 C 1131.9 919.371 1143.6 921.076 1154.22 922.406 C 1171.33 924.548 1188.32 928.507 1204.72 933.756 C 1216.05 937.379 1227.21 941.797 1238.4 945.843 C 1239.07 945.485 1239.75 945.128 1240.43 944.77 L 1241.07 942.868 C 1253.63 949.847 1298.21 969.489 1279.14 987.489 C 1271.35 995.755 1259.62 989.841 1250.91 985.096 C 1196.21 955.319 1151.78 949.087 1090.18 948.907 C 1055 926.446 1102.48 917.404 1120.2 919.436 C 1120.54 919.361 1120.88 919.286 1121.21 919.211 z"/>
<path transform="translate(0,0)" fill="rgb(255,255,255)" d="M 1196.17 811.62 C 1214.22 809.598 1230.54 822.45 1232.81 840.467 C 1235.08 858.485 1222.45 874.982 1204.46 877.497 C 1192.61 879.155 1180.78 874.303 1173.5 864.799 C 1166.23 855.294 1164.63 842.609 1169.32 831.597 C 1174.02 820.585 1184.27 812.952 1196.17 811.62 z"/>
<path transform="translate(0,0)" fill="rgb(35,17,15)" d="M 757.826 944.575 C 755.568 939.82 753.009 935.128 750.986 930.248 C 734.225 889.83 738.24 832.899 775.781 805.09 C 788.794 795.451 804.544 790.336 820.78 792.922 C 865.577 800.056 883.487 848.292 882.261 888.629 C 881.949 897.762 879 910.77 877.422 920.025 C 885.932 921.359 897.401 919.904 907.895 921.288 C 923.754 931.423 922.689 947.521 902.624 949.122 C 888.644 950.237 874.728 948.604 860.748 949.679 C 830.651 950.991 803.147 960.739 775.294 971.299 C 760.625 977.028 747.712 986.423 732.91 991.849 C 728.785 993.361 724.281 990.326 720.94 988.206 C 697.303 973.209 746.189 945.141 757.826 944.575 z"/>
<path transform="translate(0,0)" fill="rgb(177,79,14)" d="M 757.826 944.575 L 759.152 945.568 C 762.3 945.713 776.427 940.03 780.228 938.5 C 803.412 929.161 828 924.502 852.763 921.862 C 860.744 921.011 869.75 921.398 877.422 920.025 C 885.932 921.359 897.401 919.904 907.895 921.288 C 923.754 931.423 922.689 947.521 902.624 949.122 C 888.644 950.237 874.728 948.604 860.748 949.679 C 830.651 950.991 803.147 960.739 775.294 971.299 C 760.625 977.028 747.712 986.423 732.91 991.849 C 728.785 993.361 724.281 990.326 720.94 988.206 C 697.303 973.209 746.189 945.141 757.826 944.575 z"/>
<path transform="translate(0,0)" fill="rgb(255,255,255)" d="M 826.833 811.647 C 844.993 808.663 862.126 820.985 865.076 839.15 C 868.025 857.315 855.672 874.426 837.501 877.342 C 819.378 880.25 802.322 867.936 799.38 849.818 C 796.438 831.701 808.721 814.622 826.833 811.647 z"/>
<path transform="translate(0,0)" fill="rgb(73,29,5)" d="M 1191.67 666.413 C 1224.85 663.363 1261.81 679.194 1279.21 708.994 C 1280.63 711.422 1281.27 717.87 1279.64 720.432 C 1266 741.889 1253.36 726.919 1238.6 716.867 C 1234.77 714.26 1229.86 712.091 1226.28 710.451 C 1207.9 703.985 1189.92 702.585 1171.95 711.179 C 1165.08 714.515 1159.15 717.701 1151.74 719.697 C 1135.02 724.206 1126.3 704.119 1137.02 692.255 C 1151.31 676.435 1170.54 668.207 1191.67 666.413 z"/>
<path transform="translate(0,0)" fill="rgb(73,29,5)" d="M 793.197 666.421 C 819.231 665.144 850.096 674.858 865.348 697.112 C 873.063 708.369 859.616 717.977 850.644 721.989 C 846.415 720.401 838.097 716.036 833.854 713.888 C 816.074 704.89 805.609 705.202 786.295 706.142 C 776.562 708.701 772.982 710.057 763.918 714.849 C 756.825 718.019 745.248 729.77 737.935 730.565 C 713.846 733.285 715.638 710.694 728.328 697.231 C 747.188 677.223 765.868 668.181 793.197 666.421 z"/>
<path transform="translate(0,0)" fill="rgb(203,98,20)" d="M 627.034 1382.53 C 631.223 1384.13 643.519 1393.53 649.82 1397.22 C 677.928 1413.7 695.201 1425.12 726.091 1439.39 C 860.282 1501.38 1018.46 1512.64 1161.64 1478.68 C 1167.41 1476.34 1175.15 1476.22 1180.89 1474.39 C 1189.51 1471.63 1198.17 1467.71 1206.8 1465.16 C 1255.17 1450.88 1298.73 1427.09 1342.6 1402.79 C 1348.13 1399.73 1367.35 1383.86 1371.42 1383.2 C 1374.24 1385.21 1376.02 1386.02 1377.97 1388.74 C 1390.75 1396.1 1412.43 1415.44 1423.19 1425.55 C 1494.64 1493.87 1545.66 1580.73 1570.55 1676.4 C 1574.72 1691.9 1578.18 1707.59 1580.92 1723.41 C 1582.45 1731.96 1584.3 1745.43 1586.31 1753.56 C 1561.96 1774.98 1480.42 1828.48 1451.3 1841.81 C 1433.5 1851.33 1415.44 1860.35 1397.14 1868.88 C 1352.21 1890.46 1321.06 1899.41 1275.94 1914.66 C 1275.63 1914.81 1275.33 1914.95 1275.02 1915.1 C 1120.21 1964.43 952.439 1969.27 794.247 1933.2 C 771.179 1927.94 744.119 1921.59 721.837 1913.37 C 684.198 1902.54 632.132 1882.3 596.66 1864.9 C 579.695 1857.47 559.942 1847 543.985 1837.66 C 505.556 1816.47 477.487 1797.46 441.405 1772.54 C 431.566 1765.51 421.349 1757.43 411.692 1750.03 C 413.52 1743.41 415.52 1728.96 416.892 1721.56 C 419.97 1704.94 423.781 1688.46 428.313 1672.18 C 460.336 1558.49 518.604 1469.47 610.373 1395.35 C 614.989 1392.11 623.679 1386.47 627.034 1382.53 z"/>
<path transform="translate(0,0)" fill="rgb(253,217,184)" d="M 721.837 1913.37 C 721.345 1888.66 720.741 1864.06 722.838 1839.38 C 729.265 1763.75 755.679 1690.65 808.948 1635.21 C 856.92 1584.62 923.285 1555.54 992.996 1554.56 C 1172.16 1551.14 1275.17 1708.38 1275.65 1871.01 C 1275.68 1877.9 1274.42 1911.28 1275.94 1914.66 C 1275.63 1914.81 1275.33 1914.95 1275.02 1915.1 C 1120.21 1964.43 952.439 1969.27 794.247 1933.2 C 771.179 1927.94 744.119 1921.59 721.837 1913.37 z"/>
<path transform="translate(0,0)" fill="rgb(232,130,52)" d="M 610.373 1395.35 C 616.413 1397.87 620.632 1406.34 627.741 1412.48 C 624.299 1418.07 610.122 1425.99 604.478 1431.79 C 580.24 1456.69 556.679 1482.43 535.769 1510.23 C 491.48 1573.65 467.323 1643.49 450.196 1717.65 C 447.86 1727.84 446.021 1738.13 444.687 1748.49 C 443.903 1754.85 443.298 1767.23 441.405 1772.54 C 431.566 1765.51 421.349 1757.43 411.692 1750.03 C 413.52 1743.41 415.52 1728.96 416.892 1721.56 C 419.97 1704.94 423.781 1688.46 428.313 1672.18 C 460.336 1558.49 518.604 1469.47 610.373 1395.35 z"/>
<path transform="translate(0,0)" fill="rgb(177,79,14)" d="M 1388.98 1731.16 C 1389.14 1730.92 1389.29 1730.67 1389.44 1730.43 C 1393.88 1723.46 1400.05 1717.27 1408.43 1715.64 C 1415.15 1714.33 1422.24 1715.12 1427.9 1719.17 C 1449.77 1734.78 1446.53 1814.91 1451.12 1840.88 C 1451.18 1841.19 1451.24 1841.5 1451.3 1841.81 C 1433.5 1851.33 1415.44 1860.35 1397.14 1868.88 C 1397.01 1866.32 1397.01 1867.72 1397.12 1865.58 C 1399.29 1822.05 1388.29 1773.8 1388.98 1731.16 z"/>
<path transform="translate(0,0)" fill="rgb(177,79,14)" d="M 543.985 1837.66 C 553.098 1805.91 543.513 1741.23 570.752 1718.3 C 582.767 1708.19 610.613 1722.22 607.856 1740.9 C 601.024 1765.85 604.183 1845.55 596.66 1864.9 C 579.695 1857.47 559.942 1847 543.985 1837.66 z"/>
<path transform="translate(0,0)" fill="url(#Gradient3)" d="M 1628.56 484.827 C 1635.75 490.335 1636.21 493.405 1641.97 498.568 C 1646.32 502.458 1658.63 507.545 1663.19 512.232 C 1683.27 532.877 1703.16 553.867 1723.32 574.435 L 1841.04 692.519 C 1850.52 702.008 1895.88 750.623 1903.23 751.021 C 1906.45 746.218 1909.57 731.406 1909.09 725.529 L 1911.6 723.037 C 1919.03 748.752 1927.53 779.666 1932.89 805.861 C 1979.62 1030.95 1944.59 1265.33 1834.07 1466.92 C 1786 1553.88 1710.54 1647.09 1636.57 1712.98 C 1623.6 1724.53 1601.01 1744.43 1586.31 1753.56 C 1584.3 1745.43 1582.45 1731.96 1580.92 1723.41 C 1578.18 1707.59 1574.72 1691.9 1570.55 1676.4 C 1545.66 1580.73 1494.64 1493.87 1423.19 1425.55 C 1412.43 1415.44 1390.75 1396.1 1377.97 1388.74 C 1376.02 1386.02 1374.24 1385.21 1371.42 1383.2 C 1424.16 1340.98 1462.61 1301.14 1492.43 1239.38 C 1538.74 1143.45 1545.66 1032.04 1530.06 927.994 C 1527.38 910.18 1519.98 867.128 1514.38 851.119 C 1528.67 844.09 1541.38 838.93 1555.07 829.674 C 1666.23 754.484 1701.9 599.02 1628.56 484.827 z"/>
<path transform="translate(0,0)" fill="url(#Gradient2)" d="M 436.777 827.485 C 418.568 812.521 401.858 795.822 386.883 777.623 C 242.995 602.263 392.694 342.305 614.953 369.673 C 687.763 378.639 735.187 412.942 780.235 468.983 C 784.522 477.781 792.659 496.893 799.684 502.414 C 785.57 509.821 761.644 515.692 745.244 524.484 C 738.461 528.12 710.897 544.5 706.693 545.154 L 705.19 546.339 C 697.448 552.346 686.832 558.357 678.332 564.321 C 614.279 609.256 568.22 661.637 531.795 731.705 C 530.304 736.647 525.84 747.302 522.083 750.793 C 506.606 777.689 493.585 820.47 484.246 850.408 C 477.189 848.699 445.159 831.726 436.777 827.485 z"/>
<path transform="translate(0,0)" fill="rgb(254,164,125)" d="M 513.7 746.889 C 497.648 738.35 480.422 720.27 470.273 705.385 C 445.091 668.452 437.853 621.164 451.059 578.396 C 462.342 540.615 488.222 508.892 522.967 490.252 C 589.367 455.479 671.604 477.616 706.693 545.154 L 705.19 546.339 C 697.448 552.346 686.832 558.357 678.332 564.321 C 614.279 609.256 568.22 661.637 531.795 731.705 C 530.304 736.647 525.84 747.302 522.083 750.793 C 518.593 749.409 516.986 748.687 513.7 746.889 z"/>
<path transform="translate(0,0)" fill="rgb(232,130,52)" d="M 513.7 746.889 C 513.872 746.757 514.045 746.625 514.217 746.493 C 518.466 741.135 526.14 735.851 531.795 731.705 C 530.304 736.647 525.84 747.302 522.083 750.793 C 518.593 749.409 516.986 748.687 513.7 746.889 z"/>
<path transform="translate(0,0)" fill="rgb(177,79,14)" d="M 1201.76 502.359 C 1218.62 470.043 1238.27 440.087 1268.11 417.455 C 1324.21 374.9 1384.16 362.794 1453.06 370.788 C 1504.32 376.736 1553.09 403.761 1590.18 438.897 C 1602.86 450.913 1617.9 470.866 1628.56 484.827 C 1701.9 599.02 1666.23 754.484 1555.07 829.674 C 1541.38 838.93 1528.67 844.09 1514.38 851.119 C 1511.77 845.803 1506.39 827.468 1504.17 820.738 C 1497.83 801.483 1491.38 782.52 1482.91 764.015 C 1480.75 759.292 1478.2 754.96 1477.21 749.937 C 1474.92 742.926 1464.88 726.046 1461.04 719.075 C 1428.42 658.825 1382.33 606.919 1326.37 567.398 C 1318.58 561.782 1300.87 548.815 1292.29 545.315 C 1287.39 545.217 1222.9 504.673 1201.76 502.359 z"/>
<path transform="translate(0,0)" fill="rgb(254,164,125)" d="M 1292.29 545.315 C 1313.27 510.275 1335.51 488.871 1376.22 478.608 C 1504.03 446.385 1597.98 590.612 1532.02 699.468 C 1521.11 717.453 1497.23 742.952 1477.21 749.937 C 1474.92 742.926 1464.88 726.046 1461.04 719.075 C 1428.42 658.825 1382.33 606.919 1326.37 567.398 C 1318.58 561.782 1300.87 548.815 1292.29 545.315 z"/>
<path transform="translate(0,0)" fill="url(#Gradient1)" d="M 436.777 827.485 C 445.159 831.726 477.189 848.699 484.246 850.408 C 482.296 858.139 480.391 865.999 478.338 873.693 C 475.982 870.861 468.656 864.562 465.49 861.575 C 452.116 848.956 446.742 842.328 436.777 827.485 z"/>
<path transform="translate(0,0)" fill="rgb(71,56,164)" d="M 780.235 468.983 C 790.946 478.03 799.963 487.944 810.08 497.61 C 810.938 498.429 814.041 498.48 815.294 498.531 C 809.646 499.756 805.252 500.764 799.684 502.414 C 792.659 496.893 784.522 477.781 780.235 468.983 z"/>
</svg>