<svg version="1.1" xmlns="http://www.w3.org/2000/svg" style="display: block;" viewBox="0 0 2000 2000" width="500" height="500" preserveAspectRatio="none">
<defs>
	<linearGradient id="Gradient1" gradientUnits="userSpaceOnUse" x1="851.836" y1="820.28" x2="1147.09" y2="831.564">
		<stop class="stop0" offset="0" stop-opacity="1" stop-color="rgb(86,80,87)"/>
		<stop class="stop1" offset="1" stop-opacity="1" stop-color="rgb(111,102,110)"/>
	</linearGradient>
</defs>
<path transform="translate(0,0)" fill="rgb(220,219,237)" d="M 0 0 L 964.063 0 L 1036.89 0 C 1043.36 3.88727 1086.78 4.57043 1097.79 5.64301 C 1133.75 9.33619 1169.48 14.9526 1204.84 22.468 C 1278.83 38.2566 1350.86 62.1724 1419.6 93.7802 C 1435.37 100.981 1450.94 108.625 1466.28 116.703 C 1471.84 119.597 1486.07 127.476 1490.81 129.302 C 1488.99 133.263 1426.17 194.757 1417.69 203.466 L 1418.72 204.347 C 1426.68 211.055 1435.89 216.402 1444.29 222.593 C 1456.1 231.297 1467.46 240.588 1478.62 250.104 C 1526.72 291.062 1569.63 337.739 1606.42 389.099 C 1614.35 399.958 1620.16 410.681 1627.84 421.327 C 1627.93 421.528 1628.01 421.728 1628.1 421.928 C 1632.04 416.446 1654.72 394.687 1660.72 388.73 L 1730.45 318.933 C 1768.03 361.145 1805.64 407.45 1836.82 454.701 C 1912.33 571.317 1963.02 702.232 1985.74 839.292 C 1992.12 880.196 1995.8 919.72 1998.02 961.006 C 1998.17 963.909 1998.58 966.663 2000 969.233 L 2000 1024.73 L 2000 2000 L 0 2000 L 0 1034.81 L 0 965.056 L 0 0 z"/>
<path transform="translate(0,0)" fill="rgb(251,251,251)" d="M 1157.35 91.6475 C 1251.34 109.442 1337.99 152.078 1417.69 203.466 L 1418.72 204.347 C 1426.68 211.055 1435.89 216.402 1444.29 222.593 C 1456.1 231.297 1467.46 240.588 1478.62 250.104 C 1526.72 291.062 1569.63 337.739 1606.42 389.099 C 1614.35 399.958 1620.16 410.681 1627.84 421.327 C 1627.93 421.528 1628.01 421.728 1628.1 421.928 C 1645.21 450.719 1656.1 459.82 1679.73 483.319 L 1741.49 544.949 C 1754.68 558.149 1772.5 574.267 1780.86 590.603 C 1788.47 605.681 1790.41 622.986 1786.34 639.374 C 1781.41 658.892 1768.78 675.582 1751.34 685.639 C 1747.08 688.129 1744.01 689.56 1739.36 691.281 C 1756.45 706.635 1809.82 757.964 1820.19 775.092 C 1826.48 785.329 1830.1 796.98 1830.72 808.978 C 1831.76 827.978 1825.08 846.593 1812.19 860.587 C 1797.95 876.206 1780.85 884.041 1759.76 884.782 C 1755.29 884.939 1744.76 883.655 1742.42 884.499 L 1742.36 886.741 C 1737.02 896.07 1736.6 909.864 1735.04 920.691 C 1732.7 937.443 1729.84 954.117 1726.46 970.689 C 1721.27 994.584 1714.96 1018.22 1707.54 1041.52 C 1647.9 1229.32 1516.04 1385.7 1341.03 1476.23 C 1297.98 1498.83 1252.77 1517.03 1206.07 1530.54 C 1197.06 1533.2 1173.67 1540.53 1165.13 1539 C 1106.64 1528.45 1043.07 1501.88 991.29 1474.52 C 856.447 1404.53 746.57 1294.53 676.742 1159.61 C 582.542 976.077 568.162 776.669 631.382 580.475 C 649.095 586.487 685.324 592.302 702.356 585.582 L 702.785 584.432 C 696.763 582.325 687.287 579.125 681.728 576.588 C 668.738 570.661 630.338 540.191 634.239 524.23 C 630.989 520.645 627.489 517.86 624.172 513.997 C 607.532 494.616 604.915 474.925 610.507 450.449 C 634.606 449.359 665.968 450.236 690.505 450.258 C 701.527 425.21 733.673 382.377 750.499 360.659 C 837.738 249.187 954.815 164.755 1088.13 117.171 C 1108.26 109.775 1129.15 104.635 1149.65 98.4857 C 1154.02 97.1753 1156.06 96.9635 1158.08 93.1115 L 1157.16 92.9134 L 1157.35 91.6475 z"/>
<path transform="translate(0,0)" fill="rgb(102,95,102)" d="M 690.505 450.258 C 707.159 450.29 725.74 450.739 742.238 450.214 C 745.579 473.611 745.422 491.775 730.475 511.738 C 719.689 526.266 703.488 535.818 685.554 538.221 C 665.68 540.887 650.336 535.187 634.239 524.23 C 630.989 520.645 627.489 517.86 624.172 513.997 C 607.532 494.616 604.915 474.925 610.507 450.449 C 634.606 449.359 665.968 450.236 690.505 450.258 z"/>
<path transform="translate(0,0)" fill="rgb(220,219,237)" d="M 983.608 399.559 C 1032.19 394.008 1092.68 412.597 1132.22 440.511 C 1183.97 477.047 1219.84 529.511 1230.13 592.521 C 1235.08 622.902 1233.96 650.707 1233.94 681.305 L 1233.89 788.988 L 1233.97 865.616 C 1233.97 880.576 1234.44 896.527 1233.2 911.222 C 1229.78 951.626 1205.68 988.746 1168.89 1006.41 C 1152.12 1014.46 1138.46 1016.35 1120.41 1019.44 C 1121.17 1050.47 1122.96 1065.37 1158.17 1069.95 C 1120.15 1131.82 1080.83 1125.27 1015.5 1125.11 C 992.188 1125.17 967.755 1124.82 944.549 1125.22 C 896.072 1126.05 866.985 1112.04 842.239 1069.6 C 877.168 1064.42 878.559 1050.43 879.247 1018.92 C 820.656 1020.87 766.964 965.474 765.879 907.622 C 764.95 858.122 765.267 808.647 765.302 759.137 L 765.292 676.135 C 765.279 642.973 764.345 613.654 771.487 580.925 C 793.106 481.857 881.372 405.416 983.608 399.559 z"/>
<path transform="translate(0,0)" fill="url(#Gradient1)" d="M 999.149 923.288 C 994.562 921.78 984.697 921.892 979.533 921.872 C 948.056 921.749 924.587 925.764 896.391 908.71 C 874.303 895.35 859.012 873.984 852.779 848.993 C 846.795 824.017 851.028 797.686 864.539 775.845 C 877.476 754.903 899.087 738.807 923.16 733.203 C 941.665 728.894 1051.83 729.246 1070.74 732.581 C 1083.2 734.812 1095.1 739.456 1105.77 746.252 C 1127.17 760.016 1142.13 781.798 1147.31 806.705 C 1152.64 831.865 1147.55 858.112 1133.2 879.453 C 1110.72 913.518 1074.84 924.471 1035.7 921.976 C 1029.23 921.563 1007.23 921.578 1001.36 923.079 L 999.149 923.288 z"/>
<path transform="translate(0,0)" fill="rgb(250,72,87)" d="M 999.149 923.288 L 1001.36 923.079 C 1014.74 980.021 1052.42 1009.22 1108.01 1019.66 C 1100.8 1026.37 1086.15 1040.07 1076.27 1042.46 C 1037.76 1051.79 989.938 1045.33 950.411 1047.04 C 925.466 1048.11 909.797 1036.33 893.082 1020.85 C 933.729 1010.61 959.103 999.752 982.858 961.821 C 992.745 946.033 993.099 938.631 999.149 923.288 z"/>
<path transform="translate(0,0)" fill="rgb(102,95,102)" d="M 1257.59 450.185 L 1390.06 450.563 C 1393.04 474.571 1393.22 492.139 1377.32 512.413 C 1366.19 526.88 1349.69 536.231 1331.56 538.338 C 1312.57 540.585 1296.5 534.906 1281.24 523.937 C 1256.79 502.159 1252.68 481.29 1257.59 450.185 z"/>
<path transform="translate(0,0)" fill="rgb(220,219,237)" d="M 1206.3 449.981 C 1223.32 450.233 1240.61 449.542 1257.59 450.185 C 1252.68 481.29 1256.79 502.159 1281.24 523.937 C 1280.71 524.602 1280.06 525.832 1279.6 526.611 C 1279.77 527.654 1279.91 528.852 1280.45 529.774 C 1298.68 561.224 1321.35 573.98 1353.17 585.465 C 1306.58 597.147 1254.81 578.311 1227.46 539.166 C 1205.85 508.221 1205.32 486.287 1206.3 449.981 z"/>
<path transform="translate(0,0)" fill="rgb(251,251,251)" d="M 1730.45 318.933 C 1768.03 361.145 1805.64 407.45 1836.82 454.701 C 1912.33 571.317 1963.02 702.232 1985.74 839.292 C 1992.12 880.196 1995.8 919.72 1998.02 961.006 C 1998.17 963.909 1998.58 966.663 2000 969.233 L 2000 1024.73 L 2000 2000 L 0 2000 L 0 1034.81 C 3.91275 1042.11 4.62127 1081.14 5.62464 1092.52 C 18.6315 1240 66.5821 1377.41 138.556 1506.24 C 139.357 1508.62 145.261 1517.81 146.925 1520.42 C 235.404 1659.34 351.737 1776.31 493.496 1860.69 C 508.735 1869.76 592.653 1915.55 603.511 1913.34 C 605.67 1905.32 608.069 1884.66 609.403 1875.37 L 620.994 1793.28 L 640.14 1661.07 C 643.138 1639.92 647.842 1611.83 649.508 1591.1 C 664.397 1595.92 684.304 1605.17 699.581 1611.1 C 724.261 1620.49 749.363 1628.73 774.806 1635.8 C 929.139 1678.91 1092.6 1676.82 1245.78 1629.79 C 1451.6 1566.94 1625.23 1427.11 1730.51 1239.42 C 1750.82 1203.37 1771.01 1163.15 1783.23 1123.59 C 1785.03 1117.75 1784.07 1112.02 1787.39 1106.86 C 1785.33 1103.97 1783.65 1100.15 1782.88 1096.7 C 1767.36 1027.47 1757.77 955.913 1742.36 886.741 L 1742.42 884.499 C 1744.76 883.655 1755.29 884.939 1759.76 884.782 C 1780.85 884.041 1797.95 876.206 1812.19 860.587 C 1825.08 846.593 1831.76 827.978 1830.72 808.978 C 1830.1 796.98 1826.48 785.329 1820.19 775.092 C 1809.82 757.964 1756.45 706.635 1739.36 691.281 C 1744.01 689.56 1747.08 688.129 1751.34 685.639 C 1768.78 675.582 1781.41 658.892 1786.34 639.374 C 1790.41 622.986 1788.47 605.681 1780.86 590.603 C 1772.5 574.267 1754.68 558.149 1741.49 544.949 L 1679.73 483.319 C 1656.1 459.82 1645.21 450.719 1628.1 421.928 C 1632.04 416.446 1654.72 394.687 1660.72 388.73 L 1730.45 318.933 z"/>
<path transform="translate(0,0)" fill="rgb(102,95,102)" d="M 1730.45 318.933 C 1768.03 361.145 1805.64 407.45 1836.82 454.701 C 1912.33 571.317 1963.02 702.232 1985.74 839.292 C 1992.12 880.196 1995.8 919.72 1998.02 961.006 C 1998.17 963.909 1998.58 966.663 2000 969.233 L 2000 1024.73 C 1997.47 1029.29 1995.4 1071.73 1994.86 1079.7 C 1991.91 1121.23 1986.2 1162.52 1977.78 1203.29 C 1953.35 1316.87 1916.69 1407.12 1860.2 1507.48 C 1859.19 1496.05 1856.51 1485.13 1854.44 1473.89 C 1846.38 1430.24 1836.94 1386.65 1829.32 1342.95 C 1851.5 1347.22 1871.86 1345.97 1891.06 1332.81 C 1907.14 1321.69 1918.16 1304.64 1921.69 1285.4 C 1925.01 1266.53 1920.68 1247.11 1909.64 1231.44 C 1899.82 1217.75 1880.96 1200.78 1868.7 1188.18 C 1842.16 1160.9 1813.8 1134.22 1787.39 1106.86 C 1785.33 1103.97 1783.65 1100.15 1782.88 1096.7 C 1767.36 1027.47 1757.77 955.913 1742.36 886.741 L 1742.42 884.499 C 1744.76 883.655 1755.29 884.939 1759.76 884.782 C 1780.85 884.041 1797.95 876.206 1812.19 860.587 C 1825.08 846.593 1831.76 827.978 1830.72 808.978 C 1830.1 796.98 1826.48 785.329 1820.19 775.092 C 1809.82 757.964 1756.45 706.635 1739.36 691.281 C 1744.01 689.56 1747.08 688.129 1751.34 685.639 C 1768.78 675.582 1781.41 658.892 1786.34 639.374 C 1790.41 622.986 1788.47 605.681 1780.86 590.603 C 1772.5 574.267 1754.68 558.149 1741.49 544.949 L 1679.73 483.319 C 1656.1 459.82 1645.21 450.719 1628.1 421.928 C 1632.04 416.446 1654.72 394.687 1660.72 388.73 L 1730.45 318.933 z"/>
<path transform="translate(0,0)" fill="rgb(251,251,251)" d="M 0 0 L 964.063 0 C 959.357 2.84744 899.212 5.88388 888.716 7.13438 C 852.278 11.4864 816.085 17.6829 780.274 25.7001 C 708.02 42.3798 637.742 66.6871 570.623 98.213 C 549.84 107.783 529.135 120.319 508.798 129.485 C 508.44 129.435 508.083 129.385 507.726 129.335 C 458.879 83.3137 436.621 56.2677 364.692 56.5539 C 232.374 57.0806 173.41 217.809 262.51 309.229 C 265.27 312.06 269.319 315.085 269.644 318.888 C 134.042 464.803 44.7996 647.684 13.2233 844.362 C 9.96311 864.904 7.67768 885.19 5.72623 905.796 C 4.72335 916.386 3.97657 958.624 0 965.056 L 0 0 z"/>
<path transform="translate(0,0)" fill="rgb(102,95,102)" d="M 269.644 318.888 C 302.698 352.607 338.242 388.25 372.011 421.192 C 353.868 450.126 343.944 459.686 320.013 483.665 L 262.534 541.161 C 248.938 554.691 228.559 572.81 219.867 589.015 C 211.811 604.223 209.574 621.846 213.573 638.585 C 217.941 657.614 229.772 674.088 246.407 684.307 C 250.26 686.707 255.932 689.515 260.119 691.456 C 243.693 707.49 188.375 760.21 178.782 776.692 C 172.546 787.323 169.202 799.401 169.084 811.725 C 169.164 831.586 177.241 850.578 191.49 864.414 C 210.491 883.119 232.445 886.929 257.923 883.385 C 253.633 899.25 249.501 925.126 246.34 941.871 L 225.899 1050.46 C 223.36 1063.87 221.165 1077.45 218.611 1090.88 C 215.217 1108.72 200.978 1118.55 188.475 1130.96 L 132.433 1187.03 C 118.003 1201.45 97.6985 1219.84 86.8723 1236.59 C 74.0938 1256.37 74.7304 1287.68 86.4203 1308.14 C 96.2221 1325.33 112.509 1337.87 131.634 1342.95 C 142.907 1345.83 158.656 1345.91 169.964 1343.27 L 146.612 1464.55 C 145.603 1469.86 140.253 1503 138.556 1506.24 C 66.5821 1377.41 18.6315 1240 5.62464 1092.52 C 4.62127 1081.14 3.91275 1042.11 0 1034.81 L 0 965.056 C 3.97657 958.624 4.72335 916.386 5.72623 905.796 C 7.67768 885.19 9.96311 864.904 13.2233 844.362 C 44.7996 647.684 134.042 464.803 269.644 318.888 z"/>
<path transform="translate(0,0)" fill="rgb(102,95,102)" d="M 964.063 0 L 1036.89 0 C 1043.36 3.88727 1086.78 4.57043 1097.79 5.64301 C 1133.75 9.33619 1169.48 14.9526 1204.84 22.468 C 1278.83 38.2566 1350.86 62.1724 1419.6 93.7802 C 1435.37 100.981 1450.94 108.625 1466.28 116.703 C 1471.84 119.597 1486.07 127.476 1490.81 129.302 C 1488.99 133.263 1426.17 194.757 1417.69 203.466 C 1337.99 152.078 1251.34 109.442 1157.35 91.6475 C 1138.77 85.4184 1098.91 80.7737 1079.05 78.6765 C 939.882 63.5101 799.268 88.1386 673.54 149.701 C 639.172 166.775 614.18 181.723 582.63 203.146 C 560.457 183.005 530.494 151.648 508.798 129.485 C 529.135 120.319 549.84 107.783 570.623 98.213 C 637.742 66.6871 708.02 42.3798 780.274 25.7001 C 816.085 17.6829 852.278 11.4864 888.716 7.13438 C 899.212 5.88388 959.357 2.84744 964.063 0 z"/>
<path transform="translate(0,0)" fill="rgb(209,208,229)" d="M 368.646 160.423 C 393.844 158.287 408.301 181.206 424.103 197.206 L 464.146 237.131 C 473.925 246.821 487.342 258.537 494.18 270.036 C 491.864 276.717 452.961 312.141 444.142 322.037 C 439.991 326.385 438.865 327.595 433.779 331.083 C 415.291 313.703 398.416 296.17 380.677 278.045 C 365.244 262.849 351.005 250.29 336.904 233.587 C 322.008 215.941 322.086 193.343 335.885 174.838 C 343.607 164.483 356.056 161.354 368.646 160.423 z"/>
<path transform="translate(0,0)" fill="rgb(251,251,251)" d="M 1036.89 0 L 2000 0 L 2000 969.233 C 1998.58 966.663 1998.17 963.909 1998.02 961.006 C 1995.8 919.72 1992.12 880.196 1985.74 839.292 C 1963.02 702.232 1912.33 571.317 1836.82 454.701 C 1805.64 407.45 1768.03 361.145 1730.45 318.933 L 1660.72 388.73 C 1654.72 394.687 1632.04 416.446 1628.1 421.928 C 1628.01 421.728 1627.93 421.528 1627.84 421.327 C 1620.16 410.681 1614.35 399.958 1606.42 389.099 C 1569.63 337.739 1526.72 291.062 1478.62 250.104 C 1467.46 240.588 1456.1 231.297 1444.29 222.593 C 1435.89 216.402 1426.68 211.055 1418.72 204.347 L 1417.69 203.466 C 1426.17 194.757 1488.99 133.263 1490.81 129.302 C 1486.07 127.476 1471.84 119.597 1466.28 116.703 C 1450.94 108.625 1435.37 100.981 1419.6 93.7802 C 1350.86 62.1724 1278.83 38.2566 1204.84 22.468 C 1169.48 14.9526 1133.75 9.33619 1097.79 5.64301 C 1086.78 4.57043 1043.36 3.88727 1036.89 0 z"/>
<path transform="translate(0,0)" fill="rgb(220,219,237)" d="M 1490.81 129.302 C 1495.08 130.373 1494.35 130.075 1497.3 126.815 C 1529.55 91.1776 1558.48 64.4296 1607.74 57.4925 C 1690.4 45.8507 1766.35 97.3525 1777.99 181.55 C 1784.25 226.775 1773.29 265.142 1744.27 300.76 C 1741.19 304.694 1731.32 315.018 1730.45 318.933 L 1660.72 388.73 C 1654.72 394.687 1632.04 416.446 1628.1 421.928 C 1628.01 421.728 1627.93 421.528 1627.84 421.327 C 1620.16 410.681 1614.35 399.958 1606.42 389.099 C 1569.63 337.739 1526.72 291.062 1478.62 250.104 C 1467.46 240.588 1456.1 231.297 1444.29 222.593 C 1435.89 216.402 1426.68 211.055 1418.72 204.347 L 1417.69 203.466 C 1426.17 194.757 1488.99 133.263 1490.81 129.302 z"/>
</svg>