<svg xmlns="http://www.w3.org/2000/svg" width="500" height="500"><path fill="#f6734b" d="M0 0h500v500H0z"/><path fill="#f26938" d="M87 0a72603 72603 0 0 1 142.041-.33l3.017-.004c16.113-.026 32.226-.074 48.34-.129q24.807-.084 49.616-.102a7697 7697 0 0 0 30.605-.082q10.5-.047 21-.034c4.036.004 8.071-.002 12.107-.034 3.702-.03 7.403-.03 11.105-.01 1.96.003 3.919-.022 5.878-.05C419.276-.687 425.856 1.156 433 6c5.32 5.44 8.285 11.114 8.293 18.816-.13 7.86-1.51 15.429-2.98 23.122q-.621 3.35-1.235 6.702l-.84 4.56a739 739 0 0 0-2.68 15.476l-.339 2.082a2723 2723 0 0 0-1.57 9.773l-.57 3.516-.488 3.057C430 96 430 96 428.958 98.926c-1.094 3.51-1.254 6.547-1.368 10.219-.446 9.679-2.222 19.04-4.027 28.543q-.94 5.036-1.872 10.074l-.45 2.415A502 502 0 0 0 418 170h2l1.5 3.25c2.45 4.945 5.552 9.393 8.695 13.918C432 190 432 190 432.93 192.328c1.598 3.99 3.86 7.556 6.07 11.234q1.346 2.251 2.688 4.504l1.199 1.999c1.853 3.22 3.296 6.178 4.113 9.81.814 3.45 1.828 6.777 3 10.125h2c3.74 13.816 5.486 27.046 5.375 41.313l-.014 2.151c-.108 11.776-.108 11.776-1.361 15.536a455 455 0 0 0-.596 5.903c-.688 7.257-1.582 12.767-5.404 19.097-.698 1.99-1.37 3.988-2 6-11.552-.184-22.234-2.154-33.465-4.75-4.518-1.044-9.022-1.874-13.598-2.625-9.374-1.694-18.304-4.77-27.325-7.778-3.425-1.11-6.877-2.111-10.34-3.094-3.311-1.097-6.316-2.666-9.4-4.28-3.623-1.858-7.304-3.573-10.997-5.286-1.015-.47-1.015-.47-2.05-.952Q338.414 290.117 336 289c5.13-5.13 17.759-3.275 24.629-3.342 7.019-.194 12.978-1.6 19.672-3.662 7.191-1.936 14.607-2.503 21.997-3.28a764 764 0 0 0 6.12-.689l3.618-.383c3.075-.668 4.201-1.08 5.964-3.644.583-3 .583-3 0-6-1.36-2.087-1.36-2.087-4-3-5.943-.242-11.571.244-17.46 1.016-12.61 1.648-25.03 2.274-37.728 2.484-12.922.214-25.509.957-38.312 2.879-3.537.519-6.917.915-10.5.621-2.375-1.875-2.375-1.875-4-4v-2l-1.75-.875L302 264l-2.062-.812c-3.652-2.239-5.128-6.43-6.938-10.188 4.455 1.361 6.254 3.308 9 7l2 1v2c4.126-.023 8.25-.1 12.375-.187l3.504-.018c10.034-.255 18.01-3.086 25.465-9.943 12.147-13.58 14.485-28.858 13.84-46.358-.663-9.003-3.766-17.293-9.184-24.494l-1.687-2.562c-7.378-7.777-15.888-12.443-26.563-12.938-9.082.232-17.59 3.473-24.23 9.773-2.925 3.324-5.271 6.923-7.52 10.727l-1.156 1.898C281.892 201.38 281.325 216.437 285 230a387 387 0 0 0 2.402 6.95c.795 2.725.815 5.234.598 8.05h2l1 4c-3 0-3 0-4.605-1.574l-1.582-2.113-1.606-2.075c-1.409-2.613-1.438-4.312-1.207-7.238l-2 1 .508 2.117.617 2.758.633 2.742L282 247l-2 2c-.643 2.069-.643 2.069-1 4h-2v2l-1.793.41c-5.397 1.47-8.26 2.97-11.23 7.75-.885 1.667-1.686 3.377-2.477 5.09-1.833 3.36-2.937 4.356-6.5 5.75-4.817.801-8.039.516-12.375-1.812-3.376-3.21-3.844-7.333-4.863-11.723-.595-2.66-.595-2.66-3.012-4.527-2.872-1.018-2.872-1.018-6.375-1.875C225 253 225 253 223.063 251.438c-2.828-6.487-.797-13.453.687-20.063l.475-2.17c1.207-5.02 3.126-8.782 5.775-13.205 3.829-8.62 5.664-16.705 6.543-26.016.28-2.92.824-5.681 1.48-8.539 1.384-6.731 1.411-13.471 1.415-20.32l.009-2.121c.018-16.434-2.323-32.471-4.988-48.655-.39-2.847-.555-5.484-.459-8.349h-2q-1.005-4.154-2-8.312l-.578-2.381-.547-2.295-.508-2.11C228 85 228 85 228 82h-2l-.367-1.977c-.747-3.893-1.503-7.632-2.758-11.398C222 66 222 66 222 62h2v-2c1.68-1.508 1.68-1.508 3.875-3.125l2.18-1.633C232 54 232 54 234 54l1-3c2.91-1.416 5.847-2.3 9-3v-2c4.421-3.28 8.504-4.168 14-6l-29-1v2c-4.752 1.335-8.917 2.169-13.886 2.226-11.949.14-22.92 3.495-33.114 9.774a124 124 0 0 1-5.187 2.188l-2.606 1.042C172 57 172 57 170 57v2c-2.137.758-2.137.758-5 1-2.77-1.633-2.77-1.633-5.812-4.125l-1.695-1.364c-1.843-1.49-3.668-3-5.493-4.511a3399 3399 0 0 0-5.764-4.696 2003 2003 0 0 1-3.997-3.262c-5.674-4.628-11.468-9.085-17.298-13.513-3.743-2.845-7.463-5.709-11.129-8.654l-2.285-1.836a1392 1392 0 0 1-4.171-3.376C97.819 6.831 97.819 6.831 87 1z"/><path fill="#8fcfe1" d="M421 0h79v500H264v-1l2.066-.18C309.603 494.875 352.662 481.95 389 457c-.462-5.234-2.44-8.716-5.375-12.937-3.13-4.56-5.476-8.933-7.625-14.063a88 88 0 0 0-3.062-4.625c-2.16-3.045-3.578-5.904-4.938-9.375a88 88 0 0 0-2.437-3.937C360 403.357 360 403.357 360 400l-2.437-.75C355 398 355 398 354.188 395.875L354 394c3.602-2.401 6.509-2.438 10.688-2.625l2.126-.117c1.729-.094 3.457-.177 5.186-.258v-2h3v-2l1.833-.563c2.768-.86 5.53-1.742 8.292-2.625l2.883-.884c5.783-1.868 9.521-3.844 13.992-7.928 2.125-.898 2.125-.898 4-1.375 4.126-1.373 5.958-3.551 8.57-6.934 2.08-2.46 4.76-3.91 7.43-5.691 2.173-2.197 4.077-4.584 6-7l2.086-2.57c4.118-5.096 4.118-5.096 7.914-10.43h2l.25-2.125c.748-2.867 1.86-4.493 3.574-6.855 2.23-3.83 3.49-8.114 4.93-12.29L450 317l3-1 .438-2.875C454 310 454 310 455 308c.56-2.888 1.002-5.789 1.457-8.695.326-1.983.687-3.96 1.117-5.922 5.04-24.094.907-51.263-10.262-73.133l-1.041-2.064C442.87 211.557 438.997 205.284 435 199c-1.702-2.744-3.068-5.173-4.25-8.187-1.343-3.298-3.21-5.945-5.312-8.813-2.897-3.996-4.494-7.174-5.438-12h-2c.293-7.896 1.354-15.448 2.875-23.187l.535-2.727 1.076-5.452c2.122-10.872 3.818-21.508 4.108-32.595.211-3.156.868-6.024 1.683-9.078 2.583-9.85 4.077-19.932 5.786-29.961l1.064-6.18q1.238-7.195 2.46-14.394.538-3.152 1.089-6.302C440.63 28.796 441.91 18.896 435 9c-3.85-4.064-8.891-5.907-14-8zM0 0h77c-2.036 1.018-4.075 2.034-6.148 2.973C64.566 6.049 61.238 9.824 58 16c-3.265 9.794-.633 22.77 1.914 32.488 1.524 5.884 2.343 11.907 3.263 17.908q.478 3.108.968 6.213c.868 5.585 1.723 11.165 2.386 16.778l.257 2.169c.23 1.978.448 3.958.667 5.938.524 3.37 1.424 6.295 2.545 9.506.295 1.507.547 3.024.746 4.547l.344 2.531.347 2.672c.925 6.79 1.907 13.558 3.063 20.313a1351 1351 0 0 1 3.188 19.625l.398 2.502c1.388 9.111 1.012 14.69-3.586 22.748l-1.3 2.36A581 581 0 0 1 70 190h-2c-.284.73-.567 1.46-.86 2.21-2.565 6.273-5.812 12.234-9.077 18.165A2360 2360 0 0 0 55 216l-1.54 2.836C39.546 245.455 37.328 275.122 45 304l.875 3.34C50.649 323.217 59.801 340.673 72 352l1.375 2.375c3.239 5.232 7.931 9.706 13.125 13L89 369v2l2.191.785c2.92 1.263 5.187 2.772 7.746 4.652 7 5.136 14.394 7.887 22.563 10.625l3.225 1.083c7.737 2.52 15.13 4.281 23.275 4.855-1.323 2.893-2.803 5.086-4.937 7.438-1.898 2.142-3.335 4.018-4.813 6.5L137 409h-2l-.297 2.172c-.805 3.238-2.095 5.315-3.953 8.078-4.382 6.69-8.344 13.189-10.992 20.754-1.317 3.468-3.054 6.705-4.758 9.996h-2c-1.239 2.04-2.009 3.46-1.969 5.875 1.523 3.34 4.453 4.635 7.531 6.375l2.019 1.175c6.75 3.874 13.698 7.337 20.7 10.729 2.205 1.085 4.363 2.253 6.531 3.409C175.328 491.205 206.67 496.643 237 499v1H0z"/><path fill="#df5326" d="M90.938 1.438c4.412 2.514 8.214 5.814 12.085 9.078 3.038 2.535 6.144 4.962 9.29 7.359 9.513 7.274 18.91 14.69 28.25 22.188A990 990 0 0 0 161 56l2.191 1.766c2.36 1.61 4.015 1.467 6.809 1.234v-2c4.584-2.374 9.083-4.474 13.938-6.219 2.214-.838 4.347-1.795 6.5-2.781q2.279-1.006 4.562-2l1.973-.887c6.45-2.547 12.998-2.644 19.843-2.902 4.104-.164 8.116-.653 12.184-1.211v-2h31c-3.032 2.274-4.648 3.433-8 4.625l-2 .727c-1.984.643-3.97 1.168-6 1.648v2c-2.335 1.622-4.345 2.846-7.125 3.5-2.416.644-3.174 1.668-4.875 3.5-5.537 5-5.537 5-8 5v2h-2l.875 2.598C226.562 75.954 226.562 75.954 226 82h2c.677 2.205 1.34 4.414 2 6.625l1.125 3.727c.812 3.386 1.045 6.187.875 9.648h2q.944 5.75 1.875 11.5l.527 3.207c2.203 13.623 3.958 26.913 3.914 40.72-.004 2.073.02 4.145.045 6.218.039 8.587-.898 16.551-2.685 24.953-.564 2.837-.89 5.458-.988 8.34-.394 4.9-1.95 9.325-3.563 13.937l-.779 2.238c-1.373 3.768-2.767 6.762-5.346 9.887-.705 2.147-.705 2.147-1 4h-2l-.812 2.563L222 233l-.66 1.922c-.715 1.89-.715 1.89-2.34 5.078-2.102.7-2.102.7-4 1l.656-3.121c3.497-17.511 3.622-33.928-2.656-50.879h-3c-1.29-1.469-1.29-1.469-2.625-3.5-6.103-8.457-13.038-14.245-23.375-16.5-9.948-1.385-18.32 1.065-26.543 6.762-6.483 5.353-10.984 11.819-13.644 19.8L143 196l-3 1c-2.658 11.896-2.37 26.266 1.344 37.89C142 237 142 237 142 240h2c1.22 6.15.745 11.733.063 17.938l-.303 2.939q-.37 3.563-.76 7.123c-31.664-.747-31.664-.747-44.025-2.34-3.616-.46-7.215-.784-10.858-.906l-2.239-.08L84 265c-2.313 3.47-2.34 4.925-2 9 1.6 3.074 1.6 3.074 3.77 3.568l2.183.276 2.523.334 2.774.322 2.885.367c5.908.73 11.827 1.34 17.752 1.918l2.023.198q4.958.484 9.921.927C137.9 283.032 137.9 283.032 143 285c1.382 2.765 1.095 5.046 1.063 8.125l-.028 3.32L144 299c-24.85 10.875-50.818 16.311-77.492 20.523-2.493.356-2.493.356-4.508 1.477a98 98 0 0 1-5.625-.437l-3.04-.31L51 320c-1.473-3.403-2.37-6.528-2.937-10.187-.622-3.698-1.432-7.136-2.626-10.688C43.544 293.193 43.282 287.188 43 281h-2c-.472-12.807.335-23.738 4-36q.518-1.983 1.016-3.973C47.834 233.781 49.974 226.84 53 220h2l.25-2.875L56 214l1.938-.937c2.496-.983 2.496-.983 3.25-4.625L62 205l1-1 .313-3.687c.494-4.43 1.862-6.888 4.687-10.313h2l.625-2.312C72 184 72 184 73.504 181.645c5.034-7.907 4.99-13.546 3.496-22.645l-.336-2.058a541 541 0 0 0-1.91-10.801c-1.266-6.834-2.169-13.724-3.082-20.613-.363-2.74-.736-5.477-1.11-8.216l-.333-2.59c-.62-4.51-1.475-8.795-2.737-13.171-1.573-5.528-2.318-10.972-2.93-16.676A623 623 0 0 0 60.939 58.5l-.492-3.125A180 180 0 0 0 57 39c-.524-2.993-.784-5.97-1-9l-.234-2.664C55.4 20.128 56.922 14.972 61 9c7.399-7.915 19.64-12.113 29.938-7.562"/><path fill="#fefefe" d="M499 264h1v236H264v-1l2.066-.18c56.466-5.116 109.87-26.016 151.75-64.847a93 93 0 0 1 4.77-4.012 38 38 0 0 0 5.476-5.399c2.591-3.05 5.278-5.966 8.052-8.85C447.898 403.341 462.53 386.405 468 370h2l1.063-3.562c1.42-4.284 3.238-8.313 5.187-12.375C489.779 325.472 496.1 295.408 499 264M0 259h1l.12 1.946C3.133 292.256 9.537 321.138 22 350l1.406 3.262c1.158 2.6 2.362 5.172 3.594 7.738l1.25 2.691C34.645 377.044 42.42 389.71 52 401q1.665 2.148 3.313 4.313c3.015 3.888 6.142 7.674 9.312 11.437l1.38 1.646c8.987 10.603 19.563 19.643 30.495 28.166l2.356 1.842c3.293 2.538 6.364 4.83 10.144 6.596v2l2.137.773c3.136 1.344 5.808 3.004 8.676 4.852 6.9 4.356 14.1 7.957 21.436 11.513 2.215 1.09 4.385 2.263 6.564 3.425C175.327 491.205 206.669 496.643 237 499v1H0z"/><path fill="#90cfe1" d="M87 0h324c-3 2-3 2-6.16 3.723-4.408 2.505-8.308 5.574-12.277 8.715l-2.348 1.843a1536 1536 0 0 0-16.152 12.907l-2.024 1.636-1.879 1.531-1.636 1.333c-1.567 1.312-1.567 1.312-3.065 2.884-1.926 1.885-4.153 3.044-6.459 4.428l-1.562 1.688C356 42 356 42 352 42l-1 3-6 4a1049 1049 0 0 0-4 5c-4.345 3-4.345 3-7 3v2c-5.062-.537-8.954-2.313-13.375-4.687-16.231-8.38-32.415-12.72-50.543-14.883C267 39 267 39 264 38c-26.854-1.824-58.69.155-82 15a124 124 0 0 1-5.187 2.188l-2.606 1.042C172 57 172 57 170 57v2c-2.137.758-2.137.758-5 1-2.77-1.633-2.77-1.633-5.812-4.125l-1.695-1.364c-1.843-1.49-3.668-3-5.493-4.511a3399 3399 0 0 0-5.764-4.696 2003 2003 0 0 1-3.997-3.262c-5.674-4.628-11.468-9.085-17.298-13.513-3.743-2.845-7.463-5.709-11.129-8.654l-2.285-1.836a1392 1392 0 0 1-4.171-3.376C97.819 6.831 97.819 6.831 87 1z"/><path fill="#f26939" d="M280 431v2l3.5-.187c3.764.006 6.704.791 10.203 2.253 2.892 1.176 5.833 2.144 8.797 3.122l3.156 1.042L308 440v2l2.078.27c3.593.898 6.515 2.547 9.672 4.418l1.865 1.089c7.116 4.19 13.597 8.274 19.385 14.223l2.625 1.5c2.84 1.794 3.72 3.62 5.375 6.5 1.32 1.018 2.65 2.022 4 3v2l-2.937 1.313c-3.34 1.388-3.34 1.388-4.063 4.687a68 68 0 0 1-7.312 3.25l-2.365.907c-52.149 19.128-108.087 19.07-161.073 3.843l-3.444-.97c-6.091-1.826-10.228-3.61-14.806-8.03-2.217-.853-2.217-.853-4-1v-2h-5l-1-5h2l1-3a100 100 0 0 1 5.25-4.437l2.89-2.31L161 460l2.504-2.02a287 287 0 0 1 8.184-6.23l2.886-2.14C177 448 177 448 179 448l1-2h2a77 77 0 0 0 3.75-2.375c4.732-3.026 8.559-4.625 14.25-4.625v-2l2.633-.805 3.492-1.07 3.445-1.055c2.133-.665 4.253-1.37 6.352-2.136 3.7-1.122 7.375-1.588 11.203-1.997 4.939-.478 4.939-.478 9.79-1.453 13.566-3.147 29.688-.542 43.085 2.516"/><path fill="#f16939" d="M90.938 1.438c4.412 2.514 8.214 5.814 12.085 9.078 3.038 2.535 6.144 4.962 9.29 7.359 9.513 7.274 18.91 14.69 28.25 22.188A990 990 0 0 0 161 56l2.191 1.766c2.36 1.61 4.015 1.467 6.809 1.234v-2l4-1v2h-2v2c-.713.23-1.426.461-2.16.7-6.105 2.078-10.734 4.39-15.84 8.3h-2v2c-1.26.92-2.56 1.787-3.875 2.625-3.242 2.314-4.698 3.847-5.625 7.75L142 85h-3v2c-4.385 3-4.385 3-7 3v4h-4l-1 8-3.312.75c-3.59.958-3.59.958-5.563 2.875-1.13 2.386-1.342 3.907-1.562 6.5L116 116c-2 1.25-2 1.25-4 2a63 63 0 0 0-1 4c-2.011 5.278-4.243 9.725-8 14l-1 2h-3l-1 4h-2l-.445 1.688c-1.562 5.311-3.633 9.098-7.067 13.417C84.155 162.621 82.183 168.138 81 175h-3l.082-3.91c-.003-4.943-.603-9.657-1.394-14.528l-.41-2.629c-1-6.36-2.066-12.71-3.152-19.056a383 383 0 0 1-1.876-12.283l-.38-2.79a679 679 0 0 1-.692-5.286c-.598-4.44-1.44-8.645-2.682-12.952-1.574-5.533-2.32-10.98-2.933-16.691A623 623 0 0 0 60.937 58.5l-.491-3.125A180 180 0 0 0 57 39c-.524-2.993-.784-5.97-1-9l-.234-2.664C55.4 20.128 56.922 14.972 61 9c7.399-7.915 19.64-12.113 29.938-7.562"/><path fill="#fefefe" d="M421 0h79v235h-1l-.196-2.022c-1.587-15.938-3.86-31.446-7.804-46.978l-.635-2.519c-4.637-17.881-11.909-35.183-20.462-51.533C469 130 469 130 469 128h-2l-.926-1.844c-7.672-14.696-18.315-32.326-31.256-42.947-2.554-3.104-2.13-4.935-1.76-8.889.06-.654.12-1.309.18-1.983.864-8.635 2.588-17.146 4.253-25.654 3.862-18.25 3.862-18.25-1.08-35.663C432.561 5.509 427.025 3.468 421 1zM0 0h77c-2.036 1.018-4.075 2.034-6.148 2.973C64.566 6.049 61.238 9.824 58 16c-3.518 10.554-.246 24.218 2.456 34.65 1.187 5.127 1.925 10.34 2.731 15.538l.577 3.521.529 3.396.485 3.068c.309 3.935.083 6.733-2.387 9.87l-2.141 2.144c-9.277 9.914-17.178 21.316-23.777 33.168-1.416 2.542-2.928 4.993-4.473 7.457-3.537 5.88-6.362 12.074-9.16 18.328a304 304 0 0 1-2.336 5.02c-8.054 17.614-13.04 36.629-16.15 55.695-.308 1.865-.65 3.725-.999 5.583C1.91 221.26 1.412 229.065 1 237H0z"/><path fill="#f87855" d="m250.375 36.625 3.613-.004c7.218.09 13.956.908 21.012 2.379q2.289.403 4.582.781l2.135.364q2.124.36 4.25.71c4.165.716 8.062 1.699 12.033 3.145v1c-4.161.082-7.947-.018-12-1l-.852 3.043c-2.603 9.102-5.687 18.045-9.3 26.793-1.178 3.008-2.033 6.04-2.848 9.164h-2l-.375 3.063c-.488 3.074-1.177 5.807-2.086 8.765-1.017 4.098-1.498 8.298-2.074 12.477C266 110 266 110 265 111a125 125 0 0 0-.754 5.566l-.4 3.409-.409 3.588-.42 3.6Q262.505 131.58 262 136h-2c-1.06 38.73-1.06 38.73 8.648 75.898 1.322 3.032 1.648 4.85 1.352 8.102h2v4h2c2 3 2 3 2.938 6.375.858 3.558.858 3.558 2.625 6.063 2.021 3.604 2.234 6.433 2.437 10.562l-2 2c-.643 2.069-.643 2.069-1 4h-2v2l-1.793.41c-5.397 1.47-8.26 2.97-11.23 7.75-.885 1.667-1.686 3.377-2.477 5.09-1.833 3.36-2.937 4.356-6.5 5.75-4.817.801-8.039.516-12.375-1.812-3.376-3.21-3.844-7.333-4.863-11.723-.595-2.66-.595-2.66-3.012-4.527-2.872-1.018-2.872-1.018-6.375-1.875C225 253 225 253 223.063 251.438c-2.828-6.487-.797-13.453.687-20.063l.475-2.17c1.207-5.02 3.126-8.782 5.775-13.205 3.829-8.62 5.664-16.705 6.543-26.016.28-2.92.824-5.681 1.48-8.539 1.384-6.731 1.411-13.471 1.415-20.32l.009-2.121c.018-16.434-2.323-32.471-4.988-48.655-.39-2.847-.555-5.484-.459-8.349h-2q-1.005-4.154-2-8.312l-.578-2.381-.547-2.295-.508-2.11C228 85 228 85 228 82h-2l-.367-1.977c-.747-3.893-1.503-7.632-2.758-11.398C222 66 222 66 222 62h2v-2c1.68-1.508 1.68-1.508 3.875-3.125l2.18-1.633C232 54 232 54 234 54l1-3c2.91-1.416 5.847-2.3 9-3v-2c4.421-3.28 8.504-4.168 14-6l-29-1v2c-7.051 2.212-13.647 2.202-21 2 8.184-8.184 31.606-6.374 42.375-6.375M447 323c0 4.533-1.544 7.323-4.062 11.063-1.714 2.597-2.239 4.04-2.938 6.937q-1.487 1.513-3 3a418 418 0 0 0-4.25 5.188L428 355l-1.969 2.43c-3.138 3.757-5.264 6.028-10.031 7.57l-1 3h-2l-.687 1.813c-1.713 2.853-3.321 3.759-6.313 5.187-3.312.688-3.312.688-6 1l-1 3c-4.171 2.422-8.595 4.058-13.125 5.688l-3.633 1.324C379 387 379 387 375 387v2h-3v2l-3.21.402-4.165.536-2.117.263c-3.876.462-3.876.462-7.508 1.799.195 1.95.195 1.95 1 4l1.918.895c2.52 1.337 3.008 2.344 4.144 4.918L364 408c1.388 2.442 2.747 4.683 4.5 6.875 1.626 2.303 2.566 4.675 3.621 7.277.925 1.945 2.016 3.51 3.317 5.223 2.374 3.176 3.806 6.372 5.312 10.023 2.139 4.452 4.986 8.495 7.738 12.586C390 453 390 453 390.234 455.56c-2.012 3.98-5.51 5.584-9.296 7.753l-2.444 1.442C368.142 470.784 357.57 476.694 346 480c1.52-3.367 2.521-4.608 6-6l-2.437-2.25C347 469 347 469 346.5 466.813L346 465a78 78 0 0 0-5-2c-2.812-2-2.812-2-5-4v-2l-2.168-.793c-2.953-1.259-5.458-2.766-8.144-4.52l-2.899-1.87-5.14-3.352-2.087-1.34-1.808-1.18c-1.896-1.021-3.652-1.51-5.754-1.945v-2l-1.828-.367-2.422-.508-2.39-.492c-2.34-.628-4.22-1.515-6.36-2.633-5.014-1.64-9.781-2.45-15-3v-2c-9.819-1.494-19.501-2.213-29.437-2.25l-3.01-.027c-5.636.022-10.834.537-16.326 1.818-2.282.47-4.465.657-6.79.772-6.525.542-12.654 2.694-18.875 4.628C202 437 202 437 200 437v2l-2.414.734c-5.813 1.84-10.732 3.562-15.586 7.266l-2 1c-1-3-1-3 .11-5.418l1.64-2.77c1.853-3.246 3.58-6.343 4.813-9.875 2.244-6.404 4.914-13.702 10.437-17.937 3.295-1.098 5.741-1.136 9.212-1.151l3.942-.026 4.336-.012 4.558-.026q4.911-.027 9.822-.045 7.765-.032 15.53-.077 16.487-.088 32.975-.163 17.789-.08 35.576-.178 7.719-.042 15.438-.071 4.805-.021 9.608-.05 2.228-.012 4.454-.018 3.042-.01 6.084-.032l3.437-.015c2.789-.125 5.315-.501 8.028-1.136-1.846-5.83-3.084-8.248-8-12-.875-2.625-.875-2.625-1-5 1.298-2.595 2.327-2.935 5-4 2.586-.344 2.586-.344 5.375-.5 4.22-.323 7.645-1.007 11.625-2.5 2.767-.728 5.54-1.432 8.316-2.121 2.897-.949 5.104-2.265 7.684-3.879a652 652 0 0 1 9.355-4.598c2.709-1.27 2.709-1.27 4.645-3.402h3v-2l3-1 1.188-2.25c1.842-2.795 2.817-3.513 5.625-5.125 4.878-2.848 8.684-6.573 11.199-11.68 1.765-3.474 4.845-5.886 7.676-8.507 1.526-1.673 2.39-3.38 3.312-5.438h2l.375-2.312C441 330 441 330 443 327h2z"/><path fill="#f26938" d="M229 39h31c-3.032 2.274-4.648 3.433-8 4.625l-2 .727c-1.984.643-3.97 1.168-6 1.648v2c-2.335 1.622-4.345 2.846-7.125 3.5-2.416.644-3.174 1.668-4.875 3.5-5.537 5-5.537 5-8 5v2h-2l.875 2.598C226.562 75.954 226.562 75.954 226 82h2c.677 2.205 1.34 4.414 2 6.625l1.125 3.727c.812 3.386 1.045 6.187.875 9.648h2q.944 5.75 1.875 11.5l.527 3.207c2.203 13.623 3.958 26.913 3.914 40.72-.004 2.073.02 4.145.045 6.218.039 8.587-.898 16.551-2.685 24.953-.564 2.837-.89 5.458-.988 8.34-.394 4.9-1.95 9.325-3.563 13.937l-.779 2.238c-1.373 3.768-2.767 6.762-5.346 9.887-.705 2.147-.705 2.147-1 4h-2l-.812 2.563L222 233l-.66 1.922c-.715 1.89-.715 1.89-2.34 5.078-2.102.7-2.102.7-4 1l.656-3.121c3.497-17.511 3.622-33.928-2.656-50.879h-3c-1.29-1.469-1.29-1.469-2.625-3.5-6.083-8.429-13.044-14.3-23.375-16.5-7.007-.692-13.29-.064-20 2 1.813-2 1.813-2 4-4h3l.379-2.18c.618-2.805 1.48-5.285 2.559-7.945l1.027-2.57C176 150 176 150 178 147q1.008-3.498 2-7l1.5-3.437c1.622-3.852 2.573-7.497 3.5-11.563h2l.313-2.062c.668-2.857 1.682-5.344 2.882-8.012.824-1.973 1.44-3.942 2.055-5.989 2.134-6.644 5.543-12.761 8.75-18.937h2l.734-2.594c1.376-3.703 3.246-6.713 5.516-9.906l1.202-1.741c2.166-3.07 4.339-5.628 7.236-8.009 2.494-2.403 2.494-2.403 2.406-4.715-1.02-5.58-3.604-10.682-6.07-15.75C213 45 213 45 213 43q2.593-.507 5.188-1l2.917-.562c2.688-.407 5.183-.517 7.895-.438z"/><path fill="#f5e6d9" d="M340.188 171.938c10.477 7.683 16.327 15.723 19.277 28.378.674 4.642.825 9.186.848 13.871l.016 2.52c-.161 14.02-5.017 25.775-14.329 36.293-9.943 8.578-18.067 11.032-30.982 10.23-8.93-1.016-16.164-7.89-22.018-14.23-6.28-8.221-10.262-18.673-11-29l-.191-2.527c-.528-12.68 2.59-25.206 10.191-35.473.463-.643.926-1.286 1.402-1.95 12.127-15.485 30.405-18.07 46.786-8.113"/><path fill="#fef8ef" d="M408.867 39.816 411 41l1.945 1.027C419.243 45.857 421.741 52.222 424 59c1.05 8.914-1.01 18.516-6 26-.227 2.323-.227 2.323-.09 4.902l.068 2.931.084 3.105c.153 12.829-.948 23.609-9.062 34.062a79 79 0 0 1-8 7c-3.258-2.75-4.959-6.369-6.937-10.062-8.343-15.13-17.905-30.705-30.748-42.483-4.191-3.855-4.191-3.855-4.846-7.03.609-2.78 1.573-4.796 3.031-7.237l1.406-2.395L364 66h2l.215-2.102c1.007-3.72 2.99-6.307 5.348-9.273l1.364-1.736c9.484-11.816 20.846-20.672 35.94-13.073"/><path fill="#f7e8da" d="M115 41c10.85 7.233 22.8 23.728 27 36-.895 3.4-3.258 5.355-5.781 7.701-12.606 11.721-21.546 26.264-29.88 41.19-1.955 3.494-4.066 6.813-6.339 10.109-5.147-.912-7.797-4.057-11-8-7.146-11.018-7.305-22.305-6.751-35.032.144-5.574-.392-9.388-3.256-14.22-3.734-6.575-4.103-15.112-2.376-22.326 2.574-7.427 6.956-12.935 13.844-16.805C99.498 35.641 106.387 36.221 115 41"/><path fill="#536767" d="M168 180c9.279-.794 15.548.908 23.004 6.504 6.952 6.231 10.564 15.237 11.2 24.441.195 13.313-2.419 21.987-11.712 31.618-4.807 4.413-10.421 6.516-16.867 6.937-6.543-.282-12.14-2.964-16.707-7.625-3.221-4.015-5.872-8.137-7.918-12.875-.347-.692-.694-1.384-1.05-2.098-2.869-8.77-2.366-21.507 1.718-29.761 3.85-6.187 7.735-11.77 14.332-15.141h4z"/><path fill="#536768" d="M335.785 182.078c2.342 1.462 4.231 3.004 6.215 4.922l1.953 1.828c8.53 8.816 9.426 17.514 9.34 29.304-.077 3.585-.15 6.442-1.293 9.868h-2l-.125 2c-2.334 8.003-9.06 13.872-16.125 17.813-6.217 1.968-11.997 2.323-18-.5-9.183-5.348-13.083-11.889-17.125-21.625-2.057-12.138-1.024-24.722 6.063-35.125 1.582-1.84 1.582-1.84 3.312-3.563l1.824-1.816c7.09-5.82 17.53-6.37 25.961-3.106"/><path fill="#fbf6ed" d="M195 170c7.694 5.783 13.827 12.226 18 21l1.242 2.262c5.284 11.315 4.463 27.982.758 39.738-5.558 13.375-12.214 22.183-25.262 28.605-7.058 2.634-15.476 2.652-22.718.516-2.535-1.19-4.736-2.504-7.02-4.121l-2.137-1.504c-5.733-4.532-9.19-10.263-12.863-16.496l-2-3c-5.61-16.032-4.709-34.388 2.25-49.762 5.23-9.701 13.361-16.622 23.676-20.425 9.002-2.38 17.95-1.402 26.074 3.187m-27 10v2l-2.687.25c-6.891 1.56-10.671 7.053-14.313 12.75-5.576 9.11-5.748 21.683-3.305 31.91.928 2.21 1.991 4.089 3.305 6.09l1.285 2.316c3.962 6.7 9.286 11.208 16.715 13.684 6.968.87 12.906-.56 19-4 7.996-6.302 12.248-14.047 14-24 1.017-11.435-.734-21.863-8-31-4.86-5.134-10.745-9.651-17.953-10.242-2.696-.007-5.358.064-8.047.242"/><path fill="#516566" d="M268.996 225.352c5.33 4.143 6.898 8.33 9.004 14.648.396 3.39.473 6.616 0 10-3.121 3.926-7.319 4.922-12.012 6.191-2.346.738-2.346.738-3.988 3.809l-.437 3.375c-.573 3.69-1.358 5.656-3.563 8.625-4.06 2.706-7.236 2.75-12 2-4.012-2.155-5.471-3.346-6.855-7.676a845 845 0 0 1-1.383-5.86c-.595-2.66-.595-2.66-3.012-4.526-2.872-1.018-2.872-1.018-6.375-1.875C225 253 225 253 223.063 251.438c-2.385-5.47-1.483-10.97.375-16.5 3.088-6.982 8.705-12.083 15.75-15 10.301-2.779 21.128-.464 29.808 5.414"/><path fill="#fbfdfc" d="M87 0h153v1l-1.99.104c-34.772 1.943-74.94 9.02-104.69 28.666C131 31 131 31 129.051 30.718c-3.4-1.19-5.98-3.592-8.738-5.843l-3.786-3.031-1.844-1.489c-3.521-2.836-7.1-5.597-10.683-8.355l-3.04-2.355q-1.604-1.23-3.21-2.457l-2.953-2.27C92.23 3.158 89.93 2.01 87 1z"/><path fill="#fcfcfc" d="M264 0h147c-3 2-3 2-6.148 3.71-4.49 2.55-8.441 5.71-12.477 8.915l-2.376 1.858a611 611 0 0 0-10.886 8.693l-1.769 1.425a550 550 0 0 0-4.645 3.801C370 30 370 30 367.281 29.836c-2.67-.979-4.839-2.37-7.281-3.836a177 177 0 0 0-4.555-1.836 273 273 0 0 1-10.285-4.277C330.8 13.64 316.23 9.564 301 6l-2.279-.576c-7.002-1.71-14.124-2.331-21.284-3.049l-3.923-.406Q268.758 1.478 264 1z"/><path fill="#fde1bc" d="m99.734 264.66 2.329.277a317 317 0 0 0 22.03 1.72c3.097.272 5.934.71 8.97 1.312 6.775 1.288 13.56 1.645 20.437 2.031 7.789.437 15.317 1.042 22.972 2.567 4.707.806 9.461.792 14.227.824 3.855.12 5.919.382 9.309 2.394 2.128 2.366 2.636 3.163 2.492 6.277-.5 3.938-.5 3.938-1.66 5.66-6.796 4.719-21.694.824-29.54-.054l-7.51-.821-3.897-.426a3069 3069 0 0 0-18.823-1.956l-7.465-.764q-5.652-.579-11.307-1.151c-7.125-.724-14.249-1.461-21.37-2.234a924 924 0 0 0-5.454-.574c-2.017-.207-4.03-.44-6.044-.676l-3.063-.341c-3-.919-3.855-2.017-5.367-4.725-.406-3.248-.263-5.332.938-8.375 4.507-3.552 12.353-1.585 17.796-.965"/><path fill="#fde0ba" d="M417.063 265.625C419 268 419 268 419.563 271c-.692 3.685-1.691 4.653-4.563 7-2.49.742-2.49.742-5.379 1.09l-3.405.43-3.779.418q-1.999.239-3.998.48c-18.862 2.226-37.789 3.932-56.696 5.726a880 880 0 0 0-20.903 2.238c-17.718 2.07-17.718 2.07-21.695-.652-2.019-3.051-1.696-6.212-1.145-9.73 1.812-2.674 2.878-2.96 6-4 1.47-.2 2.945-.363 4.422-.5l2.61-.25 2.718-.25q2.649-.248 5.297-.5l2.37-.219c1.955-.213 3.903-.485 5.846-.785 4.168-.553 8.282-.764 12.48-.937 9.84-.465 19.592-1.42 29.382-2.497l4.8-.513c8.517-.914 17.027-1.877 25.53-2.91 12.842-1.543 12.842-1.543 17.608.986"/><path fill="#f5e5d6" d="M195 170v3l-8-2v2c-3.353 3.58-6.899 6.66-11.824 7.457-2.43-.017-4.769-.14-7.176-.457v2l-3.187 1.188c-3.76 1.614-6.092 3.723-8.813 6.812l-2.062 2.188c-6.742 9.786-7.196 20.252-5.938 31.812.828 3.466 2.054 6.038 4 9l1.32 2.352c3.88 6.509 8.49 10.251 15.68 12.648 1.895.069 3.792.085 5.688.063l3.011-.028L180 248l-1 3h2v2l2 1 2.188 1.5c3.292 1.756 6.123 2.138 9.812 2.5-4.722 4.722-10.371 5.45-16.812 5.5-7.12-.058-12.355-1.37-18.188-5.5l-2.137-1.504c-5.733-4.532-9.19-10.263-12.863-16.496l-2-3c-5.61-16.032-4.709-34.388 2.25-49.762 5.23-9.701 13.361-16.622 23.676-20.425 9.45-2.498 17.292-.685 26.074 3.187"/><path fill="#df5428" d="m242 271 1.715.988c2.5 1.107 4.133 1.25 6.847 1.2l2.317-.02c2.31-.097 2.31-.097 5.121-1.168l1.25 2.047c4.808 7.427 8.432 10.735 17.043 12.707a215 215 0 0 0 6.852 1.34c2.855.906 2.855.906 4.761 2.734 1.822 3.618.81 6.266.094 10.172h-2v2c-11.449.602-20.291-.72-30-7a140 140 0 0 1-5-5c-2.99 1.413-5.654 3.062-8.375 4.938-7.323 4.93-12.858 7.198-21.687 7.375l-3.723.113C214 303 214 303 212.098 301.199c-1.64-3.285-1.614-5.587-1.098-9.199 3.51-4.478 8.045-4.69 13.348-5.516 6.127-1.119 9.422-4.137 13.652-8.484h2z"/><path fill="#3d4c4a" d="m172.75 180.938 2.422.027L177 181a58.7 58.7 0 0 1-3.937 8.438c-7.639 15.105-5.88 32.78-.926 48.402 1.227 3.07 2.927 5.49 4.863 8.16v2c-7.113.718-12.137.37-17.93-4.031-6.878-6.54-11.951-14.957-12.504-24.555a174 174 0 0 1-.004-4.789l.026-2.537c.292-10.705 4.079-18.293 11.412-26.088 4.573-3.932 8.805-5.15 14.75-5.062"/><path fill="#fddfb9" d="M189 300c2.779 2.128 2.973 2.814 3.5 6.438-.5 3.562-.5 3.562-2.691 5.601-7.785 5.435-16.468 8.624-25.387 11.691-4.204 1.56-8.089 3.523-12.067 5.579-4.219 2.126-8.49 4.114-12.792 6.066l-2.334 1.085c-7.257 3.264-7.257 3.264-11.229 2.54-2.875-2.625-2.875-2.625-5-6 0-3.243.208-5.06 2.315-7.561 1.826-1.56 3.422-2.368 5.642-3.271l2.352-.971 2.504-1.01 5.175-2.132 2.58-1.056a662 662 0 0 0 22.12-9.562l2.66-1.203a184 184 0 0 0 5.46-2.656c5.56-2.745 10.908-5.149 17.192-3.578M315.625 298.875c4.086 1.362 7.911 3.1 11.79 4.969 2.215.99 4.217 1.667 6.585 2.156v2l1.836.516c8.346 2.414 16.251 5.404 23.957 9.421 2.743 1.321 5.559 2.393 8.394 3.5 8.028 3.333 8.028 3.333 10.813 7.563.162 3.957-.528 5.459-3.125 8.438-3.805 2.068-5.68 1.427-9.875.562-2.965-1.164-2.965-1.164-5.937-2.625l-3.399-1.629-1.796-.864c-3.28-1.549-6.605-2.996-9.93-4.445l-2.054-.898a490 490 0 0 0-12.197-5.101c-4.99-2.05-9.642-4.507-14.312-7.204-2.27-1.31-2.27-1.31-4.562-1.718C310 313 310 313 308 310c-.623-4.093-.331-5.542 2.125-8.937C313 299 313 299 315.625 298.875"/><path fill="#f9f3e9" d="M330 171h3v2l3-1c7.396 1.656 12.68 5.87 17 12 5.78 9.393 7.26 19.333 7.313 30.188l.016 2.518c-.105 9.164-2.101 17.172-6.329 25.294l-1.312 2.531c-3.52 6.045-3.52 6.045-6.852 7.254-2.211.278-2.211.278-5.836.215l-.312 1.875C339 256 339 256 336 258c-3.997-.145-6.276-.425-9.437-2.937C325 253 325 253 325 251h-3v-2l2.125-.262c9.379-1.389 15.631-4.464 21.621-11.89 1.91-2.814 3.083-5.66 4.254-8.848h2c.118-3.625.188-7.249.25-10.875l.102-3.07c.135-10.56-2.775-18.404-10.079-26.075-6-5.228-12.41-7.543-20.273-7.98l2-4h2v-2l3-1z"/><path fill="#ef6a3b" d="M140 196h2l-.484 3.395c-2.172 17.514-1.333 34.082 9.484 48.605l1.438 2.027c4.425 5.746 10.71 9.69 17.562 11.973 10.98 1.005 18.395-.178 28-6l3.125-1.531c2.412-1.233 4.236-2.383 6.25-4.156L210 248l2 1c-5.21 6.669-10.416 12.677-17 18l-2.422 2.734c-3.979 3.313-8.201 2.485-13.103 2.043l-3.537-.402-3.55-.332c-4.862-.472-9.6-1.08-14.388-2.043-2.607-.219-5.202-.41-7.812-.562l-2.1-.131A1735 1735 0 0 0 143 268c-.151-9.362.43-18.66 1-28h-2c-3.219-9.095-4.387-17.423-4.375-27.062l-.004-2.991c.076-5.024.397-9.246 2.379-13.947"/><path fill="#3a4947" d="m245.313 219.875 2.675.055L250 220l-1.812 2.438c-4.723 7.168-5.693 14.635-5.625 23.062l-.061 2.684c.005 6.482 1.526 11.106 4.498 16.816l4 9c-4.397-.172-6.477-.535-9.812-3.5-1.979-2.644-2.613-4.956-3.188-8.187-.624-3.614-.624-3.614-3.187-6.25-2.912-1.158-2.912-1.158-6.438-2C225 253 225 253 223.063 251.438c-2.385-5.47-1.483-10.97.375-16.5 2.785-6.378 7.8-11.08 14.015-14.149 2.766-.857 4.972-.991 7.86-.914"/><path fill="#3d4b49" d="M314 184c2 3 2 3 2 7h-2c-2.624 15.882-2.859 31.123 0 47h2v4h2l1 5c-4.938-.24-7.726-1.743-11.262-4.996-7.635-8.802-10.229-18.879-10.058-30.285.857-9.952 3.428-16.526 10.945-22.969C311 187 311 187 313 187z"/><path fill="#df5326" d="M179 448c-.535 6.318-1.688 12.264-3.168 18.426-1.434 6.16-2.622 12.367-3.832 18.574-1.94-.256-3.877-.53-5.812-.812l-3.27-.458c-3.051-.763-3.94-1.405-5.918-3.73-2.103-.714-2.103-.714-4-1v-2h-5l-1-5h2l1-3a100 100 0 0 1 5.25-4.437l2.89-2.31L161 460l2.504-2.02a287 287 0 0 1 8.184-6.23l2.886-2.14C177 448 177 448 179 448"/><path fill="#dc856d" d="M447 323c0 4.533-1.544 7.323-4.062 11.063-1.714 2.597-2.239 4.04-2.938 6.937q-1.487 1.513-3 3a418 418 0 0 0-4.25 5.188L428 355l-1.969 2.43c-3.138 3.757-5.264 6.028-10.031 7.57l-1 3h-2l-.687 1.813c-1.713 2.853-3.321 3.759-6.313 5.187-3.312.688-3.312.688-6 1l-1 3c-4.171 2.422-8.595 4.058-13.125 5.688l-3.633 1.324C379 387 379 387 375 387v2h-3v2l-3.21.402-4.165.536-2.117.263c-3.876.462-3.876.462-7.508 1.799.195 1.95.195 1.95 1 4l1.938.813C360 400 360 400 361.25 403.625L362 407l-4-4-2.625-2.562C353 398 353 398 351 395c.125-2.562.125-2.562 1-5 3.07-2.003 5.762-2.298 9.375-2.5 4.22-.323 7.645-1.007 11.625-2.5 2.767-.728 5.54-1.432 8.316-2.121 2.897-.949 5.104-2.265 7.684-3.879a652 652 0 0 1 9.355-4.598c2.709-1.27 2.709-1.27 4.645-3.402h3v-2l3-1 1.188-2.25c1.842-2.795 2.817-3.513 5.625-5.125 4.878-2.848 8.684-6.573 11.199-11.68 1.765-3.474 4.845-5.886 7.676-8.507 1.526-1.673 2.39-3.38 3.312-5.438h2l.375-2.312C441 330 441 330 443 327h2z"/><path fill="#dd7652" d="M62 8c1.56 3.118.666 5.67 0 9l-2 1c-1.053 3.16-1.167 5.495-1.187 8.813l-.043 3.082c.1 3.091.1 3.091 1.148 5.832 1.501 4.541 1.99 9.101 2.582 13.836l.777 5.898.375 2.874c.451 3.454.916 6.904 1.41 10.353l.41 2.949C65.908 74.25 65.908 74.25 68 77c.462 1.86.462 1.86.762 3.965l.354 2.397.357 2.576.387 2.656c.408 2.8.806 5.603 1.203 8.406q.602 4.204 1.212 8.406.38 2.616.748 5.232l.344 2.397.298 2.106c.329 2.079.329 2.079 1.335 4.859.214 1.677.388 3.359.535 5.043l.264 3.006.263 3.138.276 3.08c.48 5.602.763 11.111.662 16.733h-1c-2.033-8.424-3.195-16.925-4.332-25.507a2401 2401 0 0 0-1.106-8.18l-.333-2.59c-.62-4.51-1.475-8.795-2.737-13.172-1.573-5.528-2.318-10.972-2.93-16.676A623 623 0 0 0 60.939 58.5l-.492-3.125A180 180 0 0 0 57 39c-.524-2.993-.784-5.97-1-9l-.234-2.664C55.398 20.094 57.16 15.119 61 9z"/><path fill="#a0cad4" d="M447 215c2 3 2 3 2 5l4 1c1.986 5.958 2.57 11.749 3 18l3 1c3.34 8.15 3.702 17.308 4 26l.099 2.153c.712 16.633-.706 37.553-10.099 51.847l-.875 2.5c-1.446 3.213-3.554 5.132-6.125 7.5.5-3.195 1.327-6.198 2.375-9.25.235-.686.47-1.372.71-2.078C450 317 450 317 453 316l.438-2.875C454 310 454 310 455 308c.56-2.888 1.002-5.789 1.457-8.695.326-1.983.687-3.96 1.117-5.922 5.02-23.992 1.18-51.743-10.683-73.219C446 218 446 218 447 215"/><path fill="#bbb8b4" d="M432 77h1c.103 6.264-.282 12.39-.875 18.625l-.238 2.773c-.456 4.852-1.283 8.984-2.887 13.602-.473 2.738-.772 5.488-1.062 8.25-.814 7.502-.814 7.502-1.938 9.75-.325 2.037-.61 4.08-.875 6.125-.644 4.747-1.399 9.427-2.338 14.124-1.258 6.302-2.442 12.307-1.787 18.751 1.414 1.622 1.414 1.622 3 3 1.59 2.676 2 3.818 2 7l3 1c1.133 1.742 1.133 1.742 2.125 3.875l1.008 2.117C433 188 433 188 434 191l2 1c.625 2.563.625 2.563 1 5h2l2 7h2l3 12c-2.925-1.463-3.372-3.566-4.75-6.5-2.329-4.8-4.913-9.12-7.953-13.492C432 194 432 194 430.562 190.562c-1.444-3.293-3.012-5.68-5.125-8.562-2.896-3.996-4.493-7.174-5.437-12h-2c.293-7.896 1.354-15.448 2.875-23.187l.535-2.727 1.076-5.452c1.883-9.646 3.567-19.18 4.014-29.009.283-5.841 1.158-11.034 2.734-16.652 1.352-5.248 2.03-10.61 2.766-15.973"/><path fill="#b76c53" d="M63 200c.625 1.875.625 1.875 1 4l-2 2a154 154 0 0 0-2 7l-4 1-1 6h-2l-.379 2.172c-.623 2.837-1.51 5.372-2.559 8.078-1.495 4.036-2.668 7.93-3.496 12.148-.44 2.023-.972 4.025-1.539 6.016C41.951 259.268 41.231 269.746 41 281h2c1.514 3.029 1.524 6.296 1.875 9.625.734 6.576.734 6.576 2.688 12.875 1.186 2.888 1.689 4.685 2 7.688.257 3.72.257 3.72 1.562 6.625C52 320 52 320 51 323c-12.7-31.334-15.637-63.32-2.707-95.074C52.421 218.23 57.151 208.774 63 200"/><path fill="#cf7b62" d="M267.734 221.234c6.923 5.396 12.828 13.376 14.204 22.203L282 247l-2 2c-.643 2.069-.643 2.069-1 4h-2v2l-1.793.41c-5.38 1.466-8.268 2.953-11.21 7.738-1.395 2.593-2.76 5.18-3.997 7.852l-2-1 2-3c.555-2.27.945-4.541 1.34-6.844.787-2.57 1.517-3.544 3.66-5.156 2.41-.879 2.41-.879 5.063-1.562 3.88-.961 3.88-.961 6.937-3.438.903-6.306.13-12.426-3-18-2.292-2.792-2.292-2.792-5-5l-2.437-2.187c-6.58-4.654-14.736-4.9-22.563-4.813-4.721.919-8.74 2.832-13 5l3-6c11.078-3.498 23.716-4.185 33.734 2.234"/><path fill="#d18f7c" d="M362 407c3.873 2.404 5.133 4.892 7 9 3.042 6.578 3.042 6.578 7.063 12.563 1.768 2.225 2.617 3.853 3.687 6.437 2.246 5.42 5.478 10.137 8.738 14.984C390 453 390 453 390.234 455.56c-2.012 3.98-5.51 5.584-9.296 7.753l-2.444 1.442C368.142 470.784 357.57 476.694 346 480c.742-1.953.742-1.953 2-4 2.678-.839 5.174-.818 8-1v-2l2.938-1.375c3.133-1.283 3.133-1.283 4.062-3.625 3.345-1.627 5.188-2 9-2v-2l1.563-.25c3.522-1.084 6.304-2.8 9.437-4.75l1-2h2c-2.488-8.373-6.057-15.793-10.547-23.273l-1.375-2.295a448 448 0 0 0-2.776-4.543l-1.29-2.131-1.173-1.902C368 421 368 421 368 417l-1.875-.187C364 416 364 416 362.75 413.688 362 411 362 411 362 407"/><path fill="#ea8462" d="M341 310c5.441.326 10.296 1.597 15.438 3.375l3.683 1.273L363 316l1 3 2.438-.375c5.216.55 8.62 3.011 12.562 6.375 2.188 2.938 2.188 2.938 3 6-.71 3.872-1.199 6.199-4 9-2.36.458-4.74.821-7.125 1.125l-3.883.508L364 342l-1-4h-2v-2l-2.812-.375C355 335 355 335 352 333l-2.5-.812c-4.1-1.392-7.913-3.201-11.816-5.067-2.635-1.208-2.635-1.208-5.41-1.644C330 325 330 325 328.186 322.937L327 321c4.43.66 8.264 2.293 12.313 4.125l4.257 1.895 2.204.986c3.63 1.62 7.272 3.213 10.914 4.807l1.995.877c1.77.776 3.543 1.543 5.317 2.31l2.762 1.207c3.123 1.106 5.095.75 8.238-.207 2.06-1.635 2.06-1.635 3-4-.132-2.706-.474-4.325-2.148-6.473-2.565-2.115-5.279-3.144-8.352-4.402l-3.79-1.574-1.898-.787c-2.59-1.092-5.137-2.27-7.687-3.452-4.314-1.98-8.657-3.71-13.125-5.312z"/><path fill="#b3bdbf" d="m57 208 1 2c-.89 1.918-.89 1.918-2.25 4.188-15.763 26.472-18.59 58.333-11.294 87.86.495 1.777 1.111 3.519 1.74 5.253C47 310 47 310 46 314l-2-9h-2l-.621-2.59-.816-3.348-.81-3.34c-.483-2.616-.483-2.616-1.753-3.722a171 171 0 0 1-.168-7.508l-.01-2.3a1490 1490 0 0 1-.007-4.837c-.002-2.449-.02-4.898-.04-7.347q-.005-2.352-.005-4.703l-.022-2.201c.02-4.698.834-8.641 2.252-13.104.176-1.808.305-3.622.375-5.437.397-5.334 1.688-10.626 5.625-14.563q.553-3.493 1-7h2l.313-2.312c.769-3.007 1.516-3.6 3.687-5.688a201 201 0 0 0 3-6z"/><path fill="#ca8163" d="M446 218c5.38 6.724 7.812 13.003 9.625 21.313l.617 2.685A716 716 0 0 1 458 250l.582 2.485c1.435 6.433 1.765 12.621 1.73 19.202l-.006 3.182c-.093 7.306-.876 13.955-2.583 21.068-.639 2.706-1.004 5.236-1.223 8-.392 4.385-1.806 8.013-3.5 12.063-1.168-3.478-.82-5.99-.125-9.562.923-5.055 1.51-10.038 1.879-15.16C455 289 455 289 456 286c.27-5.057.243-10.124.25-15.187l.006-2.198c.316-16.744.316-16.744-4.256-32.615-.04-2-.043-4 0-6h-2a301 301 0 0 1-2-3.75l-1.125-2.11C446 222 446 222 446 218"/><path fill="#b3bdc0" d="M71 124c2.087 3.882 2.775 7.682 3.438 12l.376 2.366q.395 2.507.782 5.015c.412 2.67.837 5.338 1.263 8.006l.829 5.3c.13.825.262 1.65.398 2.499 1.387 9.113 1.013 14.693-3.586 22.751l-1.3 2.362A581 581 0 0 1 70 190h-2l-.848 2.18a127 127 0 0 1-3.59 7.945l-1.246 2.57c-1.24 2.173-2.46 3.65-4.316 5.305.535-5.348 2.467-9.358 5-14h2l1-7 3-1c1.23-3.512 1.23-3.512 2-7h3l.438-1.875C75 175 75 175 76 173c.083-1.448.107-2.9.098-4.352l-.01-2.578-.025-2.695-.014-2.719Q76.03 157.328 76 154h-2c-2.325-3.487-2.298-5.07-2.414-9.2l-.117-3.661-.094-3.827-.117-3.86Q71.116 128.725 71 124"/><path fill="#db7c55" d="M80 82c2.06 1.671 2.931 2.512 3.309 5.186l-.086 2.533-.062 2.81-.099 2.971c-.205 14.338.952 26.139 11.063 37.25 2.522 2.425 2.522 2.425 4.813 2.328 3.293-1.722 4.381-4.859 5.937-8.078q1.04-2.052 2.09-4.098l1.035-2.02c2.022-3.805 4.341-7.487 7-10.882h1v6l-1.937.75c-2.22 1.025-2.22 1.025-2.579 3.05L111 122c-2.011 5.278-4.243 9.725-8 14l-1 2c-3.703.337-5.395.477-8.375-1.875C92 134 92 134 92 132h-2c-2.625-2.312-2.625-2.312-5-5v-3h-2c-2.28-8.8-2.433-17.6-2.625-26.625l-.117-4.488Q80.116 87.444 80 82"/><path fill="#e5825a" d="M174 272c3.312-.118 6.624-.188 9.938-.25l2.806-.102c6.468-.09 11.715.846 17.256 4.352 1.222 2.444 1.236 4.21 1.313 6.938l.113 2.652C205 288 205 288 203.457 289.809c-3.363 1.63-6.438 1.477-10.082 1.316-4.828-.367-4.828-.367-9.375.875-1.645-.47-3.289-.946-4.922-1.457-3.023-.79-6.053-1.035-9.16-1.297C168 289 168 289 166 288c-1.739-.153-3.482-.25-5.227-.316l-3.125-.127-3.273-.12-3.297-.13A2732 2732 0 0 0 143 287v-2l-3-1q7.47.61 14.941 1.227 2.538.21 5.075.416l7.328.603 2.26.183c3.575.298 7.13.648 10.688 1.108 3.89.486 7.664.63 11.583.65l3.93.043c3.288.114 3.288.114 5.195-2.23.472-4.061.472-4.061 0-8-1.774-2.076-3.237-2.878-5.936-3.31-2.336-.176-4.66-.262-7.001-.315C178.3 274.06 178.3 274.06 174 273z"/><path fill="#b5bec1" d="M234 35q8.194-.075 16.388-.11 2.786-.016 5.572-.04c2.674-.025 5.347-.037 8.02-.045l2.507-.032c4.356 0 7.507.345 11.513 2.227 3.344.467 6.668.825 10.03 1.123 4.576.482 7.984 1.588 11.97 3.877v2l2 1c-4.19-.661-8.302-1.497-12.437-2.437-6.475-1.412-12.909-2.349-19.481-3.133C267 39 267 39 264 38c-17.154-1.042-34.098.076-51 3 3.79-3.79 10.305-3.865 15.504-4.125 1.832 0 3.665.056 5.496.125z"/><path fill="#f9e8d9" d="m166 168 2 1-2 4h-6l1 5c-3.75 2-3.75 2-6 2l-.812 2.875C153 186 153 186 150 188c-.364 2.437-.364 2.437-.187 5.125l.082 2.758L150 198l-5.273 2.93c-1.888 1.079-1.888 1.079-3.727 3.07.864-11.67 5.502-21.248 14.313-29.047 6.74-5.366 6.74-5.366 10.687-6.953"/><path fill="#e37c55" d="M341 172h4v2h3c1.387 1.46 1.387 1.46 2.688 3.375l1.324 1.898C353 181 353 181 353 183l3 1c1.098 2.617 1.098 2.617 2.063 5.875 1.058 3.527 1.883 6.044 3.937 9.125 3.19 14.448-.17 28.375-5 42l-2 3h-2c2.732-8.36 2.732-8.36 4.125-11.687C361.92 219.64 360.052 202.245 355 190a50.4 50.4 0 0 0-5-8l-2-2.687c-2.219-2.566-4.569-4.95-7-7.313"/><path fill="#cb876f" d="m250.375 36.625 3.613-.004c7.218.09 13.956.908 21.012 2.379q2.289.403 4.582.781l2.135.364q2.124.36 4.25.71c4.165.716 8.062 1.699 12.033 3.145v1c-5.62.173-10.843-.474-16.375-1.437l-2.48-.409c-6.013-1.022-6.013-1.022-7.145-2.154-5.488-.842-10.893-1.188-16.437-1.316l-2.32-.063a3130 3130 0 0 0-7.243-.184l-4.95-.13q-6.024-.16-12.05-.307v2c-7.051 2.212-13.647 2.202-21 2 8.184-8.184 31.606-6.374 42.375-6.375"/><path fill="#a0cdd8" d="M311 8c13.768 2.611 26.19 7.391 39 13l3.563 1.555c5.22 2.334 10.342 4.85 15.437 7.445-3.101 3.988-5.536 6.533-10 9l-1.562 1.688C356 42 356 42 352 42l1-3h2l.188-1.875C356 35 356 35 358.563 33.75L361 33l-1-4-6-1v-3l-2.812-.312c-3.494-.754-3.81-1.304-6.188-3.688-8.661-4.398-18.686-7.214-28.187-9.062C313 11 313 11 311 8"/><path fill="#ec8864" d="M191.152 298.148c2.511 2.516 2.57 4.283 2.848 7.79l.313 3.152C194 312 194 312 192.246 314.305c-2.189 1.652-3.531 2.352-6.184 2.882l-2.09.442L182 318l-3 .625-2 .375v2l-7 1c1.332-2.665 3.022-2.93 5.684-4.008 8.204-3.16 8.204-3.16 15.316-7.992.25-3.458.25-3.458 0-7-1.998-2.415-1.998-2.415-5.937-2.437-6.082.154-10.706 2.778-16.063 5.437-2.84 1.322-5.7 2.602-8.562 3.875l-2.132.977c-1.743.777-3.522 1.47-5.306 2.148l-2-1 3-1v-2c3.51-2.53 6.735-3.567 10.938-4.437 4.955-1.154 8.043-2.524 12.062-5.563 4.546-2.331 9.461-3.355 14.152-.852"/><path fill="#dd774f" d="m315 167-2.379.883C301.694 172.147 295.948 176.936 290 187l-1.156 1.898c-8.979 16.121-6.136 33.227-1.43 50.047L288 241l-3-2v-3h-2c-1.622-5.815-2.46-11.288-2.75-17.312l-.122-2.53c-.373-10.074 1.37-18.155 5.872-27.158l.902-2.055c4.252-9.38 10.863-15.474 20.098-19.945 3.055-1.076 4.92-.99 8 0"/><path fill="#eb8e6b" d="m311 297 10 1v2l2.125-.187c3.528.23 5.815 1.479 8.875 3.187v2l9 1 1 3c-3.623 1.208-4.641.543-8-1v-2l-2.621-.336c-4.514-.887-8.325-2.769-12.477-4.703-3.212-1.064-4.748-1.13-7.902.039-2.315 3.473-2.255 4.927-2 9l1 3 2.938.125c5.166.688 8.971 3.842 13.062 6.875l-3 1c-1.69-.96-3.354-1.966-5-3l-3.062-1c-2.873-.978-4.718-1.95-6.938-4v-2h-2c-1.208-6.282-1.208-6.282-.312-9.375 1.63-2.019 2.782-2.288 5.312-2.625z"/><path fill="#ca7e61" d="M426 103h1c.547 11.948-1.104 22.927-3.375 34.625q-.72 3.81-1.433 7.621-.46 2.453-.925 4.906A456 456 0 0 0 418 170h2l2 5c-1.875-.312-1.875-.312-4-1-3.038-4.557-2.522-8.648-2-14 .849-3.991 1.842-7.88 2.93-11.812 2.694-10.114 3.587-20.257 4.28-30.667.38-5.135.8-9.704 2.79-14.521"/><path fill="#cd8061" d="M65 81c2.21 3.314 2.244 5.49 2.594 9.363.45 2.923 1.289 5.477 2.281 8.262C75.621 115.217 77.269 133.498 77 151h-1c-2.033-8.424-3.195-16.925-4.332-25.507-1.767-13.547-1.767-13.547-5.04-26.786C65.286 92.924 65.232 86.914 65 81"/><path fill="#adc5ca" d="M64 83c2.841 2.841 2.63 5.923 3 9.75.562 5.696.562 5.696 2.023 11.21 1.28 3.982 1.433 7.758 1.602 11.915l.117 2.375c.094 1.916.177 3.833.258 5.75-2.522-4.23-2.415-8.309-2.656-13.125-.339-2.83-.976-4.421-2.344-6.875-1.542-5.227-2.226-9.567-2-15-1.959.113-1.959.113-4 1a312 312 0 0 0-2 5q-1.987 1.025-4 2a93 93 0 0 0-1 4c-1.937 2.75-1.937 2.75-4 5h-2l-.187 2.313C46 111 46 111 43.437 112.813L41 114c3.851-11.09 14.592-22.935 23-31"/><path fill="#ebdfd4" d="M140 204h1l.148 3.402c.374 7.732.805 15.093 2.852 22.598 3.113-.669 3.113-.669 4.188-3.062L149 225l1.188 3.438c1.786 4.8 4.228 9.15 6.812 13.562l-1.812.375c-2.45.58-2.45.58-5.188 2.625v-3h-2c-5.179-3.585-6.273-7.93-7.508-13.953-1.158-7.925-.707-16.067-.492-24.047"/><path fill="#a3ced9" d="M499 256h1c-.526 20.135-3.438 39.929-8.437 59.438l-.837 3.279c-1.98 7.375-4.63 14.305-7.726 21.283-1.122-3.365-.905-3.988.25-7.187l.86-2.43q.809-2.17 1.656-4.328c3.776-9.6 5.568-19.393 6.707-29.61.527-3.445.527-3.445 1.509-6.263 1.035-3.237 1.492-6.158 1.834-9.534.125-1.18.25-2.361.377-3.578l.37-3.695q.373-3.645.753-7.29l.327-3.248c.297-2.362.711-4.55 1.357-6.837"/><path fill="#716055" d="M267 225c6.88 4.283 8.46 7.378 11 15 .396 3.39.473 6.616 0 10-3.121 3.926-7.319 4.922-12.012 6.191-2.346.738-2.346.738-3.988 3.809l-.437 3.375c-.573 3.69-1.358 5.656-3.563 8.625-3 2-3 2-5.187 1.625L251 273h2v-2l2.375-1.562c3.235-3.004 3.552-5.086 4.266-9.317C260 258 260 258 261 255h3l1-3 6.152-.586L273 251l1-2h2c-1.295-8.827-2.295-15.593-9-22z"/><path fill="#abc5ce" d="M404 375c-.506 2.169-1 4-2 6-2.128.815-4.288 1.403-6.48 2.023-2.687.93-2.687.93-5.364 2.942-3.465 2.234-6.489 3.193-10.469 4.223-4.157.782-4.157.782-7.687 2.812-1.975.21-3.956.368-5.937.5-4.185.177-4.185.177-8.063 1.5-1.134 2.017-1.134 2.017-2 4l-2-2c.25-2.062.25-2.062 1-4 3.042-1.521 6.28-1.374 9.625-1.562l2.14-.131q2.618-.158 5.235-.307v-2h3v-2l1.833-.563c2.768-.86 5.53-1.742 8.292-2.625l2.883-.884C392.618 381.439 400.063 375 404 375"/><path fill="#b1c2c4" d="M460 263h1c.686 43.782.686 43.782-8 57l-.875 2.5c-1.446 3.213-3.554 5.132-6.125 7.5.5-3.195 1.327-6.198 2.375-9.25.235-.686.47-1.372.71-2.078C450 317 450 317 453 316l.438-2.875C454 310 454 310 455 308c.559-2.884 1.002-5.782 1.46-8.684.329-2.018.682-4.033 1.08-6.039 1.926-9.996 2.11-20.128 2.46-30.277"/><path fill="#afc2c7" d="M361 404h2v2h3c2.28 3.135 3.641 6.523 5.105 10.094 1.366 2.909 3.128 5.536 4.907 8.207C377 426 377 426 377 428h2l.367 1.715.508 2.223.492 2.214c.463 2.055.463 2.055 2.633 2.848l.375 1.938c.434 2.26.434 2.26 2.688 3.312L388 443v5h2a125 125 0 0 1 4 6l-4 3-1.25-3.094c-1.587-3.702-3.575-7.012-5.75-10.406-2.813-4.39-4.958-8.708-7-13.5a88 88 0 0 0-3.062-4.625c-2.161-3.046-3.577-5.905-4.938-9.375a93 93 0 0 0-2.5-4.062c-1.678-2.584-3.164-5.16-4.5-7.938"/><path fill="#fbc69d" d="M114 267c2.104-.055 4.208-.093 6.313-.125l3.55-.07c3.167.055 6.107.523 9.211 1.14 6.772 1.315 13.548 1.67 20.426 2.055 7.777.436 15.306 1.03 22.95 2.55 4.062.717 8.121.909 12.238 1.075l2.45.117c1.954.093 3.908.176 5.862.258v1c-11.283.227-22.434-.037-33.687-.937l-3.348-.264c-7.833-.667-7.833-.667-8.965-1.799a265 265 0 0 0-8.375-.5c-8.224-.366-8.224-.366-11.625-1.5a349 349 0 0 0-10.371-.518c-1.881-.09-3.757-.279-5.629-.482z"/><path fill="#a2cfd9" d="M23 144c1.117 1.79 1.117 1.79 2 4-.977 1.758-1.964 3.513-3.055 5.203-1.187 1.92-1.187 1.92-.945 4.922 0 2.875 0 2.875-1.867 5.156-2.364 3.014-3.221 5.426-4.258 9.094l-.996 3.48L13 179l-1.187 3.688c-.91 3.704-1.233 7.277-1.47 11.078C10 196 10 196 8 199a168 168 0 0 0-2 6H5c1.377-21.037 9.17-42.004 18-61"/><path fill="#fdcea4" d="m410.375 276.938 2.648.027L415 277v1c-19.288 2.726-38.615 4.847-58 6.75l-3.44.34q-4.905.485-9.81.957l-2.973.293c-4.953.47-9.802.765-14.777.66 3.431-2.036 6.464-2.437 10.41-2.816l3.748-.377 3.904-.37q3.831-.372 7.66-.753l3.43-.327c2.917-.271 2.917-.271 5.848-1.357 1.7-.082 3.403-.107 5.105-.098l2.979.01 3.103.026 3.14.013q3.836.018 7.673.049v-2l3.29-.184 4.335-.253 2.16-.12c3.183-.19 6.253-.45 9.402-.974 2.79-.465 5.364-.57 8.188-.531"/><path fill="#e98965" d="m308.75 272.75 2.402.055c1.95.047 3.9.118 5.848.195v1l-2.668.113-3.52.2-3.48.175c-3.546.545-5.555 1.251-8.332 3.512-.812 2.869-.337 4.966 0 8 1.826 2.244 1.826 2.244 4.484 2.266C314.72 288.212 325.83 287.14 337 286c-3.93 3.283-7.094 3.391-12.062 3.438-6.54.187-11.738 1.1-17.739 3.917-2.199.645-2.199.645-4.492-.242L301 292l1-1-3-1v-2l-3-1a169 169 0 0 1-.25-4.75l-.14-2.672c.39-2.578.39-2.578 1.859-4.89 3.713-2.476 6.926-2.126 11.281-1.938"/><path fill="#bab5b1" d="m138 403 2 1c-1.375 2.5-1.375 2.5-3 5h-2l-.297 2.172c-.805 3.238-2.095 5.315-3.953 8.078-4.382 6.69-8.344 13.189-10.992 20.754-1.317 3.468-3.054 6.705-4.758 9.996h-2l-.875 1.813C111 454 111 454 109 457l-1-3 1.309-1.18c5.616-6.044 8.38-13.828 9.691-21.82h2v-4a142 142 0 0 1 5-5l1-3 2-1c.903-1.883.903-1.883 1.625-4.062.26-.734.52-1.467.79-2.223.192-.566.386-1.132.585-1.715h2v-3l3-1z"/><path fill="#f06a3a" d="M144 287h21l-1 2h-4v2q-2.655 1.22-5.312 2.438l-2.989 1.37C149 296 149 296 146 297l-1 5h-1z"/><path fill="#d2663b" d="m83 277 2.712.335a13191 13191 0 0 0 14.812 1.82c9.882 1.21 19.76 2.37 29.686 3.16 3.664.323 6.647.689 9.79 2.685q-4 .04-8 .063l-2.254.025c-4.284.019-8.407-.21-12.66-.805-3.995-.542-8.012-.892-12.023-1.283q-3.794-.37-7.586-.754-2.5-.249-5.005-.46l-2.413-.224-2.151-.183C86 281 86 281 83 279z"/><path fill="#52423d" d="m245.313 219.875 2.675.055L250 220v1l-2.195.262c-6.62.962-9.992 2.154-14.805 6.738-2.875 1.313-2.875 1.313-5 2v7l-3 1v13l6 2v1c-2.25.313-2.25.313-5 0-2.492-2.088-3.757-3.753-4.387-6.984-.372-7.237 1.624-13.928 6.48-19.356 5.38-4.958 9.71-7.985 17.22-7.785"/><path fill="#e47d4f" d="m407.574 261.762 3.488-.137 3.223-.148C417 262 417 262 418.86 264.223c1.156 2.814 1.463 4.58 1.329 7.59l-.083 2.394L420 276h-2l.25-3.812c-.016-3.338-.016-3.338-1.687-6.188-8.392-3.275-19.86-.132-28.526.934-6.72.794-13.27 1.275-20.037 1.066v-2l1.88-.168q4.216-.38 8.433-.77l2.958-.263 2.842-.264 2.619-.238c2.429-.245 2.429-.245 5.268-1.297 5.17-.665 10.376-.892 15.574-1.238"/><path fill="#e3774e" d="M90.938 1.438C96.408 4.542 104.152 9.304 107 15h-4l-1-4h-6l-1-3-3-2-2-2c-1.967-.673-1.967-.673-4.125-1.125L82 2l1 3-2.09-.105C74.315 4.705 69.097 5.47 63 8 69.285.001 81.746-2.625 90.938 1.438"/><path fill="#e9826b" d="m385 449 1 3h2c.263 2.784.263 2.784 0 6-1.741 1.878-1.741 1.878-4.207 3.45l-2.772 1.774c-5.155 3.03-10.388 5.86-15.709 8.589l-3.298 1.732C356.746 476.27 351.8 478.697 346 480c.5-1.937.5-1.937 2-4 2.697-.688 5.202-.82 8-1v-2l2.938-1.375c3.133-1.283 3.133-1.283 4.062-3.625 3.345-1.627 5.188-2 9-2v-2l1.563-.25c3.522-1.084 6.304-2.8 9.437-4.75l1-2h2z"/><path fill="#fcd9c3" d="M420 51c3.53 3.53 4.154 7.717 4.375 12.563C424.24 70.96 422.11 78.836 418 85c-.243 2.388-.243 2.388-.125 5.043.015.992.03 1.984.047 3.006l.156 6.219c.093 5.98-.322 11.004-2.078 16.732h-1c-.143-7.671.04-15.334.313-23l.068-2.788.107-2.65.08-2.37c.533-2.702 1.72-4.067 3.432-6.192 3.403-9.135 1.9-18.499 1-28"/><path fill="#db7752" d="M438 39h1c-.645 7.433-1.674 14.763-2.875 22.125l-.534 3.31a758 758 0 0 1-3.978 22.358A334 334 0 0 0 430 96h-1a757 757 0 0 1-.562-5.75l-.317-3.234c-.107-2.67-.001-4.52.879-7.016l1-1c1.542-7.096 2.283-14.268 2.754-21.504C433 55 433 55 434 52h2l.184-2.336.253-3.039.247-3.023C437 41 437 41 438 39"/><path fill="#c68d77" d="M94 373c4.389.665 7.981 2.188 12 4v2l2.938.375L112 380l1 2a88 88 0 0 0 6.813 2.875l2.107.795c8.786 3.153 17.908 4.732 27.08 6.33l-1 3v-2l-2.577-.072c-9.033-.423-16.68-2.133-25.235-5.115l-3.483-1.135c-8.697-2.952-16.524-6.69-22.705-13.678"/><path fill="#e47242" d="M147 315c-2.52 1.68-4.563 2.712-7.344 3.805l-2.527 1.02q-2.625 1.048-5.258 2.077l-2.527 1.028-2.307.913c-2.449 1.39-3.607 2.742-5.037 5.157.128 3.129.552 5.228 2.125 7.938 3.116 1.765 5.466.844 8.875.062 2.717-.907 5.341-1.927 8-3v2l-4 1v2c-5.252 1.273-9.949 2.07-14.875-.5-2.846-3.349-3.437-6.146-3.125-10.5 1.574-3.62 2.689-4.793 6-7a83 83 0 0 1 4.25-1.437c2.918-.928 5.67-1.944 8.438-3.25 3.39-1.344 5.707-1.577 9.312-1.313"/><path fill="#d3704a" d="M140 196h2l-.484 3.395c-1.801 14.526-2.514 31.895 6.593 44.117L149 245l-1 2h-3l-1-7h-2c-3.219-9.095-4.387-17.423-4.375-27.062l-.004-2.991c.076-5.024.397-9.246 2.379-13.947"/><path fill="#dc7e5a" d="M211 187h2a487 487 0 0 1 2.438 5.5l1.37 3.094c4.396 12.565 3.356 28.546-1.058 40.906-2.218 4.436-4.907 8.443-7.75 12.5l-2-1 1.207-1.941c8.616-14.067 11.837-29.878 8.298-46.366-1.15-3.737-2.788-7.191-4.505-10.693z"/><path fill="#b5b6b0" d="M349 42h3c-1.343 4.029-3.513 4.675-7 7a1049 1049 0 0 0-4 5c-4.345 3-4.345 3-7 3v2c-5.006-.547-8.972-2.241-13.375-4.562l-1.941-.999A689 689 0 0 1 314 51c3.636-1.335 5.48-.645 8.938.938C326.47 53.548 329.092 54.43 333 54l2-2h4l1-3h2v-2h3l1-3h3z"/><path fill="#db7b54" d="m396.75 35.938 2.422.027L401 36v1l-2.02.156c-10.958 1.349-17.902 7.089-24.918 15.344-3.346 4.3-5.896 8.509-8.062 13.5h-2l-.812 2.813C362 72 362 72 359 75l2-9h2c-.07-.736-.14-1.472-.21-2.23.262-3.453 1.264-4.567 3.585-7.083l1.898-2.113C370 53 370 53 372 53l.75-1.687c1.48-2.737 3.185-4.99 5.25-7.313h2v-2h3v-2c4.572-3.175 8.25-4.143 13.75-4.062"/><path fill="#bcaca4" d="M60 339c4.762 4.572 9.351 9.447 12.938 15 3.622 5.269 8.146 9.936 13.562 13.375L89 369v2l2.375.813C94 373 94 373 96 376c-2.782-.376-4.588-.673-6.812-2.437C88 372 88 372 88 370c-1.992-1.016-3.975-1.99-6.035-2.86-5.051-2.218-6.74-3.947-8.965-9.14a281 281 0 0 0-5-5v-2h-3c-2.85-2.166-3.932-4.632-5-8z"/><path fill="#d87451" d="M352 42h4v3c-6.625 4-6.625 4-10 4l-.687 1.688c-1.68 2.959-3.854 4.973-6.313 7.312l-1.312 1.813c-2.964 2.085-6.266 1.776-9.688 1.187-3-1.687-3-1.687-6-4q-2.175-1.395-4.375-2.75l-2.086-1.297L314 52l2-1c1.603.92 3.202 1.848 4.781 2.809C324.97 56.057 329.51 57.473 334 59v-2c1.828-1.332 1.828-1.332 4.25-2.812 3.7-2.369 6.102-4.657 8.75-8.188 2.188-1.187 2.188-1.187 4-2z"/><path fill="#afc0c5" d="M445 330h1c-.395 6.194-2.292 10.989-6 16-1.706 1.399-3.46 2.537-5.328 3.707-1.942 1.502-2.756 2.893-3.922 5.043-3.234 5.744-8.574 9.334-13.75 13.25l-2-1c2.158-2.224 4.43-4.209 6.813-6.187 4.073-3.536 7.087-7.43 10.187-11.813l4-5 2-3h2l.25-2.125c.925-3.545 2.575-5.952 4.75-8.875"/><path fill="#b7b6b3" d="m210 42-2.032.687q-4.58 1.556-9.155 3.126l-3.198 1.08-3.095 1.064-2.841.968c-2.77 1.111-5.15 2.499-7.679 4.075a124 124 0 0 1-5.187 2.188l-2.606 1.042C172 57 172 57 170 57v2c-2.125.813-2.125.813-5 1-2.301-1.444-4.016-3.109-6-5 1.875-.625 1.875-.625 4-1l2 2c4.97-.118 7.996-2.145 11.984-4.8 2.84-1.69 5.837-2.36 9.016-3.2l2.625-1.625C191.328 44.81 192.93 44.737 196 45v-2q2.371-.546 4.75-1.062l2.672-.598c2.6-.343 4.096-.043 6.578.66"/><path fill="#a2cfd8" d="m202.813 4.938 2.394.027L207 5v1l-1.758.367-2.367.508-2.32.492c-2.597.602-2.597.602-5.22 1.559-3.578 1.152-7.155 1.965-10.823 2.775-11.26 2.46-11.26 2.46-21.574 7.479-2.607 1.103-4.267.571-6.938-.18 11.81-7.874 32.561-14.275 46.813-14.062"/><path fill="#b1bab8" d="M423 172c3 3.625 3 3.625 3 7l3 1c1.133 1.742 1.133 1.742 2.125 3.875l1.008 2.117C433 188 433 188 434 191l2 1c.625 2.563.625 2.563 1 5h2l2 7h2l3 12c-2.925-1.463-3.372-3.566-4.75-6.5-2.326-4.794-4.907-9.11-7.941-13.477-1.213-1.874-2.1-3.646-2.934-5.71-1.433-3.454-3.291-6.22-5.375-9.313-1.65-3.465-2-5.054-2-9"/><path fill="#fcd2b8" d="M98 39c-2.568 1.614-4.752 2.93-7.687 3.75-2.73 1.144-2.73 1.144-3.626 4.875L86 51h-2c-2.613 2.053-3.65 3.034-5 6-.796 7.657-.238 15.414 1 23-4.137-6.206-4.862-13.702-4-21 2.18-9.103 7.447-15.11 15.25-20.062 2.836-.967 4.024-1.091 6.75.062"/><path fill="#d6724a" d="m178.125 164.438 2.865.022c6.957.195 12.35 1.274 18.01 5.54l2.246 1.543L203 173v2h2c3.14 2.649 4.881 5.034 6 9l-1 3-.996-1.469C202.499 176.365 195.269 169.4 184 167c-7.007-.692-13.29-.064-20 2 3.662-5.262 8.272-4.653 14.125-4.562"/><path fill="#e27a4b" d="M128 267c30.71.733 30.71.733 41.855 2.531 4.56.68 9.13.901 13.73 1.125L186 271l1 2c-42.995-2.23-42.995-2.23-59-5z"/><path fill="#da7b62" d="M222 234h2l-.5 2.438c-1.096 7.618-1.096 7.618.5 15 2.496 1.95 4.948 2.298 7.996 2.96 3.46 1.04 4.956 2.685 7.004 5.602.675 3.002.926 5.928 1 9l-2-1a140 140 0 0 1-2-7l-1-3-2.266-.227c-7.924-1.058-7.924-1.058-11.422-4.148-2.039-5.632-2.72-12.367-.289-17.992z"/><path fill="#e57e4f" d="M368 268v1c-10.174 1.252-20.295 2.242-30.54 2.658-3.421.146-6.713.378-10.108.865-3.317.472-6.443.577-9.79.54l-3.183-.028L312 273c4.347-2.364 8.518-2.943 13.375-3.625l2.842-.4c13.19-1.642 26.519-1.238 39.783-.975"/><path fill="#d87f5d" d="M161 483q2.438.212 4.875.438c.905.08 1.81.162 2.742.246C171 484 171 484 173 485v2l1.863-.07 2.45-.055 2.425-.07C182 487 182 487 185 489c1.674.467 3.368.866 5.07 1.219l2.965.636q3.102.647 6.203 1.29l2.957.636 2.72.565L207 494l1 2a117 117 0 0 1-18.437-3.187l-2.584-.652c-8.808-2.278-17.399-5.146-25.979-8.161z"/><path fill="#ecfbfc" d="M499 264h1v32h-2l-.586 2.555-.789 3.32-.773 3.305C495 308 495 308 493 310c.891-8.7 2.217-17.32 3.54-25.963 1.005-6.668 1.877-13.318 2.46-20.037"/><path fill="#ed8761" d="M174 272c3.312-.118 6.624-.188 9.938-.25l2.806-.102c6.468-.09 11.715.846 17.256 4.352 1.262 2.525 1.099 4.312 1.063 7.125l-.028 2.758L205 288c-3.062 1.784-5.22 2.229-8.75 2.125l-2.422-.055L192 290v-1l3.375-.375c3.656-.272 3.656-.272 5.625-2.625.472-4.061.472-4.061 0-8-1.774-2.076-3.237-2.878-5.936-3.31-2.336-.176-4.66-.262-7.001-.315C178.3 274.06 178.3 274.06 174 273z"/><path fill="#fccfb5" d="M283 202h1l.113 2.43c.408 7.056 1.136 13.97 2.262 20.945l.345 2.23c.86 5.091 2.345 9.607 4.28 14.395l-2 1q-1.481-3.777-2.937-7.562l-.842-2.135c-3.778-9.877-4.524-20.94-2.221-31.303"/><path fill="#a2ced9" d="M40 384h2v2h2l1.375 2.938C46.658 392.07 46.658 392.07 49 393v2l4 2v3l2-1v5l3 1v3h2c2.188 1.75 2.188 1.75 4 4-.387 2.14-.387 2.14-1 4-6.708-7.756-13.131-15.576-19-24l-1.379-1.945C40 386.274 40 386.274 40 384"/><path fill="#df7b54" d="m155 254 2.52 1.496 3.292 1.941 3.27 1.934c6.568 3.667 14.558 3.693 21.918 2.629 3.474-1.287 6.468-2.794 9.645-4.687C198 256 198 256 201 256c-2.694 3.997-4.1 5.664-8.687 7.375-10.738 1.724-25.923 2.896-35.313-3.375-1.312-3.148-1.312-3.148-2-6"/><path fill="#ce643d" d="M142 77c.981 3.053.981 4.947 0 8h-3v2c-4.385 3-4.385 3-7 3v4h-4l-1 8-6 1c4.035-8.63 10.995-15.18 17.742-21.715 2.28-2.071 2.28-2.071 3.258-4.285"/><path fill="#fccdb4" d="M290 243h2v2h2a140 140 0 0 1 5 5l2.75 2.688C304 255 304 255 305 257q3.468 1.575 7 3l2 1c1.375.083 2.755.107 4.133.098l2.441-.01 2.551-.026 2.574-.013q3.15-.02 6.301-.049c-2.933 2.933-6.067 2.428-10 2.438-11.716-.04-18.236-4.31-26.871-12.06-2.338-2.612-3.702-5.189-5.129-8.378"/><path fill="#fddbc6" d="M213 193c4.377 6.566 4.309 12.73 4.25 20.375l.023 3.04c-.023 8.905-1.642 16.03-5.71 23.96l-.909 1.863c-1.619 3.21-2.599 4.725-5.654 6.762.706-3.669 2.277-6.705 4-10h2l.402-1.715.536-2.222.527-2.215C213 231 213 231 214 230c1-6.113 1.133-12.194 1.188-18.375l.039-2.416c.006-3.922-.003-5.873-2.227-9.209a98 98 0 0 1 0-7"/><path fill="#a1cfd9" d="M491 186c1.417 2.646 2.371 5.052 3 7.984l.497 2.312.503 2.454.526 2.542c2.117 10.518 3.616 20.96 3.474 31.708l-2-1c-.379-3.027-.379-3.027-.562-6.937-.318-6.044-.773-12.047-1.438-18.063l-5-1 1.023-2.012c1.217-3.723.968-6.972.602-10.8l-.172-2.1c-.14-1.697-.295-3.393-.453-5.088"/><path fill="#c2603f" d="M42 281c2.824 2.824 2.582 5.825 2.938 9.625.684 6.578.684 6.578 2.624 12.875 1.187 2.888 1.69 4.685 2 7.688.258 3.72.258 3.72 1.563 6.625C52 320 52 320 51 323q-1.16-2.968-2.312-5.937l-1.301-3.34L46 310l-.813-2.078c-2.159-5.857-2.715-11.271-2.874-17.485l-.104-2.767q-.122-3.334-.209-6.67"/><path fill="#ec6c3d" d="M352 244c1.163 3.658.737 5.807-.926 9.328-3.045 4.739-9 6.802-14.074 8.672-2.322.405-4.655.76-7 1 1.96-1.96 3.211-2.64 5.688-3.75 7.277-3.573 11.89-8.55 16.312-15.25"/><path fill="#cc795a" d="M246.063 37.813q2.484.022 4.97.04 5.984.051 11.967.147v1h-34v2c-7.051 2.212-13.647 2.202-21 2 2.757-2.757 5.725-2.968 9.434-3.613l2.28-.398c8.779-1.4 17.485-1.32 26.349-1.176"/><path fill="#d78162" d="M422 1c8.974 2.564 13.505 7.05 18 15 2.361 7.084 1.355 15.718 0 23h-1V19h-2l-.332-1.934-.48-2.503-.458-2.497L435 10l-3-1V7l-2.187.375c-3.263-.435-3.617-.93-5.625-3.375z"/><path fill="#b4bcba" d="M447 215c2 3 2 3 2 5l4 1c1.466 4.878 2.602 9.734 3.5 14.75l.384 2.107.76 4.186c.32 1.757.655 3.512.993 5.266l.55 2.879c.16.818.318 1.637.481 2.48.352 2.473.39 4.837.332 7.332-1.482-2.736-2.378-5.179-2.965-8.23l-.486-2.436-.961-4.984c-1.747-8.748-4.38-16.369-8.697-24.186C446 218 446 218 447 215"/><path fill="#a3ced6" d="m18 336 2 1 .75 3.813c.818 4.147 2.28 7.451 4.25 11.187 2.64 5.023 4.07 9.416 5 15h2c3.223 5.176 3.223 5.176 4 7l-1 3c-2.78-3.413-4.741-7.139-6.687-11.062l-1.036-2.075C23.127 355.413 19.56 346.712 16 338z"/><path fill="#e17d4f" d="M382 282v1c-10.832 3.777-21.93 3.575-33.27 3.903-4.927.175-9.826.592-14.73 1.097 3.591-2.394 6.676-2.637 10.852-3.07l2.343-.26q2.459-.271 4.918-.53c2.483-.262 4.964-.538 7.446-.816l4.793-.52 2.217-.245c5.166-.536 10.236-.625 15.431-.559"/><path fill="#e1734c" d="m288 241 1.5 1.938L292 246l1.695 2.125c4.808 5.761 9.742 9.32 16.305 12.875l3 2h-9v-2l-1.812-.75C300 259 300 259 298.625 257c-1.56-2.294-1.56-2.294-4.75-3L291 253c-1.293-2.771-1-4.865-1-8h-2z"/><path fill="#d56f45" d="m93 262 3 1c2.73.366 5.451.699 8.188 1l4.417.5 2.19.246c3.405.392 6.805.823 10.205 1.254v1c-7.082.113-13.873-.441-20.895-1.29-4.02-.46-8.028-.824-12.074-.96l-2.2-.078L84 265c-2.315 3.473-2.255 4.927-2 9l1 3-2 1c-1.854-3.709-1.444-7.952-1-12 2.843-5.192 7.695-4.596 13-4"/><path fill="#fdca9f" d="m128 323 2 1-3 1c-2.283 3.245-2.176 6.125-2 10 4.224.96 6.249 1.126 10-1h4v-2l7-1c-2.98 2.391-5.97 4.086-9.437 5.688l-2.81 1.324c-2.862 1.027-4.744 1.386-7.753.988-2.875-2.625-2.875-2.625-5-6 0-3.365.341-5.132 2.375-7.812C125 324 125 324 128 323"/><path fill="#cf7d5d" d="M422 177c4.757 4.35 8.58 9.251 10.883 15.332 1.672 3.993 4.092 7.508 6.459 11.115.944 1.482 1.808 3.015 2.658 4.553l-1 2c-5.75-5.134-8.604-12.114-11.852-18.96-.982-2.19-.982-2.19-3.148-3.04-1.07-1.996-1.07-1.996-2.125-4.437l-1.07-2.434C422 179 422 179 422 177"/><path fill="#d46843" d="M115 110h1v6l-1.937.75c-2.22 1.025-2.22 1.025-2.579 3.05L111 122c-2.011 5.278-4.243 9.725-8 14l-1 2-2-1c11.476-23.476 11.476-23.476 15-27"/><path fill="#a0ccd8" d="M1 260c2.74 4.111 3.077 5.737 2.938 10.625-.067 6.662.667 12.977 1.624 19.55.459 4.008.51 7.798.438 11.825H5c-2.454-14.168-4.187-27.574-4-42"/><path fill="#d98261" d="M62 8c1.56 3.118.666 5.67 0 9l-2 1c-1.04 3.118-1.115 5.275-1.098 8.543l.01 3.252.026 3.392.013 3.428Q58.97 40.808 59 45h-1c-3.803-25.16-3.803-25.16 3-36z"/><path fill="#ca9989" d="M375 389h-3v2l-3.21.402-4.165.536-2.117.263c-3.876.462-3.876.462-7.508 1.799.195 1.95.195 1.95 1 4l1.938.813C360 400 360 400 361.25 403.625L362 407l-4-4-2.687-2.437c-2.412-2.673-3.01-4.039-3.313-7.563 6.274-3.944 15.824-6.45 23-4"/><path fill="#c26648" d="m208 44-1.695.629C198.605 47.587 191.332 51.245 184 55l-2 1v-2l-1.75 1.063c-2.648 1.103-3.582.739-6.25-.063l2.309-.953c4.821-1.999 9.632-4 14.379-6.172C203.054 42.366 203.054 42.366 208 44"/><path fill="#ecfbfc" d="M264 0h32v2c1.96 1.637 1.96 1.637 4 3l-3.05-.367C285.975 3.322 274.992 2.134 264 1z"/><path fill="#d27756" d="M143 400c0 3.362-.378 3.802-2.375 6.313-1.87 2.473-2.742 4.038-3.75 7.062L136 416l-3 1a251 251 0 0 0-2 6c-2.132 3.576-3.521 5.68-7 8 1.208-4.504 3.018-7.662 5.762-11.336 2.081-2.797 3.956-5.428 4.738-8.851C135 409 135 409 138 407a402 402 0 0 0 3-6z"/><path fill="#fbddcd" d="M55 19h1l.244 2.26c.371 3.414.751 6.827 1.131 10.24l.383 3.555c.785 7.175.785 7.175 2.273 14.226 1.104 4.236 1.635 8.376 2.094 12.719l.262 2.348Q62.7 67.173 63 70c-3.532-3.532-3.945-7.53-4.125-12.352 0-3.218.038-6.43.125-9.648h-2c-1.399-9.73-2.304-19.142-2-29"/><path fill="#fbd1b7" d="m83 83 4 5h-2v30c-3.663-7.327-3.155-14.831-3.125-22.875l-.012-3.203.008-5.808C82 84 82 84 83 83"/><path fill="#a6ced8" d="M466 371h2c-3.88 10.25-10.724 19.101-17 28-1.174-3.477-1.051-3.89.625-7.5 1.532-2.511 2.593-3.666 5-5.5 3.133-2.638 3.544-5.07 4.375-9h2l.938-2.437C465 372 465 372 466 371"/><path fill="#c5694a" d="M77 175c1.392 4.405-.023 7.023-2 11l-1.316 2.676A816 816 0 0 1 70 196h-2v2l-4 2c.563-3.941 1.68-6.75 4-10h2l.688-2.437c1.648-4.476 3.917-8.45 6.312-12.563"/><path fill="#fcdfd1" d="M438 44h1q.039 2.969.063 5.938l.035 3.34C439 56 439 56 438 57c-.45 3.704-.82 7.408-1.162 11.123-.458 4.554-1.175 8.57-2.838 12.877h-1c.392-12.581 2.569-24.671 5-37"/><path fill="#fee3d0" d="M368 60c1 2 1 2 .441 3.945l-.878 2.18-.872 2.195L366 70h-2a351 351 0 0 0-.125 4.813l-.07 2.707c.012 2.734.012 2.734 2.195 5.48l-1 3a137 137 0 0 1-3-2.687l-1.687-1.512c-1.788-2.453-1.708-3.818-1.313-6.801 1.094-2.457 1.094-2.457 2.5-4.812l1.406-2.395L364 66h2l.438-2.437C367 61 367 61 368 60"/><path fill="#e17045" d="m106 377 8 1 1 3h2v2l2.668.332 3.52.48 3.48.458c3.36.736 5.55 1.734 8.332 3.73v1c-7.838-.399-14.994-2.393-22-6l-1-3-6-1zm28 9 2 1Z"/><path fill="#a7c6d0" d="M387 387c-2.993 1.611-5.92 2.64-9.187 3.563-3.184.72-3.184.72-5.813 2.437-1.975.21-3.956.368-5.937.5-4.185.177-4.185.177-8.063 1.5-1.134 2.017-1.134 2.017-2 4l-2-2c.25-2.062.25-2.062 1-4 3.042-1.521 6.28-1.374 9.625-1.562l2.14-.131q2.618-.158 5.235-.307v-2c5.075-1.263 9.728-2.27 15-2"/><path fill="#bcaea4" d="M432 77h1c.103 6.264-.282 12.39-.875 18.625l-.238 2.773c-.452 4.805-1.097 9.073-2.887 13.602h-2c-.4-6.693.43-12.366 2.2-18.816 1.339-5.327 2.055-10.747 2.8-16.184"/><path fill="#cb7253" d="M145 44a714 714 0 0 1 15.02 11.484c3.604 2.759 5.452 3.76 9.98 3.516v-2l4-1v2h-2v2c-5.748 1.232-9.033 1.166-14.176-1.754-3.735-2.552-6.332-5.508-8.824-9.246-2.05-1.192-2.05-1.192-4-2z"/><path fill="#fdecdc" d="m299 496-6 1-1 3h-28v-1l2.415-.26q5.418-.585 10.835-1.178l3.8-.408 3.653-.4 3.364-.365c2.84-.318 2.84-.318 5.186-.963 2.19-.534 3.628-.107 5.747.574"/><path fill="#b3b3b1" d="m364 29 5 1c-3.101 3.988-5.536 6.533-10 9l-1.562 1.688C356 42 356 42 352 42l1-3h2l1-4 7-2z"/><path fill="#e07a54" d="M95 35c9.868-1.163 15.48.68 23.516 5.957C121 43 121 43 122 46l2 1-1 2-1.434-1.39c-8-7.423-14.271-10.135-25.257-9.75L94 38z"/><path fill="#5e473b" d="M232 254c5.438.363 5.438.363 7.875 3.125 1.35 3.45 1.341 6.2 1.125 9.875l1.875.313C245 268 245 268 247 271c2.05 1.192 2.05 1.192 4 2v1c-4.397-.172-6.477-.535-9.812-3.5-2.433-3.259-2.91-6.503-3.586-10.441-.918-3.14-2.887-4.416-5.602-6.059"/><path fill="#a3cfd6" d="M433 81c5.25 4.1 9.21 8.53 13 14l-2 2c-2.4-2.88-4.473-5.564-6-9l-4 1-2 12h-1c-.227-6.933.58-13.217 2-20"/><path fill="#fcd6bd" d="M410 40c-3.01.934-3.867 1.044-7 0-1.831-.094-3.666-.13-5.5-.125l-2.906-.008c-2.71.023-2.71.023-5.594 1.133v2c-1.287.697-2.58 1.382-3.875 2.063l-2.18 1.16L381 47l-2-1q2.651-1.975 5.313-3.937l2.988-2.215c7.333-5.02 15.059-3.182 22.699.152"/><path fill="#a6cdd6" d="M4 206h1c-.08 4.438-.194 8.875-.312 13.313l-.069 3.826-.107 3.662-.08 3.38C3.964 233.237 3.422 234.165 1 236c-.441-10.461.78-19.822 3-30"/><path fill="#a2cdd7" d="M266 1c6.857-.181 13.358.287 20.125 1.375l2.55.383c5.2.806 10.24 1.891 15.325 3.242v1c-5.014.154-9.368-.378-14.25-1.5C283.416 4.12 277.467 3.686 271 4c-3 0-3 0-5-1z"/><path fill="#dd7858" d="M138 471c4.48.472 7.82 1.82 11 5 2.069.643 2.069.643 4 1v2l6 1 1 3c-8.402-2.506-16.12-6.21-24-10z"/><path fill="#a5cfd8" d="M481 340c1.428 4.283-.418 7.115-2.125 11.063l-.97 2.3c-2.415 5.658-5.01 11.207-7.905 16.637h-2c.378-5.036 2.138-7.959 4.855-12.031 1.505-2.588 1.923-5.006 2.145-7.969h2l.875-2.187z"/><path fill="#cb7d60" d="m77 151 3 1c1.25 7.65 1.09 15.274 1 23h-3l.035-1.723c.057-4.882-.331-9.437-1.035-14.277-.08-2.674-.047-5.324 0-8"/><path fill="#a3cdd6" d="M42 113c0 3.77-1.163 5.08-3.25 8.188-2.582 3.94-4.873 7.846-6.914 12.085-1.138 2.352-2.356 4.574-3.836 6.727h-2c1.391-4.705 3.402-8.79 5.875-13l1.027-1.79C39.151 114.426 39.151 114.426 42 113"/><path fill="#facbb4" d="M131 60c3.456 3.133 5.623 6.426 7.875 10.5l1.93 3.406C142 77 142 77 141.39 79.234c-2.165 2.748-4.637 4.611-7.391 6.766l-2-2h2v-2l2-1.312c2.303-1.544 2.303-1.544 2.25-4.376L138 74l-2-1v-3h-2c-1.129-3.311-2.213-6.59-3-10"/><path fill="#d47b57" d="M295 495c-3.776 2.352-7.798 2.664-12.125 3.125l-2.287.257c-5.557.592-10.998.795-16.588.618 6.24-6.24 22.599-4.212 31-4"/><path fill="#e9f9fb" d="m431 421 1 3c-1.04 1.648-1.04 1.648-2.625 3.375-.565.616-1.13 1.232-1.71 1.867L426 431l-2.25 2.5c-3.953 3.594-8.325 6.519-12.75 9.5l-2-1q2.749-2.533 5.5-5.062l1.65-1.518a366 366 0 0 1 11.327-9.983c1.766-1.559 1.766-1.559 3.523-4.437"/><path fill="#ed6c42" d="M216 233c1.399 4.895 1.06 8.367-1 13h-2v2l-3.312 1.813c-2.599 1.477-4.731 2.885-6.688 5.187l-2-1c3.517-4.773 3.517-4.773 5.977-5.93 4.52-2.39 6.615-7.982 8.335-12.57z"/><path fill="#a3ced9" d="M450 103c3.271 1.374 4.814 2.731 6.727 5.703l1.437 2.223 1.461 2.324 1.484 2.277c2.59 4.055 4.621 7.783 5.891 12.473l-3-1c-.95-2.066-.95-2.066-1.687-4.562l-.762-2.504L461 118h-3l-1-6h-2c-2.61-2.848-4.427-5.13-5-9"/><path fill="#df774f" d="M83 0c9.956.766 17.078 7.405 24 14l-4 1-1-4h-6l-1-3-3-2-1.875-1.5C87.84 2.887 85.622 1.947 83 1z"/><path fill="#b0c3c6" d="M379 435c1.938.75 1.938.75 4 2l1 4c1.984 1.284 1.984 1.284 4 2v5h2a125 125 0 0 1 4 6l-4 3-1.238-3.074c-1.914-4.467-4.436-8.387-7.065-12.47C379 437.195 379 437.195 379 435"/><path fill="#d57651" d="M58 333c1.938.625 1.938.625 4 2 .75 3.125.75 3.125 1 6l3 1v2h2v3h3c1.75 2.25 1.75 2.25 3 5-.312 2.313-.312 2.313-1 4l-1.562-2.5c-1.789-2.698-3.78-5.088-5.938-7.5-7.5-8.435-7.5-8.435-7.5-13"/><path fill="#c69e92" d="m428 351 2 1c-3.549 5.072-6.973 9.344-12 13h-2l-1 3h-2l-.687 1.813c-1.674 2.789-3.401 3.804-6.313 5.187l-2-1 1.938-.75L408 372l.438-2 .562-2c2.375-1.062 2.375-1.062 5-2a95 95 0 0 0 3-3 655 655 0 0 1 4-3.375c3.023-2.618 5.231-4.977 7-8.625"/><path fill="#e58658" d="m417 276 1 2-1 2c-4.15.945-8.249 1.175-12.492 1.316l-3.633.127-3.75.12-3.82.13q-4.652.159-9.305.307v-1l2.814-.351q5.16-.648 10.32-1.303 2.235-.283 4.47-.562 3.21-.402 6.42-.811l3.903-.492c2.978-.307 2.978-.307 5.073-1.481"/><path fill="#61453b" d="M250 220v1l-2.195.262c-6.62.962-9.992 2.154-14.805 6.738l-2.812 1.063L228 230c-.887 2.041-.887 2.041-1 4h-2c1.368-5.643 5.565-8.645 10-12 4.624-2.799 9.755-2.183 15-2"/><path fill="#e26f46" d="M65 74c2.645 2.268 3.441 3.809 3.95 7.238l.38 2.487.358 2.588.392 2.552c.653 4.416 1.073 8.659.92 13.135-4.557-8.788-6.45-18.103-6-28"/><path fill="#f47a58" d="M234 258c3.76 3.154 4.277 5.252 5 10l3 2v3l-5-2v-4l-5-2c-.125-2.375-.125-2.375 0-5z"/><path fill="#acc2c5" d="M71 124c2.38 4.441 3.112 8.188 3.316 13.203l.127 2.969.12 3.078.13 3.125q.159 3.813.307 7.625c-2.422-1.835-2.964-2.763-3.432-5.82l-.08-3.38-.107-3.661-.069-3.827-.103-3.86Q71.085 128.725 71 124"/><path fill="#9ecbd5" d="M430 106c1.177 3.677 1.145 7.164 1 11l-1 1a78 78 0 0 0-.684 4.219l-.373 2.574q-.38 2.706-.75 5.414l-.377 2.574-.33 2.377L427 137l-2 1c-.198-5.352.282-10.04 1.426-15.266.853-4.064 1.47-8.163 2.11-12.265C429 108 429 108 430 106"/><path fill="#e07e5b" d="M421 0v1l-3.75.063C408.114 2.057 400.172 8.62 393 14l-2-1c9.707-8.491 16.794-13.992 30-13"/><path fill="#c98466" d="M352 42h4v3c-6.625 4-6.625 4-10 4l-.562 1.688c-2.051 3.299-4.941 5.607-8.438 7.312l-3-1 1.828-1.137c4.553-2.915 7.9-5.5 11.172-9.863 2.188-1.187 2.188-1.187 4-2z"/><path fill="#b3b9b5" d="M142 38c3.98 2.16 6.973 4.627 10 8v2l1.813.188C156.87 49.324 157.55 51.173 159 54c-7.343-2.065-12.83-8.668-18-14z"/><path fill="#fdd9c2" d="M140 204h1l.113 3.332c.36 8.59 1.07 16.465 3.887 24.668h1v5h-3c-3.391-11.062-3.309-21.538-3-33"/><path fill="#dc805b" d="M117 461c5.625-.25 5.625-.25 9 2v3l6-1 .875 1.938c.953 2.214.953 2.214 3.125 3.062v2c-4.743-1.377-8.725-3.438-12.875-6.062l-1.797-1.104A142 142 0 0 1 117 462z"/><path fill="#e76f3d" d="M401 281c-4.079 4.079-11.092 3.934-16.617 4.125-3.13 0-6.254-.035-9.383-.125l1-2c2.894-.483 5.71-.845 8.625-1.125l2.41-.262c4.68-.484 9.26-.701 13.965-.613m-30 4 4 1Z"/><path fill="#fcd8c1" d="m166 168 2 1-2 4h-6l-.75 1.813c-1.43 2.503-2.82 3.668-5.25 5.187h-2v2h-2c2.586-6.004 7.875-9.74 13.375-13z"/><path fill="#e26f44" d="M422 128h1a429 429 0 0 1-2.437 17.313l-.37 2.416-.377 2.322-.33 2.083C419 154 419 154 417 157c.818-20.635.818-20.635 5-29"/><path fill="#feeadd" d="m122 465 24 12-2 2v-2l-4 1v-2l-1.652-.445c-6.103-1.816-11.461-4.408-16.348-8.555z"/><path fill="#da7b59" d="M140 224h1l.48 2.563c1.326 6.445 2.67 11.634 6.63 16.949L149 245l-1 2h-3l-1-7h-2c-1.592-5.57-2.207-10.211-2-16"/><path fill="#acc4ca" d="M423 172c3 3.625 3 3.625 3 7l3 1c1.133 1.742 1.133 1.742 2.125 3.875l1.008 2.117C433 188 433 188 434 191l2 1-1 3c-12-14.308-12-14.308-12-23"/><path fill="#de8166" d="m364 469 4 1q-3.525 1.949-7.062 3.875l-1.99 1.105c-4.254 2.305-8.249 3.859-12.948 5.02.5-1.937.5-1.937 2-4 2.697-.688 5.202-.82 8-1v-2c2.906-1.257 4.796-2 8-2z"/><path fill="#aec2c4" d="M134 392c9.41-.185 9.41-.185 14 1-1.555 3.817-4.036 6.192-7 9l-1-4h3v-3l-9-2z"/><path fill="#fadac6" d="m158 176 3 1-3 3-1-3zm-1 2v2h-2l-.875 1.875C153 184 153 184 151 186h-3l-1 4h-2c1.75-5.75 1.75-5.75 4-8h3v-2c3-2 3-2 5-2"/><path fill="#fccfb7" d="m293 181 1 4h-2l-.516 1.688c-1.717 5.408-3.837 10.293-6.484 15.312-1.506-4.341-.147-6.622 1.742-10.605 1.889-3.596 4.01-7.014 6.258-10.395"/><path fill="#d77650" d="M426 103h1v15h-2l-1 9h-1c-.132-8.315-.02-16.147 3-24"/><path fill="#a8cfda" d="m235 1-1.937.938c-2 .897-2 .897-3.063 2.062-1.708.047-3.417.037-5.125 0-7.653-.17-7.653-.17-14.875 2l-1-3C226.856.704 226.856.704 235 1"/><path fill="#d58975" d="M377 435c3.767 3.542 6.603 7.09 9.375 11.5l2.148 3.344c1.593 3.404 1.686 4.671.477 8.156h-1v-6h-2v-3l-3-1c-1.352-2.18-1.352-2.18-2.625-4.875l-1.29-2.68C378 438 378 438 377 435"/><path fill="#fccea8" d="m185 300-3 1-1 3c-1.325.365-2.66.694-4 1l-1.687 1.563c-3.58 2.224-7.204 1.674-11.313 1.437 2.464-2.464 4.772-3.263 8-4.562 8.762-3.55 8.762-3.55 13-3.438"/><path fill="#fac9a1" d="M116 281c3.917-.058 7.833-.094 11.75-.125 1.111-.017 2.222-.034 3.367-.05l3.242-.02 2.984-.032c2.717.232 4.338.837 6.657 2.227v1c-9.344-.557-18.675-1.17-28-2z"/><path fill="#fdd7b1" d="M316.188 299.063C319 300 319 300 321 302l-3.312.313c-3.581.388-3.581.388-5.625 2.125-1.25 1.523-1.25 1.523-1.063 3.562h-2l-1 2c-.47-4.036-.299-5.587 2.125-8.937 2.875-2.063 2.875-2.063 6.063-2"/><path fill="#fed1a7" d="m376 268-2 3c-2.43.34-2.43.34-5.445.293l-3.262-.03-3.418-.075-3.441-.042A905 905 0 0 1 350 271v-1q4.25-.507 8.5-1l2.398-.29c5.072-.581 9.997-.804 15.102-.71"/><path fill="#c9775c" d="M222 234h2l-.5 2.438c-.827 5.893-1.538 11.254 1.5 16.562-1.937-.375-1.937-.375-4-1-1.348-2.697-1.17-4.866-1.187-7.875l-.043-3.18c.225-2.88.74-4.507 2.23-6.945"/><path fill="#feeee0" d="M210 497c9.003.634 18.002 1.298 27 2v1c-4.125.087-8.25.14-12.375.188l-3.562.076-3.399.029-3.142.048L212 500z"/><path fill="#b7bbb8" d="M75 360q2.377 1.403 4.75 2.813l2.672 1.582c2.311 1.439 4.506 2.838 6.578 4.605v2l2.375.813C94 373 94 373 96 376c-2.782-.376-4.588-.673-6.812-2.437C88 372 88 372 88 370c-2.018-1.025-4.035-2.015-6.105-2.93l-2.082-.945-2.106-.93C76 364 76 364 75.262 361.867z"/><path fill="#d78975" d="M447 323c0 4.533-1.544 7.323-4.062 11.063-2.018 2.698-2.018 2.698-2.5 5.25L440 341l-3 1c3.055-11.159 3.055-11.159 6-15h2z"/><path fill="#e3fafc" d="M0 259h1l2 29-3-2c-.34-2.706-.34-2.706-.293-6.102l.03-3.671c.024-1.271.05-2.542.076-3.852l.04-3.875q.054-4.75.147-9.5"/><path fill="#e28261" d="m196 171 7 2v2h2c3.14 2.649 4.881 5.034 6 9l-1 3-1.031-1.504c-3.368-4.72-6.951-8.467-11.43-12.148L196 172z"/><path fill="#a5d0da" d="M479 152c2.76 3.286 4.183 6.622 5.688 10.625l1.324 3.477C487 169 487 169 487 171h-2c-3.708-6.056-6.443-11.693-6-19"/><path fill="#abc5c9" d="M117 438c0 3.722-1.18 5.464-3 8.688l-1.687 3.011L111 452h-2l-1 3-2-2h2v-4l2-1 .938-2.5L112 443l3-1c1.209-2 1.209-2 2-4"/><path fill="#b2bfc0" d="M112 384c7.394 2.16 14.704 4.53 22 7v1a601 601 0 0 1-5.75-.375c-1.067-.07-2.135-.14-3.234-.21-2.818-.388-4.599-.972-7.016-2.415v-2l-6-2z"/><path fill="#ea7e5f" d="m371 385 1 2-1 2c-2.766.563-2.766.563-6.25 1-7.575.898-7.575.898-13.75 5 .25-2.375.25-2.375 1-5 3.849-2.56 7.86-2.41 12.344-2.656 2.652-.343 4.365-1.004 6.656-2.344"/><path fill="#e17a4e" d="m120 332 6 6c5.457-.445 9.932-1.955 15-4v2l-4 1v2c-5.354 1.298-10.05 2.162-14.937-.75C120 336 120 336 120 332"/><path fill="#d97952" d="M315 165c18.292-.65 18.292-.65 24 3 1.23 2.11 1.23 2.11 2 4l-2-.812-3-1.188-3.5-1.562c-5.613-2.138-11.557-2.175-17.5-2.438z"/><path fill="#cd7859" d="M128 31c3.937 2.224 7.337 4.799 10.813 7.688l2.957 2.449L144 43l-2 1a477 477 0 0 1-5.875-3.687l-3.305-2.075c-2.932-2.327-3.838-3.688-4.82-7.238"/><path fill="#c4907b" d="M119 437c.75 1.563.75 1.563 1 4-1.125 2.5-2.532 4.668-4 7l-1 2h-2l-.875 1.813C111 454 111 454 109 457l-1-3 1.309-1.156c2.075-2.262 3.326-4.629 4.754-7.344 1.555-2.944 3.088-5.727 4.937-8.5"/><path fill="#6f5d54" d="M244 219c8.453.24 15.56.768 23 5-3.076 1.538-5.382.429-8.687-.312l-3.801-.852c-3.546-.844-7.031-1.759-10.512-2.836z"/><path fill="#d05d36" d="M142 77c.981 3.053.981 4.947 0 8h-3v2l-6 3c.57-3.594 1.864-5.172 4.5-7.625 2.618-2.411 2.618-2.411 4.5-5.375"/><path fill="#b6bcb9" d="m136 28 .25 2.063c.973 3.812 2.708 6.578 4.75 9.937-3.039-1.41-5.594-3.089-8.25-5.125l-2.14-1.633L129 32c4.75-4 4.75-4 7-4"/><path fill="#da774f" d="M117 444c1 2 1 2 .188 4.5C116 451 116 451 114 453c-.643 2.069-.643 2.069-1 4h3l1 4c-2.915-1.074-4.778-1.778-7-4 .389-3.013 1.265-4.397 3-7h2z"/><path fill="#fcc99f" d="M405 264c4.56-.358 7.95-.558 12.063 1.625C419 268 419 268 419.5 271.063c-.53 3.118-1.017 4.075-3.5 5.937l.063-3.25c.077-3.83.077-3.83-1.063-7.75l-10-1z"/><path fill="#de805b" d="M416 114h1c.588 5.735-1.294 10.062-4 15l-2 2-3-1 1.242-1.977c2.818-4.57 5.378-8.78 6.758-14.023"/><path fill="#aec3ca" d="M349 42h3c-1.359 4.077-3.391 4.728-7 7q-1.846 1.402-3.687 2.813L338 54l-3-1 1.938-.312L339 52l1-3h2v-2h3l1-3h3z"/><path fill="#d77e5c" d="M389 14c0 3.5-.525 4.013-2.75 6.563l-1.547 1.816c-1.852 1.763-3.29 2.77-5.703 3.621-2.25-.375-2.25-.375-4-1l1.793-1.39c4.09-3.177 8.175-6.359 12.207-9.61"/><path fill="#ea8e6b" d="M170 323c-5.678 4.117-11.746 7.68-19 7 3.145-2.577 6.322-4.174 10.063-5.75l3.16-1.36C167 322 167 322 170 323"/><path fill="#5e6660" d="m322 182-1.875.75c-2.476 1.456-3.076 2.628-4.125 5.25l-2-2-3 2h-2l-1 3-3 1c3.113-7.269 9.263-10.967 17-10"/><path fill="#eb6a3e" d="m417.063.625 2.597-.023C422 1 422 1 425 4h-17c4.554-3.416 4.554-3.416 9.063-3.375"/><path fill="#a1ced9" d="m439 410 2 1q-2.374 2.626-4.75 5.25c-.882.975-1.763 1.95-2.672 2.953A188 188 0 0 1 427 426v-3h2l.813-1.625L431 419l1.313-3.062c1.872-3.26 3.269-4.448 6.687-5.938"/><path fill="#a0cad4" d="m413 368 2 1c-3.723 4.42-7.295 8.578-12 12 0-3 0-3 1-6 1.813-1.316 1.813-1.316 4-2.562 3.085-1.652 3.085-1.652 5-4.438m-13 13 2 1Z"/><path fill="#bb593c" d="m242 271 1.715.988c2.5 1.107 4.133 1.25 6.847 1.2l2.317-.02c2.31-.097 2.31-.097 5.121-1.168l1 3c-5.148 1.056-12.111 2.444-17 0z"/><path fill="#fdddc8" d="M347 252a480 480 0 0 1-4.687 3.938l-2.637 2.214c-2.691 1.859-4.464 2.483-7.676 2.848v-2h4v-2l3-2 1-3c2.944-1.178 3.9-1.033 7 0"/><path fill="#dc7b51" d="M282 220h1l.332 1.8c1.243 6.498 2.854 12.84 4.668 19.2l-3-2v-3h-2c-.853-3.674-1.108-7.045-1.062-10.812l.027-2.958z"/><path fill="#de815c" d="M364 85c4.59 3.606 8.322 7.474 12 12l-1 2a105 105 0 0 1-5-4v-2h-2v-2l-4-1z"/><path fill="#d6744d" d="M94 373c4.389.665 7.981 2.188 12 4v2l6 1c-3.935 1.559-6.35.364-10.125-1.25l-3.195-1.328C96 376 96 376 94 373"/><path fill="#dd7a52" d="m345 253 1 3c-3.907 5.12-7.49 5.834-13.77 6.738L330 263c1.967-1.967 3.33-2.726 5.813-3.875 3.447-1.67 6.29-3.59 9.187-6.125"/><path fill="#d36f4e" d="M115 110h1v6l-1.937.75c-2.262 1.047-2.262 1.047-2.626 3.313L111 122l-3 1c1.624-4.724 4.11-8.942 7-13"/><path fill="#db7953" d="m94 39-1.54.848C87.26 42.877 83.639 46.218 80 51c-.625-1.809-.625-1.809-1-4 3.416-5.23 8.322-10.226 15-8"/><path fill="#b7b4ae" d="M451 316h1c.603 6.99.603 6.99-1.113 9.867-1.224 1.442-2.55 2.796-3.887 4.133-1.065-2.73-1.08-3.793-.004-6.578l1.442-2.672 1.433-2.703z"/><path fill="#fbd2bb" d="M350 182c4.425 2.95 6.403 7.112 7.477 12.305.235 1.892.387 3.793.523 5.695-5.315-4.303-6.554-11.661-8-18"/><path fill="#c7856a" d="M422 177c4.187 3.828 7.378 7.946 10 13v2c-3.813-1.271-5.286-2.661-7.168-6.191l-1.02-2.371-1.042-2.38C422 179 422 179 422 177"/><path fill="#e07f5c" d="M376 99c3.636 3.434 6.361 6.797 9 11l-1 2c-1.875-.562-1.875-.562-4-2a309 309 0 0 1-2-7l-3-1z"/><path fill="#bbb4af" d="m159 54 2.188.438L164 55l2.5.625c2.772.416 4.802.069 7.5-.625l-4 2v2c-2.125.813-2.125.813-5 1-2.356-1.429-4.004-3.05-6-5z"/><path fill="#ee9370" d="m187 313 2 1a288 288 0 0 1-3.75 2.5l-2.11 1.406C181 319 181 319 177 319v2l-7 1c1.353-2.707 3.18-3.046 5.887-4.133 3.119-1.28 6.15-2.749 9.195-4.195z"/><path fill="#fbcba3" d="M92 276v2l2.555-.07 3.32-.055 3.305-.07C104 278 104 278 106 280q-4.094-.212-8.187-.437l-2.33-.12c-3.916-.218-7.654-.53-11.483-1.443 3.088-1.765 4.233-2 8-2"/><path fill="#fcddc8" d="m145 238 3 2v2h2c2.54 2.614 3.923 4.129 4.25 7.813L154 252c-4.008-3.674-6.526-7.143-9-12z"/><path fill="#fbcdb5" d="M122 97h2c-1.75 3.886-4.183 7.278-6.625 10.75l-1.273 1.824A2066 2066 0 0 1 113 114l-1-3c2.007-3.441 4.202-6.202 7-9l1-3h2z"/><path fill="#ea8661" d="m304.012 272.707 2.295.03 2.38.075 2.417.042c1.965.035 3.93.089 5.896.146v1l-2.668.113-3.52.2-3.48.175c-3.53.542-5.433 1.484-8.332 3.512l-3 2c.848-4.918 2.88-7.409 8.012-7.293"/><path fill="#e48d6e" d="M359 224h1c.564 7.615-1.622 13.244-5 20h-2c2.732-8.36 2.732-8.36 4.125-11.687 1.037-2.742 1.47-5.416 1.875-8.313"/><path fill="#b8b0ac" d="m57 208 1 2c-.89 1.918-.89 1.918-2.25 4.188-2.241 3.857-4.08 7.679-5.75 11.812h-1c-.343-3.689-.402-5.446 1.813-8.5L53 215a200 200 0 0 0 3-6z"/><path fill="#fedfcc" d="M328 167c5.706.428 9.41 2.843 14 6-3.478 1.16-5.459.708-9 0v-3l-1.937-.375L329 169z"/><path fill="#e47249" d="M81 112c3.76 2.506 3.726 3.82 4.688 8.125.25 1.096.502 2.191.761 3.32L87 126l-2 1v-3h-2z"/><path fill="#a3d0d9" d="M401 444h5c-3.7 3.925-7.55 6.946-12 10l-2-3 6-1 1-3h2z"/><path fill="#dc744d" d="M147 395h1c.375 2.063.375 2.063 0 5-1.37 1.932-2.874 3.624-4.492 5.352-1.707 1.782-1.707 1.782-3.508 4.648l-2-1 2.375-3.187c2.043-2.843 3.403-5.522 4.625-8.813z"/><path fill="#eb906d" d="M341 310c5.661.497 9.877 1.545 15 4v2h3v2l-2.074-.836a859 859 0 0 0-9.738-3.789l-3.52-1.352L341 311z"/><path fill="#d17858" d="m145 44 1.504 1.137A570 570 0 0 0 160 55l-3 1c-1.79-.926-1.79-.926-3.625-2.312l-1.852-1.364C150 51 150 51 149 49c-2.017-1.134-2.017-1.134-4-2z"/><path fill="#fbe3d5" d="M328 489c-1.25 1.563-1.25 1.563-3 3a70 70 0 0 1-4-1l-3 2c-2.262.195-2.262.195-4.687.125l-2.45-.055L309 493c3.085-1.666 6.127-2.738 9.5-3.687l2.844-.825c2.664-.49 4.132-.375 6.656.512"/><path fill="#fde7d7" d="M146 478c4.058.655 7.54 1.946 11.313 3.563l3.238 1.378L163 484v1c-6.042-.432-10.89-1.623-16-5z"/><path fill="#ee6a37" d="M123 339h13l-3 4h-2v-2l-1.187 1.563L128 344c-2.687-.312-2.687-.312-5-1z"/><path fill="#bdaba5" d="M51 323c3.017 1.509 3.645 3.893 5.125 6.875l1.633 3.242C59 336 59 336 59 339c-4.124-4.86-8-9.44-8-16"/><path fill="#a2ced8" d="M11 320h2l1 8h2v8c-1.735-2.603-2.652-4.523-3.625-7.437-.26-.762-.52-1.524-.79-2.31C11 324 11 324 11 320"/><path fill="#f8bd92" d="M93 264v1l-8 1-.437 3.25c-.4 2.667-.839 5.164-1.563 7.75-2.326-3.489-2.419-4.897-2-9 2.168-5.493 6.94-4.382 12-4"/><path fill="#a3c9d2" d="M65 98h1l.938 3.313A170 170 0 0 0 69 108c.128 2.674.044 5.321 0 8l-1-4h-2c-1.206-4.672-1.094-9.215-1-14"/><path fill="#b76c50" d="m208 44-2.152.84-2.786 1.097-2.777 1.09c-2.21.773-2.21.773-3.285 1.973-2.67.141-5.324.042-8 0 2.988-1.992 5.554-3.03 8.938-4.187l3.152-1.106c2.865-.696 4.2-.732 6.91.293"/><path fill="#d77654" d="M313 491c-5.497 2.967-11.744 4.404-18 4 1-2 1-2 3.938-3.125 4.646-1.239 9.291-1.048 14.062-.875"/><path fill="#a5d1da" d="M72 424h3l1 4h3v2h2v2l3 1-2 2a923 923 0 0 1-5-4.375l-2.812-2.46L72 426z"/><path fill="#ce7f5e" d="M74 356c2.579.348 4.501.636 6.625 2.188 1.847 2.434 3.086 5.05 4.375 7.812-3.187-1.403-5.322-3.078-7.75-5.562l-1.86-1.88C74 357 74 357 74 356"/><path fill="#d26340" d="M147 180h3l-8 16c.444-6.21 1.915-10.605 5-16"/><path fill="#fcd5be" d="m131 86 3 1-9 10-2-1c.813-1.937.813-1.937 2-4l3-1c1.15-1.967 1.15-1.967 2-4z"/><path fill="#beadad" d="M391 382v2l-3 1-1 2c-2.723.414-2.723.414-6.062.625l-3.348.227L375 388c2.984-1.54 6.01-2.87 9.125-4.125l2.633-1.07C389 382 389 382 391 382"/><path fill="#534237" d="M241 267c1.875.313 1.875.313 4 1l2 3c2.05 1.192 2.05 1.192 4 2v1c-6.448-.608-6.448-.608-8.937-2.375C241 270 241 270 241 267"/><path fill="#aec3cb" d="M43 235h1c.194 5.527-.252 9.756-2 15h-1q-.079-2.625-.125-5.25l-.07-2.953C41 238.98 41.555 237.39 43 235"/><path fill="#e6825e" d="M394 127c2.24 1.92 3.195 3.406 4.5 6.125 1.231 3.171 1.231 3.171 4.5 3.875l-5 1-.312-1.937L397 134l-3-1z"/><path fill="#dd7b53" d="M128 54h2c1.691 2.152 1.691 2.152 3.563 4.938 2.032 3.18 2.032 3.18 4.437 6.062.04 1.666.043 3.334 0 5-2.275-3.01-4.5-6.051-6.687-9.125l-1.887-2.633C128 56 128 56 128 54"/><path fill="#fde2cc" d="M390.297 39.285 392 40l-3 1v2c-1.287.697-2.58 1.382-3.875 2.063l-2.18 1.16L381 47l-2-1a290 290 0 0 1 4.25-3.562l2.39-2.004C388 39 388 39 390.298 39.285"/><path fill="#ca6848" d="M149 476c2.063.438 2.063.438 4 1v2l6 1 1 3a320 320 0 0 1-4.312-1.312l-2.426-.739c-2.362-.99-3.6-2.03-5.262-3.949z"/><path fill="#fdcfa8" d="M346 313c6.028.476 10.767 3.197 16 6-3.937 1.312-6.125.243-10-1v-2l-1.875-.375C348 315 348 315 346 313"/><path fill="#ed8361" d="m311 297 10 1v2h5l1 2-16-3z"/><path fill="#fed1a9" d="m199 276 3 2c.658 6.914.658 6.914-1.25 10.063-1.75.937-1.75.937-3.937.625L195 288l5-2z"/><path fill="#7f5c50" d="M260 262h1c.366 4.272-.48 6.546-3 10-3 2-3 2-5.187 1.625L251 273h2v-2l2.375-1.812c2.774-2.312 3.588-3.793 4.625-7.188"/><path fill="#abd3dd" d="M32 127c1.017 2.655 1.13 3.692.004 6.36l-1.441 2.39-1.434 2.422L28 140h-2c1.413-4.827 3.43-8.716 6-13"/><path fill="#fde9d3" d="M415 118c-1.208 4.43-2.517 6.981-6 10-.366-6.46-.366-6.46 1.313-8.937C412 118 412 118 415 118"/><path fill="#f9c5a7" d="M131 60c4.116 3.506 6.906 8.046 9 13l-1 2-3-2v-3h-2c-1.129-3.311-2.213-6.59-3-10"/><path fill="#d97b59" d="M107 15c4.98 1.51 8.243 4.557 12 8l-3 1a105 105 0 0 1-5-4l-3-1c-.687-2.062-.687-2.062-1-4"/><path fill="#abc5cc" d="M96 376c4.993 1.277 7.576 3.173 11 7h-4v-2l-2.375-.25C98 380 98 380 96.688 377.938z"/><path fill="#9accd9" d="M435 348c0 3.999-1.726 5.802-4 9l-1-3c1.404-2.264 3.197-4.02 5-6m-9 11 2 1-4 4-2-1z"/><path fill="#d56d45" d="m83 277 15 2v1c-4.06.984-7.827 1.232-12 1l-3-2z"/><path fill="#e1754b" d="m212 243 1 3c-3.17 3.26-6.4 6.222-10 9l-2-1c2.466-3.347 4.3-5.21 8-7 1.734-2.033 1.734-2.033 3-4"/><path fill="#fde1c8" d="M201 176c4.104 3.272 7.71 6.152 10 11v2h-2a259 259 0 0 1-3-5 134 134 0 0 0-2.687-3.187C201 178 201 178 201 176"/><path fill="#fce9dc" d="M120 24c4.86.607 8.74 2.728 13 5l-2 2c-3.143-.364-5.234-1.65-7.75-3.5l-1.86-1.344L120 25z"/><path fill="#fdebe1" d="M421 0h10l1 5c-3.724-1.213-7.378-2.509-11-4z"/><path fill="#b1bbbc" d="M60 339c3.114 2.802 4.592 5.078 6 9l2 3c-3 0-3 0-4.562-1.187C60.64 346.286 60 343.483 60 339"/><path fill="#a6c5cd" d="m441 340 1 2c-1.25 2.563-1.25 2.563-3 5l-3 1c.25-2.875.25-2.875 1-6 2.063-1.375 2.063-1.375 4-2"/><path fill="#fcd4bc" d="M309 169c-1.446 3.813-3.302 5.327-7 7-2.164-.426-2.164-.426-4-1a783 783 0 0 1 4.375-3l2.46-1.687C307 169 307 169 309 169"/><path fill="#cd633f" d="m164 170-10 6 1-5c3.644-2.167 4.765-2.059 9-1"/><path fill="#eafbfd" d="M20 147h2c-1.748 5.467-3.658 10.758-6 16-1.112-3.336-.953-3.791.313-6.875l.851-2.117L18 152l1.188-3z"/><path fill="#fee2cc" d="M368 88c3.59.997 4.912 1.887 7.25 4.875 1.406 2.511 2.319 4.321 2.75 7.125-3.595-3.493-6.878-7.075-10-11z"/><path fill="#c8816a" d="M282 41c5.93-.379 10.472.894 16 3v1c-5.93.379-10.472-.894-16-3z"/><path fill="#fce3d3" d="M344 483h-2v2c-1.58.533-3.164 1.051-4.75 1.563l-2.672.878c-2.656.576-4.048.451-6.578-.441 1.91-.868 3.829-1.719 5.75-2.562l3.234-1.442c3-.99 4.15-1.158 7.016.004"/><path fill="#e75d2e" d="m158 462 2 1-10 10-3-1h2l1-3c1.848-1.824 1.848-1.824 4.063-3.687l2.222-1.887z"/><path fill="#bcb4b2" d="M379 435c1.938.75 1.938.75 4 2 .563 1.938.563 1.938 1 4l1.625 1.5L387 444c-.414 2.094-.414 2.094-1 4q-1.758-2.682-3.5-5.375l-1.969-3.023C379 437 379 437 379 435"/><path fill="#b76d55" d="M77 175c.676 1.676.676 1.676 1 4-1.145 2.543-1.145 2.543-2.812 5.188l-1.645 2.667C72 189 72 189 70 190c1.545-5.48 4.155-10.114 7-15"/><path fill="#feddc4" d="m396 129 4 2v3h3v-2l3 1-5 4c-2.724-2.353-3.814-4.625-5-8"/><path fill="#b0c4c4" d="m433 81 3 3-2 2a112 112 0 0 0-1.125 7.625l-.262 2.14A735 735 0 0 0 432 101h-1c-.227-6.933.58-13.217 2-20"/><path fill="#cc7a5e" d="M300 45c4.72 1.543 9.417 3.078 14 5v1c-5.656.566-9.226-1.286-14-4z"/><path fill="#d07c5a" d="M356 42v3c-5.273 3.223-5.273 3.223-7 4l-2-1c4.5-6 4.5-6 9-6"/><path fill="#aec3c8" d="M124 425c0 3.181-.595 4.756-1.875 7.625l-1.055 2.414C120 437 120 437 118 438l1-7h2v-4z"/><path fill="#e5f7fb" d="m441 410 1 3-8 8-2-1z"/><path fill="#b3c0bc" d="m364 392-6 3c-1.134 2.017-1.134 2.017-2 4l-2-2c.25-2.062.25-2.062 1-4 2.957-1.478 5.742-1.06 9-1"/><path fill="#ec7c64" d="m418 361-1 3h-2l-1 3c-2.062.688-2.062.688-4 1 1.563-4.57 2.726-7 8-7"/><path fill="#fccca5" d="M348 329c4.625-.434 8.974.714 13 3l1 3c-4.72-1.543-9.417-3.078-14-5z"/><path fill="#d07653" d="M453 306c1.246 3.738.544 4.991-.812 8.625l-1.083 2.977C450 320 450 320 448 321c.481-5.774 2.185-9.959 5-15"/><path fill="#fee3cf" d="M357 230c1.197 3.59.735 4.243-.812 7.563l-1.083 2.378C354 242 354 242 352 244l1-10h2z"/><path fill="#a4d0d8" d="M487 172c2.098 3.966 3.147 7.593 4 12l-2 2c-2.4-4.648-2.2-8.91-2-14"/><path fill="#fcd7c0" d="M368 60c1 2 1 2 .441 3.945l-.878 2.18-.872 2.195L366 70h-2v2h-2l2-6h2l.438-2.437C367 61 367 61 368 60"/><path fill="#fdede2" d="m404.164-.195 2.461.07 2.477.055L411 0c-3.268 2.179-6.38 3.498-10 5l-1-3c2-2 2-2 4.164-2.195"/><path fill="#eb9570" d="M202 279h1c.054 1.458.093 2.916.125 4.375l.07 2.46C203 288 203 288 201 290c-2.164.195-2.164.195-4.625.125l-2.477-.055L192 290v-1l3.375-.375c3.656-.272 3.656-.272 5.625-2.625.4-2.323.74-4.657 1-7"/><path fill="#e08765" d="m199 255 2 1c-2.884 3.408-4.37 4.866-8.812 5.813L189 262c1.28-2.559 2.443-2.861 5-4.062 2.7-1.183 2.7-1.183 5-2.938"/><path fill="#e97e62" d="m273 255-3 2-2.562 2.563C265 262 265 262 263 263c.355-2.627.725-4.58 2.188-6.812 2.606-1.708 4.772-1.39 7.812-1.188"/><path fill="#d7ddd7" d="m194 238 1 3-9 7-2-2 2.75-1.75c2.77-1.918 4.97-3.794 7.25-6.25"/><path fill="#a3c9d6" d="m57 203 2 1c-1.764 4.972-4.394 9.434-7 14l-1-2a107 107 0 0 1 2.938-6.625l1.714-3.602z"/><path fill="#faceba" d="M144 190c1.185 3.704 1.351 7.135 1 11-2 1.938-2 1.938-4 3 .514-4.97 1.234-9.29 3-14"/><path fill="#fbcfb4" d="M213 193c3.766 5.65 4.228 10.4 4 17h-1c-.2-.957-.2-.957-.402-1.934l-.536-2.504-.527-2.496c-.343-2.043-.343-2.043-1.535-3.066q-.061-3.5 0-7"/><path fill="#9dcbdb" d="M74 154h2l1 13h-1l-.375-2.437L75 162l-2-1z"/><path fill="#beaba1" d="M314 50c5.281.515 8.572 2.255 13 5-2.655 1.017-3.692 1.13-6.36.004l-2.39-1.441-2.422-1.434L314 51z"/><path fill="#fbdbc6" d="M410 41c7.571 4 7.571 4 10 8l-1 2a732 732 0 0 1-4.5-3.875l-2.531-2.18L410 43z"/><path fill="#c76b4d" d="M161 483q2.438.212 4.875.438c.905.08 1.81.162 2.742.246C171 484 171 484 173 485v2c-4.318-.508-8.033-1.197-12-3z"/><path fill="#a4cfdd" d="M96 446c4.615 1.319 8.099 3.214 12 6l-3 2a1271 1271 0 0 1-4.5-3.437l-2.531-1.934L96 447z"/><path fill="#ed6b3a" d="M133 417c2 1 2 1 2.75 2.938L136 422c-2.222 2.222-4.085 2.926-7 4l.875-1.687c1.166-2.398 2.159-4.829 3.125-7.313"/><path fill="#c4896e" d="M143 400c0 3.32-.437 4.025-2.312 6.625l-1.301 1.852C138 410 138 410 135 411v-2l3-2a402 402 0 0 0 3-6z"/><path fill="#e4f8fb" d="M48 397c3.67 3.277 5.693 6.715 8 11-1.86-.254-1.86-.254-4-1-1.266-1.777-1.266-1.777-2.25-3.937l-1.016-2.153C48 399 48 399 48 397"/><path fill="#a1c8d6" d="m139 397 4 1h-3v5h-2l-1 4h-2v-2h2l-.125-2.312C137 400 137 400 139 397"/><path fill="#e97d5f" d="m438 335 2 1-4 7h-2v3l-3-1 2.375-2.75c1.926-2.302 3.447-4.466 4.625-7.25"/><path fill="#e3794b" d="M147 315c-2.502 1.668-4.411 2.624-7.187 3.625-.716.26-1.431.52-2.168.79-.543.192-1.086.386-1.645.585l-1-3c4.177-1.591 7.532-2.213 12-2"/><path fill="#c57a62" d="M234 256c1.918.719 1.918.719 4 2 .863 2.094.863 2.094 1.313 4.5.16.794.322 1.588.488 2.406C240 267 240 267 239 269l-1.375-3.687c-1.17-3.121-2.37-6.225-3.625-9.313"/><path fill="#fcd3b9" d="M285 230c3.172 3.625 4.429 7.512 6 12l-2 1a742 742 0 0 1-2-4.812l-1.125-2.708C285 233 285 233 285 230"/><path fill="#97ccd7" d="M3 218h1c.081 2.438.14 4.874.188 7.313l.076 2.091c.029 2.022.029 2.022-.264 5.596l-3 3z"/><path fill="#b5b5b7" d="M63 198c0 4.246-1.818 6.385-4 10-.987-2.666-1.028-3.901-.25-6.687C60 199 60 199 63 198"/><path fill="#d67a57" d="m374 26 1 4-2.25.75c-2.951 1.341-4.598 2.86-6.75 5.25l-2-1z"/><path fill="#e77e64" d="m385 449 1 3h2v6l-4 1v-2h2z"/><path fill="#9dcfda" d="m454 388 2 1c-3 7.571-3 7.571-6 10 .51-4.39 1.522-7.337 4-11"/><path fill="#bab8b6" d="M435 346c0 3.32-.437 4.025-2.312 6.625l-1.301 1.852C430 356 430 356 427 357c1.473-5.01 4.275-7.518 8-11"/><path fill="#e17a61" d="M237 262h1l.313 2.875c.372 3.416.372 3.416 3.687 5.125v3l-5-2z"/><path fill="#e97e5f" d="M279 237c3.006 3.006 2.596 5.824 3 10l-3 2z"/><path fill="#fdd5bb" d="m85 118 3 1c.688 2.063.688 2.063 1 4h2l-1 5c-2.645-3.125-3.844-6.088-5-10"/><path fill="#fde5d4" d="m390 118 3 2v2h3v6c-2.617-2.368-4.329-4.896-6-8z"/><path fill="#c2917c" d="M429 96h1v8h-2v8h-1c-.204-5.738-.271-10.605 2-16"/><path fill="#db7551" d="M437 14h2c1.382 2.765 1.095 5.046 1.063 8.125l-.028 3.32L440 28h-1v-9h-2z"/><path fill="#de7b53" d="M62 8c1.534 3.069.55 5.7 0 9l-3 1c-.37-5.415-.37-5.415 1.5-8.375z"/><path fill="#da8566" d="M83 0c5.281.515 8.572 2.255 13 5-3 1-3 1-5.48.004l-2.707-1.441-2.731-1.434L83 1z"/><path fill="#fdeade" d="m381 462 2 1a617 617 0 0 1-3.875 3l-2.18 1.688C375 469 375 469 373 469c1.116-3.347 1.513-3.62 4.438-5.25z"/><path fill="#e08c79" d="m386 460-11 6c2.435-4.87 5.416-7.861 11-6"/><path fill="#a4cfd8" d="M426 426c-1.163 3.489-2.14 4.1-5.062 6.188l-2.223 1.605L417 435c0-3 0-3 1.46-4.605l1.915-1.582 1.898-1.606C424 426 424 426 426 426"/><path fill="#afc0c3" d="M404 375c-.506 2.169-1 4-2 6l-4-1c2.258-5 2.258-5 6-5"/><path fill="#da7955" d="M295 251q1.973 1.43 3.938 2.875l2.214 1.617C303 257 303 257 304 259h-4c-1.562-1.875-1.562-1.875-3-4l-3-2z"/><path fill="#e86e3e" d="m286 240 2 1v4h2l1 4h-3c-2-5.625-2-5.625-2-9"/><path fill="#d3572e" d="m66 198 2 1-2 3-.375 2.063C65 206 65 206 62.938 207.25L61 208l.875-1.687c1.178-2.348 1.178-2.348 2.188-5C65 199 65 199 66 198"/><path fill="#afc1c8" d="M182 51c-5.415 4.062-5.415 4.062-8.375 3.75L172 54c6.625-4.125 6.625-4.125 10-3"/><path fill="#9fcad8" d="M188 48c-2.855 1.903-4.42 2.462-7.687 3.125l-2.45.508L176 52v-2a211 211 0 0 1 3.75-1.562l2.11-.88c2.44-.636 3.78-.36 6.14.442"/><path fill="#b8b0a7" d="M150 47c3.784.925 5.567 1.394 7.875 4.625L159 54c-4.419-1.35-6.343-3.261-9-7"/><path fill="#d87552" d="M128 31c3.167 1.584 4.733 2.453 6.313 5.688L135 39c-5.785-3.446-5.785-3.446-6.875-6.25z"/><path fill="#c3b3a9" d="m139 392 9 1c-2 4-2 4-4 5v-4l-5-1z"/><path fill="#e17d52" d="M153 331c-3.534 2.12-6.944 2.532-11 3 3.818-3.028 6.186-4.494 11-3"/><path fill="#ed7c59" d="M262 265h1v7l-5 2v-3h2z"/><path fill="#e18863" d="m352 244 1 4-1.937.813c-2.394 1.074-2.394 1.074-3.063 4.187l-2-1z"/><path fill="#d1785c" d="m228 225 3 1c-4.75 5.75-4.75 5.75-7 8 .615-5.538.615-5.538 2.563-7.875z"/><path fill="#cf6c48" d="M132 88c1.245 2.49.777 3.41 0 6h-4v2l-2-1z"/><path fill="#facaad" d="M98 39c-3.663 2.478-6.61 3.49-11 4 3.35-3.686 6.035-5.773 11-4"/><path fill="#e85e2e" d="M179 448c-.114 1.46-.242 2.917-.375 4.375-.07.812-.14 1.624-.21 2.46C178 457 178 457 176 459v-8l-2-1c3-2 3-2 5-2"/><path fill="#aad3dc" d="M64 416c5.079 1.27 5.079 1.27 7 4l-1 4z"/><path fill="#eafbfc" d="M492 310h1c.081 1.457.14 2.916.188 4.375l.105 2.46L493 319l-3 2c1-7.429 1-7.429 2-11"/><path fill="#fed9c4" d="M195 258c-1.986 1.986-3.441 2.915-6 4h-3v-3c3.073-.91 5.801-1.089 9-1"/><path fill="#dd7b56" d="M205 178c1.875.188 1.875.188 4 1 1.313 2.375 1.313 2.375 2 5l-1 3a466 466 0 0 1-2.5-3.375l-1.406-1.898C205 180 205 180 205 178"/><path fill="#df7146" d="m419 174 3 1c1.188 3.563 1.188 3.563 2 7-1.937-.625-1.937-.625-4-2-.75-3.125-.75-3.125-1-6"/><path fill="#fed7c2" d="M110 114h2c-1.25 3.46-2.675 6.147-5 9 .75-6.75.75-6.75 3-9"/><path fill="#fbd3b9" d="M122 48c4.875 4.625 4.875 4.625 6 8-2.468-1.152-4.048-2.048-6-4z"/><path fill="#fbddc2" d="m378 47 1 4c-1.937 2.25-1.937 2.25-4 4l-3-1z"/><path fill="#cb5b33" d="M212 44c-3.858 2.153-6.551 3.393-11 3 1-2 1-2 3.813-3.187 3.047-.777 4.324-.914 7.187.187"/><path fill="#9accd7" d="m235 1-1.937.938c-2 .897-2 .897-3.063 2.062-2.67.141-5.324.042-8 0V3c4.504-1.757 8.176-2.193 13-2"/><path fill="#eb6c3e" d="m106 377 8 1 1 3-9-2z"/><path fill="#c48871" d="M94 373c3.375.547 5.082 1.055 8 3v2c-5.75-1.625-5.75-1.625-8-5"/><path fill="#fce1c7" d="m203 249 2 1a105 105 0 0 1-4 5h-2c.313-1.875.313-1.875 1-4z"/><path fill="#e86e42" d="m287 184 2 1-1.375 2.25A89 89 0 0 0 284 194v-7l3-1z"/><path fill="#f8c4ae" d="m156 174 1 2c-1.375 2-1.375 2-3 4h-2v2h-2c1.443-3.366 3.333-5.51 6-8"/><path fill="#e76e3c" d="m392 36-8 4c.313-1.937.313-1.937 1-4 3.133-1.044 3.99-.934 7 0"/><path fill="#b7c3c3" d="m364 29 5 1c-2.688 2.252-4.646 3.882-8 5v-2h2z"/><path fill="#baaaa0" d="m356 399 4 1 2 7c-2.667-2.49-4.557-4.634-6-8"/><path fill="#a8c6d0" d="m75 360 7 4-1 3c-4.8-2.462-4.8-2.462-5.812-5.187z"/><path fill="#eb6030" d="M70 318v1c-5.16 1.513-8.66 2.335-14 1v-1c4.763-.953 9.167-1.083 14-1"/><path fill="#fccca5" d="M313 299c5.455.455 5.455.455 8 3l-10-1z"/><path fill="#f37b58" d="M318 289h8v1l-8 1zm-1 2 3 1v2l-4-1z"/><path fill="#fccaaf" d="M302 256c7.571 1.857 7.571 1.857 10 5-4.752-.432-6.92-1.328-10-5"/><path fill="#dd8760" d="M385 112c2.724 2.353 3.814 4.625 5 8l-3-1v-2h-2z"/><path fill="#fdd9c3" d="m116 105 1 3c-1.937 3.188-1.937 3.188-4 6l-1-3c1.938-3.187 1.938-3.187 4-6"/><path fill="#e36f42" d="M417 1c4.554-.37 4.554-.37 6.813 1.5L425 4h-7z"/></svg>