<svg xmlns="http://www.w3.org/2000/svg" width="500" height="500"><path fill="#f85203" d="M0 0h500v500H0z"/><path fill="#545c6d" d="M172 37c2.062 3.092 2.801 5.404 3.77 8.969l.997 3.642 1.046 3.889 1.08 3.973Q180.458 63.233 182 69l.796 2.967Q186.004 83.957 189 96c2.255 9.02 4.634 18.009 7 27l107 1 1-8c.3-1.42.63-2.835 1.016-4.234l.594-2.203.64-2.313 1.379-5.121.704-2.613c.998-3.765 1.925-7.546 2.854-11.329a2702 2702 0 0 1 7.318-28.68q.681-2.628 1.356-5.258c.637-2.483 1.284-4.964 1.932-7.444l.583-2.296c1.396-5.28 1.396-5.28 3.624-7.509l.933 1.683c2.098 3.78 4.2 7.558 6.32 11.325C343.02 67.393 352.244 85.086 361 103l1.374 2.801q2.26 4.627 4.501 9.261l1.446 2.96c5.604 11.653 7.937 23.644 4.554 36.415-2.257 6.223-5.57 11.556-10.581 15.919-5.555 5.013-8.83 8.941-9.494 16.561-.165 4.538-.096 9.053.012 13.59q.01 2.966.002 5.931c0 5.176.063 10.349.142 15.524.115 8.286.13 16.573.152 24.86.017 2.878.057 5.754.102 8.63.199 17.392.199 17.392-3.21 24.548l-1 1c-1.114 11.214 1.23 22.732 2.75 33.813q.413 3.076.825 6.154.821 6.135 1.651 12.27a2274 2274 0 0 1 2.308 17.653l.779 6.11q.46 3.625.925 7.25l.377 2.953c.405 2.943.896 5.867 1.385 8.797.472 3.026.394 4.83 0 8-2.35 2.201-4.055 3.44-6.812 4.938l-2.182 1.26A253 253 0 0 1 344 394l-2.236 1.193c-18.63 9.786-38.99 16.486-59.764 19.807l-2.16.35c-22.439 3.437-46.6 3.152-68.84-1.35l-2.613-.52C185.174 408.726 155.24 400.24 138 383c.109-2.417.343-4.676.688-7.062l.62-4.715.348-2.574c.344-2.653.65-5.307.942-7.965 1.659-14.904 3.876-29.699 6.245-44.503a971 971 0 0 0 1.806-11.814q.357-2.411.737-4.82c.375-2.41.715-4.822 1.048-7.238l.356-2.176c.63-4.923-.261-7.694-2.705-11.972-3.11-6.195-3.363-13.026-3.17-19.827l.044-2.467q.046-2.627.105-5.255c.058-2.78.097-5.56.13-8.34.094-7.9.196-15.798.375-23.696.108-4.847.172-9.694.207-14.542q.033-2.756.114-5.51c.552-12.177.552-12.177-5.234-22.497A144 144 0 0 0 136 172c-9.776-10.467-12.552-19.781-12.309-34.168.788-9.784 4.716-18.106 9.196-26.71 2.638-5.077 5.044-10.263 7.488-15.434A589 589 0 0 1 155 67l1.54-2.855c1.473-2.723 2.964-5.435 4.46-8.145l1.21-2.197q2.048-3.715 4.102-7.428l1.35-2.447 1.264-2.28 1.138-2.057C171 38 171 38 172 37"/><path fill="#fefefd" d="M0 0h232v1l-3.305.332C209.067 3.362 190.851 7.047 172 13l-2.355.73C136.058 24.26 106.34 43.89 81 68l-1.721 1.634C71.236 77.326 63.966 85.3 57.322 94.23a427 427 0 0 1-4.025 5.283C39.047 118.206 27.585 139.129 19 161l-.84 2.137C12.653 177.416 8.96 191.997 6 207l-.548 2.724C.335 236.486.7 267.312 6 294l.844 4.719C14.335 338.87 32.023 375.635 58 407c.82 1.005 1.64 2.01 2.484 3.047 10.082 12.249 20.976 23.046 33.677 32.563a350 350 0 0 1 5.612 4.355C129.75 470.362 167.633 487.07 205 494c.798.15 1.597.3 2.42.453 27.913 4.939 58.711 4.493 86.58-.453l2.469-.438c24.612-4.57 48.524-13.74 70.531-25.562l1.802-.968c12.747-6.92 24.96-14.855 36.198-24.032l2.672-2.148c10.598-8.03 10.598-8.03 19.328-17.852h2l.719-1.691c1.579-2.845 3.54-4.888 5.781-7.247C470.08 376.838 489.273 327.862 496 278l.292-2.156c.953-8.091.907-16.21.896-24.344l-.002-2.299c-.025-11.198-.403-22.135-2.186-33.201l-.375-2.574c-3.264-22.413-9.54-43.691-18.625-64.426l-1.054-2.417c-10.357-23.449-24.529-44.961-41.597-64.066a318 318 0 0 1-3.61-4.15C418.605 65.567 405.691 54.937 392 45c-.598-.44-1.197-.878-1.813-1.33C355.111 18.18 314.263 6.934 272 1V0h228v500H0z"/><path fill="#29303a" d="M325 37c3.986 4.531 6.666 9.588 9.5 14.875l1.577 2.918C344.654 70.72 353.055 86.748 361 103l1.374 2.801q2.26 4.627 4.501 9.261l1.446 2.96c5.604 11.653 7.937 23.644 4.554 36.415-2.257 6.223-5.57 11.556-10.581 15.919-5.555 5.013-8.83 8.941-9.494 16.561-.165 4.538-.096 9.053.012 13.59q.01 2.966.002 5.931c0 5.176.063 10.349.142 15.524.115 8.286.13 16.573.152 24.86.017 2.878.057 5.754.102 8.63.199 17.392.199 17.392-3.21 24.548l-1 1c-1.114 11.214 1.23 22.732 2.75 33.813q.413 3.076.825 6.154.821 6.135 1.651 12.27a2274 2274 0 0 1 2.308 17.653l.779 6.11q.46 3.625.925 7.25l.377 2.953c.405 2.943.896 5.867 1.385 8.797.472 3.026.394 4.83 0 8-2.35 2.201-4.055 3.44-6.812 4.938l-2.182 1.26A253 253 0 0 1 344 394l-2.236 1.193c-18.63 9.786-38.99 16.486-59.764 19.807l-2.16.35c-22.439 3.437-46.6 3.152-68.84-1.35l-2.613-.52C185.174 408.726 155.24 400.24 138 383c.109-2.417.343-4.676.688-7.062l.62-4.715.348-2.574c.344-2.653.65-5.307.942-7.965 1.671-15.019 3.904-29.928 6.245-44.854l.38-2.428q.371-2.36.745-4.717c.573-3.63 1.118-7.258 1.59-10.902l.5-3.834c.137-1.106.272-2.213.412-3.353C151 288 151 288 153 286l1.54 1.61c3.939 4.042 7.71 7.316 12.46 10.39 17.45 13.397 17.45 13.397 19.473 24.623.387 3.018.717 6.037 1.027 9.065 1.733 16.44 1.733 16.44 8.5 31.312h4v-2c3.933-3.09 7.021-4.526 12-5v-2q3.311-1.442 6.625-2.875l1.871-.816A384 384 0 0 1 226 348l2.71-1.133c4.965-1.309 10.174-1.44 15.29-1.867v-37l-7-1c-9.548-4.643-17.09-13.734-22-23v-3h-2c-.082-1.895-.14-3.791-.187-5.687l-.106-3.2c.347-3.687.861-5.308 3.293-8.113 6.518-3.355 12.766-3.539 20-3.687l3.421-.093q3.528-.088 7.055-.153c3.428-.065 6.854-.163 10.282-.262q3.183-.063 6.367-.118l2.957-.09c6.164-.05 10.819.79 15.918 4.403 2.705 2.917 3.818 6.232 4.223 10.168-.366 8.269-5.716 15.931-11.223 21.832h-2l-.687 1.688c-1.748 3.08-3.572 5.058-6.313 7.312-3.812.813-3.812.813-7 1v2h-4l1 36 8 1c1.905.646 3.81 1.3 5.672 2.059a139 139 0 0 0 5.406 2.039c7.036 2.544 12.881 5.517 18.922 9.902 2.76 1.74 4.908 2.97 8 4 3.705-6.538 5.227-12.702 6.563-20.062l.646-3.35c.914-4.75 1.79-9.501 2.564-14.276 2.525-14.728 10.154-20.462 21.762-29.226 6.602-5.004 11.242-8.527 12.465-17.086.902-1.793.902-1.793 2-3.625 3.195-5.392 3.149-9.975 3.145-16.147l.01-2.682q.013-4.39.013-8.78l.01-6.114q.009-6.41.007-12.82c0-5.466.014-10.931.031-16.396q.015-6.315.013-12.632 0-3.021.013-6.042c.01-2.824.007-5.648 0-8.472.007-.825.012-1.65.018-2.5-.028-5.256-.835-9.73-2.26-14.79-.607-4.15.537-6.372 2.832-9.863 6.093-11.147 5.819-23.435 2.345-35.42-1.364-4.314-2.855-8.578-4.365-12.842q-.95-2.781-1.893-5.566-1.951-5.752-3.934-11.493c-2.93-8.534-5.678-17.126-8.44-25.716q-2.04-6.336-4.096-12.666l-.711-2.207C329.55 48.542 329.55 48.542 328 45c-.513 21.376.39 42.659 1.5 64l.109 2.091Q330.284 124.046 331 137c-3.554-1.382-6.695-2.924-9.937-4.937-6.08-3.688-10.866-6.343-18.063-7.063.561-6.167 1.584-11.857 3.25-17.812l1.379-5.094.704-2.594c1.003-3.758 1.927-7.535 2.854-11.312 2.371-9.583 4.868-19.132 7.372-28.68q.69-2.63 1.377-5.26.975-3.722 1.955-7.443l.599-2.296c1.395-5.28 1.395-5.28 2.51-7.509"/><path fill="#434a57" d="M327 43c3.29 3.682 4.446 7.775 5.898 12.39l.823 2.548c.893 2.768 1.774 5.54 2.654 8.312q1.873 5.865 3.75 11.73l.964 3.023a929 929 0 0 0 6.724 20.11q1.35 3.96 2.695 7.922a452 452 0 0 0 1.735 4.964c4.777 13.436 7.846 27.167 2.382 40.939-1.384 2.877-2.85 5.4-4.625 8.062-.063 2.16-.063 2.16.313 4.438l.3 2.308c.342 2.209.342 2.209.902 4.15.823 3.574.641 7.226.646 10.876l.015 2.682q.021 4.39.027 8.78l.017 6.114q.015 6.41.02 12.82c.006 5.466.03 10.931.058 16.396.019 4.21.024 8.421.026 12.632q.004 3.021.024 6.042c.017 2.824.015 5.648.008 8.472l.028 2.5c-.047 6.61-1.51 11.806-5.072 17.478-1.537 2.215-1.537 2.215-1.156 4.687-.264 4.444-3.358 6.358-6.453 9.293-3.53 3.046-7.252 5.739-11.055 8.434-2.424 1.738-4.78 3.504-7.086 5.398l-1.808 1.469c-5.338 6.182-6.639 13.277-7.817 21.156q-.499 3.068-1.003 6.137c-.16.984-.318 1.968-.481 2.982-1.446 8.803-2.931 16.96-7.453 24.756-4.277 0-4.87-.304-8.125-2.687-7.297-5.068-14.956-8.511-23.332-11.418a90 90 0 0 1-5.102-1.973c-2.32-.876-4.234-1.264-6.691-1.485C256 345 256 345 255 344a200 200 0 0 1-.098-7.973l.005-2.417c.005-2.557.018-5.115.03-7.673q.008-2.595.014-5.189.017-6.375.049-12.748h4v-2l3.625-1.062c4.206-1.566 6.307-3.686 9.012-7.192C273 296 273 296 275.5 293.688c5.223-5.615 9.246-11.843 9.688-19.645-.286-3.11-1.583-5.411-3.188-8.043v-2l-2.875-.937C276 262 276 262 274 261a72 72 0 0 0-4.531-.133l-2.86-.006-3.109.014-3.194.008c-8.19.048-16.371.256-24.556.555l-3.37.118-3.146.128-2.774.11c-2.264.19-4.281.58-6.46 1.206l2-3h27V125h-53v-1q20.693-.07 41.387-.104 9.609-.014 19.219-.047 9.278-.032 18.557-.039 3.534-.005 7.07-.021c3.307-.015 6.615-.017 9.923-.016l2.934-.022c8.135.025 15.414.972 22.535 5.124l2.602 1.492L323 132q1.836 1.053 3.673 2.102L330 136l-.114-2.011a7659 7659 0 0 1-1.494-27.4C327.272 85.383 326.537 64.24 327 43"/><path fill="#1a1f25" d="M129 411c4.33 1.67 8.246 3.797 12.25 6.125C168.784 432.778 197.724 440.472 229 445l-.125 2.31c-.301 6.499.191 11.38 4.125 16.69 3.71 3.888 7.63 6.737 13.023 7.336 6.703.078 10.84.107 15.977-4.336h2l.813-1.625C266 463 266 463 267.563 460.5c1.435-3.496 1.762-5.983 2.027-9.719l.242-3.279L270 445l2.174-.348c32.353-5.262 65.775-13.064 93.24-31.949C368 411 368 411 370 411l.687 2.763q1.282 5.153 2.566 10.305l1.103 4.43 1.601 6.428.527 2.12a328 328 0 0 0 3.278 12.06c1.154 4.128 1.523 7.622 1.238 11.894-58.408 33.554-125.156 47.59-191.413 30.4-15.484-4.191-30.093-9.527-44.587-16.4l-2.167-1.025A358 358 0 0 1 129 467l-3.441-1.812-3.059-1.75-2.656-1.504C118 460 118 460 117.734 456.996c.135-4.791 1.418-9.266 2.672-13.867l.74-2.795c.777-2.926 1.565-5.849 2.354-8.772l1.59-5.974Q127.033 418.29 129 411"/><path fill="#181d23" d="M325 37c3.986 4.531 6.666 9.588 9.5 14.875l1.577 2.918C344.654 70.72 353.055 86.748 361 103l1.374 2.801q2.26 4.627 4.501 9.261l1.446 2.96c5.604 11.653 7.937 23.644 4.554 36.415-2.257 6.223-5.57 11.556-10.581 15.919-5.555 5.013-8.83 8.941-9.494 16.561-.165 4.538-.096 9.053.012 13.59q.01 2.966.002 5.931c0 5.176.063 10.349.142 15.524.115 8.286.13 16.573.152 24.86.017 2.878.057 5.754.102 8.63.199 17.392.199 17.392-3.21 24.548l-1 1c-1.114 11.214 1.23 22.732 2.75 33.813q.413 3.076.825 6.154.821 6.135 1.651 12.27a2274 2274 0 0 1 2.308 17.653l.779 6.11q.46 3.625.925 7.25l.377 2.953c.405 2.943.896 5.867 1.385 8.797.472 3.026.394 4.83 0 8-2.35 2.201-4.055 3.44-6.812 4.938l-2.182 1.26A253 253 0 0 1 344 394l-2.236 1.193C311.816 410.923 282.374 415.206 249 415v-32l9.188-.312c12.678-.586 26.998-1.838 36.492-11.375C296 370 296 370 298 370l.844-1.723c1.546-3.045 3.245-5.995 4.937-8.96 3.02-5.739 4.07-11.35 5.156-17.692l1.067-5.937a536 536 0 0 0 1.71-10.188c2.528-14.836 10.139-20.594 21.821-29.414 6.602-5.004 11.242-8.527 12.465-17.086.902-1.793.902-1.793 2-3.625 3.195-5.392 3.149-9.975 3.145-16.147l.01-2.682q.013-4.39.013-8.78l.01-6.114q.009-6.41.007-12.82c0-5.466.014-10.931.031-16.396q.015-6.315.013-12.632 0-3.021.013-6.042c.01-2.824.007-5.648 0-8.472.007-.825.012-1.65.018-2.5-.028-5.256-.835-9.73-2.26-14.79-.607-4.15.537-6.372 2.832-9.863 6.093-11.147 5.819-23.435 2.345-35.42-1.364-4.314-2.855-8.578-4.365-12.842q-.95-2.781-1.893-5.566-1.951-5.752-3.934-11.493c-2.93-8.534-5.678-17.126-8.44-25.716q-2.04-6.336-4.096-12.666l-.711-2.207C329.55 48.542 329.55 48.542 328 45c-.513 21.376.39 42.659 1.5 64l.109 2.091Q330.284 124.046 331 137c-3.554-1.382-6.695-2.924-9.937-4.937-6.08-3.688-10.866-6.343-18.063-7.063.561-6.167 1.584-11.857 3.25-17.812l1.379-5.094.704-2.594c1.003-3.758 1.927-7.535 2.854-11.312 2.371-9.583 4.868-19.132 7.372-28.68q.69-2.63 1.377-5.26.975-3.722 1.955-7.443l.599-2.296c1.395-5.28 1.395-5.28 2.51-7.509"/><path fill="#fca205" d="M133 380c2.629 1.263 5.041 2.63 7.441 4.285C163.334 399.778 188.764 409.351 216 414l3.64.68c47.127 7.446 100.919-3.529 139.842-31.327A421 421 0 0 0 364 380c4.096 3.64 5.683 8.498 7.813 13.438l1.31 2.892 1.209 2.791 1.116 2.545C376 404 376 404 375.302 406.16c-2.16 3.05-5.337 4.702-8.49 6.589l-2.183 1.326A628 628 0 0 1 358 418l-1.85 1.096C331.432 433.583 298.885 445 270 445c.07.75.14 1.5.21 2.273.432 8.149-.88 13.456-6.21 19.727-4.313 4.332-8.461 5.346-14.5 5.625-6.991-.291-11.096-2.29-16.023-7.117-4.75-5.3-5.703-9.64-5.645-16.52C228 447 228 447 229 445l-3.242-.227C189.05 441.784 152.136 428.791 123 406c2.298-9.105 6.14-17.477 10-26"/><path fill="#282f38" d="M129 411c4.33 1.67 8.246 3.797 12.25 6.125C168.784 432.778 197.724 440.472 229 445l-.125 2.31c-.303 6.51.326 11.302 4.125 16.69l1.637 1.406C236 467 236 467 236 472l13 3v23c-36.5.805-71.085-7.391-104-23l-2.167-1.025A358 358 0 0 1 129 467l-3.441-1.812-3.059-1.75-2.656-1.504C118 460 118 460 117.734 456.996c.135-4.791 1.418-9.266 2.672-13.867l.74-2.795c.777-2.926 1.565-5.849 2.354-8.772l1.59-5.974Q127.033 418.29 129 411"/><path fill="#fcc505" d="M133 380c2.629 1.263 5.041 2.63 7.441 4.285 13.79 9.327 28.15 16.682 44.067 21.645L187 407l1 3c2.817 1.81 5.479 2.388 8.766 2.852l2.695.39 2.789.383 2.836.406q3.456.494 6.914.969v2l2.161-.03c7.717-.062 15.336.294 23.027.905l3.423.238 3.244.254 2.927.222L249 419c1.203 2.405 1.1 3.95 1.063 6.625l-.028 2.477L250 430l-1.941.48c-5.733 1.547-10.795 3.245-15.059 7.52l-1.687 3.152C229 444 229 444 225.367 444.578c-1.5-.07-2.998-.182-4.492-.328l-2.488-.193C184.517 440.824 149.763 426.935 123 406c2.298-9.105 6.14-17.477 10-26"/><path fill="#46464e" d="M172 37c2.062 3.092 2.801 5.404 3.77 8.969l.997 3.642 1.046 3.889 1.08 3.973Q180.458 63.233 182 69l.796 2.967a1468 1468 0 0 1 7.224 28.166 348 348 0 0 0 2.117 7.984l.564 2.038c.515 1.849 1.04 3.695 1.565 5.54.715 3.222.874 6.019.734 9.305l-2.055.48c-8.971 2.25-16.9 5.385-23.945 11.52h-1c-.306-16.909.33-33.71 1.143-50.595.677-14.15 1.146-28.236.857-42.405l-.544 1.632-3.77 11.316a6317 6317 0 0 1-5.829 17.43 4908 4908 0 0 0-9.125 27.406 4158 4158 0 0 1-2.149 6.485c-1.3 3.924-2.568 7.858-3.833 11.793l-1.16 3.49c-3.776 11.93-3.455 21.834 1.41 33.448 1.39 2.043 1.39 2.043 2.875 3.75C150 164 150 164 149.906 166.137c-.531 2.3-.531 2.3-1.195 4.36-1.835 6.463-1.854 13.099-1.825 19.765v2.693q.002 4.366.016 8.732l.005 6.087q.006 7.98.024 15.96.014 8.154.02 16.309.016 15.978.049 31.957h-1c-1.116-4.42-1.076-8.69-.97-13.212l.088-5.058.051-2.695c.085-4.733.131-9.467.183-14.201.066-6.013.143-12.026.272-18.038.103-4.87.162-9.737.191-14.606q.028-2.772.106-5.544c.537-12.246.537-12.246-5.267-22.628A142 142 0 0 0 136 172c-9.776-10.466-12.552-19.783-12.309-34.168.788-9.784 4.716-18.106 9.196-26.71 2.638-5.077 5.044-10.263 7.488-15.434A589 589 0 0 1 155 67l1.54-2.855c1.473-2.723 2.964-5.435 4.46-8.145l1.21-2.197q2.048-3.715 4.102-7.428l1.35-2.447 1.264-2.28 1.138-2.057C171 38 171 38 172 37"/><path fill="#30353e" d="M325 37c3.986 4.531 6.666 9.588 9.5 14.875l1.577 2.918C344.654 70.72 353.055 86.748 361 103l1.374 2.801q2.26 4.627 4.501 9.261l1.446 2.96c5.604 11.653 7.937 23.644 4.554 36.415-2.257 6.223-5.57 11.556-10.581 15.919-5.555 5.013-8.83 8.941-9.494 16.561-.165 4.538-.096 9.053.012 13.59q.01 2.966.002 5.931c0 5.176.063 10.349.142 15.524.115 8.286.13 16.573.152 24.86.017 2.878.057 5.754.102 8.63.1 8.685.129 16.38-3.21 24.548q-.619 2.055-1.187 4.125L348 287l-1-2h-2c.361-3.701 1.113-6.46 3-9.625 3.195-5.392 3.149-9.975 3.145-16.147l.01-2.682q.013-4.39.013-8.78l.01-6.114q.009-6.41.007-12.82c0-5.466.014-10.931.031-16.396q.015-6.315.013-12.632 0-3.021.013-6.042c.01-2.824.007-5.648 0-8.472.007-.825.012-1.65.018-2.5-.028-5.256-.835-9.73-2.26-14.79-.607-4.15.537-6.372 2.832-9.863 6.093-11.147 5.819-23.435 2.345-35.42-1.364-4.314-2.855-8.578-4.365-12.842q-.95-2.781-1.893-5.566-1.951-5.752-3.934-11.493c-2.93-8.534-5.678-17.126-8.44-25.716q-2.04-6.336-4.096-12.666l-.711-2.207C329.55 48.542 329.55 48.542 328 45c-.513 21.376.39 42.659 1.5 64l.109 2.091Q330.284 124.046 331 137c-3.554-1.382-6.695-2.924-9.937-4.937-6.08-3.688-10.866-6.343-18.063-7.063.561-6.167 1.584-11.857 3.25-17.812l1.379-5.094.704-2.594c1.003-3.758 1.927-7.535 2.854-11.312 2.371-9.583 4.868-19.132 7.372-28.68q.69-2.63 1.377-5.26.975-3.722 1.955-7.443l.599-2.296c1.395-5.28 1.395-5.28 2.51-7.509"/><path fill="#222931" d="M250 260c24 0 24 0 32 4 2.705 2.917 3.818 6.232 4.223 10.168-.366 8.269-5.716 15.931-11.223 21.832h-2l-.687 1.688c-1.748 3.08-3.572 5.058-6.313 7.312-3.812.813-3.812.813-7 1v2h-4l1 36 8 1c1.905.646 3.81 1.3 5.672 2.059a139 139 0 0 0 5.406 2.039c7.042 2.546 12.867 5.532 18.922 9.902l2.875 1.688c2.032 1.254 3.529 2.548 5.125 4.312-3.152 4.413-6.555 7.008-11 10v-2c-13.337-6.873-26.047-10.01-41-13z"/><path fill="#5a6474" d="M327 43c3.29 3.682 4.446 7.775 5.898 12.39l.823 2.548c.893 2.768 1.774 5.54 2.654 8.312q1.873 5.865 3.75 11.73l.964 3.023a929 929 0 0 0 6.724 20.11q1.35 3.96 2.695 7.922a452 452 0 0 0 1.735 4.964c4.814 13.539 7.837 27.351 2.257 41.126-.8 1.641-1.621 3.274-2.5 4.875h-3c-1.578-1.836-1.578-1.836-3.25-4.375l-1.836-2.75L342 150a1912 1912 0 0 0-5.617-7.773c-1.323-2.13-1.947-3.777-2.383-6.227h-2c-2.12-3.18-2.3-4.257-2.502-7.942l-.182-3.067-.168-3.339-.193-3.48c-.204-3.744-.393-7.49-.58-11.234l-.2-3.83C327.13 83.057 326.572 63.075 327 43"/><path fill="#21262d" d="M172 37c2.062 3.092 2.801 5.404 3.77 8.969l.997 3.642 1.046 3.889 1.08 3.973Q180.458 63.233 182 69l.796 2.967a1468 1468 0 0 1 7.224 28.166 348 348 0 0 0 2.117 7.984l.564 2.038c.515 1.849 1.04 3.695 1.565 5.54.715 3.222.874 6.019.734 9.305l-2.055.48c-8.971 2.25-16.9 5.385-23.945 11.52h-1c-.264-19.513.408-38.956 1.227-58.447q.268-6.41.517-12.821.198-4.974.405-9.95.096-2.367.19-4.736.13-3.269.272-6.536l.155-3.749C171 38 171 38 172 37"/><path fill="#4a5160" d="M291 373v2a286 286 0 0 1-4 2.375c-.743.44-1.485.882-2.25 1.336-7.237 3.392-14.263 3.597-22.117 3.59l-3.257.013q-3.396.008-6.793.002c-3.44-.003-6.88.02-10.321.045q-3.315.004-6.63.002l-3.08.028C222.94 382.33 215.12 380.12 207 375v-2h2v-2c4.569-2.704 9.07-4.992 14-7l2.297-1.016c20.499-7.464 48.272-2.63 65.703 10.016"/><path fill="#fc9103" d="m260.25 433.25 3.14 1.828c2.703 1.99 3.683 2.751 4.61 5.922.218 2.672.325 5.206.313 7.875l.048 2.105c.005 4.757-.941 7.947-3.361 12.02h-2l-1 3h-2v2h-2v3c-4.454 2.227-10.167 1.498-15 1-6.504-2.395-10.949-7.386-14.312-13.312-1.107-4.324-1.73-9.603.312-13.688l-13-1v-1l2.633.281c6.596.684 6.596.684 12.32-1.922a86 86 0 0 0 2.727-4.316c2.664-4.122 6.7-5.646 11.382-6.793 6.208-.528 9.722-.269 15.188 3"/><path fill="#1b1f25" d="M326 43h1l.044 2.169c.467 21.337 1.434 42.643 2.519 63.956l.106 2.086Q330.325 124.106 331 137c-3.554-1.382-6.695-2.924-9.937-4.937-6.08-3.688-10.866-6.343-18.063-7.063v-3h2l.25-3.312c.568-4.643 2.11-8.733 3.766-13.086 1.718-4.542 2.954-8.901 3.421-13.727C313 88 313 88 314.442 85.699c1.877-3.25 2.407-6.071 3.059-9.761q.367-2.006.742-4.008l.374-2.005c.562-2.817 1.281-5.585 2.009-8.362.874-3.353 1.553-6.552 1.875-10 .508-3.623 1.32-5.658 3.5-8.563"/><path fill="#3e4450" d="M250 360c14.401 1.297 29.224 3.98 41 13v2a286 286 0 0 1-4 2.375c-.743.44-1.485.882-2.25 1.336-7.664 3.592-14.935 3.543-23.25 3.414l-3.36-.027c-2.713-.024-5.427-.06-8.14-.098z"/><path fill="#20272e" d="M171 199q5.974-.186 11.95-.275c2.014-.037 4.026-.1 6.038-.164 6.788-.086 11.95-.044 17.594 3.966 2.822 2.932 3.4 5.306 3.856 9.348-.099 4.792-2.08 6.847-5.438 10.125-3.964 1.982-8.689 1.546-13 1-2.75-2.062-2.75-2.062-5-5a209 209 0 0 0-3.375-3.312c-9.792-9.814-9.792-9.814-12.625-15.688"/><path fill="#fa7c03" d="M249 431c5.462-.147 8.29.246 12.875 3.313l2.867 1.863C267 438 267 438 268 441c.148 2.619.231 5.193.25 7.813l.063 2.119c.035 4.791-.866 7.967-3.313 12.068h-2l-1 3h-2v2h-2v2l-11 1c0-3 0-3 1-6 .153-2.583.257-5.145.316-7.73l.063-2.274q.097-3.593.184-7.183l.13-4.874q.16-5.97.307-11.939"/><path fill="#181e24" d="m304.418 198.902 3.799.01 3.97.025q2.004.008 4.006.014 4.904.018 9.807.049l-1.156 1.316a153 153 0 0 0-9.281 11.809c-7.675 10.208-7.675 10.208-14.043 11.3-4.283.222-6.805.007-10.52-2.238-3.48-3.806-4.35-6.08-4.18-11.261.236-2.522.602-3.918 2.18-5.926 5.32-3.962 8.854-5.127 15.418-5.098"/><path fill="#d3642a" d="M173 37h2l.586 2.152.789 2.785.773 2.778c.619 2.452.619 2.452 2.852 3.285.563 2.145.563 2.145 1 4.813.607 3.688.607 3.688 2.004 7.12 1.321 2.741 1.559 5.303 1.934 8.317.651 4.603 1.564 8.536 3.34 12.809 2.495 6.705 3.135 14.246 4.257 21.277.421 2.604.421 2.604 1.024 4.89C194 109 194 109 194 111h2v11l104-1 1-8 3-1-.125-2.187c.125-2.813.125-2.813 1.063-5 1.572-4.162 1.736-8.4 2.062-12.813l3-1 1-11h2c-.604 6.57-1.74 12.786-3.312 19.188l-.608 2.556c-1.811 7.497-3.956 14.823-6.08 22.256H196c-2.109-6.326-4.107-12.599-5.937-19l-.725-2.48c-1.566-5.464-2.925-10.96-4.201-16.497-2.4-10.388-5.246-20.647-8.084-30.922q-1.007-3.655-2.006-7.312l-.625-2.244C173.618 42.603 173 40.065 173 37"/><path fill="#32333c" d="M325 37c3.986 4.531 6.666 9.588 9.5 14.875l1.577 2.918C344.657 70.723 352.974 86.784 361 103l1.105 2.145 1.114 2.171 1.029 1.987C365 111 365 111 365 113h-2l-5.684-11.367-.9-1.8-1.833-3.673a499 499 0 0 0-3.923-7.734C348 83.304 348 83.304 348 80h-2l-1 2-5-1q-2.57-7.635-5.127-15.271-.87-2.6-1.746-5.197-1.255-3.73-2.502-7.462l-.795-2.355C328 45.228 328 45.228 328 43h-2l-.437 1.938C325 47 325 47 324 48c-.495 2.81-.947 5.617-1.375 8.438-.942 5.95-2.034 11.652-3.937 17.382-.96 3.044-1.564 6.137-2.16 9.27C316 85 316 85 314 88a85 85 0 0 0-.937 5.563c-1.092 7.06-2.797 13.706-5.688 20.25-1.203 2.789-1.922 5.2-2.375 8.187h-2l.664-2.586a893 893 0 0 0 5.408-22.52c3.047-13.453 6.491-26.763 10.153-40.06 1.39-5.08 2.717-10.176 4.048-15.272C324 39 324 39 325 37"/><path fill="#d77139" d="M451 105c3.323 3.057 5.556 6.26 7.875 10.125l1.06 1.764L463 122l1.5 2.336c9.319 14.667 16.09 31.2 21.5 47.664l.796 2.417c3.501 10.875 5.984 21.844 8.017 33.083l.627 3.469c2.25 13.1 2.796 26.141 2.81 39.406l.004 2.244c-.007 18.147-2.31 35.675-6.254 53.381h-1c-.212-5.928.212-11.625.938-17.5l.263-2.178c.672-5.195.672-5.195 1.799-6.322 2.098-9.68 2.404-19.457 2.625-29.312q.057-2.152.117-4.303.142-5.193.258-10.385h-2l-.148-3.7c.476-15.572.476-15.572-3.852-29.3a168 168 0 0 1-.562-6.562l-.254-3.63L490 190h-2c-1.354-2.709-1.065-5.01-1-8h-2c-.23-.871-.461-1.743-.7-2.64-2.213-8.086-4.93-15.67-8.3-23.36l-1.023-2.715c-.87-2.426-.87-2.426-2.977-4.285-.816-1.84-.816-1.84-1.562-3.937-.25-.69-.498-1.38-.754-2.09A444 444 0 0 1 468 138l-2-1c-1.288-2.737-2.06-5.285-2.687-8.25-1.51-4.311-3.691-6.912-6.56-10.402C453.969 114.619 451 109.78 451 105"/><path fill="#d7b73c" d="M133 380c4.167 2.008 7.91 4.497 11.75 7.063l2.113 1.392A236 236 0 0 1 152 392v1c-3.625.201-5.865-.142-9-2v-3h-3v-2h-2v-2h-4l-.77 1.941c-1.585 3.984-3.168 7.957-4.917 11.872-1.144 2.776-1.865 5.23-2.313 8.187l2.25.813C131 408 131 408 132.938 409.5c2.54 1.847 5.067 2.615 8.062 3.5v2h3v2l5 1v2l6 1v2h3l1 2c5.671 2.532 10.824 3.585 17 4v2l2.008.379c3.647.757 7.255 1.65 10.867 2.558l2.066.514A357 357 0 0 1 204 438v2l12 1-2 2c-31.929-1.75-66.131-17.519-91-37 2.298-9.105 6.14-17.477 10-26"/><path fill="#dd6629" d="M8 193h1c.352 15.917.352 15.917-1.402 22.38-3.158 13.837-2.848 28.086-2.723 42.183q.016 2.991.027 5.982Q4.936 270.773 5 278h2l.402 3.21.535 4.165.264 2.117c.462 3.876.462 3.876 1.799 7.508.205 1.36.366 2.728.5 4.098l.25 2.427.5 5.086c.046 4.024.046 4.024 1.75 7.389.072 1.52.084 3.042.063 4.563l-.028 2.503L13 323c-1.97-2.954-2.595-4.808-3.402-8.207l-.756-3.178A964 964 0 0 1 5 294l-.57-2.7C-.914 264.664-.172 233.583 5 207l.437-2.279C6.205 200.791 7.049 196.89 8 193"/><path fill="#3e414b" d="M170 39c1.276 3.828.478 5.111-.914 8.855l-1.3 3.556-1.411 3.776c-3.428 9.28-6.643 18.525-9.145 28.102C156 86 156 86 153.55 87.461 151 88 151 88 148 87l-.375 1.813C147 91 147 91 145 94h-2v6h-3l-.875 2.438C138 105 138 105 136 106a77 77 0 0 1 4.758-11.746l1.633-3.263 1.734-3.428 1.785-3.546c4.244-8.406 8.563-16.76 13.09-25.017l1.401-2.56Q165.186 47.714 170 39"/><path fill="#e36523" d="m108 44 2 1-1.481 1.19q-3.359 2.71-6.707 5.435l-2.33 1.871c-7.769 5.875-7.769 5.875-11.92 14.191L87 70a100 100 0 0 1-6 3c-4.377 3.174-7.323 6.284-10 11-2.629 2.382-3.388 3-7 3l-.875 1.875C62 91 62 91 60 93c-.643 2.069-.643 2.069-1 4h-2v4a263 263 0 0 1-5 4c-.633 2.113-.633 2.113-1 4l-3 1c-1.478 2.957-1.06 5.742-1 9l-3 1c-1.862 1.982-1.862 1.982-3.625 4.375l-1.852 2.398c-1.678 2.235-1.678 2.235-2.523 5.227-2.062.688-2.062.688-4 1 1.583-6.148 4.924-11.09 8.313-16.375l1.88-2.946c5.222-8.041 10.96-15.473 17.191-22.747 1.853-2.215 3.62-4.489 5.397-6.764 4.288-5.377 8.969-10.261 13.844-15.106l2.639-2.632c6.851-6.746 14-12.743 21.736-18.43a587 587 0 0 0 5-4"/><path fill="#4b3029" d="M369 122c6.26 7.88 5.597 17.427 5 27-1.327 8.405-5.27 15.753-11.706 21.356-5.555 5.013-8.83 8.941-9.494 16.561-.165 4.538-.096 9.053.012 13.59q.01 2.966.002 5.931c0 5.176.063 10.349.142 15.524.115 8.286.13 16.573.152 24.86.017 2.878.057 5.754.102 8.63.1 8.685.129 16.38-3.21 24.548q-.619 2.055-1.187 4.125L348 287l-1-2h-2c.361-3.701 1.113-6.46 3-9.625 3.159-5.33 3.122-9.727 3.047-15.824l-.038-5.291-.024-2.83c-.042-6-.03-12-.03-18.001-.003-5.265-.023-10.53-.082-15.794a956 956 0 0 1-.035-15.303q.002-2.905-.05-5.809c-.285-16.725-.285-16.725 4.822-22.74 2.016-2.064 4.181-3.929 6.39-5.783l1-2h2c2.376-6.959 4.257-13.048 4.195-20.465l-.008-2.055c-.011-2.14-.036-4.278-.062-6.417q-.016-2.193-.027-4.385-.035-5.34-.098-10.678"/><path fill="#d3622a" d="M132 168c1.687 1.377 3.364 2.769 4.99 4.217 1.948 1.776 1.948 1.776 3.905 3.207 3.615 3.203 4.97 5.68 5.695 10.501.264 5.023.117 10.038-.012 15.063q-.03 2.802-.051 5.604c-.044 4.907-.127 9.813-.221 14.719-.146 7.84-.24 15.68-.318 23.521a913 913 0 0 1-.148 8.167c-.166 10.017-.065 19.134 4.89 28.15 1.798 4.036 1.218 7.188.583 11.476l-.31 2.386A385 385 0 0 1 148 314h-1c-.293-7.064.427-13.73 1.563-20.703.611-4.61.813-8.824-.563-13.297h-2c-4.004-10.022-3.38-20.051-3.293-30.664q.009-3.006.013-6.01c.011-5.245.04-10.489.074-15.733.03-5.363.044-10.726.06-16.09q.05-15.75.146-31.503h-4v-4l-3-1c-4-4.457-4-4.457-4-7"/><path fill="#df6628" d="M58 407c1.938.313 1.938.313 4 1l1 3c2.015.733 2.015.733 4 1v3l3 1c.688 2.063.688 2.063 1 4h2l1 2 3 1c1.188 2.063 1.188 2.063 2 4h2c2.625 2.313 2.625 2.313 5 5v3h4a141 141 0 0 1 5 5l2.813 1.688L100 443v2h3l1.313 2.313c2.123 3.381 3.973 4.323 7.687 5.687 2.147-.379 2.147-.379 4-1l.586-3.254.789-4.308.383-2.135c.835-4.53 1.91-8.893 3.242-13.303h3l1-3c-.696 6.963-2.355 13.394-4.271 20.11-1.22 4.42-2.022 8.254-1.729 12.89-14.634 0-34.923-23.222-45-33l-2.809-2.687c-4.871-4.75-9.5-9.566-13.191-15.313z"/><path fill="#c94f23" d="M373 149h1c.92 10.303-4.738 15.869-10.937 23.605C361 175 361 175 358.409 177.13c-3.099 3.692-3.1 6.578-3.02 11.186l-.018 2.5c-.013 2.726.007 5.45.027 8.176q-.007 2.861-.024 5.723c-.023 5.028-.018 10.056-.006 15.084q.026 12.016-.026 24.033c-.006 2.777.007 5.555.022 8.332.005 10.333-.842 19.79-3.364 29.836h-3q.212 2.438.438 4.875c.08.905.162 1.81.246 2.742.186 2.394.186 2.394 1.316 4.383.071 2.374.084 4.75.063 7.125l-.028 3.883L351 308h-1c-3.794-24.796-3.794-24.796 1-34 1.265-4.168 1.122-8.287 1.094-12.605l-.008-5.39-.009-2.882c-.011-5.041.01-10.083.025-15.125.018-6.413.027-12.825-.002-19.238-.023-5.185-.011-10.37.023-15.555a463 463 0 0 0-.018-5.92c-.024-2.765-.005-5.527.024-8.292l-.052-2.455c.103-4.723.937-7.03 4.318-10.409q1.8-1.567 3.605-3.129c6.14-7.384 11.533-14.319 13-24"/><path fill="#e9650a" d="M146 314h1c.38 7.966-1.055 15.665-2.312 23.5q-.698 4.427-1.383 8.855l-.345 2.222c-1.182 7.714-2.128 15.454-2.971 23.212l-.313 2.73-.253 2.347c-.459 2.314-1.28 4.08-2.423 6.134l-4-3-.316 1.543c-1.122 4.03-2.824 7.846-4.424 11.705-1.715 4.2-3.086 8.37-4.26 12.752l6 4-4 16h-1c-.236-5.778.132-10.513 2-16l-4-1c-1.118-5.397-.807-8.694 1.188-13.812l1.398-3.653L127 388l1.227-3.129A507 507 0 0 1 131 378h6l.076-1.956q.176-4.398.362-8.794l.119-3.078.127-2.969.11-2.73c.19-2.274.627-4.274 1.206-6.473-.008-2.464-.127-4.907-.258-7.367.258-2.633.258-2.633 1.735-5.488 1.802-3.72 1.922-6.468 2.023-10.582.26-5.617.754-9.668 3.5-14.563"/><path fill="#382208" d="M322 435c-1 2-1 2-3.625 2.965-1.114.32-2.228.642-3.375.973-4.52 1.288-4.52 1.288-8.969 2.8-6.739 2.495-13.472 3.228-20.594 3.95l-3.634.392q-4.4.474-8.803.92l-.297 3.324q-.225 2.183-.453 4.363l-.187 2.186c-.526 4.795-1.468 7.646-5.063 11.127l-3 1-1.937 1.938c-3.178 3.177-4.984 4.048-9.56 4.109l-3.94-.297-3.934-.266c-3.246-.433-5.686-1.1-8.629-2.484l1-4 2.188 1.5c5.178 2.583 11.204 2.177 16.812 1.5 2.495-1.07 3.922-2.203 6-4h2l.813-1.625C266 463 266 463 267.563 460.5c1.435-3.496 1.762-5.983 2.027-9.719l.242-3.279L270 445l2.221-.364c13.935-2.31 27.648-4.808 41.2-8.844l2.556-.753 2.22-.681C320 434 320 434 322 435"/><path fill="#4f2614" d="M152 286h1c.625 13.905-.642 27.454-4 41l-1 1c-.21 1.787-.368 3.58-.5 5.375-.232 3.145-.499 5.621-1.5 8.625-.458 3.21-.862 6.42-1.25 9.639-.648 5.157-.648 5.157-1.75 7.361-.47 3.026-.776 5.95-1 9l-.344 3.977c-.757 7.52-.757 7.52 2.094 14.093 2.045 1.22 4.041 2.061 6.25 2.93l1 2c-2-.625-2-.625-5-2l-2.184-.871c-2.728-1.443-4.131-2.522-5.816-5.129-.258-4.943.663-9.566 1.56-14.416.607-3.562.98-7.137 1.367-10.73 1.787-16.467 4.458-32.813 7.04-49.17a788 788 0 0 0 2.601-18.088C151 288 151 288 152 286"/><path fill="#d24c12" d="M351 308h1c2.477 10.705 3.61 21.033 4 32h2c.904 6.223 1.74 12.454 2.563 18.688l.42 3.126.396 3.01.361 2.722C362 370 362 370 362 374l2 1c.625 2.063.625 2.063 1 4h3l.813 2.813c.902 3.112.902 3.112 2.66 4.628 4.72 4.818 5.022 13.196 5.527 19.559-2.198-2.198-2.914-3.862-4.094-6.719l-1.183-2.824-2.446-5.914-1.183-2.824-1.073-2.596c-.948-2.27-.948-2.27-3.021-4.123l-4 2c-2.273-13.524-4.036-27.073-5.612-40.695-.401-3.417-.82-6.832-1.243-10.246l-.422-3.424q-.4-3.245-.809-6.489c-.58-4.745-1.085-9.355-.914-14.146"/><path fill="#de5f1c" d="M173 37h2l.586 2.152.789 2.785.773 2.778c.619 2.452.619 2.452 2.852 3.285.563 2.145.563 2.145 1 4.813.607 3.688.607 3.688 2.004 7.12 1.321 2.741 1.559 5.303 1.934 8.317.651 4.603 1.564 8.536 3.34 12.809 2.495 6.705 3.135 14.246 4.257 21.277.421 2.604.421 2.604 1.024 4.89C194 109 194 109 194 111h2v9c-2-1-2-1-2.714-2.97l-.653-2.596-.746-2.916-.762-3.08-.738-2.905c-1.117-4.404-2.211-8.814-3.292-13.228-2.743-11.162-5.824-22.219-8.967-33.275q-.997-3.516-1.983-7.034l-.61-2.125C174.333 45.577 173.538 41.414 173 37"/><path fill="#e6c033" d="M187 408c4.788.942 9.568 1.9 14.332 2.953 29.95 6.593 61.903 8.075 91.883.535 2.718-.476 4.22-.409 6.785.512-5.26 2.814-9.779 3.956-15.668 4.5l-2.68.249-2.84.251-2.957.263c-21.529 1.868-42.35 2.096-63.855-.263v-2l-1.757-.136c-2.644-.212-5.287-.444-7.93-.676l-2.764-.213c-8.745-.795-8.745-.795-12.549-3.975z"/><path fill="#f5a316" d="M369 408c-.598 3.636-.879 3.912-4.113 6.262q-2.085 1.236-4.2 2.425L358.399 418C342.507 426.913 324.302 435.895 306 438c1.125-2.5 1.125-2.5 3-5 2-.049 4-.036 6 0 2.578-.884 5.042-1.928 7.535-3.027 2.484-.98 4.838-1.528 7.465-1.973l-2-4 3 .625c4.41.644 7.75-.37 12-1.625q1.998-.51 4-1v-2l1.688-.687c2.496-1.276 2.496-1.276 4.687-3.75C357.23 411.799 363.415 408 369 408"/><path fill="#471b08" d="M325 37h1q.079 2.187.125 4.375l.07 2.46C326 46 326 46 324 48c-.56 2.84-1.029 5.638-1.437 8.5-.913 5.939-1.977 11.604-3.875 17.32-.96 3.044-1.564 6.137-2.16 9.27C316 85 316 85 314 88a85 85 0 0 0-.937 5.563c-1.092 7.06-2.797 13.706-5.688 20.25-1.203 2.789-1.922 5.2-2.375 8.187h-2l.664-2.586a893 893 0 0 0 5.408-22.52c3.047-13.453 6.491-26.763 10.153-40.06 1.39-5.08 2.717-10.176 4.048-15.272C324 39 324 39 325 37"/><path fill="#e5480c" d="M363 172c0 3.898-1.547 5.422-3.809 8.477-3.748 7.94-2.338 18.436-2.324 27.066q0 2.246-.003 4.492-.002 4.684.006 9.367.006 5.986-.004 11.973a4601 4601 0 0 0 0 9.258q0 2.207-.002 4.414-.003 3.087.007 6.172l.002 3.538c.124 3.162.596 6.129 1.127 9.243-.627 2.675-1.692 4.53-3 7l-2 1 .487-2.951c.608-4.282.687-8.51.718-12.83l.03-2.574q.047-4.18.081-8.36l.063-5.822q.082-7.635.153-15.274.077-7.802.161-15.605.162-15.293.307-30.584l3-1a89 89 0 0 0 2-4c1.625-1.75 1.625-1.75 3-3"/><path fill="#2d2f25" d="M181 436c7.66 1.347 15.269 2.876 22.875 4.5 8.348 1.764 16.661 3.392 25.125 4.5l-.14 2.125c-.33 8.639 1.606 14.234 7.14 20.875-4.186-1.794-6.934-4.188-9.25-8.125-1.13-4.329-.87-8.409-.75-12.875h-14v-1l-2.344-.367c-5.975-.962-11.812-2.06-17.656-3.633v-2l-3.25-.437c-2.667-.4-5.164-.839-7.75-1.563z"/><path fill="#c04e23" d="M330 43c2.538 1.27 2.894 2.416 4.125 4.938l1.07 2.152C336 52 336 52 336 54l3 1c1.098 2.25 1.098 2.25 2.063 5 1.075 3.76 1.075 3.76 3.937 6 1.882 3.032 2 4.245 2 8l4-1c.182.675.364 1.35.55 2.047.252.892.504 1.784.762 2.703l.739 2.672c.979 2.66 2.23 4.35 3.949 6.578.879 2.105.879 2.105 1.563 4.188.64 2.062.64 2.062 1.437 3.812l2 1c.887 2.617.887 2.617 1.688 5.875l.824 3.242C365 108 365 108 364 111l-1.582-3.453c-4.458-9.624-9.209-18.996-14.389-28.25-3.284-5.884-6.348-11.841-9.305-17.894-2.303-4.677-4.862-9.11-7.693-13.485C330 46 330 46 330 43"/><path fill="#e74b0e" d="M365 111c2.923 1.035 3.925 1.88 5.598 4.547 7.364 16.104 8.356 27.785 3.402 44.453l2 1c-1.187 2.438-1.187 2.438-3 5-2.687.813-2.687.813-5 1v4l-4 1c1.5-3.411 3.567-6.248 5.781-9.219 3.869-5.654 3.586-10.648 3.594-17.344l.074-3.134c.039-10.258-3.413-18.376-7.715-27.526C365 113 365 113 365 111"/><path fill="#de470d" d="M374 427c3.55 3.905 4.818 6.977 6 12h3l-.562 3.25c-.368 3.154-.483 4.848.562 7.75l1.75-.687c2.25-.313 2.25-.313 4.5 1.125L391 452v-2c2.974-1.24 5.853-2.3 9-3-3.56 3.821-7.246 6.646-11.75 9.313l-1.785 1.087c-4.308 2.6-4.308 2.6-5.465 2.6l-.77-3.332q-.52-2.24-1.043-4.48l-.545-2.345a268 268 0 0 0-4.126-15.546c-.56-2.496-.606-4.747-.516-7.297"/><path fill="#47261a" d="M129 411c3.082 1.186 5.982 2.454 8.848 4.094l2.084 1.183 2.13 1.223q2.111 1.205 4.223 2.406l1.871 1.073c1.922 1.064 3.873 2.052 5.844 3.021v2h-3v-2l-2.875-.625c-4.383-1.22-7.912-3.563-11.695-6.035-2.515-1.387-4.603-1.933-7.43-2.34l.105 1.809c.193 6.164-.385 12.006-1.417 18.066l-.357 2.197c-.769 4.246-1.942 7.354-4.331 10.928l-1 3h-2v4h-2c3.35-14.748 7.165-29.372 11-44"/><path fill="#fde6d2" d="M4 207h1q-.216 2.938-.437 5.875l-.247 3.305a324 324 0 0 1-.823 8.472c-.493 4.922-.67 9.794-.696 14.739l-.02 2.605q-.024 4.126-.027 8.254l-.008 2.834c-.017 12.613.439 24.752 2.7 37.19.498 3.329.484 4.667-.442 7.726v-3H3l-1-12H0c-.409-44.937-.409-44.937 1.734-62.7.398-3.443.69-6.896.987-10.349C3 208 3 208 4 207"/><path fill="#4d1708" d="M346 285c2.758 2.758 2.615 4.875 3.148 8.727l.296 2.084c.319 2.27.625 4.542.931 6.814l.653 4.722c.672 4.882 1.324 9.767 1.972 14.653l.314 2.354q.884 6.631 1.734 13.267.262 2.048.528 4.095c.879 6.798 1.657 13.425 1.424 20.284-3.02-3.02-2.467-6.564-2.625-10.625l-.117-2.43A860 860 0 0 1 354 343h-2c-1.234-4.77-1.113-9.425-1.062-14.312l.013-2.534q.02-3.077.049-6.154h-2l-.168-1.988a4121 4121 0 0 0-.77-8.887l-.263-3.129-.264-2.988-.238-2.761c-.177-2.279-.177-2.279-1.297-4.247-.07-1.874-.084-3.75-.062-5.625l.027-3.04z"/><path fill="#414149" d="M170 39c1.319 3.956.335 5.53-1.09 9.418l-.677 1.87a947 947 0 0 1-2.17 5.9q-.731 2.002-1.46 4.005Q162.816 65.101 161 70h-4l-3 9-5 1c1.373-4.52 3.185-8.476 5.438-12.625l1.025-1.897A1506 1506 0 0 1 159 59l1.45-2.647A5832 5832 0 0 1 170 39"/><path fill="#fdac17" d="M133 380c4.167 2.008 7.91 4.497 11.75 7.063l2.113 1.392A236 236 0 0 1 152 392v1c-3.625.201-5.865-.142-9-2v-3h-3v-2h-2v-2h-4l-.77 1.941c-1.585 3.984-3.168 7.957-4.917 11.872-1.144 2.776-1.865 5.23-2.313 8.187l2.25.813C131 408 131 408 132.938 409.5c2.54 1.847 5.067 2.615 8.062 3.5v2h3v2l5 1v2c-4.083-1.235-7.372-2.788-11-5l-3.312-1.312c-4.422-1.812-7.986-4.717-11.688-7.688 2.298-9.105 6.14-17.477 10-26"/><path fill="#523f08" d="M190 408c5.53-.194 9.674.318 15 2 6.141 1.654 12.151 2.357 18.496 2.754C226 413 226 413 228 414c1.726.09 3.456.118 5.184.114h3.276l3.548-.016 3.623-.005c3.832-.005 7.663-.018 11.494-.03q3.889-.009 7.777-.014 9.549-.017 19.098-.049v1c-31.488 4.493-61.343 1.858-92-6z"/><path fill="#633d2f" d="M135 107c.707 1.586.707 1.586 1 4a75 75 0 0 1-3.312 6.625c-6.685 12.68-7.15 24.953-3.637 38.781.97 2.651 2.222 4.389 3.949 6.594v2h2l5 10c-7.664-5.787-14.235-13.683-15.785-23.437-1.438-17.153 2.868-29.73 10.785-44.563"/><path fill="#d25323" d="M466 364h4c-1.581 6-4.738 10.858-8 16.063l-1.76 2.822C453.663 393.303 446.31 402.892 438 412c-1.029-3.204-1.055-3.86.25-7.187C440 402 440 402 443 401l1-2h3l.188-2.812c1.042-4.09 2.309-4.103 5.812-6.188 1.31-2.28 2.107-4.509 3-7h2l3-10h2l.375-3.375C464 366 464 366 466 364"/><path fill="#d3703a" d="M13 323c1.976 1.976 2.896 3.523 4.125 6l1.07 2.125C19 333 19 333 19 335h2l.233 2.17c1.123 8.406 3.813 15.212 7.58 22.767.52 1.097 1.042 2.193 1.58 3.323 2.65 5.429 4.965 9.839 9.607 13.74 2.952 2.528 3.54 4.352 4.188 8.188l.48 2.73L45 390c-3.854-3.43-6.204-7.331-8.75-11.75l-1.326-2.29c-6.506-11.355-12.03-22.853-16.861-35.022l-1.182-2.958c-1.949-5.029-3.41-9.6-3.881-14.98"/><path fill="#a34e30" d="M373 149h1c.922 10.33-4.788 16.012-11.066 23.727A89 89 0 0 1 356 180c-2.018 2.018-1.185 6.146-1.205 8.916l-.03 2.513q-.047 4.131-.081 8.262l-.063 5.713q-.082 7.534-.153 15.067-.077 7.682-.161 15.363-.162 15.082-.307 30.166h-1a4275 4275 0 0 1-.363-33.276 1854 1854 0 0 0-.165-15.453c-.076-4.973-.118-9.945-.136-14.92q-.02-2.842-.076-5.684c-.285-14.873-.285-14.873 2.255-19.32 1.74-1.746 3.429-3.006 5.485-4.347 6.14-7.384 11.533-14.319 13-24"/><path fill="#db6f32" d="M409 58c12.124 8.244 22.023 19.52 31 31l2.219 2.691c3.507 4.264 6.632 8.206 8.781 13.309h-2v-2l-3-1a399 399 0 0 1-3-6c-2.946-4.461-2.946-4.461-7.687-6.562L433 89c-1.597-2.89-2-4.69-2-8l-1.75-.187c-3.174-1.147-4.378-3.073-6.25-5.813v-2l-3-1v-3l-5-2v-2h-3v-2h-2z"/><path fill="#c95f35" d="M495 218c5.483 8.224 3.24 22.56 3.25 32.375l.004 2.244c-.007 18.147-2.31 35.675-6.254 53.381h-1c-.212-5.928.212-11.625.938-17.5l.263-2.178c.672-5.195.672-5.195 1.799-6.322 2.098-9.68 2.404-19.457 2.625-29.312q.057-2.152.117-4.303.142-5.193.258-10.385h-2z"/><path fill="#df6a2c" d="M58 407c1.938.313 1.938.313 4 1l1 3c2.015.733 2.015.733 4 1v3l3 1c.688 2.063.688 2.063 1 4h2l1 2 3 1c1.188 2.063 1.188 2.063 2 4h2c2.625 2.313 2.625 2.313 5 5v3h4c2.125 2.938 2.125 2.938 4 6l2 1-1 2c-13.292-9.834-28.01-22.003-37-36z"/><path fill="#dd9d2f" d="M306 438c-2.766 1.497-5.266 2.409-8.344 3.035l-2.512.513-2.644.514-2.698.535c-6.596 1.265-13.084 2.13-19.802 2.403.07.75.14 1.5.21 2.273.43 8.097-1 13.43-6.21 19.727-3.508 3-3.508 3-6 3v-2h2v-2c1.375-1.625 1.375-1.625 3-3h2l.438-2.437C266 458 266 458 267 457a226 226 0 0 0 .563-8.062l.13-2.3q.159-2.818.307-5.638l2.076-.06c3.142-.096 6.283-.205 9.424-.315l3.266-.094c7.842-.287 15.506-2.917 23.234-2.531"/><path fill="#ee5d12" d="M126 121h2l-.937 4.25-.528 2.39a67 67 0 0 1-1.086 4.215c-2.154 10.283-1.08 22.928 4.739 31.833L132 166l-1 2c-3.815-2.462-3.815-2.462-4.75-5.187L126 161l-2 1c-4.084-8.7-5.486-19.121-2.75-28.437q.835-2.297 1.75-4.563l1.688-4.625z"/><path fill="#251c1e" d="m370 411 .687 2.763q1.281 5.153 2.566 10.305l1.103 4.43q.799 3.214 1.601 6.428l.525 2.114a293 293 0 0 0 4.107 14.75c.45 2.419.188 3.898-.589 6.21-2.508-3.714-3.515-6.699-4.125-11.125-.444-3.127-.875-5.874-1.875-8.875h-2c-1.686-5.214-2.385-9.975-2.625-15.437l-.117-2.217A804 804 0 0 1 369 415l-7 1c4.839-5 4.839-5 8-5"/><path fill="#6e3e30" d="M352 179h1q.106 17.538.155 35.077c.016 5.43.037 10.86.071 16.29.033 5.245.05 10.49.059 15.736q.008 2.993.032 5.987c.022 2.807.025 5.614.024 8.421l.032 2.47c-.032 6.094-1.436 11.27-3.373 17.019q-.606 2.059-1.187 4.125L348 287l-1-2h-2c.361-3.701 1.113-6.46 3-9.625 3.162-5.335 3.162-9.89 3.205-15.999l.03-2.632q.047-4.302.081-8.603l.063-5.97q.082-7.85.153-15.703.077-8.013.161-16.027.162-15.72.307-31.441"/><path fill="#332005" d="M332 400c-11.852 4.706-23.538 9.176-36 12l-2.695.645c-8.962 1.904-18.178 1.996-27.305 2.355 3.598-2.399 5.595-2.319 9.875-2.5 4.552-.193 7.963-.664 12.125-2.5l3.25-.437c2.967-.446 5.169-1 7.938-2 5.473-1.932 11.083-2.74 16.812-3.563l1-3c.94-.09.94-.09 1.898-.184l2.477-.253 2.46-.247c6.199-.906 6.199-.906 8.165-.316"/><path fill="#dd9a1f" d="M216 443h14l.875 4.375.57 2.75q.542 2.8.922 5.625c.778 5.518.778 5.518 4.32 9.688 1.094.515 2.187 1.03 3.313 1.562l3.188 1.75c4.735 1.973 9.78 1.496 14.812 1.25-2.719 2.719-4.328 2.363-8.125 2.438-7.259-.12-11.286-1.923-16.398-6.93-4.75-5.3-5.703-9.64-5.645-16.52C228 447 228 447 229 445l-13-1z"/><path fill="#e16827" d="M451 105c3.323 3.057 5.556 6.26 7.875 10.125l1.044 1.73q1.545 2.57 3.081 5.145l1.746 2.863c3.998 6.571 7.283 12.647 9.254 20.137q.558 1.97 1.125 3.938L476 152c-4.594-2.535-5.505-6.276-7-11l-1-3-2-1c-1.288-2.737-2.06-5.285-2.687-8.25-1.51-4.311-3.691-6.912-6.56-10.402C453.969 114.619 451 109.78 451 105"/><path fill="#53220b" d="M172 37c2.062 3.092 2.801 5.404 3.77 8.969l.998 3.644q.523 1.944 1.044 3.887l1.073 3.951q1.068 3.938 2.125 7.878 1.298 4.806 2.627 9.605.683 2.5 1.363 5.004l.628 2.25C186.708 86.22 187.21 89.826 187 94c-2-1-2-1-3-3.45a114 114 0 0 1-4.508-21.847L179 66l-2-1a104 104 0 0 1-2.125-7.562l-.55-2.096C173.11 50.447 172.83 46.04 173 41h-2z"/><path fill="#e35f1d" d="M170 39c-1.509 5.235-3.874 9.62-6.562 14.313q-1.345 2.379-2.684 4.761l-1.379 2.45c-2.224 4.004-4.366 8.05-6.5 12.101l-1.182 2.243Q150.344 77.432 149 80c-.625-1.812-.625-1.812-1-4l2-3a87 87 0 0 0 1.188-3.937c1.672-5.279 4.408-9.758 7.289-14.461 1.63-2.58 1.63-2.58 2.523-5.602h2l-.25-2.75c.25-3.25.25-3.25 2.063-5.625C167 39 167 39 170 39"/><path fill="#feecd8" d="m189.75 5.438 2.422.308L194 6v1l-2.867.664c-20.38 4.835-39.993 11.761-58.164 22.305C131 31 131 31 129 31v-2h2v-2h4l1-3a153 153 0 0 1 7-2l3.25-1.625C149 19 149 19 152 19v-2h5v-2h5v-2c4.445-1.543 8.848-3.01 13.438-4.062 3.584-.624 3.584-.624 5.562-2.938 3.072-1.096 5.543-.987 8.75-.562"/><path fill="#feeada" d="m497 223 2 1c.658 12.723 1.128 25.447 1.25 38.188l.064 3.284c.034 7.859-1.264 14.951-3.314 22.528h-2l.433-3.54c1.547-13.44 1.808-26.692 1.692-40.21q-.016-3.116-.027-6.23-.034-7.51-.098-15.02"/><path fill="#d05f26" d="M146 314h1c.346 7.247-.82 14.207-1.966 21.34-.588 3.665-1.155 7.332-1.721 11l-.344 2.219c-1.55 10.117-2.782 20.275-3.969 30.441h-1c.47-9.437 1.112-18.843 2-28.25l.251-2.704c.318-3.27.633-6.474 1.288-9.694.634-3.235.696-6.436.836-9.727.285-5.459.93-9.822 3.625-14.625"/><path fill="#cc6136" d="M437 412c-1.31 2.837-2.756 5.088-4.812 7.438l-1.458 1.683C411.93 441.536 411.93 441.536 401 447c1.03-2.577 1.51-3.763 4.063-5 2.15-.83 2.15-.83 2.687-3.125L408 437h4v-2l2-1 1-3h3l2-4 2 1 2-6h3l.188-2.187C428.73 414.473 431.49 412 437 412"/><path fill="#61555a" d="M147 224h1c.923 10.917 1.082 21.732.875 32.685-.087 7.956.664 15.162 3.313 22.69.879 2.841.64 3.865-.188 6.625-4.641-7.558-5.697-13.57-5.488-22.352l.021-3.454c.028-3.607.09-7.213.155-10.819q.037-3.69.068-7.379.084-8.999.244-17.996"/><path fill="#e06828" d="M21 153h1c.554 7.018-1.933 13.387-4.5 19.813-1.83 4.626-2.65 9.454-3.559 14.332C12.877 190.373 11.886 191.31 9 193c.621-5.135 1.701-9.979 3.188-14.937l.65-2.2c2.35-7.76 5.206-15.317 8.162-22.863"/><path fill="#e36019" d="m324 35 3 1-1.363 2.491c-1.796 3.85-2.836 7.535-3.828 11.646l-.579 2.307q-.905 3.62-1.793 7.243-.894 3.64-1.803 7.277a611 611 0 0 0-1.112 4.514c-.83 3.314-1.606 5.648-3.522 8.522l2-16h2l-.062-2.875C317 58 317 58 318 56v-3.562C318 49 318 49 319 48c.232-1.515.412-3.038.563-4.562l.253-2.504L320 39h2v-3z"/><path fill="#fceee1" d="M430 420c1 3 1 3-.125 6.125C428 429 428 429 425.313 429.875L423 430l-.25 1.875c-.996 2.821-2.113 2.844-4.75 4.125l-1.937 2.438c-2.171 2.696-3.968 4.054-7.063 5.562h-3l-1 3-3-1c15.276-13.614 15.276-13.614 20.375-17.75 2.762-2.162 2.762-2.162 4.625-5.25h2z"/><path fill="#343017" d="M154 393c5.122.554 9.617 2.228 14.402 4.031a100 100 0 0 0 5.66 1.906A74.4 74.4 0 0 1 190 407c-3.481 1.16-4.152.83-7.465-.441l-2.66-1.012-2.812-1.11-2.855-1.105c-6.951-2.733-13.649-5.747-20.208-9.332z"/><path fill="#e9bf23" d="M168 429h8v2l2.008.379c3.647.757 7.255 1.65 10.867 2.558l2.066.514A357 357 0 0 1 204 438v2l12 1-2 2c-6.956-.331-13.346-2.022-20-4v-2l-2.133-.262c-8.472-1.205-15.922-3.659-23.867-6.738z"/><path fill="#2e2b21" d="M143 357c.844 2.87 1.062 5.178.809 8.152l-.174 2.354a936 936 0 0 1-.406 4.851c-.32 4.423-.377 7.601 1.771 11.643h2v2l1.625.313c3 .868 5.613 2.243 8.375 3.687v2l5 1v2c-9.247-1.182-9.247-1.182-12.187-4.375L148 388c-2.259-1.537-4.568-2.737-7-4-.248-22.503-.248-22.503 2-27"/><path fill="#fdecd8" d="m114 41-2.055 1.469C100.992 50.358 90.85 58.793 81 68l-2-1v-2h3l1-5 3 1v-2c1.61-1.691 1.61-1.691 3.75-3.562l2.11-1.88C93.98 52.016 95.44 51.422 98 51v-2l2.438-.812L103 47l1-3c1.523-1.203 1.523-1.203 3.375-2.25l1.836-1.078C111 40 111 40 114 41"/><path fill="#fce3cb" d="M272 0h17v2l14 1v2l3.438-.125c7.19.026 13.235.97 18.562 6.125-4.31-.632-8.463-1.593-12.677-2.663C299.016 4.979 285.581 2.904 272 1z"/><path fill="#d69b34" d="m344 393 2 1c-3.459 4.128-6.231 5.69-11.363 7.191-3.016.925-5.897 2.073-8.824 3.247-18.901 7.315-18.901 7.315-24.813 5.562l1.902-.592c12.195-3.83 23.979-7.878 35.382-13.7 1.881-.953 3.796-1.838 5.716-2.708"/><path fill="#2d2d22" d="M189 407h11v2c1.286.09 1.286.09 2.598.184l3.464.253 3.41.247c2.241.2 4.478.457 6.704.789 6.37.878 12.785 1.283 19.195 1.777l3.137.25 2.832.219c2.602.275 5.105.726 7.66 1.281v1c-3.458.029-6.917.047-10.375.063l-2.984.025-2.852.01-2.634.016C228 415 228 415 226 414a157 157 0 0 0-5.562-.437c-6.585-.505-12.63-1.71-18.938-3.625-4.154-1.113-8.225-1.57-12.5-1.938z"/><path fill="#d74c16" d="M350 73h1c.182.675.364 1.35.55 2.047.252.892.504 1.784.762 2.703l.739 2.672c.979 2.66 2.23 4.35 3.949 6.578.879 2.105.879 2.105 1.563 4.188.64 2.062.64 2.062 1.437 3.812l2 1c.887 2.617.887 2.617 1.688 5.875l.824 3.242C365 108 365 108 364 111c-8.274-16.018-8.274-16.018-10.277-22.902-1.217-3.533-3.049-6.757-4.832-10.032L348 76c1-2 1-2 2-3"/><path fill="#c95b2f" d="M490 306c4.044 10.98-7.305 32.977-11.914 42.984A163 163 0 0 1 476 353c-1-3-1-3-.293-4.98l1.106-2.207c2.006-4.235 3.19-8.241 4.187-12.813h2l.148-1.863.227-2.45.21-2.425C484 324 484 324 486 321c.228-1.952.453-3.904.648-5.86.55-3.346 1.891-6.092 3.352-9.14"/><path fill="#f25a10" d="M6 278h1l.402 3.21.535 4.165.264 2.117c.462 3.876.462 3.876 1.799 7.508.205 1.36.366 2.728.5 4.098l.25 2.427.5 5.086c.046 4.024.046 4.024 1.75 7.389.072 1.52.084 3.042.063 4.563l-.028 2.503L13 323c-4.84-7.26-5.326-16.622-6.187-25.125l-.254-2.492C6.022 289.577 5.909 283.828 6 278"/><path fill="#da9d34" d="M300 412c-14.603 7.811-34.806 6.36-51 6v-1l2.807-.228q5.262-.434 10.523-.889 2.257-.192 4.515-.375c8.988-.729 17.546-1.811 26.313-4.009 2.749-.483 4.251-.435 6.842.501"/><path fill="#d77038" d="M185 10c-1.052.38-1.052.38-2.125.77C168.948 15.352 168.948 15.352 156 22c-4.113 1.371-7.657 2.263-12 2 2.165-2.165 3.74-2.866 6.55-4.023l2.79-1.151 2.972-1.201 3.012-1.22C179.847 8.185 179.847 8.185 185 10"/><path fill="#f6a214" d="M369 408c-.344 2.751-.722 3.771-2.898 5.563-6.164 3.577-12.321 6.246-19.102 8.437v-2l1.688-.687c2.496-1.276 2.496-1.276 4.687-3.75C357.23 411.799 363.415 408 369 408"/><path fill="#482004" d="M357 364h1a684 684 0 0 1 1 5.5l.563 3.094L360 376l.322 2.009c.201 2.073.201 2.073-.322 5.991-2.11 2.344-4.618 3.702-7.375 5.188l-2.204 1.274A260 260 0 0 1 344 394l-3.219 1.746C334.513 399 334.513 399 332 399v-2l2.887-1.426q1.9-.943 3.8-1.887l1.897-.935c3.573-1.777 7.038-3.629 10.416-5.752l3.29-1.578c2.844-2.07 2.844-2.07 3.186-4.522.116-2.575.047-5.076-.101-7.65l-.082-2.691c-.07-2.19-.17-4.373-.293-6.559"/><path fill="#5b2b1e" d="M345 74c3.083 2.648 4.775 5.952 6.625 9.5l1.027 1.95c2.9 5.564 5.645 11.2 8.348 16.862l1.206 2.516 1.106 2.348.989 2.09C365 111 365 111 365 113h-2l-5.684-11.367-.9-1.8-1.833-3.673a499 499 0 0 0-3.923-7.734C348 83.304 348 83.304 348 80h-2z"/><path fill="#d66227" d="M311 80h2c-.608 6.656-1.78 12.952-3.375 19.438l-.633 2.658C307.534 108.13 305.841 114.07 304 120h-1q.174-3.094.375-6.187c.07-1.15.14-2.298.21-3.481.395-3.168 1.202-5.412 2.415-8.332.445-2.662.445-2.662.625-5.312l.227-2.676L307 92l3-1z"/><path fill="#512b0b" d="M142 349h1c.09 4.746.147 9.415-.5 14.125-1.191 10.443-1.191 10.443-.5 20.875 2.331 2.758 4.706 3.705 8 5l1 2c-2-.625-2-.625-5-2l-2.184-.871c-2.748-1.453-4.136-2.488-5.816-5.129-.192-5.023.65-9.7 1.58-14.623.7-3.958 1.108-7.946 1.545-11.94q.252-2.157.508-4.316z"/><path fill="#43320c" d="M210 443q3.626.212 7.25.438l2.066.119c3.328.21 6.487.462 9.684 1.443l-.14 2.125c-.33 8.639 1.606 14.234 7.14 20.875-4.164-1.785-6.964-4.146-9.187-8.125-1.204-4.259-1.46-8.465-1.813-12.875l-15-3z"/><path fill="#dc6e33" d="M361 26c10.989 5.17 21.057 11.029 31 18l-2 1a221 221 0 0 1-7-3c-1.323-.373-2.652-.73-4-1l-.312-1.937L378 37a85 85 0 0 0-7-2v-2h-3l-1-2a134 134 0 0 0-6-3z"/><path fill="#d87237" d="M267 0c15.218.574 30.116 3.994 45 7v1c-11.866.208-11.866.208-17.543-1.98-5.558-1.64-11.258-1.771-17.021-2.143l-2.76-.217-2.503-.168C269.607 2.911 268.655 2 267 0"/><path fill="#fc980e" d="M364 380c2.679 2.319 3.662 4.318 4.688 7.688.25.808.502 1.616.761 2.449L370 392l-1.312-1.5c-1.685-1.832-1.685-1.832-4.688-1.5l-1-3h-5v2q-1.871.975-3.75 1.938l-2.11 1.09c-2.042.928-3.951 1.504-6.14 1.972 3.81-3.128 7.75-5.969 11.813-8.75l1.81-1.246Q361.81 381.5 364 380"/><path fill="#dd4b14" d="M479 336h1c.59 4.576-1.085 7.645-2.988 11.664-.946 2.184-1.555 4.207-2.075 6.524-.896 3.644-2.136 6.537-3.937 9.812-1.241-3.723-.718-6.07-.125-9.937l.555-3.715c.426-2.5.897-4.907 1.57-7.348l4 1 .438-2.312C478 339 478 339 479 336"/><path fill="#1e1c15" d="M277.125 410.375c3.332.458 6.509.685 9.875.625-3.616 2.239-6.867 2.355-11.062 2.563-5.058.242-5.058.242-9.938 1.437-2.739.07-5.45.094-8.187.063l-2.272-.014q-2.77-.02-5.541-.049v-2l3.035-.148 4.028-.227c1.31-.07 2.621-.14 3.972-.21 3.961-.297 3.961-.297 7.64-1.478 3.233-.91 5.175-1.036 8.45-.562"/><path fill="#332524" d="M152 286h1c.355 11.473-.232 21.828-3 33h-1c.11-4.188.241-8.375.375-12.562.03-1.182.062-2.363.094-3.58.2-5.946.503-11.245 2.531-16.858"/><path fill="#cf6028" d="M126 121h2l-.937 4.25-.528 2.39a62 62 0 0 1-1.094 4.208c-1.696 8.272-.605 17.858.559 26.152-5.439-5.439-4.236-15.441-4.266-22.645.251-3.17.689-4.685 2.266-7.355.697-2.324 1.37-4.657 2-7"/><path fill="#cb5020" d="M365 111c2.953 1.039 3.887 1.8 5.45 4.574l1.238 3.114 1.261 3.074c2.064 6.36 2.187 12.565 2.113 19.176l-.013 2.36q-.02 2.852-.049 5.702h-1l-.078-3.113c-.316-8.66-1.305-15.898-4.922-23.887l-1.152-2.602a255 255 0 0 0-2.114-4.62C365 113 365 113 365 111"/><path fill="#d6743f" d="M228 1c-2.82 2.82-5.132 2.56-9.062 3-9.615.469-9.615.469-17.938 4a226 226 0 0 1-8.062.563l-2.3.13Q187.82 8.852 185 9c2.71-1.806 3.948-2.37 6.992-3l2.368-.497L196.875 5l2.58-.526C218.568.63 218.568.63 228 1"/><path fill="#d67e2c" d="M268 441h2v3l4 1h-4c.07.75.14 1.5.21 2.273.43 8.097-1 13.43-6.21 19.727-3.508 3-3.508 3-6 3v-2h2v-2c1.375-1.625 1.375-1.625 3-3h2l.438-2.437C266 458 266 458 267 457a226 226 0 0 0 .563-8.062l.13-2.3q.159-2.818.307-5.638"/><path fill="#de601d" d="M124 426c1.57 4.868.052 8.768-1.25 13.563l-.66 2.615-.668 2.513-.607 2.288c-.909 2.253-1.998 3.436-3.815 5.021-.147-4.303.318-7.91 1.438-12.062.968-3.635 1.863-7.242 2.562-10.938h3z"/><path fill="#ee5b12" d="M489 190h1l.402 2.809.536 3.629.527 3.62c.225 2.822.225 2.822 1.535 3.942.402 2.054.747 4.119 1.063 6.188l.535 3.417c.376 3.173.475 6.205.402 9.395-2.77-2.77-2.531-5.18-3-9l-1-3h-2z"/><path fill="#4c2311" d="M187 94c2.368 2.368 2.667 3.837 3.508 7.05l.8 3.057.817 3.206.84 3.17c1.195 4.625 2.208 8.713 2.035 13.517l-4-1 .125-3.125c-.124-3.858-.874-6.26-2.125-9.875-1.17-5.352-2.14-10.506-2-16"/><path fill="#463a07" d="M129 411c4.65 1.674 8.792 4.05 13.063 6.5q2.11 1.205 4.222 2.406l1.871 1.073c1.922 1.064 3.873 2.052 5.844 3.021v2h-3v-2l-2.875-.625c-4.383-1.22-7.912-3.563-11.695-6.035-2.515-1.387-4.603-1.933-7.43-2.34l-1 7c-1.6-4.002-.293-7.046 1-11"/><path fill="#ef5c12" d="M45 113h1l1 6-3 1c-1.862 1.982-1.862 1.982-3.625 4.375l-1.852 2.398c-1.678 2.235-1.678 2.235-2.523 5.227-2.062.688-2.062.688-4 1 2.057-7.198 5.697-11.837 11-17z"/><path fill="#573e36" d="m160 58 1 2a537 537 0 0 1-2.95 5.633c-1.48 3.334-2.013 6.675-2.558 10.265C155 78 155 78 153 80h-4c1.476-4.969 3.595-9.288 6.063-13.812l1.103-2.061c2.685-4.978 2.685-4.978 3.834-6.127"/><path fill="#d2723d" d="m108 44 2 1-1.354 1.095C98.786 54.086 89.205 62.26 80 71l-2-1c7.77-8.198 16.028-15.166 25-22 1.67-1.328 3.34-2.66 5-4"/><path fill="#5d2c1d" d="M372 149h1c-.493 13.308-10.258 21.975-19 31 0-3.738.89-4.322 3.375-7 2.112-2.295 3.886-4.392 5.625-7h2l.938-2.875C367 160 367 160 368 158h2z"/><path fill="#e7641f" d="m464 128 2 4h3c2.287 4.262 3.77 8.328 5 13q.558 1.97 1.125 3.938L476 152c-4.594-2.535-5.505-6.276-7-11l-1-3-2-1c-1.627-3.345-2-5.188-2-9"/><path fill="#e1bb3b" d="M152 393c5.097 1.572 9.846 3.666 14.688 5.875 6.675 3.012 13.362 5.798 20.312 8.125-3.185 1.043-5.026.952-8.187-.11l-2.368-.788-2.445-.852-2.445-.805c-4.034-1.37-7.257-2.678-10.555-5.445-2.071-1.08-4.173-2.056-6.293-3.035C153 395 153 395 152 393"/><path fill="#4d1909" d="M372 424c3.295 4.943 4.212 10.728 5.688 16.438l1.01 3.76.939 3.61.866 3.307c.477 2.769.442 4.28-.503 6.885-3.152-4.403-3.85-8.525-4.625-13.75-.36-5.03-.36-5.03-2.375-9.25a123 123 0 0 1-.562-5.562l-.254-3.067z"/><path fill="#693d2c" d="M148 80c.625 1.813.625 1.813 1 4l-2 3a192 192 0 0 0-2 7h-2v6h-3l-.875 2.438C138 105 138 105 136 106c1.68-5.81 4.392-11.009 7.125-16.375l1.418-2.809Q146.266 83.405 148 80"/><path fill="#da703b" d="M136 28v2c-2.647 1.46-3.894 2-7 2v3l-1.934.805-2.504 1.07-2.496 1.055c-2.223.894-2.223.894-3.066 3.07-2.066.852-2.066.852-4.562 1.625-.827.26-1.653.52-2.504.79L110 44c3.222-3.519 6.864-6.038 10.875-8.562l1.816-1.17C132.536 28 132.536 28 136 28"/><path fill="#5c575e" d="M147 176c2 2 2 2 2.23 4.676l-.042 3.637-.02 2.023c-.17 12.224-.702 24.448-1.168 36.664h-1q-.252-9.799-.482-19.598-.08-3.337-.166-6.673-.122-4.785-.23-9.569l-.083-3.033-.06-2.79-.061-2.47C146 177 146 177 147 176"/><path fill="#e06a2d" d="M31 133c1.527 4.94 0 8.832-2.125 13.438L28 148h-3l-1 5h-2c2.138-7.244 5.227-13.467 9-20"/><path fill="#db9e37" d="m354 418 2 1c-21.225 10.855-21.225 10.855-28 13l-2-1 5-2v-2l1.73-.445c6.567-1.817 12.48-4.424 18.582-7.446z"/><path fill="#be4f26" d="M373 149h1c.924 10.349-4.796 15.944-11.035 23.703-1.894 2.214-3.876 4.268-5.965 6.297.51-4.204 3.099-6.668 5.813-9.687C368.1 163.207 371.949 157.146 373 149"/><path fill="#613120" d="M326 39c3.292 2.972 5.111 5.814 7 9.813 1.69 3.512 3.385 6.96 5.375 10.312C340 62 340 62 340 64h-2a519 519 0 0 1-2.5-4.312l-1.406-2.426C333 55 333 55 333 52l-3-1c-.73-1.848-.73-1.848-1.187-4.062-.16-.734-.318-1.467-.481-2.223L328 43h-2z"/><path fill="#f4c619" d="M128 407c2.915 1.074 4.778 1.778 7 4 1.984.714 3.983 1.386 6 2v2h3v2l5 1v2c-4.083-1.235-7.372-2.788-11-5l-3.625-1.375c-3.673-1.769-4.704-2.987-6.375-6.625"/><path fill="#da6d35" d="M45 390c3.28.566 4.973 1.328 7 4a505 505 0 0 1 2 6l2 1v2h2l1 3c-3 0-3 0-4.35-1.253l-1.35-1.74-1.474-1.886-1.514-1.996-1.548-1.973C45 392.278 45 392.278 45 390"/><path fill="#2e1612" d="M348 304h1l.402 2.555.536 3.32.527 3.305c.39 2.758.39 2.758 1.535 4.82.153 1.885.25 3.774.316 5.664l.127 3.399.12 3.562.13 3.586q.16 4.395.307 8.789h-1c-1.234-4.77-1.113-9.425-1.062-14.312l.013-2.534q.02-3.077.049-6.154h-2z"/><path fill="#ce5628" d="M494 280h1c.508 9.05-1.013 17.235-3 26h-1c-.212-5.928.212-11.625.938-17.5l.263-2.178c.672-5.195.672-5.195 1.799-6.322"/><path fill="#d17138" d="M312 8c9.22 1.875 18.299 4.39 27 8-3.753 1.251-4.43.483-8-1a218 218 0 0 0-7.687-1.562c-7.064-1.314-7.064-1.314-9.313-2.438V9z"/><path fill="#ef5d10" d="m265 0 1.844.934c4.49 1.517 8.95 1.756 13.656 2.129q2.798.232 5.594.472l2.49.2c2.514.276 4.944.734 7.416 1.265v1l-1.94-.108c-2.916-.158-5.832-.306-8.748-.455l-3.052-.17-2.96-.146-2.713-.143c-2.655.023-5.007.418-7.587 1.022l-2-3-3-2z"/><path fill="#413809" d="M181 436c9.748 1.632 19.364 3.816 29 6v1c-9.807.6-19.791-1.741-29-5z"/><path fill="#d35022" d="M437 412c-2.421 5.21-5.668 9.834-10.875 12.438L424 425v-3h3l.188-2.187C428.73 414.473 431.49 412 437 412"/><path fill="#cc5f2d" d="M132 168c13.418 10.953 13.418 10.953 14.438 16.29 0 2.21 0 2.21-.438 5.71h-2l-1-10h-4v-4l-3-1c-4-4.457-4-4.457-4-7"/><path fill="#43390a" d="m155 425 26 10c-7.207 1.802-14.68-1.388-21-5l-2.875-1.562L155 427z"/><path fill="#d15f27" d="M320 50c1.361 3.74.62 6.306-.434 10.078l-.966 3.516-1.038 3.656-1.025 3.703A1669 1669 0 0 1 314 80c-1.079-3.75-.775-6.396-.062-10.25l.59-3.266L315 64h2l-.187-2.5c.234-4.382 1.513-7.455 3.187-11.5"/><path fill="#32190f" d="M320 62c1.155 3.387.828 5.33-.312 8.688-1.535 4.735-2.667 9.44-3.688 14.312h-1q.134-3.813.313-7.625l.068-2.16c.247-4.897.965-9.561 4.619-13.215"/><path fill="#fce6d7" d="m395 451 1 4-2.117.77-2.758 1.043-2.742 1.019c-2.677 1.064-2.677 1.064-4.383 4.168h-2l-1 2h-3c1.138-3.413 1.653-3.695 4.598-5.48l2.177-1.338 2.288-1.37 2.298-1.404A818 818 0 0 1 395 451"/><path fill="#3a2706" d="M332 400a4384 4384 0 0 1-10.375 4l-2.984 1.156-2.852 1.094-2.634 1.016C311 408 311 408 309 408v-2l3.438-.812L316 404l1-3c.94-.09.94-.09 1.898-.184l2.477-.253 2.46-.247c6.199-.906 6.199-.906 8.165-.316"/><path fill="#ee5e11" d="M149 284h1c-.452 7.607-1.055 15.181-1.937 22.75l-.227 2.094c-.601 4.921-.601 4.921-2.836 7.156.617-21.532.617-21.532 4-32"/><path fill="#feebd6" d="M492 193c2.677 3.07 3.398 5.141 3.625 9.188-.055 3.212-.055 3.212 1.375 5.812.073 2.186.084 4.375.063 6.563l-.028 3.628L497 221h-1q-1.009-5.593-2-11.187l-.578-3.198-.547-3.095-.508-2.841c-.356-2.599-.433-5.06-.367-7.679"/><path fill="#c4582e" d="m397 447 3 1q-3.057 2.163-6.125 4.313l-1.727 1.224A74 74 0 0 1 381 460v-4c6.625-3 6.625-3 10-3v-3l2.438-.937c2.453-.826 2.453-.826 3.562-2.063"/><path fill="#e4b831" d="M134 381c3.792 1.366 6.844 3.105 10.125 5.438l2.57 1.808c1.948 1.482 3.637 2.971 5.305 4.754-3.625.201-5.865-.142-9-2v-3h-3v-2h-2v-2l-4-1z"/><path fill="#e3460a" d="M486 314h1c.25 6.625.25 6.625-2 10-.666 2.275-.666 2.275-1.125 4.688l-.508 2.449L483 333h-2l-1 2c.06-2.126.149-4.25.25-6.375l.14-3.586L481 322c2-1.219 2-1.219 4-2 .816-3.06.816-3.06 1-6"/><path fill="#ea5f13" d="m36 373 4 4 1.563 1.313c1.885 2.212 2.144 4.027 2.624 6.875.16.9.318 1.802.481 2.73L45 390c-5.494-5.115-7.418-9.818-9-17"/><path fill="#cc5b32" d="m462 376 1 2a101 101 0 0 1-4.187 6.875l-1.213 1.895c-2.252 3.452-4.538 6.429-7.6 9.23 0-4 0-4 1.875-5.937L454 388c1.254-2.632 1.254-2.632 2-5h2l.875-2.375C460 378 460 378 462 376"/><path fill="#673e2d" d="M170 39c1.235 3.705.587 4.897-.75 8.5l-1.047 2.906c-1.158 2.497-2.19 3.78-4.203 5.594l-1 2h-2c1.392-4.627 3.295-8.647 5.625-12.875l1.914-3.492z"/><path fill="#ee5c13" d="M197 8v1q-3.124.97-6.25 1.938l-3.516 1.09L184 13l-2.172.754c-2.461.331-3.747-.49-5.828-1.754 13.449-4.592 13.449-4.592 21-4"/><path fill="#edc028" d="M187 408c6.067 1.038 11.437 2.34 17 5v1a374 374 0 0 1-5.687-.312l-3.2-.176c-3.372-.555-5.392-1.467-8.113-3.512z"/><path fill="#fde3cd" d="M9 313c3.072 3.072 3.567 6.877 4.688 11l.72 2.523.666 2.414.612 2.215C16 333 16 333 15 335c-2-3-2-3-2-7h-2c-1.748-5.244-2.194-9.473-2-15"/><path fill="#fde7d3" d="M337 15c5.483-.721 8.965 1.256 13.633 3.809 2.276 1.272 2.276 1.272 4.61 1.664L357 21l1 3c-7.182-2.274-14.076-5.036-21-8z"/><path fill="#df9e2d" d="M326 433q-4.152 1.296-8.312 2.563l-2.381.748-2.295.693-2.11.65C309 438 309 438 306 437c1.438-2 1.438-2 4-4 2.34-.25 4.532-.19 6.879-.043 3.548.072 5.557-1.063 9.121.043"/><path fill="#2c282b" d="m148 327 3 2-3 3h2c-.255 1.96-.53 3.918-.812 5.875l-.458 3.305C148 344 148 344 145 346q.46-4.47.938-8.937l.263-2.577.264-2.45.238-2.27C147 328 147 328 148 327"/><path fill="#463016" d="m236 468 2.938 1.438c4.26 1.85 8.462 2.26 13.062 2.562-3.715 2.477-6.696 2.435-11 2-3-1-3-1-5-2z"/><path fill="#dd490f" d="m406 438 2 1-2.375 2.313c-2.698 2.596-2.698 2.596-4.625 5.687-2.925 1.385-5.845 2.299-9 3 3.198-3.472 5.644-5.306 10-7l1-3z"/><path fill="#31220b" d="M338 429c-1.734 3.467-5.49 4.657-9 6-3.5.25-3.5.25-6 0v-2a888 888 0 0 1 6.375-2.562l3.586-1.442C336 428 336 428 338 429"/><path fill="#c94819" d="M370 411h2c2.326 5.796 3.437 9.86 2 16-3.218-4.826-4.363-10.198-4-16"/><path fill="#fc8d17" d="M370 392c2.472 2.963 3.662 5.54 4.688 9.25.25.892.502 1.784.761 2.703L376 406l-7 5v-3c2-1.687 2-1.687 4-3-.86-4.332-.86-4.332-3-8a100 100 0 0 1 0-5"/><path fill="#e1470b" d="M491 293c2.104 7.06.142 13.58-3 20-1.546-3.093-.646-6.122-.187-9.437l.251-2.065c.47-3.505.941-5.506 2.936-8.498"/><path fill="#623f3b" d="M350 272c1.367 3.692.512 5.471-1 9a127 127 0 0 0-1 6l-1-2h-2c.515-5.281 2.255-8.572 5-13"/><path fill="#e74704" d="M341 61c3.453 1.15 4.38 2.32 6.688 5.063l1.886 2.222L351 70l-2 4h-2c-1.257-2.906-2-4.796-2-8l-3-1c-.687-2.062-.687-2.062-1-4"/><path fill="#cf6124" d="M173 37h2q1.01 3.84 2 7.688l.578 2.185c.97 3.796 1.672 7.173 1.422 11.127-1.967-3.536-3.023-7.18-4.125-11.062l-1.07-3.723C173 40 173 40 173 37"/><path fill="#db6e31" d="M160 18c-3.236 3.883-6.095 4.967-11 6-2.937.125-2.937.125-5 0 4.025-4.025 10.272-6.74 16-6"/><path fill="#e06424" d="M13 323c1.976 1.976 2.896 3.523 4.125 6l1.07 2.125C19 333 19 333 19 335h2v7c-8-12-8-12-8-19"/><path fill="#fee9d3" d="M24 144c1.346 4.038-.144 6.325-1.812 10l-.83 1.906c-1.276 2.887-2.603 5.461-4.358 8.094.261-7.965 2.875-13.25 7-20"/><path fill="#4a3f41" d="M140 100c.688 1.75.688 1.75 1 4a487 487 0 0 1-3 4c-.881 2.302-1.624 4.622-2.352 6.977C135 117 135 117 134 119h-2c4.384-13.49 4.384-13.49 8-19"/><path fill="#d5723e" d="M437 87c5.627 5.461 10.807 10.726 14 18h-2v-2l-3-1-3-6c-1.534-1.896-3.136-3.695-4.793-5.484C437 89 437 89 437 87"/><path fill="#d96224" d="M145 80h3c-1.646 5.685-4.29 10.767-7 16-.625-1.812-.625-1.812-1-4l2-3a97 97 0 0 0 1.625-4.687c.26-.809.52-1.617.79-2.45.192-.615.386-1.23.585-1.863"/><path fill="#422113" d="M181 75c2.125 3.188 2.502 5.265 3 9h2l1 10c-2-1-2-1-3.07-3.766l-1.055-3.484-1.07-3.453C181.088 80.359 180.83 78 181 75"/><path fill="#f39901" d="m240 432 2 1-3 1a178 178 0 0 0-2 4c-2 2.25-2 2.25-4 4h-2l-1 2c.578-3.902 2.355-6.135 5-9 2.625-1.875 2.625-1.875 5-3"/><path fill="#e1490d" d="M351 294h1l.184 1.758c.377 3.52.774 7.002 1.378 10.492.42 2.637.516 5.086.438 7.75l-2-1c-1.203-4.077-1.102-8.09-1.062-12.312l.027-3.801z"/><path fill="#522614" d="M152 286h1v14l-3 1c-.194-5.527.252-9.756 2-15"/><path fill="#eb621b" d="M236 0v2c-4.41 2.21-8.49 2.237-13.312 2.125l-2.245-.027c-1.814-.024-3.629-.06-5.443-.098V3l2.195-.148C223.604 2.356 229.725 0 236 0"/><path fill="#fce9d8" d="m453 392 1 2c-1.734 5.202-3.341 7.852-8 11l-2-1z"/><path fill="#e26723" d="M428 80c3.155.35 4.823.865 7.375 2.813C437 85 437 85 436.75 87.25L436 89h-3c-1.257-2.906-2-4.796-2-8z"/><path fill="#d18e2d" d="M229 446h1l.184 1.941c.488 5.043 1.054 10.05 1.816 15.059-3.067-3.866-4.141-6.696-4.125-11.625l-.008-2.414C228 447 228 447 229 446"/><path fill="#3e454e" d="m317 209 2 1c-1.02 3.773-1.659 4.802-5.125 6.813L311 218c1.527-3.436 3.6-6.12 6-9m-8 9 2 1-3 3-2-1z"/><path fill="#d16428" d="M155 64c1 3 1 3-.434 6.137a242 242 0 0 1-2.004 3.55l-1.025 1.838A523 523 0 0 1 149 80c-.625-1.812-.625-1.812-1-4l2-3a168 168 0 0 0 2-6h2z"/><path fill="#ec5d14" d="M108 47c-1.404 3.509-2.644 4.427-6 6l-2 3c-2.5 1.75-2.5 1.75-5 3l-2-1q3.18-2.759 6.375-5.5l1.828-1.59C105.773 47 105.773 47 108 47"/><path fill="#5d5e66" d="M327 43c3.304 4.406 3.867 6.77 5 12l-2 1v-2l-3-1z"/><path fill="#d9723c" d="M342 18c4.333.645 7.867 2.19 11.813 4.063l3.519 1.66L360 25c-3.717 1.136-5.47.667-9-1v-2l-2.812-.312c-3.22-.695-4.214-1.165-6.188-3.688"/><path fill="#2e2e2b" d="M169 434c8.571 1 8.571 1 12 2v2l4 1c-1.666.043-3.334.04-5 0l-1-1a104 104 0 0 0-5.062-.562l-2.786-.254L169 437z"/><path fill="#ce5f1e" d="m126 409 4 2-4 15h-1q-.04-2.22-.062-4.437l-.036-2.497C125 417 125 417 126 416q.061-3.5 0-7"/><path fill="#4f4140" d="M139 172h5c2 5.75 2 5.75 2 8-3.826-1.451-5.157-3.406-7-7z"/><path fill="#d4703b" d="M392 45c5.271 2.797 9.594 5.982 14 10-4.246 0-6.385-1.818-10-4v-2l-4-1z"/><path fill="#cb872f" d="m239 469 2.633.219 3.492.281 3.445.281c3.156.202 6.27.257 9.43.219-2.768 2.768-4.517 2.3-8.375 2.313l-3.46.05c-3.376-.387-4.718-1.08-7.165-3.363"/><path fill="#422c06" d="M322 435c-1 2-1 2-4.062 3.125-4.037 1.072-7.78 1.02-11.938.875 2.965-1.977 5.158-2.758 8.563-3.687l2.94-.825C320 434 320 434 322 435"/><path fill="#4c2106" d="m370 411 1 9-2-1v-4l-7 1c4.839-5 4.839-5 8-5"/><path fill="#d86930" d="M8 304c4.338 6.507 5.472 11.292 5 19-2.066-3.099-2.747-5.35-3.625-8.937-.26-1.04-.52-2.081-.79-3.153C8 308 8 308 8 304"/><path fill="#fde6d0" d="m77 68 3 1-10 10-1-4c2.688-2.252 4.646-3.882 8-5z"/><path fill="#3c2b08" d="M351 422v2l-3 1-2 3c-1.945.293-1.945.293-4.125.188L338 428c2.122-2.122 3.773-2.93 6.5-4.125l2.406-1.07C349 422 349 422 351 422"/><path fill="#fce9da" d="m462 378 1 4h-2l1 4-5 4-2-1z"/><path fill="#fee8d3" d="M8 190c1.302 3.906.478 6.195-.437 10.188l-.872 3.855L6 207H5c-.554-11.522-.554-11.522 3-17"/><path fill="#281c11" d="M262 469v3c-4.23 2.417-7.123 3.348-12 3l-1-2 2.59-.621 3.347-.817 3.34-.808c2.617-.484 2.617-.484 3.723-1.754"/><path fill="#c14b1f" d="M374 427c2.655 2.406 3.922 4.18 4.266 7.781A142 142 0 0 1 378 443c-3.218-4.826-4.363-10.198-4-16"/><path fill="#e2a130" d="M369 411q-2.682 1.758-5.375 3.5l-3.023 1.969C358 418 358 418 356 418v-2h3v-3a328 328 0 0 1 3.875-1.562l2.18-.88C367 410 367 410 369 411"/><path fill="#d69933" d="M360 383v3h-2v2q-1.871.975-3.75 1.938l-2.11 1.09c-2.042.928-3.951 1.504-6.14 1.972 4.424-3.71 9.174-6.846 14-10"/><path fill="#fdecd9" d="M27 362c3.096 3.509 4.742 6.492 6 11l-4-1z"/><path fill="#d5713b" d="m47 107 1 3c-1.363 2.445-1.363 2.445-3.312 5.125l-1.926 2.695C41 120 41 120 39 121c1.326-3.623 2.943-6.635 5.125-9.812l1.633-2.395z"/><path fill="#c55b24" d="M307 104c1.572 3.143.04 5.93-.937 9.125l-.592 1.996A785 785 0 0 1 304 120h-1c.087-2.105.195-4.209.313-6.312l.175-3.551c.528-3.235.936-4.224 3.512-6.137"/><path fill="#6b3c28" d="m160 58 1 2c-1.145 2.785-1.145 2.785-2.812 6.063l-1.645 3.285C155 72 155 72 153 73c1.657-5.65 3.478-10.263 7-15"/><path fill="#61616d" d="M170 42h1v8l-2 1c-.903 1.883-.903 1.883-1.625 4.063-.26.733-.52 1.466-.79 2.222-.192.566-.386 1.132-.585 1.715-1-2-1-2-.004-5.477q.71-2.078 1.441-4.148l.737-2.14A890 890 0 0 1 170 42"/><path fill="#ed5e10" d="M352 24q2.16.387 4.313.813l2.425.457c2.53.816 3.514 1.779 5.262 3.73 2.1 1.176 2.1 1.176 4 2-1.625.688-1.625.688-4 1-3.25-1.437-3.25-1.437-6-3v-2l-6-1z"/><path fill="#fde8d5" d="M88 439c4.81 2.547 8.324 4.99 12 9l-3 1v-2h-2v-2l-2.937-.75L89 443c-.875-2.125-.875-2.125-1-4"/><path fill="#d84c15" d="M443 401v3h-2l.25 2.313C441 409 441 409 439 410.813L437 412c.477-4.2 1.097-6.865 4-10z"/><path fill="#e19e25" d="m344 393 2 1c-3.822 4.4-6.474 5.808-12 7 2.848-4.052 5.367-6.187 10-8"/><path fill="#483a09" d="M154 393c3.95.551 7.35 1.39 11 3v2h3v2c-4.972-1.492-9.418-3.605-14-6z"/><path fill="#f25b11" d="M13 189c0 5.614-.4 9.61-4 14-.63-9.173-.63-9.173 2-12.625z"/><path fill="#d56f38" d="M38 121c1.102 3.305.953 3.987-.187 7.125l-.731 2.133C36 132 36 132 33.887 132.742L32 133c1.319-4.615 3.214-8.099 6-12"/><path fill="#d47542" d="M459 117c2.639 2.401 4.364 5.006 6.188 8.063l1.605 2.66C468 130 468 130 468 132h-2c-3.667-4.525-5.711-9.377-7-15"/><path fill="#feead3" d="m41 112 3 1-7 11c-1.208-3.623-.543-4.641 1-8h2z"/><path fill="#f25d13" d="M442 95c2.526 2.363 3.888 3.665 5 7l2 1-1 2c-3.337-1.38-5.223-2.82-7-6 .313-2.25.313-2.25 1-4"/><path fill="#fde5d0" d="M50 398c3.279 3.157 6.282 6.35 9 10l-1 3-1-2h-2l-1.375-2.937c-1.283-3.134-1.283-3.134-3.625-4.063z"/><path fill="#483a0c" d="M176 403c4.97.412 9.445.796 14 3l-1 2a716 716 0 0 1-4.812-1.375l-2.708-.773C179 405 179 405 176 403"/><path fill="#dd8015" d="M268 441h2v3l4 1h-4l-1 11h-1z"/><path fill="#2f2b1f" d="M129 415c6.4.492 6.4.492 9.438 3.063L140 420l-2.25-1.062c-2.921-.996-3.935-1.006-6.75.062l-2 1z"/><path fill="#fce4d4" d="M443 405h1c.25 2.313.25 2.313 0 5-2.044 1.976-3.118 3-6 3v2l-2-1q1.714-2.254 3.438-4.5l1.933-2.531z"/><path fill="#f55b0c" d="m35 368 3 1v2h2v3c-2.375-.25-2.375-.25-5-1-1.312-2.062-1.312-2.062-2-4z"/><path fill="#fde6d0" d="m66 80 2 1-8 10-1-3c1.813-2.687 1.813-2.687 4-5h2z"/><path fill="#cd632b" d="M330 43c2.538 1.27 2.894 2.416 4.125 4.938l1.07 2.152C336 52 336 52 336 54l3 1v2c-3.624-1.432-4.936-3.027-6.75-6.437l-1.297-2.372C330 46 330 46 330 43"/><path fill="#df972c" d="m232 460 9 9c-3.143-.35-4.795-.84-7.312-2.812C232 464 232 464 232 460"/><path fill="#e64208" d="M424 425c-2 3-2 3-5 4l-2 2-1-5c3.067-1.862 4.597-2.215 8-1"/><path fill="#e16a2c" d="M45 390c3.243.56 4.93 1.413 7 4v2c-2.375-.187-2.375-.187-5-1-1.312-2.562-1.312-2.562-2-5"/><path fill="#f35a0e" d="m21 339 3 1c1.205 8.036 1.205 8.036 0 12-3.429-8.429-3.429-8.429-3-13"/><path fill="#e0490d" d="m349 282 3 1v10l-2 1c-1.262-2.525-1.099-4.312-1.062-7.125l.027-2.758z"/><path fill="#feecd9" d="M386 40c4.22.48 6.797 1.166 10 4l-1 3q-2.254-1.463-4.5-2.937l-2.531-1.653L386 41z"/><path fill="#b96a40" d="M118 450c1.065 3.196 1.074 5.657 1 9-3.576 0-5.053-1.088-8-3 2.49-1.245 3.41-.777 6 0z"/><path fill="#371e01" d="m358 381 1 3-10 7-2-2 2.152-1.242 2.786-1.633 2.777-1.617c2.392-1.305 2.392-1.305 3.285-3.508"/><path fill="#de601b" d="m193 109 1 2h2v9l-2-1c-.414-2.285-.414-2.285-.625-5.062l-.227-2.786z"/><path fill="#f05f0c" d="m402 57 7 1 1 6-3-1v-2a159 159 0 0 0-5-3z"/><path fill="#2e2521" d="M120 451h1l2 9h-5v-5h2z"/><path fill="#361813" d="m369 419 3 1 1 12c-2.722-2.722-3.106-5.295-4-9z"/><path fill="#fee7d0" d="M464 124h3a519 519 0 0 1 2.063 4.875l1.16 2.742C471 134 471 134 470 136z"/><path fill="#dd6726" d="M312 8c2.343.256 4.678.593 7 1l1 2c2.017 1.134 2.017 1.134 4 2-7.75-.875-7.75-.875-10-2V9z"/><path fill="#fef0e0" d="M208 0h7l-1 3h-7z"/><path fill="#fce2cc" d="M100 448c4.285 2.307 7.723 4.33 11 8-5.044-.445-7.444-2.61-11-6z"/><path fill="#dc5f20" d="M120 442c.688 1.625.688 1.625 1 4-1.437 3.25-1.437 3.25-3 6h-1c-.125-5.75-.125-5.75 1-8h2z"/><path fill="#fde5d1" d="m420 430 1 3c-2.596 2.874-4.214 4.244-8 5l2.938-3.437 1.652-1.934A50 50 0 0 1 420 430"/><path fill="#412c04" d="M362 416v2c-6.45 4.093-6.45 4.093-9.234 3.621L351 421a805 805 0 0 1 4.375-2.5l2.46-1.406C360 416 360 416 362 416"/><path fill="#edbe2d" d="M128 407c3.403 1.012 4.757 1.648 6.813 4.625L136 414c-3.403-1.012-4.757-1.648-6.812-4.625z"/><path fill="#f8c514" d="M166 402q2.221.423 4.438.875l2.496.492L175 404l1 2-6 1z"/><path fill="#d5733c" d="M21 153h1c.55 5.635-1.05 8.39-4 13-1-2-1-2-.223-4.602l1.16-3.023 1.153-3.04z"/><path fill="#f25c10" d="M458 120c4.875 4.625 4.875 4.625 6 8-1.875-.25-1.875-.25-4-1-1.721-2.582-2-3.85-2-7"/><path fill="#ea4307" d="M432 408h5v4l-5 1z"/><path fill="#e24c04" d="m374 407 2 1a101 101 0 0 1-2 6l-2 1v-4l-2-1z"/><path fill="#d4733b" d="M38 380c3.085 1.028 4.083 1.473 6 4 .688 3.188.688 3.188 1 6-3.336-2.99-5.15-5.932-7-10"/><path fill="#fc8e19" d="M364 380c2.5 2.174 3.436 3.73 4 7l-3-1v-3l-4 1 1-3z"/><path fill="#fbe0ce" d="M492 302h1v10h-2l-1 2c1-8.571 1-8.571 2-12"/><path fill="#e4611b" d="M483 171c2.034 1.415 2.904 2.55 3.422 4.98.24 2.002.413 4.011.578 6.02h-2c-1.193-3.877-2-6.916-2-11"/><path fill="#d3743e" d="M481 161c1.904 2.856 2.695 4.931 3.625 8.188l.79 2.73L486 174c-2.463-1.827-3.834-3.23-4.488-6.27A108 108 0 0 1 481 161"/><path fill="#d26229" d="M126 158c2.743 3.2 4.63 6.005 6 10-2.437-1.062-2.437-1.062-5-3-.812-3.687-.812-3.687-1-7"/><path fill="#2a2c33" d="M326 43h1v13l-1-3h-2z"/><path fill="#d2632c" d="M167 39h3c-1.258 4.508-2.904 7.491-6 11 .888-3.699 1.946-7.346 3-11"/><path fill="#ea5c12" d="M170 35a100 100 0 0 1 5 0c1 1 1 1 1.063 4.063L176 42h-1v-5l-6 2z"/><path fill="#da7b47" d="M170 14c-3.692 3.538-7.094 3.591-12 4 2.054-2.054 3.33-2.681 6-3.687l2.125-.825C168 13 168 13 170 14"/><path fill="#e74a0e" d="M364 101c2.12 3.534 2.532 6.944 3 11-2-1-2-1-2.668-2.777l-.52-2.16-.542-2.153C363 103 363 103 364 101"/><path fill="#5d281e" d="M340 64c2.912 3.288 4.497 5.599 5 10-3.672-3.08-4.568-5.248-5-10"/><path fill="#fee9d3" d="M412 60h4v3l4 2v3a1155 1155 0 0 1-4-3.437l-2.25-1.934L412 61z"/><path fill="#fee5ce" d="M326 11c6.625-.25 6.625-.25 10 2v2l-10-3z"/><path fill="#f8f0e9" d="m385 459-1 3h-2l-1 2h-3c1.353-4.059 2.725-5 7-5"/><path fill="#e5631c" d="m109 452 2.875.563c3.024.724 3.024.724 5.125-.563v4l-7-1z"/><path fill="#432b07" d="m336 428 2 1-1 2c-2.066.414-2.066.414-4.562.625l-2.504.227L328 432c2.689-1.792 4.953-2.984 8-4"/><path fill="#292d27" d="M140 420c3.147.7 6.026 1.76 9 3-3.196 1.065-5.657 1.074-9 1z"/><path fill="#efc22e" d="m149 420 6 1v2l3 1c-5.52.368-5.52.368-7.875-1.437C149 421 149 421 149 420"/><path fill="#622c09" d="m129 411 3 1-2 3a192 192 0 0 0-2 7c-1.6-4.002-.293-7.046 1-11"/><path fill="#f3590e" d="m124 409 3 1v6h-3z"/><path fill="#ebc12b" d="M143 389a295 295 0 0 1 3.938.875l2.214.492C151 391 151 391 152 393c-3.625.201-5.865-.142-9-2z"/><path fill="#333537" d="m355 172 3 1-5 6c-.687-1.812-.687-1.812-1-4 1.438-1.75 1.438-1.75 3-3"/><path fill="#5d2d1f" d="M365 113c2.503 2.938 3.47 5.179 4 9h-2c-2.29-3.435-2.178-4.985-2-9"/><path fill="#d76e35" d="M451 105c3.08 2.773 4.688 5.063 6 9-1.875-.562-1.875-.562-4-2-1.25-3.625-1.25-3.625-2-7"/><path fill="#f45a0d" d="M344 56v5h-3l-2-4c3.875-1 3.875-1 5-1"/><path fill="#fde5cc" d="m181 10-11 3 1-3c3.945-.807 6-1 10 0"/><path fill="#2a2d30" d="m296 490 8 2v1l-8 1z"/><path fill="#231c0e" d="m304 407-2 3c-3.625.188-3.625.188-7 0 1.857-3.713 5.306-3.1 9-3"/><path fill="#ef5d13" d="M302 112h2l-1 8h-2q-.062-3.5 0-7z"/><path fill="#d96e35" d="M144 24v3l-8 1c5.217-4 5.217-4 8-4"/></svg>