<svg xmlns="http://www.w3.org/2000/svg" width="500" height="500"><path fill="#b2a5b0" d="M0 0h500v500H0z"/><path fill="#ccc2cb" d="M240 0h260v500H260v-1l1.962-.12c32.4-2.068 61.44-9.427 91.038-22.88l2.672-1.213a290 290 0 0 0 7.203-3.474l2.126-1.006c3.377-1.762 4.824-2.808 6.101-6.45.917-3.94 1.69-7.877 2.332-11.869l.382-2.337c1.623-10.125 2.925-20.295 4.247-30.464 1.84-14.092 3.7-28.165 6.129-42.17 1.121-6.475 2.062-12.875 2.566-19.431 1.853-19.784 1.853-19.784 8.68-26.524 19.378-20.52 33.602-49.307 37.812-77.187l.51-3.37c2.315-16.699 2.086-33.54-.322-50.212A50 50 0 0 1 433 192c-5.894 4.526-11.684 9.164-17.422 13.887L413 208l-2.703 2.27C408 212 408 212 406 212v2h-2v2c-7.727 7.028-17.026 12.04-27.625 12.375A84 84 0 0 1 372 228l-2.355-.215c-10.913-1.544-19.495-8.351-27.688-15.297-3.486-2.933-7.055-5.745-10.644-8.55l-1.895-1.484L325 199c1.266-2.617 2.627-5.078 4.215-7.512l1.313-2.02 1.41-2.155 1.472-2.268q3.704-5.703 7.445-11.38c9.212-14.02 17.57-27.405 22.145-43.665l.542-1.857c3.716-17.39.023-36.413-7.542-52.143l-2-3v-3h-2c-1.159-1.765-2.226-3.59-3.25-5.437a188 188 0 0 0-8.293-13.36c-1.531-2.315-2.934-4.68-4.332-7.078C326.96 28.738 317.552 17.967 300 13l-1.859-.53c-2.226-.489-4.17-.581-6.447-.564l-2.55.008-2.73.016q-2.879-.014-5.758-.032a649 649 0 0 0-9.052.002c-2.918.021-5.834-.002-8.752-.033l-2.719.053c-6.198-.119-6.198-.119-8.94-2.468-1.567-1.885-1.567-1.885-2.848-3.762C246.097 2.865 243.357 2.141 240 1zM0 0h232l-4 2c-4.414 2.656-4.414 2.656-7.648 6.566-3.37 3.487-6.299 3.307-10.977 3.559a641 641 0 0 0-4.883.434l-2.36.214c-12.291 1.309-21.133 8.33-29.023 17.465C168.672 36.048 165.213 42.45 162 49h-2l-.293 2.195c-.807 3.202-2.052 5.042-4.02 7.68-2.187 2.992-4.202 5.912-5.937 9.188C148 71 148 71 145 72c-.504 1.917-.996 3.838-1.406 5.777-.593 2.218-1.399 3.862-2.531 5.848-8.022 15.622-6.942 36.621-2.215 53.07 1.403 4.023 3.079 7.587 5.152 11.305l.488 2.14L145 152l2 1 .375 1.813c.46 2.305.46 2.305 2.34 3.828 3.03 3.129 5.182 6.607 7.472 10.297l1.366 2.13c2.256 3.61 4.015 6.603 4.447 10.932h2l1 4h2c2 3 2 3 2 6h2a125 125 0 0 1 4 6c-11.324 9.368-11.324 9.368-16.645 13.262a340 340 0 0 0-5.867 4.445C140.863 225.367 131.923 228.13 116 227c-11.14-2.041-20.074-11.527-28.27-18.734C81.128 202.462 74.48 196.65 67 192c-1.675 9.65-2.318 18.934-2.26 28.704.01 2.162 0 4.325-.013 6.487-.015 12.746.839 25.538 4.523 37.809l.662 2.264A374 374 0 0 0 72 274l.64 2.014c5.634 17.27 14.325 34.733 26.348 48.404l1.626 1.856a215 215 0 0 0 3.212 3.556c6.396 7.145 7.633 14.596 8.674 23.92q.37 3.063.746 6.125l.375 3.098c.576 4.603 1.248 9.19 1.942 13.777l.38 2.521a370 370 0 0 0 2.12 12.541c1.118 5.943 1.866 11.926 2.64 17.921.703 5.36 1.454 10.713 2.191 16.068a747 747 0 0 1 1.874 14.626c.228 1.917.48 3.83.732 5.745.26 1.985.514 3.971.715 5.963.675 8.49.675 8.49 4.465 15.85 2.673 1.693 5.39 2.81 8.32 4.015q2.197 1.107 4.379 2.246C172.233 489.06 202.946 495.916 235 499v1H0z"/><path fill="#92808f" d="M67 192c4.006 1.503 6.507 3.106 9.625 6.063 4.396 4.07 8.915 7.907 13.578 11.667a336 336 0 0 1 5.656 4.696C107.78 224.485 117.598 227.174 133 226c9.451-1.563 16.114-7.639 23.252-13.572 2.729-2.23 5.546-4.324 8.373-6.428l2.852-2.125L170 202l2.21-1.754C174 199 174 199 176 199.062c2.76 1.294 4.113 2.512 6 4.938.37 2.836.511 5.294.469 8.125l.021 2.375c.03 3.346.013 6.691 0 10.037-.002 2.446.02 4.892.041 7.338l-.034 2.286c.034 3.49.216 5.458 2.345 8.284 2.165 1.723 2.165 1.723 5.158 2.555q.186 7.119.275 14.24.037 2.412.102 4.826c.41 15.489-2.551 28.13-13.377 39.934-6.179 5.39-13.205 9.428-20.371 13.36-3.281 2.047-5.883 4.148-7.629 7.64a81 81 0 0 0-.25 5.375l-.078 2.898c.377 3.13 1.339 4.35 3.328 6.727v2c6.624 1.855 13.014 2.4 19.36-.574 3.301-2.035 6.474-4.186 9.64-6.426q2.342-1.47 4.688-2.937c15.121-10.294 26.188-25.336 30.125-43.375l.582-3.239L217 283l2-1c1.584 12.62 2.723 25.237 3.677 37.919.7 9.226 1.569 18.382 2.765 27.56 1.13 8.913 1.962 17.863 2.845 26.803.338 3.41.686 6.819 1.033 10.228 3.231 32.254 3.231 32.254-2.32 39.49-5.403 5.403-10.794 8.132-18.437 8.375-6.047-.215-10.89-.943-15.47-5.11C184 417.326 184 417.326 184 412c-3.516-1.586-6.274-2.256-10.125-2.266l-2.89-.007-2.985.023-2.984-.023-2.891.007-2.617.007c-2.835.293-4.958.996-7.508 2.259-2.354 3.923-2.237 7.513-2 12 4.355 15.109 13.289 28.676 27.023 36.785A150 150 0 0 0 186 465l2.188.996C196.95 469.69 208.83 470.528 218 468l2.594-.543c10.786-2.392 21.56-6.308 28.406-15.457l1-3c1.488-1.14 1.488-1.14 3.313-2.25 4.015-2.727 5.526-5.428 7.687-9.75l1.51-2.314c4.84-8.722 5.091-20.402 6.025-30.178l.376-3.726c.392-3.885.772-7.771 1.151-11.657q.765-7.684 1.536-15.367l.369-3.708c.638-6.354 1.32-12.695 2.146-19.027.89-6.829 1.502-13.656 2.012-20.523l.262-3.395q.312-4.052.613-8.105l-2-1h3l.148-3.7c.422-9.567 1.108-18.868 2.852-28.3h2l.594 1.844c8.297 24.318 22.05 41.276 45.078 53.226 5.127 2.448 9.761 3.605 15.328 1.93 3.401-1.725 5.38-4.03 7.438-7.25.832-4.07.724-7.748-.438-11.75-2.416-2.919-2.416-2.919-5-5v-2l-2.102-.27c-5.883-1.482-10.884-5.406-15.898-8.73l-2.121-1.371C318.548 301.194 313.394 290.624 311 282c-.22-2.795-.35-5.49-.371-8.285-.01-.779-.018-1.558-.027-2.36a750 750 0 0 1-.028-4.914c-.011-2.5-.06-4.998-.111-7.498q-.015-2.396-.022-4.79l-.059-2.252c.035-4.05.45-5.7 3.09-8.848L316 241c2.033-2.033 1.161-6.253 1.176-9.05q.035-2.498.072-4.995c.035-2.633.064-5.266.078-7.9.015-2.536.056-5.07.1-7.606l-.006-2.38c.08-3.599.282-5.673 2.476-8.59C322 199 322 199 324.246 198.876c4.139 1.69 7.34 4.35 10.817 7.125l4.566 3.559q2.187 1.719 4.371 3.441c12.645 10.029 12.645 10.029 28 14l2.012.191c10.126.564 18.719-3.239 26.246-9.8C402 216 402 216 404 216v-2h2v-2c1.582-1.41 1.582-1.41 3.813-3.062 4.632-3.498 9.127-7.136 13.609-10.825L426 196l2.703-2.27C431 192 431 192 433 192c8.3 36.424 2.814 75.384-15 108l-1.715 3.172c-5.79 10.3-12.303 20.016-20.785 28.265-5.993 6.293-6.019 12.212-6.5 20.563l-1 3c-.258 1.667-.482 3.34-.684 5.016l-.369 3.02-.385 3.214-.804 6.559-.394 3.222q-.692 5.643-1.426 11.281l-.41 3.176a235 235 0 0 1-1.473 8.584c-.989 5.411-1.764 10.828-2.457 16.283l-.76 5.827q-.582 4.493-1.158 8.99c-.739 5.743-1.51 11.481-2.324 17.215a323 323 0 0 0-.9 7.393c-1.251 9.828-1.251 9.828-4.307 13.358-2.314 1.615-4.56 2.745-7.149 3.862q-2.35 1.245-4.7 2.492-2.486 1.208-4.988 2.383l-2.744 1.292C297.093 502.847 236.418 506.788 180 490l-2.528-.744c-11.07-3.347-21.497-7.958-31.91-12.943l-3.54-1.694c-9.889-4.841-9.889-4.841-14.022-8.619-1.074-3.328-1.074-3.328-1.687-7.25l-.352-2.155c-.945-5.949-1.66-11.93-2.36-17.911-.873-7.122-2.053-14.202-3.193-21.285-.79-4.999-1.495-9.959-1.904-15.004-.376-4.56-1.112-8.967-1.973-13.457-1.019-5.637-1.713-11.323-2.469-17-1.728-12.731-1.728-12.731-3.624-25.438l-.31-2.133c-1.07-6.585-3.944-10.364-8.44-15.117-4.113-4.498-7.454-9.102-10.688-14.25l-1.57-2.27c-17.588-25.971-25.589-56.177-25.67-87.242-.01-2.22-.041-4.44-.072-6.66C63.62 209.467 64.6 201.101 67 192"/><path fill="#fefefe" d="M374 0h126v500H260v-1l1.962-.12C311.328 495.728 356.82 479.443 396 449l2.441-1.852c30.65-23.731 55.301-55.748 70.059-91.605a92 92 0 0 1 3.473-7.305c2.473-4.885 3.967-9.985 5.464-15.238.3-1.04.6-2.082.907-3.154 3.137-11.168 5.571-22.44 7.656-33.846l.402-2.086c2.817-15.002 1.846-30.713 1.598-45.914l-.026-2.597c-.384-28.665-9.6-57.794-21.036-83.84l-.959-2.186c-1.844-4.22-1.844-4.22-4.25-8.127-5.321-7.624-4.402-16.394-4.33-25.277q-.009-2.636-.025-5.27c-.023-4.608-.019-9.215-.006-13.823q.026-11.054-.026-22.107c-.006-2.558.007-5.116.022-7.674.007-9.956-.298-19.443-6.176-27.912l-1.395-2.082c-4.126-4.845-9.39-8.324-14.668-11.792l-1.952-1.293c-6.718-4.422-13.546-8.666-20.38-12.903a726 726 0 0 1-7.48-4.742l-2.614-1.652a363 363 0 0 1-5.804-3.79C389.517 6.148 382.535 3.124 374 1zM0 0h125c-2.63 1.754-4.193 2.444-7.133 3.285-5.118 1.654-9.276 4.2-13.742 7.153l-5 3.23c-.846.55-1.691 1.102-2.562 1.67-4.123 2.674-8.28 5.292-12.438 7.912l-2.395 1.516a887 887 0 0 1-13.918 8.609C56.39 40.406 46.877 47.528 43.46 61.153c-.573 3.549-.596 7.032-.586 10.616l-.006 2.322q-.006 2.49-.006 4.978c-.004 3.538-.025 7.075-.045 10.612-.038 6.579-.07 13.157-.067 19.735q-.002 6.876-.062 13.75-.015 2.61-.005 5.22c.037 9.317.003 16.813-5.683 24.614-10.748 20.793-18.415 43.906-22.125 67l-.512 3.04C10.56 246.223 10.592 270.742 14 294l.407 2.81c1.665 11.162 3.738 21.98 7.398 32.667 1.07 3.156 1.95 6.308 2.82 9.523 5.34 17.434 14.272 35.481 24.64 50.477a290 290 0 0 1 4.157 6.234l1.317 2.014a744 744 0 0 1 2.57 3.96c2.566 3.898 5.322 7.056 8.691 10.315a348 348 0 0 1 3.639 4.35C78.96 427.74 89.233 438.135 101 447l4.313 3.438C116.62 459.144 128.367 466.392 141 473l2.225 1.172C171.985 489.123 202.982 495.92 235 499v1H0z"/><path fill="#928090" d="M67 192c4.006 1.503 6.507 3.106 9.625 6.063 4.396 4.07 8.915 7.907 13.578 11.667a336 336 0 0 1 5.656 4.696C107.78 224.485 117.598 227.174 133 226c9.451-1.563 16.114-7.639 23.252-13.572 2.729-2.23 5.546-4.324 8.373-6.428l2.852-2.125L170 202l2.21-1.754C174 199 174 199 176 199.062c2.76 1.294 4.113 2.512 6 4.938.37 2.836.511 5.294.469 8.125l.021 2.375c.03 3.346.013 6.691 0 10.037-.002 2.446.02 4.892.041 7.338l-.034 2.286c.034 3.49.216 5.458 2.345 8.284 2.165 1.723 2.165 1.723 5.158 2.555q.186 7.119.275 14.24.037 2.412.102 4.826c.41 15.489-2.551 28.13-13.377 39.934-6.179 5.39-13.205 9.428-20.371 13.36-3.281 2.047-5.883 4.148-7.629 7.64a81 81 0 0 0-.25 5.375l-.078 2.898c.377 3.13 1.339 4.35 3.328 6.727v2c6.624 1.855 13.014 2.4 19.36-.574 3.301-2.035 6.474-4.186 9.64-6.426q2.342-1.47 4.688-2.937c15.121-10.294 26.188-25.336 30.125-43.375l.582-3.239L217 283l2-1c1.584 12.62 2.723 25.237 3.677 37.919.7 9.226 1.569 18.382 2.765 27.56 1.13 8.913 1.962 17.863 2.845 26.803.338 3.41.686 6.819 1.033 10.228 3.231 32.254 3.231 32.254-2.32 39.49-5.403 5.403-10.794 8.132-18.437 8.375-6.047-.215-10.89-.943-15.47-5.11C184 417.326 184 417.326 184 412c-3.741-1.726-6.63-2.24-10.738-2.195l-3.233.02-3.341.05-3.4.027q-4.145.036-8.288.098c-1.762-9.94-3.37-19.826-4.177-29.896-.543-5.81-1.438-11.11-6.136-15.038L142 363.563c-9.457-5.582-18.917-12.094-27-19.563v-2l-3-1c-2-2-2-2-3.852-4.328-2.078-2.585-4.263-4.996-6.523-7.422-4.069-4.5-7.405-9.124-10.625-14.25l-1.57-2.27c-17.588-25.971-25.589-56.177-25.67-87.242-.01-2.22-.041-4.44-.072-6.66C63.62 209.467 64.6 201.101 67 192"/><path fill="#fbd831" d="M41 144h3v16h2l.805 2.117 1.07 2.758 1.055 2.742c.955 2.505.955 2.505 3.07 4.383l.875 2.313C55.081 179.582 58.151 182.212 63 185c2.168 1.684 2.168 1.684 4 4 .207 3.094.207 3.094-.187 6.5l-.356 3.406C66 202 66 202 65.482 203.74c-1.121 5.26-.668 10.844-.667 16.21a898 898 0 0 1-.04 6.754c-.051 12.932.734 25.836 4.475 38.297l.662 2.264A374 374 0 0 0 72 274l.64 2.014c5.634 17.27 14.325 34.733 26.348 48.404l1.626 1.856a215 215 0 0 0 3.212 3.556c6.396 7.145 7.633 14.596 8.674 23.92q.37 3.063.746 6.125l.375 3.098c.576 4.603 1.248 9.19 1.942 13.777l.38 2.521a370 370 0 0 0 2.12 12.541c1.118 5.943 1.866 11.926 2.64 17.921.577 4.405 1.191 8.804 1.797 13.204.904 6.578 1.769 13.158 2.563 19.75.655 5.378 1.483 10.674 2.57 15.981.39 2.48.43 4.826.367 7.332-9.424-4.363-17.438-10.389-25.46-16.934a245 245 0 0 0-5.017-3.976c-12.238-9.595-23.803-20.76-32.664-33.574-1.825-2.608-1.825-2.608-4.293-4.907-2.931-2.98-5.114-6.113-7.379-9.609l-1.318-2.02q-1.326-2.038-2.642-4.083a365 365 0 0 0-3.23-4.89c-4.706-7.248-8.492-14.857-12.247-22.632l-1.539-3.18A188 188 0 0 1 24 340l-.883-2.548c-3.969-11.672-6.896-23.364-8.992-35.514l-.615-3.563C9.709 274.995 8.96 249.428 13 226l.375-2.343C16.576 203.814 21.973 184.439 30 166l1.79-4.254q.915-2.155 1.835-4.309l.84-1.986c1.818-4.175 3.743-7.87 6.535-11.451"/><path fill="#fbd830" d="M458 144c29.011 35.706 34.864 98.08 30.504 141.93-.625 5.065-1.512 10.065-2.504 15.07l-.536 2.79c-3.596 18.43-8.079 36.339-16.464 53.21a639 639 0 0 0-1.84 4.043c-4.419 9.754-9.348 18.963-15.16 27.957l-1.49 2.307C443.728 401.714 436.641 411.08 428 420a359 359 0 0 0-3.625 4.188c-8.522 9.803-18.193 18.318-28.5 26.187l-2.203 1.684C375.226 466 375.226 466 372 466q.177-2.907.375-5.812c.07-1.08.14-2.158.21-3.27.325-3.07.775-5.984 1.351-9.01 1.003-5.439 1.792-10.884 2.502-16.369l.38-2.886q.595-4.514 1.182-9.028c1.863-14.24 3.737-28.457 6.192-42.609 1.121-6.474 2.062-12.874 2.566-19.43 1.853-19.784 1.853-19.784 8.68-26.524 19.378-20.52 33.602-49.307 37.812-77.187l.51-3.37c2.579-18.604 2.799-38.8-1.647-57.17C432 190 432 190 434.133 187.489l2.992-2.175 2.945-2.2L443 181c3.961-3.004 6.302-5.814 9-10l2-1c2.301-5.268 2.633-10.717 3.125-16.375l.262-2.809q.315-3.406.613-6.816"/><path fill="#b5a9b3" d="M393.125 7.5a647 647 0 0 1 4.997 3.268c2.82 1.85 5.686 3.63 8.546 5.419 7.713 4.834 15.376 9.746 23.02 14.688l2.463 1.585c11.437 7.423 21.831 14.83 25.411 28.721.579 3.727.577 7.406.567 11.167l.006 2.51q.004 4.103-.002 8.204 0 2.87.003 5.737.002 6.018-.006 12.034-.006 7.665.004 15.328.005 5.93 0 11.86 0 2.823.002 5.645c.032 32.762.032 32.762-6.074 39.459L450 175l-1.723 2.305c-3.054 3.615-6.7 6.187-10.5 8.945-3.532 2.622-6.048 5.335-8.777 8.75-2.184 1.928-4.49 3.68-6.812 5.438q-1.88 1.443-3.754 2.89l-1.802 1.389c-2.022 1.59-3.959 3.263-5.882 4.97C408 212 408 212 406 212v2h-2v2c-7.727 7.028-17.026 12.04-27.625 12.375-7.258-.382-14.037-1.706-20.375-5.375l2-3h2v-2c3.462-3 3.462-3 6-3v-2c1.941-1.77 1.941-1.77 4.563-3.812l2.765-2.165a195 195 0 0 1 6.485-4.71c3.077-2.233 5.538-4.597 8.187-7.313a218 218 0 0 1 3.688-3.312l1.761-1.551C395 189 395 189 397 189v-2c3.462-3 3.462-3 6-3v-2c4.47-4 4.47-4 7-4l.875-2.187L414 168h2l.438-2.875C417 162 417 162 418 160c.104-2.943.147-5.862.145-8.805l.01-2.765q.013-4.545.013-9.09l.01-6.317q.009-6.633.007-13.268c0-5.653.014-11.307.031-16.96q.015-6.531.013-13.062 0-3.124.013-6.249c.01-2.924.007-5.849 0-8.773.007-.853.012-1.706.018-2.585-.042-8.116-1.402-14.935-5.26-22.126v-2h-2c-3.044-2.74-5.444-5.18-7-9h-3v-2l-1.602-.262c-3.283-1.01-5.867-2.725-8.773-4.55l-3.336-2.083L384 28l-1.751-1.083c-1.451-.92-2.855-1.913-4.249-2.917v-2l-2.145-.273c-3.43-.873-5.634-2.34-8.543-4.352l-3.152-2.164L361 13l-3.004-2.086Q354.49 8.47 351 6c10.666-11.9 30.653-5.488 42.125 1.5"/><path fill="#97d226" d="M26 342q16.403-.034 32.805-.052 7.616-.007 15.23-.023 7.344-.016 14.687-.02 2.808-.003 5.616-.01 3.918-.01 7.838-.009l2.369-.01c5.34.01 5.34.01 6.455 1.124.263 1.468.468 2.946.648 4.426l.354 2.825.373 3.062c1.622 12.867 3.284 25.75 5.688 38.5 1.118 5.942 1.866 11.925 2.64 17.92.577 4.405 1.191 8.804 1.797 13.204.904 6.578 1.769 13.158 2.563 19.75.655 5.378 1.483 10.674 2.57 15.981.39 2.48.43 4.826.367 7.332-9.424-4.363-17.438-10.389-25.46-16.934a245 245 0 0 0-5.017-3.976c-12.238-9.595-23.803-20.76-32.664-33.574-1.825-2.608-1.825-2.608-4.293-4.907-2.931-2.98-5.114-6.113-7.379-9.609l-1.318-2.02q-1.326-2.038-2.642-4.083a365 365 0 0 0-3.23-4.89C26 355.2 26 355.2 26 342M395.455 341.876l2.37.01h2.483c2.721 0 5.443.009 8.165.016l5.645.005q7.445.006 14.89.024 7.59.014 15.181.02 14.906.016 29.811.049-.455 2.146-.918 4.288l-.517 2.413C468.285 366.126 455.95 385.03 445 399a1752 1752 0 0 0-3.938 5.563c-3.37 4.638-7.024 8.89-10.91 13.101a232 232 0 0 0-5.652 6.399c-8.585 9.834-18.265 18.403-28.625 26.312l-2.203 1.684C375.226 466 375.226 466 372 466q.177-2.907.375-5.812l.21-3.27c.325-3.07.775-5.984 1.351-9.01 1.003-5.439 1.792-10.884 2.501-16.369l.381-2.886q.595-4.514 1.182-9.028c1.863-14.24 3.737-28.457 6.192-42.609 1.12-6.466 2.064-12.859 2.562-19.407 1.482-15.72 1.482-15.72 8.701-15.733"/><path fill="#7a6a77" d="M389 338h1q-.212 3.407-.437 6.813l-.247 3.832C389 352 389 352 388 355c-.258 1.667-.482 3.34-.684 5.016l-.369 3.02-.385 3.214-.804 6.559-.394 3.222q-.692 5.643-1.426 11.281l-.41 3.176a235 235 0 0 1-1.473 8.584c-.989 5.411-1.764 10.828-2.457 16.283l-.76 5.827q-.582 4.493-1.158 8.99c-.739 5.743-1.51 11.481-2.324 17.215a323 323 0 0 0-.9 7.393c-1.248 9.812-1.248 9.812-4.276 13.343-2.322 1.626-4.58 2.751-7.18 3.877q-2.596 1.367-5.191 2.738a732 732 0 0 1-5.372 2.575l-2.708 1.337c-5.345 2.553-9.809 3.984-15.729 4.35 1-8.53 2.125-17.022 3.5-25.5a529 529 0 0 0 2.969-21.203c.739-6.08 1.588-12.143 2.423-18.21.57-4.144 1.139-8.29 1.674-12.439.711-5.496 1.455-10.954 2.497-16.398 1.029-5.39 1.535-10.782 1.937-16.25h2l.195-2.762c1.005-4.043 2.23-4.835 5.68-7.05l2.68-1.77C362 360 362 360 365 359l1.438-1.5c1.562-1.5 1.562-1.5 3.625-1.937L372 355l.938-1.937C374 351 374 351 376.625 349.75L379 349v-2c1.68-1.656 1.68-1.656 3.875-3.5 2.115-1.79 4.165-3.54 6.125-5.5"/><path fill="#7a6a76" d="M110 338c3.606 2.782 6.783 5.783 10 9 7.752 6.365 15.812 12.108 24.59 16.969 6.607 5.568 7.26 13.57 8.097 21.719l.365 3.205c.819 7.354 1.53 14.718 1.948 22.107l-3 1c-2.24 4.01-2.262 7.478-2 12 .802 2.575 1.635 4.914 2.688 7.375l.74 1.844c1.461 3.537 3.144 6.743 5.135 10.011 3.014 5.332 3.877 10.703 4.75 16.707l.51 3.092c.995 6.37 1.394 12.528 1.177 18.971-7.445.987-13.1-2.495-19.625-5.75l-3.39-1.633c-9.803-4.796-9.803-4.796-13.985-8.617-1.074-3.328-1.074-3.328-1.687-7.25l-.352-2.155c-.945-5.949-1.66-11.93-2.36-17.911-.873-7.122-2.053-14.202-3.193-21.285-.79-4.999-1.495-9.959-1.904-15.004-.376-4.554-1.11-8.955-1.969-13.44-1.037-5.726-1.76-11.5-2.535-17.267l-1-7.364-.492-3.647c-.675-4.886-1.404-9.765-2.14-14.643A54 54 0 0 1 110 338"/><path fill="#60b0b6" d="M246.18 2.746c5.83 4.016 8.401 9.54 9.82 16.254q.123 2.812.188 5.625c.213 3.258.397 4.865 2.472 7.418a89 89 0 0 0 4.293 3.414c2.822 2.127 4.79 4.835 7.047 7.543a141 141 0 0 0 3.5 3.063c4.003 3.417 7.762 7.047 11.5 10.75l1.783 1.744C288.23 59.999 289.62 61.495 291 63v2l-2 1 2.45 2.45c6.437 6.437 6.437 6.437 8.012 8.028 1.441 1.426 2.936 2.799 4.433 4.167C306 83 306 83 306 87c-5.076 1.981-9.601 3.08-14.941 1.383-5.108-2.26-8.616-5.619-12.395-9.676-1.569-1.796-1.569-1.796-3.664-2.707v-2l-1.844 1.094c-9.602 5.083-19.897 5.422-30.406 2.969C232.96 74.54 224.67 67.242 220 58c-4.264-9.24-4.238-18.382-4.312-28.375l-.088-3.906c-.053-7.955.184-14.1 5.777-20.228 7.25-6.612 16.426-7.459 24.803-2.745"/><path fill="#f9f7f9" d="M291 246h19l.043 7.016c.03 2.284.07 4.567.11 6.851q.034 2.35.043 4.701c.042 10.194.942 18.227 5.804 27.432l1.41 2.799c6.072 11.658 17.164 16.933 28.59 22.201v2l1.813.563c3.206 2.106 4.31 4.828 5.187 8.437.427 4.952-.769 8.14-3.937 11.938-3.212 3.464-5.302 4.268-10.028 4.464-6.631-.07-11.05-2.411-16.598-5.84l-2.778-1.66C313.07 332.879 307.222 328.736 302 323l-2.082-2.215C292.178 311.89 285.616 299.568 283 288l-.566-2.246c-2.265-13.077 3.58-27.87 8.566-39.754M190 246h19c2.925 5.85 4.535 9.203 5.688 15.25l.699 3.578L216 268l.563 1.957c3.065 14.314-1.189 28.132-8.723 40.27-9.827 14.814-21.751 23.43-37.157 31.808-1.659.854-1.659.854-2.683 1.965a99 99 0 0 1-5.812.188l-3.208.042c-4.397-.34-6.26-1.449-9.23-4.668-2.372-4.827-2.606-9.265-1.75-14.562 2.032-4.581 4.722-6.397 9-8.875l3.508-2.09a907 907 0 0 1 6.547-3.789C178.629 303.337 185.3 292.89 189 280c.227-2.704.37-5.318.414-8.023l.059-2.262c.06-2.363.106-4.726.152-7.09l.117-4.832c.097-3.93.177-7.862.258-11.793"/><path fill="#48929c" d="M259.063 31.418C263.06 35.069 266.529 38.835 270 43a141 141 0 0 0 3.5 3.063c4.003 3.417 7.762 7.047 11.5 10.75l1.783 1.744C288.23 59.999 289.62 61.495 291 63v2l-2 1 2.45 2.45c6.437 6.437 6.437 6.437 8.012 8.028 1.441 1.426 2.936 2.799 4.433 4.167C306 83 306 83 306 87c-5.885 2.297-10.965 3.13-16.875.563C284.032 84.77 279.381 80.719 276 76c.182-2.974.709-3.737 2.938-5.75C281 69 281 69 283 69v-2h2v-2l-2.934.048c-3.612.054-7.224.088-10.836.117q-2.34.022-4.678.061c-2.25.037-4.498.054-6.747.067-.691.015-1.382.03-2.094.047-5.834.002-9.713-1.605-14.086-5.403C242 58 242 58 242 56h-2c-1.774-6.535-3.083-12.683 0-19 5.169-6.041 11.505-10.778 19.063-5.582"/><path fill="#fdfdfd" d="M240 0h123c-2.657 1.771-4.598 2.607-7.562 3.625-7.545 2.983-13.065 8.248-19.04 13.598l-1.891 1.672a249 249 0 0 0-3.686 3.332c-1.72 1.527-1.72 1.527-4.821 3.773-3.245-.437-4.807-1.49-7.125-3.75-9.53-8.471-20.576-10.565-32.95-10.418l-5.708-.021c-2.963-.005-5.924.002-8.887.034-2.886.027-5.769.01-8.654-.013l-2.671.062c-6.076-.095-6.076-.095-8.802-2.44-1.566-1.885-1.566-1.885-2.852-3.763C246.096 2.87 243.359 2.142 240 1zM134 0h98l-4 2c-4.414 2.656-4.414 2.656-7.648 6.566-3.37 3.487-6.299 3.307-10.977 3.559a641 641 0 0 0-4.883.434l-2.36.214C192.123 13.839 183.888 18.735 177 26c-4.546-1.279-7.325-3.89-10.738-6.984-6.686-6.14-6.686-6.14-14.262-11.016V6c-5.933-2.104-11.828-3.76-18-5z"/><path fill="#98d22a" d="M297 446h2c4.244 10.418 5.317 19.757 5 31h2l1-3h2l1-4h2v-2a875 875 0 0 1 4.375-2l2.46-1.125C321 464 321 464 323 464c-1.14 3.042-2.452 5.927-3.937 8.813-3.215 6.381-5.148 12.06-6.063 19.187-23.72 6.2-23.72 6.2-33 6l4-1c-2.543-14.686-2.543-14.686-9-28v-3c5.75.75 5.75.75 8 3 1.965.888 1.965.888 4.125 1.625.724.26 1.449.52 2.195.79.555.192 1.109.386 1.68.585l.332-2.71c2.125-16.203 2.125-16.203 5.668-23.29"/><path fill="#cdc2cb" d="M213 259q6.625.21 13.25.438l3.8.119 3.653.127 3.364.11c2.5.176 4.589.342 6.933 1.206 2.719 3.172 3.897 5.362 4.563 9.5-.752 4.674-2.198 6.214-5.563 9.5-2.952.984-4.75 1.092-7.816 1.027l-2.815-.037q-2.937-.053-5.875-.117l-2.81-.033-2.577-.051c-2.326.008-2.326.008-4.107 2.211l-.367-2.965-.508-3.973-.492-3.902c-.62-4.445-1.602-8.794-2.633-13.16"/><path fill="#cbc0c9" d="M220 296c3.437-.058 6.875-.094 10.313-.125.976-.017 1.952-.034 2.958-.05l2.842-.02 2.619-.032C241 296 241 296 244 298v2h2c2.6 3.9 2.15 7.474 2 12h-2l-.812 1.875C244 316 244 316 241 318c-2.085.227-2.085.227-4.45.195l-2.568-.02-2.67-.05-2.705-.027A825 825 0 0 1 222 318c-.908-2.725-1.184-4.622-1.316-7.45l-.127-2.568-.12-2.67-.13-2.705q-.159-3.303-.307-6.607"/><path fill="#9cc940" d="M255 450v50h-20v-1h10v-40l-2-1a324 324 0 0 1 3.75-4l2.11-2.25C251 450 251 450 255 450"/><path fill="#e6c95d" d="M41 144h3v16h2l.805 2.117 1.07 2.758 1.055 2.742c.955 2.505.955 2.505 3.07 4.383l.875 2.313C55.081 179.582 58.151 182.212 63 185c2.168 1.684 2.168 1.684 4 4 .207 3.094.207 3.094-.187 6.5l-.356 3.406C66 202 66 202 65.482 203.74c-1.121 5.26-.668 10.844-.667 16.21a898 898 0 0 1-.04 6.754c-.051 12.932.734 25.836 4.475 38.297l.662 2.264A374 374 0 0 0 72 274l.64 2.014c6.576 20.16 17.256 38.354 31.274 54.167C110 337.093 110 337.093 110 342h-3v-6h-2v-2h-5c-3-5.625-3-5.625-3-9l-5-2v-2h-2c-.23-.534-.461-1.067-.7-1.617-4.166-10.582-4.166-10.582-10.612-19.695C77 298 77 298 76.75 295.25L77 293h-2l-4-17h-2c-1.735-7.334-1.735-7.334-2.43-10.326l-.55-2.361-.505-2.176c-.53-2.202-1.115-4.387-1.703-6.574C59.9 236.56 61.279 216.062 64 198q.502-3.5 1-7l-1.875-.687C60.371 188.61 60.178 186.946 59 184l-1.836-.906c-2.599-1.314-3.93-2.866-5.789-5.094-1.748-2.077-3.455-4.08-5.375-6-3.702-7.865-4.152-15.43-4-24l-3 1z"/><path fill="#ccc1ca" d="M224 333a550 550 0 0 1 8.688-.25l2.474-.102c4.14-.067 6.265-.006 9.858 2.243 2.812 2.996 3.118 4.602 3.105 8.609l.008 2.406C248 348 248 348 247 350h-2l-.312 1.938L244 354c-3.619 1.206-6.925 1.108-10.687 1.063l-2.127-.014q-2.594-.02-5.186-.049a759 759 0 0 1-1-5.937l-.562-3.34c-.502-4.27-.526-8.43-.438-12.723"/><path fill="#564c55" d="M209.5 105.438c4.005.643 5.66 1.721 8.5 4.562 1.557 3.115 1.267 6.396 1.313 9.813l.087 2.158c.045 3.734-.258 5.808-2.295 8.978-2.706 2.636-3.618 2.996-7.417 3.426C206 134 206 134 203.308 132.039c-3.113-4.1-3.055-7.029-2.933-12.039l-.059-2.406c.036-4.3.312-6.109 3.004-9.621C206 106 206 106 209.5 105.438"/><path fill="#564b55" d="M293 106c2.7 1.8 4.542 3.084 6 6 .151 2.619.231 5.193.25 7.813l.063 2.158c.033 4.541-.49 7.433-3.313 11.029-3.185 1.593-6.533 1.391-10 1-3.236-1.743-3.824-2.472-5-6a150 150 0 0 1-.312-7.875l-.088-2.145c-.045-3.72.264-5.77 2.295-8.925 3.331-3.252 5.494-3.507 10.105-3.055"/><path fill="#ccc1cb" d="M228 370a382 382 0 0 1 6.188-.187l3.48-.106c4.603.405 7.115 2.076 10.332 5.293.65 4.291.467 8.002-1.375 11.938C245 389 245 389 243 391c-3.258.195-3.258.195-7.125.125l-3.883-.055L229 391c-.939-7.04-1.108-13.903-1-21"/><path fill="#cdc3cd" d="M231 406c10.775-.565 10.775-.565 15 3 2.476 3.714 2.54 6.696 2 11-1.79 4.242-3.875 6.048-8 8-2.857.21-5.472.286-8.312.188l-2.245-.042c-1.814-.035-3.629-.088-5.443-.146l1.277-2.273c3.568-6.665 5.69-12.132 5.723-19.727"/><path fill="#747a54" d="M389 338h1q-.212 3.407-.437 6.813l-.247 3.832C389 352 389 352 388 355c-.258 1.667-.482 3.34-.684 5.016l-.369 3.02-.385 3.214-.804 6.559-.394 3.222q-.692 5.643-1.426 11.281l-.41 3.176a235 235 0 0 1-1.473 8.584c-.989 5.411-1.764 10.828-2.457 16.283l-.76 5.827q-.582 4.493-1.158 8.99c-1.546 12.025-3.263 23.943-5.68 35.828h-2c-.562-1.937-.562-1.937-1-4l1-1c.162-2.773.279-5.537.375-8.312.235-5.268.534-10.22 2-15.313 2.56-8.955 3.215-18.322 4.289-27.546a624 624 0 0 1 1.461-11.204c.67-4.885 1.197-9.752 1.531-14.672C380 382 380 382 382 379c.336-2.326.57-4.668.746-7.012l.35-4.236q.257-3.32.506-6.641C385.06 341.94 385.06 341.94 389 338"/><path fill="#8a8f68" d="M296 443c2.25-.062 2.25-.062 5 1 3.968 5.509 4.502 11.7 4.727 18.3.275 2.716.892 4.374 2.273 6.7l3.125-1.937c3.261-1.88 6.095-2.694 9.875-3.063-2.686 2.686-5.376 3.06-9 4v2l-2 1-1 3c-1.437 1.688-1.437 1.688-3 3h-2l-.078-2.21c-.537-9.888-2.605-19.188-4.922-28.79h-2l-.805 3.656-1.07 4.844-.527 2.398A493 493 0 0 1 291 472c-5.467-1.748-10.758-3.658-16-6l1.207 2.133c4.844 9.028 8.142 18.492 7.793 28.867h-2l-.148-1.863-.227-2.45c-.07-.8-.14-1.6-.21-2.425-.31-2.534-.31-2.534-2.415-5.262a100 100 0 0 1-1.625-5.5c-.26-.96-.52-1.918-.79-2.906C276 474 276 474 276 471h-3c-1.354-2.709-1.065-5.01-1-8 7.533-.37 7.533-.37 9.813 1.438L283 466l3 1v2c3.169-1.65 3.169-1.65 3.695-4.348l.43-2.714c.794-4.857.794-4.857 1.875-5.938.23-1.347.412-2.704.563-4.062L293 448h2z"/><path fill="#f8d845" d="M456 164h1c.367 7.466.367 7.466-1.375 10-1.625 1-1.625 1-3.625 1l-.617 2.223c-1.498 3.007-3.085 4.203-5.828 6.062-4.199 2.88-7.206 5.168-8.38 10.371.015 4.709.333 8.868 1.825 13.344.085 2.804.116 5.583.098 8.387l-.005 2.476c-.005 2.608-.018 5.216-.03 7.825q-.009 2.652-.014 5.306-.017 6.502-.049 13.006h-2l.125 2.54c-.14 3.9-.998 7.103-2.125 10.835l-1.125 3.773L433 264c-1.342-4.414-.38-8.185.438-12.625 3.113-18.741 3.166-39.483-1.325-58.04C432 190 432 190 434.133 187.489l2.992-2.175 2.945-2.2L443 181c3.961-3.004 6.302-5.814 9-10l2-1c.727-1.979 1.398-3.98 2-6"/><path fill="#9bc248" d="M111 352h1c4.188 26.625 4.188 26.625 5.605 39.121.313 2.942.313 2.942 1.395 5.879.322 2.1.608 4.205.875 6.313l.523 4.054.289 2.237c.582 4.448 1.201 8.89 1.813 13.334.904 6.577 1.769 13.157 2.563 19.75.655 5.377 1.483 10.673 2.57 15.98.39 2.48.43 4.826.367 7.332-5.451-2.582-10.175-5.381-15-9l2-1c2.383.996 2.383.996 5.125 2.438l2.758 1.433L125 461l-.335-2.089c-3.633-22.63-3.633-22.63-4.79-30.223-1.459-9.995-1.459-9.995-3.371-19.907-.598-3.298-.906-6.586-1.223-9.923-.517-5.253-1.155-10.492-1.781-15.733l-.395-3.375-.386-3.242-.346-2.918c-.317-2.527-.317-2.527-.912-4.705-.774-3.165-.563-6.397-.523-9.635l.013-2.113q.02-2.57.049-5.137"/><path fill="#a2c951" d="m443 397 2 2c-4.596 6.587-9.4 12.76-14.848 18.664a232 232 0 0 0-5.652 6.399c-8.585 9.834-18.265 18.403-28.625 26.312l-2.203 1.684C375.226 466 375.226 466 372 466c.491-8.131 1.353-16.02 3-24h1q.04 3.938.063 7.875l.025 2.262c.025 5.636.025 5.636-1.088 7.863 6.041-1.867 10.177-4.414 15.02-8.477C392 450 392 450 395 449v-2l2-1v-2h4l.688-1.687c2.353-4.147 5.192-6.786 9.5-8.813 3.422-1.825 3.472-3.015 4.812-6.5a125 125 0 0 1 5-2c1.344-2.017 1.344-2.017 2-4h3l1-4h2v-2h2v-4l1.938-.75c2.25-1.066 2.25-1.066 2.812-3.375L436 405h2v-3c1.375-1.687 1.375-1.687 3-3h2z"/><path fill="#f2ecf1" d="M180.563 327.813C184 329 184 329 185.215 331.074L186 333l-1.545.902a7611 7611 0 0 0-6.893 4.036l-2.431 1.42-2.315 1.357-2.142 1.254c-1.643.923-1.643.923-2.674 2.031a99 99 0 0 1-5.812.188l-3.208.042c-2.9-.224-4.528-.728-6.98-2.23v-2l2.457-.848c5.956-2.156 11.153-4.381 16.356-8.027 3.398-2.28 5.606-3.648 9.75-3.312"/><path fill="#757c51" d="M110 338c2.6 2.234 3.401 3.635 3.752 7.034l.273 2.452.256 2.65.302 2.765c.318 2.928.619 5.857.917 8.786q.597 5.726 1.219 11.45l.305 2.818c.786 6.975 1.918 13.821 3.304 20.7.828 4.12 1.495 8.254 2.145 12.404.409 2.282.927 4.546 1.488 6.796 1.56 6.906 1.987 13.981 2.602 21.02q.28 3.18.57 6.36.26 2.86.51 5.722c.257 3.082.257 3.082 1.357 6.043.069 1.895.085 3.792.063 5.688l-.028 3.011L129 466h-1c-1.812-9.083-3.322-18.111-4.398-27.316-.874-7.122-2.054-14.202-3.194-21.285-.79-4.999-1.495-9.959-1.904-15.004-.376-4.554-1.11-8.955-1.969-13.44-1.037-5.726-1.76-11.5-2.535-17.267l-1-7.364-.492-3.647c-.675-4.886-1.404-9.765-2.14-14.643A54 54 0 0 1 110 338"/><path fill="#9cc747" d="M297 446h2c4.244 10.418 5.317 19.757 5 31-3.58-3.58-3.953-8.05-4.195-12.965l.07-3.973.027-2.072c.024-1.663.06-3.327.098-4.99-4.606 3.685-4.386 9.485-5 15-.092 2.346-.049 4.65 0 7-.5 2.438-.5 2.438-1 4-2.741-.37-4.586-.686-6.812-2.375C286 475 286 475 286 472c-3.386-1.51-3.386-1.51-7-2v3h2v5c-6-7.714-6-7.714-6-12 5.75.75 5.75.75 8 3 1.965.888 1.965.888 4.125 1.625.724.26 1.449.52 2.195.79.555.192 1.109.386 1.68.585l.332-2.71c2.125-16.203 2.125-16.203 5.668-23.29"/><path fill="#eddc6d" d="M474 180c3.22 3.565 4.25 7.585 5.438 12.125l.643 2.393c6.189 23.37 8.992 45.826 9.044 69.982l.008 2.133c.02 7.184.021 14.259-1.133 21.367h-1l-.011-1.826c-.043-6.395-.112-12.788-.197-19.182q-.041-3.558-.063-7.116c-.126-19.76-2.051-38.39-7.995-57.294C478 200 478 200 478 197h-2c-.832-3.77-1.266-7.464-1.562-11.312l-.254-3.239z"/><path fill="#9b866c" d="M67 192h1l-1 20h-2l2 40 3 1 .297 2.352c1.52 10.987 4.515 21.334 8.11 31.804.724 2.252 1.216 4.51 1.593 6.844-14.553-17.023-16.184-47.233-16.24-68.512-.01-2.22-.041-4.44-.072-6.66C63.62 209.467 64.6 201.101 67 192"/><path fill="#a2ca55" d="M323 464c-1.14 3.042-2.452 5.927-3.937 8.813-3.215 6.381-5.148 12.06-6.063 19.187-23.72 6.2-23.72 6.2-33 6l4-1-.656-3.14-.844-4.11-.434-2.066c-.679-3.33-1.066-6.267-1.066-9.684h2q.76 2.841 1.5 5.688l.844 3.199c.595 2.824.784 5.241.656 8.113l2.527-.934c3.7-1.136 7.196-1.667 11.036-2.128 4.187-.51 8.313-1.043 12.437-1.938l.148-2.125c.46-5.842 1.256-11.236 2.852-16.875l-6 1 1-2h2v-2a875 875 0 0 1 4.375-2l2.46-1.125C321 464 321 464 323 464"/><path fill="#e4de33" d="m23 333 1.75 2.438c2.436 2.774 2.795 3.036 6.25 3.562 2.368.106 4.738.156 7.108.174l2.144.02q2.3.021 4.599.036 3.638.026 7.274.065 10.34.104 20.68.182 6.329.049 12.657.12 2.412.024 4.824.037c2.245.012 4.49.036 6.736.063l3.873.031C104 340 104 340 107 342H26l-1 2z"/><path fill="#f0d153" d="M75 289c3 1 3 1 4.24 2.883l1.213 2.457 1.365 2.707 1.432 2.89c5.78 11.31 12.252 20.756 20.664 30.244C110 337.093 110 337.093 110 342h-3v-6h-2v-2h-5c-3-5.625-3-5.625-3-9l-5-2v-2h-2c-.23-.534-.461-1.067-.7-1.617-4.166-10.582-4.166-10.582-10.612-19.695C77 298 77 298 76.75 295.25L77 293h-2z"/><path fill="#a4ca52" d="M60 406c7.738 2.432 13.706 10.202 17.813 17 2.634 3.613 5.665 5.87 9.261 8.484C89 433 89 433 90 435l3 1v2l3 1 .375 1.938L97 443c1.65.707 3.32 1.366 5 2 3.19 2.489 6.216 5.06 9 8l-1 2q-3.562-2.835-7.11-5.687a373 373 0 0 0-5.406-4.25c-12.312-9.669-23.836-20.893-32.82-33.743-1.433-1.998-2.865-3.654-4.664-5.32"/><path fill="#fefcd4" d="M13 220h1l-.437 5.313-.247 2.988c-.172 2.02-.352 4.04-.568 6.055-.8 7.783-.94 15.511-.935 23.332l-.003 2.023c.002 12.831.821 25.529 2.19 38.289-2.791-2.791-2.659-5.743-3.062-9.5-.407-4.898-.407-4.898-1.938-9.5-.124-2.73-.188-5.433-.203-8.164l-.017-2.5q-.015-2.636-.02-5.27c-.01-2.632-.04-5.263-.072-7.894C8.612 242.977 9.948 231.834 13 220"/><path fill="#e0cc8f" d="M41 144h3v16h2l.805 2.117 1.07 2.758 1.055 2.742c.955 2.505.955 2.505 3.07 4.383l.875 2.313C55.081 179.582 58.151 182.212 63 185c2.313 1.813 2.313 1.813 4 4 .25 3.25.25 3.25 0 6h-1l-.75-2.75c-1.63-4.24-3.577-6.346-7.562-8.5-3.352-2.182-5.578-4.863-8.137-7.91-1.571-1.917-1.571-1.917-3.551-3.84-3.702-7.865-4.152-15.43-4-24l-3 1z"/><path fill="#eedb5f" d="M486 288h1c.257 6.606-.678 12.55-2.062 19l-.657 3.12c-2.497 11.461-5.819 22.678-9.281 33.88l-2-2v-3h2l-.187-3.437c-.015-4.165 1.03-7.39 2.46-11.262.972-3.078 1.208-6.079 1.477-9.281.316-2.555 1.133-4.71 2.25-7.02h2l.375-3.812c.599-5.449 1.59-10.808 2.625-16.188"/><path fill="#fefbd3" d="M35 150h2c-.644 4.672-2.57 8.596-4.562 12.813-3.394 7.396-6.195 14.9-8.75 22.625l-.985 2.973c-2.803 8.628-5.516 17.292-6.89 26.277l-.481 3.074L15 220h-1q.21-3.907.438-7.812l.119-2.237c.187-3.182.43-5.913 1.443-8.951h2l.188-3.5c.744-6.75 3.027-13.098 5.157-19.51a410 410 0 0 0 1.803-5.654l1.04-3.274.917-2.902C28 164 28 164 30 163c.838-1.98.838-1.98 1.5-4.312.934-3.072 1.993-5.85 3.5-8.688"/><path fill="#77abaf" d="m218 10 3 2-.469 1.68c-.763 3.332-.967 6.676-1.25 10.078C219 26 219 26 218 28c-1.006 14.04 1.282 26.631 10 38a183 183 0 0 0 5 3l1 3c-6.771-2.759-11.894-9.51-14.945-16.016-3.416-8.689-3.238-17.321-3.243-26.546l-.037-3.983-.005-3.834-.013-3.486c.242-3.12.914-5.322 2.243-8.135"/><path fill="#fefbcd" d="M488 234h1c2.548 9.586 2.043 18.81 1.688 28.625q-.076 2.475-.147 4.95c-.146 4.81-.336 9.617-.541 14.425l-.088 2.245c-.334 8.187-.983 15.91-3.474 23.755l-.71 2.383A432 432 0 0 1 484 316c-1.113-3.39-.88-5.868-.258-9.36l.543-3.132.59-3.258q.56-3.18 1.117-6.36l.511-2.842c1.204-7.387 1.635-14.415 1.595-21.892l-.005-3.06c-.005-3.198-.018-6.397-.03-9.596q-.009-3.27-.014-6.54-.017-7.98-.049-15.96"/><path fill="#99bd4c" d="M384 379h1q.039 2.844.063 5.688l.035 3.199c-.09 2.861-.521 5.32-1.098 8.113-.294 3.637-.505 7.275-.719 10.918C383 410 383 410 382 412a295 295 0 0 0-1.062 8.125l-.276 2.285q-.335 2.794-.662 5.59h-2l-1 14h-1c.66-20.973 3.742-42.465 8-63"/><path fill="#a3ca54" d="m26 345 3 1a85 85 0 0 1 2.938 7.188c1.856 5.13 4.003 9.247 7.062 13.812v3h2l1.313 3.313c1.213 2.856 2.442 4.54 4.687 6.687 1.118 2.423 1.928 4.63 2.438 7.25L50 389l3 1v5c-13.128-12.227-20.667-33.622-27-50"/><path fill="#9e8764" d="m416 297 3 1c-8.073 14.839-17.27 27.825-29 40 0-3 0-3 2-6h2l.938-2.375C396 327 396 327 397 325l3-1 1-3 2-1c1.02-1.712 1.02-1.712 1.938-3.75 1.164-2.434 2.335-4.694 3.75-7 1.395-2.108 1.395-2.108 1.687-4.187 1.01-3.336 3.33-5.473 5.625-8.063"/><path fill="#c3b081" d="M457 146h1a808 808 0 0 1-.312 8.563l-.069 2.423c-.279 6.217-1.22 11.383-5.557 16.139L450 175l-1.715 2.293c-2.673 3.167-5.59 5.446-8.91 7.894-4.354 3.208-4.354 3.208-8.375 6.813.188-2.812.188-2.812 1-6 2.408-1.852 3.927-3 7-3v-2h2v-2h3v-3h4l.313-1.687c.829-2.79 2.03-4.927 3.687-7.313h2a488 488 0 0 0 1.719-17.812C456 147 456 147 457 146"/><path fill="#f1db64" d="m42 148 .367 3.36.508 4.39.238 2.21c.354 2.993.663 5.591 2.02 8.306C46 168 46 168 45.625 170.25L45 172c-3.73-6.378-4.73-11.646-5-19l-2 1c-.566 2.8-.895 5.6-1.242 8.434C36 165 36 165 33.93 166.348L32 167v3h-2l-1 5h-2c1.813-5.974 4.048-11.702 6.5-17.437l.899-2.153C37.619 148 37.619 148 42 148"/><path fill="#dcde34" d="m394 333 2 3-3 1v4h80v1h-83c0-5 0-5 2-7.312z"/><path fill="#95817b" d="M68 192h1q.04 4.594.063 9.188l.025 2.619.01 2.548.016 2.333C69 211 69 211 68.5 213.268c-.677 3.7-.623 7.349-.598 11.095l.005 2.4c.005 2.517.018 5.033.03 7.55q.008 2.567.014 5.134.017 6.277.049 12.553c-2.035-3.761-2.387-6.703-2.625-11l-.115-2.066c-.442-8.971-.343-17.955-.26-26.934h2l-.035-3.105-.028-4.083-.025-2.04c-.018-3.726.195-7.15 1.088-10.772"/><path fill="#a0c947" d="M254 452v48h-1v-45c-4.992 2.253-4.992 2.253-5.64 4.955l-.02 2.241-.059 2.547.012 2.737-.046 2.813c-.043 2.965-.052 5.929-.06 8.894q-.034 3.015-.076 6.03A1555 1555 0 0 0 247 500h-1q-.185-9.048-.275-18.097a694 694 0 0 0-.102-6.154c-.061-2.952-.09-5.902-.111-8.854l-.078-2.772c-.002-4.547.1-6.502 2.909-10.241C251 452 251 452 254 452"/><path fill="#dfc466" d="m444 180 2 1-1.934 1.645-2.503 2.167-2.497 2.145c-2.288 1.954-2.288 1.954-3.066 5.043.087 1.838.24 3.673.43 5.504.69 7.993.721 15.94.7 23.955-.005 2.499 0 4.997.007 7.496q0 2.412-.004 4.822l.006 2.235c-.019 4.1-.343 7.966-1.139 11.988h-1c.01-.94.02-1.882.032-2.851.714-26.07.714-26.07-2.934-51.77C432 190 432 190 434.273 187.383l3.102-2.258 3.086-2.305L443 181z"/><path fill="#9a8566" d="M432 192h1c2.66 11.676 3.167 23.243 3.125 35.188l.012 3.365c-.008 6.233-.315 12.267-1.137 18.447h-1l-.06-3.11a3322 3322 0 0 0-.257-11.71q-.057-2.505-.105-5.014c-.192-9.941-.682-19.724-1.986-29.588-.69-5.381-.69-5.381.408-7.578"/><path fill="#ebce57" d="M431 266h1c-.141 7.477-1.072 13.071-4.734 19.617-1.26 2.37-2.097 4.636-2.891 7.195-1.063 3.389-2.235 6.304-4.375 9.188h-2v2h-2c1.338-4.383 3.087-8.216 5.25-12.25 4.286-8.227 7.014-16.911 9.75-25.75"/><path fill="#a48d60" d="M67 192h1l-1 20h-2l.184 3.178q.338 5.88.67 11.763l.292 5.075q.21 3.663.416 7.328l.133 2.26c.267 4.807.343 9.582.305 14.396h-1c-1.524-10.353-2.348-20.498-2.316-30.964.004-2.168-.02-4.334-.045-6.5C63.599 209.288 64.65 200.99 67 192"/><path fill="#fefad0" d="M471 169h2c3.325 6.677 5.66 13.067 7.313 20.34.812 3.144 2.185 5.792 3.687 8.66 1.424 5.566 1.091 11.294 1 17h-1l-.471-2.073c-3.895-17.274-3.895-17.274-9.45-34.06-1.225-3.255-2.16-6.514-3.079-9.867"/><path fill="#a18a65" d="M83 300h2v3l3 1a100 100 0 0 1 3 6c1.39 2.49 2.569 4.585 4.625 6.563 1.66 1.735 1.972 3.102 2.375 5.437h2l.25 1.875c.563 2.31.563 2.31 2.813 3.375L105 328v2h2l1 5c-9.04-6.836-15.239-16.373-21-26l-1.32-2.176C83 302.3 83 302.3 83 300"/><path fill="#a0c94c" d="M472 342h2c-1.986 12.579-8.783 24.045-15 35-1.107-3.322-.85-4.683 0-8l1-2h3l-.187-2.125c.23-3.528 1.479-5.815 3.187-8.875h2l1-9h2z"/><path fill="#9fb0b9" d="M275 74v2l1.875.813C279 78 279 78 281 81l-5-2v-2l-2.5.875c-9.468 3.043-17.643 3.586-27.5 3.125v-2l-2.875.188L240 79l-2-3c3.47.458 6.674.891 10 2 8.287.568 15.938 1.023 23.398-3.125C273 74 273 74 275 74"/><path fill="#b6bbc3" d="M253 11h43v1l-39 1v15h4v5c-2.457-1.023-2.457-1.023-5-3-.49-2.724-.7-4.904-.687-7.625-.03-2.478-.133-4.9-.313-7.375l-2-1z"/><path fill="#8fa456" d="M293 458h1c.264 6.865-.742 13.258-2 20l-3-2v-2h-2v-2l-2.312-.437C282 471 282 471 279 470v3h2v5c-6-7.714-6-7.714-6-12 5.75.75 5.75.75 8 3 1.965.888 1.965.888 4.125 1.625L291 472z"/><path fill="#a0adb9" d="M271 42c3.875 1.75 3.875 1.75 5 4l3 1 1 3c1.6 1.587 1.6 1.587 3.5 3.063C286.9 55.8 286.9 55.8 288 58l3 1v2l4 2v3h-2v3c-3.875-1.75-3.875-1.75-5-4h3c-4.898-5.896-10.221-11.288-15.731-16.606-1.46-1.429-2.869-2.908-4.269-4.394z"/><path fill="#edd965" d="M13 288c1.89 2.835 2.321 3.888 2.781 7.09l.364 2.377.355 2.47q.35 2.422.719 4.84l.31 2.164c.516 2.256 1.422 4.005 2.471 6.059a161 161 0 0 1 1.688 8l.431 2.156c.662 3.53 1.205 6.432-.119 9.844-3.276-9.25-5.64-18.448-7.312-28.125l-.52-2.979C13.397 297.218 12.785 292.76 13 288"/><path fill="#756f64" d="M376 417h1c-1.414 22.827-1.414 22.827-3 26-.22 1.737-.391 3.481-.535 5.227l-.264 3.125-.264 3.273-.275 3.297q-.336 4.038-.662 8.078h-2c-.562-1.937-.562-1.937-1-4l1-1c.162-2.773.279-5.537.375-8.312.288-6.52 1.055-12.422 2.86-18.72 1.434-5.562 2.05-11.276 2.765-16.968"/><path fill="#e0d280" d="M216 16v13c-6.152-2.734-6.152-2.734-8-4-.754-2.14-.754-2.14-1-4 5.968-5 5.968-5 9-5"/><path fill="#9bbf49" d="M390 342h1q.08 3.906.125 7.813c.017.737.034 1.475.05 2.236.036 3.863.019 5.66-2.175 8.951-.54 1.922-.54 1.922-.852 4.012l-.39 2.295-.383 2.38-.406 2.417c-.33 1.964-.65 3.93-.969 5.896h-1c-.473-11.595 1.602-23.673 4-35z"/><path fill="#efd056" d="M437 216h1c.664 9.348 1.16 18.621 1 28h-2l.125 2.54c-.14 3.9-.998 7.103-2.125 10.835l-1.125 3.773L433 264c-1.12-3.392-.872-5.83-.187-9.312.17-.904.342-1.808.519-2.739.668-2.949.668-2.949 1.703-5.965 1.649-5.637 1.437-11.594 1.59-17.422l.117-3.662q.141-4.45.258-8.9"/><path fill="#f2d35d" d="M59 184c2.846 1.655 5.036 3.339 7 6 .78 4.574.736 9.293-.488 13.795-.641 2.762-.84 5.456-1.047 8.283l-.264 3.516-.263 3.656-.276 3.703A4505 4505 0 0 0 63 232h-1c-.24-11.552.277-22.568 2-34q.502-3.5 1-7l-1.875-.687C60.385 188.62 59.95 187.008 59 184"/><path fill="#8b8e6c" d="M322 466c1.324 3.973.267 5.424-1.312 9.25-1.836 4.561-3.423 9.006-4.688 13.75l-1 2h-2c.612-9.482 3.351-17.334 9-25"/><path fill="#f2fbd8" d="m445 398 1 2c-.89 2.129-.89 2.129-2.25 4.563l-1.328 2.44C441 409 441 409 438 410l-.375 1.688c-1.332 4.928-5.478 8.548-9.625 11.312l-2-1 1.688-2.055C436.71 409.247 436.71 409.247 445 398"/><path fill="#e9cd56" d="M411 311c.64 1.855.64 1.855 1 4a281 281 0 0 1-5 5 221 221 0 0 0-3 7c-1.562 1.938-1.562 1.938-3 3h-2v2l-4 1c2.037-3.556 4.276-6.71 6.875-9.875A205 205 0 0 0 411 311"/><path fill="#899065" d="M274 467c7.304 7.825 10.223 19.485 10 30h-2l-.148-1.863-.227-2.45c-.07-.8-.14-1.6-.21-2.425-.31-2.534-.31-2.534-2.415-5.262a100 100 0 0 1-1.625-5.5c-.26-.96-.52-1.918-.79-2.906C276 474 276 474 276 471h-2z"/><path fill="#efdc66" d="M26 176h1c.332 6.227.252 10.497-3 16-.7 1.989-1.377 3.986-2 6h-2l-1 3c.614-5.793 2.155-10.946 4.063-16.437l.853-2.506Q24.952 179.026 26 176"/><path fill="#78abb1" d="m243 75 2.75.5c8.059 1.144 16.232.733 24.25-.5-1 2-1 2-3.066 3.11-3.656 1.11-7.09 1.182-10.872 1.14l-2.091.023C249.606 79.257 246.055 78.6 242 77z"/><path fill="#f3fcd9" d="M313 493c-4.453 2.5-8.191 3.533-13.25 4.125-4.529.418-4.529.418-8.75 1.875-2.672.134-5.323.043-8 0 2.36-2.36 3.453-2.462 6.684-3.035l2.81-.514 2.943-.514q2.874-.514 5.747-1.035l2.58-.453c6.487-1.302 6.487-1.302 9.236-.449"/><path fill="#9eca42" d="M295 454h2l-.437 2.816-.563 3.747-.562 3.69c-.424 3.624-.474 7.104-.438 10.747-.5 2.438-.5 2.438-1 4-3.688-.498-5.605-1.1-8-4l1-3v2h2l2 3 .26-1.788q.585-4.013 1.178-8.024l.408-2.815.4-2.705.365-2.491C294 457 294 457 295 454"/><path fill="#eacf5e" d="M456 164h1c.367 7.466.367 7.466-1.375 10-1.625 1-1.625 1-3.625 1l-.687 2.25c-1.557 3.261-3.398 4.679-6.313 6.75l-2-1c2.735-3.787 5.362-7.39 8.75-10.625 2.535-2.676 3.345-4.837 4.25-8.375"/><path fill="#e0cc78" d="M458 144a66.4 66.4 0 0 1 5.688 8.625l1.324 2.352C466 157 466 157 466 159h-2a159 159 0 0 1-3-5h-1l-2 6h-1c-.111-5.458.083-10.615 1-16"/><path fill="#f7fad1" d="M479 328c1.917 5.82.239 12.523-2.437 17.875L475 348l-1.562 2.75C472 353 472 353 470 354l2.145-6.43q.813-2.444 1.617-4.89A334 334 0 0 1 479 328"/><path fill="#ecde49" d="m23 333 1.75 2.438c2.806 3.195 4.432 3.399 8.54 3.767l2.476.111 2.695.127 2.789.12 2.836.13q3.457.159 6.914.307v1l-25 1-1 2z"/><path fill="#a38a60" d="M433 249h1c-.574 10.049-2.578 19.524-6 29h-1c.642-10.012 3.168-19.414 6-29"/><path fill="#f5d943" d="M20 198h2c-.595 14.781-.595 14.781-4 21h-1a758 758 0 0 1-.062-4.937l-.036-2.778C17 209 17 209 18 208c.393-1.679.74-3.369 1.063-5.062l.535-2.786z"/><path fill="#ddde36" d="m394 333 2 3-3 1v4h23v1h-26c0-5 0-5 2-7.312z"/><path fill="#baab93" d="m444 176 3 1c-4.262 5.22-8.393 9.262-14 13l-2 2c.188-2.812.188-2.812 1-6 2.408-1.852 3.927-3 7-3v-2h2v-2h3z"/><path fill="#7ab09d" d="m218 10 3 2-.469 1.68c-.763 3.332-.967 6.676-1.25 10.078C219 26 219 26 218 28h-2a573 573 0 0 1-.125-6.187l-.07-3.481c.19-3.25.801-5.419 2.195-8.332"/><path fill="#9abf4b" d="M111 352h1q.761 4.248 1.5 8.5l.434 2.398c.88 5.114 1.209 9.913 1.066 15.102-4.329-4.329-4.105-11.19-4.136-16.993.016-3.003.065-6.005.136-9.007"/><path fill="#f2da5d" d="M474 180c4.985 6.42 5.28 12.11 5 20l-1-3h-2c-.832-3.77-1.266-7.464-1.562-11.312l-.254-3.239z"/><path fill="#a5cb53" d="M113 456q2.159.68 4.313 1.375l2.425.773C122 459 122 459 125 461l1-5h1l1 10c-5.445-2.579-10.224-5.319-15-9z"/><path fill="#fef9ce" d="M459 145h2c4 5.294 4 5.294 4 9l3 1 1 7h2v6c-3.058-3.683-5.027-7.794-7.125-12.062l-1.09-2.182c-1.443-2.91-2.756-5.668-3.785-8.756"/><path fill="#a3c05e" d="M281 478h2a688 688 0 0 1 1.5 5.625l.844 3.164c.647 3.168.772 5.988.656 9.211l4 1-10 1 4-1-.656-3.14-.844-4.11-.434-2.066c-.679-3.33-1.066-6.267-1.066-9.684"/><path fill="#92946f" d="M272 463c7.11-.723 7.11-.723 9.645 1.336C283 466 283 466 285 469c-3 0-3 0-6-2h-4l-2 4c-1.354-2.709-1.065-5.01-1-8"/><path fill="#fdf9cc" d="M14 301h1q.974 4.5 1.938 9l.552 2.543A155 155 0 0 1 20 328c-3.685-2.694-3.977-6.458-4.687-10.687l-.393-2.069c-.858-4.806-1.035-9.364-.92-14.244"/><path fill="#f0e8ef" d="M350 333h2c-.084 2.869-.587 4.557-2.555 6.668C344.485 344 344.485 344 342 344v-4h2v-2h2v-2h3z"/><path fill="#9ec054" d="M297 446h2a211 211 0 0 1 1.563 3.75l.878 2.11c.637 2.44.361 3.78-.441 6.14l-1-5-5 1-1 3c.468-4.056.88-7.466 3-11"/><path fill="#757062" d="M382 379h1c.374 7.474-.96 13.821-3 21h-1q.172-4.407.375-8.812c.03-.834.062-1.667.094-2.526l.117-2.432.095-2.237C380 382 380 382 382 379"/><path fill="#425c64" d="M229 13q2.514.428 5 1a88 88 0 0 1 1 5c-1 1-1 1-3.5 1.125C229 20 229 20 228 19c-.125-2.5-.125-2.5 0-5z"/><path fill="#a2cb4e" d="M451 384h3c-1.323 3.598-2.92 6.637-5.062 9.813l-1.598 2.394L446 398h-1c-.2-3.716-.152-4.772 2-8h2l.438-2.437C450 385 450 385 451 384"/><path fill="#a2c551" d="M275 466c5.35.373 7.51 1.996 11 6l-2.375-1c-2.468-1.119-2.468-1.119-4.625-1v3h2v5c-6-7.714-6-7.714-6-12"/><path fill="#978375" d="m416 297 3 1-3 6h-4l-.375 2.938L411 310l-2 1c.263-6.45 2.507-9.48 7-14"/><path fill="#b8afb6" d="M189 16c.934 3.01 1.044 3.867 0 7-6.981 1.51-6.981 1.51-10 0q1.935-1.472 3.875-2.937l2.18-1.653C187 17 187 17 189 16"/><path fill="#7ab2b2" d="m234 1-4 1v2l-2.312.75C224.725 6.128 223.886 7.428 222 10h-3c1.503-3.826 3.628-5.7 7-8 5.484-2.258 5.484-2.258 8-1"/><path fill="#8c8a70" d="m321 465-9 3v2l-7 1v-6l3 2v2l3.313-1.937c5.762-3.371 5.762-3.371 9.687-2.063"/><path fill="#bcbdc0" d="M205 11h13l-2 5-6-1v-3h-5z"/><path fill="#9fbb5e" d="M323 464c-1.186 3.375-2.276 5.647-5 8l1-4-1.68.91-2.195 1.152-2.18 1.16L311 472l-2-1 3-1v-2a875 875 0 0 1 4.375-2l2.46-1.125C321 464 321 464 323 464"/><path fill="#9ccc38" d="M388 361h1a1295 1295 0 0 1-.375 8.625c-.03.808-.062 1.616-.094 2.45-.226 4.643-.79 8.552-2.531 12.925h-1c-.175-5.504.473-10.537 1.5-15.937l.434-2.362Q387.46 363.85 388 361"/><path fill="#d5c5a9" d="M44 160h2l.805 2.117 1.07 2.758 1.055 2.742c.955 2.505.955 2.505 3.07 4.383l-1 3v-2l-1.812-.5c-3.352-2.298-4.184-5.658-5.188-9.5z"/><path fill="#aacc5e" d="M95 442c6.925 1.689 11.136 6.077 16 11l-1 2c-10.558-8.262-10.558-8.262-15-13"/><path fill="#eed152" d="M75 289c3 1 3 1 4.688 3.75 1.252 3.1 1.602 4.967 1.312 8.25h-2c-2.152-3.228-2.2-4.284-2-8h-2z"/><path fill="#8c857a" d="M291 457c1.097 3.411.942 6.207.563 9.75l-.31 2.984L291 472c-5.75-1.625-5.75-1.625-8-5h3v2c3.17-1.656 3.17-1.656 3.73-4.383l.457-2.742c.16-.91.318-1.82.481-2.758z"/><path fill="#7a7d4c" d="M389 338h1a799 799 0 0 1-.375 6.813c-.07 1.264-.14 2.529-.21 3.832C389 352 389 352 387 355a809 809 0 0 1-.125-7.375c-.017-.699-.034-1.397-.05-2.117-.018-1.837.072-3.674.175-5.508z"/><path fill="#f8f5f8" d="M134 0h14l2 4-2 1a219 219 0 0 1-5.89-2.23c-2.664-.972-5.303-1.42-8.11-1.77z"/><path fill="#798150" d="M125 446c4.115 4.115 4.125 9.4 4.125 14.938-.032 1.687-.07 3.375-.125 5.062h-1q-.756-3.874-1.5-7.75l-.434-2.21c-.655-3.433-1.066-6.532-1.066-10.04"/><path fill="#c6b28a" d="m208 18 2 1-2 2c-.068 2.066-.068 2.066 1 4 2.49 1.297 2.49 1.297 5 2v1c-7.875-.875-7.875-.875-9-2 .313-3.5.313-3.5 1-7z"/><path fill="#f0f9d9" d="m383 459 1 2-1 2h-4v2c-1.75 1.688-1.75 1.688-4 3-2.25-.312-2.25-.312-4-1 3.79-3 7.888-5.475 12-8"/><path fill="#9d919b" d="M218 282h1l1 14-3-4-2 1q.462-2.47.938-4.937l.527-2.778C217 283 217 283 218 282"/><path fill="#66a1a6" d="M226 14h2l1 5h6l-1 3-8-1c-.934-3.01-1.044-3.867 0-7"/><path fill="#e3f9f9" d="M240 0h7v2h2v2l1.938.813C253 6 253 6 254 9l-2 1-2.062-2.812C247.057 3.686 244.232 2.494 240 1z"/><path fill="#a0cd43" d="M319 468c-.254 1.482-.53 2.96-.812 4.438l-.458 2.496L317 477l-3 1 1-7-2-1c3-2 3-2 6-2"/><path fill="#a2cc4b" d="M87 433h2l1 2 3 1v2l3 1 1 3c-3.884-.575-6.178-2.33-9-5-.812-2.25-.812-2.25-1-4"/><path fill="#edfbd5" d="M68 416c3.92 3.804 7.491 7.816 11 12-3.402-1.628-6.168-3.483-9-6v-2h-2z"/><path fill="#eefad2" d="M40 376c2.916 3.54 5.501 7.163 8 11l-1 2c-3-1-3-1-4.168-2.707l-1.02-2.106-1.042-2.082C40 380 40 380 40 376"/><path fill="#e4c85f" d="M70 272c2.62 2.62 3.482 5.58 4.688 9l.72 1.945c.594 1.664 1.1 3.359 1.592 5.055l-1 2c-2.389-2.89-3.651-5.403-4.687-9l-.762-2.562C70 276 70 276 70 272"/><path fill="#a2aeb9" d="M294 70c4.435 1.394 6.874 3.606 10 7l-1 3a504 504 0 0 1-3.937-3.312l-2.215-1.864C295 73 295 73 294 70"/><path fill="#bba99d" d="M208 15h6l1 2-9 2-1 5h-1v-5l4-2z"/><path fill="#effad4" d="M464 366c1.229 4.914.39 6.633-2 11l-4 1z"/><path fill="#a1885f" d="M73 278c2.324 1.24 3.737 2.298 4.676 4.805.508 2.057.939 4.111 1.324 6.195l.625 3 .375 2c-2.35-2.896-3.835-5.654-5.187-9.125l-1.043-2.633C73 280 73 280 73 278"/><path fill="#a6adb7" d="m288 87 13 2v2c-5.473 1.468-8.12.44-13-2z"/><path fill="#f4d559" d="M214 19v7c-1.875-.312-1.875-.312-4-1l-2-3c4.875-3 4.875-3 6-3"/><path fill="#99c540" d="m311 471 2 1a162 162 0 0 1-2.25 3.5l-1.266 1.969L308 479h-4v-2h2l1-3h2v-2z"/><path fill="#998b98" d="M281 286h2c1.43 2.354 2.087 3.48 1.625 6.25L284 294h-2l-2 1z"/><path fill="#eedd67" d="M459 149c3.214 1.108 3.991 1.985 5.75 5 1.25 3 1.25 3 1.25 5h-2l-3-5h-2z"/><path fill="#9eabb6" d="M304 81h4c.313 3.313.313 3.313 0 7-2.5 1.938-2.5 1.938-5 3l-1-3 4-2z"/><path fill="#649099" d="M283 56a367 367 0 0 1 3.438 2.813l1.933 1.582C290 62 290 62 291 65l-4 2-.312-2.875c-.373-3.416-.373-3.416-3.688-5.125z"/><path fill="#7bacb5" d="M253 15h2c.872 2.995 1.108 5.636 1.063 8.75l-.028 2.422L256 28c-2.246-1.774-2.95-2.584-3.293-5.48l.106-2.707.082-2.731z"/><path fill="#f7d741" d="M483 295h2a348 348 0 0 1-.375 4.25c-.07.789-.14 1.578-.21 2.39-.43 2.446-1.201 4.208-2.415 6.36-1.536-4.096-.69-7.788 0-12z"/><path fill="#efda67" d="M469 166c2.022 2.022 2.676 3.259 3.688 5.875l.824 2.055c.561 2.381.255 3.774-.512 6.07l-1.437-2.437c-1.332-2.41-1.332-2.41-2.563-3.563-.141-2.67-.042-5.324 0-8"/><path fill="#f4f8df" d="m120 462 10 5-4 2-3-2v-2l-3-1z"/><path fill="#9dca3c" d="m105 448 4 1v2l4 1v2l4 2-2 1c-2.125-.937-2.125-.937-4-2v-2l-3-1v-2l-3-1z"/><path fill="#e4c85e" d="m411 311 1 4c-1.215 1.922-1.215 1.922-2.937 3.75l-1.715 1.86L406 322l-2-1z"/><path fill="#a18a62" d="M432 192h1q.546 2.371 1.063 4.75l.597 2.672c.338 2.565.152 4.149-.66 6.578-2.243-5.203-3.556-8.343-2-14"/><path fill="#f5d84f" d="M456 164h1c.44 5.285.44 5.285 0 8-2.5 2.5-2.5 2.5-5 4 0-3.237.655-4.788 2-7.687l1.125-2.45z"/><path fill="#ebe1e9" d="M344 317h2v2l1.938.813C350 321 350 321 351 324l-2 1-3-1 1-4h-2zm0 7 2 1-2 1z"/><path fill="#a8c16b" d="M126 456h1l1 10-8-4 2-1c2.125.938 2.125.938 4 2z"/><path fill="#edfad0" d="M102 448q1.909 1.402 3.813 2.813l2.144 1.582A46.6 46.6 0 0 1 113 457c-5.75-1.875-5.75-1.875-8-3v-2l-3-1z"/><path fill="#e8d35c" d="M104 332c3.351 2.234 4.816 3.262 5.813 7.25L110 342h-3v-6h-2z"/><path fill="#65929a" d="M305 84h2l-1 3c-4.395 1.988-8.22 2.191-13 2v-1l2.371-.621 3.067-.817 3.058-.808c2.422-.514 2.422-.514 3.504-1.754"/><path fill="#68adac" d="M218 26c2.388 3.644 1.943 6.07 1.125 10.25l-.617 3.266L218 42h-1q-.04-3.437-.062-6.875l-.036-3.867C217 28 217 28 218 26"/><path fill="#ecf9ce" d="m392 452 2 1c-3.173 3.536-5.167 5.586-10 6 2.516-2.606 5.051-4.894 8-7"/><path fill="#e9f7ca" d="M56 401c3.268 3.147 6.131 6.494 9 10l-2 1v-2l-1.812-.687c-2.781-1.67-3.752-3.441-5.188-6.313z"/><path fill="#f8d93d" d="m455 173 1 2-2-1zm-3 2 2 1c-1.911 3.536-3.626 5.79-7 8l-2-1 2.375-2.312c2.698-2.597 2.698-2.597 4.625-5.688"/><path fill="#fefbdf" d="m466 154 2 1c.407 2.322.744 4.657 1 7h2v6c-2.57-3.014-3.522-5.36-4.187-9.25-.16-.892-.318-1.784-.481-2.703z"/><path fill="#5d8f98" d="M274 49c2.38.176 3.702.697 5.379 2.402 1.242 1.504 2.435 3.05 3.621 4.598l-4-1v-2l-5-2z"/><path fill="#9ccc42" d="M409 434h2c-.564 3.27-1.5 4.826-4 7l-3-1a159 159 0 0 1 5-6"/><path fill="#a7cc5a" d="M53 396h4l.875 3.438L59 403l2 1h-3c-1.387-1.75-1.387-1.75-2.687-4l-1.325-2.25z"/><path fill="#9ec834" d="M26 342h3c3.077 6.4 3.077 6.4 2.688 9.438L31 353l-1.375-3.437c-1.196-3.61-1.196-3.61-3.625-4.563z"/><path fill="#e4ce5e" d="m394 333 2 3-3 2c-1.192 2.05-1.192 2.05-2 4h-1c-.25-2.25-.25-2.25 0-5 2-2.312 2-2.312 4-4"/><path fill="#9bd13b" d="M310 486h2v4c-4.625 2.125-4.625 2.125-8 1h2v-2l3-1z"/><path fill="#9dc051" d="M315 477c1.242 3.725.475 4.478-1 8a127 127 0 0 0-1 6h-1c-.193-4.816.186-8.52 2-13z"/><path fill="#f0fbda" d="m83 432 7 6-2 2c-2.784-1.706-3.854-2.476-4.75-5.687z"/><path fill="#a6ca57" d="M60 406c4.877 1.355 6.486 3.717 9 8l-1 2-.988-1.426-1.325-1.887-1.3-1.863c-1.346-1.77-2.779-3.291-4.387-4.824"/><path fill="#a698a2" d="M322 26c1.938.75 1.938.75 4 2 .75 2.125.75 2.125 1 4l-6-2z"/><path fill="#ebfacd" d="M469 355c.688 1.625.688 1.625 1 4-2.333 5.667-2.333 5.667-5 7q.716-2.188 1.438-4.375l.808-2.46C468 357 468 357 469 355"/><path fill="#fcfacb" d="M482 316h1c.081 1.437.14 2.874.188 4.313l.105 2.425c-.355 2.74-1.187 3.554-3.293 5.262 1-8.571 1-8.571 2-12"/><path fill="#b6aba3" d="m456 143 2 1-1 3a166 166 0 0 0-.562 5.688l-.254 3.011L456 158h-1q-.04-3.187-.062-6.375l-.036-3.586C455 145 455 145 456 143"/><path fill="#63939f" d="m287 81 3 6c-3.653-1.25-4.78-1.671-7-5 2-1 2-1 4-1"/><path fill="#a79da4" d="M312 18c1.938.313 1.938.313 4 1l1 3h-2l-1 2c-2-3.75-2-3.75-2-6"/><path fill="#887e86" d="M165 476h1l1 7c-1.812.625-1.812.625-4 1l-3-2 3-1 2 1z"/><path fill="#a29995" d="M257 444c0 3 0 3-2 6-2.625.688-2.625.688-5 1v-2c1.531-1.29 1.531-1.29 3.5-2.625l1.969-1.352z"/><path fill="#a7cd5d" d="M423 421h3c-1.491 3.795-3.757 5.61-7 8z"/><path fill="#6aa5a9" d="M228 11h6l1 4-7-1z"/><path fill="#73aeb0" d="M241 2c2.875.313 2.875.313 6 1l2 3-7-1z"/><path fill="#72725d" d="M371 456h1v10h-2c-1.467-3.815-.433-6.29 1-10"/><path fill="#edf9cd" d="m431 416 1 4-4 3-2-1z"/><path fill="#9ccd39" d="M58 400h3l3 7c-1.875-.125-1.875-.125-4-1-1.25-3.062-1.25-3.062-2-6"/><path fill="#d1c5af" d="M53 176c3.366 1.443 5.51 3.333 8 6l-3 1z"/><path fill="#a69ca4" d="M292 12c6.055-.195 6.055-.195 8 0l2 2c-3.815 1.467-6.29.433-10-1z"/></svg>