<svg xmlns="http://www.w3.org/2000/svg" width="500" height="500"><path fill="#f26938" d="M0 0h500v500H0z"/><path fill="#fde3b8" d="M0 261h1l.12 1.67c2.27 30.422 8.677 59.113 20.922 87.132.821 1.884 1.613 3.78 2.4 5.678C32.435 373.533 42.781 389.578 55 405l2.18 2.773C65.588 418.276 74.608 428.426 85 437l2.777 2.438c8.61 7.53 17.734 14.184 27.223 20.562l1.75 1.176c11.412 7.569 24.07 13.99 37.25 17.824l.129-2.385c.517-8.077 1.689-15.78 3.434-23.678l.79-3.626c4.022-17.955 9.03-35.729 15.42-52.99 1.141-3.09 2.193-6.195 3.227-9.321l-2.729-.642c-11.884-2.854-23.532-6.384-35.208-9.983l-6.084-1.864q-6.094-1.866-12.186-3.737a4152 4152 0 0 0-15.922-4.844l-2.327-.704q-4.307-1.302-8.616-2.6l-5.74-1.735c-1.059-.32-2.117-.64-3.208-.968a260 260 0 0 1-6.222-2.017c-2.493-.819-4.731-1.247-7.32-1.594-12.659-2.493-22.904-10.561-30.282-20.894C32.768 322.033 32.768 322.033 34 315c2.527-2.062 2.527-2.062 5.938-4l1.802-1.047c3.284-1.895 6.618-3.701 9.947-5.515 3.114-1.698 5.99-3.564 8.876-5.625 4.85-3.463 9.843-6.631 14.913-9.758 3.806-2.349 7.581-4.734 11.32-7.188 14.73-9.627 27.22-16.082 45.204-13.867 4.197.932 8.164 2.035 12 4l1 2a131 131 0 0 0 8 3l3.042 1.051c3.46 1.185 6.927 2.35 10.395 3.512l3.565 1.208c11.797 4.696 11.797 4.696 23.998 4.229 2.571-1.354 2.571-1.354 5.063-3 5.352-3.43 8.834-4.132 15.187-4.062l3.266.027L220 280l-.14 2.563c-.364 9.92-.364 9.92 4.14 18.437 5.09 4.183 8.817 4.593 15.125 4.531l2.622.012q2.733.004 5.466-.022c2.779-.02 5.555 0 8.334.026q2.664-.004 5.328-.016l2.5.025c5.342-.086 8.363-1.053 12.625-4.556 5.183-5.973 4.408-13.558 4-21 9.035-.8 17.856.702 25.02 6.688 3.503 2.321 6.692 1.095 10.656.39 6.784-1.555 13.359-3.95 19.92-6.245l3.025-1.056 2.701-.96c2.877-.878 5.705-1.383 8.678-1.817v-2q2.623-1.225 5.25-2.437l2.953-1.372c5.769-2.457 11.037-2.374 17.235-2.378l2.853-.038c4.704-.01 8.432.046 12.709 2.225l3.313.875c4.181 1.276 7.844 3.069 11.687 5.125v2l2.225.844c2.55 1.062 4.812 2.246 7.181 3.66.82.49 1.64.978 2.486 1.482l2.608 1.577 2.694 1.619c6.208 3.763 12.17 7.766 18.083 11.97 3.447 2.339 6.931 4.138 10.723 5.848v2l2 .688c2.501 1.094 4.912 2.203 7.313 3.5l2.113 1.105C465 315 465 315 465.418 318.246c-1.239 11.126-9.09 21.569-17.54 28.492-5.546 3.985-11.406 6.21-17.878 8.262l-3.555 1.145c-7.225 2.302-14.49 4.476-21.754 6.652l-2.62.786-15.444 4.624-14.85 4.445c-8.654 2.592-17.306 5.187-25.933 7.868l-3.619 1.123q-3.245 1.011-6.485 2.034c-4.567 1.426-8.974 2.721-13.74 3.323l.64 1.61c9.765 24.747 16.658 49.96 21.735 76.077l.508 2.59c.805 4.304 1.302 8.321 1.117 12.723 18.969-8.663 37.556-18.03 54-31l1.858-1.457c7.59-5.974 14.951-11.946 21.54-19.031C425 427 425 427 427 427l.754-1.758c1.425-2.564 3.036-4.12 5.183-6.117C445.479 406.845 456.5 391.306 465 376l1.044-1.842C485.844 339.03 495.642 301.941 499 262h1v238H0z"/><path fill="#f6744e" d="M264 0h236c.121 64.66.121 64.66.146 91.814l.019 18.641.002 2.36q.022 18.767.064 37.535.043 19.312.051 38.623.005 11.882.042 23.764c.018 6.11.02 12.221.015 18.332q.001 3.72.019 7.44c.106 23.77-1.77 47.336-7.358 70.491l-.588 2.455C484.072 345.273 468.068 378.007 446 405l-1.396 1.708C439.35 413.096 433.98 419.277 428 425a583 583 0 0 0-7.36 7.43c-5.248 5.369-10.611 10.11-16.64 14.57l-2.668 2.078C361.274 480 361.274 480 346 480l-.364-2.082c-4.83-27.412-10.464-54.84-20.72-80.809-1.321-3.362-2.26-6.563-2.916-10.109 12.535-4.084 25.071-8.094 37.77-11.641 7.539-2.123 15.008-4.45 22.48-6.796 9.335-2.93 18.692-5.717 28.125-8.313C429.6 355.265 429.6 355.265 447 346l2.105-1.445c8.52-6.559 14.245-17.3 15.739-27.86L465 315l-2-.687c-3.887-1.7-7.637-3.71-11-6.313v-2l-2.677-.802c-3.212-1.158-5.656-2.498-8.495-4.374l-2.885-1.885L435 297a2078 2078 0 0 0-5.64-3.605 7725 7725 0 0 1-8.462-5.409c-4.9-3.126-9.818-6.158-14.898-8.986v-2l-2.812-.875C400 275 400 275 397 273a172 172 0 0 0-7-2l-1.94-.542c-12.356-2.75-24.834-.795-36.06 4.542h-2v2c-38.24 13.162-38.24 13.162-45 11-2.027-1.121-2.027-1.121-3.937-2.437-6.777-4.371-13.145-5.028-21.063-5.563l-.312-2.125c-.975-4.073-1.922-7.531-5.383-10.165-10.44-6.218-20.089-8.878-32.305-7.71-4.508 1.322-8.743 3.02-13 5-.943-2.828-1.124-4.75-1.25-7.687-1.686-18.648-11.265-37.59-23.75-51.313l-2.32-2.676c-4.61-5.257-9.08-9.656-14.993-13.449L184 188v-2l-2.312-.375C179 185 179 185 176 183c-.187-3.625-.187-3.625 0-7l-8-1v-2l-1.875-.437c-2.492-.66-3.764-1.041-5.25-3.188-1.236-3.356-1.318-5.828-.875-9.375 2.847-3.006 5.093-4.023 9-5l1-3h17l2-6 1-2h2l.313-1.75c.796-2.607 1.878-4.224 3.687-6.25h2v-2l4-1v-2l11-6-4.68.035-6.195.028-3.07.025c-17.61.056-17.61.056-22.055-3.463a110 110 0 0 1-4-5.625l1-3a483 483 0 0 1 3 3.375l1.688 1.898C180 120 180 120 180 122h140l2-4c2-3.25 2-3.25 4-6h2l.813-2.437L330 107l3-1a66 66 0 0 0 2-4 133 133 0 0 1 3.438-4.562l1.808-2.317C341.753 93.3 343.331 91.67 345 90l1.25-2.125c3.07-5.045 6.696-9.825 10.879-14 2.107-2.111 3.367-4.306 4.871-6.875 2.234-3.002 3.868-4.912 7-7l1.25-2.125c2.028-3.332 4.447-6.043 7.035-8.95 4.1-4.517 4.1-4.517 6.715-9.925l-1.64-.81c-2.73-1.376-5.428-2.805-8.13-4.237-17.719-9.34-17.719-9.34-36.23-16.953l-3.7-1.43C311.588 7.06 288.077 2.985 264 1z"/><path fill="#516666" d="m346 19 3.275 1.532c3.107 1.46 6.205 2.937 9.3 4.422q1.923.92 3.85 1.832C369.98 30.359 377.217 34.063 384 39c-.792 3.646-2.119 5.8-4.437 8.75l-1.872 2.422L376 52h-2l-.75 1.625c-1.557 2.957-3.284 5.672-5.25 8.375h-2l-.812 1.813C364 65.998 362.742 67.258 361 69l-.937 1.938c-1.31 2.541-3.036 4.035-5.063 6.062-2.068 2.617-4.03 5.31-6 8-5.57 7.588-11.522 14.844-17.562 22.063a741 741 0 0 0-6.688 8.187l-2.078 2.578c-1.695 2.059-1.695 2.059-2.672 4.172-18.08.304-36.16.533-54.243.674-8.397.066-16.792.158-25.188.307q-10.98.197-21.964.242a577 577 0 0 0-11.62.151c-25.481.601-25.481.601-31.02-4.172-2.701-3.07-4.315-6.469-5.965-10.202a115 115 0 0 0-3.937-5.187l-1.59-2.106C162.92 99.753 162.92 99.753 160 98a157 157 0 0 1-3-5 193 193 0 0 0-2.5-3.625l-1.219-1.727c-1.25-1.679-1.25-1.679-2.77-3.136-1.593-1.594-2.872-3.253-4.198-5.074-5.17-6.974-10.66-13.674-16.25-20.313-3.483-4.18-6.922-8.385-10.25-12.687l-2.293-2.942L116 41c1.403-4.209 4.352-5.19 8.063-7.187l2.171-1.191A647 647 0 0 1 133 29l2.082-1.102C144.484 22.97 154.033 18.664 164 15l1.988-.741C221.99-6.361 291.375-6.81 346 19"/><path fill="#526667" d="M458 113c2.837 2.666 4.913 5.22 6.84 8.598l1.533 2.681 1.565 2.784 1.552 2.7C500.066 183.652 507.45 249.118 493 309l-.588 2.455C484.072 345.273 468.068 378.007 446 405l-1.396 1.708C439.35 413.096 433.98 419.277 428 425a583 583 0 0 0-7.36 7.43c-5.248 5.369-10.611 10.11-16.64 14.57l-2.668 2.078C361.274 480 361.274 480 346 480l-.364-2.082c-4.83-27.412-10.464-54.84-20.72-80.809-1.321-3.362-2.26-6.563-2.916-10.109 12.535-4.084 25.071-8.094 37.77-11.641 7.539-2.123 15.008-4.45 22.48-6.796 9.335-2.93 18.692-5.717 28.125-8.313C429.6 355.265 429.6 355.265 447 346l2.105-1.445C459.15 336.822 464.398 324.269 466 312c1.96-17.784-8.241-33.726-17.75-47.926C447 262 447 262 447 260h-2l-1.137-2.125c-2.429-4.503-4.84-8.906-7.738-13.125-2.366-3.786-2.728-6.225-2.125-10.75.661-2.848 1.391-5.67 2.145-8.496.966-3.96 1.679-7.924 2.355-11.941.832-4.923 1.741-9.775 2.938-14.625 1.396-5.826 2.38-11.682 3.335-17.594 2.094-12.753 4.391-25.464 6.746-38.17.683-3.687 1.358-7.375 2.034-11.063l1.302-7.045.61-3.335.567-3.041.495-2.681C457 114 457 114 458 113M40 114l3 1q.658 3.25 1.313 6.5l.738 3.656c2.785 14.063 5.306 28.18 7.897 42.28l1.771 9.634q1.228 6.666 2.488 13.326a906 906 0 0 1 3.855 21.854l.487 2.945q.482 2.923.96 5.846.511 3.079 1.057 6.152l.555 3.166.51 2.843c.63 4.78.953 8.6-1.631 12.798h-2l-.625 2.438c-1.482 3.84-3.426 6.737-5.75 10.105-2.18 3.297-3.997 6.744-5.848 10.234a194 194 0 0 1-4.273 7.352c-8.585 14.088-12.87 25.6-9.879 42.558 3.55 13.022 11.637 24.01 23.125 31.07 5.02 2.772 9.762 4.962 15.387 6.143 4.473.982 8.821 2.21 13.195 3.557l5.295 1.608 3.016.917c6.004 1.82 12.015 3.613 18.026 5.41q5.766 1.726 11.532 3.454 7.155 2.144 14.311 4.285l11.76 3.522 4.424 1.324c7.472 2.234 14.923 4.5 22.304 7.023-1.456 7.358-3.72 14.238-6.187 21.313-7.856 23.13-12.875 46.625-16.813 70.687-4.778-.722-8.907-1.983-13.312-3.937l-2.094-.927c-20.885-9.511-39.257-23.49-56.125-38.89a346 346 0 0 0-5-4.46C58.567 414.187 43.406 392.78 31 371l-1.07-1.863c-5.014-8.79-8.924-17.69-12.26-27.238a285 285 0 0 0-1.94-5.282C-3.67 284.512-6.16 225.881 12 173l1.559-4.7C20.039 149.026 28.695 130.959 40 114"/><path fill="#fefefe" d="M499 262h1v238H271v-1l2.246-.316c15.288-2.21 30.198-5.024 45.067-9.247l2.041-.573c6.842-1.936 13.465-3.954 19.846-7.12 2.627-1.085 5.008-1.03 7.8-.744v-2l1.61-.728c17.753-8.081 35.02-17.15 50.39-29.272l1.858-1.457c7.59-5.974 14.951-11.946 21.54-19.031C425 427 425 427 427 427l.754-1.758c1.425-2.564 3.036-4.12 5.183-6.117C445.479 406.845 456.5 391.306 465 376l1.044-1.842C485.844 339.03 495.642 301.941 499 262"/><path fill="#fefefd" d="M0 261h1l.12 1.67c2.27 30.422 8.677 59.113 20.922 87.132.821 1.884 1.613 3.78 2.4 5.678C32.435 373.533 42.781 389.578 55 405l2.18 2.773C65.588 418.276 74.608 428.426 85 437l2.777 2.438c15.029 13.145 31.768 24.929 49.957 33.238C140 474 140 474 141 477q3.467 1.115 7 2l1 1c1.476.228 2.956.431 4.438.625 5.422.927 10.187 2.685 15.25 4.75 13.206 5.3 26.58 7.947 40.562 10.313l3.84.65c7.626 1.247 15.2 2.159 22.91 2.662v1H0zM429 0h71v238h-1l-.196-2.297c-1.484-16.897-3.62-33.237-7.804-49.703l-.536-2.143c-1.847-7.275-4.258-14.127-7.253-21.005-1.144-2.695-2.131-5.398-3.086-8.165-3.309-9.135-7.145-17.817-12.54-25.906-11.132-16.883-11.132-16.883-8.97-27.743q.48-2.264.966-4.525c4.366-26.188-2.57-55.33-13.581-79.013l-1.22-2.662c-3.146-6.45-6.27-10.473-13.155-13.15L429 1zM0 0h70c-3 2-3 2-5.875 3.625C60.145 6.65 58.303 9.615 56 14l-1.656 3.152c-13.529 26.836-17.325 57.006-12.782 86.57 1.085 8.123 1.085 8.123-.917 11.7l-1.833 2.328a72.3 72.3 0 0 0-7.437 12.371 240 240 0 0 1-3.25 6.54C23.539 145.582 19.448 154.571 16 164l-.757 2.068C7.109 188.617 2.437 212.074 1 236H0z"/><path fill="#fde2bd" d="M428 60v2l2.313.625c3.7 1.893 4.293 3.473 5.687 7.375 1.57 9.077 1.285 18.502 1.313 27.688l.007 2.518c.006 16.546-1.548 32.471-4.32 48.794l-.453 2.763c-2.39 14.153-6.96 27.668-11.547 41.237l-.82 2.458c-3.794 11.35-3.794 11.35-6.18 12.542q-2.846-4.716-5.687-9.437l-1.608-2.663a448 448 0 0 1-8.577-14.87c-5.06-9.106-10.746-17.798-17.128-26.03l-1.824-2.367C373.483 145.734 366.02 140.01 358 136c.605-3.54 1.952-5.46 4.25-8.187 3.813-4.634 7.49-9.35 11.125-14.126l3.387-4.44 1.661-2.181a2594 2594 0 0 1 6.764-8.816l2.399-3.117q2.535-3.291 5.078-6.578l2.649-3.43 1.272-1.644A197 197 0 0 0 403 74.688L405 72h2l.563-2.062C412.228 60.404 417.76 58.94 428 60"/><path fill="#fde2bc" d="M83.04 59.848c6.416 3.707 10.1 9.11 14.16 15.101 3.075 4.522 6.423 8.814 9.8 13.114l1.814 2.315 3.535 4.51c2.362 3.021 4.695 6.066 7.026 9.112a548 548 0 0 0 8.75 11.125C140 129.908 140 129.908 140 133h2c-1.178 3.534-1.853 3.771-4.937 5.625C121.487 148.663 111.008 163.541 103 180h-2l-.334 1.709c-.764 2.627-1.898 4.613-3.318 6.951l-1.604 2.654-1.681 2.749c-.552.91-1.103 1.82-1.67 2.76-2.081 3.43-4.167 6.838-6.393 10.177h-2c-7.38-17.526-12.626-35.882-16.375-54.5l-.722-3.57c-2.99-15.58-4.242-30.924-4.164-46.774.011-2.616 0-5.233-.012-7.85C62.707 73.33 62.707 73.33 67 64c4.772-4.405 9.66-6.805 16.04-4.152"/><path fill="#f26938" d="M363.176 375.66c2.16 1.587 3.28 3.13 4.699 5.402 2.54 4.013 5.188 7.917 7.926 11.797 1.333 2.38 1.8 4.456 2.199 7.141h2l.816 2.23c1.14 2.668 2.434 4.734 4.122 7.082 2.328 3.42 3.973 6.567 5.289 10.473.947 2.713 2.077 5.325 3.21 7.965 1.75 4.196 3.415 8.404 4.938 12.688l1.023 2.87c.694 3.105.75 4.72-.398 7.692-10.772 9.95-38.067 29-53 29l-.364-2.082c-4.83-27.412-10.464-54.84-20.72-80.809-1.321-3.362-2.26-6.563-2.916-10.109q10.94-3.541 21.9-7.017 2.798-.887 5.594-1.787a513 513 0 0 1 5.818-1.821l3.114-.977c2.574-.398 2.574-.398 4.75.262"/><path fill="#df5326" d="M137 375q8.064 2.319 16.125 4.645l5.489 1.58q3.939 1.133 7.878 2.271l2.488.714c5.792 1.676 5.792 1.676 8.02 2.79-1.456 7.358-3.72 14.238-6.187 21.313-7.856 23.13-12.875 46.625-16.813 70.687-4.778-.722-8.907-1.983-13.312-3.937l-2.094-.927C125.502 468.174 110.27 460.27 100 450c-.46-4.945.744-7.668 3-12 .708-3.237.708-3.237 1-6h2l.332-1.793c.943-4.702 2.06-8.14 4.668-12.207.8-1.981 1.517-3.985 2.238-5.996 1.054-2.773 2.384-5.38 3.762-8.004h2l.832-2.203c3.034-7.266 7.6-13.62 12.555-19.692 1.74-2.27 3.159-4.643 4.613-7.105"/><path fill="#526666" d="m266 263 2.953 1.355c8.427 4.115 8.427 4.115 10.495 9.672.964 3.447 1.304 6.844 1.49 10.41l.121 2.27c.183 5.859-.478 9.487-4.059 14.293-5.207 4.835-8.826 5.178-15.734 5.238l-2.64.025q-2.768.02-5.537.032c-2.814.017-5.627.061-8.44.105a2854 2854 0 0 1-5.383.026l-2.539.053c-5.394-.02-8.459-.878-12.727-4.479-3.589-4.753-5.142-8.2-5.125-14.125l-.008-2.695C219 283 219 283 220 282l.125-3c.816-6.105 5.22-10.892 9.906-14.613 11.281-7.354 24.114-7.484 35.969-1.387"/><path fill="#fcfcfb" d="M264 0h158a174 174 0 0 1-5.848 3.738c-3.48 2.498-5.912 5.147-8.59 8.45l-1.446 1.747a411 411 0 0 0-13.143 16.803l-2.098 2.762-1.883 2.531c-2.406 2.378-3.656 2.69-6.992 2.969-1.991-.984-1.991-.984-3.984-2.527-5.736-4.108-11.906-7.019-18.266-10.035l-3.45-1.67C327.178 10.834 296.12 3.429 264 1z"/><path fill="#fcfdfc" d="M77 0h159v1l-2.158.18c-32.288 2.804-63.293 9.948-92.405 24.508l-2.038 1.011a202 202 0 0 0-10.848 5.856l-2.184 1.267a286 286 0 0 0-4.139 2.472c-4.718 2.772-4.718 2.772-7.308 2.438-2.937-1.12-4.196-3.149-6.108-5.607l-2.382-3.02L104 27a1417 1417 0 0 0-4.562-5.562c-2.23-2.711-4.431-5.43-6.57-8.211C87.993 6.909 84.145 3.573 77 0"/><path fill="#df5428" d="M330 182c2.938 1.438 2.938 1.438 5 4 .409 3.046.294 5.947 0 9h-2v2h-2v2c-2.012 1.367-2.012 1.367-4.687 2.875-5.879 3.424-10.118 6.75-14.313 12.125l-2.375 2.277C302.56 223.605 297.705 233.6 294 243l-1.121 2.766C289.053 256.472 288.71 267.738 288 279h-8l-.7-2.082c-.325-.901-.651-1.802-.988-2.73l-.949-2.708c-1.65-3.002-3.338-3.97-6.363-5.48.229-14.49 3.695-26.924 10-40h2l.32-2.184c2.458-10.183 11.601-18.528 18.68-25.816.874-.92 1.748-1.84 2.648-2.79C307 193 307 193 310 192v-2a82 82 0 0 1 6.063-4.125l1.7-1.129c4.226-2.637 7.31-3.25 12.237-2.746"/><path fill="#de5429" d="M169 182c4.89-.282 7.283-.204 11 3l2 .438c2.783.782 4.003 2.505 6 4.562l2.75 1.625L193 193v2l1.668.656c3.098 1.785 5.283 4.21 7.644 6.844l1.477 1.644c14.03 15.851 24.51 37.018 25.59 58.391-.524 4.793-2.38 7.266-5.715 10.633-2.026 1.94-2.026 1.94-2.664 5.832h-9l-.227-4.398c-1.551-24.976-8.95-47.602-28.117-64.692a187 187 0 0 0-4.222-3.535L178 205v-2l-1.812-.375C174 202 174 202 171 200v-2l-1.875-.437C167 197 167 197 165 196v-10l4-2z"/><path fill="#536767" d="M192 223c5.588 4.757 8.568 10.607 9.281 17.86.279 9.151-1.14 16.813-7.547 23.632-4.041 3.514-8.01 5.266-13.297 6.008-6.164-.897-9.863-3.457-13.687-8.187-4.671-6.745-6.928-14.12-5.75-22.313 1.81-7.628 4.696-13.225 11-18 6.376-3.666 13.811-2.547 20 1M324 220c5.743 2.805 10.365 7.484 13.184 13.219 2.299 7.832 2.151 16.945-1.247 24.406-3.106 5.248-7.093 9.427-12.937 11.375-5.085.487-9.556.6-14.312-1.375-6.845-6.685-9.792-13.842-10.063-23.25.073-7.79 1.76-13.582 7.195-19.285 5.75-5.089 10.466-6.303 18.18-5.09"/><path fill="#f6e4d5" d="M322 210c7.997 2.57 14.506 8.683 18.375 16.063 4.668 9.969 5.498 21.574 1.875 32-2.708 6.412-6.21 11.148-11.25 15.937l-2.062 2.25c-3.597 3.249-7.623 2.91-12.313 2.938l-3.336.042c-7.077-.495-12.262-3.383-17.289-8.23-3.594-4.553-7.06-9.573-6.512-15.633 3.534-16.348 11.307-31.931 23.012-43.93 3.48-2 5.53-1.975 9.5-1.437m-20 20c-3.964 6.56-3.758 13.5-3 21 1.76 6.825 4.748 12.142 10.063 16.813 5.6 2.263 11.552 1.952 17.25.125 5.893-4.25 9.217-9.09 11.687-15.938.956-7.886 1.33-16.302-3.332-23.094-3.895-4.451-7.507-8.266-13.484-9.476-9.1-.372-13.913 3.305-19.184 10.57"/><path fill="#f0e0d4" d="M185 210c11.427 7.863 18.446 23.354 23 36l.742 2.05c1.722 5.319 2.244 9.556.078 14.813-4.037 7.755-8.694 12.73-16.82 16.137-7.06 1.857-13.498 1.35-20-2-7.311-4.512-12.359-12.349-15.176-20.332-2.648-11.784-1.598-23.704 4.649-34.125 4.82-6.87 14.377-15.988 23.527-12.543m-19.453 18.762C161.384 234.785 159.94 241.78 161 249c2.132 8.218 5.083 14.66 12.375 19.375 4.749 2.129 7.91 2.657 12.855.777 7.011-3.464 11.118-8.247 14.145-15.402 1.54-9.242 1.555-17.678-3.629-25.687-3.502-4.58-7.116-6.85-12.746-8.063-8.473-.876-13.24 2.452-18.453 8.762"/><path fill="#f07d5c" d="M154 236h2l.078 3.332c.465 13.82 2.667 24.564 12.922 34.668 5.334 4.048 11.4 5.087 18 5 5.863-.994 9.342-3.53 14-7h2l.75-2.062c1.493-3.51 3.331-6.64 5.25-9.938.68-1.326 1.355-2.656 2-4 1.25 7.65 1.09 15.274 1 23h9l-1 3v-2c-8.978.646-16.386 1.211-23.887 6.66-3.055 1.937-5.39 2.612-9.016 2.039-2.305-.52-4.572-1.124-6.847-1.762l-2.523-.687c-11.545-3.219-22.883-7.124-33.727-12.25v-2l-6-1 1.813-.25c2.964-1.017 3.645-2.017 5.187-4.75.763-2.672 1.409-5.29 2-8 1.747-7.64 3.866-14.809 7-22"/><path fill="#3e4d4b" d="m178.625 220.938 2.477.027L183 221l-1.312 2.188c-4.305 8.71-7.01 21.393-4.043 30.87A176 176 0 0 0 180 259c.405 2.322.76 4.655 1 7h2v3c-5.308-.458-9.527-.889-14-4-5.593-6.69-8.563-13.758-8.309-22.54 1.077-8.585 4.5-15.127 11.309-20.46 2.405-1.203 3.95-1.1 6.625-1.062"/><path fill="#ef7d5d" d="M343 252h1c-.687 15.958-.687 15.958-5.719 20.578-1.229 1.038-2.48 2.05-3.758 3.027-1.803 1.424-1.803 1.424-2.523 4.395 7.71-2.643 7.71-2.643 15.063-6.125 4.418-2.333 9.036-3.112 13.937-3.875-1 2-1 2-3.285 2.852l-2.777.773c-1.38.39-1.38.39-2.786.79L350 275v2c-38.24 13.162-38.24 13.162-45 11-2.027-1.121-2.027-1.121-3.937-2.437-6.777-4.371-13.145-5.028-21.063-5.563v-1h8l-.035-3.254-.027-4.308-.026-2.135c-.02-4.543.34-8.82 1.088-13.303h1l.516 1.758c2.675 8.625 6.502 14.679 14.484 19.242 3.827 1.07 7.54 1.164 11.5 1.188l3.344.042c4.932-.36 7.793-1.707 11.156-5.23h2l.848-1.77c1.079-2.089 2.278-3.969 3.59-5.918 2.68-4.212 4.2-8.53 5.562-13.312"/><path fill="#f7eee4" d="M202 239c2.97 1.03 3.853 1.702 5.266 4.574 2.748 8.694 4.241 14.036-.078 22.426-4.414 7.077-9.892 11.705-18.094 13.71-5.492.68-9.932.24-15.094-1.71l-.125-1.812c-.72-2.523-.72-2.523-3.812-3.563C167 271 167 271 165.625 267.813L165 265h-2v-5c3.023 1.968 5.887 3.908 8.688 6.188 3.979 3.118 7.377 3.29 12.312 2.812 6.335-2.419 10.986-5.876 14-12 2.288-5.884 3.42-11.733 4-18"/><path fill="#fdf7ed" d="m177.875 153.688 2.395-.05c5.02-.004 8.334.698 12.73 3.362l2.375 1.313C197 160 197 160 197.563 162.875c-.764 4.243-2.165 5.506-5.563 8.125-5.956 3.369-12.29 3.855-19 3-4.89-1.382-9.752-2.9-13-7-.5-3.437-.5-3.437 0-7 2.25-2.312 2.25-2.312 5-4l1.617-1.086c3.702-1.42 7.329-1.242 11.258-1.226"/><path fill="#fdf5ec" d="m320.25 153.75 2.238-.062c6.293-.045 10.815 1.307 15.95 5.125C340 161 340 161 340.688 163.938c-.755 3.36-1.135 3.815-3.75 5.812-6.52 4.055-13.381 5.17-20.938 4.25-5.522-1.517-9.914-2.956-13-8-.562-2.937-.562-2.937 0-6 5.512-5.512 9.75-6.199 17.25-6.25"/><path fill="#dd7f63" d="m373 54 1 3c-1.812 3.188-1.812 3.188-4 6h-2l-.75 1.813C366 67 366 67 364 68.313c-2.872 2.423-3 5.096-4 8.687-2.437 4.681-5.268 8.29-9 12a352 352 0 0 0-4.25 5.25c-3.438 4.252-7.037 8.111-10.973 11.898-1.738 1.81-3.084 3.637-4.464 5.727-2.444 3.302-3.61 3.788-7.313 5.125-.6 1.902-.6 1.902-1 4-1.648 2.38-2.966 3.8-5.876 4.364-2.426.137-4.822.142-7.251.106l-2.795.007c-3.049.002-6.096-.024-9.144-.051q-3.176-.007-6.351-.01-6.655-.012-13.308-.06a3251 3251 0 0 0-17.076-.067c-5.422-.01-10.844-.03-16.265-.05l-3.145-.011q-4.395-.019-8.791-.051l-2.64-.008c-3.363-.03-6.146-.098-9.358-1.169-1.4-.08-2.805-.105-4.208-.094l-2.56.008-2.755.016q-2.892-.014-5.782-.032a658 658 0 0 0-9.111.002 497 497 0 0 1-8.795-.033l-2.743.053c-6.115-.117-6.115-.117-8.798-2.43-1.391-1.816-2.466-3.34-3.248-5.49l1-3a483 483 0 0 1 3 3.375l1.688 1.898C180 120 180 120 180 122h140l2-4c2-3.25 2-3.25 4-6h2l.813-2.437L330 107l3-1a66 66 0 0 0 2-4 133 133 0 0 1 3.438-4.562l1.808-2.317C341.753 93.3 343.331 91.67 345 90l1.25-2.125c3.07-5.045 6.696-9.825 10.879-14 2.107-2.111 3.367-4.306 4.871-6.875 2.234-3.002 3.868-4.912 7-7a113 113 0 0 0 3-5z"/><path fill="#f7f2e9" d="M315 210c7.045-.587 11.69 1.276 17.145 5.766 6.842 6.448 10.435 12.72 10.855 22.234l.156 2.34c.341 8.987-1.744 19.261-7.156 26.66-2.75 1.5-2.75 1.5-5 2v3c-1.062 1.688-1.062 1.688-3 3-4.427.585-6.518.271-10.437-1.937L315 271v-1l3.625-.812c6.966-1.782 11.132-4.225 15.375-10.188 2.524-5.023 3.555-9.212 3.5-14.875l-.02-2.125c-.215-6.133-1.483-10.363-5.48-15l-1.586-1.871c-4.374-4.136-8.556-4.58-14.414-4.504-2.34.077-4.663.21-7 .375 1.849-3.764 3.905-7.369 6-11"/><path fill="#fcd89b" d="M249 338c1.938.813 1.938.813 4 2l1 3h2l1.625 2.25c3.822 4.426 8.722 6.488 14.375 7.75l1 5c-14.521 2.92-29.501 3.241-44 0v-2c1.645-1.473 1.645-1.473 3.813-3.062l2.144-1.598C237 350 237 350 240 349a119 119 0 0 0 2-4c1.727-1.922 1.727-1.922 3.625-3.75l1.914-1.86z"/><path fill="#755f52" d="M46 138c1.844 2.767 2.349 3.92 2.914 7.034l.455 2.452.47 2.65.509 2.765c.536 2.928 1.063 5.857 1.59 8.786q.525 2.885 1.052 5.768 1.031 5.644 2.053 11.29c.84 4.632 1.706 9.258 2.582 13.884a835 835 0 0 1 3.438 19.621l.486 2.945q.482 2.923.96 5.846.511 3.079 1.057 6.152l.555 3.166.51 2.843c.63 4.78.953 8.6-1.631 12.798h-2l-.625 2.438c-1.482 3.84-3.426 6.737-5.75 10.105-2.18 3.297-3.997 6.744-5.848 10.234a194 194 0 0 1-4.273 7.352C37.834 286.945 37.834 286.945 34 299h-1c-.422-12.073-.422-12.073 3.5-16.812C38 281 38 281 40 281l.379-1.742c.634-2.306 1.484-4.25 2.559-6.383l1.027-2.07C45 269 45 269 47 267c.648-2.57.648-2.57 1-5h2c1.147-2.211 2.115-4.33 2.938-6.687.35-.764.7-1.527 1.062-2.313l3-1 .25-2.187C58 247 58 247 60.063 244.625c2.563-3.473 2.376-5.379 1.937-9.625l-.945-3.2c-1.126-4.057-1.748-8.075-2.305-12.238-1.614-11.4-3.786-22.687-5.938-33.993a1114 1114 0 0 1-4.269-23.78c-.402-2.731-.402-2.731-1.543-4.789a76 76 0 0 1-.316-4.352l-.127-2.578-.12-2.695-.13-2.719Q46.147 141.33 46 138"/><path fill="#f67956" d="M154 236h1l.044 1.725c.075 2.613.172 5.225.268 7.838l.069 2.712c.228 5.666 1.172 9.627 3.619 14.725v3h2l1 4h2v4h2v2c-4.452 1.802-7.336 2.244-12 1l-3-2a175 175 0 0 0-6.687-2.125l-3.575-1.07L138 271l1.898-.402c2.968-.844 3.59-1.917 5.102-4.598.763-2.672 1.409-5.29 2-8 1.747-7.64 3.866-14.809 7-22"/><path fill="#735e54" d="M338 96c0 3.3-.368 3.892-2.25 6.438l-1.266 1.746C333 106 333 106 331.09 107.902c-2.278 2.287-4.268 4.698-6.277 7.223l-2.106 2.633c-1.723 2.118-1.723 2.118-2.707 4.242H180l-4-7a56.5 56.5 0 0 1 7 4c2.578.312 2.578.312 5.524.278l3.48.034 3.821.007 4.02.03c3.641.028 7.281.043 10.922.056 3.803.015 7.607.042 11.41.068 7.204.047 14.408.083 21.611.116 8.2.039 16.401.088 24.602.138q25.305.154 50.61.273v-3h2v-2h2l.875-1.75L325 111l.875-2c1.37-2.436 3.15-4.025 5.125-6l2.063-3.187C335 97 335 97 338 96"/><path fill="#3d4c49" d="M313 222c-.446 2.6-.95 4.885-2 7.313-3.635 9.769-3.129 21.986.344 31.664C312 263 312 263 312 266c-5.733-1.799-8.04-3.785-11.055-8.965-3.19-6.867-3.267-15.871-1.004-23C302.821 228.032 305.807 222 313 222"/><path fill="#da7048" d="M48 29h1v9l-2 1v10h-1c-2.12 5.935-2.427 11.715-2.754 17.988C43 70 43 70 42 72a81 81 0 0 0 .05 4.988l.116 3.063.147 3.261.14 3.3c.32 6.709.878 13.202 2.145 19.802.45 2.894.466 5.662.402 8.586l2 1-.086 2.89c.002 4.694.727 9.234 1.461 13.86l.411 2.683a360 360 0 0 0 2.401 13.817c.828 4.329.98 8.349.813 12.75h-1c-2.728-12.504-5.353-24.968-7.011-37.665-.556-4.11-1.396-7.483-2.989-11.335-.379-2.762-.379-2.762-.562-5.687a257 257 0 0 0-.95-11.024C37.103 72.701 40.72 51.36 48 29"/><path fill="#656058" d="m458 113 2 2a108 108 0 0 1-1.062 9.125l-.422 2.798c-2.013 12.859-4.342 25.856-8.075 38.335-1.92 6.891-2.411 13.884-3.003 20.992q-.336 3.946-.692 7.89l-.291 3.486c-.486 3.602-1.389 6.903-2.455 10.374q-.482 2.028-.937 4.063c-.877 3.596-2.275 6.685-4.063 9.937h-1c-.22-6.044.525-11.156 2-17 1.98-7.853 3.486-15.696 4.777-23.687 2.093-12.743 4.39-25.444 6.742-38.14.683-3.686 1.358-7.374 2.034-11.062l1.302-7.045.61-3.335.567-3.041.495-2.681C457 114 457 114 458 113"/><path fill="#d6704a" d="M450 146h1c-.705 8.556-2.053 16.962-3.474 25.421q-.596 3.562-1.178 7.128c-1.3 7.838-2.767 15.574-4.625 23.304-1.318 5.739-2.313 11.539-3.348 17.334q-.64 3.585-1.29 7.168l-.56 3.146C436 232 436 232 435 234c-.563 5.768.79 9.166 4 13.813 4 5.993 4 5.993 4 8.187h-2c-2.88-3.15-4.467-6.058-6-10l-2-1c-3.254-10.348.77-23.69 3.5-33.812 1.699-6.362 2.492-12.808 3.373-19.321 1.015-7.393 2.434-14.596 4.127-21.867q.533-2.5 1.063-5c.76-3.423 1.828-6.673 2.937-10 .72-2.989 1.371-5.99 2-9"/><path fill="#e76d3f" d="m373 54 1 3c-1.812 3.188-1.812 3.188-4 6h-2l-.75 1.813C366 67 366 67 364 68.313c-2.872 2.423-3 5.096-4 8.687-2.437 4.681-5.268 8.29-9 12a352 352 0 0 0-4.25 5.25c-3.438 4.252-7.037 8.111-10.973 11.898-1.738 1.81-3.084 3.637-4.464 5.727-2.444 3.302-3.61 3.788-7.313 5.125-.824 1.961-.824 1.961-1 4l-1 2h-2c.609-3.093 1.599-5.196 3.438-7.75l1.308-1.86L326 112h2l.813-2.437L330 107l3-1a66 66 0 0 0 2-4 133 133 0 0 1 3.438-4.562l1.808-2.317C341.753 93.3 343.331 91.67 345 90l1.25-2.125c3.07-5.045 6.696-9.825 10.879-14 2.107-2.111 3.367-4.306 4.871-6.875 2.234-3.002 3.868-4.912 7-7a113 113 0 0 0 3-5z"/><path fill="#c86f4d" d="M100 22c3.468 3.37 6.601 6.853 9.625 10.625 2.358 2.938 4.707 5.722 7.375 8.375a191 191 0 0 1 3.188 4.063c6.122 7.937 12.392 15.72 18.956 23.295 2.907 3.39 5.43 6.896 7.856 10.642l1.75 2.25C150 83 150 83 150 85l3 1c1.535 1.707 1.535 1.707 3.063 3.813l1.535 2.082C159 94 159 94 160.047 96.12c1.436 2.83 3.688 4.665 5.953 6.879a516 516 0 0 1 7 8l-1 2c-4.662-3.402-7.174-6.521-9-12-2.015-.733-2.015-.733-4-1v-3l-3-1-2-6-3-1a210 210 0 0 1-4-5l-2-1-1-3-1.562-1.562L141 77v-2h-2a169 169 0 0 1-3-5c-2.07-2.64-4.21-5.214-6.355-7.793C128 60 128 60 128 58l-1.937-.75C124 56 124 56 123.437 54L123 52l-3-2v-2l-3-1-1-5-4-1-.312-1.937L111 37l-3-1c-2.19-3.154-3.666-6.41-5-10l-4 1z"/><path fill="#da7552" d="M457 59h2c1.796 7.398 2.318 14.402 2.25 22l-.018 3.307c-.15 12.317-1.07 24.283-4.369 36.193-2.07 8.396-3.375 16.985-4.863 25.5h-1c-.082-3-.14-5.999-.187-9l-.077-2.543c-.058-5.038.547-8.74 2.496-13.365 1.526-4.157 1.934-8.527 2.455-12.904l.386-3.176c1.634-15.269 1.186-30.68.927-46.012"/><path fill="#ea8665" d="M155 236h1l.078 3.332c.465 13.82 2.667 24.564 12.922 34.668 5.323 4.04 11.408 5.108 18 5 4.456-.862 7.584-1.994 11-5l2 1c-4.625 4.875-4.625 4.875-8 6-2.739.07-5.45.094-8.187.063l-2.272-.014q-2.77-.02-5.541-.049v-2l-3 2 4 4c-5.455-.594-10.231-1.931-15.375-3.812l-2.254-.81c-5.236-1.902-10.332-3.996-15.371-6.378 2.66-1.33 3.988-.783 6.875-.187.864.17 1.727.342 2.617.519 2.508.668 2.508.668 4.625 1.766 2.794 1.339 4.945.57 7.883-.098v-2h-2v-4h-2l-1-4h-2c-5.49-9.312-4.394-19.592-4-30"/><path fill="#f4e7dc" d="m170 216 3 1-2 5h-5l.25 2.813c.029 3.57-.931 6.26-2.25 9.562-3.35 8.782-2.411 14.622 1.125 23.242C166 260 166 260 166 263l-2-1-1 3h2l.75 2.938L167 271c1.917.833 1.917.833 4 1l3 2v3c-6.748-1.636-10.414-7.744-14.191-13.117-2.56-4.612-2.323-9.165-2.184-14.32l.004-2.737c.097-7.43.715-13.812 5.371-19.826l.875-3.562C165 220 165 220 167.625 218.125L170 217z"/><path fill="#d17d63" d="m443 256 2 1v3h2c1.357 1.893 1.357 1.893 2.898 4.531l1.704 2.899 1.773 3.07 1.75 2.977C463.519 287.85 469.672 301.017 466 318l-1-3a152 152 0 0 0-5-2 122 122 0 0 1-4.312-2.5l-2.114-1.281L452 308v-2l-4-2c2.376.462 4.727.925 7.063 1.563 2.256.584 2.256.584 5.937.437v6h4l-.437-3.105-.563-4.082c-.095-.674-.19-1.348-.29-2.042-.493-3.618-.823-7.119-.71-10.771l-1.91-.203L459 291c-.871-2.11-.871-2.11-1.437-4.75-1.108-4.264-1.108-4.264-3.938-7.625-4.066-4.066-5.758-9.246-7.625-14.625v-2h-2z"/><path fill="#805f52" d="m266 263 2.953 1.355c8.325 4.065 8.325 4.065 10.297 8.27.678 3.051.991 4.554-.25 7.375-2.237-2.083-3.934-3.883-5.437-6.562-1.84-2.87-3.609-3.813-6.563-5.438l-1.437-1.5c-3.856-3.702-7.659-4.71-12.875-4.812-7.027.2-15.654 1.054-21.313 5.625-1.716 2.105-3.01 4.339-4.375 6.687-1.27 2.04-2.594 4.05-4 6h-2c-.46-5.442 1.585-7.782 4.934-11.848C236.666 256.973 252.663 256.14 266 263"/><path fill="#ea8d72" d="m337 153 1 2h2c1.102 4.41 1.077 8.484 1 13l-4 2v2l-4-1 3-1.5c3.143-2.084 3.143-2.084 3.398-4.547.007-2.466.007-2.466-.398-5.953-6.11-3.29-11.596-4.363-18.437-4.375l-2.198-.074c-5.566-.03-8.753 1.343-13.365 4.449-1.312 1.098-1.312 1.098-1.25 3.813.29 3.686.484 4.757 3.25 7.187 7.988 3.927 16.43 3.804 25 2l-1 3c-4.909 1.028-9.353 1.017-14.312.688l-2.206-.108c-1.834-.114-3.66-.338-5.482-.58l-1-2c-1.65-1.116-1.65-1.116-3.562-2.125L301 169c-.467-8.089-.467-8.089 1.313-11.562C304 156 304 156 307 156l1-3c9.968-1.833 19.124-3.065 29 0"/><path fill="#f37b57" d="M169 200c6.378.862 9.653 3.3 14 8l1 2-3.937.625c-7.77 1.771-13.198 5.65-17.625 12.25-.831 1.364-1.65 2.735-2.438 4.125-1.422-4.265.346-7.2 1.938-11.187l.88-2.272Q163.9 210.767 165 208h2l.438-3.437C168 201 168 201 169 200"/><path fill="#f8f4ec" d="M340 242c2 2 2 2 2.152 4.688-.48 7.396-1.372 14.361-6.152 20.312-2.672 1.27-2.672 1.27-5 2v3c-1.062 1.688-1.062 1.688-3 3-4.427.585-6.518.271-10.437-1.937L315 271v-1l3.625-.812c6.647-1.7 11.745-4.126 15.375-10.188 1.55-3.602 2.8-7.269 4-11l1.25-3.687z"/><path fill="#e37648" d="M89 60v4c-2.972-1.125-5.334-2.223-8-4-4.393-.247-8.097.5-11.937 2.625-5.847 6.732-5.218 17.773-5.196 26.309l-.003 2.534q0 2.646.006 5.292c.005 2.639 0 5.278-.007 7.918-.004 10.81.366 21.54 1.137 32.322h-2l-.168-1.864q-.38-4.193-.77-8.386l-.263-2.934-.264-2.832-.238-2.602c-.223-2.313-.223-2.313-.836-4.206-.702-3.314-.487-6.604-.375-9.969l.064-2.262q.069-2.36.147-4.718c.078-2.416.145-4.832.21-7.248l.141-4.584.06-2.2c.177-5.08.177-5.08 1.292-6.195.285-2.482.448-4.965.621-7.457.383-2.568 1.092-4.307 2.379-6.543h2v-3c7.213-3.037 14.787-3.037 22 0"/><path fill="#bb5d3c" d="M121 399c1 2 1 2 .188 4.938C120 407 120 407 118 410l-.75 2.688c-1.16 3.072-2.063 4.393-4.125 6.812-3.639 4.586-4.798 9.514-6.168 15.133-.965 3.395-2.377 6.224-3.957 9.367-.252 3.251-.252 3.251 0 6l8 4v2h6l.813 1.875c1.143 2.425 1.143 2.425 4.187 4.125v2c-4.081-1.456-7.415-3.452-11-5.875l-3.062-2.055c-7.844-5.527-7.844-5.527-8.438-8.945.565-3.53 1.855-5.966 3.5-9.125.708-3.237.708-3.237 1-6h2l.332-1.793c.943-4.702 2.06-8.14 4.668-12.207.8-1.981 1.517-3.985 2.238-5.996 1.054-2.773 2.384-5.38 3.762-8.004h2z"/><path fill="#765f51" d="M363 375h3l.688 1.75c1.243 2.45 1.243 2.45 3.875 4.25 2.603 2.136 2.891 2.833 3.437 6l2 1a503 503 0 0 1 2 6 264 264 0 0 0 3 5l1 2.688c.89 2.63.89 2.63 4 4.312.688 3.125.688 3.125 1 6h2q.976 2.34 1.938 4.688l1.09 2.636c.929 2.558 1.514 4.998 1.972 7.676h2l.84 2.809 1.098 3.628 1.09 3.622c.68 2.8.68 2.8 1.972 3.941.141 2.67.042 5.324 0 8-2.334-3.5-3.532-7.115-4.875-11.062q-.807-2.322-1.617-4.641l-.788-2.256c-4.465-13.892-4.465-13.892-12.404-25.639C380 404 380 404 380 400h-2l-.883-1.906c-2.477-5.172-5.144-9.699-8.691-14.2-2.117-2.812-3.75-5.801-5.426-8.894"/><path fill="#e37649" d="m396 80 3 1a1777 1777 0 0 1-17.72 23.341 4097 4097 0 0 0-5.186 6.742 3128 3128 0 0 1-3.766 4.886 551 551 0 0 0-4.406 5.812l-1.86 2.469-1.59 2.14C363 128 363 128 360 129l1-8h2.188c3.9-1.387 4.788-3.743 6.699-7.285L371 112h2l.75-3.312c1.315-3.88 1.97-4.572 5.25-6.688l1-3 3.063-2.5L386 94v-3l2-2 2 1 2-5h2z"/><path fill="#fdcc93" d="M96 277c-1.491 3.796-3.657 5.717-7 8h-3l-1 2-1.937.938C80.68 288.953 80.68 288.953 79 292h-3l-1 2h-2l-1.812 1.938c-2.51 2.366-3.88 2.468-7.188 3.062-1.542 1.375-1.542 1.375-3 3l-2.5 1.438c-2.571 1.39-2.571 1.39-4 3.625-1.932 2.495-3.527 2.924-6.5 3.937l-3.5 1.563c-2.907 1.194-5.413 1.97-8.5 2.437 3.003-3.277 6.073-5.384 9.938-7.562l3.09-1.754L52 304c3.81-2.243 7.534-4.605 11.25-7l1.805-1.163Q68.028 293.92 71 292l2.213-1.428a14568 14568 0 0 0 12.932-8.356 273 273 0 0 0 5.23-3.54C94 277 94 277 96 277"/><path fill="#fdefda" d="M280 280c11.15-.734 19.488 1.64 27.965 9.042 3.963 3.617 7.618 7.075 10.035 11.958v3h2c.088 4.187.14 8.374.188 12.563l.076 3.58c.095 11.399.095 11.399-3.264 16.857l-3 1c.629-2.755 1.424-5.013 2.531-7.66 1.75-4.611 2.007-8.879 1.969-13.777l-.013-2.538c-.177-6.424-1.31-10.998-5.487-16.025l-1.375-1.824c-1.705-2.178-3.126-3.926-5.625-5.176v-2l-2.312-.75a184 184 0 0 1-6.29-2.238c-5.173-1.96-9.88-3.521-15.398-4.012l1 3c-.121 2.262-.121 2.262-.437 4.688l-.31 2.449L282 294h-1z"/><path fill="#f17b59" d="M289 256h1l.516 1.758c1.928 6.216 3.867 11.497 9.484 15.242v4h2l-2 4-12-2q-.04-3.781-.062-7.562l-.026-2.135c-.02-4.543.34-8.82 1.088-13.303"/><path fill="#d77d5a" d="M48 29h1v9l-2 1v10h-1c-2.12 5.935-2.427 11.715-2.754 17.988C43 70 43 70 42 72c-.155 2.177-.25 4.358-.316 6.54l-.127 3.944-.12 4.141-.13 4.164Q41.147 95.894 41 101h-1c-2.945-25.288.166-47.942 8-72"/><path fill="#e47445" d="M432 63c1.892.265 1.892.265 4 1 4.017 6.288 3.42 14.59 3.363 21.734l.002 3.625q-.004 3.773-.029 7.544c-.024 3.849-.02 7.697-.014 11.546q-.007 3.675-.021 7.348l.003 3.482-.03 3.247-.013 2.845c-.283 2.853-1.078 5.03-2.261 7.629h-1l.013-1.925q.066-10.002.097-20.005.015-3.722.04-7.445c.025-3.587.037-7.174.045-10.762l.032-3.31C436.326 75.8 436.326 75.8 432 63"/><path fill="#e07c5f" d="M261 257v2h6v2l4-1v6c-2.439-.951-4.832-1.918-7.184-3.07-7.924-3.709-16.408-4.539-24.863-2.024a92 92 0 0 0-5.062 2.219C232 264 232 264 230 264v-3c9.036-4.84 21.256-9.737 31-4"/><path fill="#c3704e" d="M362 375c3.615 3.414 6.34 6.808 9 11l1.547 2.207 1.64 2.356 1.543 2.19c1.375 2.432 1.869 4.498 2.27 7.247h2l.816 2.23c1.14 2.668 2.434 4.734 4.122 7.082 2.32 3.408 3.974 6.541 5.269 10.442 1.39 3.935 3.188 7.709 4.902 11.512.924 2.834.957 4.005-.109 6.734l-1.812-4.062-1.02-2.286a373 373 0 0 1-2.574-6.004c-1.912-4.375-4.06-8.598-6.252-12.837C381 408.21 381 408.21 381 406h-2l-1.207-2.484-1.606-3.266-1.582-3.234c-1.485-2.977-1.485-2.977-3.304-5.282C370 390 370 390 370 388h-2c-3.28-4.204-4.78-7.914-6-13"/><path fill="#fdf0d8" d="m314 338-3 6h-2l-.687 1.75c-3.15 5.4-8.491 7.634-14.313 9.25-3.261.449-6.46.524-9.75.5l-2.657-.013c-9.94-.26-18.566-3.265-25.593-10.487v-2h-2l1-2 1.574 1.207c6.121 4.65 10.902 7.923 18.535 9.363C277 352 277 352 278 353c7.712.589 13.956.19 21-3h2v-2l2.375-.75c3.08-1.466 3.295-2.236 4.625-5.25 3.556-4 3.556-4 6-4"/><path fill="#cb6234" d="M137 375q8.064 2.319 16.125 4.645l5.489 1.58q3.939 1.133 7.878 2.271l2.488.714c5.792 1.676 5.792 1.676 8.02 2.79-.99 4.836-1.957 9.476-4 14h-1c.52-4.387 1.119-8.67 2-13l-1.845-.503-14.268-3.892-2.932-.791a316 316 0 0 1-6-1.718l-2.935-.858-2.634-.791c-2.548-.477-3.97-.324-6.386.553-3.43 2.47-4.439 6.199-6 10-2 3-2 3-4.125 3.688L125 394c1.32-3.728 2.937-6.446 5.438-9.5 2.484-3.048 4.565-6.114 6.562-9.5"/><path fill="#e3c9b9" d="m313 212 1 2-5 7 2 1-1.39.996c-5.065 3.926-8.063 7.723-9.61 14.004-1.047 9.134.19 16.668 4 25h-3l-1-3h-2l-1-19h-2c2.968-9.804 9.253-22.169 18-28"/><path fill="#cd6f4b" d="M59 200c2.545 2.545 2.307 3.719 2.5 7.25.236 4.274 1.066 7.719 2.5 11.75 6.024 19.984 6.024 19.984 2.719 26.543-1.46 2.308-2.878 4.44-4.719 6.457h-2v2l-2 1a113 113 0 0 0-3 5c0-3.722 1.18-5.464 3-8.687l1.688-3.012L61 246h2c1.666-9.24.025-17.579-1.595-26.698-.57-3.241-1.086-6.488-1.593-9.74l-.48-2.996C59 204 59 204 59 200"/><path fill="#e98b67" d="M360 137c18.074 6.22 31.588 28.758 40 45v2c-2.312-.562-2.312-.562-5-2-1.844-3.556-3.214-7.068-4-11h-2l-.375-1.937L388 167l-2-1a134 134 0 0 1-3-6h-3l-.875-2.75c-1.24-3.794-1.24-3.794-3.125-7.25q-2.495-1.01-5-2a283 283 0 0 1-5-5l-3.312-2.187L360 139z"/><path fill="#eb8461" d="M370 268c3.687-.059 7.375-.094 11.063-.125 1.038-.017 2.076-.034 3.146-.05 13.452-.086 13.452-.086 17.666 3.988L404 274c2.32 1.368 4.679 2.62 7.074 3.852C413 279 413 279 414 281a69 69 0 0 0 4 1 206 206 0 0 1 5 2v3h2l1 3c-4.603-1.644-8.638-4-12.812-6.5l-2.1-1.223c-1.732-1.034-3.415-2.15-5.088-3.277v-2l-2.812-.875C400 275 400 275 397 273a172 172 0 0 0-7-2l-1.98-.539c-3.374-.77-6.823-.838-10.27-1.024l-2.258-.13q-2.745-.158-5.492-.307z"/><path fill="#cf633e" d="M312 209h3c-1.065 2.614-2.143 4.138-4.187 6.125C298.763 226.857 290.547 246.374 289 263h-1c-.48-7.015.083-12.288 2.988-18.71.91-2.06 1.532-3.987 2.075-6.165.919-3.065 1.983-4.661 3.937-7.125.705-2.147.705-2.147 1-4h2l.375-2.25c.58-2.551 1.362-4.477 2.625-6.75h2l.188-1.875L306 214a125 125 0 0 1 5-2z"/><path fill="#f8b57d" d="m167 416 2 3c-.61 3.004-.61 3.004-1.75 6.563-1.776 5.793-3.143 11.488-4.25 17.437-.85 4.153-1.713 8.186-3.125 12.188-1.02 2.744-1.02 2.744-.805 5.464-.086 4.13-1.007 7.75-2.07 11.723l-.578 2.23q-.703 2.7-1.422 5.395l-4-1h3l.124-2.371c.52-8.22 1.772-16.035 3.564-24.067l.793-3.635c2.463-11.082 5.38-22.02 8.519-32.927"/><path fill="#e57849" d="m137 137 2 1c-2.145 3.217-3.99 4.1-7.32 5.883-2.365 1.573-3.375 3.644-4.68 6.117h-2l-.25 1.75c-.963 2.889-2.577 4.141-4.75 6.25a393 393 0 0 0-3 5 174 174 0 0 1-2.937 4.25l-1.465 2.078c-1.831 1.916-3.013 2.292-5.598 2.672 5.13-14.36 18.278-25.93 30-35"/><path fill="#cc5d2f" d="M157 447h2c-.702 7.089-1.81 14.051-3.062 21.063l-.565 3.2q-.683 3.87-1.373 7.737c-5.175-.6-9.37-2.254-14.062-4.375l-2.104-.922c-3.776-1.678-7.338-3.482-10.834-5.703 1.688-.687 1.688-.687 4-1 1.697.948 3.356 1.963 5 3 5.536 2.467 11.14 4.471 17 6l-.035-1.898-.028-2.477-.035-2.46C153 467 153 467 154 465c.278-2.983.446-5.966.621-8.957.374-3.006 1.158-5.288 2.379-8.043z"/><path fill="#6f6152" d="M112 368c8.668 1.366 16.747 4.117 25 7a63.2 63.2 0 0 1-6.875 11.375A172 172 0 0 0 121 400c-.787-2.291-1.168-3.536-.328-5.852l1.078-1.773 1.047-1.79C124 389 124 389 127 387q1.546-3.48 3-7c.97-1.355 1.964-2.694 3-4l-3.578-.805-4.672-1.07-2.355-.527-2.286-.528-2.094-.476c-2.162-.637-4.031-1.532-6.015-2.594z"/><path fill="#7f6153" d="M437 222h1c-.01.574-.02 1.149-.032 1.74-.042 2.629-.067 5.257-.093 7.885-.017.904-.034 1.807-.05 2.738-.037 4.965.21 8.981 2.175 13.637h2l1.023 1.898 1.352 2.477 1.336 2.46c1.233 2.273 1.233 2.273 3.289 4.165l.895 2.273c1.666 4.11 4.247 7.554 6.742 11.204L458 275l-1 3a1678 1678 0 0 1-3.875-6.187l-1.105-1.752c-2.029-3.264-3.725-6.442-5.02-10.061h-2l-1.137-2.125c-2.429-4.503-4.84-8.906-7.738-13.125-2.99-4.784-2.645-8.4-1.437-13.855A306 306 0 0 1 437 222"/><path fill="#715d51" d="M116 40c3 1 3 1 4 3l3 1 3 6 2.563 2.563c2.444 2.444 3.413 4.18 4.437 7.437h2l1 3c1.65 1.682 3.32 3.346 5 5 1.803 2.111 3.498 4.297 5.188 6.5l1.326 1.684c2.418 3.138 4.229 6.052 5.486 9.816-4.063-1.354-4.734-3.417-7-7-5.377-7.293-11.042-14.292-16.939-21.167C116 42.509 116 42.509 116 40"/><path fill="#e3723f" d="m90 278 3 1-2.797 1.73a1207 1207 0 0 0-26.55 16.978l-2.45 1.604-2.167 1.426c-1.964 1.218-3.953 2.264-6.036 3.262v-4l2.379-1.137c10.44-4.546 10.44-4.546 18.059-12.488 2.361-3.59 5.57-4.178 9.562-5.375 3.789-.985 3.789-.985 7-3"/><path fill="#fdd1bb" d="M168 215h2l1 3c-3 2-3 2-6 2l-.332 1.828-.48 2.422-.458 2.39c-.73 2.36-.73 2.36-2.265 4.274-1.953 2.78-1.936 4.838-2.09 8.211l-.191 3.457L159 246q-.26 2.908-.562 5.813l-.254 2.457L158 256c-3.67-5.505-2.587-13.535-2-20 1.67-8.32 6.031-15.031 12-21"/><path fill="#e67b4e" d="M415 57a711 711 0 0 1 6.813-.125l3.832-.07C429 57 429 57 432 59v4l-4-1v-2c-7.59-.34-7.59-.34-14.297 2.719-2.058 2.338-3.886 4.75-5.703 7.281q-2.24 2.79-4.5 5.563-1.755 2.215-3.5 4.437c-.645-1.809-.645-1.809-1-4 2.313-3.062 2.313-3.062 5-6l2-3h2l1-3h2v-4l3-1z"/><path fill="#c46f4e" d="m373 54 1 3c-1.812 3.188-1.812 3.188-4 6h-2l-.75 1.813C366 67 366 67 364.063 68.375c-2.729 2.15-3.534 4.508-5.063 7.625-2.667 3.956-5.003 7.335-9 10l-1.375 2.313c-2.506 4.144-5.614 7.013-9.625 9.687 1.458-3.402 3.404-5.404 6-8l1.313-2.187c3.022-5.037 6.657-9.786 10.816-13.938 2.107-2.111 3.367-4.306 4.871-6.875 2.234-3.002 3.868-4.912 7-7a113 113 0 0 0 3-5z"/><path fill="#e37d4f" d="M65 138c1.727 3.082 2.465 5.828 3.043 9.305l.556 3.177.588 3.393c1.824 10.11 4.301 19.738 7.665 29.445l.89 2.586.808 2.26C79 190 79 190 78 192c-2.691-3.995-4.027-8-5.187-12.625l-.538-2.023C71.533 174.484 71 171.975 71 169h-2l-.621-3.465-.817-4.472-.408-2.288c-.397-3.695-.397-3.695-2.154-6.775a177 177 0 0 1-.062-7.062l.027-3.91z"/><path fill="#636059" d="M458 278h2l.805 1.934 1.07 2.503 1.055 2.497c.894 2.223.894 2.223 3.07 3.066 3.257 5.886 3.458 11.05 3.375 17.688l.035 2.837-.012 2.737-.01 2.467c-.472 2.763-1.574 4.175-3.388 6.271l.14-3.7c.361-13.613-1.731-24.169-8.14-36.3z"/><path fill="#f4dba5" d="M141 475c4.72 1.543 9.417 3.078 14 5l1-2 2.75 1.5c3.259 1.78 3.259 1.78 7.25 1.5v2h6v2c3.655.752 7.317 1.4 11 2v1c-7.832.746-13.644-.974-20.845-3.778-4.417-1.705-8.435-2.588-13.155-3.222-2.434-.973-2.434-.973-4.437-2.062l-2.06-1.098L141 477z"/><path fill="#686758" d="M31 299h2l.104 1.737C34.141 316.763 36.348 328.48 47 341a328 328 0 0 1 3 4h-3v-2l-1.812-.125C41.85 341.54 41.432 339.222 40 336l-2-3.437C31.586 321.4 30.707 311.514 31 299"/><path fill="#cd7049" d="M141 76c4.406 1.346 6.43 3.194 9 7v2l3 1c1.535 1.707 1.535 1.707 3.063 3.813l1.535 2.082C159 94 159 94 160.047 96.12c1.436 2.83 3.688 4.665 5.953 6.879a516 516 0 0 1 7 8l-1 2c-4.662-3.402-7.174-6.521-9-12-2.015-.733-2.015-.733-4-1v-3l-3-1-2-6-3-1a210 210 0 0 1-4-5l-2-1-1-3a102 102 0 0 0-3-3z"/><path fill="#fdc68e" d="M336 432c2.29 3.435 2.828 6.058 3.691 10.09l.455 2.12q.475 2.227.94 4.456c.469 2.234.951 4.465 1.435 6.695 1.75 8.204 3.073 16.237 3.479 24.639l-3-1-.367-3.078c-1.427-11.798-3.126-23.376-6.047-34.914-.6-3.078-.689-5.88-.586-9.008"/><path fill="#e58c70" d="m300 274 1.918 1.426c4.098 2.093 7.856 2.371 12.394 2.762l2.534.248c2.05.199 4.102.383 6.154.564l-1 2q-3.594.08-7.187.125l-2.042.05c-4.06.04-7.121-.375-10.771-2.175v-2h-2zm-20 5c7.094-.097 13.982-.1 21 1v3h2v2l-12-4a166 166 0 0 0-5.687-.562l-3.012-.254L280 280z"/><path fill="#e37845" d="M341 448c2.971 2.971 3.264 6.641 4.125 10.625l.55 2.371c1.129 5.114 1.505 9.77 1.325 15.004q2.22-.715 4.438-1.437l2.496-.81c2.028-.575 2.028-.575 3.066-1.753 2-.04 4-.043 6 0-3.03 2.448-6.075 4.095-9.625 5.688l-2.914 1.324C348 480 348 480 346 480q-1.258-6.591-2.5-13.187l-.723-3.776-.683-3.642-.635-3.349A43 43 0 0 1 341 448"/><path fill="#6a5e54" d="M375 48h3l-2 4h-2l-.75 1.625c-1.557 2.957-3.284 5.672-5.25 8.375h-2l-.812 1.813C364 65.998 362.742 67.258 361 69l-.937 1.938c-1.308 2.537-2.99 4.114-5.063 6.062l-1.75 1.75L352 80c3.2-8.227 3.2-8.227 5.813-10.75 1.972-2.03 3.189-3.781 4.625-6.187 2.14-3.543 4.55-6.202 7.562-9.063q1.327-1.645 2.625-3.312z"/><path fill="#fddecb" d="M336 158c3 1 3 1 4 3 .5 2.813.5 2.813 0 6-4.307 4.69-10.212 6.717-16.453 7.184-4.923.125-8.941-.245-13.547-2.184v-1h21v-2l2.438-.687c2.772-1.055 2.772-1.055 3.437-3.688.119-2.492-.091-4.273-.875-6.625"/><path fill="#fcdac8" d="M187 155c4.381.5 6.956 1.782 10 5 .625 2.938.625 2.938 0 6-3.435 4.616-7.48 6.807-13 8-6.001.546-11.391.425-17-2 4.977-1.621 10.206-1.02 15.371-.937 3.06-.053 5.673-.334 8.629-1.063v-2h3c.347-4.162-.368-5.82-3-9v-2l-4-1z"/><path fill="#e27c4d" d="m338 384-9 6c-1.472 2.944-.85 5.374-.562 8.625l.308 3.602L329 405c-1.966-2.95-3.257-5.737-4.625-9l-1.352-3.187C322 390 322 390 322 387q2.869-1.048 5.75-2.062l3.234-1.16c2.939-.758 4.24-.85 7.016.222"/><path fill="#705c54" d="M257 260c4.643.627 8.511 2.496 12.625 4.625l2.023.965c3.556 1.841 5.663 3.317 7.332 7.031.95 3.146 1.317 4.43.02 7.379-2.237-2.083-3.934-3.883-5.437-6.562-1.84-2.87-3.609-3.813-6.563-5.438l-1.375-1.437c-2.537-2.44-5.544-3.877-8.625-5.563z"/><path fill="#cb724f" d="M37 288h1l-.184 1.984A2172 2172 0 0 0 36 311l4 1c-1.812 1.563-1.812 1.563-4 3l-3-1c-.317-8.801-.54-16.747 3-25z"/><path fill="#e47247" d="M428 1c5.277.215 8.39 1.298 12.285 4.91 3.416 4.163 5.846 9.055 7.715 14.09l-1 2c-2.919-2.43-3.494-4.397-4.25-8.062-.658-2.658-.658-2.658-1.75-4.938-3.978-1.88-6.616-2-11-2z"/><path fill="#df7a56" d="M85 3c1.985 1.884 3.402 3.753 5 6-2.375-.312-2.375-.312-5-1l-2-3c-3.557-1.219-3.557-1.219-7-2V1c-2.473.344-2.473.344-5 1l-1 2h-6l-.812 2.313C62.048 8.89 61.186 10.27 59 12h-2c1.397-4.89 3.94-7.054 8-10 6.52-3.51 13.716-2.589 20 1"/><path fill="#f4e1d4" d="M280 280c8.736-.575 15.315.66 23 5 2.348 2.172 2.348 2.172 4 4-4.054-.663-7.578-1.949-11.375-3.5-4.624-1.821-8.676-3.155-13.625-3.5l1 3c-.121 2.262-.121 2.262-.437 4.688l-.31 2.449L282 294h-1z"/><path fill="#e98563" d="M361 271a875 875 0 0 1-4.375 2l-2.46 1.125C352 275 352 275 350 275v2l-24 8-1-2h4v-2l2.273-.7c6.136-1.954 11.763-4.218 17.47-7.19 4.162-2.046 7.699-3.63 12.257-2.11"/><path fill="#c46648" d="M102 440c1.04 3.38 1.08 6.478 1 10l8 4v2h6l.813 1.875c1.143 2.425 1.143 2.425 4.187 4.125v2c-4.081-1.456-7.415-3.452-11-5.875l-3.062-2.055c-5.455-3.844-5.455-3.844-7.938-6.07-.578-3.964-.094-6.597 2-10"/><path fill="#ea9076" d="M173 153q4.03-.08 8.063-.125c.752-.017 1.504-.034 2.279-.05 4.94-.044 9.033.366 13.658 2.175 2.079 3.443 3.088 5.713 2.813 9.75C199 167 199 167 197 170c-2.625.688-2.625.688-5 1l1.938-2.125c2.226-3.103 2.713-5.121 3.062-8.875l-1.625-.812a106 106 0 0 1-5.062-2.72c-3.729-1.652-6.629-1.964-10.688-2.155l-3.773-.2L173 154z"/><path fill="#cd602f" d="M171 401c1.215 3.644.656 4.815-.512 8.418l-1.043 3.282-1.132 3.488c-3.132 9.874-5.995 19.715-8.313 29.812h-1c-.27-5.654.042-9.875 2.016-15.152 1.346-3.896 2.36-7.866 3.422-11.848 1.701-6.298 3.634-12.144 6.562-18"/><path fill="#f5e0d2" d="M315 210c4.548-.178 7.88.002 12 2-3.818 1.374-7.073.68-11 0v3h2l-1 3 5 1v1l-13 1c1.881-3.762 3.9-7.36 6-11"/><path fill="#cb7552" d="M173 113c3.126 2.962 5.048 5.096 7 9h44v1c-6.46.178-12.918.3-19.379.385q-3.296.052-6.59.143c-3.16.085-6.319.125-9.48.156l-2.971.11c-6.642.003-6.642.003-9.344-2.293C173.99 118.515 173 116.793 173 113"/><path fill="#c46f4d" d="M338 98c0 5.912-4.662 11.878-8.687 16.063C327 116 327 116 324 117c-.672 1.936-.672 1.936-1 4l-1 2h-2c.609-3.093 1.599-5.196 3.438-7.75l1.308-1.86L326 112h2l.813-2.437L330 107l3-1c1.05-1.85 1.05-1.85 2-4 .976-1.351 1.97-2.69 3-4"/><path fill="#7b5e51" d="M153 86c3.69 1.23 3.356 1.712 5 5l2.313 2.313c2.123 2.123 3.689 3.998 5.375 6.437 1.933 3.256 1.933 3.256 4.312 4.25v2h2c3.223 5.273 3.223 5.273 4 7l-1 2-2.266-2.703-2.984-3.547-1.488-1.777A140 140 0 0 0 160 98a264 264 0 0 1-3-5l-2.187-2.687C153 88 153 88 153 86"/><path fill="#f5e9db" d="M298 239q.33 3.937.625 7.875l.195 2.262c.14 1.95.168 3.908.18 5.863-2.139 2.139-3.133 2.427-6 3l2-6h-2l1-6 .438-3.312L295 240c2-1 2-1 3-1"/><path fill="#6d5e53" d="M338 96c0 3.3-.368 3.892-2.25 6.438l-1.266 1.746C333 106 333 106 331.125 107.864c-2.48 2.494-4.662 5.152-6.875 7.886l-2.422 2.984L320 121l-1-4h2v-2h2l.875-1.75L325 111l.875-2c1.37-2.436 3.15-4.025 5.125-6l2.063-3.187C335 97 335 97 338 96"/><path fill="#ebd7ca" d="M208 280h12l-.105 2.563c-.166 6.943.138 12.133 3.105 18.437h-3c-1.507-4.723-2.337-9.14-2.754-14.082-.15-2-.15-2-1.246-3.918l-10 1v-2h2zm-5 4 3 1h-3z"/><path fill="#fecda1" d="M431 149h1c-1.174 11.975-4.603 23.5-8 35h-1c-.043-2-.04-4 0-6l1-1c.232-1.515.412-3.038.563-4.562l.253-2.504L425 168l3-1-.105-2.668-.082-3.52-.106-3.48c.318-3.611 1.14-5.453 3.293-8.332"/><path fill="#835f4f" d="M449 156h1c.633 12.374-1.777 24.098-5 36h-1c-.389-7.703 1.08-14.95 2.5-22.5q.362-1.969.723-3.937.879-4.785 1.777-9.563"/><path fill="#f57957" d="M302 279c4.75.875 4.75.875 7 2 1.537.225 3.08.408 4.625.563l2.477.253L318 282l-1 2h-3v2l-11-1v-2h-2z"/><path fill="#fddac6" d="m158 256 2 1v3l3-1v6h2l.75 2.938L167 271c1.917.833 1.917.833 4 1l3 2v3c-6.263-1.518-9.848-6.873-13.336-11.941C158.63 261.718 158 259.996 158 256"/><path fill="#e5784d" d="M106 172c.727 1.54.727 1.54 1 4a74 74 0 0 1-3.625 7.375l-1.043 1.96C99.966 189.667 97.264 193.302 94 197l-2-1 1.46-2.484 1.915-3.266 1.898-3.234c1.325-2.313 2.573-4.616 3.727-7.016h2l.938-2.875C105 174 105 174 106 172"/><path fill="#e58467" d="M301 167c2.47.97 4.913 1.96 7.324 3.07 8.059 3.597 15.073 3.741 23.676 1.93l-1 3c-4.909 1.028-9.353 1.017-14.312.688l-2.206-.108c-1.834-.114-3.66-.338-5.482-.58l-1-2c-1.65-1.116-1.65-1.116-3.562-2.125L301 169z"/><path fill="#fcd9c4" d="M294 240h1c.213 4.468-.409 7.823-2 12h2l-.496 1.672c-.562 2.594-.601 4.926-.567 7.578l.028 2.703L294 266c-2.926-2.798-3.92-4.154-4.312-8.312.034-6.16 2.343-11.92 4.312-17.688"/><path fill="#fef3dd" d="m249 336 4 2v3l-4-2a1326 1326 0 0 0-3.937 3.875l-2.215 2.18c-1.905 1.815-1.905 1.815-2.848 3.945-3.375 1.688-3.375 1.688-7 3l-3-1h2v-3l1.574-.734c6.082-2.923 10.727-6.393 15.426-11.266"/><path fill="#745d50" d="M107 423c1.033 2.788 1.045 3.868.063 6.75L106 432h-2l.188 2.625c-.215 3.858-1.39 5.994-3.188 9.375-.7 2.736-.7 2.736-1 5h-1c-.846-9.094 2.313-18.891 8-26"/><path fill="#fecfa6" d="M71 163c3.03 3.425 3.916 6.724 5 11.125 1.337 5.348 2.806 10.604 4.582 15.824.48 2.36.061 3.762-.582 6.051q-1.937-5.84-3.845-11.688-.65-1.987-1.31-3.972c-.632-1.907-1.254-3.817-1.876-5.727l-1.143-3.475c-.76-2.887-1-5.175-.826-8.138"/><path fill="#845d49" d="m458 113 2 2c-.242 3.04-.242 3.04-.875 6.625l-.617 3.602L458 128h-2l-.367 3.465-.508 4.472-.238 2.288c-.226 1.934-.55 3.857-.887 5.775l-2 1c.685-6.904 1.748-13.677 3-20.5l.54-3.031.522-2.875.473-2.604C457 114 457 114 458 113"/><path fill="#df7d58" d="m162 169 2.02.875c9.767 3.934 17.944 4.155 27.98 1.125v2h-4v2l-2.117.148-2.758.227-2.742.21c-2.562.21-2.562.21-4.383 2.415v-2l-8-1v-2l-1.875-.437C164 172 164 172 162 171z"/><path fill="#fcc89d" d="M129 118c4.174 3.928 7.894 8.165 11 13v2h2c-1.251 3.754-2.565 4.24-6 6h-2l1-3c2.063-.687 2.063-.687 4-1l-1.375-1.687C136 131 136 131 135 128.313L134 126l-3-1c-1.687-3.062-1.687-3.062-3-6z"/><path fill="#ea8163" d="M210 256h1c.617 9.79.617 9.79-1.562 14.063-3.006 2.389-5.708 3.148-9.438 3.937l1-2h2l.75-2.062c.99-2.329 2.03-4.337 3.313-6.5 1.498-2.659 2.465-4.488 2.937-7.438"/><path fill="#fecfa5" d="M422 184c1.144 3.358.863 5.213-.363 8.512l-.94 2.545-1.01 2.63-.974 2.667c-2.446 6.512-2.446 6.512-4.713 7.646-3-4.75-3-4.75-3-7l6-1 .813-3.5c1.07-4.316 2.562-8.363 4.187-12.5"/><path fill="#e47a4f" d="M426 174h1c.524 11.091.524 11.091-3 16-1.428 3.297-2.717 6.645-4 10-1.06-3.21-.941-5.018.18-8.187l.816-2.368.879-2.445 1.68-4.812.765-2.145c.665-1.998 1.197-3.994 1.68-6.043"/><path fill="#e77042" d="m437 133 3 1-1 2-2-1 .035 2.703.027 3.547.036 3.516c-.15 4.959-.15 4.959-1.098 7.234l-3 1c-.319-15.312-.319-15.312 2.563-19z"/><path fill="#fbc79e" d="m410 66 1 2q-1.426 2.257-2.875 4.5l-1.617 2.531L405 77h-2l-.125 2.125c-1.203 3.954-3.627 6.368-6.875 8.875h-2c1.68-3.764 4.042-6.968 6.5-10.25l1.223-1.68c1.042-1.396 2.154-2.738 3.277-4.07h2l.938-2.437C409 67 409 67 410 66"/><path fill="#e0e7e6" d="m434 418 2 1-8 8c0-3 0-3 1.313-4.605.556-.523 1.113-1.045 1.687-1.582l1.688-1.606zm-9 9 2 1a3151 3151 0 0 1-5.906 5.895c-1.623 1.631-3.21 3.299-4.781 4.98-2.369 2.176-4.266 3.167-7.313 4.125z"/><path fill="#e4d6ad" d="M52 341v3c3.505 1.963 7.134 2.959 11 4l1 5c-6.612-1.653-12.218-5.327-16-11 2-1 2-1 4-1"/><path fill="#e68b6e" d="m198 274 2 1c-4.625 4.875-4.625 4.875-8 6-2.739.07-5.45.094-8.187.063l-2.272-.014q-2.77-.02-5.541-.049v-2h-4v-2l3.813 1.063c5.983 1.311 12.56 1.66 18.218-1.028 1.822-1.163 1.822-1.163 3.969-3.035"/><path fill="#fcd5c3" d="M342 233c3.498 5.582 2.523 12.684 2 19-1.374 5.701-3.323 10.417-7 15 .516-3.785 1.288-6.621 3-10 2.361-8.002 2.196-15.727 2-24"/><path fill="#fee7d6" d="M327 213c5.843 3.222 11.19 7.943 13.957 14.145.543 1.917.543 1.917 1.043 4.855-1.812-.562-1.812-.562-4-2a177 177 0 0 1-3-7c-1.582-1.751-1.582-1.751-3-3v-2l-1.937-.812C328 216 328 216 327 213"/><path fill="#e17a46" d="M74.188 289.371 76 290l-1.605.962a2964 2964 0 0 0-7.207 4.35l-2.526 1.514-2.432 1.475-2.237 1.349c-2.035 1.282-2.035 1.282-3.632 3.019C55 304 55 304 53 304v-4l2.379-1.137c7.097-3.425 7.097-3.425 13.621-7.8 3-2.063 3-2.063 5.188-1.692"/><path fill="#8d624e" d="M443 192h1c.176 4.921-.077 8.93-1.43 13.71-.962 3.865-1.449 7.811-2.007 11.75C440 220 440 220 438 222c-.22-6.049.542-11.15 2-17q.817-3.531 1.625-7.062z"/><path fill="#785d50" d="m41 114 2 1a85 85 0 0 1 1.625 7.063l.4 2.058c.874 4.728 1.268 9.092.975 13.879l-2-1a102 102 0 0 1-1.625-7.625l-.406-2.121c-.816-4.488-1.1-8.695-.969-13.254"/><path fill="#fac296" d="M81 59v1l-3.312.813c-3.42 1.1-4.464 1.612-6.688 4.187h-2l-.375 2.313C68 70 68 70 66 73a128 128 0 0 0-1 7h-1c-.317-5.913.057-10.754 3-16 4.473-4.361 7.87-5.136 14-5"/><path fill="#fcc185" d="m167 416 2 3c-.61 3.004-.61 3.004-1.75 6.563-1.597 5.17-2.892 10.208-3.758 15.546C163 443 163 443 161 445c-.441-6.55 1.19-12.175 3-18.437l.867-3.084q1.054-3.743 2.133-7.479"/><path fill="#cc623e" d="M203 235c1.898.254 1.898.254 4 1 4.566 8.018 5.29 19.001 5 28h-1l-.262-1.879c-1.331-8.393-3.93-16.135-6.738-24.121z"/><path fill="#de8162" d="M100 22c3.489 3.39 6.641 6.897 9.688 10.688C112.714 36.46 112.714 36.46 116 40l-1 2-3-1-1-4-3-1c-2.19-3.154-3.666-6.41-5-10l-4 1z"/><path fill="#d07a59" d="M396 438c2.532 2.532 3.12 4.546 4 8-.04 2.398-.04 2.398-1 5-2.179 1.82-4.188 3.309-6.562 4.813l-1.866 1.232A377 377 0 0 1 386 460l-1-2c2.237-3.356 2.425-3.193 6-4l1-2c1.979-.727 3.98-1.398 6-2l-1-3.75c-.799-2.996-1-5.051-1-8.25"/><path fill="#e9ddc3" d="M464 318c.7 1.563.7 1.563 1 4a67 67 0 0 1-3.187 7l-.924 1.867c-1.86 3.635-3.834 6.424-6.889 9.133.366-3.202.804-4.772 2.938-7.25 2.76-3.68 3.321-7.277 4.062-11.75h3z"/><path fill="#f5bb8c" d="M155 380c9.41-.369 9.41-.369 14 2v2l3.375.438C176 385 176 385 178 386v5l-2 1 1-5-3.29-.805-4.335-1.07-2.16-.527c-4.143-1.027-8.182-2.186-12.215-3.598z"/><path fill="#e37845" d="m115 268-2.273.918C105.995 271.673 99.454 274.645 93 278c.07-1.8.07-1.8 1-4a55 55 0 0 1 6.875-3.187l1.934-.788C110.94 266.74 110.94 266.74 115 268"/><path fill="#cc6849" d="M127 467c4.077.687 7.762 1.91 11.625 3.375l3.414 1.273c2.66 1.215 4.128 2.13 5.961 4.352-3.457 1.152-3.841.907-6.977-.582l-2.28-1.076-2.368-1.154-2.39-1.12c-5.85-2.799-5.85-2.799-6.985-5.068"/><path fill="#e27a46" d="M334 420c3.15 3.423 3.562 6.443 4 11l2-1 1 18h-1a3786 3786 0 0 1-3-11.75l-.867-3.367-.82-3.242-.762-2.984C334 424 334 424 334 420"/><path fill="#fcd0ba" d="m173.328 153.805 2.422.02 2.5.05 2.547.027c2.068.024 4.135.06 6.203.098v1l-3.184.043c-8.376.24-14.876.733-21.816 5.957v7l-2-1c-.312-3.25-.312-3.25 0-7 3.807-3.913 7.84-6.274 13.328-6.195"/><path fill="#6d5d55" d="M118 400h2c-.375 1.938-.375 1.938-1 4l-2 1c-1.028 1.837-1.028 1.837-1.937 4.063l-1.051 2.44a174 174 0 0 0-2.637 6.997C110 422 110 422 108 423c.375-8.253 4.589-16.805 10-23"/><path fill="#e68864" d="M400 184c2.777 1.389 3.308 3.138 4.75 5.875l1.586 2.98L408 196q1.683 3.096 3.375 6.188L414 207h-2c-5.418-6.38-12-14.353-12-23"/><path fill="#fdc9a5" d="M149 276c3.509.81 6.883 1.923 10.297 3.066l3.652 1.221 3.801 1.276 3.848 1.287q4.701 1.573 9.402 3.15v1c-6.65-.579-12.562-2.247-18.875-4.375l-2.875-.922-2.742-.914-2.48-.822C151 279 151 279 149 276"/><path fill="#fdc68d" d="M329 408c2.448 3.672 3.45 7.236 4.688 11.438l.72 2.314.666 2.244.612 2.037c.362 2.267.006 3.797-.686 5.967l-2-3-3-2 1-3 2 1-.875-2.195c-3.687-9.603-3.687-9.603-3.125-14.805"/><path fill="#bf5d3d" d="M137 375c0 4.324-1.995 7.245-4 11l-1.016 2.043c-2.462 4.74-2.462 4.74-5.234 5.894L125 394c1.32-3.728 2.937-6.446 5.438-9.5 2.45-3.057 4.672-6.054 6.562-9.5"/><path fill="#e98765" d="m426 290 6 1v2l2.188.313c3.166.774 5.211 1.719 7.812 3.687 1.313 2.688 1.313 2.688 2 5-3.97-1.835-7.58-4.201-11.25-6.562l-1.969-1.249A200 200 0 0 1 426 291z"/><path fill="#fde8db" d="M388 459v2c-5.093 4.345-10.346 7.891-17 9l-2-1q4.181-2.509 8.375-5l2.406-1.445 2.305-1.368 2.126-1.269C386 459 386 459 388 459"/><path fill="#e88765" d="M408 279c5.446 1.029 10.118 2.246 15 5v3h2l1 3c-4.253-1.53-7.993-3.682-11.812-6.062l-1.811-1.104c-1.478-.914-2.93-1.87-4.377-2.834z"/><path fill="#60605b" d="M440 217h1q.039 2.219.063 4.438l.035 2.496C441 226 441 226 440 227c-.4 2.522-.75 5.03-1.062 7.563l-.276 2.154q-.335 2.64-.662 5.283h-1c-.27-8.722.229-16.687 3-25"/><path fill="#e27649" d="M124 110c3.805 1.51 5.648 3.73 8.125 6.938l2.07 2.652A121 121 0 0 1 138 125l-1 3-1.574-1.977-2.113-2.648-2.2-2.758A243 243 0 0 0 126 114.5c-2-2.5-2-2.5-2-4.5"/><path fill="#745e52" d="M351 80c0 3 0 3-1.812 4.875L347 87l-1.437 2.5c-1.798 2.876-3.84 4.513-6.563 6.5.617-3.935 2.556-6.506 4.875-9.687l2.117-2.95C348 81 348 81 351 80"/><path fill="#d47c64" d="M433 240c4.537 4.018 7.458 8.494 10 14v2h-2c-2.88-3.15-4.467-6.058-6-10l-2-1z"/><path fill="#ea8167" d="M330 214c3.414.788 6.72 1.761 10 3 1.203 2.405 1.1 3.95 1.063 6.625l-.028 2.477L341 228l-1.273-1.742c-2.258-2.952-4.727-5.685-7.204-8.453C331 216 331 216 330 214"/><path fill="#775f50" d="m378 48-2 4h-2l-.75 1.625c-1.557 2.957-3.284 5.672-5.25 8.375h-2l-1 3-1-2 2-3h2l.125-2.062C369.555 53.138 372.69 48 378 48"/><path fill="#dd7957" d="M48 29h1v9l-2 1v10h-4c.545-7.087 2.61-13.328 5-20"/><path fill="#da7957" d="M360.063 471.938 363 472c-3.03 2.448-6.075 4.095-9.625 5.688l-2.914 1.324C348 480 348 480 346 480v-4l2.152-.621 2.786-.817 2.777-.808c5.45-1.798 5.45-1.798 6.348-1.817"/><path fill="#e38867" d="M303 285h19c-2.66 2.66-4.692 2.738-8.375 3.375l-3.46.648C307 289 307 289 303 285"/><path fill="#c57151" d="M53 260c.688 1.813.688 1.813 1 4l-1.36 1.32c-2.586 2.649-3.308 5.947-4.48 9.403-1.356 2.662-2.405 3.26-5.16 4.277 1.284-5.006 3.635-8.68 6.563-12.852 1.334-1.994 2.417-3.98 3.437-6.148"/><path fill="#fbfaf1" d="M337 262c-.187 2.375-.187 2.375-1 5-2.562 1.313-2.562 1.313-5 2v3h-3l-1-4a617 617 0 0 1 3.875-3l2.18-1.687C335 262 335 262 337 262"/><path fill="#ea6e41" d="m420 199 2 1c.625 3.063.625 3.063 1 6l-2.375.813c-2.906 1.035-2.906 1.035-4.625 4.187-.296-7.684-.296-7.684 2-11z"/><path fill="#e38e76" d="M329 154c7.429 1 7.429 1 11 2 1.327 3.981 1.07 7.85 1 12l-4 2v2l-4-1 3-1.5c3.143-2.084 3.143-2.084 3.398-4.547.007-2.466.007-2.466-.398-5.953-3.225-1.737-6.513-2.89-10-4z"/><path fill="#dd8464" d="m410 8 1 2c-1.363 2.602-1.363 2.602-3.312 5.625l-1.926 3.04L404 21h-2l-1 4-4 1c2.615-5.02 5.59-9.029 9.414-13.203 1.762-1.915 1.762-1.915 3.586-4.797"/><path fill="#e2784a" d="M358 377v3c-1.156.2-1.156.2-2.336.402l-3.039.536-3.023.527c-2.571.412-2.571.412-4.602 1.535-2.333.04-4.667.043-7 0 3.236-1.727 6.527-2.953 10-4.125l3.125-1.07C354 377 354 377 358 377"/><path fill="#747a6d" d="M418 360c-5.087 3.392-9.87 5-16 5v-2q2.869-1.048 5.75-2.062l3.234-1.16c2.939-.758 4.24-.85 7.016.222"/><path fill="#d9714a" d="M437 216h1c-.547 8.18-2.171 16.018-4 24l-2-2c.459-7.43 2.935-14.882 5-22"/><path fill="#fbc688" d="m173 400 3 1-1 7-3 1a125 125 0 0 0-2 5l-2 1q.68-2.626 1.375-5.25l.773-2.953A34.6 34.6 0 0 1 173 400"/><path fill="#e67440" d="m330 388-1.023 1.578c-1.312 3.253-.95 5.7-.602 9.172l.336 3.547L329 405c-3.688-5.532-4.461-10.494-5-17 3.75-1.125 3.75-1.125 6 0"/><path fill="#fae8d0" d="M188 292h4v2c-1.426 1.332-1.426 1.332-3.312 2.813-2.987 2.474-4.933 4.678-6.688 8.187l-1.187 2.313L180 309c-.464-4.62.887-6.953 3.438-10.75l1.933-2.922C187 293 187 293 188 292"/><path fill="#fcd4bf" d="M181 276v2l1.703-.496c2.428-.533 4.566-.603 7.047-.567l2.422.028L194 277c-3.43 3.43-8.32 2.968-13 3-2.53-.429-4.587-1.089-7-2v-1c4.75-1 4.75-1 7-1"/><path fill="#e16f43" d="M50 145h2l.402 3.91.535 5.153.264 2.568c.501 4.808 1.079 9.588 1.799 14.369l-1-3h-2l-.184-2.746C51.35 158.48 50.814 151.74 50 145"/><path fill="#7c5c4d" d="m130 383 1 2-2.75 4.125-1.648 2.473L121 400c-.75-1.562-.75-1.562-1-4 1.651-4.03 3.352-6.568 7-9l1-3z"/><path fill="#f6deaf" d="m249 338 4 2 1 3h2l-1 2-4-2v-2c-3.817 1.555-6.192 4.036-9 7l-2-1z"/><path fill="#6f5e56" d="m249.125 258.938 3.883.027L256 259l1 2-17 1v-2c3.003-1.502 5.79-1.093 9.125-1.062"/><path fill="#636f70" d="M99 440c1.534 3.069.55 5.7 0 9a729 729 0 0 1-3.937-2.875l-2.215-1.617C91 443 91 443 90 441l2.25.625c3.073.42 4.178-.006 6.75-1.625"/><path fill="#765e51" d="M458 278h2c3.975 7.54 7.427 14.256 7 23h-1l-.734-2.562c-1.931-6.535-4.087-12.421-7.266-18.438z"/><path fill="#fbd5c2" d="M310 171c6.737-.11 13.3.299 20 1-4.573 2.655-8.84 2.422-14 2-3.625-1-3.625-1-6-2z"/><path fill="#ed8461" d="M448 304c2.376.462 4.727.925 7.063 1.563 2.256.584 2.256.584 5.937.437v5c-3.344-.557-6.033-1.352-9-3v-2z"/><path fill="#ca7a67" d="m443 256 2 1v3h2c1.508 2.117 1.508 2.117 3.125 4.875l1.633 2.742C453 270 453 270 453 272h-2v-2h-2c-3-5.75-3-5.75-3-8h-2z"/><path fill="#687375" d="M462 119c2.635 2.405 4.403 5.019 6.25 8.063l1.64 2.66L471 132l-1 2h-2v-4h-3c-3-6.5-3-6.5-3-11"/><path fill="#fcc79e" d="m393 88 1 2-1.875 2.688c-2.184 3.106-2.184 3.106-3.062 6.124L388 101c-2.625.813-2.625.813-5 1 2.784-5.076 6.408-9.483 10-14"/><path fill="#e57a4c" d="m101 80 4 1 1 5h2l1 2 3 1v6c-2.996-2.843-5.403-5.792-7.75-9.187l-1.86-2.668C101 81 101 81 101 80"/><path fill="#656c5e" d="M112 368c5.469 1.016 10.764 2.07 16 4v2a772 772 0 0 1-5.75-.875l-3.234-.492c-2.693-.565-4.652-1.267-7.016-2.633z"/><path fill="#fbc48c" d="m52 305-1 3-3 1-1.312 1.375c-2.32 2.234-4.728 3.392-7.688 4.625l-3-1 2.3-1.46 3.013-1.915 2.988-1.898C50.127 305 50.127 305 52 305"/><path fill="#fccfa1" d="m115 155 3 1-8 11-2-1 1-5h3l.938-2.437C114 156 114 156 115 155"/><path fill="#e7d9af" d="M115 368c11.706-.554 11.706-.554 16 3l-1 2a893 893 0 0 1-5.812-1.375l-3.27-.773C118 370 118 370 115 368"/><path fill="#7a5b4d" d="m48 266 1 2c-.713 1.696-.713 1.696-1.871 3.695l-1.24 2.168-1.327 2.262-1.314 2.285Q41.634 281.211 40 284l-1-3c.947-1.763 1.904-3.523 2.953-5.227 1.173-1.876 1.173-1.876 2.11-4.523.98-2.354 2.023-3.597 3.937-5.25"/><path fill="#fcd9c7" d="m170 215 1 3c-3 2-3 2-6 2l-.332 1.898-.48 2.477-.458 2.46C163 229 163 229 160 231c3.89-16 3.89-16 10-16M185 210v3h-10v2h-5c4.63-5.093 8.378-5.22 15-5"/><path fill="#e7886e" d="m323.063 208.25 2.035.266C327 209 327 209 330 211v3l-1.875-.875c-4.284-1.542-8.654-2.309-13.125-3.125 2.924-1.7 4.712-2.24 8.063-1.75"/><path fill="#c87656" d="M41 103c1.855 2.782 2.336 3.885 2.852 7.02l.39 2.35.383 2.442.406 2.409c.698 4.306 1.124 8.4.969 12.779h-1l-.621-3.21-.816-4.165-.409-2.117c-.731-3.864-.731-3.864-2.154-7.508a95 95 0 0 1-.062-5.125l.027-2.758z"/><path fill="#ec693f" d="m410 10 2 2-2.5 2.625c-2.159 2.554-2.488 3.241-2.812 6.75L407 24l-5-1v-2h2l.75-2.125c1.41-3.245 3.229-5.978 5.25-8.875"/><path fill="#a85f44" d="m121 399 1 2a103 103 0 0 1-4 7l-1.383 2.238A784 784 0 0 1 113 416l-1-2c.996-2.383.996-2.383 2.438-5.125l1.433-2.758L117 404h2z"/><path fill="#d5714d" d="M372 391c3 1 3 1 4.688 3.938C378 398 378 398 378 400h2c2.125 4.625 2.125 4.625 1 8v-2h-2q-1.472-2.904-2.937-5.812l-1.653-3.27C373 394 373 394 372 391"/><path fill="#fdcca9" d="M423 289a653 653 0 0 1 5.25 2.75c.975.51 1.95 1.02 2.953 1.547 2.712 1.651 4.665 3.368 6.797 5.703l-2 1c-3.234-1.213-4.009-2.013-6-5l-3.062-1.5C424 292 424 292 423 289"/><path fill="#eaebe4" d="M335 257h3c.625 1.875.625 1.875 1 4l-2 2-2-1-1 2a100 100 0 0 1-4 3l-2-1 1.277-1.46 1.66-1.915 1.653-1.898c1.48-1.683 1.48-1.683 2.41-3.727"/><path fill="#eb7e63" d="M334.96 152.367 337 153l1 2 2 1-2.973-.434c-4.149-.592-8.305-1.115-12.464-1.629l-2.217-.275L317 153c5.56-3.707 11.732-1.818 17.96-.633"/><path fill="#637272" d="m31 370 5 2 2-2c.625 2.375.625 2.375 1 5l-2 2-1 3z"/><path fill="#f2a481" d="M370 268h21l1 3 2 1c-4-1-4-1-5.897-1.515-3.405-.785-6.875-.86-10.353-1.048l-2.258-.13q-2.745-.158-5.492-.307z"/><path fill="#fcd9c4" d="m306 157 2 1-2 2c-.167 3.583-.167 3.583 0 7l4 2v2c-2.624-.362-3.82-.827-5.75-2.687-1.625-3.007-1.68-4.941-1.25-8.313 1.5-1.875 1.5-1.875 3-3"/><path fill="#e48355" d="m137 137 2 1c-2.128 3.193-3.944 4.104-7.246 5.883-2.512 1.6-4.07 3.693-5.754 6.117l-2-2q2.404-2.19 4.813-4.375l2.707-2.46C134 139 134 139 137 137"/><path fill="#fcc59d" d="M364 126c1.245 2.49.777 3.41 0 6h-2v5l-4-1c.505-4.379 3.178-6.817 6-10"/><path fill="#6a7374" d="M40 114c.883 2.467 1.131 3.639.223 6.14l-1.16 2.11-1.153 2.14L37 126l-3-1c1.45-4.11 3.511-7.433 6-11"/><path fill="#e46e41" d="m372 58 1 3c-2.82 5.344-6.822 9.041-12 12 .334-3.12.948-3.955 3.375-6.062L367 65c2.385-2.12 3.694-4.086 5-7"/><path fill="#e96b3e" d="M450 36c3 1 3 1 5 4 .258 2.695.089 5.285 0 8l-2-1v-6l-3 1v-2h-2z"/><path fill="#d48063" d="M438 5c4.82 4.131 7.785 9.04 10 15l-1 2c-3.603-3.023-4.08-6.4-5.156-10.82L441 9l-3-1z"/><path fill="#c07967" d="m243.258 257.734 2.394-.007 2.473.023 2.496-.023 2.387.007 2.176.007C257 258 257 258 259 260l-3.473-.07q-2.295-.029-4.59-.055c-.752-.017-1.504-.034-2.279-.05-4.951-.044-8.962.591-13.658 2.175v-2c2.878-1.632 4.956-2.255 8.258-2.266"/><path fill="#fccda1" d="m422.188 59.813 3.292.082L428 60v2l2 1-3 1-1-3c-5.015.33-5.015.33-9 3-2.125-.375-2.125-.375-4-1 2.645-3.536 4.947-3.324 9.188-3.187"/><path fill="#d87e5e" d="M56 12c.578 1.863.578 1.863 1 4a156 156 0 0 1-3 5c-1.113 2.965-2.07 5.973-3 9l-2-1c1.833-6 4.073-11.45 7-17"/><path fill="#f8dbc8" d="M141 475a366 366 0 0 1 17 6c-3.194 1.597-5.553.723-9 0-2.755-1.183-5.383-2.539-8-4z"/><path fill="#cd5a34" d="M120 404c0 3 0 3-2 6l-.875 2.875c-1.208 3.355-2.78 5.468-5.125 8.125-.352-4.227.344-5.775 3-9a149 149 0 0 0 2.125-3.687C119 405 119 405 120 404"/><path fill="#fac18e" d="M140 374c2.059.207 2.059.207 4.438.813l2.37.582c1.747.482 3.474 1.032 5.192 1.605v2l3 1c-5.913-.643-11.342-2.19-17-4z"/><path fill="#dfcfaa" d="M34 315c2.702 2.304 3.46 3.964 4.063 7.438.567 3.195 1.371 5.71 2.937 8.562l-2 1a603 603 0 0 1-2.5-5.687l-1.406-3.2c-1.044-2.97-1.325-5.005-1.094-8.113"/><path fill="#df846b" d="m341 228 3 1c.832 5.039 1.108 9.813 1.063 14.938l-.014 2.072q-.02 2.495-.049 4.99h-1l-.148-2.746c-.428-6.963-1.105-13.498-2.852-20.254"/><path fill="#86604d" d="M60 214c1.949 2.923 2.48 4.51 3.125 7.875l.508 2.555c.366 2.562.432 4.986.367 7.57h-2c-1.586-3.172-1.379-6.635-1.562-10.125l-.131-2.285A1637 1637 0 0 1 60 214"/><path fill="#485250" d="M313 222c-.61 3.558-1.578 6.683-3 10l-.437-1.937c-.373-2.038-.373-2.038-1.563-3.063l-2-2c2.5-3 2.738-3 7-3"/><path fill="#f3ede7" d="M185 215h2l1 3c3 1.709 3 1.709 6 3v2l-6-1v-2h-3z"/><path fill="#d78060" d="m67 1 2 1-2.375.688C63.314 4.343 63.165 5.59 62 9c-1.5 1.813-1.5 1.813-3 3h-2c1.437-5.029 3.942-6.957 8-10z"/><path fill="#ed6a3c" d="M424 4v2l-9 2V4c3.378-.845 5.675-1.108 9 0"/><path fill="#fdeddd" d="M429 0c3.074-.355 5.941-.537 9 0 2.563 3 2.563 3 4 6l-1 2-2.625-2.375C435.449 3.166 432.725 1.975 429 1z"/><path fill="#fae9de" d="m401 448 2 1c-6.897 7.685-6.897 7.685-11.5 9H389c3.59-3.89 7.739-6.897 12-10"/><path fill="#5d6c6c" d="m470 360 2 1c-.48 4.22-1.166 6.797-4 10-1.468-3.816-.48-6.3 1-10z"/><path fill="#fed89e" d="M59.313 301.313 61 302l-2.312 1.25c-2.733 1.54-2.733 1.54-4.126 3.813-2.131 2.643-4.346 3.08-7.562 3.937l1-3 3-1 1-3c4.121-3.119 4.121-3.119 7.313-2.687"/><path fill="#ebded3" d="m200 233 3 1c1.188 3.063 1.188 3.063 2 6h-2l-1 7h-1z"/><path fill="#e3ddd2" d="m170 219 4 2c-2.578 2.648-4.916 4.944-8 7-1.245-2.49-.777-3.41 0-6h5z"/><path fill="#eeefe5" d="M328 221q3.51.43 7 1l1 3-4 2-5-5z"/><path fill="#fdcca2" d="m373 114 1 3c-1.978 3.392-4.076 6.368-7 9l-2-1z"/><path fill="#fbd1a8" d="M115 100c2.964 2.808 5.445 5.183 7 9l-3 1-.187-1.812c-1.132-3.046-3.056-3.633-5.813-5.188v-2z"/><path fill="#fdc5a0" d="m357 272 2 1c-5.163 4.195-8.354 5.65-15 6l2-2h4v-2a136 136 0 0 1 7-3"/><path fill="#af5d43" d="M270 266c3.169.576 5.347 1.125 7.324 3.773 2.833 5.347 2.833 5.347 2.274 8.485L279 280a652 652 0 0 1-2-3.875l-1.125-2.18C275 272 275 272 275 270l-1.937-.875C271 268 271 268 270 266"/><path fill="#e28257" d="M99 184c1 2 1 2 .363 4.094l-1.05 2.406-1.012 2.406C95.804 195.315 94.608 195.99 92 197q1.465-2.97 2.938-5.937l1.652-3.34C98 185 98 185 99 184"/><path fill="#b46b4e" d="M363 66c0 3.312-.544 4.313-2.25 7.063l-1.266 2.097c-1.651 2.047-3.075 2.846-5.484 3.84 1.25-3.653 1.671-4.78 5-7a113 113 0 0 0 3-5z"/><path fill="#fcd1bd" d="M206.438 281.25 208 282h-2v2c-3.367 2.432-4.734 3-9 3v-2c6.4-4.062 6.4-4.062 9.438-3.75"/><path fill="#5b625b" d="m47 264 1 3-1.312 1.063c-2.32 2.663-3.311 5.705-4.688 8.937l-2 1c.397-1.63.818-3.254 1.25-4.875l.703-2.742C43 268 43 268 45.11 266.68L47 266z"/><path fill="#f7c9b0" d="m313 212 1 2a189 189 0 0 1-2.25 3.438l-1.266 1.933c-1.756 1.928-2.945 2.244-5.484 2.629 4-7.571 4-7.571 8-10"/><path fill="#fbdcc5" d="M186 212a271 271 0 0 1 3.5 2.813l1.969 1.582C193 218 193 218 193 221c-2.937-1.125-2.937-1.125-6-3-.875-3.187-.875-3.187-1-6"/><path fill="#f9ecdf" d="M316 212c7.429-.143 7.429-.143 11 1l-1 2-2.312-.125c-2.915-.096-2.915-.096-5.688 2.125v-2h-2z"/><path fill="#ed6d40" d="M380 99h2l-1 6-4 1v2h-2c.313-1.875.313-1.875 1-4l3-2z"/><path fill="#e37546" d="M405 68c.684 1.734.684 1.734 1 4-1.215 2.14-1.215 2.14-2.937 4.25l-1.715 2.14L400 80c-.648-1.805-.648-1.805-1-4 2.375-3.125 2.375-3.125 5-6z"/><path fill="#627171" d="m368 30 8 4-3 1-1 2-4-2z"/><path fill="#f5f3ea" d="m337 252 4 1-1 6h-3c-.934-3.01-1.044-3.867 0-7"/><path fill="#f57148" d="M153 240c1.325 3.63.667 5.623-.812 9.125l-1.083 2.633C150 254 150 254 148 256c.975-5.802 2.013-10.84 5-16"/><path fill="#fdc89d" d="M71 163c4.039 5.092 4.103 8.713 4 15-2.62-4.866-4.328-9.419-4-15"/><path fill="#c16f4f" d="M162 99c3.92 3.804 7.491 7.816 11 12l-1 2c-5.34-3.897-7.724-7.873-10-14"/><path fill="#e27850" d="M426 0v3c-3.724.693-7.21 1.111-11 1 3.794-3.009 6.03-4 11-4"/><path fill="#fdeada" d="M77 0h9l1 3 2 1-1 3-2.125-1.875C82.942 2.957 80.488 1.973 77 1z"/><path fill="#5e6e6d" d="m442 409-5 7c-1-4-1-4-1-7 2-1 2-1 6 0"/><path fill="#c55c34" d="M222 272c0 3 0 3-1 7h-9c2-2 2-2 4.625-2.125L219 277l.938-1.937C221 273 221 273 222 272"/><path fill="#6b756c" d="M454 340c1 3 1 3 .063 5.188L453 347l-2-1c-2.61.894-2.61.894-5 2z"/><path fill="#e27b48" d="M47 304h5c-8.448 7-8.448 7-12 7v-2h3v-2h3z"/><path fill="#5e6c6d" d="m491 301 3 1-1 7-3 1c-1.255-3.766-.37-5.372 1-9"/><path fill="#ea8f76" d="m334 270 1 2-1 2h-2v3h-3v2h-6l1.75-.75c2.384-1.19 2.384-1.19 4.375-3.375L331 273h2z"/><path fill="#dddbcf" d="M298 255h3l3 7h-3l-1-3h-2z"/><path fill="#e68563" d="m164 216 3 1-7 10c-1-3-1-3-.25-5.5 1.185-2.37 2.263-3.784 4.25-5.5"/><path fill="#fdcaa1" d="m102 177 2 1-1 2h-2l-.25 1.625c-1.014 3.21-2.822 5.638-4.75 8.375-1-3-1-3-.187-5.125C97 183 97 183 99 182l1-3h2z"/><path fill="#fed0aa" d="M400 182c2.438 1 2.438 1 5 3 .764 2.727.86 5.142 1 8-3.096-3.509-4.742-6.492-6-11"/><path fill="#f17c5c" d="M341 168v3l-4 1v-2zm-9 4h5c-2 3-2 3-4.125 3.688L331 176z"/><path fill="#fcc69a" d="M83 61c6.646 3.323 6.646 3.323 8.438 6.75L92 70c-1.875-.25-1.875-.25-4-1-1.062-1.937-1.062-1.937-2-4l-3-2z"/><path fill="#ea6c40" d="m384 43 2 1q-1.931 2.474-3.875 4.938l-2.18 2.777C378 54 378 54 376 55c2.038-4.417 4.553-8.553 8-12"/><path fill="#d88263" d="M450 27c2.463 2.463 2.768 4.274 3.625 7.625.26 1.003.52 2.006.79 3.04L455 40l-2-1v-2l-3-1z"/><path fill="#dc7a59" d="M374 467a432 432 0 0 1-4.375 2.563l-2.46 1.44L365 472l-2-1c2.999-4.499 5.898-5.52 11-4"/><path fill="#616e6e" d="M452 390h1c.642 5.262-.794 7.686-3.906 11.68L448 403l-1-3a187 187 0 0 1 4-6c.77-2.226.77-2.226 1-4"/><path fill="#f3dcad" d="m133 370 2.313.938c1.875.74 3.774 1.424 5.687 2.062-3 2-3 2-6.187 1.625L132 374z"/><path fill="#6d6f5f" d="M98 364q2.409.426 4.813.875l2.707.492C108 366 108 366 111 368c-5.336.271-8.614.427-13-3z"/><path fill="#fdddcb" d="M295 282c4.615 1.319 8.099 3.214 12 6-3 1-3 1-6.187-.437L298 286v-2l-3-1z"/><path fill="#fcc78e" d="M108 272c-2.187 2.563-2.187 2.563-5 5-2.812-.187-2.812-.187-5-1 2.6-3.011 6.06-5.97 10-4"/><path fill="#fdc89e" d="M81 198h2l1 5 4-1-2 5h-2z"/><path fill="#e56e42" d="M443 177h1c.226 5.419-.533 9.775-2 15h-1c-.369-10.558-.369-10.558 2-15"/><path fill="#fef2e2" d="M317 155v2l-3.75 1.375c-2.842 1.063-5.577 2.177-8.25 3.625 1.37-3.161 1.99-3.993 5-6 2.395-.584 4.535-1 7-1"/><path fill="#785f4c" d="M144 76c2.54.385 3.728.701 5.484 2.629l1.266 1.933 1.297 1.942L153 84l-1 2c-2.18-2.079-3.964-4.219-5.687-6.687l-1.325-1.887z"/><path fill="#6c7979" d="m181 10-2 4h-10c3.64-2.426 7.559-4 12-4"/><path fill="#627272" d="m40 385 7 1c-.573 2.867-.861 3.861-3 6z"/><path fill="#da9276" d="M465 308h1v10l-1-3a125 125 0 0 0-5-2l-1-2 6 1z"/><path fill="#e5804e" d="M61 299c-5.75 5-5.75 5-8 5v-4c4.625-2.125 4.625-2.125 8-1"/><path fill="#717973" d="M219 283h1l.367 2.52.508 3.293.492 3.269c.484 3.091.484 3.091 2.633 5.918l-2 2c-3.039-5.825-3.354-10.482-3-17"/><path fill="#fee8d8" d="M336 167v3c-3.314 2.21-4.345 2.225-8.187 2.125l-2.731-.055L323 172v-1h8v-2z"/><path fill="#e47a4a" d="m138 128 4 1 1 7-4 1 3-4h-2z"/><path fill="#726050" d="m458 113 2 2c-.242 3.04-.242 3.04-.875 6.625l-.617 3.602L458 128h-1q-.04-3.468-.062-6.937l-.036-3.903C457 114 457 114 458 113"/><path fill="#fef5df" d="M153 481q2.159.427 4.313.875l2.425.492C162 483 162 483 165 485a212 212 0 0 1-4.312-.312l-2.426-.176c-2.625-.594-3.57-1.47-5.262-3.512"/><path fill="#785b4f" d="M112 412c1 2 1 2 .512 3.91l-.825 2.152-.8 2.16C110 422 110 422 108 423c.438-4.557.85-7.577 4-11"/><path fill="#e17858" d="M265 259h2v2l4-1v6l-3-1v-3l-3-1z"/><path fill="#c96a4a" d="m203 235 4 1 1 10c-1.668-2.502-2.624-4.411-3.625-7.187-.26-.716-.52-1.431-.79-2.168-.192-.543-.386-1.086-.585-1.645"/><path fill="#d8805e" d="M48 29h1v9l-4 2z"/><path fill="#fee9db" d="M449 22c3.066 1.533 3.642 3.93 5 7 .688 2.875.688 2.875 1 5l-2 1a742 742 0 0 1-2-4.812l-1.125-2.708C449 25 449 25 449 22"/><path fill="#6a7778" d="M219 2v2c-2.52 1.26-3.854.919-6.625.563l-2.477-.31L208 4V3c3.735-.575 7.213-1 11-1"/><path fill="#da7d5f" d="M384 461a351 351 0 0 1-3.875 2.563l-2.18 1.44L376 466l-2-1 3-1 1-3c2.49-1.245 3.41-.777 6 0"/><path fill="#c95b32" d="M124 394h1c.25 2.75.25 2.75 0 6-2 2.375-2 2.375-4 4 .75-6.625.75-6.625 3-10"/><path fill="#d3734e" d="M42 279c.885 2.478 1.116 3.66.25 6.188C41 287 41 287 38 288c1.059-3.403 2.009-6.014 4-9"/><path fill="#fde3d0" d="m207 262 1 2c-.96 1.945-.96 1.945-2.375 4.125l-1.398 2.195L203 272h-1v-5l1.938-.812c2.393-1.075 2.393-1.075 3.062-4.188"/><path fill="#ec6c3c" d="M429 169c2 2 2 2 2.375 4.438C431 176 431 176 429 177.813L427 179v-5h2z"/><path fill="#6b7a79" d="M30 131h1c.082 3.044-.024 5.072-1 8-2.062.688-2.062.688-4 1 1.059-3.403 2.009-6.014 4-9"/><path fill="#e66d3c" d="M438 120h1c.167 4.921.248 8.503-2 13h-1c-.193-4.824.243-8.496 2-13"/><path fill="#eb6c3b" d="m364 120 2 1-1.437 2.313c-1.664 2.651-1.664 2.651-2.563 5.687h-2l1-8z"/><path fill="#c06f51" d="M173 113c2.964 2.808 5.445 5.183 7 9-3.265-1.804-4.89-2.834-7-6z"/><path fill="#e77f50" d="M89 60v4c-2.915-1.074-4.778-1.778-7-4 3.133-1.044 3.99-.934 7 0"/><path fill="#627373" d="m163 16 1 3c-2.375 1.063-2.375 1.063-5 2l-2-1 1-3c3-1 3-1 5-1"/><path fill="#feebdb" d="m70 1-1.645.805-2.168 1.07-2.144 1.055C61.788 5.066 61.788 5.066 59 7c.125-1.812.125-1.812 1-4C63.756.58 65.752-.355 70 1"/><path fill="#fef8e7" d="M348 481c-3.692 3.538-7.094 3.591-12 4 4.528-3.018 6.524-4.243 12-4"/><path fill="#5f6764" d="M401 443h6a105 105 0 0 1-4 5h-2z"/><path fill="#e8eeef" d="m441 410 1 4c-1.937 2.25-1.937 2.25-4 4l-3-1z"/><path fill="#5c6c6d" d="m52 397 1 2h2l-1 5-4-4z"/><path fill="#e3d5ac" d="M113 365v2l2 1c-6.625-.75-6.625-.75-10-3 2.862-1.43 4.934-.6 8 0"/><path fill="#687271" d="m278 295 2 1c-3.625 5.75-3.625 5.75-7 8 .574-3.871 2.487-6.082 5-9"/><path fill="#5f6c6e" d="m333 258 2 1-5 6-2-2 1-2h2v-2z"/><path fill="#eb8268" d="m191 154 6 1 1 4c-2.937-.812-2.937-.812-6-2z"/><path fill="#6e5d50" d="M170 106h2c3.223 5.273 3.223 5.273 4 7l-1 2c-5-5.625-5-5.625-5-9"/><path fill="#fbc89f" d="m382 102 1 4c-2.437 2.75-2.437 2.75-5 5l-2-1z"/><path fill="#637275" d="M131 31c-.75 1.938-.75 1.938-2 4-2.125.75-2.125.75-4 1v-3c3.75-2 3.75-2 6-2"/><path fill="#ed6a42" d="M441 11c2.624 3.061 3 3.732 3 8l-3-1c-1.178-2.944-1.033-3.9 0-7"/><path fill="#fceadd" d="m407 8 3 1-5 7-1-4c1.438-2.25 1.438-2.25 3-4"/><path fill="#e07451" d="M414 4c2 3.75 2 3.75 2 6l-4-1-1 2c.75-4.75.75-4.75 3-7"/><path fill="#faddcd" d="M369 470v2c-3.445 2.296-5.938 2.54-10 3 1.715-3.43 6.243-5 10-5"/><path fill="#c97759" d="M127 467c3.344.557 6.033 1.352 9 3v2c-3.083-1.199-6.063-2.477-9-4z"/><path fill="#656966" d="M99 440c1.534 3.069.55 5.7 0 9l-2-1c-.625-3.062-.625-3.062-1-6z"/><path fill="#fcd69d" d="M330 424c2.438.625 2.438.625 5 2 .813 3.125.813 3.125 1 6l-1.312-1.375C332.892 428.8 332.892 428.8 330 427z"/><path fill="#efe4c6" d="M382 368c-2.313 2.313-3.479 2.496-6.625 3.125l-2.477.508L371 372c3.737-3.517 5.865-4.478 11-4"/><path fill="#fceed3" d="M232 348h8l-1.812.875c-2.381 1.172-2.381 1.172-5.188 3.125l-3-1h2z"/><path fill="#e9dcbd" d="m449 339 5 1-5 5c-1.125-3.75-1.125-3.75 0-6"/><path fill="#e49078" d="M209 260h1c-.25 3.375-.25 3.375-1 7-2.062 1.438-2.062 1.438-4 2 1.199-3.083 2.477-6.063 4-9"/><path fill="#fcdbc7" d="m338 224 2 1c.73 2.314 1.401 4.648 2 7l-4-2z"/><path fill="#e39178" d="M330 214c3.837.96 4.597 1.236 7 4l-1 3z"/><path fill="#e8906d" d="M400 184c3.039 1.52 3.644 3.98 5 7v2h-2c-2.432-3.367-3-4.734-3-9"/><path fill="#ee7d5f" d="M197 170v2l-9 3v-2h4v-2c2-1 2-1 5-1"/><path fill="#fdc89c" d="M68 150c2.106 1.708 2.938 2.521 3.293 5.262l-.106 2.425-.082 2.45L71 162h-1c-1.138-4.266-2-7.565-2-12"/><path fill="#6c7a7a" d="m21 149 2 4c-1 3-1 3-5 5z"/><path fill="#66736e" d="M124 35v2h-3l-1 4-4-2c5.75-4 5.75-4 8-4"/><path fill="#e96b41" d="m394 30 5 1c-4.625 4-4.625 4-8 4l1-3h2z"/><path fill="#fbc38b" d="M94 277h2c-.625 1.938-.625 1.938-2 4-3.125.75-3.125.75-6 1l2.438-1.937c1.837-1.469 1.837-1.469 3.562-3.063"/><path fill="#ea977c" d="m198 274 2 1c-1.187 2-1.187 2-3 4-2.687.25-2.687.25-5 0l2.438-1.937c1.837-1.469 1.837-1.469 3.562-3.063"/><path fill="#fcd4bc" d="m167 272 7 2v3c-3.653-1.25-4.78-1.671-7-5"/><path fill="#e69276" d="M340 261c1 3 1 3-.437 6.188L338 270l-3-1z"/><path fill="#e3d3c5" d="m311 222-7 5c.375-2.437.375-2.437 1-5 2-1 2-1 6 0"/><path fill="#fed8af" d="M109 161h3l-1 5h-3z"/><path fill="#fdcda8" d="M379 151c2 0 2 0 4.063 1.688 2.116 2.525 2.578 4.083 2.937 7.312-2.964-2.808-5.445-5.183-7-9"/><path fill="#fed1a8" d="m125 144 3 1-7 6v-3h2z"/><path fill="#d7704a" d="M156 94c1.875.125 1.875.125 4 1 1.25 3.063 1.25 3.063 2 6l-3-1v-3l-3-1z"/></svg>