<svg xmlns="http://www.w3.org/2000/svg" width="500" height="500"><path fill="#d08343" d="M0 0h500v500H0z"/><path fill="#fefdfc" d="M0 0h500v500H0zm220.065 10.727c-1.984.262-3.974.487-5.963.71C183.762 15 153.994 26.085 128 42l-3.02 1.844C115.26 49.17 115.26 49.17 108 57l-1.766-.823C76.424 40.53 76.424 40.53 44.125 37.813c-2.473 2.545-2.558 3.24-2.75 6.687.83 16.593 7.785 32.664 15.543 47.117l1.707 3.195 1.54 2.708c.835 2.48.835 2.48.292 4.89-1.855 3.298-4.084 6.232-6.395 9.215C31.963 141.093 17.795 176.744 12 213l-.562 3.513c-1.482 10.373-1.747 20.607-1.699 31.077.011 2.775 0 5.55-.012 8.324-.012 14.52.8 28.993 3.96 43.211l.508 2.317C21.078 331.789 32.429 363.402 52 388a1438 1438 0 0 1 3.688 5.25C68.03 410.138 83.078 426.658 100 439l3.867 2.938C138.111 467.645 178.447 484.765 221 490l2.368.292c8.084.866 16.16.894 24.281.893 2.385.002 4.77.02 7.154.04 13.945.051 27.867-.917 41.51-3.975l2.34-.513c45.281-10.216 84.982-30.725 118.845-62.576 2.331-2.19 4.647-4.271 7.197-6.204 2.5-2.123 3.692-4.126 5.305-6.957a134 134 0 0 1 3.938-4.25c9.785-10.694 17.85-23.22 25.062-35.75l1.13-1.922C472.757 347.393 481.161 322.566 486 298l.53-2.635c5.608-29.6 5.028-63.993-1.53-93.365l-.715-3.23c-5.088-22.154-13.152-43.277-24.336-63.067-.829-1.487-1.612-3-2.387-4.516-3.744-7.311-8.415-13.948-13.157-20.64l-1.675-2.387-1.518-2.136c-1.288-2.151-1.996-3.523-2.212-6.024.925-2.574.925-2.574 2.387-5.473l1.595-3.228 1.705-3.362C456.573 65.045 456.573 65.045 458 40c-2.468-2.86-3.982-2.999-7.781-3.29-16.89.68-34.137 8.928-48.925 16.482l-2.31 1.148-2.04 1.043c-2.4.762-3.605.48-5.944-.383a89 89 0 0 1-4.687-3.437c-5.58-4.177-11.43-7.687-17.474-11.149l-2.116-1.215-1.883-1.067C363 37 363 37 361.06 35.484c-2.187-1.577-4.202-2.477-6.72-3.43l-2.668-1.028L349 30a841 841 0 0 1-4.684-1.93c-19.11-7.853-37.99-13.543-58.441-16.695l-2.422-.374c-10.82-1.591-21.583-2.196-32.515-2.188l-3.564.002c-9.197.064-18.198.684-27.309 1.912"/><path fill="#fdc220" d="M61 102h2c1.078 1.446 1.078 1.446 2.25 3.48l1.327 2.259L68 110.187c13.95 23.33 32.986 46.702 60.219 54.444 2.25.553 4.503 1.07 6.765 1.568l2.351.535q2.831.64 5.665 1.266l.025 3.233q.116 15.18.263 30.36.076 7.8.134 15.602.057 7.547.136 15.095.028 2.86.045 5.721c.095 14.895.514 29.674 5.084 43.989l.77 2.53c2.153 6.83 5.015 13.157 8.32 19.501 3.492 8.792-.455 20.469-2.277 29.344l-.77 3.81c-3.488 17.03-7.63 33.922-11.73 50.815l-3.23.162-4.29.236-2.117.104c-18.586 1.063-33.917 9.144-46.43 22.744a223 223 0 0 0-3.46 4.027c-1.42 1.664-2.907 3.203-4.473 4.727-9.166-8.822-17.062-18.282-24.625-28.5l-1.306-1.759C16.56 339.773 2.256 275.104 11.688 214.063A301 301 0 0 1 14 202l.551-2.698C21.724 165.085 37.596 132.519 59 105z"/><path fill="#f5ac0e" d="M437 103c4.509 1.503 6.394 5.124 8.813 8.938l1.331 2.056a854 854 0 0 1 2.643 4.115c1.027 1.601 2.08 3.186 3.139 4.766 7.916 11.938 13.777 25.134 19.31 38.311.675 1.604 1.369 3.2 2.065 4.794 23.898 57.683 19.333 125.902-3.921 182.8-9.872 23.04-23.786 43.95-40.814 62.31-1.77 1.927-1.77 1.927-2.566 4.91-1.629 1.387-1.629 1.387-3.562 2.688l-1.942 1.324L420 421l-1.375-2.812c-5.639-9.755-13.798-16.9-23.625-22.188l-2.648-1.43c-10.788-5.346-22.44-6.937-34.352-7.57-2.116-9.688-4.138-19.367-5.712-29.158-1.48-9.163-3.121-18.297-4.744-27.435l-.387-2.177-.382-2.144q-.37-2.094-.734-4.189a381 381 0 0 0-1.744-9.414l-.613-3.182-.557-2.73c-.204-4.139 1.547-7.15 3.435-10.743 7.353-14.466 9.622-33.043 9.552-49.09v-2.693q-.002-4.366-.016-8.732l-.005-6.087q-.006-7.98-.024-15.96-.014-8.154-.02-16.309-.016-15.978-.049-31.957l1 3c9.85-2.067 19.063-4.197 28-9l2.984-1.559c7.23-3.972 13.145-8.673 19.016-14.441l1.588-1.501c4.83-4.658 8.86-9.738 12.85-15.124l1.976-2.65c4.938-6.686 9.463-13.507 13.586-20.725"/><path fill="#cf8447" d="M326 107c16.09 13.134 27.633 31.487 30.3 52.351.89 9.759.864 19.5.868 29.29l.01 5.685q.009 5.936.007 11.87c0 5.028.014 10.055.031 15.081q.015 5.867.013 11.732 0 2.778.013 5.554c.083 21.587-1.875 43.072-11.861 62.604-1.691 3.979-1.34 7.308-.502 11.47l.384 2.16c.413 2.301.856 4.595 1.3 6.89q.437 2.383.87 4.765c.828 4.522 1.692 9.036 2.567 13.548l.642 3.332c.942 4.86 1.922 9.712 2.924 14.56 1.987 9.658 3.828 19.246 4.434 29.108l2.133-.105c17.308-.475 33.575 5.11 46.906 16.246 3.581 3.395 6.84 7.04 9.961 10.859l1.79 1.957C420 418 420 418 420.022 420.41c-1.383 3.502-3.637 5.586-6.398 8.027l-1.726 1.555C394.59 445.243 374.915 458.294 354 468l-1.867.889C334.638 477.19 315.968 483.169 297 487l-2.077.433c-14.562 3.014-28.836 3.804-43.673 3.817l-2.466.003c-22.7-.019-44.973-2.804-66.784-9.253v-1q2.219-.04 4.438-.062l2.496-.036C191 481 191 481 192 482c1.515.232 3.038.412 4.563.563l2.503.253L201 483v2l3.438-.062C208 485 208 485 209 486c1.347.23 2.704.412 4.063.563L217 487c1.071-5.958 2.07-11.921 2.75-17.937l.297-2.59c-.056-2.937-.729-4.86-2.047-7.473-3.733-3.254-6.74-4.223-11.562-5.25-5.011-1.27-7.104-2.827-9.731-7.227-2.628-9.38.834-19.067 3.106-28.21a4310 4310 0 0 0 1.614-6.64q.526-2.171 1.057-4.342c1.64-6.75 3.105-13.53 4.516-20.331l3.565.981c6.744 1.489 13.526 1.328 20.4 1.32l4.329.013q4.516.01 9.034.002c3.834-.006 7.667.01 11.501.034 2.976.015 5.952.016 8.929.013q2.118 0 4.237.015c13.442.194 13.442.194 25.407-5.21 5.515-6.974 5.515-6.974 7.946-15.387.87-7.563 2.942-14.977 4.716-22.372 3.774-13.829 3.774-13.829.456-27.221-2.605-3.75-5.732-6.995-8.856-10.313-3.358-3.624-6.458-7.424-9.559-11.27-2.11-2.695-2.11-2.695-4.74-5.31-2.104-2.541-2.36-3.252-2.703-6.732l.404-3.895.2-2.2q.222-2.421.473-4.838c.375-3.781.648-7.568.93-11.357.32-4.238.663-8.473 1.006-12.71q.39-4.842.776-9.686A2958 2958 0 0 1 289 200l.207-2.208c.843-8.844 2.932-15.301 7.793-22.792h2l.684-1.816c1.71-2.838 3.439-3.629 6.378-5.121l2.989-1.563q2.712-1.38 5.43-2.75c9.221-4.825 14.723-10.993 18.519-20.75 2.89-11.762.145-22.017-6.012-32.187C326 109 326 109 326 107"/><path fill="#b26c31" d="M248.258 272.813c10.41-.536 20.454 2.958 28.742 9.187 2.293 2.189 4.305 4.55 6.313 7l1.672 1.987a792 792 0 0 1 3.382 4.05A509 509 0 0 0 293 300.52c2.688 3.142 5.349 6.306 8 9.48l2.39 2.855 2.173 2.645 1.878 2.281c3.436 4.891 4.212 9.325 3.559 15.219-.987 5.184-2.203 10.308-3.437 15.438-2.926 12.168-2.926 12.168-4.563 24.562h-2l-.562 2.5c-2.116 5.151-5.037 10.026-10.333 12.321-7.7 2.558-15.156 2.618-23.203 2.577q-2.166.003-4.331.01-4.515.005-9.03-.017c-3.834-.017-7.669-.007-11.504.01-2.976.012-5.952.008-8.928 0q-2.12-.004-4.24.008c-7.936.03-14.5-.36-21.869-3.409l-.32 3.14c-.787 6.28-2.21 12.432-3.555 18.61l-.777 3.633c-1.45 6.714-3.007 13.381-4.759 20.023-1.273 5.604-1.107 9.932.599 15.406 2.831 4.447 7.862 4.956 12.664 6.25 4.41 1.314 6.298 2.296 9.148 5.938 3.148 8.614-.717 18.554-3 27-6.152.098-6.152.098-8 0l-1-1a236 236 0 0 0-7-1v-2l-1.934.035c-.826.01-1.652.018-2.504.027l-2.496.036C192 483 192 483 191 482c-1.759-.124-3.52-.212-5.281-.285-6.958-.536-12.787-2.547-19.219-5.152-1.13-.45-2.261-.898-3.427-1.36C140.015 465.887 118.28 453.772 99 438l-2.95-2.336C90.339 431.097 85.04 426.301 80 421c2.123-6.279 6.47-10.315 11-15l1.809-1.922c11.268-10.942 27.543-16.306 42.941-16.265 2.419.036 4.832.104 7.25.187l.306-2.034c1.3-8.246 3.064-16.358 4.922-24.491 3.974-17.423 7.498-34.908 10.772-52.475 2 1.75 2 1.75 4 4v4h2l1 5h2a143 143 0 0 1 4.688 7.313l2.73 4.46 1.345 2.21c1.54 2.51 3.134 4.984 4.737 7.454 3.545 5.534 6.844 11.21 10.125 16.903l1.238 2.133 1.103 1.914c1.063 1.784 1.063 1.784 3.034 3.613l-.627-2.675-3.307-14.13a10490 10490 0 0 1-2.31-9.873c-2.156-9.47-2.904-15.85 2.244-24.322l2-3h2v-2h2l.684-1.621c1.742-3.15 4.028-5.74 6.379-8.442q1.493-1.735 2.984-3.472l1.506-1.755c2.14-2.528 4.194-5.12 6.26-7.71 6.624-8.061 14.56-14.273 25.25-15.812 2.066-.099 4.133-.204 6.195-.375"/><path fill="#fdc121" d="m349 30 3.105 1.27c11.625 4.977 22.535 11.873 32.832 19.168l1.773 1.25c2.7 1.96 4.415 3.5 6.29 6.312l-3.262 1.688C380.587 64.454 371.683 69.412 363 75l-2.941 1.89c-5.637 3.693-11.126 7.565-16.559 11.548l-1.911 1.398c-3.055 2.25-6.072 4.531-9.034 6.902l-1.631 1.286a445 445 0 0 0-4.338 3.492C324 103 324 103 321.48 102.934c-2.826-1.064-5.048-2.417-7.543-4.121C288.364 82.215 255.868 76.9 226 83c-16.068 3.533-30.323 8.608-44 18-3 2-3 2-4.871 1.89-2.919-1.22-4.83-3.033-7.191-5.14C151.977 82.272 130.5 68.937 109 59c.24-3.52.712-4.74 3.379-7.14l3.183-2.11 1.747-1.16C145.404 30.25 176.752 17.09 210 12l3.629-.582C260.445 4.275 305.675 11.843 349 30"/><path fill="#ba6f2c" d="M133.16 70.98c13.901 8.624 27.146 17.957 39.684 28.489 2.82 2.046 2.82 2.046 6.156 2.531 2.133-1.233 4.02-2.494 6-3.937 18.427-12.556 41.472-18.27 63.625-18.25l2.322-.002c7.462.067 14.696.974 22.053 2.189-3.448 2.299-6.447 2.694-10.437 3.313-9.071 1.55-16.869 4.795-25.063 8.937-2.685 1.343-4.646 2.124-7.5 2.75v2c-5.412 4-5.412 4-8 4v2h-2v2a170 170 0 0 1-3.383 3.41C201.356 125.414 193.967 144.907 192 166c-9.395-1.23-15.034-6.45-21.125-13.437-5.64-7.709-6.565-15.243-5.875-24.563 1.328-7.014 4.301-12.947 8-19-1.915 0-3.202 1.939-4.5 3.188-14.898 15.138-23.482 34.637-24.5 55.812-15.304 1.424-32.786-8.906-44.55-17.945C73.17 128.008 53.276 92.734 44 60l-.738-2.531C41.789 51.779 41.102 45.835 42 40c13.871-17.22 76.458 21.967 91.16 30.98"/><path fill="#e6a164" d="M326 107c16.09 13.134 27.633 31.487 30.3 52.351.89 9.759.864 19.5.868 29.29l.01 5.685q.009 5.936.007 11.87c0 5.028.014 10.055.031 15.081q.015 5.867.013 11.732 0 2.778.013 5.554c.093 24.202-3.251 46.234-14.555 67.875l-1.074 2.06c-3.225 6.037-6.9 11.757-10.613 17.502q-1.77 2.767-3.535 5.535a9081 9081 0 0 1-5.303 8.303 616 616 0 0 0-9.794 15.87 753 753 0 0 1-5.743 9.417l-2.086 3.383L303 371c-1.102-3.306-.894-4.348-.11-7.648l.648-2.78.712-2.947.702-3.006q1.483-6.35 3.052-12.682c2.868-11.593 2.868-11.593-.484-22.75-2.605-3.748-5.732-6.994-8.856-10.312-3.358-3.624-6.458-7.424-9.559-11.27-2.11-2.695-2.11-2.695-4.74-5.31-2.104-2.541-2.36-3.252-2.703-6.732l.404-3.895.2-2.2q.222-2.421.473-4.838c.375-3.781.648-7.568.93-11.357.32-4.238.663-8.473 1.006-12.71q.39-4.842.776-9.686A2958 2958 0 0 1 289 200l.207-2.208c.843-8.844 2.932-15.301 7.793-22.792h2l.684-1.816c1.71-2.838 3.439-3.629 6.378-5.121l2.989-1.563q2.712-1.38 5.43-2.75c9.221-4.825 14.723-10.993 18.519-20.75 2.89-11.762.145-22.017-6.012-32.187C326 109 326 109 326 107"/><path fill="#b46d31" d="M248.258 272.813c10.41-.536 20.454 2.958 28.742 9.187 2.293 2.189 4.305 4.55 6.313 7l1.672 1.987a792 792 0 0 1 3.382 4.05A509 509 0 0 0 293 300.52c2.688 3.142 5.349 6.306 8 9.48l2.39 2.855 2.173 2.645 1.878 2.281c3.436 4.891 4.212 9.325 3.559 15.219-.987 5.184-2.203 10.308-3.437 15.438-2.926 12.168-2.926 12.168-4.563 24.562h-2l-.562 2.5c-2.116 5.15-5.037 10.03-10.334 12.32-7.687 2.548-15.134 2.636-23.166 2.614q-2.162.007-4.325.015-4.508.013-9.016-.003c-3.826-.011-7.652.009-11.478.038-2.972.018-5.944.018-8.916.012q-2.115 0-4.228.019c-16.449.125-16.449.125-22.975-4.515-.636-2.076-.636-2.076-1-4a179 179 0 0 0-4-2c-1.995-2.993-2-4.23-2-8l-3-1 1-3a100 100 0 0 0-1.398-6.68l-.468-1.969c-.496-2.077-1.002-4.151-1.509-6.226q-.745-3.102-1.487-6.205-.68-2.824-1.366-5.646c-2.224-9.433-2.9-15.834 2.228-24.274l2-3h2v-2h2l.684-1.621c1.742-3.15 4.028-5.74 6.379-8.442q1.493-1.735 2.984-3.472l1.506-1.755c2.14-2.528 4.194-5.12 6.26-7.71 6.624-8.061 14.56-14.273 25.25-15.812 2.066-.099 4.133-.204 6.195-.375"/><path fill="#d18445" d="M174 106c0 3.696-1.149 5.496-2.875 8.75-4.608 9.075-6.789 17.468-4.312 27.563 2.271 5.141 4.657 9.305 8.187 13.687v2l1.672.836L189 165v2h2l.028 2.4c.054 3.596.138 7.191.222 10.787l.043 3.776.098 3.642.063 3.349c.658 3.67 2.15 5.256 4.546 8.046.663 5.21-.19 8.584-3 13l-2.076 1.155c-2.306 1.832-2.306 1.832-2.442 5.505a171 171 0 0 0-.013 4.617l-.017 2.517c-.008 2.715.017 5.428.048 8.143l.015 2.797c.135 21.792 2.007 43.265 9.438 63.914 2.542 7.14 2.542 7.14 1.047 11.352h-2v2h-2a171 171 0 0 0-2 4l-1.625 3.25c-3.355 9.149-.11 18.25 2.063 27.375q.736 3.143 1.467 6.287.664 2.846 1.339 5.688A148 148 0 0 1 198 370c-6.1-5.175-9.433-12.282-13.207-19.219-2.8-5.143-5.82-10.126-8.918-15.094l-1.31-2.104c-1.712-2.728-3.41-5.38-5.37-7.938C168 324 168 324 168 322h-2l-1-5h-2c-.27-.73-.542-1.459-.821-2.21-1.14-2.697-2.464-4.97-4.042-7.43-3.15-5.17-5.326-10.41-7.324-16.11l-1.036-2.907c-6.027-17.312-6.938-33.923-6.945-52.077l-.01-5.776q-.009-6.036-.007-12.073c0-5.121-.014-10.243-.031-15.364q-.015-5.961-.013-11.922 0-2.83-.013-5.66c-.113-30.169 6.163-54.327 27.804-76.158q1.71-1.666 3.438-3.313"/><path fill="#7c400e" d="M54 52c13.118-1.286 25.699 7.122 37 13l3.074 1.566c5.872 3.074 11.166 6.628 16.465 10.606a96 96 0 0 0 6.148 4.203L119 83v2l1.875.938L125 88v2l3 1c3.352 3.094 6.168 6.437 9 10l1.875 1.813c5.19 5.343 8.819 11.14 12.063 17.812l.966 1.92c1.981 4.24 2.41 6.96 1.096 11.455q-1.432 2.72-2.879 5.434C147.68 145.022 146.446 151.09 145 157c-6.625.25-6.625.25-10-2a248 248 0 0 0-5.625-1.437c-12.446-3.727-23.322-11.95-32.59-20.883-1.691-1.753-1.691-1.753-3.785-2.68l-1.312-2.25c-1.615-2.883-1.615-2.883-4.25-5.25-2.416-2.477-3.413-4.24-4.438-7.5h-2a115 115 0 0 1-4.187-6.75l-2.454-4.21-1.22-2.11a141 141 0 0 0-2.936-4.72C62.115 84.463 53.706 67.273 54 52"/><path fill="#773e0e" d="M446 52c.656 6.926-1.692 12.426-4.187 18.813-.582 1.543-.582 1.543-1.174 3.119A176 176 0 0 1 432 93h-2l-.375 2.25c-.58 2.551-1.362 4.477-2.625 6.75h-2l-1 5h-2l-.937 2.875C420 113 420 113 419 115h-2l-1 3h-2l-.191 1.64c-1.148 3.349-3.372 5.573-5.747 8.11l-1.38 1.535c-1.181 1.283-2.428 2.504-3.682 3.715h-2l-1 3c-2.34 2.17-5.01 3.924-7.625 5.75l-2.304 1.617c-10.156 6.95-22.417 14.25-35.071 13.633l-.503-1.757c-.763-2.645-1.536-5.288-2.31-7.93l-.79-2.764c-1.576-5.377-1.576-5.377-4.159-10.319C346 132 346 132 346.09 129.14c1.077-3.716 2.624-7.01 4.473-10.39l1.093-2.006C359.976 101.862 373.282 88.997 387 79l1.612-1.204C428.72 48.02 428.72 48.02 446 52"/><path fill="#bd7233" d="M343 305c2.305 3.794 2.843 7.894 3.543 12.203l.402 2.414q.417 2.526.824 5.053c.415 2.56.849 5.114 1.284 7.67q.402 2.463.802 4.926l.395 2.289c2.023 12.933-2.197 25.653-9.25 36.445-2.873 3.781-5.911 7.394-9 11l-1.934 2.535c-2.284 2.725-4.725 4.812-7.503 7.027l-2.81 2.254L317 401l-2.723 2.277C312 405 312 405 310 405v2q-2.494 1.199-5 2.375l-2.812 1.336c-7.348 2.971-13.985 3.607-21.829 3.625l-3.04.02q-3.173.015-6.344.015c-3.202.004-6.402.04-9.604.078-19.855.109-19.855.109-29.371-4.449l-2.031-.927A74 74 0 0 1 226 407v-2l-1.687-.812L222 403l-2.687-1.375C217 400 217 400 216.188 397.813L216 396h-2c-1.29-1.531-1.29-1.531-2.625-3.5l-1.352-1.969L209 389l1-2 2.589.983c3.523 1.05 6.326 1.277 9.992 1.292l3.905.029 4.186-.003 4.341.013q4.545.01 9.089.002c3.857-.006 7.714.01 11.572.034 2.989.015 5.978.016 8.967.013q2.13 0 4.262.015c13.308.329 13.308.329 25.104-5.007 4.316-4.324 6.838-9.702 9.435-15.154 2.07-4.343 4.432-8.236 7.18-12.174 1.326-1.966 2.453-3.95 3.565-6.043 2.823-5.196 6.066-10.1 9.294-15.05 3.72-5.704 7.385-11.44 11.019-17.2l1.528-2.417c2.366-3.754 4.711-7.515 6.972-11.333"/><path fill="#b96f2d" d="M456.195 38.258C458 40 458 40 458.531 41.918 458.022 78.869 432.297 117.146 408 143l-1.883 2.113c-5.542 5.972-12.06 9.896-19.117 13.887l-2.156 1.25c-8.562 4.644-18.175 7.094-27.844 7.75-1.283-3.85-1.066-6.947-1-11l2.5-.594c21.44-5.551 40.8-17.842 54.5-35.406l1-3c1.438-1.687 1.438-1.687 3-3h2l.938-2.875C421 109 421 109 422 107h2l1-5h2l3-9h2l.855-2.644c1.05-3.077 2.21-6.057 3.457-9.06l1.32-3.222q1.36-3.304 2.735-6.601c2.625-6.437 4.597-12.59 5.633-19.473-10.418 0-18.834 4.516-28 9l-2.235 1.08C404.987 67.345 395.43 73.61 386 81l-2.887 2.207C366.411 96.349 354.971 110.791 346 130c-1.881-2.332-3.75-4.663-5.535-7.07-4.3-5.784-9.12-10.58-14.402-15.45C324 105 324 105 323.879 102.922c1.582-2.712 3.502-4.033 6.058-5.86.53-.38 1.06-.762 1.605-1.155a683 683 0 0 1 3.545-2.534 343 343 0 0 0 5.905-4.357C358.577 75.912 377.392 64.789 397 55l2.341-1.183c8.886-4.464 17.842-8.437 27.221-11.754l2.414-.857c20.307-6.908 20.307-6.908 27.22-2.948"/><path fill="#e7a062" d="M191 167c9.211 4.596 13.958 9.45 17.845 19.023 2.814 8.597 2.655 18.148 3.218 27.102.232 3.337.472 6.674.712 10.011q.245 3.399.483 6.797c.862 12.17 2.044 24.304 3.262 36.443q.257 2.562.51 5.126.226 2.289.462 4.578c1.179 11.918 1.179 11.918-1.18 15.44L214 293.813c-4.678 4.825-8.866 9.893-13 15.187-2.136-2.136-2.575-3.265-3.469-6.086l-.777-2.448L196 298l-.66-2.146c-5.79-19.4-7.614-38.543-7.812-58.723a719 719 0 0 0-.078-5.62 461 461 0 0 1-.044-7.96l-.049-2.434c.028-2.264.028-2.264.643-6.117 2.455-2.39 2.455-2.39 5-4 2.246-3.957 2.482-7.505 2-12-.66-.765-1.32-1.53-1.999-2.32-2.466-3.302-2.469-4.998-2.392-9.075l.04-3.642.101-3.775.055-3.834q.071-4.678.195-9.354"/><path fill="#935521" d="M249.5 332.5c3.198.64 4.933 1.453 7.5 3.5.794 2.684 1.276 4.95 1.625 7.688q.353 2.178.719 4.355l.34 2.091c1.225 7.227 4.239 11.279 9.671 16.104 6.963 4.639 13.494 5.253 21.645 5.45l2.926.103q3.536.123 7.074.209c-.483 4.587-1.413 7.2-4.437 10.688l-1.872 2.261c-7.975 6.077-18.177 5.511-27.753 5.485q-2.162.007-4.325.015-4.508.013-9.016-.003c-3.826-.011-7.652.009-11.478.038-2.972.018-5.944.018-8.916.012q-2.115 0-4.228.019c-16.449.125-16.449.125-22.975-4.515-.636-2.076-.636-2.076-1-4a179 179 0 0 0-4-2c-1.995-2.993-2-4.23-2-8l1.721.02c12.228.04 22.248-.22 32.279-8.02l2-3h2l.406-1.742c.577-2.193 1.31-4.257 2.094-6.383 1.196-3.45 1.69-6.483 1.875-10.125.291-3.737.574-4.679 2.875-7.875C247 333 247 333 249.5 332.5"/><path fill="#8b4e1c" d="m133.688 387.875 3.449-.008C140 388 140 388 142 389c-.565 9.542-2.94 18.47-5.312 27.688q-.594 2.342-1.186 4.685A2400 2400 0 0 1 132 435l-.563 2.181q-.797 3.077-1.605 6.151l-.926 3.542A71 71 0 0 1 126 455c-13.547-2.579-28.465-17.437-38.375-26.5l-1.64-1.491c-2.621-2.46-4.664-4.636-5.985-8.009 13.072-17.78 30.664-31.178 53.688-31.125"/><path fill="#8a4d19" d="M359 387c17.644-.972 34.466 4.804 48.04 16.14 3.58 3.396 6.84 7.04 9.96 10.86.59.646 1.18 1.292 1.79 1.957C420 418 420 418 420.022 420.41c-1.383 3.502-3.638 5.586-6.398 8.027l-1.712 1.546C382.423 456 382.423 456 374 456c-4.235-16.51-8.332-33.041-12-49.687l-.464-2.083c-.435-1.954-.86-3.91-1.286-5.867l-.734-3.366c-.472-2.742-.62-5.223-.516-7.997"/><path fill="#311d30" d="M248.25 272.816c10.082-.533 20.916 2.699 28.75 9.184 1.852 1.92 3.402 3.853 5 6-3.72 8.184-12.565 13.021-20.629 16.113-10.961 2.883-21.536 1.574-31.371-4.113-5-3.257-9.467-6.427-12-12 5.558-7.963 12.896-12.15 22.266-14.59 2.652-.393 5.313-.376 7.984-.594"/><path fill="#ab6626" d="M430 93h2c1.324 1.574 1.324 1.574 2.688 3.688l1.386 2.074c1.224 2.96.949 4.21-.074 7.238a93 93 0 0 1-3.937 6.5l-1.21 1.845c-6.8 10.232-14.438 19.7-22.853 28.655l-1.883 2.113c-5.542 5.972-12.06 9.896-19.117 13.887l-2.156 1.25c-8.562 4.644-18.175 7.094-27.844 7.75-1.283-3.85-1.066-6.947-1-11l2.5-.594c21.44-5.551 40.8-17.842 54.5-35.406l1-3c1.438-1.687 1.438-1.687 3-3h2l.938-2.875C421 109 421 109 422 107h2l1-5h2z"/><path fill="#ac6527" d="M68 93c2.75 2.44 4.245 5.067 5.938 8.313 1.691 3.189 3.375 6.285 5.437 9.25C81 113 81 113 81 115h2c3 4.385 3 4.385 3 7l1.813.813c2.205 1.197 3.623 2.232 5.187 4.187v3l1.766.781c2.419 1.32 4.015 2.797 5.984 4.719 9.213 8.304 19.608 14.753 31.676 17.781C135 154 135 154 138 156c2.324.394 4.658.735 7 1l-1 11c-15.304 1.424-32.786-8.906-44.55-17.945-11.51-9.656-35.073-32.565-36.72-48.696C63.1 98.123 64.61 97.101 67 95z"/><path fill="#f0c548" d="M437 103c4.509 1.503 6.394 5.124 8.813 8.938l1.331 2.056a854 854 0 0 1 2.643 4.115c1.027 1.601 2.08 3.186 3.139 4.766 7.916 11.938 13.777 25.134 19.31 38.311.675 1.604 1.369 3.2 2.065 4.794 24.43 58.968 18.105 125.284-4.154 183.516-1.131 2.47-2.433 4.406-4.147 6.504.421-6.426 1.767-11.638 4.16-17.617 1.006-2.433 1.006-2.433.84-5.383 1.504-2.255 3.082-4.082 5-6 1.956-5.558 2.549-11.029 3.063-16.875q.23-2.56.472-5.117l.2-2.261C480 301 480 301 481 300l.438-3.187C482 293 482 293 483 290.063c2.546-7.797 2.32-16.313 2.625-24.438l.156-3.598.133-3.425.124-3.115c.142-2.489.142-2.489-1.038-4.487a190 190 0 0 1-.062-7.625l.013-2.14q.02-2.618.049-5.235h2l-2-2c-.138-2.007-.138-2.007-.023-4.457.105-5.57-.609-10.76-1.602-16.23l-.533-2.986c-3.006-16.188-6.893-32.366-13.783-47.378-2.016-4.392-2.64-8.175-3.059-12.949l-3-1c-1.062-2.375-1.062-2.375-2-5l-2-3-1.5-2.562c-1.41-2.502-1.41-2.502-3.5-4.438q-.521-1.995-1-4a80 80 0 0 0-2.312-4.625c-.41-.776-.818-1.552-1.239-2.352-1.635-2.283-2.984-2.798-5.449-4.023a110 110 0 0 1-2-7l-2-2c-3.677 1.47-5.651 2.477-7.875 5.813-1.164 3.297-1.373 5.72-1.125 9.187l-5 1v2l-3 2 1 2c-.937 2.125-.937 2.125-2 4l-4-1c-3.247 3.488-3.247 3.488-4 8l-2.312.75c-3.59 1.67-4.955 3.783-6.688 7.25-1.708 1.018-3.42 2.03-5.164 2.984-1.521.842-2.998 1.763-4.461 2.703-2.488 1.375-4.575 1.913-7.375 2.313 2.647-2.791 5.266-4.93 8.5-7 17.367-12.094 30.126-30.837 40.5-49m35 75 3 1-3 2z"/><path fill="#bb7230" d="M456.195 38.258C458 40 458 40 458.531 41.918 458.234 63.484 447.278 84.125 438 103l-1.39-1.883c-1.566-2.133-1.566-2.133-3.36-3.992-1.834-3.117-1.105-4.6-.25-8.125 1.335-3.493 2.848-6.9 4.375-10.312C441.252 69.964 444.983 61.56 446 52c-5.392.398-9.988.874-15 3l-3-1c2.36-2.097 3.546-2.97 6.75-3.187L437 51l-2-7-3 2c-2.49 1.245-3.41.777-6 0l-1 4-2-2c-3.033.089-3.033.089-6 1l-2 3c-2.321.41-4.658.731-7 1-2.365.587-4.67 1.286-7 2v-2c44.569-20.83 44.569-20.83 55.195-14.742"/><path fill="#301d2f" d="M160 191c4.375-.117 8.75-.187 13.125-.25l3.75-.102c8.276-.089 12.056.418 18 6.165 1.661 3.23 1.496 5.601 1.125 9.187-1.575 4.094-3.018 7.01-7 9-4.732 1.246-7.9 1.53-12.375-.625-2.673-2.418-4.236-4.057-5.625-7.375-.187-3.812-.187-3.812 0-7l-3.812.313c-2.208.003-2.208.003-4.188-.313-2.84-3.196-3-4.675-3-9"/><path fill="#301d2e" d="m327.375 190.813 3.676.04q4.475.054 8.949.147c-.86 5.766-.86 5.766-2.125 7.875-2.895 1.737-5.584 1.311-8.875 1.125l.25 3.125c-.295 4.575-1.325 6.396-4.25 9.875-2.927 2.373-4.683 2.96-8.437 3.438-4.306-.53-6.29-1.611-9.563-4.438-2.642-4.051-3.702-7.184-3-12 5.157-10.116 13.244-9.402 23.375-9.187"/><path fill="#ea9e1d" d="m356 165 1 3 1.828-.437 2.422-.563 2.39-.562C366 166 366 166 370 166v2l-11 2 .498 2.948c.611 4.308.602 8.534.54 12.877l-.025 2.59c-.027 2.804-.063 5.609-.099 8.413l-.064 5.867q-.069 6.133-.147 12.266a6887 6887 0 0 0-.178 15.734q-.065 6.05-.139 12.1-.034 2.903-.065 5.805a2771 2771 0 0 1-.1 8.092l-.022 2.428c-.05 3.21-.177 5.813-1.199 8.88l.063 2.813c-.07 3.526-.834 5.887-2.063 9.187q-.756 2.28-1.5 4.563c-1.065 3.194-2.204 6.327-3.5 9.437a129 129 0 0 0-3.062 8.188C347 305 347 305 346 307c.457 1.756.918 3.511 1.395 5.262 1.065 4.82 1.502 9.738 2.043 14.64.447 3.626 1.198 7.134 2.022 10.69 1.204 5.369 2.134 10.797 3.128 16.207l.51 2.728.453 2.461c.377 2.068.377 2.068 1.449 4.012.156 1.852.275 3.707.375 5.563.56 8.074.56 8.074 3.625 15.437 2.436 1.383 4.162 1.625 7 2v1h-10c-2.116-9.688-4.138-19.367-5.712-29.158-1.48-9.163-3.121-18.297-4.744-27.435l-.387-2.177-.382-2.144q-.37-2.094-.734-4.189a381 381 0 0 0-1.744-9.414l-.613-3.182-.557-2.73c-.204-4.139 1.547-7.15 3.435-10.743 7.353-14.466 9.622-33.043 9.552-49.09v-2.693q-.002-4.366-.016-8.732l-.005-6.087q-.006-7.98-.024-15.96-.014-8.154-.02-16.309-.016-15.978-.049-31.957"/><path fill="#b76c27" d="M68 93c2.75 2.44 4.245 5.067 5.938 8.313 1.691 3.189 3.375 6.285 5.437 9.25C81 113 81 113 81 115h2c3 4.385 3 4.385 3 7l1.813.813c2.205 1.197 3.623 2.232 5.187 4.187v3l4 2c-1.875 6.75-1.875 6.75-3 9h2v3l2 1-3 1c-10.044-9.463-30.775-30.003-32.27-44.64C63.1 98.122 64.61 97.1 67 95z"/><path fill="#edb532" d="M485 236h2c9.129 36.945-2.52 82.216-18 116a69 69 0 0 1-3 4c.421-6.426 1.767-11.638 4.16-17.617 1.006-2.433 1.006-2.433.84-5.383 1.504-2.255 3.082-4.082 5-6 1.956-5.558 2.549-11.029 3.063-16.875q.23-2.56.472-5.117l.2-2.261C480 301 480 301 481 300l.438-3.187C482 293 482 293 483 290.063c2.546-7.797 2.32-16.313 2.625-24.438l.156-3.598.133-3.425.124-3.115c.142-2.489.142-2.489-1.038-4.487a190 190 0 0 1-.062-7.625l.013-2.14q.02-2.618.049-5.235"/><path fill="#fdf3bf" d="M11 284h1l.348 1.914C18.957 321.765 29.888 359 53 388q1.978 2.743 3.938 5.5c4.13 5.69 8.554 11.105 13.062 16.5l-4 1c-2-3-2-3-2-6l-3-1a393 393 0 0 1-3-5l-2.687-2.687L53 394v-2l-3-1c-3.398-2.549-4.393-6.183-6-10a249 249 0 0 0-3-4c-1.088-2.419-1.927-4.572-2.375-7.187L38 368l-1.93-.84c-2.674-1.499-2.955-2.642-3.82-5.535l-.734-2.336C31 357 31 357 31 353h-2l-.734-1.871c-1.62-4.094-3.258-8.148-5.141-12.129-5.515-12.425-8.797-24.929-10.582-38.379-.146-3.423-.146-3.423-1.543-4.621-.072-2.02-.084-4.042-.062-6.062l.027-3.348z"/><path fill="#fdf4bf" d="m258.875 5.875 3.477-.014 3.265.006 2.925.004C271 6 271 6 274 7c3.428.227 6.85.394 10.283.518 5.502.267 5.502.267 7.717 2.482 2.333.048 4.667.037 7 0q2.409.076 4.813.25l2.269.14c1.918.61 1.918.61 3.18 2.657L310 15h7v2l7 1v2c-5.177-.562-9.967-1.427-15-2.812-7.022-1.843-14.092-3.177-21.25-4.375l-2.973-.506c-11.269-1.835-22.429-2.502-33.84-2.495h-3.559c-9.212.06-18.203.779-27.333 1.944-4.997.596-10.025.902-15.045 1.244 2.84-1.894 3.945-2.334 7.16-2.816.794-.125 1.587-.25 2.404-.377l2.499-.37q2.455-.373 4.91-.753l2.195-.327c1.92-.29 1.92-.29 3.832-1.357 2.34-.247 4.652-.43 7-.562l2.196-.127c7.224-.364 14.447-.42 21.679-.436"/><path fill="#c3772f" d="m44 56 1 3 3 1c1.477 3.914 2.602 6.994 1 11l4 2 3-4 3 1c1.246 2.914 1.246 2.914 2.438 6.625 1.321 4.02 2.606 7.81 4.937 11.375C68 91 68 91 68 94.313 67 97 67 97 65 98.187L63 99l-1 3C45.375 69.904 45.375 69.904 44 56"/><path fill="#f4ab54" d="M353 159h2c2.54 9.774 2.29 19.421 2.266 29.445l.005 5.694q.005 5.954-.01 11.907c-.012 5.043-.005 10.085.007 15.128q.009 5.879 0 11.758-.003 2.784.005 5.57c.047 23.945-3.135 46.017-14.273 67.498h-1v-5h2l.375-2.187C345 296 345 296 346 293.688c.904-2.43 1.24-4.265 1.5-6.813C348 283 348 283 350 280c.447-2.216.815-4.448 1.125-6.687l.508-3.575L352 267h2q.035-17.8.052-35.6.007-8.267.023-16.535.016-7.995.02-15.989.003-3.033.01-6.067c.03-11.318-.139-22.527-1.105-33.809"/><path fill="#bf8b5e" d="M328 474h6l1 2c-12.54 4.38-24.982 8.33-38 11l-2.09.437c-14.557 3.013-28.829 3.8-43.66 3.813l-2.466.003c-22.7-.019-44.973-2.804-66.784-9.253v-1q2.219-.04 4.438-.062l2.496-.036C191 481 191 481 192 482c1.515.232 3.038.412 4.563.563l2.503.253L201 483v2l3.438-.062C208 485 208 485 209 486c2.504.397 4.982.723 7.5 1l2.38.263c17.293 1.776 35.866 3.306 53.12.737a662 662 0 0 1 4.246-.5l2.096-.25q2.136-.255 4.273-.5c3.49-.15 3.49-.15 6.385-1.75 1.946-.416 3.903-.78 5.863-1.121l3.627-.647q3.804-.666 7.61-1.328l3.638-.65 3.345-.584c2.639-.606 4.632-1.239 6.917-2.67l1-2 7 1z"/><path fill="#eec34c" d="M26 338c3.442 2.66 3.995 5.903 5 10h2l.883 2.492c2.413 6.571 5.068 12.454 8.844 18.348C44 371 44 371 45.063 374.5L46 377l2.371.824c3.44 1.539 4.029 3.13 5.629 6.488 2.26 4.46 4.352 7.344 8 10.688l2 4 3 1 1 6 5-1 .875 2.75c.89 2.572 1.84 4.863 3.125 7.25h4l.188-1.75c1.146-3.174 3.072-4.378 5.812-6.25h2v-3l4 1-1.574 1.504C87.072 410.745 83.372 414.942 80 420c-22.176-17.838-37.502-43.967-49.562-69.312l-1.014-2.118C27.799 345.074 26.54 341.827 26 338"/><path fill="#f8ecdd" d="M430 410h1v5h-2c-1.947 5.476-1.947 5.476-1 11l-2.437 1.875c-2.602 1.867-2.602 1.867-3.563 4.125-2.929-.628-5.361-1.586-8-3l-.812 1.813c-1.198 2.205-2.233 3.623-4.188 5.187h-3l-.75 1.75c-1.425 2.565-3.116 4.25-5.25 6.25l-2 2-3 .438-3 .562-2 3 1 3-1 2h-4a176 176 0 0 0-5 1q-2.999.51-6 1c2.49-2.732 5.273-4.57 8.375-6.562 14.389-9.495 28.38-20.498 40.172-33.11C425 416 425 416 427 416l.375-1.875C428 412 428 412 430 410"/><path fill="#46221d" d="M248.25 272.816c7.33-.387 13.965 1.482 20.75 4.184l2 2c-3.314-.497-6.434-1.125-9.66-2.05-4.515-1.139-8.658-1.086-13.277-.762l-2.394.15c-5.581.42-10.537 1.355-15.669 3.662l-3.062 1.188L225 282v3h-3v6h3c1.324 1.46 1.324 1.46 2.688 3.375 3.358 4.194 6.139 4.66 11.312 5.625l1 2h23v-2h4l1-3c2.91-1.416 5.847-2.3 9-3-3.026 3.362-6 5.23-10.062 7.188l-3.16 1.542c-7.683 3.512-17.04 3.482-25.184 1.399-8.043-3.161-16.868-7.933-20.594-16.129 5.558-7.963 12.896-12.15 22.266-14.59 2.652-.393 5.313-.376 7.984-.594"/><path fill="#b57337" d="M456.195 38.258C458 40 458 40 458.531 41.918 458.234 63.484 447.278 84.125 438 103l-1.39-1.883c-1.566-2.133-1.566-2.133-3.36-3.992C432 95 432 95 432.125 92.063c.888-3.107 2.072-5.397 3.875-8.063l2 4h4l3-8h2l.379-2.207c.6-2.7 1.452-4.954 2.558-7.48 2.074-5.014 3.2-9.97 4.063-15.313h2V41h-2v-2l-18 1v-1c15.344-3.522 15.344-3.522 20.195-.742"/><path fill="#f7ba32" d="M436 104c1.938.813 1.938.813 4 2l1 3-1.75.75c-4.416 2.453-6.833 5.407-8.25 10.25-.168 2.709-.168 2.709 0 5l-5 1v2l-3 2 1 2c-.937 2.125-.937 2.125-2 4l-4-1c-3.247 3.488-3.247 3.488-4 8l-2.312.75c-3.59 1.67-4.955 3.783-6.688 7.25-1.708 1.018-3.42 2.03-5.164 2.984-1.521.842-2.998 1.763-4.461 2.703-2.488 1.375-4.575 1.913-7.375 2.313 2.647-2.791 5.266-4.93 8.5-7 16.824-11.716 30.09-29.986 39.5-48"/><path fill="#f2c23f" d="M13 208h1c.095 7.924.077 15.779-.5 23.688-.454 6.527-.612 13.019-.625 19.562l-.014 2.745.006 2.583.004 2.294c.13 2.159.571 4.044 1.129 6.128.043 1.395.04 2.792 0 4.188-.039 3.002.085 5.84.5 8.812.924 7.276.576 14.68.5 22-1.77-3.138-2.495-5.95-3.062-9.5l-.473-2.844c-1.432-11.26-1.682-22.444-1.705-33.78-.01-2.777-.041-5.554-.072-8.331C9.615 232.787 10.868 220.573 13 208"/><path fill="#fdbe36" d="m116 160 3.367 1.242q2.254.818 4.508 1.633l2.203.816c5.707 2.053 10.832 3.09 16.922 4.309v88h-1c-.812-5.006-1.164-9.881-1.205-14.955l-.03-2.308q-.047-3.742-.081-7.483l-.063-5.216q-.082-6.84-.153-13.676-.077-6.99-.161-13.977-.162-13.692-.307-27.385l-1.866-.46c-6.044-1.53-11.585-3.704-17.134-6.54-1.989-.7-3.986-1.377-6-2z"/><path fill="#fdf5c9" d="M58 94c2.147 2.614 3.586 4.61 4 8-.905 1.805-.905 1.805-2.36 3.66l-1.615 2.124-1.775 2.278C42.702 128.176 31.617 148.677 24 170c-1.553-4.66.338-8.505 2-13a393 393 0 0 1 3-5c.714-3.194.714-3.194 1-6h2l.438-3.25c1.116-7.442 1.116-7.442 4.562-10.75l1.063-2.125C39 128 39 128 41 127c1.134-2.017 1.134-2.017 2-4h2l.813-2.812c1.179-3.166 1.919-3.92 4.187-6.188 1.136-2.293 2.056-4.617 3-7h2v-2l2-1-.035-1.934-.028-2.504-.035-2.496C57 95 57 95 58 94"/><path fill="#ba761a" d="m248.625 79.813 2.322-.002c7.462.067 14.696.974 22.053 2.189v1l-3-.035c-8.274-.146-8.274-.146-16.5.597-3.5.438-3.5.438-7.25-.124-3.35-.451-4.513-.299-7.25 1.562v-2l-3.562 1c-2.735.768-4.86.994-7.731.95-4.03.054-7.601.8-11.457 1.862l-1.996.502c-3.598.967-5.807 1.885-8.254 4.686-1.645.493-3.293.98-4.957 1.402-4.668 1.366-9.58 3.136-13.043 6.598h-4l-1 3-3-1c18.842-15.549 44.49-22.209 68.625-22.187"/><path fill="#f2ad23" d="M370 387c6.207-.197 12.069-.031 18 2l2 2c3.791 1.858 6.544 2.94 10.75 3.5 3.25.5 3.25.5 5.063 1.75 1.187 1.75 1.187 1.75 1.875 4 1.773 3.716 4.456 5.65 7.632 8.2L417 410v2l5-1 1 3c2.307-.889 2.307-.889 3.25-3.812 2.063-3.758 4.125-4.998 7.75-7.188 1.794-1.624 1.794-1.624 3-3l2 1-2.371 2.52-3.067 3.293-1.564 1.658c-2.309 2.49-3.912 4.27-4.998 7.529-1.629 1.387-1.629 1.387-3.562 2.688l-1.942 1.324L420 421l-1.375-2.812c-5.639-9.755-13.798-16.9-23.625-22.188l-2.648-1.43c-7.166-3.551-14.512-5.162-22.352-6.57z"/><path fill="#f8ba38" d="M149 286c2.537 3.805 4.326 7.77 6.188 11.938l1.154 2.4c4.77 10.813 1.447 21.89-.842 33.037l-.77 3.81c-3.488 17.031-7.638 33.92-11.73 50.815l-21 1v-2h19l1.688-8.312c1.197-5.835 2.524-11.578 4.18-17.3 3.058-10.636 4.514-21.369 5.788-32.335l.45-3.768.38-3.379c.48-2.716 1.186-4.522 2.514-6.906.445-2.126.445-2.126.625-4.25L157 307h-2a1703 1703 0 0 1-3-8.25l-.867-2.355-.82-2.286-.762-2.094C149 290 149 290 149 286"/><path fill="#d58d2e" d="M143 168h2l.031 3.441q.147 16.026.308 32.05.084 8.24.158 16.479.072 7.945.156 15.892.031 3.036.056 6.074.037 4.242.086 8.483l.017 2.557c-.052 4.145-.052 4.145 1.188 8.024.07 1.874.084 3.75.063 5.625l-.028 3.04L147 272h-2c-1.919-12.334-2.267-24.351-2.195-36.812l.008-5.85q.014-7.616.05-15.23c.02-5.203.03-10.405.04-15.608q.032-15.25.097-30.5"/><path fill="#fef5c4" d="M456 128c3 1 3 1 4.063 3l.937 2 2 1c1.393 3.322 2.572 6.7 3.781 10.094.893 3.015.893 3.015 3.219 3.906.694 1.99 1.356 3.993 2 6l1.438 2.625C476.05 162.269 478 168.746 478 175h2c1.417 2.64 2.346 5.004 2.938 7.938.798 3.854 1.695 7.674 2.625 11.5 1.977 8.58 2.579 16.777 2.437 25.562h-1l-.272-1.67c-4.727-28.557-12.639-55.557-26.916-80.904-1.647-3.114-2.818-6.055-3.812-9.426"/><path fill="#fcf1bb" d="M20 171h3a138 138 0 0 1-3.727 14.547C15.758 196.815 13.638 208.318 12 220l-.268 1.911c-.81 6.384-.86 12.696-.83 19.124l.005 3.392c.005 3.545.018 7.09.03 10.636q.009 3.624.014 7.248.017 8.844.049 17.689c-1.909-3.23-2.249-5.611-2.243-9.34l-.01-3.24.023-3.498v-3.635q.006-3.817.024-7.636c.018-3.844.02-7.689.02-11.534.05-36.504.05-36.504 5.186-49.117h2l.113-2.816c.653-12.279.653-12.279 3.887-18.184"/><path fill="#fdf2e0" d="M310 485c-6.548 3.667-13.69 4.494-21.012 5.535-3.545.529-3.545.529-6.988 1.465l-1 2-1.937-.5c-5.697-.93-11.28-.615-17 0-5.088.496-10.142.646-15.25.688l-2.268.039c-3.75.006-7.08-.259-10.71-1.235-3.577-.925-6.357-1.176-10.023-1.055-3.797.115-7.108-.064-10.812-.937v-2l2.855.219c10.754.732 21.507.917 32.282.958q2.385.01 4.772.031c15.022.12 29.823-.85 44.466-4.396 8.59-2.063 8.59-2.063 12.625-.812"/><path fill="#ba761e" d="M159 309h1v18h-2l.105 2.195c.164 5.854-.042 9.66-3.105 14.805-.64 2.365-.97 4.628-1.172 7.066-.338 3.849-.714 6.682-2.328 10.247-1.776 4.367-1.963 8.157-2.266 12.824-.535 6.545-2.875 11.377-6.234 16.863l-1-2-2-1h3l.306-2.034c1.3-8.246 3.064-16.358 4.922-24.491 3.974-17.423 7.498-34.908 10.772-52.475"/><path fill="#fdf4c6" d="M324 20c7.403.033 12.93 2.053 19.527 5.3 3.716 1.819 7.477 3.464 11.286 5.075l3.582 1.523L361 33v2l1.637.32c2.941.846 5.456 2.151 8.176 3.555 3.42 1.76 6.755 3.388 10.375 4.688C384 45 384 45 384.938 47.687L385 50l1.813.313C389 51 389 51 390.438 52.5c2.047 1.966 3.8 2.127 6.562 2.5l-2 2c-3.644-.319-5.87-2.24-8.687-4.437-5.58-4.177-11.43-7.687-17.474-11.149l-2.116-1.215-1.883-1.067C363 38 363 38 361.055 36.483c-2.17-1.567-4.162-2.465-6.66-3.413l-2.662-1.026L349 31q-2.59-1.03-5.176-2.07l-2.568-1.028L324 21z"/><path fill="#daa176" d="M313 188c4.459.138 8.917.287 13.375.438l3.852.119 3.671.127 3.396.11C340 189 340 189 342 190c-.551 3.95-1.39 7.35-3 11h-3l-1 2h-3l-.25 2.688c-.85 3.753-2.09 5.572-4.75 8.312h-2v2c-6.629 2.048-10.95 2.298-17.285-.664-2.101-1.637-2.36-2.745-2.715-5.336l1.504 1.094c4.606 3.146 7.746 4.864 13.496 3.906 3.876-2.048 6.659-3.733 8-8 .387-2.325.73-4.659 1-7l9-1 2-8h-28z"/><path fill="#efc13f" d="M61 102h2c1.324 1.68 1.324 1.68 2.688 3.875l1.386 2.18L68 110l-1 2-2.375-2.5c-2.262-2.73-2.262-2.73-4.625-2.5l.25 2.313L60 112a124 124 0 0 1-4 3c-1.474 2.264-2.705 4.625-4 7l-2 2h-3l-.687 3.938C45.158 133.224 42.784 137.412 40 142l-1 2h-3l-2 5-1-2c.646-1.733.646-1.733 1.738-3.824l1.221-2.346 1.353-2.518 1.377-2.583C42.981 127.804 47.809 120.357 53 113l2.336-3.371c3.997-5.663 3.997-5.663 5.664-7.629"/><path fill="#ecc757" d="M304 15v1c-9.506.272-18.253-.255-27.384-3.027-5.693-1.419-11.376-1.221-17.21-1.168l-3.598.008c-3.77.011-7.538.036-11.308.062q-3.847.016-7.695.027-9.403.034-18.805.098v-1c29.077-3.967 57.43-2.261 86 4"/><path fill="#f6bf24" d="M32 149c1.117 3.773 1.117 3.773.063 5.813-1.316 2.234-1.316 2.234-.813 5.187.166 4.879-2.43 8.61-4.652 12.809C22.905 180.185 20.632 187.783 20 196h-2v2h-2l-1 8c-.93-2.99-1.02-4.957-.285-7.992l.568-2.354.655-2.529.673-2.644C20.373 176.279 25.45 162.166 32 149"/><path fill="#f8ba36" d="M146 79c4.155.59 7.125 2.983 10.438 5.375 3.083 2.2 6.136 4.376 9.41 6.29C168 92 168 92 169 94c2.017 1.134 2.017 1.134 4 2v2h2v2l2.688-.937A62 62 0 0 1 186 97v-3l1.938-.375L190 93l1-2a121 121 0 0 1 7-2.562c4.331-1.165 4.331-1.165 8-3.438q3.5-.061 7 0c-2.954 1.97-5.414 2.905-8.75 4.063-9.116 3.42-17.17 8.55-25.25 13.937-4.005-.227-6.288-2.748-9.187-5.312-5.83-5.054-12.021-9.474-18.376-13.84-1.06-.73-1.06-.73-2.14-1.477l-1.927-1.315L146 80z"/><path fill="#faf5ec" d="m81 422 2.75 2.375c4.442 3.815 8.962 7.534 13.48 11.258A96 96 0 0 1 104 442c-2 1-2 1-5 1v3l-3 1v-2l-1.75-.125c-3.383-1.316-4.442-3.84-6.25-6.875l2-3c-2.363-2.526-3.665-3.888-7-5-.562-1.937-.562-1.937-1-4l-2-2z"/><path fill="#935305" d="M359 387c17.632-.972 34.483 4.796 48.04 16.145 5.079 4.806 9.482 9.773 12.96 15.855h-4l-1-3-3-2v-2h-2l-.875-1.937c-.953-2.215-.953-2.215-3.125-3.063v-3l-4 1-.75-1.875c-1.456-2.476-2.628-3.076-5.25-4.125v-2l-2.336-.586-3.039-.789-3.023-.773C385 394 385 394 383 392c-2.128-.428-2.128-.428-4.562-.562l-2.684-.22L373 391q-2.564-.27-5.125-.562L364 390v-2h-5z"/><path fill="#fefadb" d="M8 220h1l.031 2.1q.163 10.802.341 21.606.066 4.034.125 8.066.088 5.794.187 11.587l.05 3.65.06 3.396.048 2.988c.143 2.355.546 4.341 1.158 6.607.067 1.916.085 3.833.063 5.75l-.028 2.984L11 291l-2 1c-4.32-50.93-4.32-50.93-1-72"/><path fill="#bc7719" d="m389 59 2 1c-3.653 2.634-6.485 4.469-11 5l-1 3c-2.18 1.281-2.18 1.281-4.875 2.5-3.666 1.624-3.666 1.624-6.695 4.156C366 76 366 76 362 76l-.625 1.625c-1.941 3.353-4.214 6.104-7.375 8.375-3.375.375-3.375.375-6 0l-1 3-3 1-1 2h-3l-1 3-3-1c4.312-4.682 9.22-8.194 14.438-11.812l2.682-1.871c6.143-4.237 12.379-8.109 18.935-11.669 3.097-1.733 5.998-3.671 8.945-5.648a97 97 0 0 1 4.25-2.312l2.016-1.051z"/><path fill="#f2bf41" d="M57 391h2c2.362 2.648 3.872 4.615 5 8l3 1 1 6 5-1 .875 2.75c.89 2.572 1.84 4.863 3.125 7.25h4l.188-1.75c1.146-3.174 3.072-4.378 5.812-6.25h2v-3l4 1-1.574 1.504C87.072 410.745 83.372 414.942 80 420c-8.651-6.959-16.643-14.653-21-25a314 314 0 0 0-2-4"/><path fill="#c08c5f" d="M328 474h6l1 2c-12.539 4.38-24.982 8.336-38 11-.722.15-1.443.3-2.187.453-13.395 2.744-13.395 2.744-19.813 2.547v-2l2.809-.402 3.628-.536 3.622-.527c2.82-.225 2.82-.225 3.941-1.535 1.946-.416 3.903-.78 5.863-1.121l3.627-.647q3.804-.666 7.61-1.328l3.638-.65 3.345-.584c2.639-.606 4.632-1.239 6.917-2.67l1-2 7 1z"/><path fill="#411f19" d="m327.375 190.813 3.676.04q4.475.054 8.949.147c-.86 5.766-.86 5.766-2.125 7.875-2.895 1.737-5.584 1.311-8.875 1.125v-1l7-1 1-4c-4.125-.058-8.25-.094-12.375-.125l-3.562-.05-3.399-.02-3.142-.032c-2.693-.03-2.693-.03-4.522 2.227h-1l-2 15c-2.73-2.73-2.758-4.923-3.09-8.68.145-3.75 1.582-5.62 4.09-8.32 5.883-4.196 12.471-3.333 19.375-3.187"/><path fill="#bb7e56" d="m250.063 271.813 2.97.001c4.48.028 8.582.202 12.967 1.186v2l2.25.375c2.551.58 4.477 1.362 6.75 2.625v2a695 695 0 0 1-9.078-3.07c-6.858-2.28-12.709-3.664-19.922-2.93l-2.676.25c-8.466 1.15-16.887 4.38-22.449 11.125L219 288h-1c-.375-2.75-.375-2.75 0-6 2.938-2.25 2.938-2.25 6-4l1-2c1.89-.513 3.785-1.021 5.7-1.437 2.385-.524 2.385-.524 4.878-1.614 4.848-1.345 9.48-1.2 14.484-1.137"/><path fill="#a56d47" d="m218 290 1.398 1.102C231.593 300.5 242.258 305.873 258 304c7.485-1.93 13.387-5.6 19.258-10.547C279 292 279 292 281 291c-2.374 5.539-6.212 8.356-11.437 11.125l-2.81 1.508c-9.376 4.655-17.597 5.442-27.722 2.183-3.381-1.176-6.714-2.468-10.031-3.816v-2l-2.187-.687c-3.39-1.582-5.355-3.514-7.813-6.313z"/><path fill="#c6915d" d="M73.206 42.018C85.046 46.18 96.863 51.198 108 57l-2 2a502 502 0 0 1-4.438-1.875l-2.496-1.055C97 55 97 55 96 53a519 519 0 0 0-5-1 254 254 0 0 1-5.043-2.18c-2.143-.898-4.306-1.613-6.52-2.32-2.654-.85-4.745-1.675-7.187-3.062-7.488-3.313-16.316-3.571-24.422-4.094L46 40l-1-2c7.624-3.812 20.488 1.533 28.206 4.018"/><path fill="#fbf9e9" d="M456 375c.672 1.691.672 1.691 1 4-1.11 2.402-1.11 2.402-2.75 4.938l-1.61 2.527L451 389c-2.321 3.612-2.321 3.612-3.437 7.688L447 399c-1.687 1-1.687 1-4 2-3.55 2.81-6.86 5.74-10 9l-2-1 1.547-1.809C441.092 396.995 448.669 386.093 456 375"/><path fill="#8f582a" d="m417 422 2 1c-7.2 7.058-14.68 13.467-22.812 19.438l-2.386 1.752A214 214 0 0 1 379 454l-1-2h2v-3l1.934-.805 2.503-1.07 2.497-1.055c2.223-.894 2.223-.894 3.066-3.07l3-2c1.709-1.375 1.709-1.375 3-3v-3c3.75-1.125 3.75-1.125 6 0l1-2c3.144-3.58 5.162-5.585 10-6v-2h2v-2z"/><path fill="#fbf6f0" d="M430 410h1v5h-2c-1.947 5.476-1.947 5.476-1 11l-2.437 1.875c-2.602 1.867-2.602 1.867-3.563 4.125-2.169-.506-4-1-6-2 0-4.841 1.67-7.054 4.938-10.375C424.678 416 424.678 416 427 416l.375-1.875C428 412 428 412 430 410"/><path fill="#c97f22" d="m97 54 1.871.77 2.567 1.042 2.496 1.02c1.665.635 3.342 1.25 5.05 1.757 6.476 1.944 11.86 5.036 17.579 8.599l2.767 1.693Q132.672 70.928 136 73c-3.097.878-4.906.994-8 0v-2h-8v-3l-2.555-1.277c-11.695-5.848-11.695-5.848-16.07-8.285l-2.477-1.38L97 56z"/><path fill="#fbeedc" d="m154 471 3.086 1.102c3.821 1.36 7.648 2.704 11.476 4.043q2.354.825 4.704 1.664C184.693 481.88 196.08 484.753 208 487v1l-8 1v-2l-2.937.188c-3.94.007-7.134-1.068-10.81-2.399-2.075-.727-4.113-1.287-6.253-1.789-2.894-.682-5.639-1.558-8.437-2.562-4.52-1.56-8.806-2.06-13.563-2.438l-.312-1.937L157 474l-3-1z"/><path fill="#f8ba35" d="m361 76-3.156 2.203a902 902 0 0 0-26.551 19.3l-1.749 1.318c-1.287.983-2.55 1.997-3.806 3.019C324 103 324 103 321 103c1.422-3.555 2.637-4.367 6-6l2.438-2.562c2.68-2.55 3.953-3.129 7.562-3.438l1-3a125 125 0 0 1 5-2l1-2h3l1-3 5-1 1-3c4.443-2.278 4.443-2.278 7-1"/><path fill="#b18154" d="M456.195 38.258C458 40 458 40 458.531 41.918 458.338 55.921 453.123 69.159 448 82h-1c.377-4.333 1.233-7.802 2.938-11.812C452.037 65.218 453.14 60.31 454 55h2V41h-2v-2l-18 1v-1c15.344-3.522 15.344-3.522 20.195-.742"/><path fill="#995a0d" d="M110 393v3l-2.875.75c-3.166.896-3.166.896-4.187 3.063-.31.721-.62 1.443-.938 2.187a142 142 0 0 1-5 5l-1.812 1.813L94 410v-3c-4.715 3.146-4.715 3.146-6.562 8.188L87 418c-2.562 1.375-2.562 1.375-5 2 0-7.029 6.237-11.232 10.992-15.996 5.09-4.742 10.815-7.896 17.008-11.004"/><path fill="#eeb72a" d="M481 310c1.57 3.97.38 7.288-.812 11.188l-.648 2.17c-3.464 11.13-8.084 21.88-12.54 32.642-1.057-3.658-.764-5.758.313-9.437l.8-2.81C469 341 469 341 470.105 338.34c1.074-2.39 1.074-2.39.895-5.34 1.504-2.255 3.082-4.082 5-6a94 94 0 0 0 1.5-5.812c.892-3.901 1.922-7.508 3.5-11.188"/><path fill="#edb938" d="M485 236h2c1.986 7.913 2.312 15.491 2.25 23.625l-.012 3.724c-.085 9.018-.692 17.763-2.238 26.651h-1l.016-3.365q.026-6.166.039-12.333.008-2.672.02-5.343c.013-2.557.018-5.113.023-7.67l.015-2.421c.1-4.065.1-4.065-1.113-7.868a190 190 0 0 1-.062-7.625l.013-2.14q.02-2.618.049-5.235"/><path fill="#ecc554" d="M342 28c4.134.517 7.309 2.04 10.938 3.965 2.06 1.08 2.06 1.08 4.316 1.883 3.752 1.574 7.182 3.586 10.683 5.652l2.247 1.324a225 225 0 0 1 14.753 9.614l1.772 1.25c2.701 1.96 4.416 3.5 6.291 6.312l-3 1-.25-1.875c-.532-2.257-.532-2.257-2.5-3.094L385 53a568 568 0 0 1-4.75-2.625l-2.422-1.352L376 48v-2l-2.562-.812C363.352 41.703 363.352 41.703 362 39l-3-1v-2l-2.375-.187C351.686 34.705 347.328 32.617 343 30z"/><path fill="#c17418" d="M343 305c2.339 3.827 2.847 7.992 3.543 12.344l.402 2.442q.417 2.551.824 5.104c.417 2.602.85 5.202 1.284 7.801q.402 2.483.802 4.965l.395 2.352c.572 3.658.805 6.45-.25 9.992-2.481-5.066-3.104-8.287-3-14l-.937-2.75c-1.27-3.883-1.489-7.504-1.72-11.566-.363-2.839-1.176-5.082-2.343-7.684l-4 1c1.335-3.594 2.96-6.755 5-10"/><path fill="#3b1c1c" d="M160 191c4.375-.117 8.75-.187 13.125-.25l3.75-.102c10.282-.11 10.282-.11 13.992 2.18C193 195 193 195 193 198l-6-3v-2l-1.697.092q-3.808.205-7.615.408l-2.67.145-2.569.136-2.364.127c-1.694.075-3.39.092-5.085.092-1.224 2.075-1.224 2.075-1 5h6v1c-3.312.313-3.312.313-7 0-2.772-3.219-3-4.694-3-9"/><path fill="#fdfadf" d="m258.875 5.875 3.477-.014 3.265.006 2.925.004C271 6 271 6 274 7c3.428.194 6.85.345 10.283.43 2.127.093 2.127.093 5.717.57l2 3c-6.152.098-6.152.098-8 0l-1-1a151 151 0 0 0-7.246-.559l-2.283-.128c-9.508-.482-19.016-.421-28.534-.376q-2.775.009-5.548.014Q232.695 8.968 226 9c2.745-2.745 5.308-2.46 9-2.625l2.196-.113c7.223-.322 14.45-.366 21.679-.387"/><path fill="#b78452" d="m44 56 1 3 3 1c1.16 3.287 1.924 6.419 2.375 9.875 1.014 5.072 3.3 9.676 5.754 14.21C57 86 57 86 57 89h2c2.95 4.61 4.55 7.365 4 13-3.603-4.547-5.886-9.599-8.375-14.812l-1.486-3.111C44 64.62 44 64.62 44 56"/><path fill="#b06d13" d="M101 150c2.884.427 4.097 1.081 6.375 3 2.96 2.255 4.967 2.66 8.625 3v3l12 3v2c.626-.095 1.253-.19 1.898-.29l2.477-.335 2.46-.352L137 163l2 2c2.069.643 2.069.643 4 1v2c-13.759-.349-29.817-6.198-39.871-15.719z"/><path fill="#c18e62" d="m373 452 2 4c-3.81 3.286-7.812 5.623-12.312 7.813l-2.091 1.027a575 575 0 0 1-15.41 7.223l-2.046.942c-4.79 2.112-4.79 2.112-8.141.995 7.2-3.694 14.322-7.22 21.895-10.098 2.374-.942 2.374-.942 5.293-3.027 3.292-2.195 5.989-2.957 9.812-3.875z"/><path fill="#f8f9f3" d="M414 429c2.915 1.074 4.778 1.778 7 4a672 672 0 0 1-3.75 3.375l-2.11 1.898c-1.985 1.602-3.82 2.692-6.14 3.727v-2l-2-1-1-3 2.313-1.25c2.624-1.709 3.99-3.16 5.687-5.75"/><path fill="#d28a2f" d="M304.113 91.85A348 348 0 0 1 312 96c-3 1-3 1-5.875-.375L303 94c-2.736-.7-2.736-.7-5-1v-2c-.788-.182-1.575-.364-2.387-.55q-3.432-.793-6.863-1.59a612 612 0 0 0-7.438-1.657l-3.5-.766-3.23-.69C272 85 272 85 270 83c9.297-3.1 25.47 4.6 34.113 8.85"/><path fill="#faeedb" d="m373 457 2 4a101 101 0 0 1-6 3l-2-1-1 3-1-1-1.375 1.5C362 468 362 468 360 468l-1 2c-3.565 1.371-7.234 1.072-11 1 3.646-3.03 7.701-4.946 11.938-7 4.466-2.178 8.844-4.359 13.062-7"/><path fill="#b56e16" d="M137 74c7.25 3.9 13.926 8.25 20.5 13.188l2.066 1.547c3.377 2.57 6.526 5.157 9.434 8.265-3.147-.7-6.026-1.76-9-3v-3l-1.812-.437c-1.75-.45-3.475-.992-5.188-1.563v-2h-3l-1-3c-3.58-2.766-6.483-4.469-11-5z"/><path fill="#ebc650" d="M167 25c-8.471 5.033-8.471 5.033-13 6.125L151 32l-1 3c-1.644.503-3.292.994-4.96 1.406a35.4 35.4 0 0 0-12.29 6.407L131 44c-2.11-.426-2.11-.426-4-1 33.492-21.254 33.492-21.254 40-18"/><path fill="#efa21c" d="M352 345h1l.621 3.43.817 4.445.408 2.262c.7 4.048.7 4.048 2.154 7.863.156 1.852.275 3.707.375 5.563.56 8.074.56 8.074 3.625 15.437 2.436 1.383 4.162 1.625 7 2v1h-10c-6.494-29.852-6.494-29.852-6-42"/><path fill="#ba7515" d="M65 103c3.039 1.52 3.644 3.98 5 7v2l5-2c-.07.568-.14 1.137-.21 1.723-.36 4.889-.36 4.889 1.51 9.293a69 69 0 0 0 3.29 3.379C81 126 81 126 81.504 128.137L82 130l3 1v2h2l-1 3c-4.994-5.148-9.274-10.61-13.25-16.562l-1.248-1.856C68.631 113.209 66.27 108.712 64 104z"/><path fill="#fef6cb" d="m195.285 12.902 2.778.036 2.785.027L203 13c-3.41 2.273-6.64 3.027-10.562 3.938-5.575 1.335-11.063 2.78-16.52 4.546C174 22 174 22 171 22c1-3 1-3 2.848-3.95l2.214-.738c.734-.25 1.467-.502 2.223-.761L180 16v-1c1.282-.09 1.282-.09 2.59-.184l3.347-.254c1.103-.08 2.205-.162 3.34-.246 2.878-.334 3.242-1.295 6.008-1.414"/><path fill="#fef6c4" d="m170 23-1.63.623c-10.042 3.865-19.737 7.763-29.034 13.225L137 38l-2-1c3.015-4.478 5.308-5.803 10.5-7.125 4.27-1.107 7.05-2.174 10.5-4.875 2.438-.984 2.438-.984 5-1.75l2.563-.797c2.582-.48 3.955-.163 6.437.547"/><path fill="#d58931" d="M350 350h2l.335 1.877q.769 4.28 1.54 8.56l.527 2.952c.954 5.282 1.984 10.526 3.223 15.75.466 2.312.527 4.51.375 6.861h-2l-.335-2.171c-.505-3.236-1.022-6.47-1.54-9.704l-.527-3.418-.528-3.262-.476-3.015c-.411-2.593-.411-2.593-2.594-4.43l-2 1z"/><path fill="#b46f16" d="m402 144 4 1c-7.523 7.31-16.817 14.848-27 18l-3-1c2.008-1.65 3.513-2.882 6.063-3.5 2.04-.339 2.04-.339 3.312-2 1.625-1.5 1.625-1.5 4.688-1.937L393 154c1.05-1.85 1.05-1.85 2-4a187 187 0 0 1 6-4z"/><path fill="#955909" d="m142 389-1 2-2.168-.105c-7.053-.192-13.201.644-20.02 2.449C116 394 116 394 112 394v-2c22.227-6.886 22.227-6.886 30-3"/><path fill="#dea370" d="M191 192c2 0 2 0 3.625 1.5L196 195v-2l3-1 1 6h-2l.105 1.793c.234 6.828-.948 9.892-5.667 14.957C190 217 190 217 188 218c.474-4.269 3.035-6.11 6-9 1.202-3.606 1.327-6.21 1-10-1.898-2.79-1.898-2.79-4-5z"/><path fill="#8b562a" d="M83 423c2.93.645 5.488 1.568 8.188 2.875l2.105.992C95 428 95 428 96 431v3l2.25.188c3.569 1.054 4.672 2.811 6.75 5.812l-1 2c-7.294-5.665-14.385-11.548-21-18z"/><path fill="#e9b842" d="m458 369 1 2c-5.139 9.94-11.926 20.265-20 28 .547-3.375 1.055-5.082 3-8h2l1-4h2l2-8h3c1.206-2.332 2.165-4.496 3-7h2z"/><path fill="#fdf3bc" d="M132.563 37.938 135 38c-3.05 2.643-6.219 4.775-9.687 6.813-3.713 2.2-7.356 4.466-10.938 6.874l-2.54 1.7L110 55v3l-4-2h2l.375-2.375C109 51 109 51 111 49l3.438-.937c3.437-1.026 4.288-1.561 6.562-4.063h3v-3l2.438-.937c5.062-2.1 5.062-2.1 6.124-2.126"/><path fill="#f9eedd" d="m129 458 24 12c-2.892.826-4.887 1-8 1l-2 1-1-2-2.437-.312L137 469q-1.01-2.495-2-5a150 150 0 0 0-6-4z"/><path fill="#fdf4c9" d="m440 96 .375 1.625L441 100l.625 2.75c1.622 3.834 3.836 6.193 6.629 9.23 2.436 2.819 4.03 5.716 5.746 9.02l1.313 2.25C456 125 456 125 455 128l-1.687-2.676-2.313-3.636-1.216-1.918c-3.22-5.022-6.708-9.718-10.448-14.368C438 103 438 103 438.226 100.316 439 98 439 98 440 96"/><path fill="#e8b643" d="m437 400 2 1-2.371 2.52-3.067 3.293-1.564 1.658c-2.309 2.49-3.912 4.27-4.998 7.529-1.629 1.387-1.629 1.387-3.562 2.688l-1.942 1.324L420 421l-2-5 2-1 3 1v-2l2-1 1.25-2.812c2.063-3.758 4.125-4.998 7.75-7.188 1.794-1.624 1.794-1.624 3-3"/><path fill="#e8a228" d="M370 387c6.207-.197 12.069-.031 18 2l2 2a315 315 0 0 0 7 3c5.719 2.374 5.719 2.374 7.168 5.602L405 402c-.895-.531-1.79-1.062-2.71-1.61-10.537-6.186-20.064-10.623-32.29-12.39z"/><path fill="#fef3c0" d="M35 139h2c-1.535 5.044-3.645 9.646-5.937 14.375-2.648 5.463-5.005 10.91-7.063 16.625-1.553-4.66.338-8.505 2-13a393 393 0 0 1 3-5c.714-3.194.714-3.194 1-6h2v-4h2z"/><path fill="#b5804c" d="M424 43v3h-2l-1 2-5 2-1 2c-2.327.372-4.662.698-7 1-2.364.59-4.67 1.287-7 2v-2q4.905-2.222 9.813-4.437l2.814-1.276 2.705-1.22 2.491-1.127C421 44 421 44 424 43"/><path fill="#d08a30" d="M146 274c3.838 2.559 3.823 4.101 4.938 8.5 1.819 6.79 3.94 13.302 7.117 19.586C159 304 159 304 160 307c-3-1-3-1-4.027-2.759l-.91-2.292-1.02-2.542-1.043-2.72-1.074-2.739c-2.52-6.556-4.579-13.043-5.926-19.948"/><path fill="#ad7d50" d="M182 481q2.219-.04 4.438-.062l2.496-.036C191 481 191 481 192 482c1.515.232 3.038.412 4.563.563l2.503.253L201 483v2l3.438-.062C208 485 208 485 209 486c1.347.23 2.704.412 4.063.563L217 487v1c-6.523.196-12.274-.43-18.625-1.875l-2.445-.527c-4.7-1.03-9.318-2.226-13.93-3.598z"/><path fill="#f0a96b" d="M326 107c7.46 6.09 13.53 12.417 18 21h-3a125 125 0 0 1-4-6 324 324 0 0 0-3-3q-2.123-2.507-4.187-5.062l-2.168-2.66C326 109 326 109 326 107"/><path fill="#edc652" d="M218 12c-3.665 2.443-7.117 2.845-11.375 3.5-4.849.753-9.06 1.655-13.625 3.5-2.457.195-2.457.195-4.812.125l-2.395-.055L184 19c2.883-2.883 6.327-3.204 10.188-4.062l2.251-.526C203.675 12.757 210.58 11.87 218 12"/><path fill="#f9f8ec" d="M54 398c2.313.188 2.313.188 5 1 1.688 2.5 1.688 2.5 3 5l2 1v2l-8 1v-2h-2z"/><path fill="#eea96c" d="M313 348h2c-1.627 8.291-7.499 15.983-12 23-1.208-3.623-.543-4.641 1-8h2l.344-2.203c.68-2.897 1.674-4.979 3.156-7.547l1.344-2.36C312 349 312 349 313 348"/><path fill="#fceaac" d="M487 282h1c.193 13.037.193 13.037-1 19l-1 1c-1.848 6.042-2.2 11.717-2 18h-3l-1 2a96.3 96.3 0 0 1 2.938-15.5c2.14-8.094 3.221-16.182 4.062-24.5"/><path fill="#fae3c8" d="M213 489c1.57.09 1.57.09 3.172.184 14.602.818 29.212 1.327 43.828 1.816v1q-8.835.037-17.67.055a3305 3305 0 0 0-6.008.02c-2.882.013-5.764.018-8.646.023l-2.706.015c-4.123 0-7.95-.065-11.97-1.113z"/><path fill="#faebd6" d="m348 472-1 2h-3l-1 2c-2.074.781-2.074.781-4.687 1.5-2.91.815-5.722 1.65-8.563 2.688-3.035.896-5.602.962-8.75.812 4.364-2.91 9.151-4.4 14.063-6.187l3.087-1.155 2.948-1.076 2.703-.993C346 471 346 471 348 472"/><path fill="#fdf2c1" d="M456 375c1.054 2.685 1.127 3.707-.04 6.402-5.739 9.175-5.739 9.175-9.96 12.598h-3l1.828-2.633 2.422-3.492 1.2-1.727c2.557-3.69 5.07-7.405 7.55-11.148"/><path fill="#c28358" d="m160 195 1 1.938c3.023 3.117 5.737 2.782 10 3.062l.332 1.793c.927 4.62 1.892 8.295 4.668 12.207-1.89-.195-1.89-.195-4-1-.984-2.18-.984-2.18-1.75-4.875-1.273-3.828-1.273-3.828-4.246-6.312A368 368 0 0 0 160 200c-.8-2.008-.8-2.008-1-4z"/><path fill="#eac452" d="M32 149c1.247 2.935.953 4.148-.04 7.25a229 229 0 0 1-1.585 3.75l-.829 1.987a616 616 0 0 1-1.704 4.037c-1.262 2.962-2.486 5.939-3.717 8.914Q23.065 177.469 22 180c-1.221-3.483-.784-5.375.547-8.773l1.062-2.75 1.141-2.852 1.094-2.828C27.69 158.074 29.63 153.484 32 149"/><path fill="#fdf4df" d="m50.75 35.875 2.984.055L56 36l1 2-2.047-.07-2.703-.055-2.672-.07c-2.692.204-4.277.83-6.578 2.195-.114 6.766.12 13.288 1 20-1.985-1.637-2.918-2.501-3.34-5.085.015-.78.03-1.56.047-2.364l.03-2.569.075-2.67.042-2.705Q40.907 41.303 41 38c3.467-1.876 5.785-2.22 9.75-2.125"/><path fill="#c49168" d="m292.16 484.902 3.902.036 3.91.027L303 485v1c-3.54.675-7.082 1.339-10.625 2l-3.027.578c-4.839.897-9.402 1.692-14.348 1.422v-2c1.39-.2 1.39-.2 2.809-.402l3.628-.536 3.622-.527c3.434-.625 3.544-1.523 7.101-1.633"/><path fill="#eec450" d="m125 44 2 1-3 1v3l-6 1-1 3c-2.062 1.188-2.062 1.188-4 2l1 5-5-1c.098-2.203.098-2.203 1-5 2.137-1.803 4.101-3.266 6.438-4.75l1.814-1.207c2.203-1.455 4.385-2.861 6.748-4.043"/><path fill="#9b5b08" d="M405 402c5.934 4.698 10.425 9.986 15 16l-4 1-1-3-3-2v-2h-2l-.875-1.937c-.953-2.215-.953-2.215-3.125-3.063-.625-2.562-.625-2.562-1-5"/><path fill="#4c2a23" d="m194 198 2 1c.315 5.244-.161 8.54-3 13-3.47 3.87-8.1 3.696-13 4 2.383-1.2 4.773-2.364 7.188-3.5 2.903-1.2 2.903-1.2 3.812-3.5h2z"/><path fill="#f6b937" d="m116 160 3.367 1.242c7.828 2.85 15.373 5.447 23.633 6.758v2c-14.199-1.516-14.199-1.516-20.312-5.047-2.436-1.376-5.018-2.152-7.688-2.953z"/><path fill="#fcebd7" d="M310 485c-6.245 3.497-12.937 4.393-19.937 5.125l-2.362.262q-2.85.313-5.701.613l-1-2c4.08-.868 8.165-1.717 12.25-2.562l3.512-.749 3.379-.693c1.026-.215 2.052-.43 3.11-.65 2.642-.333 4.258-.203 6.749.654"/><path fill="#f9f0e0" d="m81 422 1.32 1.137A872 872 0 0 0 94 433l-3 3-2.312-2.437c-2.482-2.731-2.482-2.731-5.688-3.563-.562-1.937-.562-1.937-1-4l-2-2z"/><path fill="#512e25" d="M325 209h2c-1.01 2.665-1.94 3.952-4.187 5.75-3.597 1.599-5.907 1.73-9.813 1.25-3.437-2-3.437-2-6-4l2-1 3 1c1.663.142 3.332.22 5 .25l2.625.078c2.84-.392 3.524-1.234 5.375-3.328"/><path fill="#4b200f" d="M160 191h27v1h-26l2 1c.625 3.063.625 3.063 1 6h6v1c-3.312.313-3.312.313-7 0-2.772-3.219-3-4.694-3-9"/><path fill="#fafaf1" d="m448 99-.5 2.063c-.57 3.353-.567 6.54-.5 9.937-3.827-3.424-5.723-6.007-7-11 4.625-2.125 4.625-2.125 8-1"/><path fill="#d19a72" d="M328 189q2.938-.04 5.875-.062l3.305-.036C340 189 340 189 342 190c-.551 3.95-1.39 7.35-3 11h-8l-1 3-1-4 9-1 1-8-11-1z"/><path fill="#fab833" d="M125 66c2.763.523 5.326 1.109 8 2l1 2c1.747 1.018 1.747 1.018 3.813 1.938 2.982 1.44 5.723 2.804 8.187 5.062v2c-4.862-1.678-8.99-4.332-13.312-7.062l-2.245-1.393A239 239 0 0 1 125 67z"/><path fill="#3f1e19" d="M171 200h2c1.423 3.823 2.24 6.913 2 11l2.25.313c2.92.73 4.482 1.755 6.75 3.687-3.732.347-5.54.292-8.75-1.75-3.452-3.452-4.21-5.056-4.375-10z"/><path fill="#f4b421" d="M483 292h1c-.367 8.083-1.26 15.365-4 23h-1q.21-3.47.438-6.937c.08-1.288.162-2.576.246-3.903C480 301 480 301 481 300l.5-3.5c.5-3.5.5-3.5 1.5-4.5"/><path fill="#ac6713" d="M169 97c3.536 1.911 5.79 3.626 8 7-2.986 1.991-5.597 2.941-9 4l1.063-2.125c1.1-3.378.732-5.456-.063-8.875"/><path fill="#f0c241" d="M280 13c16.893-.369 16.893-.369 24 2v1c-8.267.237-15.92-.187-24-2z"/><path fill="#815834" d="m396 440 2 1c-6.196 4.59-12.397 9.014-19 13l-1-2h2v-3l1.934-.805 2.503-1.07 2.497-1.055c2.223-.894 2.223-.894 3.066-3.07 2.938-1.687 2.938-1.687 6-3"/><path fill="#f2b935" d="M115.848 388.902 122 389c-3.268 1.69-6.607 3.142-10 4.563l-3.125 1.316c-2.302.898-4.466 1.606-6.875 2.121.188-1.895.188-1.895 1-4 2.25-1.012 2.25-1.012 5-1.687 2.677-.681 5.312-2.277 7.848-2.41"/><path fill="#b36b1d" d="M343 305c1.906 3.212 2.223 5.539 2.125 9.25l-.055 2.703L345 319l-1.312-2-1.688-2h-3c0-4.246 1.818-6.385 4-10"/><path fill="#b57018" d="m258.813 80.875 2.447-.012c4.044.007 7.794.129 11.74 1.137v1l-3-.035c-8.431-.132-8.431-.132-16.812.66L250 84l-2-2c3.357-1.679 7.124-1.142 10.813-1.125"/><path fill="#fcf0cc" d="M430 410h1v5h-2l-1 4h-4l-1 3c-1.562 1.688-1.562 1.688-3 3l-3-1a680 680 0 0 1 3.875-4l2.18-2.25C425 416 425 416 427 416l.375-1.875C428 412 428 412 430 410"/><path fill="#e9b848" d="M481 310c.968 3.045 1.007 4.888.074 7.934l-.666 2.216-.72 2.288-.686 2.275C477.83 328.552 476.567 332.3 475 336h-1c.614-5.328 1.838-10.159 3.5-15.25l.684-2.14q1.382-4.314 2.816-8.61"/><path fill="#ebc554" d="M11 272h1l.402 3.465.536 4.473.263 2.287c.142 3.697.142 3.697 1.799 6.775.072 1.853.084 3.708.063 5.563l-.028 3.066L15 300c-4.67-8.32-4.296-18.733-4-28"/><path fill="#bb9168" d="M456.5 38.5 458 40l-1 4c-1.5-1.375-1.5-1.375-3-3v-2l-18 1v-1c15.43-3.542 15.43-3.542 20.5-.5"/><path fill="#eda32d" d="M355 368c2.605 3.907 3.205 7.741 4.219 12.285.578 2.835.578 2.835 2.781 4.715 1.988.398 3.99.738 6 1v1h-10q-.757-3.624-1.5-7.25l-.434-2.066c-.679-3.33-1.066-6.267-1.066-9.684"/><path fill="#eda96b" d="m344 296 1 2-1 3-2-1zm-3 5h1c.29 4.93.197 8.093-3 12h-3c.644-3.012 1.65-5.517 3.063-8.25l1.097-2.14z"/><path fill="#71380a" d="M146 116h2c.869 1.575 1.72 3.16 2.563 4.75l1.44 2.672c1.077 2.785 1.062 3.848-.003 6.578l-.812-2.375c-1.036-2.906-1.036-2.906-4.188-4.625v-3l-3 1z"/><path fill="#bf7716" d="M137 74c12.854 7.114 12.854 7.114 17 12-4 0-4 0-6.062-1.875L146 82c-2.918-1.945-4.625-2.453-8-3z"/><path fill="#f1a722" d="M387 158v3c-5.913 4.57-9.665 5.141-17 5 3.169-1.614 6.384-3.1 9.625-4.562 3.71-1.671 3.71-1.671 7.375-3.438"/><path fill="#f7ba37" d="M240 80v1l-2.71.367c-7.153.991-14.233 2.104-21.29 3.633v-2c7.724-3.51 15.69-3.123 24-3"/><path fill="#8b6139" d="m417 422 2 1q-3.18 3.008-6.375 6l-1.828 1.734-1.758 1.641-1.619 1.523C406 435 406 435 404 435a56.5 56.5 0 0 1 4-7c2.625-.687 2.625-.687 5-1v-2h2v-2z"/><path fill="#eec555" d="M19 316c1.933 2.9 2.927 5.352 4.063 8.625 1.003 3.46 1.003 3.46 2.937 6.375q.062 3.5 0 7c-4.394-6.591-6.409-14.164-7-22"/><path fill="#ecc755" d="M479 184c2.82 2.82 3.265 6.113 4.188 9.875l.576 2.184c.925 3.708 1.363 6.295.236 9.941-2.918-7.163-5-14.214-5-22"/><path fill="#fbc029" d="M429 118c2 2 2 2 2.125 4.625L431 125l-5 1v2l-4 2 .938-2.312A111 111 0 0 0 425 122a90 90 0 0 1 4-4"/><path fill="#c97d37" d="M61 41c6.21.444 10.605 1.915 16 5v2h-6l-.562-1.937L69 44a109 109 0 0 0-7-1z"/><path fill="#f6b836" d="M98 149c5.726 3.236 11.37 6.601 17 10l-2 2c-3.456-1.214-5.488-2.383-8-5l-2.687-1.562L100 153v-2h-2z"/><path fill="#fceebc" d="M380 47h5v3l1.813.313C389 51 389 51 390.438 52.5c2.047 1.966 3.8 2.127 6.562 2.5l-2 2c-3.937-.279-6.67-2.718-9.75-5l-2.984-2.187L380 48z"/><path fill="#b57e4b" d="M443 40c-3.329 3.013-5.819 3.447-10.25 3.688l-3.266.199L427 44v-2c5.395-2.271 10.262-2.204 16-2"/><path fill="#ab7444" d="m133 457 2.188.938c2.615.988 5.063 1.59 7.812 2.062l-2 4c-3.775-1.09-6.47-1.908-9-5z"/><path fill="#fcf0c7" d="M70 411c4.136 3.381 7.813 6.666 11 11-5.662-1.477-5.662-1.477-7.375-4.125L73 416h-2z"/><path fill="#fdf1bb" d="M471 344h1c.36 4.998-.656 7.98-3 12.375l-1.687 3.21L466 362h-2c1.355-4.218 2.902-8.294 4.625-12.375l1.352-3.21z"/><path fill="#ebc453" d="M18 186h1q.039 2.438.063 4.875l.035 2.742C19 196 19 196 18 198h-2l-1 8c-1.373-4.398-.243-7.925.938-12.25l.591-2.258c.482-1.833.975-3.663 1.471-5.492"/><path fill="#f6e6d2" d="M457 50h1c.516 14.185.516 14.185-3.574 18.762L453 70c.712-4.494 1.598-8.929 2.563-13.375l.816-3.773z"/><path fill="#fcedb7" d="m442 395 1 3-1 2h-2l-.687 2.188c-1.561 3.344-3.616 5.328-6.313 7.812l-2-1 1.898-2.3 2.477-3.012 2.46-2.989c2.221-2.688 2.221-2.688 4.165-5.699"/><path fill="#f1c23b" d="M22 177c1.613 4.033.207 6.977-1 11-.43 2.664-.717 5.315-1 8h-1q-.04-3.437-.062-6.875l-.036-3.867C19 182 19 182 20 180h2z"/><path fill="#825a36" d="M106 442c1.316.255 2.628.53 3.938.813l2.214.457L114 444l1 3c2 1.209 2 1.209 4 2l-1 3a2095 2095 0 0 1-6-4.437l-1.734-1.276A198 198 0 0 1 106 443z"/><path fill="#fdf7d8" d="M468 148h2l.813 2.625c1.1 3.409 1.1 3.409 2.875 6.5 1.312 2.875 1.312 2.875 1 5.25L474 164l-1-3-1.488-1.363c-2.003-2.169-2.212-3.939-2.7-6.824l-.48-2.731z"/><path fill="#b57017" d="m424 120 2 1-9 12-1-3 1-2h2l.813-2.875C421 122 421 122 424 120"/><path fill="#d7a078" d="m306 192 4 1-1.875 1.875c-2.835 4.17-3.398 8.201-4.125 13.125h-1a673 673 0 0 1-.062-4.75l-.036-2.672c.09-2.36.429-4.323 1.098-6.578h2z"/><path fill="#ebc658" d="M437 103c3.89 1.497 5.47 3.704 7.75 7.125l1.86 2.758L448 115l-1 2c-3.707-3.406-5.842-6.479-8-11l-2-1z"/><path fill="#faeebf" d="m440 96 .375 1.625c1.43 5.614 1.43 5.614 4.313 10.563L446 110l-1 3a285 285 0 0 1-3.562-4.687l-2.004-2.637C438 103 438 103 438.223 100.293 439 98 439 98 440 96"/><path fill="#fcedd6" d="M44 60c1.782 3.307 2.962 6.682 4.125 10.25l1.07 3.266L50 76h-2c-3.326-5.583-4.465-9.497-4-16"/><path fill="#b38250" d="M43 39h2l-1 17h-1c-.837-3.641-1.135-7.016-1.125-10.75l-.008-2.922C42 40 42 40 43 39"/><path fill="#b67216" d="m335 94 1 2c-5.538 5.846-5.538 5.846-9 7l-3-1z"/><path fill="#e5ba44" d="m471 342 1 2a92 92 0 0 1-2.437 6.125l-1.434 3.32L467 356c-1.315-4.158-.344-6.888 1-11h2z"/><path fill="#ebc44f" d="m15 300 1 4h2c1.327 3.981 1.07 7.85 1 12-3.36-5.04-4.293-9.997-4-16"/><path fill="#a56027" d="m150 120 4 1 1 4 2-2 1 2-4 5z"/><path fill="#f9b837" d="M280 83c5.985.343 10.751.823 16 4-3.882 1.498-6.434.431-10.25-.937l-3.266-1.153L280 84z"/><path fill="#bc8047" d="m44 56 1 3 3 1c1.188 3.563 1.188 3.563 2 7-1.875-.125-1.875-.125-4-1-1.598-3.597-2-6.034-2-10"/><path fill="#edc44a" d="m184 20-4 1v2l-12 1c2.288-2.288 3.808-2.755 6.875-3.687l2.617-.825c2.595-.505 4.039-.344 6.508.512"/><path fill="#47241c" d="m277 283 5 5c-2.75 4.875-2.75 4.875-5 6z"/><path fill="#b97d5b" d="m160 195 1 1.938c3.023 3.117 5.737 2.782 10 3.062v5l-2-3c-1.9-.504-1.9-.504-4-.562-3.793-.23-3.793-.23-6-2.438.375-2.125.375-2.125 1-4"/><path fill="#efaa6c" d="M353 159h2c2.192 4.384 1.158 10.369 0 15h-1z"/><path fill="#f9b834" d="M88 139c7.483 6.15 7.483 6.15 10 10-5.75-1.875-5.75-1.875-8-3a129 129 0 0 1-2-7"/><path fill="#c7823c" d="m97 54 2.082.84 2.73 1.097 2.708 1.09c1.807.71 3.638 1.359 5.48 1.973l-1 3c-2.832-.944-5.098-2.099-7.687-3.562l-2.45-1.38L97 56z"/><path fill="#f1b322" d="m438 395 2 1-1 4-1.875.25c-2.302.55-2.302.55-3.25 2.75l-.875 2-2 1c1.486-4.593 3.85-7.436 7-11"/><path fill="#d49d73" d="m195 206 2 1c-.474 4.263-2.922 6.215-6 9l-3 2c.474-4.269 3.035-6.11 6-9z"/><path fill="#f3c137" d="M16 198h1c.253 6.069-.302 11.162-2 17h-1c-.253-6.069.302-11.162 2-17"/><path fill="#b87115" d="m89 137 2.375 2c2.34 2.202 2.34 2.202 4.625 2v3l2 1-3 1-7-7z"/><path fill="#b67212" d="m413 133 3 1a832 832 0 0 1-3.312 3.875l-1.864 2.18C409 142 409 142 406 144c0-3 0-3 2.375-5.5L411 136z"/><path fill="#fcf0dd" d="M58 94c2.154 2.622 3.4 4.644 4 8l-4 1c-.879-6.152-.879-6.152-1-8z"/><path fill="#f9b92f" d="m113 58 1.563.875c3.06 1.413 6.186 2.25 9.437 3.125l1 4c-4.035-1.59-8.018-3.282-12-5z"/><path fill="#d3892c" d="M110 59c5.75 1.875 5.75 1.875 8 3v3c-3.375-.547-5.082-1.055-8-3z"/><path fill="#f6e5ce" d="M41 42h1l2 18c-3-3-3-3-3.293-6.574q.03-2.058.105-4.114l.042-2.126c.035-1.73.089-3.458.146-5.186"/><path fill="#fdf1bd" d="M463 362h1a109 109 0 0 1-1 7l-2 1a78 78 0 0 0-2 5h-2c1.413-4.827 3.43-8.716 6-13"/><path fill="#e8ba48" d="m464 357 2 1-6 11c-1-4-1-4-.004-6.14l1.442-2.11 1.433-2.14z"/><path fill="#fdfae3" d="m11 296 2 1c.414 2.723.414 2.723.625 6.063l.227 3.347L14 309c-2.016-1.176-2.016-1.176-4-3-.172-2.48-.172-2.48.25-5.187l.39-2.731c.12-.687.238-1.374.36-2.082"/><path fill="#ac7749" d="M445 80h2c-.543 4.565-1.795 7.973-4 12-1.124-3.304-.896-5.05.438-8.25l.87-2.14z"/><path fill="#b8885c" d="M424 43v3h-2l-1 2c-2.066.414-2.066.414-4.562.625l-2.504.227L412 49c3.625-3.172 7.512-4.429 12-6"/><path fill="#f4e3d1" d="m385 449 3 1c-3.75 3-3.75 3-6 3l-1 3-6 1a52.6 52.6 0 0 1 6.5-5.75l1.781-1.36z"/><path fill="#6e3808" d="m348 125 3 1c-.564 3.27-1.5 4.826-4 7-.625-2.312-.625-2.312-1-5z"/><path fill="#fdf0b3" d="M184 18c-2.886 1.576-5.533 2.463-8.75 3.125l-2.422.508L171 22l1-3c4.064-.774 7.864-1.098 12-1"/><path fill="#c18858" d="M328 474h6l1 2c-4.497 2.248-8.079 2.167-13 2v-1h6z"/><path fill="#ecc557" d="M53 389c2.656.37 3.748.705 5.52 2.777l1.292 2.16 1.333 2.153L62 398l-1 2q-2.004-2.466-4-4.937l-2.25-2.778C53 390 53 390 53 389"/><path fill="#fcecbb" d="M475 333c2 4 2 4 1.875 6.063C476 341 476 341 472 344z"/><path fill="#f3c14d" d="M61 102h2c1.324 1.68 1.324 1.68 2.688 3.875l1.386 2.18L68 110l-1 2-3.613-4.59c-1.444-1.682-1.444-1.682-4.387-2.41z"/><path fill="#c57830" d="M85 56c1.746 2.62 2.387 4.038 3 7-2.937-.812-2.937-.812-6-2l-1-3z"/><path fill="#c97628" d="m45 42 4 1a129 129 0 0 1-2 7l-2 1z"/><path fill="#fbf2e3" d="M112 448c4.875 1.875 4.875 1.875 6 3 .04 1.666.043 3.334 0 5-2-1-2-1-3-3l-2-1c-.625-2.062-.625-2.062-1-4"/><path fill="#8c633c" d="M83 423c1.875.313 1.875.313 4 1l2 3 3 1v3c-4.274-1.583-6.265-4.506-9-8"/><path fill="#965a13" d="m84 414 3 1v3l-5 2c0-4 0-4 2-6"/><path fill="#fdf8dc" d="M45 382c3.499 1.397 4.709 2.713 6.25 6.125l1.016 2.195L53 392c-3.108-1.036-4.02-1.504-6-4-1.187-3.187-1.187-3.187-2-6"/><path fill="#a56227" d="M420 115v3l-5 1-1 4h-3c4.54-8 4.54-8 9-8"/><path fill="#b97417" d="m431 109 2 2-6 9c-1.245-2.49-.777-3.41 0-6h2v-3h2z"/><path fill="#f8b933" d="m367 69 4 1q-1.932 1.257-3.875 2.5l-2.18 1.406C363 75 363 75 361 75l1-3 5-1z"/><path fill="#fbeed7" d="M78 44h9l1 4-10-3z"/><path fill="#faf8e8" d="m323 17 1.875.563c2.167.674 2.167.674 4.125-.563l3 2v2l-8-1z"/><path fill="#7a4d26" d="M119 450c2.929.628 5.361 1.586 8 3l-1 2c-2.962-.613-4.38-1.254-7-3z"/><path fill="#fcf7d4" d="m33 361 4 1 1 6c-1.937-.687-1.937-.687-4-2-.75-2.625-.75-2.625-1-5"/><path fill="#fbf2e4" d="m373 457 2 4-6 3c.313-2.375.313-2.375 1-5z"/><path fill="#48221c" d="M162 193c2 3 2 3 2 6h6v1h-7l-3-6z"/><path fill="#703708" d="m355 115 1 2-1 3-3 1-2 2c.875-4.75.875-4.75 2-7z"/><path fill="#723706" d="m363 103 2 1-7 8-2-2c2.22-2.908 3.93-4.953 7-7"/><path fill="#faeedc" d="M452 70h1c.326 4.675-.294 7.167-3 11-.955-2.17-1.144-3.563-.398-5.824.757-1.744 1.574-3.462 2.398-5.176"/><path fill="#fbf6ee" d="m400 440 2 1-3 5-4-2c2-3 2-3 5-4"/><path fill="#fdf0ba" d="M479 322h1c.25 3.25.25 3.25 0 7l-4 4z"/><path fill="#fef1be" d="M482 312h1l1 8h-3l-1 2c.875-7.75.875-7.75 2-10"/><path fill="#381d26" d="m257 299 6 1v2c-4.75 1.125-4.75 1.125-7 0z"/><path fill="#aa6220" d="m169 99 3 1v6l-4 2 1.063-2.25c.982-2.882.97-3.962-.063-6.75"/><path fill="#f9ecdb" d="M447 82h1c.364 4.242-.46 6.582-3 10h-2c1.11-3.487 2.263-6.775 4-10"/><path fill="#fcf4d1" d="m110 49 2 2a101 101 0 0 1-2 6l-2 1-2-2h2l.438-2.375C109 51 109 51 110 49"/><path fill="#f8e5ce" d="m129 458 10 5c-4 1-4 1-7.25-.812L129 460z"/><path fill="#916843" d="M96 435c2.25-.312 2.25-.312 5 0 2.313 2.5 2.313 2.5 4 5l-1 2a962 962 0 0 1-4-2.937l-2.25-1.653L96 436z"/><path fill="#512b21" d="M304 200c2.756 4.134 3.108 6.052 3 11-2.398-2.398-2.343-3.333-2.625-6.625l-.227-2.477z"/><path fill="#f3c33d" d="m444 114 1 2c2.025.652 2.025.652 4 1l-1 4-4-2z"/><path fill="#fdf1dd" d="M50 77c1.956 2.934 3.562 5.782 5 9l-1 2c-2.034-1.415-2.904-2.55-3.422-4.98-.24-2.002-.413-4.011-.578-6.02"/><path fill="#f9ead5" d="m320 481-1 3h-9c3.514-1.757 6.104-3 10-3"/><path fill="#f8c134" d="M57 391h2c2.61 2.848 4.427 5.13 5 9h-2z"/><path fill="#b87e56" d="M275 280c4 2 4 2 7 4l-1 4z"/><path fill="#563024" d="m190 212-1 3-9 1 4-2 2.125-1.125C188 212 188 212 190 212"/><path fill="#41201a" d="M328 200h1c.125 6.75.125 6.75-1 9h-2v-5h2z"/><path fill="#fbfae4" d="M37 134c.25 2.313.25 2.313 0 5-2 1.813-2 1.813-4 3 .256-2.343.593-4.678 1-7 2-1 2-1 3-1"/><path fill="#fbc023" d="m420 131 4 1-2 4-3-1z"/><path fill="#d38c30" d="m312 97 9 5-1 2c-2.712-1.613-5.374-3.249-8-5z"/><path fill="#7a3a04" d="m75 58 6 2v2l-4 1z"/><path fill="#c6792f" d="m53 50 4 1a141 141 0 0 1-5 5h-2l1-4h2z"/></svg>