<svg xmlns="http://www.w3.org/2000/svg" xml:space="preserve" viewBox="0 0 500 500"><path fill="#fecc02" d="M1 254c0-3.03 0-6.061.282-9.771 1.085-3.284 2.26-5.837 2.628-8.502 1.561-11.293 1.86-22.868 4.537-33.873 3.767-15.484 8.622-30.783 14.19-45.722 3.62-9.71 9.494-18.562 14.083-27.932 6.841-13.967 16.39-26.055 26.428-37.7 6.836-7.932 14.357-15.366 22.2-22.312 9.486-8.403 19.358-16.439 29.598-23.899 6.7-4.88 14.19-8.772 21.618-12.532 7.761-3.929 15.827-7.275 23.845-10.672 5.202-2.205 10.57-4.015 15.824-6.104.442-.176.575-1.13 1.16-1.805.729-.156 1.148-.23 1.783-.014 4.443-1.11 8.67-2.51 13.258-3.97 1.093-.101 1.824-.143 2.725.036.783-.207 1.396-.634 2.314-1.082.71-.05 1.116-.08 1.704.108.718-.288 1.255-.791 1.764-1.313-.027-.018-.007-.079.369.01 1.144.071 1.912.055 2.922.307 3.431-.515 6.62-1.297 10.131-2.12.753-.066 1.184-.09 1.896.163 4.507.071 8.847.402 12.935-.462C235.778 3.447 243.054 5.556 249 1c2.37 0 4.741 0 7.652.376 1.214.76 1.852 1.388 2.567 1.494 18.419 2.725 37.258 2.835 55.115 9.042 12.748 4.432 25.839 8.042 38.213 13.337 10.366 4.436 20.172 10.375 29.755 16.397 9.33 5.864 18.04 12.712 27.074 19.053 2.357 1.654 4.91 3.03 7.461 4.872 3.441 3.843 6.724 7.42 10.175 10.827 1.78 1.756 3.859 3.21 5.863 5.148.7 1.472 1.198 2.713 2.005 3.7 5.21 6.367 10.796 12.449 15.686 19.048 19.12 25.807 32.646 54.333 40.225 85.556 2.25 9.269 3.525 18.774 4.9 28.137-1.876-1.27-3.531-2.378-4.914-3.759-27.895-27.845-55.749-55.731-83.657-83.563-1.48-1.476-3.372-2.542-5.092-4.168-.198-1.338-.05-2.589-.605-3.235-6.652-7.74-12.702-15.995-23.007-19.735-22.042-8-38.596-3.319-53.16 11.214-3.153 3.145-5.112 2.852-7.803 1.218-10.458-6.354-22.028-9.609-33.739-12.54-22.766-5.7-45.68-5.31-68.312-.06-11.283 2.618-21.988 7.687-33.04 11.39-1.654.554-4.47.426-5.582-.622-11.397-10.748-24.733-15.959-40.331-14.014-11.784 1.468-21.955 6.606-29.899 15.704-6.025 6.9-9.037 14.982-11.16 23.885-2.412 10.112-.006 19.156 4.175 27.748 2.767 5.686 7.586 10.355 11.285 15.62.695.99.897 2.782.538 3.964-.9 2.974-2.144 5.86-3.441 8.694-6.725 14.695-9.504 30.232-10.41 46.325-3.413 3.139-3.486 10.267-.508 13.38.014 2.472.022 4.508-.207 6.707.213.732.663 1.3 1.134 2.272-.308 9.466-.636 18.527-1.316 27.643-1.312 1.141-2.725 2.075-3.149 3.341-1.41 4.216-.891 9.387-7.35 10.878l1.267 1.649c2.22-.312 4.44-.624 6.659-.534-.015 1.472-.03 2.543-.395 3.665-1.167 1.024-1.83 2.228-2.847 2.89-.722.47-2.782.291-2.785.263-.502-5.274-5.462-7.268-8.102-10.927-.811-1.125-2.642-1.513-4.221-2.341-.483-.297-.663-.553-.708-1.227 1.057-1.37 2.236-2.267 3.025-3.429.754-1.11 1.65-2.587 1.458-3.729-.16-.944-1.824-2.281-2.808-2.27-1.13.013-2.415 1.158-3.32 2.109-.994 1.043-1.632 2.425-2.786 3.662-.838.055-1.315.106-2.087.07-.971-.791-1.648-1.493-2.022-2.33 1.467-1.197 2.631-2.26 3.796-3.323l-.603-.965-4.297.203c-.18-1.662.072-3.338-.6-4.462-.743-1.244-2.256-2.142-3.622-2.793-.253-.12-1.406 1.651-2.563 2.562a31 31 0 0 0-2.327.316c-.564.088-.888.075-1.242-.371-2.36-1.578-4.688-2.773-7.315-3.938-.494.082-.688.134-1.089.147-.206-.039-.594-.2-.598-.566-3.777-6.232-9.593-7.575-16.045-7.956-3.348-4.031-3.803-7.803-.307-11.291-1.703-1.375-3.612-2.257-4.4-3.737-.808-1.517-.52-3.619-.79-6.217l-5.242 3.225c-1.943-1.327-3.625-3.438-5.094-3.299-4.422.42-8.76 1.716-13.131 2.67m54.168 21.179c-.83 3.09.313 4.318 5.085 4.922 1.093.138 2.297-.609 3.45-.948-.637-1.206-1.006-3.087-1.97-3.469-1.737-.688-3.831-.48-6.565-.505"/><path fill="#fd9e04" d="M402.048 126.866c1.7 1.257 3.591 2.323 5.072 3.8 27.908 27.83 55.762 55.717 83.657 83.562 1.383 1.38 3.038 2.49 5.04 4.019 1.22.851 1.966 1.41 2.784 2.246.093.662.114 1.045.001 1.548-.026.42.08.72.223 1.382.748 1.767 1.462 3.172 2.175 4.577 0 15.354 0 30.708-.383 46.626-.843 1.396-1.62 2.195-1.717 3.07-1.94 17.558-5.783 34.64-11.232 51.482-11.89 36.75-31.967 68.404-58.445 96.207-1.475 1.549-3.877 2.215-6.039 2.888-1.49-8.255-2.912-16.088-4.067-23.96-4.284-29.211-8.422-58.443-12.732-87.65-2.413-16.358-5.054-32.683-7.864-49.318-.326-1.923-.523-3.56-.416-5.177 1.166-17.513-.225-34.801-5.271-51.63-2.56-8.536-5.993-16.81-8.73-25.4 15.73-11.085 21.982-26.188 20.8-45.162-.575-2.578-1.192-4.719-1.935-7.041-.126-.182-.108-.625-.063-1.005-.354-1.203-.754-2.026-1.152-2.807.002.043-.082.058.008-.322.155-.898.22-1.417.286-1.935"/><path fill="#373940" d="M398.792 267.64c2.539 16.34 5.18 32.665 7.593 49.023 4.31 29.207 8.448 58.439 12.732 87.65 1.155 7.872 2.577 15.705 4.033 24.288.122 1.653.086 2.575-.207 3.713-42.223 38.627-91.017 61.95-148.025 67.19-2.001.183-3.947.983-5.918 1.496-1.714 0-3.429 0-5.74-.32-1.79-.408-2.98-.494-4.62-.62-2.849-.035-5.25-.028-7.655-.492-.004-33.151-.002-65.832.428-98.629 9.012-1.058 17.702-1.431 26.16-3.032 60.573-11.463 107.558-59.196 118.58-120.04.627-3.454 1.748-6.82 2.64-10.226"/><path fill="#fefefd" d="M238 501H1c0-73.687 0-147.375.321-221.28.49 1.077.55 2.4.847 3.665 1.473 6.267 3.008 12.519 4.586 19.078.108.71.15 1.12-.044 1.791.983 5.895 1.895 11.615 3.477 17.144 6.762 23.63 17.244 45.608 30.455 66.267 2.871 4.49 6.8 8.305 10.343 12.601.1.17.293.517.228.874 2.485 3.24 5.036 6.122 7.643 8.972.056-.033-.02.073-.006.421 2.13 2.64 4.247 4.93 6.349 7.26-.015.039.067.022.013.37 1.542 1.862 3.137 3.375 4.957 5.062.746.725 1.266 1.276 1.815 2.166 2.282 2.413 4.536 4.486 6.918 6.84.814.707 1.499 1.134 2.344 1.857 8.675 7.165 16.901 14.435 25.767 20.817 17.831 12.835 37.022 23.246 58.158 30.536 2.405.982 4.583 1.71 7.078 2.64 4.78 1.456 9.24 2.71 13.993 4.201 4.1 1.012 7.907 1.789 12.095 2.695a2635 2635 0 0 0 26.748 4.183c4.3.65 8.61 1.229 12.915 1.84"/><path fill="#fefefe" d="M269.469 501c1.502-.513 3.448-1.313 5.45-1.497 57.007-5.239 105.8-28.562 148.365-67.246 1.88-1.027 3.457-1.518 4.393-2.576 8.777-9.928 17.918-19.586 26.03-30.039 11.566-14.902 20.56-31.375 27.962-48.796 7.397-17.412 13.252-35.193 16.437-53.857.248-1.452 1.897-2.665 2.894-3.989v208z"/><path fill="#fffffe" d="M293 1h208c0 69.354 0 138.708-.318 208.521-1.31.104-2.303-.251-3.382-1.006-.192-1.762-.296-3.123-.112-4.697-.468-2.438-1.224-4.664-2.046-7.207-.08-.746-.095-1.176.154-1.833-.488-2.11-1.238-3.995-2.084-6.185-.156-.727-.217-1.149-.001-1.782-.446-1.781-1.168-3.35-1.994-5.223-.166-.725-.228-1.146-.007-1.786-1.482-6.257-2.996-12.386-5.118-18.296-1.096-3.054-3.272-5.72-5.126-8.836-.455-1.066-.745-1.86-.77-2.841-1.502-3.425-3.268-6.66-5.198-10.154-.48-1.002-.797-1.746-1.134-2.742-.245-.491-.47-.73-.783-1.168a2.3 2.3 0 0 1-.143-1.022c-.803-4.522-1.628-8.653-6.023-10.658.033-.019-.024.008.019-.359-.654-1.13-1.351-1.895-2.294-2.844-.713-1.077-1.181-1.969-1.633-3.246-1.022-1.775-2.06-3.166-3.069-4.59.03-.033-.02.03.013-.36-2.322-3.463-4.679-6.539-7.006-9.649.03-.034-.02.034.009-.34-1.01-1.454-2.05-2.536-3.327-3.784-.67-.798-1.102-1.43-1.551-2.421-2.102-2.695-4.187-5.03-6.52-7.54-1.01-1.113-1.768-2.052-2.528-3.352-.744-1.065-1.487-1.77-2.47-2.616-.705-.712-1.17-1.283-1.641-2.197-.68-.805-1.353-1.265-2.305-1.903-5.028-4.81-9.78-9.442-14.555-14.432-1.362-1.396-2.701-2.433-4.264-3.554-.522-.238-.734-.47-.868-1.129-.715-.74-1.423-1.13-2.091-1.595.04-.075-.085.04-.027-.321-.31-1.077-.498-2.017-1.071-2.473-4.63-3.678-9.272-7.35-14.069-10.803-.912-.657-2.532-.33-4.034-.52-.21-.064-.585-.287-.692-.478-.303-.427-.552-.57-1.083-.711-.53-.246-.758-.475-.928-1.152-1.653-1.156-3.29-1.937-4.929-2.717-.001.001 0-.002-.028-.346-2.026-1.375-4.023-2.404-6.339-3.514-1.073-.517-1.828-.954-2.698-1.58-.326-.42-.586-.552-.917-.574-.021.012.01-.025-.022-.352-1.037-.7-2.041-1.074-3.332-1.51-.775-.368-1.263-.672-1.742-1.287-.643-.457-1.295-.603-2.236-.795-.769-.355-1.248-.664-1.755-1.325-3.34-1.758-6.654-3.164-10.282-4.625-1.081-.428-1.846-.802-2.67-1.513-2.37-1.088-4.678-1.837-7.276-2.615-.784-.3-1.28-.572-1.79-1.176-.979-.497-1.946-.661-3.241-.843-1.105-.335-1.882-.652-2.715-1.317-2.528-1.694-4.42-5.129-8.327-2.58-1.426-.412-2.506-.79-3.668-1.518-3.587-1.526-7.04-2.9-10.614-3.807-2.361-.6-4.893-.526-7.68-.756-.766-.066-1.202-.13-1.818-.385-.52-.223-.859-.255-1.482-.295-.651-.087-1.02-.168-1.435-.593-1.345-.458-2.644-.574-4.265-.695-.747-.07-1.17-.135-1.68-.518C294.936 3.108 293.97 2.054 293 1M1 219V1c70.687 0 141.375 0 212.272.289-.598.438-1.467.443-2.2.76-4.883 2.11-11.047.166-15.442 4.858-.744.107-1.173.138-1.812-.113-2.103.453-3.997 1.189-6.202 2.026-.743.176-1.174.251-1.809.03-1.292-.219-2.44-.34-3.457-.027-5.472 1.682-11.029 3.176-16.335 5.29-9.242 3.68-18.336 7.736-27.443 11.746-.689.303-.986 1.495-1.514 2.262-.048-.013.047-.01-.366-.057-7.663.21-12.161 5.953-18.043 8.934-2.164 1.096-3.733 3.365-5.617 5.07-.044-.03.051.011-.327-.02-1.892.566-3.66.845-4.879 1.814a1940 1940 0 0 0-30.16 24.449c-.942.78-1.078 2.53-1.74 4.111-1.701 1.737-3.25 3.192-5.169 4.62-.698.006-1.16-.087-1.33.094-5.315 5.668-10.666 11.305-15.817 17.12-.71.802-.405 2.504-.588 3.765-.018-.024.029.015-.324.028-4.986 4.194-9.479 8.473-10.618 14.995-.016-.053.035.05-.329.041-2.15 3.31-3.937 6.628-5.736 9.93-.013-.017.02.01-.34.027-3.437 5.707-6.515 11.397-9.639 17.427-.434 1.4-.823 2.458-1.423 3.678-.282.501-.352.84-.455 1.491-.603 1.407-1.175 2.502-2.136 3.56-1.54 3.335-2.69 6.707-3.867 10.354-.152.62-.278.964-.733 1.409-1.738 4.742-3.148 9.384-4.583 14.352-.143.742-.261 1.16-.53 1.714-.328.369-.396.628-.333.934.023.02-.035.01-.346.183-2.063 5.957-4.028 11.687-5.487 17.543-.83 3.333-.835 6.872-1.216 10.63-.056.727-.107 1.141-.468 1.657-.387 1.409-.463 2.716-.573 4.333-.074.726-.114 1.14-.446 1.654-.336 1.082-.38 2.064-.47 3.356-.097.725-.145 1.14-.488 1.597-.69.056-1.086.071-1.482.086"/><path fill="#575b64" d="M238.463 501c-4.768-.611-9.079-1.19-13.378-1.84-8.792-1.33-17.579-2.7-26.785-4.545-5.05-11.197-9.682-21.901-14.36-32.961-.701-2.113-1.356-3.871-2.034-6.013-.684-3.47-1.347-6.554-1.976-9.91.053-.449.07-.629.495-.825 10.83-1.53 20.488-4.865 28.91-12.008 5.22-5.26 10.298-10.243 14.953-15.594 1.731-1.99 2.473-4.842 3.602-7.682-1.378-.775-2.796-1.698-3.987-1.465-3.716.727-7.444 1.628-10.984 2.952-4.745 1.775-9.319 4.008-15.484 6.71 2.131-8.92 3.928-16.44 6.114-23.935 1.025.184 1.67.318 2.298.507 14.753 4.446 29.763 6.995 45.256 6.306.021.132-.12.36-.12.36 0 32.68-.002 65.36.006 98.75.009.712.011 1.193.011 1.193z"/><path fill="#fdcb02" d="M1 254.4c4.37-1.354 8.71-2.65 13.13-3.07 1.47-.139 3.152 1.972 5.095 3.3l5.242-3.226c.27 2.598-.018 4.7.79 6.217.788 1.48 2.697 2.362 4.4 3.737-3.496 3.488-3.041 7.26.308 11.625.044 1.14.048 1.586-.164 2.143-.487.311-.675.571-1.124.919-.995.6-1.649 1.17-2.302 1.74.866.41 1.733.82 2.723 1.5.723.749 1.321 1.229 1.91 1.712-.008.003.003-.012-.03.363-.031 1.13-.03 1.882-.285 2.86-.067 1.741.12 3.257.094 5.043-1.25.768-2.439 1.083-3.287 1.801-1.888 1.599-3.605 3.399-5.391 5.116l6.595 3.034c.006.03.026.714.3 1.274.557 1.14 1.25 2.21 1.888 3.31.448-1.152.927-2.294 1.335-3.46.62-1.772 1.19-3.56 2.07-5.355.768-.288 1.247-.56 1.962-.864.236-.03.708-.084.78.082.073.167.09.53.03.903-.086.877-.11 1.38-.39 2.11 1.611 4.307 1.577 9.167 5.87 12.257 3.011 2.166 5.263 5.387 8.558 8.884-7.907 2.91-14.643 5.187-21.187 7.925-1.906.797-4.54 2.906-4.546 4.422-.007 1.923 2.107 4.068 3.714 5.72 1.474 1.516 3.49 2.505 5.572 3.936 1.447.188 3.564.183 5.502.77 4.535 1.376 8.882 3.657 13.495 4.418 5.277.87 10.799.962 16.141.517 4.67-.388 9.208-2.16 13.863-2.993 2.682-.48 4.55.559 4.193 3.874-.687 6.405-.969 12.869-2.024 19.207-.335 2.007-2.313 4.87-4.031 5.282-3.735.894-7.817.192-11.702.628-6.898.775-13.805 1.667-20.602 3.037-2.148.432-3.957 2.544-6.597 4.349-2.569-2.894-5.06-5.791-7.679-8.57-.492-.522-1.491-.567-2.247-.845.01-.013-.01-.016.011-.431-.14-2.05.13-3.888-.533-5.285-2.994-6.323-6.338-12.48-9.365-18.788-.979-2.04-1.42-4.347-2.023-6.556-.563-2.064-1.015-4.16-1.515-6.242-1.073-1.384-.404-3.507-1.18-4.48-5.652-7.092-5.645-16.046-8.4-24.071-.53-1.542-1.83-2.82-2.857-4.535-.118-.747-.153-1.179.11-1.866.42-2.044.796-3.857.618-5.615-.873-8.596-1.644-17.216-2.997-25.741C4.374 263.485 2.326 260.8 1 258zm18.836 46.584-3.871-1.243 2.31 6.111 1.393-.44c.097-1.225.194-2.45.168-4.428m3.764-34.738-.917-5.871-1.666-.114c-.317 1.657-.91 3.333-.8 4.96.04.568 1.821 1.015 3.383 1.025"/><path fill="#eecd39" d="M71.128 77.07a273 273 0 0 1 5.124-4.728c4.326-3.754 8.067-7.279 12.044-10.513 8.195-6.665 16.517-13.175 24.787-19.75 0 0-.095-.042.3-.05 8.17-4.644 15.946-9.28 23.722-13.917 0 0-.095-.004.313-.02 13.494-4.956 26.58-9.895 39.667-14.835-.277.593-.41 1.548-.852 1.724-5.253 2.09-10.622 3.9-15.824 6.104-8.018 3.397-16.084 6.743-23.845 10.672-7.428 3.76-14.918 7.651-21.618 12.532-10.24 7.46-20.112 15.496-29.598 23.899-7.843 6.946-15.364 14.38-22.2 22.311C53.11 102.145 43.56 114.233 36.72 128.2c-4.59 9.37-10.462 18.223-14.082 27.932-5.57 14.939-10.424 30.238-14.19 45.722-2.678 11.005-2.977 22.58-4.538 33.873-.368 2.665-1.543 5.218-2.628 8.047C1 240.97 1 237.94 1.3 234.194c.692-5.583 1.085-10.452 1.477-15.32.048-.416.096-.832.48-1.759.381-1.425.428-2.34.475-3.253.04-.415.08-.83.452-1.778.417-1.76.501-2.986.586-4.212.05-.414.1-.828.44-1.81 2.437-9.743 4.584-18.917 6.73-28.091 0 0 .059.01.243-.111.435-.38.466-.663.276-.97.119-.418.237-.835.662-1.808 1.748-5.111 3.189-9.666 4.63-14.221.126-.345.252-.69.665-1.56 1.523-3.707 2.76-6.886 3.995-10.066.572-1.095 1.144-2.19 1.966-3.757.316-.813.381-1.153.447-1.493.389-1.058.778-2.117 1.549-3.599 3.475-6.07 6.569-11.716 9.662-17.361 0 0-.033-.027.286-.157 2.144-3.344 3.97-6.56 5.794-9.774 0 0-.05-.103.278-.179 3.772-5.01 7.215-9.944 10.658-14.879 0 0-.047-.04.28-.147 6.15-7.011 11.974-13.915 17.797-20.82"/><path fill="#fcefc5" d="M501 292.6c-.997 1.724-2.646 2.937-2.894 4.389-3.185 18.664-9.04 36.445-16.437 53.857-7.401 17.42-16.396 33.894-27.962 48.796-8.112 10.453-17.253 20.11-26.03 30.039-.936 1.058-2.513 1.55-4.134 2.36-.307-.865-.271-1.787-.202-3.036 2.005-1.405 4.407-2.071 5.882-3.62 26.478-27.803 46.555-59.457 58.445-96.207 5.449-16.841 9.293-33.924 11.232-51.483.097-.874.874-1.673 1.717-2.6.383 2.605.383 5.305.104 8.678-.092 2.19.093 3.709.279 5.227z"/><path fill="#edcf4e" d="M364.96 28.069c.479.308.958.617 1.88 1.223.986.483 1.53.669 2.075.855.487.304.975.608 1.903 1.246a39 39 0 0 0 3.21 1.567s-.03.037.076.247c.317.497.597.607.947.54.755.438 1.51.875 2.746 1.671a240 240 0 0 0 6.205 3.58s-.002.002.164.286c1.704 1.125 3.243 1.965 4.78 2.806.154.303.382.532.98 1.004.497.604.773.724 1.122.676 0 0 .376.223.763.574 6.57 4.857 12.754 9.363 18.938 13.87 0 0 .125-.115.168.253.7.796 1.358 1.224 2.015 1.652.127.31.34.54.963 1.077 1.291 1.476 2.255 2.57 3.13 3.759-.09.096-.277.279-.277.279-2.463-1.504-5.015-2.88-7.372-4.535-9.034-6.341-17.743-13.19-27.074-19.053-9.583-6.022-19.389-11.96-29.755-16.397-12.374-5.295-25.465-8.905-38.213-13.337-17.857-6.207-36.696-6.317-55.115-9.042-.715-.106-1.353-.734-2.123-1.494C261.69 1 266.38 1 271.752 1.32c4.229.713 7.774 1.106 11.678 1.567 1.086.101 1.813.133 2.82.424 3.46.669 6.642 1.078 9.824 1.487.424.065.848.13 1.834.465 1.731.438 2.902.606 4.073.774.368.08.737.162 1.577.429.805.225 1.14.265 1.474.306.435.064.871.128 1.891.466 6.43 1.73 12.277 3.186 18.122 4.642 1.08.378 2.16.755 3.817 1.43 3.103 1.087 5.628 1.876 8.153 2.665.776.317 1.553.634 2.85 1.24 1.369.494 2.216.7 3.062.905.497.271.993.543 1.992 1.114 2.71 1.093 4.915 1.887 7.12 2.68.765.375 1.53.749 2.817 1.444 3.716 1.785 6.91 3.248 10.104 4.71"/><path fill="#f3cb15" d="M1 258.417c1.326 2.383 3.374 5.068 3.84 8.005 1.354 8.525 2.125 17.145 2.998 25.741.178 1.758-.197 3.571-.88 5.332-1.056-3.114-1.56-6.198-2.042-9.286C3.606 279.807 2.305 271.403 1 263z"/><path fill="#f7e88c" d="M1 263.467c1.305 7.936 2.606 16.34 3.916 24.742.482 3.088.986 6.172 1.743 9.541.298.715.333 1.147.375 2.265-.11 1.172-.227 1.66-.344 2.146-1.514-6.257-3.05-12.509-4.522-18.776-.297-1.266-.357-2.588-.847-4.134C1 273.978 1 268.956 1 263.467"/><path fill="#fefbd2" d="M195.943 6.831c4.082-4.616 10.246-2.671 15.128-4.782.734-.317 1.603-.322 2.67-.76a186 186 0 0 1 17.556-.024c-1.351.701-2.936 1.137-4.933 1.56-2.058.086-3.704.185-5.61.254-.429.019-.597.066-1.15.098-1.137.112-1.89.24-2.843.314-.488.02-.69.195-.781.48.027.01-.02-.025-.363-.047-.787.08-1.232.183-2.049.29-2.101.287-3.83.568-5.818.825-.425.022-.591.068-1.084.097-1.133.23-1.94.48-3.081.726-1.107.331-1.879.666-2.65 1 0 0-.02.061-.32.015-.74.005-1.18.057-2 .08-1.145-.06-1.908-.093-2.672-.126"/><path fill="#eecd39" d="M221.014 3.108c1.646-.098 3.292-.197 5.81-.217C232.131 2.313 236.565 1.657 241 1h7.556c-5.501 4.556-12.778 2.447-19.362 3.839-4.088.864-8.428.533-12.936.192-.287-.726-.293-.906-.298-1.085 0 0 .047.036.209.011.41-.091.62-.22.791-.412.754-.128 1.507-.256 2.753-.234.763.032 1.032-.085 1.301-.203"/><path fill="#fffaca" d="M497.387 208.915c.992.355 1.984.71 3.295 1.075.318.76.318 1.51.154 2.73-.055.739.054 1.01.164 1.28v13.535c-.713-.94-1.427-2.345-2.125-4.4-.037-.839-.088-1.027-.14-1.215-.02-.382-.041-.765-.012-1.83-.412-4.18-.874-7.678-1.336-11.175M295.99 4.48c-3.098-.09-6.28-.5-9.517-1.45 1.473-1.038 3-1.534 4.527-2.03h1.667c1.301 1.054 2.27 2.108 3.322 3.48"/><path fill="#fcf4af" d="M2.482 218.914c-.097 4.828-.49 9.697-1.182 14.826-.3-4.43-.3-9.119-.3-14.274.396-.48.792-.496 1.482-.552"/><path fill="#fffaca" d="M283.072 2.818c-3.546-.392-7.091-.785-10.854-1.498 3.143-.32 6.505-.32 10.326-.016.482.707.505 1.11.528 1.514"/><path fill="#efd65d" d="M240.55 1a310 310 0 0 1-13.314 1.904c1.125-.502 2.71-.938 4.53-1.639C234.7 1 237.4 1 240.55 1"/><path fill="#fffffe" d="M283.43 2.887c-.381-.473-.404-.876-.428-1.583C285.37 1 287.742 1 290.556 1c-1.083.496-2.61.992-4.36 1.77-.953.25-1.68.218-2.766.117"/><path fill="#5a5d63" d="M251.444 501c-.444 0-.446-.481-.45-.721 2.396-.247 4.797-.254 7.614.004.416.264.392.717.392.717z"/><path fill="#fefefe" d="M501 288.583c-.186-1.101-.371-2.62-.279-4.36.279 1.166.279 2.555.279 4.36"/><path fill="#84868c" d="M259.4 501c-.4 0-.376-.453-.344-.676 1.224-.138 2.415-.052 3.775.355-.898.321-1.964.321-3.431.321"/><path fill="#fffffe" d="M501 213.75c-.11-.02-.22-.291-.164-.656.164-.094.164.406.164.656"/><path fill="#e8c837" d="M402.028 126.497c-.045.887-.11 1.406-.517 2.085-1.02-.98-1.72-2.11-2.376-3.266-11.26-19.859-34.126-28.333-55.347-20.16-8.474 3.262-15.998 8.08-20.59 16.559-16.9-8.726-34.336-14.838-52.92-17.312-6.367-.847-12.817-1.072-19.603-1.71-8.93.366-17.562.316-26.029 1.471-16.713 2.28-32.165 8.72-47.455 15.428-12.707-17.188-37.031-22.387-56.103-12.15-29.771 15.979-31.63 57.05-5.328 75.972a103 103 0 0 1-2.203 5.385c-6.912 15.618-12.369 31.73-12.78 48.92-.321 13.4.683 26.833.837 40.539-3.08 18.714-5.9 37.14-9.027 55.581-.715.034-1.124.053-1.577-.277-4.597-8.893-8.95-17.55-13.785-25.929-2.35-4.074-5.598-7.63-8.44-11.42.478-.052.955-.103 1.944.122 1.752 1.43 2.992 2.581 4.232 3.733.093.318.273.574.92 1.17 5.326 9.02 10.274 17.637 15.903 27.44l2.24-17.674c.014-1.072.028-2.143.213-3.953 1.032-5.51 1.893-10.281 2.755-15.052.328-9.06.656-18.12.967-27.883-.312-1.18-.606-1.66-.9-2.14-.008-2.035-.016-4.07-.024-6.992.295-4.921.59-8.956.884-12.992.524-16.032 3.303-31.569 10.028-46.264 1.297-2.834 2.54-5.72 3.441-8.694.359-1.182.157-2.975-.538-3.964-3.7-5.265-8.518-9.934-11.285-15.62-4.181-8.592-6.587-17.636-4.175-27.748 2.123-8.903 5.135-16.985 11.16-23.885 7.944-9.098 18.115-14.236 29.899-15.704 15.598-1.945 28.934 3.266 40.331 14.014 1.112 1.048 3.928 1.176 5.581.622 11.053-3.703 21.758-8.772 33.041-11.39 22.632-5.25 45.546-5.64 68.312.06 11.71 2.931 23.28 6.186 33.74 12.54 2.69 1.634 4.649 1.927 7.801-1.218 14.565-14.533 31.12-19.214 53.161-11.214 10.305 3.74 16.355 11.995 23.007 19.735.556.646.407 1.897.605 3.235"/><path fill="#93c460" d="M68.491 296.124c3.136 3.88 6.384 7.435 8.734 11.51 4.834 8.379 9.188 17.035 13.666 26.199-.883.434-1.963.518-2.464.02-18.805-18.688-37.556-37.43-56.103-56.386 1.036-.349 1.86-.476 3.023-.539 1.022.128 1.706.19 2.5.548.789.658 1.47 1.02 2.514 1.452 2.127.728 3.89 1.385 5.652 2.043 0 0 .388.161.729.4.563.49.838.65 1.465.884 2.478 1.14 4.658 2.114 6.837 3.088.321.065.645.078 1.295.356 1.725 1.41 3.125 2.503 4.556 3.87.372.677.71 1.081 1.093 1.804.71.703 1.374 1.088 2.295 1.636.798.416 1.34.668 1.883.92.677.703 1.354 1.405 2.325 2.195"/><path fill="#edcf4e" d="M497.3 208.515c.55 3.897 1.011 7.395 1.351 11.296-.868-.155-1.614-.713-2.486-1.53-1.849-9.657-3.125-19.162-5.374-28.431-7.579-31.223-21.106-59.749-40.225-85.556-4.89-6.6-10.477-12.68-15.686-19.047-.807-.988-1.305-2.23-1.9-3.81.044-.457.255-.67.531-.587.654.149 1.032.215 1.41.281.466.57.932 1.14 1.695 2.165a51 51 0 0 0 2.413 2.666c.759.938 1.518 1.877 2.608 3.32 2.373 2.86 4.414 5.214 6.456 7.568.432.633.864 1.265 1.588 2.385 1.275 1.604 2.26 2.72 3.244 3.836 0 0 .05-.068.064.31 2.319 3.484 4.624 6.59 6.928 9.694 0 0 .051-.062.057.303 1.01 1.792 2.013 3.217 3.017 4.643.468.892.936 1.784 1.68 3.18.923 1.3 1.571 2.096 2.22 2.892 0 0 .057-.027.06.347 1.985 3.817 3.967 7.26 5.948 10.704 0 0 .095.423.192.877.33.69.562.927.794 1.164.316.744.633 1.488 1.097 2.853 1.748 3.741 3.348 6.86 4.948 9.98.29.793.581 1.586 1.024 3.024 3.426 9.423 6.7 18.2 9.972 26.978.063.422.125.843.231 1.917.622 2.13 1.2 3.608 1.778 5.086.06.421.12.843.217 1.937.65 2.463 1.266 4.254 1.88 6.044.015.43.03.86.047 1.989.61 2.811 1.215 4.925 1.821 7.038.104 1.361.208 2.722.4 4.484"/><path fill="#fbcc08" d="M93.672 311.054c-.345 5.446-1.041 10.942-1.888 17.623-5.63-9.802-10.577-18.419-15.689-27.335 1.2.425 3.032.813 3.843 1.938 2.64 3.66 7.6 5.653 8.102 10.927.003.028 2.063.207 2.785-.263 1.017-.662 1.68-1.866 2.847-2.89"/><path fill="#fefbd2" d="M177.394 13.176c-13.395 5.02-26.482 9.96-39.928 14.928.12-.75.417-1.942 1.106-2.245 9.107-4.01 18.201-8.066 27.443-11.747 5.306-2.113 10.863-3.607 16.335-5.29 1.016-.311 2.165-.19 3.295.261-.602.933-1.246 1.335-2.244 1.755-1.716.69-3.078 1.362-4.44 2.034-.42.074-.84.148-1.567.304"/><path fill="#fbcc08" d="M96.64 292.055c-.51 4.715-1.37 9.486-2.402 14.594-2.39.65-4.61.962-6.83 1.274l-1.266-1.65c6.458-1.49 5.939-6.66 7.35-10.877.423-1.266 1.836-2.2 3.148-3.341"/><path fill="#fccc06" d="M61.945 291.055c-.34-.405-.678-.81-1.022-1.843-.645-1.822-1.284-3.014-1.924-4.207.738-.899 1.891-2.67 2.144-2.55 1.366.65 2.879 1.55 3.622 2.793.672 1.124.42 2.8.6 4.462l4.297-.203.603.965c-1.165 1.063-2.33 2.126-3.796 3.323-.846-.118-1.388-.37-2.229-1.097-.964-.864-1.63-1.253-2.295-1.643"/><path fill="#fccb06" d="M75.01 299.712c-1.289-.796-2.53-1.948-3.92-3.38.642-1.514 1.28-2.896 2.273-3.94.906-.95 2.191-2.095 3.321-2.108.984-.011 2.648 1.326 2.808 2.27.193 1.142-.704 2.62-1.458 3.729-.789 1.162-1.968 2.06-3.025 3.429"/><path fill="#edcf4e" d="M418.08 64.811c4.752 4.631 9.504 9.263 14.558 14.363.4.843.498 1.219.597 1.594 0 0-.21.212-.315.321-2.05-1.481-4.128-2.935-5.908-4.691-3.45-3.407-6.734-6.984-10.175-10.827-.089-.337.099-.52.43-.598.333-.077.813-.162.813-.162"/><path fill="#fccc06" d="M55.563 275.108c2.339.096 4.433-.112 6.17.576.964.382 1.333 2.263 1.97 3.469-1.153.34-2.357 1.086-3.45.948-4.772-.604-5.914-1.832-4.69-4.993"/><path fill="#f3cb15" d="M37.738 277.179c-.685-.062-1.37-.123-2.47-.604-2.028-.8-3.639-1.18-5.25-1.56-.005-.446-.01-.892-.014-1.672 6.412-.313 12.228 1.03 16.005 7.262-1.759-.292-3.521-.95-5.7-2a20 20 0 0 0-2.571-1.426"/><path fill="#fdcb09" d="M97.537 242.053c.087 3.975-.207 8.01-.508 12.495-2.978-2.228-2.905-9.356.508-12.495"/><path fill="#eecd39" d="M179.176 13.162c1.147-.962 2.51-1.634 4.598-2.266 2.227-.575 3.728-1.19 5.588-1.884 1.085-.208 1.811-.336 2.574-.287.037.178.137.527.137.527-4.227 1.4-8.454 2.8-12.897 3.91M203.92 5.864c.806-.248 1.613-.497 2.852-.588.7.035.968-.089 1.236-.212 1.73-.282 3.459-.563 5.583-.607.394.236.451.722.451.722-3.19.782-6.379 1.564-9.822 1.797-.269-.737-.285-.924-.3-1.112"/><path fill="#f3cb15" d="M55.011 284.962c-2.146-.593-4.326-1.567-6.77-2.98-.26-.623-.252-.806-.245-.99 2.327 1.197 4.655 2.392 7.015 3.97M58.58 285.017c1.059 1.18 1.698 2.373 2.31 3.922-1.426-.737-2.826-1.83-4.312-3.288.47-.451 1.026-.536 2.002-.634"/><path fill="#efd65d" d="M195.63 6.907c1.077-.043 1.84-.01 2.984.314.381.466.381.642.381.817-.406.029-.812.058-1.84.072-1.137.29-1.651.594-2.165.897-.732.042-1.463.084-2.556.185-.361.06-.461-.29-.292-.63.741-.723 1.313-1.105 1.886-1.487.43-.03.858-.06 1.602-.168"/><path fill="#eecd39" d="M199.177 8.254c-.182-.391-.182-.567-.181-1.005.44-.315.88-.367 1.646-.355-.21.569-.747 1.072-1.465 1.36M195.16 9.228c.344-.524.858-.828 1.69-1.097-.295.463-.908.89-1.69 1.097"/><path fill="#fdcb09" d="M96.822 262.14c.531.316.825.795 1.116 1.57-.453-.27-.903-.838-1.116-1.57"/><path fill="#efd65d" d="M203.585 5.862c.35.19.366.377.394.846-.757.298-1.525.314-2.67.242.397-.422 1.17-.757 2.276-1.088M214.363 5.137c-.32.042-.378-.444-.4-.686.422-.344.867-.446 1.654-.527.348.201.354.38.36.83-.43.294-.861.318-1.614.383"/><path fill="#e8c837" d="M47.696 281.024c.293.152.286.335.246.792-.362.205-.637.046-.994-.406.06-.252.254-.304.748-.386"/><path fill="#f1f4fc" d="M251.049 102.822c6.412.51 12.862.734 19.23 1.581 18.583 2.474 36.02 8.586 53.276 17.473 6.26 3.899 11.851 7.552 17.583 11.504 5.823 5.59 11.72 10.672 17.124 16.232 5.049 5.194 9.574 10.896 14.4 16.739 3.76 6.57 7.45 12.777 11.14 18.984 3.04 8.392 6.472 16.667 9.032 25.203 5.046 16.829 6.437 34.117 5.271 51.63-.107 1.617.09 3.254.416 5.177-.62 3.703-1.741 7.068-2.367 10.523-11.023 60.843-58.008 108.576-118.58 120.039-8.46 1.6-17.15 1.974-26.161 3.032-.43.117-.289-.11-.343-.68-.084-27.397-.114-54.222.272-81.094 7.097-2.38 14.075-4.108 20.382-7.205 7.45-3.657 10.474-12.046 8.424-19.91-2.055-7.882-8.6-13.042-17.082-13.394-3.97-.165-7.943-.22-11.96-.813-.049-58.665-.053-116.843-.057-175.02m124.61 112.111c-15.89-19.866-40.197-24.957-62.555-13.102-23.495 12.458-28.575 43.111-10.336 62.367 15.845 16.729 43.46 19.051 62.597 5.265 17.821-12.838 22.251-35.231 10.294-54.53"/><path fill="#39393a" d="M384.104 185.137c-3.992-6.01-7.682-12.216-11.07-18.8 1.814-1.642 3.581-2.699 4.791-4.204 8.174-10.167 6.813-25.36-2.848-33.099-10.792-8.645-24.58-7.003-33.98 4.047-5.59-3.653-11.182-7.306-17.13-11.12 3.923-8.725 11.447-13.543 19.921-16.806 21.221-8.172 44.087.302 55.347 20.16a50 50 0 0 0 2.286 3.647c.25.219.335.204.317.516.362 1.152.743 1.992 1.123 2.832 0 0-.018.443.088.996.708 2.738 1.31 4.922 1.911 7.106 1.226 18.538-5.026 33.641-20.756 44.725"/><path fill="#e8c837" d="M404.903 139.976c-.644-1.748-1.246-3.932-1.828-6.488.637 1.77 1.254 3.91 1.828 6.488M402.906 131.93c-.425-.46-.806-1.3-1.17-2.495.416.469.816 1.292 1.17 2.495"/><path fill="#edcf4e" d="M498.602 222.041c.185.067.236.255.238.731-.157-.012-.264-.311-.238-.731"/><path fill="#585a65" d="M164.942 485.187c-20.907-7.036-40.098-17.447-57.93-30.282-8.865-6.382-17.091-13.652-25.608-21.168 1.533-11.994 3.068-23.34 4.938-34.698.781.01 1.227.029 1.767.435.77.759 1.432 1.422 2.127 1.458 9.458.495 18.794-.112 27.628-3.912 3.02-1.299 4.684-1.383 6.581 2.196 2.464 4.648 6.294 8.57 9.547 13.184 1.34 3.763 2.34 7.331 4.092 10.481 1.631 2.932 4.063 5.418 6.219 8.346.284.7.491 1.154.7 2.022.509 2.456.833 4.568 1.568 6.524 1.384 3.678 2.935 7.298 4.557 10.878.832 1.839 1.967 3.54 2.923 5.306-.044 0 .025-.053.002.323 1.23 4.074 2.637 7.64 7.022 8.69-.015.036-.01-.04-.032.351 1.322 2.474 2.666 4.558 3.994 6.664-.016.02 0-.026-.014.39.138 1.717-.163 3.365.522 4.26 2.416 3.162 1.447 5.837-.603 8.552"/><path fill="#f3cb15" d="M32.963 370.045c.765.265 1.764.31 2.256.833 2.619 2.778 5.11 5.675 7.68 8.569 2.639-1.805 4.448-3.917 6.596-4.35 6.797-1.369 13.704-2.261 20.602-3.036 3.885-.436 7.967.266 11.702-.628 1.718-.411 3.696-3.275 4.03-5.282 1.056-6.338 1.338-12.802 2.025-19.207.356-3.315-1.511-4.354-4.193-3.874-4.655.834-9.193 2.605-13.863 2.993-5.342.445-10.864.354-16.141-.517-4.613-.761-8.96-3.042-13.495-4.417-1.938-.588-4.055-.583-5.502-.771-2.083-1.431-4.098-2.42-5.572-3.935-1.607-1.653-3.721-3.798-3.714-5.72.006-1.517 2.64-3.626 4.546-4.423 6.544-2.738 13.28-5.015 21.187-7.925-3.295-3.497-5.547-6.718-8.558-8.884-4.293-3.09-4.259-7.95-5.601-12.09 1.332.489 2.14 1.042 3.04 1.784.094.19.142.61.113.942.339.819.707 1.305 1.026 1.77-.049-.022.054-.05.016.308.734 1.12 1.507 1.884 2.585 2.759 5.74 6.046 11.175 11.98 16.191 18.065-5.155.77-9.99.983-14.601 2.111-5.483 1.342-10.774 3.47-16.44 5.235-.58.113-1.12.272-1.11.378.041.419.131 1.02.421 1.2 9.699 5.984 20.099 9.916 31.527 11.064 9.48.953 18.32-1.876 27.404-3.801 1.52 2.519 2.912 4.707 4.194 7.314-1.475 9.458-2.84 18.497-4.668 27.514-6.764.327-13.192.012-19.33 1.199-7.222 1.396-14.191 4.095-21.411 6.188-.142-.042-.272.265-.272.265s.376.156.392.201.112.044.103.39c3.285 2.48 6.35 5.177 9.92 6.641 8.997 3.688 18.221 6.82 27.272 10.61-1.526 9.88-2.97 19.326-4.773 28.701-2.436-1.103-4.514-2.135-6.592-3.167-.52-.55-1.04-1.102-1.786-2.17-1.785-2.033-3.344-3.55-4.903-5.067 0 0-.082.017-.099-.364-2.12-2.677-4.225-4.971-6.33-7.266 0 0 .075-.106.05-.426-2.553-3.205-5.08-6.09-7.609-8.976 0 0-.192-.347-.271-.872-.596-1.355-1.117-2.183-1.627-3.017q-8.21-13.424-16.417-26.849"/><path fill="#90c36f" d="M145.002 432.836c-.208-.455-.415-.909-.731-1.986-2.174-5.023-4.24-9.422-5.95-13.797 1.048.43 2.144.679 2.37 1.264 2.523 6.523 6.044 6.272 10.558 1.849.425.717.61 1.262.515 2.043a64 64 0 0 0-2.438 6.257c-.413 1.245-1.311 2.788-.919 3.767 2.301 5.739 4.845 11.385 7.507 16.967.404.847 1.797 1.33 2.829 1.741 1.426.567 2.943.906 4.594 1.394-4.742 5.51-4.68 5.482 1.343 9.223 1.084.673 1.77 2.26 2.26 3.567 1.759 4.677 3.233 9.462 5.076 14.103.662 1.667 2.078 3.03 3.126 4.549.705 1.023 1.198 2.75 2.086 2.975 1.87.473 3.937.166 6.199.353 1.056 1.408 1.837 2.642 2.598 4.143a42 42 0 0 1-.075.799c-4.46-1.255-8.922-2.51-13.742-4.322-2.63-5.626-4.9-10.696-7.17-15.766 0 0-.017.047-.038-.323-1.325-2.482-2.63-4.594-3.934-6.706 0 0-.006.076-.034-.303-2.338-3.16-4.647-5.942-6.956-8.723 0 0-.069.053-.042-.368-.755-8.757-3.779-16.182-9.032-22.7"/><path fill="#f7e88c" d="M32.972 370.032a20242 20242 0 0 0 16.408 26.862c.51.834 1.031 1.662 1.526 2.847-3.464-3.771-7.393-7.586-10.264-12.076-13.21-20.66-23.693-42.636-30.455-66.267-1.582-5.53-2.494-11.25-3.2-16.898 3.662 10.465 6.142 21.208 10.132 31.359 4.583 11.66 10.504 22.794 15.843 34.157 0 0 .02.003.01.016"/><path fill="#f3cb15" d="M32.983 369.6c-5.36-10.947-11.28-22.081-15.864-33.741-3.99-10.15-6.47-20.894-9.894-31.621-.32-.655-.363-1.064-.47-1.775.052-.789.169-1.276.362-2.133 1.02 1.029 2.32 2.307 2.85 3.849 2.755 8.025 2.748 16.98 8.4 24.072.776.972.107 3.095 1.18 4.48.5 2.081.952 4.177 1.515 6.241.603 2.209 1.044 4.516 2.023 6.556 3.027 6.309 6.37 12.465 9.365 18.788.662 1.397.394 3.235.533 5.285"/><path fill="#5c9d5a" d="M186.242 492.282c-.274-.413-.256-.59.084-1.185 4.022-4.388 4.762-11.887 1.445-16.176-.714-.924-3.029-.61-4.606-.868l-.477 1.602-2.703-3.74c3.782-1.371 4.94-3.716 3.413-7.308-.282-.663.368-1.722.587-2.598 4.633 10.705 9.266 21.409 13.935 32.476-3.77-.414-7.578-1.191-11.678-2.203"/><path fill="#596551" d="M78.906 428.29c1.444-9.446 2.888-18.893 4.734-28.795 1.058-.452 1.713-.449 2.367-.445-1.535 11.346-3.07 22.693-4.763 34.39-.843-.075-1.528-.502-2.298-1.575a54 54 0 0 1-.04-3.575M165.023 472.374c2.285 4.655 4.555 9.725 6.867 15.15-2.136-.373-4.314-1.1-6.72-2.083 1.822-2.969 2.79-5.644.375-8.805-.685-.896-.384-2.544-.522-4.262"/><path fill="#f7e88c" d="M51.213 401.14c2.593 2.528 5.121 5.414 7.618 8.652-2.582-2.53-5.133-5.413-7.618-8.652M78.547 428.22c.344 1.047.329 2.023.27 3.365-2.297-1.708-4.551-3.781-6.833-6.194 2.049.693 4.127 1.725 6.563 2.828M58.85 410.533c2.092 1.947 4.196 4.241 6.333 6.878-2.086-1.948-4.202-4.239-6.333-6.878M65.212 418.164c1.613 1.168 3.172 2.685 4.731 4.545-1.594-1.171-3.19-2.684-4.73-4.545"/><path fill="#fffaca" d="M491.21 179.802c-3.557-8.56-6.83-17.337-10.091-26.486 1.7 2.47 3.877 5.136 4.973 8.19 2.122 5.91 3.636 12.04 5.118 18.296M410.807 57.853c-6.242-4.146-12.426-8.652-18.787-13.445 1.115-.16 2.735-.488 3.647.169 4.797 3.452 9.438 7.125 14.069 10.803.573.456.762 1.396 1.07 2.473M324.963 11.53c-5.763-1.106-11.61-2.562-17.709-4.29 2.202-.044 4.734-.117 7.095.482 3.573.906 7.027 2.28 10.614 3.807M472.938 134.743c-2.02-3.043-4.002-6.486-6.02-10.284 4.392 1.631 5.217 5.762 6.02 10.284M459.951 112.687c-2.338-2.717-4.643-5.822-6.992-9.271a104 104 0 0 1 6.992 9.27M480.195 149.829c-1.865-2.93-3.465-6.05-5.05-9.532 1.783 2.872 3.55 6.107 5.05 9.532M364.932 27.716c-3.166-1.11-6.36-2.573-9.76-4.303 3.106 1.139 6.42 2.545 9.76 4.303M448.076 96.492c-2.025-1.996-4.066-4.35-6.19-7.035a77 77 0 0 1 6.19 7.035M336.958 15.627c-2.468-.441-4.993-1.23-7.75-2.283 3.33-2.846 5.222.59 7.75 2.283M383.973 38.653c-1.88-.729-3.787-1.802-5.858-3.154 1.835.75 3.832 1.78 5.858 3.154M351.98 21.578c-2.146-.457-4.352-1.25-6.772-2.316a35 35 0 0 1 6.771 2.316M497.188 203.818c-.894-1.9-1.5-4.014-2.042-6.509a30.3 30.3 0 0 1 2.042 6.51M495.296 194.778c-.878-1.564-1.494-3.355-2.049-5.512a22.7 22.7 0 0 1 2.049 5.512M493.21 186.811c-.853-1.266-1.431-2.743-1.949-4.57a15.6 15.6 0 0 1 1.95 4.57M418.057 64.452c.023.359-.457.444-.7.426-1.207-1.113-2.171-2.206-3.238-3.597 1.237.738 2.576 1.775 3.938 3.17M388.93 41.716c-1.521-.467-3.06-1.307-4.763-2.433a19 19 0 0 1 4.763 2.433M463.007 117.636c-1.02-1.04-2.024-2.466-3.063-4.224 1.003 1.058 2.041 2.449 3.063 4.224M452.954 102.698c-1.014-.743-1.998-1.859-3.035-3.297.986.76 2.025 1.842 3.035 3.297M301.934 5.693c-1.124.176-2.295.008-3.704-.425 1.06-.149 2.359-.033 3.704.425M373.997 32.633c-.892-.084-1.816-.495-2.893-1.177.852.103 1.856.477 2.893 1.177M342.915 17.787c-.834.127-1.681-.078-2.721-.554.774-.107 1.741.057 2.72.554M439.028 85.6c-.704-.375-1.409-1.112-2.172-2.162.685.392 1.428 1.097 2.172 2.162M466.934 123.726c-.692-.429-1.34-1.225-2.018-2.34.667.445 1.364 1.21 2.018 2.34M412.925 59.769c-.65-.078-1.308-.506-2.048-1.227.625.097 1.333.487 2.048 1.227M433.511 80.85c-.375-.457-.473-.833-.596-1.498.649.17 1.323.63 2.002 1.435-.374.278-.752.212-1.406.063M368.923 29.836c-.553.125-1.097-.061-1.794-.498.5-.105 1.15.041 1.794.498M304.851 6.581c-.153.15-.488.11-1.01-.109.151-.146.49-.114 1.01.109M374.936 33.558c-.235.256-.515.146-.811-.363.225-.188.485-.056.81.363M390.94 43.579c-.241.239-.517.12-.786-.396.235-.174.484-.03.787.396M473.864 136.933c-.211.015-.443-.222-.685-.714.215-.016.44.223.685.714"/><path fill="#fefbd2" d="M112.705 42.047c-7.892 6.607-16.214 13.117-24.41 19.782-3.976 3.234-7.717 6.759-11.89 10.232.183-1.22.32-2.97 1.26-3.75a1940 1940 0 0 1 30.161-24.449c1.22-.97 2.987-1.248 4.879-1.815M70.757 77.041c-5.452 6.933-11.276 13.837-17.408 20.872-.144-1.153-.45-2.855.261-3.657 5.15-5.815 10.502-11.452 15.816-17.12.17-.181.633-.088 1.331-.095M136.692 28.064c-7.363 4.684-15.139 9.32-23.266 13.995 1.49-1.696 3.059-3.965 5.223-5.06 5.882-2.982 10.38-8.725 18.043-8.935"/><path fill="#fcf4af" d="M11.63 178.144c-1.836 9-3.983 18.175-6.414 27.605.092-3.19.096-6.729.927-10.062 1.459-5.856 3.424-11.586 5.487-17.543"/><path fill="#fefbd2" d="M35.676 123.042c-2.734 5.628-5.828 11.274-9.258 17.003a222 222 0 0 1 9.258-17.003M52.698 98.049c-3.09 4.922-6.533 9.856-10.289 14.92.81-6.447 5.303-10.726 10.289-14.92"/><path fill="#fcf4af" d="M17.422 160.96c-1.112 4.456-2.553 9.011-4.276 13.797a143 143 0 0 1 4.276-13.796"/><path fill="#fefbd2" d="M41.751 113.085c-1.46 3.224-3.286 6.439-5.417 9.8a80.4 80.4 0 0 1 5.417-9.8M22.022 149.198c-.847 3.217-2.083 6.396-3.58 9.828.89-3.121 2.04-6.493 3.58-9.828M193.818 6.794c-.363.663-.935 1.045-1.713 1.59-.932.292-1.658.42-3.015.543-.808-.073-.985-.14-1.162-.208 1.893-.736 3.787-1.472 5.89-1.925"/><path fill="#fcf4af" d="M4.46 207.974c.225 1.124.14 2.35-.242 3.8-.222-1.084-.146-2.391.241-3.8M3.44 213.961c.245.815.198 1.729-.136 2.844-.243-.78-.2-1.762.136-2.844"/><path fill="#efd65d" d="M187.616 8.82c.489-.034.666.034 1.114.186-1.228.7-2.729 1.315-4.602 1.873.27-.46.915-.863 1.721-1.499.593-.309 1.024-.384 1.767-.56"/><path fill="#fefbd2" d="M24.613 144.147c.145.178.08.518-.204 1.019q-.22-.268.204-1.019"/><path fill="#fcf4af" d="M12.309 177.027c.34.17.309.453-.15.814-.246-.186-.178-.445.15-.814"/><path fill="#fefefd" d="M250.926 319.212c.03 26.825.06 53.65.122 80.914-15.438 1.26-30.448-1.289-45.2-5.735-.629-.19-1.274-.323-2.466-.83-.874-9.392-1.193-18.438-1.432-27.84-.038-3.251-1.414-3.05-2.79-1.289-3.191 4.089-6.184 8.332-9.516 12.726-2.42 2.904-4.583 5.593-7.068 8.113-10.776-7.18-21.229-14.191-31.572-21.53 2.179-2.464 4.369-4.497 6.294-6.757 8.155-9.572 14.446-20.069 15.964-33.168.137-.45.134-.645.27-1.004-.398-.06-.933.045-1.823.222-11.075 4.515-19.551 11.983-27.803 21.56 2.92-21.082-2.254-39.112-11.723-56.341-.43 1.236-.861 2.473-1.584 3.902-2.405 6.577-4.661 12.918-6.586 19.36-1.52 5.089-2.635 10.3-4.079 15.143-5.425-12.795-10.702-25.275-15.95-38.15-.684-3.776-1.397-7.156-2.11-10.537-.414-13.419-1.418-26.851-1.098-40.252.412-17.19 5.869-33.302 12.781-48.92.738-1.668 1.435-3.354 2.378-5.703 3.757-6.794 7.286-12.916 11.11-19.092 3.362-3.74 6.186-7.667 9.548-11.06 7.32-7.388 14.916-14.504 22.751-21.798 6.215-3.785 12.08-7.502 17.943-11.22 15.194-7.043 30.646-13.481 47.36-15.762 8.466-1.155 17.098-1.105 26.028-1.47.378 58.306.382 116.484.41 175.3.025.64-.139.9-.601.85-4.272-.015-8.085-.045-11.893.068-7.373.217-13.764 5.048-15.996 11.992-2.294 7.14-.596 15.62 5.67 19.064 7.09 3.897 15.163 6.004 22.803 8.991-.006.102-.142.253-.142.253m-130.003-72.905c.709 2.038 1.283 4.135 2.146 6.105 12.783 29.166 55.97 34.878 77.129 10.223 14.945-17.414 12.963-41.104-4.633-55.817-12.116-10.13-26.103-12.81-41.188-9.726-21.418 4.38-38.747 23.392-33.454 49.215"/><path fill="#5c9e59" d="M201.87 366.078c.32 9.045.638 18.09 1.124 27.46-1.63 7.841-3.428 15.361-5.56 24.28 6.166-2.701 10.74-4.934 15.485-6.709 3.54-1.324 7.268-2.225 10.984-2.952 1.191-.233 2.61.69 3.627 1.462a147 147 0 0 1-8.928 6.34c-3.223 1.965-6.159 3.78-8.981 5.757-8.61 6.031-17.176 12.124-26.1 18.238-1.795 1.113-3.262 2.166-4.647 3.317-.045.037.744 1.078 1.145 1.65-.018.181-.036.361-.446.816-1.885.816-3.378 1.359-4.816 1.88l-2.506-5.11c-3.647 3.515-3.804 6.334-.984 9.61l6.075-3.452c.697 2.696.986 4.685 1.788 6.44.277.607 1.83.63 2.799.92.655 1.758 1.31 3.516 2.01 5.629-.173 1.231-.823 2.29-.541 2.953 1.526 3.592.369 5.937-3.413 7.308l2.703 3.74.477-1.602c1.577.257 3.892-.056 4.606.868 3.317 4.289 2.577 11.788-1.425 15.91-1.082-1.084-1.863-2.318-2.963-4.104-5.5-12.387-8.303-25.403-16.119-35.135-2.469-11.585-10.082-20.024-15.218-29.618-.186-.546-.372-1.091-.925-2.13-4.907-7.296-9.445-14.1-14.055-21.246-1.739-2.755-3.406-5.169-5.212-7.892-4.796-6.916-9.192-13.728-14.185-20.069-4.87-6.184-10.35-11.887-15.611-18.145-1.392-2.718-2.734-5.093-4.017-7.816 1.036-.796 2.014-1.243 3.279-1.553 1.404 1.383 2.522 2.63 3.299 3.882-.993.248-1.645.491-3.181 1.063 2.836 1.226 4.753 2.055 7.007 2.924 1.76 1.666 3.182 3.292 4.592 5.304 1.323 1.487 2.659 2.588 4.213 3.788.493.292.677.548.813 1.218.999.8 1.956 1.252 3.138 1.81.506.309.695.576.654 1.23.383 3.63.903 6.939 1.467 10.525 3.219-1.05 5.944-1.94 8.95-2.827.467-.003.654-.01 1.036-.026.195-.008.588-.012.693.173.288.422.528.556.85.906.029.533.034.747-.213 1.207-1.272 2.138-2.42 3.973-3.263 5.94-.545 1.27-.644 2.73-.942 4.105l1.044.71c3.221-2.842 5.489-2.707 6.636 1.49.074.272 1.298.228 2.274.506 1.108 1.739 1.93 3.303 2.423 4.93-.69.51-1.411 1.303-1.362 1.355 2.488 2.586 5.041 5.108 7.573 7.651-.015.014.006-.015-.003.395.271 3.28.551 6.149.935 10.082 1.529-.957 2.826-1.77 4.456-2.502 1.435 2.046 2.538 4.01 3.476 6.335-1.67 6.55-1.473 6.86 5.132 8.696-.013.01 0-.017-.005.37.962 3.308 1.93 6.23 2.946 9.295.931-.209 2.034-.456 3.413-.484 1.567 1.096 2.857 1.973 4.334 3.107.837 1.976 1.487 3.694 2.378 6.05.872-1.61 1.49-2.414 1.773-3.323 5.061-16.227 10.123-32.455 15.092-48.71 2.064-6.752 3.91-13.57 6.033-20.653a146 146 0 0 1 2.89-3.567m-30.073 72.312-.013 1.185c.164.001.47.014.47.003.031-.393.033-.788-.457-1.188"/><path fill="#8fb979" d="M218.942 415.885c2.764-1.962 5.528-3.925 8.652-5.884-.833 2.461-1.575 5.313-3.306 7.303-4.655 5.351-9.733 10.334-14.976 15.57-.333.106-.38.058-.353-.304 2.758-3.323 5.487-6.285 8.219-9.245 1.984-2.15 3.77-4.345 1.764-7.44M180.425 444.906c-.807-.557-1.596-1.598-1.55-1.635 1.384-1.151 2.851-2.204 4.972-3.152 3.986 2.628 7.028.913 10.109-.479 4.985-2.251 9.983-4.474 14.976-6.708l.07.073c-8.089 7.036-17.747 10.371-28.577 11.9"/><path fill="#5c9d5a" d="M181.906 455.64c-.947.095-2.499.072-2.776-.534-.802-1.756-1.091-3.745-1.788-6.441l-6.075 3.452c-2.82-3.276-2.663-6.095.984-9.61l2.506 5.11c1.438-.521 2.93-1.064 4.782-1.61 1.02 3.08 1.683 6.165 2.367 9.634"/><path fill="#62a04b" d="M86.993 338.866c-8.957 2.255-17.798 5.084-27.277 4.131-11.428-1.148-21.828-5.08-31.527-11.065-.29-.179-.38-.78-.42-1.199-.01-.106.53-.265 1.406-.168 17.966 1.712 35.343 3.193 52.72 4.673l.073-.72-21.63-11.66c-5.435-5.934-10.87-11.868-16.693-18.246a998 998 0 0 0-2.464-2.785s-.103.028-.054-.264c-.3-.79-.649-1.29-.997-1.789 0 0-.048-.42-.14-.935-1.015-1.714-1.938-2.911-2.861-4.109 0 0-.017-.362-.13-.796-.363-.686-.612-.937-.868-1.387-.007-.198-.159-.563-.208-.814-.31-.45-.573-.648-.85-.799-.014.048.069-.006.068-.31-.334-.78-.667-1.256-1.001-1.75-.001-.018.027-.042.013-.35-.33-.828-.646-1.347-.948-2.044.016-.178-.127-.505-.194-.787-.323-.567-.579-.852-.78-1.293.056-.155-.053-.466-.064-.802-.393-1.095-.774-1.854-1.156-2.613 0 0-.011.015.025-.355.383-1.227.73-2.085 1.076-2.942 18.759 18.735 37.51 37.477 56.315 56.165.5.498 1.58.414 2.509.33.527-.29.936-.31 1.888-.205.767.409.99.692.946 1.191-.77 1.428-1.272 2.638-2.064 3.716-1.8-1.53-3.303-2.595-4.713-.02"/><path fill="#fecc02" d="M34.01 294.996c-.592 1.781-1.163 3.57-1.783 5.341-.408 1.167-.887 2.309-1.335 3.461-.637-1.1-1.331-2.17-1.888-3.31-.274-.56-.294-1.244-.3-1.274l-6.595-3.034c1.786-1.717 3.503-3.517 5.39-5.116.849-.718 2.039-1.033 3.615-1.797.979-.255 1.415-.244 1.861.15.351 2.116.693 3.848 1.034 5.58M19.898 301.36c-.036 1.602-.133 2.827-.23 4.052l-1.392.44-2.311-6.11c1.29.414 2.58.828 3.933 1.618M23.312 266.492c-1.274-.256-3.056-.703-3.094-1.27-.112-1.628.482-3.304.8-4.961l1.665.114c.305 1.957.611 3.914.629 6.117"/><path fill="#e8c837" d="M32.324 277.467a17.2 17.2 0 0 0-1.279 3.16c-.626-.113-1.224-.593-1.932-1.717a31 31 0 0 1-.094-2.894c.107-.319.295-.579.782-.89 1.828.27 3.439.65 5.13 1.383-.746.482-1.571.61-2.607.958"/><path fill="#f3cb15" d="M32.965 289.034c-.436-.011-.872-.022-1.636-.037-.515-1.52-.703-3.036-.328-4.782.768-.247.973-.264 1.177-.281 0 0 .11.31.078.773.254.73.538 1 .822 1.268 0 0 .143.327.064.892-.095 1.083-.111 1.601-.14 2.13z"/><path fill="#f3cb15" d="M34.297 294.983c-.63-1.718-.97-3.45-1.322-5.565-.01-.384.015-.409.318-.44.493-.069.683-.108.874-.146 0 0-.028.024-.057.36.325.802.679 1.269 1.032 1.736 0 0-.083.054-.01.252.328.4.584.602.84.804 0 0 .152.365.109.913-.048.783-.053 1.017-.058 1.252-.479.273-.958.546-1.726.834M28.677 276.045c.337.72.332 1.47.312 2.596-.881-.035-1.748-.445-2.614-.856.653-.57 1.307-1.14 2.302-1.74"/><path fill="#e8c837" d="M37.068 295.104c.984.824 1.907 2.021 2.828 3.545-.809-.226-1.616-.78-2.693-1.497-.245-.668-.22-1.17-.135-2.048M32.167 283.598c-.193.353-.398.37-.91.393-.31-.749-.31-1.502-.278-2.63.414.383.795 1.142 1.188 2.237M36.259 294.119c-.23-.205-.226-.44-.172-1.024.3-.098.55.153.84.673.04.267-.432.32-.668.35"/><path fill="#efd65d" d="M207.75 5.04c-.01.147-.278.27-.652.254.06-.187.227-.233.652-.255M220.754 3.08c-.01.146-.278.263-.656.247.059-.182.227-.23.656-.248M216.761 3.491c.028.245-.181.375-.618.456-.073-.26.13-.435.618-.456"/><path fill="#5a5a5e" d="M177.19 119.592c-5.767 4.052-11.63 7.77-17.973 11.227-12.179-10.412-26.155-9.506-35.63 2.017-7.563 9.198-5.992 24.703 3.162 31.223a23408 23408 0 0 0-10.761 18.683c-26.53-18.25-24.671-59.321 5.1-75.3 19.072-10.237 43.396-5.038 56.103 12.15"/><path fill="#706539" d="M94.035 334.953c-.222-.283-.444-.566-.904-.988a2253 2253 0 0 1 8.483-55.707c.973 3.094 1.686 6.474 1.992 10.355-1.142 3.611-2.046 6.694-2.585 9.839-2.085 12.161-4.054 24.342-6.295 36.516-.23 0-.69-.015-.69-.015"/><path fill="#e8c837" d="M37.847 277.476c.61.048 1.329.392 2.099 1.06-.63-.04-1.31-.402-2.1-1.06M61.988 291.373q.934.11 1.997 1.162-.934-.11-1.997-1.162"/><path fill="#717686" d="M375.844 215.25c11.772 18.983 7.342 41.376-10.479 54.214-19.136 13.786-46.752 11.464-62.597-5.265-18.24-19.256-13.16-49.91 10.336-62.367 22.358-11.855 46.666-6.764 62.74 13.417m-32.37 20.61c.538-.841 1.14-1.648 1.605-2.528 3.387-6.409 1.654-13.508-4.393-18.12-4.731-3.609-13.033-3.11-17.533 1.054-6.238 5.772-6.797 14.06-1.35 19.991 5.88 6.402 14.165 6.472 21.67-.398"/><path fill="#9194a7" d="M341.138 133.38c9.26-11.349 23.047-12.99 33.839-4.346 9.661 7.74 11.022 22.932 2.849 33.1-1.21 1.504-2.978 2.561-4.86 3.84-5.13-5.466-9.655-11.168-14.704-16.362-5.404-5.56-11.301-10.642-17.124-16.232"/><path fill="#353841" d="M250.946 278.894s.164-.26.185-.412c3.992-.047 7.966.01 11.935.174 8.481.352 15.027 5.512 17.082 13.394 2.05 7.864-.974 16.253-8.424 19.91-6.307 3.097-13.285 4.825-20.382 7.205-.416.047-.28-.104-.294-.665-.043-13.576-.073-26.59-.102-39.606"/><path fill="#609f52" d="M86.342 399.04c-.99.006-1.644.003-2.62.022-9.453-3.334-18.677-6.466-27.673-10.154-3.57-1.464-6.636-4.16-9.486-6.62 2.914-.097 5.387.1 7.853.366 10.195 1.104 20.388 2.23 30.901 3.486 1.44.332 2.56.527 4.077.76 1.464.057 2.53.075 3.972.261 4.794.688 9.211 1.207 14.051 1.758 2.11.102 3.797.172 5.794.492 3.393 1.59 7.928-1.206 9.462 3.724-11.31 4.855-22.773 6.645-34.657 5.952-.447-.02-.893-.039-1.674-.048"/><path fill="#596551" d="M88.109 399.474c11.79.306 23.254-1.484 34.755-6.3.53-.106.92-.092 1.008.25 3.479 6.386 6.87 12.429 10.223 18.503-.038.03-.114.095-.114.095-3.242-4.235-7.072-8.158-9.536-12.806-1.897-3.58-3.561-3.495-6.581-2.196-8.834 3.8-18.17 4.407-27.628 3.912-.695-.036-1.357-.7-2.127-1.458M145.002 433.25c5.253 6.104 8.277 13.529 9.075 22.285-.982-1.343-2.117-3.045-2.95-4.884-1.621-3.58-3.172-7.2-4.556-10.878-.735-1.956-1.06-4.068-1.569-6.524M137.966 417.028c2.065 4.4 4.13 8.8 6.229 13.576-2.048-2.305-4.48-4.791-6.111-7.723-1.752-3.15-2.753-6.718-4.092-10.481-.01-.378.065-.442.372-.293 1.409 1.739 2.51 3.328 3.619 4.911.008-.006-.017.01-.017.01M154.053 456.28c2.332 2.405 4.64 5.186 6.993 8.31-4.356-.67-5.763-4.236-6.993-8.31M161.043 465.321c1.327 1.721 2.632 3.833 3.973 6.293-1.307-1.735-2.651-3.819-3.973-6.293"/><path fill="#93c45f" d="M59.92 323.009c7.628 3.736 14.838 7.622 22.048 11.509l-.073.72c-17.377-1.48-34.754-2.96-52.428-4.651 5.077-1.997 10.368-4.125 15.85-5.467 4.612-1.128 9.447-1.342 14.602-2.111"/><path fill="#92c463" d="M84.997 386.002c-10.193-1.118-20.386-2.244-30.581-3.348-2.466-.267-4.939-.463-7.843-.712-.436-.02-.532-.02-.553-.16s.026-.33.026-.33c7.079-2.134 14.048-4.833 21.27-6.23 6.138-1.186 12.566-.87 19.377-1.042.51.177.518.503.428.889-2.316 3.603-3.637 6.995-2.124 10.933"/><path fill="#8ebf6f" d="M87.12 339.196c1.283-2.906 2.786-1.84 4.74-.023l6.122 5.852c1.342 2.374 2.684 4.75 3.917 7.81-.4 1.871-.69 3.055-1.239 4.098-1.021-.755-1.784-1.37-2.6-2.27-.358-.758-.663-1.228-1.118-2-1.939-2.393-3.728-4.483-5.517-6.572-1.393-2.188-2.786-4.376-4.305-6.895"/><path fill="#5d6647" d="M91.314 346.51c1.9 1.67 3.69 3.76 5.215 6.165-1.374 1.16-3.19 1.82-3.466 2.881-.975 3.757-1.284 7.68-2.115 11.482-.667 3.05-.716 5.761 1.61 7.868a252 252 0 0 1-5.347-.223s-.008-.326-.055-.482a2232 2232 0 0 1 4.158-27.69"/><path fill="#e8c837" d="M41.143 302.185c.73.423 1.423 1.203 2.198 2.315-.69-.431-1.464-1.194-2.198-2.315M40.1 300.107c.378.166.727.665 1.076 1.478-.368-.173-.736-.66-1.075-1.478"/><path fill="#609f52" d="M45.905 381.41c.14.043.093.231.099.326.005.096-.371-.06-.371-.06s.13-.307.272-.265"/><path fill="#8ec36e" d="M151.764 422.209c5.418 9.359 13.031 17.798 15.5 29.383 7.816 9.732 10.62 22.748 15.843 34.96-1.942.366-4.01.673-5.879.2-.888-.225-1.38-1.952-2.086-2.975-1.048-1.52-2.464-2.882-3.126-4.55-1.843-4.64-3.317-9.425-5.075-14.102-.492-1.307-1.177-2.894-2.261-3.567-6.023-3.741-6.085-3.713-1.343-9.223-1.651-.488-3.168-.827-4.594-1.394-1.032-.41-2.425-.894-2.829-1.74-2.662-5.583-5.206-11.23-7.507-16.968-.392-.979.506-2.522.919-3.767a64 64 0 0 1 2.438-6.257M137.137 398.939c4.539 6.804 9.077 13.609 13.745 20.734-4.147 4.916-7.668 5.167-10.19-1.356-.227-.585-1.323-.834-2.37-1.264-.356-.025-.331-.04-.33-.436.449-2.544.898-4.693 1.418-7.188-5 1.253-4.696-2.91-5.31-5.835-.455-2.17-.64-4.86 3.037-4.655"/><path fill="#818494" d="M120.83 245.895c-5.2-25.411 12.13-44.423 33.547-48.803 15.085-3.084 29.072-.405 41.188 9.726 17.596 14.713 19.578 38.403 4.633 55.817-21.16 24.655-64.346 18.943-77.129-10.223-.863-1.97-1.437-4.067-2.24-6.517m53.59-32.236c-10.988-2.577-21.002 5.151-19.124 14.757 1.505 7.698 6.54 12.279 13.83 12.58 5.997.247 12.23-3.987 13.793-9.37 2.257-7.772-.295-13.623-8.5-17.967"/><path fill="#575c62" d="M143.138 391.918c-.821-1.564-1.643-3.128-2.776-5.228-2.031-4.569-3.751-8.603-5.471-12.636-.006-.214-.011-.428.215-1.195 5.417-3.3 10.603-6.045 15.788-8.79 10.453 7.01 20.906 14.021 31.689 21.549a26 26 0 0 1-2.078 6.43c-6.57 13.99-8.715 28.672-6.987 43.975-1.29-.876-2.58-1.753-4.175-3.209-2.312-3.332-4.319-6.085-6.325-8.838 0 0-.014.027-.01-.35-1.652-3.148-3.305-5.918-4.96-8.69-1.101-1.964-2.204-3.928-3.691-6.314-2.034-2.831-3.682-5.24-5.33-7.65 0 0-.02.03-.044-.34-1.963-3.152-3.904-5.933-5.845-8.714"/><path fill="#585d63" d="M94.956 334.968c2.011-12.174 3.98-24.355 6.065-36.516.539-3.145 1.443-6.228 2.557-9.444 5.654 12.375 10.93 24.855 16.479 38.046.49 1.493.946 2.293.89 3.056-.876 11.815 2.885 22.759 6.155 34.113-1.776.157-3.443-.023-5.11-.203-.096-.332-.285-.6-.924-1.198-1.255-.888-2.151-1.378-3.048-1.869-.093-.32-.277-.577-.916-1.165-1.595-1.557-2.824-2.717-4.054-3.878a306 306 0 0 0-4.666-5.243c-1.406-1.466-2.415-2.567-3.424-3.667-1.118-1.247-2.236-2.494-3.684-4.218-2.327-2.923-4.323-5.368-6.32-7.814"/><path fill="#595b66" d="M250.484 278.844c.491 13.065.52 26.08.57 39.555-7.626-2.427-15.699-4.534-22.788-8.431-6.267-3.445-7.965-11.924-5.67-19.064 2.23-6.944 8.622-11.775 15.995-11.992 3.808-.113 7.62-.083 11.893-.068"/><path fill="#b1b4c6" d="M127.044 164.004c-9.45-6.465-11.02-21.97-3.457-31.168 9.475-11.523 23.451-12.429 35.279-1.95-7.357 7.554-14.952 14.67-22.273 22.058-3.362 3.393-6.186 7.32-9.549 11.06"/><path fill="#8fc270" d="M127.212 363.886c-3.38-11.017-7.141-21.96-6.265-33.776.056-.763-.4-1.563-.741-2.742 1.172-5.553 2.286-10.764 3.807-15.854a199 199 0 0 1 6.851-19.23c1.053.533 1.547 1.13 2.06 2.194.095 25.818.17 51.168.217 76.774-.028.427-.028.599-.028.77-.187.008-.374.015-.874-.343-1.885-2.841-3.456-5.317-5.027-7.793"/><path fill="#8fc36f" d="M173.705 436.281c-1.915-15.56.23-30.243 6.8-44.233.903-1.924 1.61-3.94 2.4-6.26 2.156-3.037 4.318-5.726 7.099-8.643 3.345-2.553 6.073-4.879 8.8-7.204-1.946 6.787-3.792 13.605-5.856 20.356-4.969 16.256-10.03 32.484-15.092 48.711-.283.909-.9 1.713-1.773 3.324-.891-2.357-1.541-4.075-2.378-6.05"/><path fill="#90c273" d="M151.004 363.741c-5.295 3.073-10.481 5.819-15.922 8.798-.553.204-.793.07-1.05-.603-.07-.604-.066-.773.249-1.08 11.475-14.044 22.64-27.948 34.093-42.004 1.775-1.695 3.262-3.237 4.75-4.78-1.38 12.843-7.671 23.34-15.826 32.912-1.925 2.26-4.115 4.293-6.294 6.757"/><path fill="#6d9d6c" d="M173.262 323.816c-1.626 1.799-3.113 3.34-5.301 5.03-2.529.938-4.715 1.332-6.117 2.595-4.967 4.473-9.582 9.337-14.539 13.823-.961.87-3.697 1.428-4.16.886-1.251-1.464-1.95-3.544-2.402-5.488-.225-.97.634-2.164.889-3.283.338-1.486.98-3.058.77-4.488-1.365-9.331-2.62-18.698-4.569-27.914-.81-3.831-3.236-7.321-4.928-10.966-.494-.597-.988-1.194-1.748-1.92.165-1.365.595-2.602 1.026-3.838 9.469 17.23 14.644 35.26 11.723 56.341 8.252-9.577 16.728-17.045 28.135-21.527.909-.056 1.13-.074 1.353-.09.002.194.005.388-.132.839"/><path fill="#9db88d" d="M198.98 369.645c-2.903 2.621-5.63 4.947-8.718 7.286a180 180 0 0 1 8.899-12.499c1.375-1.761 2.751-1.962 2.79 1.289-.985 1.448-1.889 2.538-2.97 3.924"/><path fill="#90c273" d="M173.532 322.812c-.36.181-.582.199-1.136.183.203-.138.738-.243 1.136-.183"/><path fill="#8ec36e" d="M100.92 357.074c.29-1.184.58-2.368 1.029-3.895 5.37 5.57 10.85 11.274 15.72 17.458 4.993 6.341 9.39 13.153 14.053 20.372-1.73 6.066-4.987 3.233-7.938 2.073 0 0-.39-.014-.58-.052-2.065-4.825-6.6-2.03-9.935-3.981.076-1.758.402-2.903 1.032-4.072.772-.359 1.24-.694 2.048-1.008.79.045 1.242.068 1.896.318.614.115 1.388-.087 1.387-.094-1.489-5.905-3.737-11.308-9.689-14.17.018-.028.023.04-.072-.195-.363-.429-.632-.623-1.14-.98-.485-.677-.733-1.192-.732-1.898-1.801-3.717-1.466-9.04-7.06-9.902.001-.007-.02.026-.02.026"/><path fill="#8dc56c" d="M208.96 432.57c-5.02 2.596-10.02 4.819-15.004 7.07-3.08 1.392-6.123 3.107-9.768.434 8.257-6.234 16.823-12.327 25.433-18.358 2.822-1.977 5.758-3.792 8.981-5.756 2.346 3.02.56 5.215-1.424 7.365-2.732 2.96-5.461 5.922-8.219 9.245"/><path fill="#90c36f" d="M123.872 393.425c2.863.817 6.12 3.65 7.988-2.105 1.8 2.11 3.467 4.523 5.206 7.278-3.606.137-3.42 2.826-2.966 4.996.614 2.925.31 7.088 5.31 5.835-.52 2.495-.97 4.644-1.427 7.195-1.11-1.189-2.21-2.778-3.58-4.548-3.661-6.223-7.052-12.266-10.53-18.651"/><path fill="#5c9d5a" d="M127.102 364.223c1.68 2.139 3.252 4.615 4.856 7.452-2.692 1.251-5.417 2.141-8.636 3.192-.564-3.586-1.084-6.895-1.467-10.525 1.804-.142 3.47.038 5.247-.119M134.638 374.3c1.973 3.787 3.693 7.821 5.438 12.215-.665.258-1.89.302-1.963.03-1.147-4.197-3.415-4.332-6.636-1.49l-1.044-.71c.298-1.375.397-2.836.942-4.105.843-1.967 1.991-3.802 3.263-5.94"/><path fill="#659d60" d="M94.726 334.968a91 91 0 0 1 6.264 7.678c-.935.787-1.913 1.234-2.95 2.03-1.952-1.461-3.845-3.272-5.892-5.37.35-1.499.853-2.71 1.622-4.137.265-.216.725-.201.956-.201"/><path fill="#5c9d5a" d="M157.885 415.297c1.818 2.41 3.471 5.181 5.135 8.32-6.608-1.46-6.806-1.77-5.135-8.32M149.018 401.382c1.657 2 3.305 4.409 5.006 7.16-1.245 1.152-2.542 1.965-4.071 2.922-.384-3.933-.664-6.803-.935-10.082M142.81 391.981c2.269 2.718 4.21 5.5 6.188 8.636-2.509-2.173-5.062-4.695-7.55-7.281-.05-.052.672-.845 1.362-1.355M163.012 424.363c2.012 2.366 4.019 5.12 6.054 8.232-1.074.607-2.177.854-3.108 1.063-1.016-3.065-1.984-5.987-2.946-9.295M104.619 347.005c1.35 1.095 2.36 2.196 3.43 3.622-1.858-.504-3.775-1.333-6.611-2.56 1.536-.57 2.188-.814 3.18-1.062M113.037 356.296c1.243.775 2.472 1.935 3.848 3.392a20.6 20.6 0 0 1-3.848-3.392M118.063 361.302c.854.142 1.75.632 2.78 1.413-.824-.161-1.781-.613-2.78-1.413M172.046 438.393c.242.397.24.792.21 1.185-.001.01-.307-.002-.471-.003.004-.395.008-.79.26-1.182M133.97 370.995a11 11 0 0 1-.044.756c-.03.251-.423.255-.618.263-.195-.163-.195-.335.032-.762.228-.255.63-.257.63-.257"/><path fill="#e8c837" d="M35.141 290.623c-.352-.162-.706-.629-1.03-1.413.363.158.696.633 1.03 1.413M34.153 288.523c-.177.347-.367.386-.848.444-.274-.499-.258-1.017-.178-1.922.38.132.696.65 1.026 1.478M33.01 285.693c-.216.013-.5-.255-.809-.83.231-.022.487.263.81.83M35.924 291.733c-.208.049-.464-.153-.778-.6.204-.048.466.15.777.6"/><path fill="#353942" d="M343.235 236.146c-7.267 6.582-15.553 6.512-21.432.11-5.447-5.931-4.888-14.22 1.35-19.991 4.5-4.164 12.802-4.663 17.533-1.055 6.047 4.613 7.78 11.712 4.393 18.121-.464.88-1.067 1.687-1.844 2.815"/><path fill="#92c463" d="M113.997 385.001c-.326 1.145-.652 2.29-1.037 3.797-1.746.293-3.432.223-5.597-.206-6.63-6.235-9.848-6.522-14.373-1.599-1.066-.018-2.132-.036-3.643-.453-2.228-4.209-.889-7.02 3.016-9.81z"/><path fill="#8ebf6f" d="M114.3 384.977c-7.63-2.777-14.955-5.578-21.937-8.248-3.905 2.791-5.244 5.602-3.414 9.772-1.073.166-2.192-.029-3.632-.361-1.833-4.076-.512-7.468 1.804-11.071 1.734-.305 3.378-.223 5.766-.095 1.19.08 1.635.114 2.268.357.73.306 1.272.402 2.145.57.78.112 1.231.15 1.933.438 5.76 2.702 11.27 5.155 16.778 7.608-.47.336-.938.671-1.71 1.03"/><path fill="#8ec36e" d="M93.366 387.161c4.149-5.091 7.367-4.804 13.574 1.399-4.363-.192-8.78-.711-13.574-1.399"/><path fill="#575a63" d="M98.981 376.09c-.45-.039-.9-.077-1.712-.47-1.008-.402-1.655-.45-2.302-.498-.445-.034-.89-.068-1.664-.169-3.071-2.154-3.022-4.864-2.355-7.915.83-3.802 1.14-7.725 2.115-11.482.275-1.06 2.092-1.722 3.616-2.578.718.457 1.023.927 1.159 1.875 1.935 3.031 4.04 5.584 6.405 8.3.77 1.052 1.278 1.941 1.785 3.212 1.263 3.96 2.529 7.54 3.759 11.019z"/><path fill="#5d6647" d="M103.982 362.99c-2.104-2.553-4.209-5.106-6.09-7.85.984.424 1.747 1.038 2.768 1.793.26.14.28.108.397.43 1.053 2.09 1.99 3.859 2.925 5.628"/><path fill="#575a67" d="M174.8 213.776c7.823 4.227 10.375 10.078 8.118 17.85-1.564 5.383-7.796 9.617-13.792 9.37-7.29-.301-12.326-4.882-13.831-12.58-1.878-9.606 8.136-17.334 19.506-14.64"/><path fill="#5b9f56" d="M134.28 370.855c-.31.14-.712.142-.911.142-.274-25.35-.35-50.701-.444-76.519 1.672 3.178 4.098 6.668 4.908 10.5 1.95 9.215 3.204 18.582 4.57 27.913.209 1.43-.433 3.002-.771 4.488-.255 1.12-1.114 2.312-.889 3.283.452 1.944 1.151 4.024 2.403 5.488.462.542 3.198-.016 4.16-.886 4.956-4.486 9.57-9.35 14.538-13.823 1.402-1.263 3.588-1.657 5.828-2.443-10.751 13.91-21.916 27.814-33.391 41.857"/><path fill="#5d6647" d="M99.233 376.339c3.118.154 6.488.558 10.554 1.045-1.23-3.48-2.496-7.059-3.523-10.909.654.042 1.07.354 1.487.666.247.515.495 1.03 1.07 1.947.6.592.873.783 1.145.975 0 0-.005-.068.018.313 2.701 4.815 5.38 9.25 8.058 13.684-.451-.023-.903-.046-1.693-.091a482 482 0 0 1-17.116-7.63"/><path fill="#8ebf6f" d="M118.245 384.287c-2.881-4.661-5.56-9.096-8.279-13.883 5.93 2.48 8.177 7.884 9.666 13.789.001.007-.773.209-1.387.094M108 366.95c-.665-.121-1.082-.433-1.734-.856-.745-1-1.254-1.889-2.023-2.94-1.197-1.932-2.133-3.701-3.188-5.785 5.478.54 5.143 5.864 6.944 9.581M109.871 369.828c-.177.043-.45-.148-.811-.578q.268-.066.811.578"/><path fill="#5d6647" d="M95.155 375.331c.459-.16 1.106-.113 1.783.217-.511.185-1.053.089-1.783-.217"/></svg>