<svg version="1.1" id="Layer_1" xmlns="http://www.w3.org/2000/svg" xmlns:xlink="http://www.w3.org/1999/xlink" x="0px" y="0px"
	 width="100%" viewBox="0 0 500 500" enable-background="new 0 0 500 500" xml:space="preserve">
<path fill="#FEF8F0" opacity="1.000000" stroke="none" 
	d="
M277.000000,501.000000 
	C260.979095,501.000000 244.958206,501.000000 228.394928,500.629395 
	C226.267303,499.519470 224.747955,498.388367 223.085373,498.108826 
	C216.001251,496.917450 208.822861,496.245544 201.776810,494.879059 
	C192.879654,493.153595 183.800079,491.729218 175.298676,488.749756 
	C161.948486,484.071014 148.943161,478.368225 135.953354,472.727051 
	C132.342728,471.159027 129.302124,468.278412 125.999596,465.576782 
	C127.983192,451.459473 130.058685,437.777893 131.929794,424.068390 
	C134.737396,403.497131 137.339417,382.897705 140.182648,362.331512 
	C140.711380,358.507141 141.965057,354.783020 143.079208,351.312317 
	C147.894943,360.224579 152.515625,368.837158 156.938904,377.081818 
	C150.627075,389.259308 144.137375,401.779999 137.647675,414.300659 
	C138.162750,414.725250 138.677826,415.149841 139.192902,415.574432 
	C156.949921,411.133392 171.887802,401.930359 184.439713,388.046021 
	C190.164215,390.647278 195.516464,393.270721 200.536377,395.976074 
	C198.856628,396.806702 197.509216,397.555359 196.086761,398.345703 
	C200.153656,401.614105 204.403809,403.925964 207.087509,407.435608 
	C211.527771,413.242462 211.158768,413.683197 217.882843,410.397766 
	C220.824020,408.960693 223.481308,406.942566 226.640106,405.159485 
	C236.324387,407.480682 245.644363,409.798950 254.933441,412.235107 
	C255.766342,412.453522 256.399017,413.435394 256.873169,414.302368 
	C255.117752,417.892700 253.239349,421.137054 252.246780,424.632904 
	C251.625397,426.821472 252.962372,428.353790 255.833099,427.588654 
	C263.913727,425.434967 270.844482,421.491364 276.737732,415.066742 
	C278.184662,415.047546 279.182556,414.987244 280.176971,415.023102 
	C308.692627,416.051636 334.117462,407.728638 356.291595,389.733429 
	C359.106750,387.448792 361.531769,384.683411 364.137543,382.140778 
	C363.889832,381.780273 363.642090,381.419769 363.394379,381.059265 
	C360.929688,381.059265 358.464966,381.059265 356.049866,380.712708 
	C357.367218,379.388763 358.573730,378.316589 359.913635,377.450714 
	C365.027618,374.145782 365.265289,373.516052 360.907745,369.507019 
	C351.257507,360.628601 340.647034,353.200806 327.780487,348.765869 
	C314.107300,342.696320 299.944397,340.486237 285.325989,339.391235 
	C279.106720,331.121155 271.297607,325.436493 262.142639,321.542206 
	C260.077362,320.663666 258.190491,320.104401 256.827667,322.985748 
	C252.972061,331.137421 245.810410,335.495728 237.874908,338.871643 
	C235.239380,339.992828 232.636063,341.189789 229.847031,342.428009 
	C231.544861,344.687958 232.766647,346.314270 233.973099,347.962219 
	C233.957764,347.983826 233.993195,348.023254 233.607513,348.019165 
	C230.621521,348.956909 228.021240,349.898773 225.180817,350.765076 
	C224.624680,350.792633 224.308670,350.895721 223.632294,350.987396 
	C221.979904,351.589417 220.687866,352.202850 219.086304,352.763000 
	C218.185089,352.899628 217.593384,353.089478 216.641830,353.300201 
	C206.969925,357.137451 197.674255,360.994843 188.329987,364.730652 
	C186.727844,365.371185 184.918503,365.493408 183.102112,365.532593 
	C171.379364,352.018097 156.628098,343.932678 140.107391,338.512634 
	C143.156738,336.750336 144.677887,334.648865 145.084000,331.131531 
	C146.938980,315.066010 148.966721,299.016632 151.219162,283.001770 
	C154.000137,263.229095 157.157120,243.509445 159.966324,223.740524 
	C161.289886,214.426483 161.866821,205.001160 163.340195,195.714813 
	C165.656403,181.116333 168.117615,166.523804 171.166687,152.065689 
	C172.760132,144.509979 175.236649,137.035599 178.229492,129.908813 
	C181.353409,122.469940 185.594879,115.502121 189.312515,108.310127 
	C191.242371,104.576691 193.096024,100.803871 195.358582,97.014084 
	C196.484177,97.003250 197.235321,97.027184 198.231750,97.306374 
	C218.446625,104.231575 229.645447,119.543930 231.034454,141.291183 
	C232.007858,156.531479 233.530304,171.736740 234.573151,187.186646 
	C232.245331,190.954880 229.767670,194.328201 228.150589,198.073135 
	C225.851379,203.397797 224.425583,209.099792 222.122452,214.422424 
	C221.270554,216.391266 219.275696,218.466171 217.309326,219.239197 
	C211.489792,221.526993 205.240570,222.771881 199.537277,225.282928 
	C196.910461,226.439453 194.223068,229.240921 193.212875,231.918869 
	C191.050690,237.650528 195.555435,245.938034 202.165680,250.162384 
	C202.664627,250.919968 203.044067,251.397095 203.362579,252.181381 
	C203.872055,252.978622 204.442429,253.468689 205.133041,254.220215 
	C205.785583,255.025696 206.317871,255.569702 206.882462,256.447632 
	C207.612335,257.509766 208.309906,258.237915 209.155167,259.254883 
	C210.355545,260.644440 211.408249,261.745239 212.394852,263.181671 
	C214.271332,265.176453 216.213913,266.835541 218.348831,268.652679 
	C218.541168,268.810730 218.987244,269.031860 219.021881,269.370422 
	C220.761276,270.931763 222.466034,272.154602 224.380417,273.547974 
	C224.746246,273.808380 224.902435,273.898193 225.091522,274.301422 
	C225.789719,274.960175 226.455002,275.305481 227.320236,275.771545 
	C227.520187,275.892334 227.963715,276.039124 228.025970,276.346924 
	C228.769333,276.938568 229.450455,277.222443 230.362854,277.646759 
	C230.764954,277.845123 230.935806,277.903046 231.157303,278.298889 
	C235.797928,280.090363 240.387924,281.543884 245.279968,283.059235 
	C245.992004,283.141754 246.402023,283.162384 246.968979,283.496613 
	C249.038086,283.728333 250.950241,283.646454 253.231812,283.607086 
	C255.078506,283.398529 256.555817,283.147400 258.246613,283.126709 
	C260.041351,282.639496 261.622559,281.921875 263.416687,281.172119 
	C263.629547,281.140015 264.034546,280.993896 264.290039,280.987183 
	C264.805939,280.771820 265.066376,280.563171 265.674866,280.297180 
	C267.302704,279.659210 268.582428,279.078552 270.161194,278.584534 
	C271.003540,278.151947 271.546906,277.632721 272.384277,276.989319 
	C273.407349,276.427673 274.136505,275.990204 275.189819,275.635925 
	C276.368195,274.840057 277.222412,273.960938 278.290161,272.991333 
	C278.503693,272.900848 278.881836,272.632324 279.215027,272.679718 
	C280.703033,271.492218 281.857849,270.257324 283.303894,268.862793 
	C286.396729,265.795044 289.198334,262.886993 292.331299,259.940735 
	C293.323334,258.884888 293.984009,257.867188 294.917725,256.687195 
	C295.774323,255.640015 296.357849,254.755112 297.254700,253.839294 
	C297.887085,253.156021 298.206177,252.503647 298.669800,251.655960 
	C298.814362,251.460648 299.022400,251.021393 299.351776,250.965424 
	C301.698334,248.734802 303.671570,246.517273 305.740814,244.393372 
	C312.501923,237.453720 310.487885,227.883209 301.401276,224.575378 
	C298.320251,223.453781 295.043579,222.827515 291.819336,222.151230 
	C287.013214,221.143112 282.006561,219.939423 280.026276,215.010040 
	C276.894562,207.214371 274.501953,199.121765 271.834106,190.690186 
	C273.251953,173.321396 274.939209,156.435379 275.937775,139.508713 
	C277.297913,116.453056 293.542999,98.555527 315.939728,96.158638 
	C337.977295,93.800186 357.823029,107.902184 363.910339,129.860565 
	C378.119232,181.115585 391.817261,232.526260 407.014099,283.488647 
	C418.038452,320.458618 416.251129,355.065918 396.025085,388.597839 
	C388.000946,401.900787 389.324738,416.056244 398.300385,429.088287 
	C401.507690,433.745117 404.780579,438.356812 407.749725,443.192017 
	C403.484009,450.490143 396.332764,454.286835 389.912994,458.094482 
	C375.050232,466.909760 359.692932,475.027679 344.006592,482.283447 
	C324.274078,491.410797 303.094696,495.677185 281.537445,498.118286 
	C279.936707,498.299530 278.508423,500.003754 277.000000,501.000000 
M317.704193,207.941742 
	C318.860565,207.000259 320.080109,206.125946 321.163727,205.107056 
	C334.633514,192.441849 333.165222,166.636261 318.041412,156.225906 
	C308.358521,150.185333 297.694794,151.467606 290.035187,159.593582 
	C278.901825,171.404831 278.875763,192.359314 289.979706,204.210175 
	C297.444855,212.177460 308.107208,213.693314 317.704193,207.941742 
M206.567764,155.394714 
	C197.043777,150.376938 187.551620,151.781769 180.114883,159.309692 
	C168.474655,171.092651 168.531677,192.987305 180.233047,204.678452 
	C187.974350,212.412994 198.399292,213.702179 207.668304,207.892258 
	C224.682419,194.332855 224.363876,166.968536 206.567764,155.394714 
z"/>
<path fill="#94D0E2" opacity="1.000000" stroke="none" 
	d="
M501.000000,242.000000 
	C501.000000,251.354233 501.000000,260.708466 500.680023,270.746826 
	C499.531799,277.111176 498.774109,282.802734 497.863892,288.469788 
	C491.692383,326.893005 477.866119,362.257996 455.436188,394.148560 
	C454.149994,395.977295 452.302063,397.410889 450.355804,398.950745 
	C449.655060,397.982422 449.129303,397.117340 449.002106,396.197174 
	C447.889954,388.152496 446.922211,380.087524 445.773468,372.048309 
	C442.233093,347.271912 438.552826,322.515259 435.078461,297.729706 
	C432.201691,277.207520 429.611481,256.645264 426.762512,236.119049 
	C423.936371,215.757019 420.747711,195.443680 418.084381,175.061127 
	C415.586823,155.947205 410.642578,137.584564 402.021576,120.347649 
	C390.247467,96.806473 374.118408,76.717964 353.072906,60.772968 
	C334.152283,46.437885 313.275024,36.154766 289.630615,30.875656 
	C257.012024,23.060516 225.121933,24.678896 194.151520,36.246414 
	C143.776459,55.061607 108.993332,89.872345 91.752876,140.984787 
	C87.072830,154.859604 85.176559,169.749985 82.790031,184.303375 
	C79.459419,204.613876 76.830894,225.040405 73.971222,245.427002 
	C70.835327,267.782837 67.800934,290.152924 64.680046,312.510895 
	C61.812271,333.055664 58.950596,353.601654 55.959660,374.128662 
	C54.694344,382.812622 53.105148,391.449371 51.348347,400.019470 
	C50.682861,399.585815 50.278091,399.280212 49.989216,398.889008 
	C25.129576,365.221558 9.863315,327.638458 3.886295,286.230560 
	C3.243062,281.774353 1.977095,277.408020 1.000000,273.000000 
	C1.000000,259.312439 1.000000,245.624878 1.317045,231.248962 
	C2.067003,228.796265 2.765220,227.050751 2.891986,225.264694 
	C4.229152,206.424835 8.315718,188.114090 14.532682,170.378571 
	C33.918495,115.075500 68.555046,71.657951 117.733086,39.870548 
	C137.260941,27.248253 158.231934,17.567438 180.642502,11.380386 
	C192.932938,7.987281 205.543884,5.755171 218.468262,3.022695 
	C224.284134,2.363887 229.642075,1.681943 235.000000,0.999999 
	C246.687561,1.000000 258.375122,1.000000 270.768616,1.306273 
	C279.671051,2.803807 287.917603,3.725078 296.055481,5.232874 
	C332.062225,11.904233 365.132446,25.640135 394.944275,46.997040 
	C422.175293,66.505081 444.924133,90.335052 462.733276,118.703476 
	C480.171783,146.481491 491.672577,176.612213 497.048706,209.394196 
	C497.352936,211.179688 497.690125,212.583633 498.017670,214.369385 
	C498.292877,216.186600 498.577789,217.622040 498.872192,219.514893 
	C499.587830,227.314880 500.293915,234.657440 501.000000,242.000000 
z"/>
<path fill="#FEFFFF" opacity="1.000000" stroke="none" 
	d="
M450.715576,399.028381 
	C452.302063,397.410889 454.149994,395.977295 455.436188,394.148560 
	C477.866119,362.257996 491.692383,326.893005 497.863892,288.469788 
	C498.774109,282.802734 499.531799,277.111176 500.680023,271.215485 
	C501.000000,347.592743 501.000000,424.185455 501.000000,501.000000 
	C426.645905,501.000000 352.291626,501.000000 277.468658,501.000000 
	C278.508423,500.003754 279.936707,498.299530 281.537445,498.118286 
	C303.094696,495.677185 324.274078,491.410797 344.006592,482.283447 
	C359.692932,475.027679 375.050232,466.909760 389.912994,458.094482 
	C396.332764,454.286835 403.484009,450.490143 408.119629,443.206848 
	C410.062225,442.413269 411.669556,442.112061 412.612976,441.155823 
	C423.543457,430.077301 434.463470,418.984833 445.159241,407.681244 
	C447.474091,405.234833 448.887115,401.935089 450.715576,399.028381 
z"/>
<path fill="#FEFFFF" opacity="1.000000" stroke="none" 
	d="
M1.000000,273.468658 
	C1.977095,277.408020 3.243062,281.774353 3.886295,286.230560 
	C9.863315,327.638458 25.129576,365.221558 49.989216,398.889008 
	C50.278091,399.280212 50.682861,399.585815 51.440403,400.368561 
	C58.699844,409.094269 65.068062,417.854095 72.543465,425.536530 
	C79.779968,432.973480 88.155701,439.301910 96.181854,446.410095 
	C102.727921,451.396484 109.005638,456.263580 115.568924,460.709015 
	C118.771378,462.878082 122.506165,464.261169 126.000008,466.000000 
	C129.302124,468.278412 132.342728,471.159027 135.953354,472.727051 
	C148.943161,478.368225 161.948486,484.071014 175.298676,488.749756 
	C183.800079,491.729218 192.879654,493.153595 201.776810,494.879059 
	C208.822861,496.245544 216.001251,496.917450 223.085373,498.108826 
	C224.747955,498.388367 226.267303,499.519470 227.926270,500.629395 
	C152.406143,501.000000 76.812279,501.000000 1.000000,501.000000 
	C1.000000,425.312592 1.000000,349.624939 1.000000,273.468658 
z"/>
<path fill="#FEFFFF" opacity="1.000000" stroke="none" 
	d="
M497.081696,209.012665 
	C491.672577,176.612213 480.171783,146.481491 462.733276,118.703476 
	C444.924133,90.335052 422.175293,66.505081 394.944275,46.997040 
	C365.132446,25.640135 332.062225,11.904233 296.055481,5.232874 
	C287.917603,3.725078 279.671051,2.803807 271.237244,1.306273 
	C347.591919,1.000000 424.183807,1.000000 501.000000,1.000000 
	C501.000000,73.687408 501.000000,146.375046 500.730225,219.418411 
	C499.927887,219.535248 499.395264,219.296356 498.862671,219.057465 
	C498.577789,217.622040 498.292877,216.186600 498.251526,214.168732 
	C498.023926,212.061737 497.552795,210.537201 497.081696,209.012665 
z"/>
<path fill="#FEFFFF" opacity="1.000000" stroke="none" 
	d="
M218.010315,2.999555 
	C205.543884,5.755171 192.932938,7.987281 180.642502,11.380386 
	C158.231934,17.567438 137.260941,27.248253 117.733086,39.870548 
	C68.555046,71.657951 33.918495,115.075500 14.532682,170.378571 
	C8.315718,188.114090 4.229152,206.424835 2.891986,225.264694 
	C2.765220,227.050751 2.067003,228.796265 1.317045,230.780304 
	C1.000000,154.408081 1.000000,77.816162 1.000000,1.000000 
	C73.687408,1.000000 146.375046,1.000000 219.375717,1.241270 
	C219.129272,1.988209 218.569794,2.493880 218.010315,2.999555 
z"/>
<path fill="#E5FAFC" opacity="1.000000" stroke="none" 
	d="
M498.872192,219.514893 
	C499.395264,219.296356 499.927887,219.535248 500.730225,219.887070 
	C501.000000,227.020950 501.000000,234.041901 501.000000,241.531433 
	C500.293915,234.657440 499.587830,227.314880 498.872192,219.514893 
z"/>
<path fill="#E8FBFD" opacity="1.000000" stroke="none" 
	d="
M218.468262,3.022690 
	C218.569794,2.493880 219.129272,1.988209 219.844376,1.241270 
	C224.689255,1.000000 229.378510,1.000000 234.533875,0.999999 
	C229.642075,1.681943 224.284134,2.363887 218.468262,3.022690 
z"/>
<path fill="#728C8F" opacity="1.000000" stroke="none" 
	d="
M450.355774,398.950714 
	C448.887115,401.935089 447.474091,405.234833 445.159241,407.681244 
	C434.463470,418.984833 423.543457,430.077301 412.612976,441.155823 
	C411.669556,442.112061 410.062225,442.413269 408.393433,443.003906 
	C404.780579,438.356812 401.507690,433.745117 398.300385,429.088287 
	C389.324738,416.056244 388.000946,401.900787 396.025085,388.597839 
	C416.251129,355.065918 418.038452,320.458618 407.014099,283.488647 
	C391.817261,232.526260 378.119232,181.115585 363.910339,129.860565 
	C357.823029,107.902184 337.977295,93.800186 315.939728,96.158638 
	C293.542999,98.555527 277.297913,116.453056 275.937775,139.508713 
	C274.939209,156.435379 273.251953,173.321396 271.489685,190.661102 
	C266.404480,188.134995 262.009369,184.389114 256.927063,182.392090 
	C248.931976,179.250504 241.711929,183.073227 234.807556,186.957642 
	C233.530304,171.736740 232.007858,156.531479 231.034454,141.291183 
	C229.645447,119.543930 218.446625,104.231575 198.268158,96.954147 
	C206.405624,87.027199 214.308563,77.258339 223.196838,68.488075 
	C238.550659,53.338078 257.432495,43.703194 277.382416,36.022800 
	C281.601410,34.398556 285.788940,32.692528 289.990967,31.024178 
	C313.275024,36.154766 334.152283,46.437885 353.072906,60.772968 
	C374.118408,76.717964 390.247467,96.806473 402.021576,120.347649 
	C410.642578,137.584564 415.586823,155.947205 418.084381,175.061127 
	C420.747711,195.443680 423.936371,215.757019 426.762512,236.119049 
	C429.611481,256.645264 432.201691,277.207520 435.078461,297.729706 
	C438.552826,322.515259 442.233093,347.271912 445.773468,372.048309 
	C446.922211,380.087524 447.889954,388.152496 449.002106,396.197174 
	C449.129303,397.117340 449.655060,397.982422 450.355774,398.950714 
z"/>
<path fill="#647F80" opacity="1.000000" stroke="none" 
	d="
M289.630615,30.875658 
	C285.788940,32.692528 281.601410,34.398556 277.382416,36.022800 
	C257.432495,43.703194 238.550659,53.338078 223.196838,68.488075 
	C214.308563,77.258339 206.405624,87.027199 198.022858,96.698883 
	C197.235321,97.027184 196.484177,97.003250 195.029449,96.767212 
	C170.501846,92.633308 149.362122,106.101440 142.961090,129.076889 
	C128.360168,181.484467 113.946854,233.946945 98.888794,286.223358 
	C91.950615,310.310364 89.433952,334.276489 97.126411,358.433319 
	C99.930176,367.238037 103.828766,375.855438 108.376839,383.909515 
	C117.567680,400.185394 118.092674,415.733276 106.850121,431.138702 
	C103.219421,436.113739 99.636055,441.123383 96.031052,446.117218 
	C88.155701,439.301910 79.779968,432.973480 72.543465,425.536530 
	C65.068062,417.854095 58.699844,409.094269 51.755219,400.456665 
	C53.105148,391.449371 54.694344,382.812622 55.959660,374.128662 
	C58.950596,353.601654 61.812271,333.055664 64.680046,312.510895 
	C67.800934,290.152924 70.835327,267.782837 73.971222,245.427002 
	C76.830894,225.040405 79.459419,204.613876 82.790031,184.303375 
	C85.176559,169.749985 87.072830,154.859604 91.752876,140.984787 
	C108.993332,89.872345 143.776459,55.061607 194.151520,36.246414 
	C225.121933,24.678896 257.012024,23.060516 289.630615,30.875658 
z"/>
<path fill="#F7E9DB" opacity="1.000000" stroke="none" 
	d="
M96.181854,446.410095 
	C99.636055,441.123383 103.219421,436.113739 106.850121,431.138702 
	C118.092674,415.733276 117.567680,400.185394 108.376839,383.909515 
	C103.828766,375.855438 99.930176,367.238037 97.126411,358.433319 
	C89.433952,334.276489 91.950615,310.310364 98.888794,286.223358 
	C113.946854,233.946945 128.360168,181.484467 142.961090,129.076889 
	C149.362122,106.101440 170.501846,92.633308 194.654999,96.801971 
	C193.096024,100.803871 191.242371,104.576691 189.312515,108.310127 
	C185.594879,115.502121 181.353409,122.469940 178.229492,129.908813 
	C175.236649,137.035599 172.760132,144.509979 171.166687,152.065689 
	C168.117615,166.523804 165.656403,181.116333 163.340195,195.714813 
	C161.866821,205.001160 161.289886,214.426483 159.966324,223.740524 
	C157.157120,243.509445 154.000137,263.229095 151.219162,283.001770 
	C148.966721,299.016632 146.938980,315.066010 145.084000,331.131531 
	C144.677887,334.648865 143.156738,336.750336 139.763870,338.589111 
	C139.119720,339.755005 138.518372,340.642029 138.738251,341.212555 
	C140.013077,344.520538 141.481323,347.753967 142.884155,351.012634 
	C141.965057,354.783020 140.711380,358.507141 140.182648,362.331512 
	C137.339417,382.897705 134.737396,403.497131 131.929794,424.068390 
	C130.058685,437.777893 127.983192,451.459473 125.999596,465.576782 
	C122.506165,464.261169 118.771378,462.878082 115.568924,460.709015 
	C109.005638,456.263580 102.727921,451.396484 96.181854,446.410095 
z"/>
<path fill="#D2D9E1" opacity="1.000000" stroke="none" 
	d="
M328.055969,348.990051 
	C340.647034,353.200806 351.257507,360.628601 360.907745,369.507019 
	C365.265289,373.516052 365.027618,374.145782 359.913635,377.450714 
	C358.573730,378.316589 357.367218,379.388763 355.892761,381.005188 
	C347.073242,386.780914 338.471619,391.936615 329.838867,397.039581 
	C327.948029,398.157288 325.946259,399.087250 323.623291,400.083557 
	C322.537079,399.726715 321.356415,399.548431 321.180176,399.029144 
	C319.020050,392.666779 316.124908,386.375153 315.227234,379.817871 
	C314.470062,374.287079 316.075989,368.432770 316.638489,362.721924 
	C307.900360,367.950958 306.468781,389.779785 318.771088,400.286377 
	C300.356323,406.496063 281.695984,407.197174 262.941040,404.855621 
	C240.090958,402.002747 218.221924,395.231781 196.802109,386.933777 
	C188.918884,383.879791 180.997726,380.923828 173.100357,377.616882 
	C173.799515,376.606110 174.492157,375.901550 175.532455,375.079010 
	C182.348068,372.373840 188.816010,369.786713 195.656952,367.171509 
	C206.954025,363.705261 217.785934,359.932251 228.820312,356.894714 
	C256.559723,349.258545 284.610016,345.625336 312.994141,353.105103 
	C318.629395,354.590118 323.172882,354.968719 326.999573,350.023956 
	C327.298279,349.637970 327.701385,349.332794 328.055969,348.990051 
M249.245651,374.997620 
	C248.511108,374.996185 247.776566,374.994751 246.694656,374.328888 
	C246.135727,371.556763 245.576813,368.784607 245.425995,365.761536 
	C245.405563,365.406342 245.385117,365.051178 245.364685,364.695984 
	C245.235748,365.123352 245.106812,365.550751 244.322540,366.017822 
	C242.550247,367.384064 240.777939,368.750336 238.282120,370.113251 
	C234.840958,371.394562 233.242401,374.085022 234.154114,377.429932 
	C234.640884,379.215881 236.758224,380.557404 238.616653,382.477753 
	C239.721603,383.322815 240.826538,384.167877 242.050247,385.693634 
	C242.965103,386.764832 243.879944,387.836029 244.538147,388.606689 
	C245.469559,384.738708 246.279129,381.376648 247.784622,378.008240 
	C248.482239,378.014709 249.179855,378.021149 249.941406,378.754730 
	C251.293854,380.170227 252.646317,381.585724 254.097717,383.274323 
	C254.181671,383.322845 254.265625,383.371368 254.349579,383.419861 
	C254.233459,383.279510 254.117340,383.139130 253.897644,382.208954 
	C253.666733,378.973297 253.435837,375.737640 253.144318,371.652679 
	C251.832855,373.037994 250.906921,374.016083 249.245651,374.997620 
M299.514496,398.228790 
	C300.223816,397.278381 301.368927,396.405853 301.555481,395.362000 
	C302.000519,392.871216 301.993408,390.299652 302.186615,387.504456 
	C294.627594,383.053741 274.623352,382.541992 269.872772,387.322327 
	C274.020752,390.623627 278.025482,394.042084 282.270538,397.130127 
	C287.412903,400.870819 293.049438,400.991669 299.514496,398.228790 
M337.486786,374.611023 
	C340.747070,374.310547 343.269226,372.681366 342.601532,369.309296 
	C342.262787,367.598511 339.925385,365.447876 338.179565,365.110504 
	C336.732056,364.830750 333.925751,366.547455 333.318176,368.032867 
	C332.152100,370.883698 333.090576,373.652954 337.486786,374.611023 
M220.753174,381.197357 
	C220.482910,377.960358 220.212662,374.723358 219.941574,371.476562 
	C215.020828,374.748627 214.502792,380.804565 219.006699,383.209412 
	C219.379456,383.408417 220.451401,382.297882 220.753174,381.197357 
M258.207245,389.808136 
	C257.891449,393.733154 259.819153,396.142181 263.368561,397.783264 
	C262.820251,393.506744 262.309357,389.521881 261.664642,384.493317 
	C260.429718,386.270355 259.449341,387.681122 258.207245,389.808136 
M301.709259,358.880737 
	C301.958099,358.122406 302.206970,357.364075 302.455811,356.605743 
	C301.909180,356.334015 301.362549,356.062256 300.815918,355.790497 
	C299.550995,358.336761 297.584930,360.800079 297.270264,363.458801 
	C297.064209,365.200012 299.248474,367.224152 300.362122,369.121552 
	C300.682434,368.912964 301.002747,368.704376 301.323059,368.495789 
	C301.323059,365.501495 301.323059,362.507172 301.709259,358.880737 
M261.831055,363.614258 
	C256.739319,367.582916 256.926727,372.523376 261.637421,375.109863 
	C262.270447,371.720947 262.974121,368.138092 263.554199,364.535400 
	C263.606567,364.210205 262.861694,363.756683 261.831055,363.614258 
M227.024673,375.287659 
	C227.474564,375.317749 227.924469,375.347839 228.374359,375.377899 
	C228.631073,371.404541 228.887787,367.431213 229.143768,363.469330 
	C224.006409,365.692078 223.275726,368.823090 227.024673,375.287659 
M267.089203,359.840515 
	C265.263000,365.206116 266.769989,368.098114 270.898987,368.262268 
	C270.605530,364.713440 270.307251,361.105957 269.984192,357.198975 
	C269.154877,357.864990 268.313690,358.540558 267.089203,359.840515 
M202.403290,374.265930 
	C201.697433,380.040009 202.122879,380.861298 206.492767,382.182281 
	C206.050858,380.141418 205.153854,378.067719 205.297974,376.069061 
	C205.435837,374.157288 206.656174,372.323547 207.400742,370.455505 
	C207.069885,370.202545 206.739029,369.949615 206.408188,369.696686 
	C205.184982,370.984192 203.961777,372.271667 202.403290,374.265930 
M285.997009,362.485535 
	C286.461121,360.515656 286.925262,358.545746 287.389404,356.575867 
	C287.052582,356.320343 286.715759,356.064819 286.378937,355.809326 
	C284.943695,357.916046 282.365875,360.030060 282.379181,362.127563 
	C282.393890,364.447174 284.781006,366.751678 286.134888,369.062775 
	C286.499298,368.836487 286.863678,368.610168 287.228058,368.383881 
	C286.818268,366.676117 286.408447,364.968384 285.997009,362.485535 
M255.642487,357.009735 
	C254.116302,358.151947 251.681076,359.033356 251.262268,360.493256 
	C250.503113,363.139709 250.277649,366.424744 253.767761,367.576721 
	C254.395828,364.190216 254.997391,360.946625 255.642487,357.009735 
M276.851257,364.694580 
	C273.684174,369.436554 274.162018,372.280823 277.995422,374.748169 
	C278.432648,371.730804 278.954834,368.446136 279.294128,365.142670 
	C279.319641,364.894226 278.040314,364.511780 276.851257,364.694580 
M291.992462,375.384399 
	C292.545776,375.116241 293.584320,374.836823 293.578339,374.581665 
	C293.508240,371.566498 293.281952,368.554932 293.101746,365.623260 
	C288.330109,368.091034 287.971161,369.910675 291.992462,375.384399 
z"/>
<path fill="#B0B8C1" opacity="1.000000" stroke="none" 
	d="
M173.093872,377.923157 
	C180.997726,380.923828 188.918884,383.879791 196.802109,386.933777 
	C218.221924,395.231781 240.090958,402.002747 262.941040,404.855621 
	C281.695984,407.197174 300.356323,406.496063 319.075928,400.416626 
	C320.840271,401.066681 322.071411,401.871704 323.671143,402.917694 
	C323.819855,401.627991 323.907715,400.865845 323.995575,400.103668 
	C325.946259,399.087250 327.948029,398.157288 329.838867,397.039581 
	C338.471619,391.936615 347.073242,386.780914 355.843170,381.351746 
	C358.464966,381.059265 360.929688,381.059265 363.394379,381.059265 
	C363.642090,381.419769 363.889832,381.780273 364.137543,382.140778 
	C361.531769,384.683411 359.106750,387.448792 356.291595,389.733429 
	C334.117462,407.728638 308.692627,416.051636 280.176971,415.023102 
	C279.182556,414.987244 278.184662,415.047546 276.326172,414.908783 
	C269.350891,414.523956 263.237762,414.293304 257.124664,414.062683 
	C256.399017,413.435394 255.766342,412.453522 254.933441,412.235107 
	C245.644363,409.798950 236.324387,407.480682 226.387482,404.865417 
	C223.191986,403.581573 220.657043,402.459778 218.044205,401.565643 
	C212.340042,399.613708 206.596283,397.777618 200.868713,395.894165 
	C195.516464,393.270721 190.164215,390.647278 184.264709,387.797974 
	C183.155670,387.392334 182.593918,387.212555 181.873566,386.724731 
	C180.492538,385.953827 179.270126,385.490967 177.865021,384.766235 
	C177.095764,384.277283 176.509216,384.050140 175.934906,383.471008 
	C174.967621,382.415192 173.988098,381.711426 173.012756,380.622375 
	C173.042572,379.465790 173.068222,378.694489 173.093872,377.923157 
M324.400635,404.468811 
	C324.400635,404.468811 324.528137,404.386658 324.400635,404.468811 
z"/>
<path fill="#3E4D4D" opacity="1.000000" stroke="none" 
	d="
M206.993546,207.987747 
	C198.399292,213.702179 187.974350,212.412994 180.233047,204.678452 
	C168.531677,192.987305 168.474655,171.092651 180.114883,159.309692 
	C187.551620,151.781769 197.043777,150.376938 206.689484,155.969757 
	C205.894501,157.706863 204.988098,158.877243 204.059494,160.029739 
	C194.709717,171.633759 193.165176,184.199265 199.870956,197.504150 
	C201.756393,201.245026 204.593140,204.506424 206.993546,207.987747 
z"/>
<path fill="#3E4D4C" opacity="1.000000" stroke="none" 
	d="
M317.029419,208.055771 
	C308.107208,213.693314 297.444855,212.177460 289.979706,204.210175 
	C278.875763,192.359314 278.901825,171.404831 290.035187,159.593582 
	C297.694794,151.467606 308.358521,150.185333 317.896973,156.664215 
	C303.204620,167.216476 302.367676,192.096115 314.805115,204.351456 
	C315.798645,205.330414 316.299591,206.809235 317.029419,208.055771 
z"/>
<path fill="#8C9AA3" opacity="1.000000" stroke="none" 
	d="
M182.032150,387.032745 
	C182.593918,387.212555 183.155670,387.392334 183.892456,387.820190 
	C171.887802,401.930359 156.949921,411.133392 139.192902,415.574432 
	C138.677826,415.149841 138.162750,414.725250 137.647675,414.300659 
	C144.137375,401.779999 150.627075,389.259308 156.938904,377.081818 
	C152.515625,368.837158 147.894943,360.224579 143.079193,351.312317 
	C141.481323,347.753967 140.013077,344.520538 138.738251,341.212555 
	C138.518372,340.642029 139.119720,339.755005 139.685242,338.937653 
	C156.628098,343.932678 171.379364,352.018097 182.757233,365.596313 
	C182.282455,366.001831 182.049759,366.021118 181.487930,365.996460 
	C170.657593,358.323730 160.107147,350.790680 146.968735,348.258789 
	C148.835419,349.898285 151.098541,350.859131 153.088974,352.219055 
	C161.106567,357.696991 169.039917,363.298218 176.901093,369.104401 
	C176.514267,369.569122 176.230713,369.783356 175.626633,369.877136 
	C168.353195,366.238708 161.400269,362.720642 154.447342,359.202606 
	C154.118774,359.816956 153.790207,360.431305 153.461639,361.045654 
	C160.326187,365.083954 167.190750,369.122223 174.079865,373.468201 
	C174.464554,374.249603 174.824677,374.723328 175.184799,375.197021 
	C174.492157,375.901550 173.799515,376.606110 173.100372,377.616882 
	C173.068222,378.694489 173.042572,379.465790 172.802536,380.882538 
	C167.191315,385.019135 161.794479,388.510315 156.397659,392.001495 
	C156.612732,392.404449 156.827789,392.807404 157.042862,393.210388 
	C158.906799,392.672211 160.931564,392.434113 162.603714,391.538055 
	C167.123505,389.115936 171.493347,386.413940 175.922668,383.822998 
	C176.509216,384.050140 177.095764,384.277283 177.688293,385.052887 
	C168.046371,392.273224 158.398453,398.945068 148.750534,405.616913 
	C161.185867,401.797363 172.355316,395.744232 182.032150,387.032745 
M153.867981,393.264771 
	C153.921036,393.418304 153.974091,393.571808 154.027145,393.725342 
	C154.081833,393.568939 154.136520,393.412567 153.867981,393.264771 
M146.599274,406.504730 
	C146.599274,406.504730 146.491135,406.559479 146.599274,406.504730 
z"/>
<path fill="#F0B737" opacity="1.000000" stroke="none" 
	d="
M231.106674,277.960938 
	C230.935806,277.903046 230.764954,277.845123 230.267227,277.378479 
	C229.281464,276.659546 228.622589,276.349335 227.963715,276.039124 
	C227.963715,276.039124 227.520187,275.892334 227.248108,275.488403 
	C226.336884,274.718994 225.697754,274.353485 225.058624,273.987976 
	C224.902435,273.898193 224.746246,273.808380 224.278915,273.268372 
	C222.307587,271.556122 220.647415,270.293976 218.987244,269.031860 
	C218.987244,269.031860 218.541168,268.810730 218.270462,268.358948 
	C216.153488,266.220093 214.307220,264.533051 212.460953,262.846008 
	C211.408249,261.745239 210.355545,260.644440 209.145065,258.927856 
	C208.274902,257.579254 207.562531,256.846466 206.850159,256.113708 
	C206.317871,255.569702 205.785583,255.025696 205.119598,253.926788 
	C204.465088,252.872665 203.944290,252.373444 203.423492,251.874222 
	C203.044067,251.397095 202.664627,250.919968 202.138382,249.824097 
	C201.674957,248.122803 201.358353,247.040268 201.386292,246.012482 
	C211.618713,252.261124 221.414734,258.608887 231.431549,264.586700 
	C236.773422,267.774597 242.245377,271.153076 249.464233,269.989502 
	C254.921524,269.141876 260.520081,269.435486 264.806366,267.206085 
	C274.482178,262.173431 283.473602,255.834702 292.826721,250.164597 
	C295.039307,248.823257 297.580566,248.023987 299.952576,247.325317 
	C299.630463,248.790649 299.326416,249.906021 299.022400,251.021393 
	C299.022400,251.021393 298.814362,251.460648 298.407837,251.743317 
	C297.648041,252.640717 297.294708,253.255463 296.941406,253.870209 
	C296.357849,254.755112 295.774323,255.640015 294.613495,256.766144 
	C293.357452,257.997894 292.678711,258.988403 291.999969,259.978912 
	C289.198334,262.886993 286.396729,265.795044 282.967224,268.870728 
	C281.186859,270.236298 280.034363,271.434326 278.881836,272.632324 
	C278.881836,272.632324 278.503693,272.900848 277.963806,272.980255 
	C276.571167,273.890686 275.718384,274.721680 274.865631,275.552704 
	C274.136505,275.990204 273.407349,276.427673 272.086060,276.960144 
	C270.950012,277.536072 270.406097,278.016998 269.862183,278.497925 
	C268.582428,279.078552 267.302704,279.659210 265.406311,280.263580 
	C264.537964,280.522827 264.286255,280.758362 264.034546,280.993896 
	C264.034546,280.993896 263.629547,281.140015 263.057129,281.122314 
	C261.000854,281.701843 259.516968,282.299072 258.033112,282.896301 
	C256.555817,283.147400 255.078506,283.398529 252.928589,283.399536 
	C250.441330,283.160645 248.626678,283.171844 246.812042,283.183044 
	C246.402023,283.162384 245.992004,283.141754 245.039062,282.780457 
	C240.032990,280.946869 235.569839,279.453888 231.106674,277.960938 
z"/>
<path fill="#5E88A1" opacity="1.000000" stroke="none" 
	d="
M327.780487,348.765869 
	C327.701385,349.332794 327.298279,349.637970 326.999573,350.023956 
	C323.172882,354.968719 318.629395,354.590118 312.994141,353.105103 
	C284.610016,345.625336 256.559723,349.258545 228.820312,356.894714 
	C217.785934,359.932251 206.954025,363.705261 195.362671,366.955933 
	C195.037384,365.732971 195.091583,364.072235 195.767059,363.761353 
	C200.989304,361.357697 206.381332,359.323761 211.611145,356.935272 
	C213.558380,356.045929 215.213394,354.516724 217.001663,353.279297 
	C217.593384,353.089478 218.185089,352.899628 219.510696,352.807617 
	C221.493942,352.269867 222.743301,351.634308 223.992645,350.998779 
	C224.308670,350.895721 224.624680,350.792633 225.643326,350.805054 
	C229.192520,350.739990 232.609497,352.064941 233.993195,348.023254 
	C233.993195,348.023254 233.957764,347.983826 234.347595,347.953735 
	C237.716751,346.915192 240.635010,345.638367 243.685852,344.944305 
	C257.437164,341.815887 271.274841,339.244659 285.482544,339.696655 
	C299.944397,340.486237 314.107300,342.696320 327.780487,348.765869 
z"/>
<path fill="#586869" opacity="1.000000" stroke="none" 
	d="
M317.366821,207.998749 
	C316.299591,206.809235 315.798645,205.330414 314.805115,204.351456 
	C302.367676,192.096115 303.204620,167.216476 318.093903,156.970276 
	C333.165222,166.636261 334.633514,192.441849 321.163727,205.107056 
	C320.080109,206.125946 318.860565,207.000259 317.366821,207.998749 
z"/>
<path fill="#586869" opacity="1.000000" stroke="none" 
	d="
M207.330933,207.940002 
	C204.593140,204.506424 201.756393,201.245026 199.870956,197.504150 
	C193.165176,184.199265 194.709717,171.633759 204.059494,160.029739 
	C204.988098,158.877243 205.894501,157.706863 206.937134,156.222778 
	C224.363876,166.968536 224.682419,194.332855 207.330933,207.940002 
z"/>
<path fill="#EDDA6A" opacity="1.000000" stroke="none" 
	d="
M201.041748,245.957718 
	C201.358353,247.040268 201.674957,248.122803 202.018860,249.543640 
	C195.555435,245.938034 191.050690,237.650528 193.212875,231.918869 
	C194.223068,229.240921 196.910461,226.439453 199.537277,225.282928 
	C205.240570,222.771881 211.489792,221.526993 217.309326,219.239197 
	C219.275696,218.466171 221.270554,216.391266 222.122452,214.422424 
	C224.425583,209.099792 225.851379,203.397797 228.150589,198.073135 
	C229.767670,194.328201 232.245331,190.954880 234.573151,187.186646 
	C241.711929,183.073227 248.931976,179.250504 256.927063,182.392090 
	C262.009369,184.389114 266.404480,188.134995 271.452148,191.125732 
	C274.501953,199.121765 276.894562,207.214371 280.026276,215.010040 
	C282.006561,219.939423 287.013214,221.143112 291.819336,222.151230 
	C295.043579,222.827515 298.320251,223.453781 301.401276,224.575378 
	C310.487885,227.883209 312.501923,237.453720 305.740814,244.393372 
	C303.671570,246.517273 301.698334,248.734802 299.351776,250.965424 
	C299.326416,249.906021 299.630463,248.790649 299.963562,247.334854 
	C299.992584,246.994431 299.979126,246.981171 300.158386,246.902069 
	C300.403748,246.711105 300.552490,246.541061 300.521759,246.497391 
	C300.378571,246.293991 300.185760,246.125534 300.064453,245.606201 
	C301.251648,243.861115 302.340240,242.415314 303.526245,241.054398 
	C308.674011,235.147507 307.954437,230.595459 300.729340,227.453018 
	C296.699890,225.700439 292.228302,224.759476 287.859131,224.044724 
	C282.350830,223.143616 278.783539,220.265182 276.957306,215.139267 
	C275.233246,210.300186 273.441101,205.469788 272.047638,200.531540 
	C268.530945,188.068573 254.464340,180.978409 245.657303,185.017792 
	C243.481857,185.841278 241.586731,186.477692 239.883743,187.450485 
	C232.835693,191.476593 230.453873,198.383469 228.023315,205.621475 
	C226.124146,211.277039 226.706909,218.727097 219.753922,221.632721 
	C215.238983,223.519485 210.422882,224.806412 205.635086,225.891861 
	C197.881531,227.649673 195.434464,230.087570 196.036575,236.824905 
	C196.165909,238.272079 197.250366,239.664673 198.011353,241.016830 
	C198.958267,242.699371 200.026123,244.313843 201.041748,245.957718 
z"/>
<path fill="#8798A3" opacity="1.000000" stroke="none" 
	d="
M285.325989,339.391235 
	C271.274841,339.244659 257.437164,341.815887 243.685852,344.944305 
	C240.635010,345.638367 237.716751,346.915192 234.362946,347.932129 
	C232.766647,346.314270 231.544861,344.687958 229.847031,342.428009 
	C232.636063,341.189789 235.239380,339.992828 237.874908,338.871643 
	C245.810410,335.495728 252.972061,331.137421 256.827667,322.985748 
	C258.190491,320.104401 260.077362,320.663666 262.142639,321.542206 
	C271.297607,325.436493 279.106720,331.121155 285.325989,339.391235 
z"/>
<path fill="#8A99A3" opacity="1.000000" stroke="none" 
	d="
M200.536377,395.976105 
	C206.596283,397.777618 212.340042,399.613708 218.044205,401.565643 
	C220.657043,402.459778 223.191986,403.581573 226.014877,404.894226 
	C223.481308,406.942566 220.824020,408.960693 217.882843,410.397766 
	C211.158768,413.683197 211.527771,413.242462 207.087509,407.435608 
	C204.403809,403.925964 200.153656,401.614105 196.086761,398.345703 
	C197.509216,397.555359 198.856628,396.806702 200.536377,395.976105 
z"/>
<path fill="#8B9AA2" opacity="1.000000" stroke="none" 
	d="
M256.873169,414.302338 
	C263.237762,414.293304 269.350891,414.523956 275.875519,414.912537 
	C270.844482,421.491364 263.913727,425.434967 255.833099,427.588654 
	C252.962372,428.353790 251.625397,426.821472 252.246780,424.632904 
	C253.239349,421.137054 255.117752,417.892700 256.873169,414.302338 
z"/>
<path fill="#68899C" opacity="1.000000" stroke="none" 
	d="
M216.641830,353.300201 
	C215.213394,354.516724 213.558380,356.045929 211.611145,356.935272 
	C206.381332,359.323761 200.989304,361.357697 195.767059,363.761353 
	C195.091583,364.072235 195.037384,365.732971 194.989685,366.983978 
	C188.816010,369.786713 182.348068,372.373840 175.532455,375.079010 
	C174.824677,374.723328 174.464554,374.249603 174.341156,373.269409 
	C175.034317,371.841125 175.490738,370.919373 175.947159,369.997559 
	C176.230713,369.783356 176.514267,369.569122 177.268799,369.158386 
	C179.098877,367.988068 180.457962,367.014221 181.817047,366.040375 
	C182.049759,366.021118 182.282455,366.001831 182.860016,365.918823 
	C184.918503,365.493408 186.727844,365.371185 188.329987,364.730652 
	C197.674255,360.994843 206.969925,357.137451 216.641830,353.300201 
z"/>
<path fill="#EDDA6A" opacity="1.000000" stroke="none" 
	d="
M231.157303,278.298889 
	C235.569839,279.453888 240.032990,280.946869 244.737045,282.718628 
	C240.387924,281.543884 235.797928,280.090363 231.157303,278.298889 
z"/>
<path fill="#68899C" opacity="1.000000" stroke="none" 
	d="
M233.607513,348.019165 
	C232.609497,352.064941 229.192520,350.739990 225.883453,350.880615 
	C228.021240,349.898773 230.621521,348.956909 233.607513,348.019165 
z"/>
<path fill="#EDDA6A" opacity="1.000000" stroke="none" 
	d="
M212.394852,263.181671 
	C214.307220,264.533051 216.153488,266.220093 218.078125,268.200897 
	C216.213913,266.835541 214.271332,265.176453 212.394852,263.181671 
z"/>
<path fill="#EDDA6A" opacity="1.000000" stroke="none" 
	d="
M219.021881,269.370422 
	C220.647415,270.293976 222.307587,271.556122 224.069275,273.097839 
	C222.466034,272.154602 220.761276,270.931763 219.021881,269.370422 
z"/>
<path fill="#EDDA6A" opacity="1.000000" stroke="none" 
	d="
M246.968979,283.496643 
	C248.626678,283.171844 250.441330,283.160645 252.559189,283.356995 
	C250.950241,283.646454 249.038086,283.728333 246.968979,283.496643 
z"/>
<path fill="#EDDA6A" opacity="1.000000" stroke="none" 
	d="
M258.246613,283.126709 
	C259.516968,282.299072 261.000854,281.701843 262.844238,281.154419 
	C261.622559,281.921875 260.041351,282.639496 258.246613,283.126709 
z"/>
<path fill="#EDDA6A" opacity="1.000000" stroke="none" 
	d="
M279.215027,272.679718 
	C280.034363,271.434326 281.186859,270.236298 282.676025,269.030365 
	C281.857849,270.257324 280.703033,271.492218 279.215027,272.679718 
z"/>
<path fill="#68899C" opacity="1.000000" stroke="none" 
	d="
M223.632294,350.987366 
	C222.743301,351.634308 221.493942,352.269867 219.820206,352.860840 
	C220.687866,352.202850 221.979904,351.589417 223.632294,350.987366 
z"/>
<path fill="#EDDA6A" opacity="1.000000" stroke="none" 
	d="
M275.189819,275.635925 
	C275.718384,274.721680 276.571167,273.890686 277.750275,273.070740 
	C277.222412,273.960938 276.368195,274.840057 275.189819,275.635925 
z"/>
<path fill="#EDDA6A" opacity="1.000000" stroke="none" 
	d="
M292.331299,259.940735 
	C292.678711,258.988403 293.357452,257.997894 294.340454,256.928436 
	C293.984009,257.867188 293.323334,258.884888 292.331299,259.940735 
z"/>
<path fill="#EDDA6A" opacity="1.000000" stroke="none" 
	d="
M206.882477,256.447632 
	C207.562531,256.846466 208.274902,257.579254 208.997375,258.639069 
	C208.309906,258.237915 207.612335,257.509766 206.882477,256.447632 
z"/>
<path fill="#EDDA6A" opacity="1.000000" stroke="none" 
	d="
M297.254700,253.839294 
	C297.294708,253.255463 297.648041,252.640717 298.263306,251.938629 
	C298.206177,252.503647 297.887085,253.156021 297.254700,253.839294 
z"/>
<path fill="#EDDA6A" opacity="1.000000" stroke="none" 
	d="
M270.161194,278.584534 
	C270.406097,278.016998 270.950012,277.536072 271.792114,277.084290 
	C271.546906,277.632721 271.003540,278.151947 270.161194,278.584534 
z"/>
<path fill="#EDDA6A" opacity="1.000000" stroke="none" 
	d="
M228.025970,276.346924 
	C228.622589,276.349335 229.281464,276.659546 230.035950,277.238037 
	C229.450455,277.222443 228.769333,276.938568 228.025970,276.346924 
z"/>
<path fill="#EDDA6A" opacity="1.000000" stroke="none" 
	d="
M225.091522,274.301422 
	C225.697754,274.353485 226.336884,274.718994 227.048157,275.367615 
	C226.455002,275.305481 225.789719,274.960175 225.091522,274.301422 
z"/>
<path fill="#EDDA6A" opacity="1.000000" stroke="none" 
	d="
M203.362579,252.181381 
	C203.944290,252.373444 204.465088,252.872665 204.999329,253.665314 
	C204.442429,253.468689 203.872055,252.978622 203.362579,252.181381 
z"/>
<path fill="#EDDA6A" opacity="1.000000" stroke="none" 
	d="
M264.290039,280.987183 
	C264.286255,280.758362 264.537964,280.522827 265.058258,280.320923 
	C265.066376,280.563171 264.805939,280.771820 264.290039,280.987183 
z"/>
<path fill="#E5FAFC" opacity="1.000000" stroke="none" 
	d="
M497.048706,209.394196 
	C497.552795,210.537201 498.023926,212.061737 498.261200,213.786926 
	C497.690125,212.583633 497.352936,211.179688 497.048706,209.394196 
z"/>
<path fill="#8898A2" opacity="1.000000" stroke="none" 
	d="
M299.170441,398.420563 
	C293.049438,400.991669 287.412903,400.870819 282.270538,397.130127 
	C278.025482,394.042084 274.020752,390.623627 269.872772,387.322327 
	C274.623352,382.541992 294.627594,383.053741 302.186615,387.504456 
	C301.993408,390.299652 302.000519,392.871216 301.555481,395.362000 
	C301.368927,396.405853 300.223816,397.278381 299.170441,398.420563 
z"/>
<path fill="#8B99A2" opacity="1.000000" stroke="none" 
	d="
M323.623291,400.083557 
	C323.907715,400.865845 323.819855,401.627991 323.671143,402.917694 
	C322.071411,401.871704 320.840271,401.066681 319.304260,400.131470 
	C306.468781,389.779785 307.900360,367.950958 316.638489,362.721924 
	C316.075989,368.432770 314.470062,374.287079 315.227234,379.817871 
	C316.124908,386.375153 319.020050,392.666779 321.180176,399.029144 
	C321.356415,399.548431 322.537079,399.726715 323.623291,400.083557 
z"/>
<path fill="#53626C" opacity="1.000000" stroke="none" 
	d="
M337.122620,374.524139 
	C333.090576,373.652954 332.152100,370.883698 333.318176,368.032867 
	C333.925751,366.547455 336.732056,364.830750 338.179565,365.110504 
	C339.925385,365.447876 342.262787,367.598511 342.601532,369.309296 
	C343.269226,372.681366 340.747070,374.310547 337.122620,374.524139 
z"/>
<path fill="#B6BDC6" opacity="1.000000" stroke="none" 
	d="
M220.975830,381.496582 
	C220.451401,382.297882 219.379456,383.408417 219.006699,383.209412 
	C214.502792,380.804565 215.020828,374.748627 219.941574,371.476562 
	C220.212662,374.723358 220.482910,377.960358 220.975830,381.496582 
z"/>
<path fill="#B5BEC6" opacity="1.000000" stroke="none" 
	d="
M258.338104,389.450012 
	C259.449341,387.681122 260.429718,386.270355 261.664642,384.493317 
	C262.309357,389.521881 262.820251,393.506744 263.368561,397.783264 
	C259.819153,396.142181 257.891449,393.733154 258.338104,389.450012 
z"/>
<path fill="#B5BDC6" opacity="1.000000" stroke="none" 
	d="
M301.516174,359.196808 
	C301.323059,362.507172 301.323059,365.501495 301.323059,368.495789 
	C301.002747,368.704376 300.682434,368.912964 300.362122,369.121552 
	C299.248474,367.224152 297.064209,365.200012 297.270264,363.458801 
	C297.584930,360.800079 299.550995,358.336761 300.815918,355.790497 
	C301.362549,356.062256 301.909180,356.334015 302.455811,356.605743 
	C302.206970,357.364075 301.958099,358.122406 301.516174,359.196808 
z"/>
<path fill="#B5BDC5" opacity="1.000000" stroke="none" 
	d="
M262.159058,363.488525 
	C262.861694,363.756683 263.606567,364.210205 263.554199,364.535400 
	C262.974121,368.138092 262.270447,371.720947 261.637421,375.109863 
	C256.926727,372.523376 256.739319,367.582916 262.159058,363.488525 
z"/>
<path fill="#B9BFC8" opacity="1.000000" stroke="none" 
	d="
M226.774536,375.042908 
	C223.275726,368.823090 224.006409,365.692078 229.143768,363.469330 
	C228.887787,367.431213 228.631073,371.404541 228.374359,375.377930 
	C227.924469,375.347839 227.474564,375.317749 226.774536,375.042908 
z"/>
<path fill="#B4BCC4" opacity="1.000000" stroke="none" 
	d="
M267.280853,359.528320 
	C268.313690,358.540558 269.154877,357.864990 269.984192,357.198975 
	C270.307251,361.105957 270.605530,364.713440 270.898987,368.262268 
	C266.769989,368.098114 265.263000,365.206116 267.280853,359.528320 
z"/>
<path fill="#B2BBC3" opacity="1.000000" stroke="none" 
	d="
M239.005646,370.116577 
	C240.777939,368.750336 242.550247,367.384064 244.659821,366.007477 
	C244.997101,365.997131 245.017899,366.012482 245.017899,366.012482 
	C245.576813,368.784607 246.135727,371.556763 246.638138,374.931274 
	C245.420074,375.669983 244.258530,375.806305 242.935074,375.624939 
	C241.515671,374.168030 240.258179,373.028839 239.001587,371.593384 
	C239.003525,370.903595 239.004578,370.510071 239.005646,370.116577 
z"/>
<path fill="#B6BDC6" opacity="1.000000" stroke="none" 
	d="
M202.570923,373.912537 
	C203.961777,372.271667 205.184982,370.984192 206.408188,369.696686 
	C206.739029,369.949615 207.069885,370.202545 207.400742,370.455505 
	C206.656174,372.323547 205.435837,374.157288 205.297974,376.069061 
	C205.153854,378.067719 206.050858,380.141418 206.497849,382.181244 
	C202.122879,380.861298 201.697433,380.040009 202.570923,373.912537 
z"/>
<path fill="#B7BEC6" opacity="1.000000" stroke="none" 
	d="
M285.997803,362.873077 
	C286.408447,364.968384 286.818268,366.676117 287.228058,368.383881 
	C286.863678,368.610168 286.499298,368.836487 286.134888,369.062775 
	C284.781006,366.751678 282.393890,364.447174 282.379181,362.127563 
	C282.365875,360.030060 284.943695,357.916046 286.378937,355.809326 
	C286.715759,356.064819 287.052582,356.320343 287.389404,356.575867 
	C286.925262,358.545746 286.461121,360.515656 285.997803,362.873077 
z"/>
<path fill="#B3BCC2" opacity="1.000000" stroke="none" 
	d="
M255.620728,357.356384 
	C254.997391,360.946625 254.395828,364.190216 253.767761,367.576721 
	C250.277649,366.424744 250.503113,363.139709 251.262268,360.493256 
	C251.681076,359.033356 254.116302,358.151947 255.620728,357.356384 
z"/>
<path fill="#B4BBC4" opacity="1.000000" stroke="none" 
	d="
M238.643875,370.114929 
	C239.004578,370.510071 239.003525,370.903595 238.741028,371.858215 
	C238.348129,375.273346 238.216675,378.127289 238.086945,381.261414 
	C238.105667,381.727509 238.122665,381.913483 238.139664,382.099487 
	C236.758224,380.557404 234.640884,379.215881 234.154114,377.429932 
	C233.242401,374.085022 234.840958,371.394562 238.643875,370.114929 
z"/>
<path fill="#B9C1C9" opacity="1.000000" stroke="none" 
	d="
M277.109406,364.443115 
	C278.040314,364.511780 279.319641,364.894226 279.294128,365.142670 
	C278.954834,368.446136 278.432648,371.730804 277.995422,374.748169 
	C274.162018,372.280823 273.684174,369.436554 277.109406,364.443115 
z"/>
<path fill="#B3BCC4" opacity="1.000000" stroke="none" 
	d="
M247.088715,378.014587 
	C246.279129,381.376648 245.469559,384.738708 244.538147,388.606689 
	C243.879944,387.836029 242.965103,386.764832 242.009979,384.951294 
	C241.972900,383.136749 241.976074,382.064606 242.220703,380.823853 
	C242.654617,380.110687 242.847046,379.566071 243.308929,378.901428 
	C244.748489,378.525787 245.918610,378.270203 247.088715,378.014587 
z"/>
<path fill="#ACB5BE" opacity="1.000000" stroke="none" 
	d="
M291.714478,375.158447 
	C287.971161,369.910675 288.330109,368.091034 293.101746,365.623260 
	C293.281952,368.554932 293.508240,371.566498 293.578339,374.581665 
	C293.584320,374.836823 292.545776,375.116241 291.714478,375.158447 
z"/>
<path fill="#B8BEC7" opacity="1.000000" stroke="none" 
	d="
M253.998779,383.001221 
	C252.646317,381.585724 251.293854,380.170227 249.944321,378.012482 
	C249.958481,376.511536 249.969742,375.752838 249.980988,374.994141 
	C250.906921,374.016083 251.832855,373.037994 253.144318,371.652679 
	C253.435837,375.737640 253.666733,378.973297 253.948822,382.604492 
	C254.000000,383.000000 253.998779,383.001221 253.998779,383.001221 
z"/>
<path fill="#CBD4DD" opacity="1.000000" stroke="none" 
	d="
M249.613312,374.995880 
	C249.969742,375.752838 249.958481,376.511536 249.912354,377.648926 
	C249.179855,378.021149 248.482239,378.014709 247.436676,378.011414 
	C245.918610,378.270203 244.748489,378.525787 243.053650,378.709839 
	C242.718277,377.739716 242.907623,376.841156 243.096985,375.942627 
	C244.258530,375.806305 245.420074,375.669983 246.811829,375.263489 
	C247.776566,374.994751 248.511108,374.996185 249.613312,374.995880 
z"/>
<path fill="#CBD4DD" opacity="1.000000" stroke="none" 
	d="
M241.979233,380.992432 
	C241.976074,382.064606 241.972900,383.136749 241.950592,384.610931 
	C240.826538,384.167877 239.721603,383.322815 238.378159,382.288635 
	C238.122665,381.913483 238.105667,381.727509 238.474380,381.267395 
	C239.899796,380.992981 240.939514,380.992706 241.979233,380.992432 
z"/>
<path fill="#B2BBC3" opacity="1.000000" stroke="none" 
	d="
M244.987488,365.987610 
	C245.106812,365.550751 245.235748,365.123352 245.364685,364.695984 
	C245.385117,365.051178 245.405563,365.406342 245.221954,365.887024 
	C245.017899,366.012482 244.997101,365.997131 244.987488,365.987610 
z"/>
<path fill="#B8BEC7" opacity="1.000000" stroke="none" 
	d="
M254.000610,382.999390 
	C254.117340,383.139130 254.233459,383.279510 254.349579,383.419861 
	C254.265625,383.371368 254.181671,383.322845 254.048248,383.137756 
	C253.998779,383.001221 254.000000,383.000000 254.000610,382.999390 
z"/>
<path fill="#BFCCD6" opacity="1.000000" stroke="none" 
	d="
M181.873566,386.724731 
	C172.355316,395.744232 161.185867,401.797363 148.750534,405.616913 
	C158.398453,398.945068 168.046371,392.273224 177.871002,385.314697 
	C179.270126,385.490967 180.492538,385.953827 181.873566,386.724731 
z"/>
<path fill="#BBCAD3" opacity="1.000000" stroke="none" 
	d="
M175.934906,383.471008 
	C171.493347,386.413940 167.123505,389.115936 162.603714,391.538055 
	C160.931564,392.434113 158.906799,392.672211 157.042862,393.210388 
	C156.827789,392.807404 156.612732,392.404449 156.397659,392.001495 
	C161.794479,388.510315 167.191315,385.019135 172.798355,381.267822 
	C173.988098,381.711426 174.967621,382.415192 175.934906,383.471008 
z"/>
<path fill="#8B99A2" opacity="1.000000" stroke="none" 
	d="
M324.464386,404.427734 
	C324.528137,404.386658 324.400635,404.468811 324.464386,404.427734 
z"/>
<path fill="#BECCD6" opacity="1.000000" stroke="none" 
	d="
M181.487915,365.996460 
	C180.457962,367.014221 179.098877,367.988068 177.372086,368.907898 
	C169.039917,363.298218 161.106567,357.696991 153.088974,352.219055 
	C151.098541,350.859131 148.835419,349.898285 146.968735,348.258789 
	C160.107147,350.790680 170.657593,358.323730 181.487915,365.996460 
z"/>
<path fill="#BACAD3" opacity="1.000000" stroke="none" 
	d="
M175.626648,369.877167 
	C175.490738,370.919373 175.034317,371.841125 174.316589,372.961700 
	C167.190750,369.122223 160.326187,365.083954 153.461639,361.045654 
	C153.790207,360.431305 154.118774,359.816956 154.447342,359.202606 
	C161.400269,362.720642 168.353195,366.238708 175.626648,369.877167 
z"/>
<path fill="#BBCAD3" opacity="1.000000" stroke="none" 
	d="
M154.029602,393.260498 
	C154.136520,393.412567 154.081833,393.568939 154.027145,393.725342 
	C153.974091,393.571808 153.921036,393.418304 154.029602,393.260498 
z"/>
<path fill="#BFCCD6" opacity="1.000000" stroke="none" 
	d="
M146.545197,406.532104 
	C146.491135,406.559479 146.599274,406.504730 146.545197,406.532104 
z"/>
<path fill="#FEE329" opacity="1.000000" stroke="none" 
	d="
M246.026001,184.985397 
	C254.464340,180.978409 268.530945,188.068573 272.047638,200.531540 
	C273.441101,205.469788 275.233246,210.300186 276.957306,215.139267 
	C278.783539,220.265182 282.350830,223.143616 287.859131,224.044724 
	C292.228302,224.759476 296.699890,225.700439 300.729340,227.453018 
	C307.954437,230.595459 308.674011,235.147507 303.526245,241.054398 
	C302.340240,242.415314 301.251648,243.861115 300.047272,245.865387 
	C299.977264,246.635666 299.978180,246.808411 299.979126,246.981171 
	C299.979126,246.981171 299.992584,246.994431 299.981628,246.984894 
	C297.580566,248.023987 295.039307,248.823257 292.826721,250.164597 
	C283.473602,255.834702 274.482178,262.173431 264.806366,267.206085 
	C260.520081,269.435486 254.921524,269.141876 249.455780,269.629486 
	C246.408737,265.933807 243.278534,262.890686 241.338760,259.218689 
	C234.427719,246.136185 235.325684,231.854614 236.409378,217.828278 
	C236.971924,210.547302 239.198517,203.343491 241.171661,196.243271 
	C242.255737,192.342255 244.374008,188.728622 246.026001,184.985397 
z"/>
<path fill="#F7CD32" opacity="1.000000" stroke="none" 
	d="
M245.657318,185.017792 
	C244.374008,188.728622 242.255737,192.342255 241.171661,196.243271 
	C239.198517,203.343491 236.971924,210.547302 236.409378,217.828278 
	C235.325684,231.854614 234.427719,246.136185 241.338760,259.218689 
	C243.278534,262.890686 246.408737,265.933807 249.001343,269.625427 
	C242.245377,271.153076 236.773422,267.774597 231.431549,264.586700 
	C221.414734,258.608887 211.618713,252.261124 201.386292,246.012482 
	C200.026123,244.313843 198.958267,242.699371 198.011353,241.016830 
	C197.250366,239.664673 196.165909,238.272079 196.036575,236.824905 
	C195.434464,230.087570 197.881531,227.649673 205.635086,225.891861 
	C210.422882,224.806412 215.238983,223.519485 219.753922,221.632721 
	C226.706909,218.727097 226.124146,211.277039 228.023315,205.621475 
	C230.453873,198.383469 232.835693,191.476593 239.883743,187.450485 
	C241.586731,186.477692 243.481857,185.841278 245.657318,185.017792 
z"/>
<path fill="#F0B737" opacity="1.000000" stroke="none" 
	d="
M300.158386,246.902069 
	C299.978180,246.808411 299.977264,246.635666 299.993530,246.203766 
	C300.185760,246.125534 300.378571,246.293991 300.521759,246.497391 
	C300.552490,246.541061 300.403748,246.711105 300.158386,246.902069 
z"/>
<path fill="#D2D9E1" opacity="1.000000" stroke="none" 
	d="
M242.220703,380.823853 
	C240.939514,380.992706 239.899796,380.992981 238.472656,380.987244 
	C238.216675,378.127289 238.348129,375.273346 238.740143,372.154510 
	C240.258179,373.028839 241.515671,374.168030 242.935074,375.624939 
	C242.907623,376.841156 242.718277,377.739716 242.784195,378.829865 
	C242.847046,379.566071 242.654617,380.110687 242.220703,380.823853 
z"/>
</svg>