<svg xmlns="http://www.w3.org/2000/svg" width="500" height="500" viewBox="0 0 500 500">
<g>
<path d="M 0.00 0.00 L 500.00 0.00 L 475.25 0.05 C451.26,0.09 450.60,0.15 453.91,1.80 C461.30,5.48 463.43,12.54 460.18,22.50 C455.00,38.32 436.65,80.00 434.86,80.00 C434.39,80.00 434.00,80.80 434.00,81.78 C434.00,82.75 432.70,84.98 431.11,86.72 C429.52,88.46 428.38,90.04 428.57,90.24 C428.77,90.43 427.37,93.05 425.47,96.05 C423.57,99.05 421.52,102.74 420.91,104.25 C420.30,105.76 419.40,107.00 418.90,107.00 C418.41,107.00 417.99,107.56 417.97,108.25 C417.93,109.96 398.28,136.58 393.06,142.00 C392.20,142.89 389.41,146.07 386.85,149.06 C378.74,158.55 377.80,159.51 376.89,159.25 C376.40,159.11 376.00,159.37 376.00,159.82 C376.00,160.81 370.32,167.29 369.84,166.85 C369.17,166.23 365.03,169.70 365.67,170.34 C366.04,170.70 365.88,171.00 365.34,171.00 C364.79,171.00 362.35,172.82 359.92,175.05 C357.49,177.28 353.49,180.52 351.02,182.25 C346.42,185.50 344.41,186.74 343.99,188.38 C343.69,189.60 344.25,191.03 345.27,193.65 C345.42,194.04 345.57,194.45 345.74,194.88 C347.14,198.52 349.00,204.97 349.89,209.21 C351.49,216.88 351.52,216.93 355.70,218.52 C367.06,222.86 373.57,241.46 369.61,258.27 C367.90,265.53 366.27,268.74 361.83,273.54 L 359.02 276.58 L 369.00 286.54 C374.49,292.02 378.99,296.84 378.99,297.25 C379.01,299.09 376.75,297.37 366.98,288.07 L 356.54 278.15 L 351.96 278.69 C345.88,279.41 339.95,276.40 335.78,270.49 C331.01,263.72 329.80,259.48 329.66,249.00 C329.46,233.82 334.22,223.47 343.39,219.16 C348.79,216.62 349.01,215.48 346.14,204.50 C343.72,195.25 339.00,186.13 332.41,177.98 C327.54,171.94 325.57,170.06 319.57,165.67 C317.67,164.28 317.67,164.16 319.48,159.38 C325.60,143.20 338.57,118.23 349.59,101.40 C370.13,70.02 394.71,41.50 421.34,18.15 C427.20,13.01 432.00,8.63 432.00,8.43 C432.00,7.70 427.27,9.91 403.50,21.79 C373.54,36.75 363.83,41.39 362.30,41.45 C361.63,41.48 360.51,42.21 359.80,43.08 C359.08,43.95 356.03,46.43 353.00,48.58 C349.98,50.74 344.43,55.31 340.67,58.75 C336.92,62.19 333.40,65.00 332.86,65.00 C332.32,65.00 332.14,65.42 332.46,65.93 C332.77,66.44 332.24,67.46 331.27,68.19 C329.53,69.48 327.67,71.93 322.03,80.31 C318.05,86.23 309.64,103.38 307.19,110.57 C304.55,118.34 300.67,133.99 298.55,145.47 C297.63,150.41 296.74,154.59 296.57,154.76 C296.40,154.93 294.29,154.56 291.88,153.94 C285.10,152.20 231.23,151.50 220.41,153.02 C219.38,153.16 218.43,153.30 217.56,153.42 C211.57,154.29 209.18,154.63 208.03,153.60 C207.10,152.77 206.96,151.05 206.36,148.00 C202.72,129.23 198.72,113.69 195.88,107.26 C194.84,104.93 194.00,102.62 194.00,102.14 C194.00,99.68 183.72,81.51 178.36,74.50 C167.61,60.44 151.25,46.11 138.60,39.67 C125.89,33.21 74.71,9.00 73.76,9.00 C73.18,9.00 75.58,11.54 79.10,14.65 C89.33,23.69 113.80,48.67 123.60,60.09 C141.21,80.60 157.36,103.95 169.32,126.18 C174.32,135.48 186.01,161.56 185.99,163.39 C185.98,164.00 182.83,167.35 178.97,170.84 C168.01,180.74 160.09,193.66 157.41,206.00 C155.28,215.80 155.40,216.31 160.40,218.74 C177.89,227.23 179.74,263.19 163.34,275.69 C160.12,278.14 158.77,278.50 152.77,278.50 L 145.89 278.50 L 141.69 283.13 C135.64,289.81 126.07,298.40 125.42,297.75 C124.67,297.00 127.22,293.00 128.45,293.00 C128.98,293.00 131.52,290.79 134.09,288.10 C136.67,285.40 139.67,282.71 140.76,282.13 C143.67,280.57 144.22,276.15 141.83,273.59 C134.03,265.26 131.15,251.49 134.36,237.85 C136.72,227.83 142.10,220.66 149.62,217.51 C152.29,216.40 152.84,215.53 153.44,211.55 C154.51,204.42 156.99,196.87 158.04,197.53 C158.56,197.85 158.93,197.07 158.85,195.80 C158.78,194.54 159.00,192.38 159.35,191.00 C159.72,189.56 159.46,187.87 158.74,187.00 C157.59,185.60 149.81,179.39 142.87,174.31 C139.81,172.07 113.58,146.00 114.38,146.00 C114.83,146.00 111.61,142.12 104.88,134.56 C102.89,132.33 100.51,128.93 99.58,127.00 L 97.90 123.50 L 100.02 126.00 C101.18,127.38 104.46,131.40 107.32,134.95 C120.08,150.85 139.28,170.02 152.00,179.57 C156.68,183.08 160.95,185.95 161.50,185.95 C162.05,185.95 163.62,184.28 165.00,182.24 C166.38,180.21 170.99,175.01 175.25,170.69 C179.51,166.37 183.00,162.60 183.00,162.32 C183.00,162.03 180.68,156.55 177.85,150.15 C165.01,121.09 150.39,97.38 128.43,70.00 C111.27,48.61 76.48,13.87 63.03,4.69 C58.01,1.26 49.47,3.57 46.35,9.19 C44.83,11.93 44.63,17.00 45.93,20.20 C46.44,21.47 48.08,25.88 49.58,30.00 C56.59,49.34 68.21,73.50 82.02,97.50 C83.29,99.70 85.00,102.85 85.83,104.50 C86.66,106.15 89.04,110.03 91.12,113.13 C93.21,116.22 94.64,119.03 94.31,119.36 C93.59,120.08 88.07,113.01 88.03,111.32 C88.01,110.67 87.44,109.55 86.75,108.82 C84.85,106.81 80.70,100.32 76.00,92.00 C73.66,87.88 71.04,83.38 70.16,82.00 C65.02,73.98 45.72,29.28 43.03,19.17 C40.96,11.38 43.73,4.94 50.46,1.88 C54.50,0.04 54.50,0.04 27.25,0.02 L 0.00 0.00 ZM 208.19 149.52 C209.11,151.55 209.85,151.98 211.44,151.45 C215.40,150.15 269.20,149.47 282.00,150.57 C288.88,151.15 294.64,151.54 294.81,151.43 C294.98,151.31 295.76,147.46 296.54,142.86 C298.54,131.11 299.94,125.39 303.64,114.00 C303.91,113.18 304.15,112.28 304.18,112.00 C304.38,110.00 310.07,96.23 313.08,90.47 C317.66,81.73 320.89,76.90 326.45,70.50 C328.84,67.75 332.42,63.54 334.40,61.16 C336.38,58.77 338.00,57.15 338.00,57.56 C338.00,57.97 339.01,57.17 340.25,55.78 C344.05,51.51 357.14,41.97 358.25,42.66 C358.87,43.04 359.01,42.83 358.60,42.15 C358.20,41.52 358.34,41.00 358.90,41.00 C359.45,41.00 361.62,39.84 363.71,38.42 C365.79,37.00 369.52,34.91 372.00,33.78 C380.44,29.93 396.48,22.25 416.50,12.48 C427.50,7.11 438.30,2.14 440.50,1.43 C443.80,0.36 410.87,0.14 252.00,0.17 C117.16,0.20 60.68,0.52 63.42,1.24 C65.58,1.81 73.14,5.14 80.21,8.64 C87.28,12.14 93.24,15.00 93.46,15.00 C94.03,15.00 128.20,32.03 137.69,37.04 C142.20,39.43 145.62,41.81 145.29,42.34 C144.96,42.87 145.21,42.99 145.84,42.60 C147.11,41.81 151.29,44.28 150.49,45.34 C150.22,45.70 150.28,45.79 150.63,45.54 C151.49,44.91 164.51,55.78 170.02,61.72 C179.00,71.42 183.15,76.94 182.41,78.23 C182.01,78.93 182.05,79.16 182.50,78.75 C183.25,78.07 188.68,85.69 190.87,90.50 C195.68,101.08 196.93,104.04 198.02,107.50 C198.71,109.70 199.62,112.40 200.05,113.50 C201.73,117.86 202.29,119.89 204.60,129.98 C205.92,135.75 207.00,141.91 207.00,143.68 C207.00,145.46 207.54,148.08 208.19,149.52 ZM 338.94 181.75 C340.63,184.09 342.41,186.00 342.89,186.00 C344.34,186.00 363.07,170.78 369.79,164.15 C373.25,160.73 376.51,158.20 377.03,158.52 C377.55,158.84 377.73,158.47 377.43,157.69 C377.13,156.89 378.11,155.23 379.69,153.87 C388.62,146.23 406.39,123.24 419.70,102.12 C426.75,90.93 442.06,60.90 447.54,47.50 C460.63,15.52 461.30,12.10 455.60,6.40 C451.22,2.02 446.11,1.76 440.39,5.63 C428.31,13.82 399.01,42.39 379.74,64.79 C374.04,71.42 358.19,92.87 351.79,102.61 C342.49,116.77 331.23,137.71 325.56,151.41 L 320.75 163.02 L 323.61 165.26 C327.52,168.32 335.22,176.61 338.94,181.75 ZM 243.84 500.00 L 238.00 500.00 L 238.02 496.25 C238.04,494.19 238.50,490.53 239.06,488.12 C239.61,485.71 239.92,483.59 239.74,483.41 C239.56,483.23 237.86,484.42 235.96,486.04 C229.59,491.49 217.95,498.12 215.90,497.47 C214.31,496.96 214.79,496.42 218.61,494.39 C231.03,487.78 241.67,478.06 245.52,469.79 C246.87,466.88 247.98,463.88 247.99,463.12 C248.00,461.06 241.32,462.23 235.03,465.39 L 234.94 465.44 C230.90,467.46 229.61,468.11 229.20,467.75 C229.00,467.58 229.00,467.19 229.00,466.60 L 229.00 466.57 C229.00,464.74 238.23,460.26 243.75,459.40 C247.59,458.81 248.00,458.47 248.00,455.92 C248.00,454.37 247.48,451.95 246.84,450.55 C245.90,448.49 244.97,448.00 241.99,448.00 C237.60,448.00 232.50,449.61 228.85,452.15 C225.78,454.28 223.65,454.56 224.24,452.75 C224.88,450.78 233.09,446.63 237.50,446.04 C242.24,445.40 242.57,444.04 238.47,442.06 C233.35,439.58 224.92,439.53 216.81,441.95 C209.44,444.14 195.62,451.36 191.00,455.43 C187.42,458.59 182.92,461.25 182.27,460.60 C180.67,459.01 193.45,449.30 204.39,443.80 C217.59,437.17 231.21,435.59 239.43,439.76 C242.08,441.09 241.90,440.71 237.65,435.87 C232.28,429.75 228.63,422.69 226.52,414.29 C224.92,407.92 224.13,396.54 225.21,395.46 C227.29,393.38 242.97,408.15 247.04,416.02 C248.32,418.48 250.13,423.20 251.07,426.50 C252.70,432.26 252.80,432.38 253.56,429.50 C256.18,419.49 267.44,396.06 274.36,386.23 C278.50,380.36 278.95,379.08 277.90,376.25 C277.26,374.52 276.31,374.02 273.78,374.07 C267.73,374.20 266.52,375.21 266.85,379.84 C267.08,383.03 266.42,385.28 263.96,389.58 C261.37,394.09 260.86,395.92 261.28,399.08 C261.69,402.08 261.47,403.00 260.36,403.00 C258.12,403.00 253.31,400.25 252.68,398.60 C252.22,397.41 251.56,397.34 249.20,398.23 C244.75,399.91 243.00,398.73 243.00,394.03 C243.00,391.81 242.53,390.00 241.95,390.00 C240.35,390.00 236.00,385.29 236.00,383.55 C236.00,382.49 236.96,382.00 239.04,382.00 C241.25,382.00 243.38,380.80 246.79,377.64 C252.52,372.33 254.95,371.00 258.91,371.00 C260.58,371.00 263.43,370.10 265.23,369.00 C267.38,367.69 270.27,367.01 273.69,367.00 C278.08,367.00 279.31,367.44 281.69,369.86 L 284.50 372.72 L 290.29 368.27 C296.09,363.81 304.87,360.00 309.33,360.00 C312.68,360.00 317.90,361.93 321.98,364.66 C323.90,365.95 326.20,367.00 327.10,367.00 C329.27,367.00 333.42,371.25 335.48,375.60 C336.91,378.61 340.94,382.08 344.50,383.35 C346.19,383.95 341.85,387.98 338.61,388.82 C336.15,389.46 335.38,390.34 334.67,393.31 C333.69,397.47 333.17,397.66 328.78,395.39 C325.91,393.90 325.44,393.90 322.92,395.39 C317.86,398.38 312.63,396.77 316.11,393.29 C316.80,392.60 316.99,390.50 316.61,387.84 C315.01,376.56 314.82,372.23 315.89,371.57 C317.74,370.42 317.15,369.31 314.02,368.01 C309.32,366.06 301.05,368.38 294.63,373.43 C292.83,374.84 292.89,375.04 296.13,378.33 C297.98,380.22 299.95,382.26 300.50,382.86 C301.05,383.47 302.73,384.98 304.24,386.23 C306.34,387.97 307.31,390.10 308.39,395.34 C309.40,400.25 310.59,403.01 312.63,405.13 C315.00,407.61 315.22,408.25 313.98,409.03 C312.45,410.00 310.01,410.34 306.47,410.07 C305.25,409.98 303.54,411.13 302.19,412.96 C299.47,416.64 298.87,416.69 295.85,413.52 C293.36,410.88 291.05,410.35 289.38,412.02 C288.70,412.70 287.34,412.52 285.18,411.44 C282.12,409.91 280.91,408.00 283.01,408.00 C284.97,408.00 287.99,401.51 288.00,397.32 C288.00,392.46 289.14,389.00 291.52,386.63 C293.75,384.39 291.74,381.77 288.12,382.20 C284.77,382.59 280.02,388.95 272.78,402.72 C268.07,411.69 260.00,430.47 260.00,432.47 C260.00,432.78 262.43,431.04 265.41,428.62 C268.38,426.19 273.31,423.28 276.35,422.14 C283.85,419.34 298.61,417.21 300.13,418.73 C301.82,420.42 298.00,425.94 290.32,432.87 L 283.78 438.77 L 288.83 440.45 C297.57,443.35 319.00,457.29 319.00,460.07 C319.00,461.94 316.82,460.90 310.68,456.07 C296.91,445.24 281.82,439.29 270.73,440.29 C265.01,440.81 259.45,443.31 260.44,444.91 C260.72,445.36 262.69,445.96 264.81,446.25 C269.11,446.82 275.97,450.82 275.99,452.75 C275.99,452.85 275.99,452.95 275.99,453.04 C276.00,453.39 276.01,453.64 275.89,453.75 C275.60,454.03 274.53,453.49 270.85,451.62 C270.47,451.42 270.05,451.21 269.61,450.99 C259.64,445.93 253.62,447.37 252.37,455.13 L 251.82 458.51 L 258.00 459.68 C264.00,460.82 272.00,465.01 272.00,467.01 C272.00,468.61 270.33,468.16 266.48,465.55 C262.57,462.90 254.42,461.18 252.91,462.69 C252.33,463.27 253.12,465.93 255.03,469.74 C258.80,477.30 267.73,485.86 278.49,492.27 C284.27,495.71 285.89,497.10 284.66,497.58 C280.08,499.34 256.85,480.53 252.64,471.67 C251.65,469.56 250.60,468.06 250.33,468.34 C249.66,469.01 248.41,474.66 246.54,485.55 C245.70,490.47 244.74,495.74 244.42,497.25 L 243.84 500.00 ZM 347.46 478.75 C347.93,480.33 347.72,481.00 346.74,481.00 C345.82,481.00 344.39,477.57 342.56,471.05 C336.97,451.03 326.97,429.81 318.67,420.36 L 314.83 416.00 L 323.67 415.98 C333.66,415.95 338.59,415.03 348.20,411.40 C361.68,406.30 374.03,396.43 381.83,384.50 C386.22,377.80 390.93,367.89 390.98,365.25 C390.99,364.56 391.42,364.00 391.94,364.00 C393.73,364.00 393.89,365.66 392.38,368.57 C391.54,370.18 390.83,371.73 390.80,372.00 C390.61,373.60 384.64,384.80 382.33,387.87 C378.02,393.60 366.80,404.99 365.97,404.48 C365.55,404.22 364.94,404.71 364.61,405.57 C364.28,406.43 363.62,406.88 363.14,406.59 C362.66,406.29 361.45,406.95 360.45,408.06 C359.45,409.17 358.04,409.84 357.31,409.57 C356.59,409.29 356.00,409.45 356.00,409.91 C356.00,410.75 352.23,412.32 350.75,412.11 C350.34,412.05 350.00,412.39 350.00,412.86 C350.00,414.67 331.22,418.80 322.14,418.99 C321.04,419.02 323.38,424.31 325.50,426.60 C330.98,432.50 340.00,453.93 347.46,478.75 ZM 295.06 407.92 C298.23,412.30 300.03,412.43 301.87,408.39 C302.54,406.91 303.48,406.18 304.15,406.59 C304.77,406.98 306.55,407.44 308.10,407.62 L 310.91 407.95 L 308.45 404.34 C306.97,402.15 306.00,399.29 306.00,397.11 C305.99,395.12 305.10,392.04 304.01,390.25 C301.32,385.83 298.01,385.90 294.91,390.42 C293.62,392.31 292.21,393.63 291.78,393.37 C291.35,393.10 291.00,393.56 291.00,394.38 C291.00,395.21 291.50,396.19 292.11,396.57 C292.76,396.97 292.99,398.65 292.68,400.58 C292.26,403.19 292.77,404.76 295.06,407.92 ZM 328.53 390.46 C330.16,392.32 331.64,393.70 331.82,393.51 C332.24,393.09 332.82,390.03 332.92,387.73 C332.98,386.43 333.73,386.02 335.78,386.18 C337.31,386.30 339.17,386.01 339.92,385.55 C340.97,384.90 340.69,384.39 338.72,383.36 C337.31,382.62 334.74,379.54 333.00,376.50 C329.62,370.59 327.20,368.69 323.70,369.19 C321.84,369.45 321.40,370.35 320.81,375.08 C320.43,378.15 320.04,381.07 319.94,381.58 C319.40,384.41 320.27,385.90 322.79,386.45 C324.32,386.79 326.91,388.59 328.53,390.46 ZM 255.42 397.25 L 257.35 400.50 L 258.01 397.00 C258.38,395.08 259.67,391.86 260.88,389.85 C263.86,384.91 264.89,380.94 263.89,378.24 C263.10,376.10 260.11,375.22 258.64,376.69 C258.26,377.07 256.98,377.53 255.80,377.71 C254.62,377.89 253.13,378.48 252.49,379.01 C251.84,379.55 251.09,379.76 250.81,379.48 C250.53,379.20 250.27,380.33 250.22,381.99 C250.10,386.18 249.04,389.14 247.90,388.44 C247.38,388.12 247.01,388.22 247.09,388.68 C247.17,389.13 247.14,389.73 247.02,390.00 C246.90,390.27 246.69,391.77 246.55,393.32 C246.30,396.21 247.15,396.39 252.16,394.50 C252.94,394.21 254.30,395.35 255.42,397.25 ZM 186.75 419.62 C181.42,424.29 181.08,424.40 181.30,421.36 C181.41,419.81 181.05,418.51 180.50,418.45 C179.20,418.33 168.71,417.08 163.23,416.40 C160.88,416.11 159.22,415.46 159.53,414.95 C159.85,414.44 159.41,414.29 158.55,414.62 C157.70,414.95 157.00,414.70 157.00,414.06 C157.00,413.43 156.44,413.00 155.75,413.10 C153.84,413.38 148.00,410.93 148.00,409.84 C148.00,409.31 147.55,409.16 147.00,409.50 C146.45,409.84 146.00,409.61 146.00,409.00 C146.00,408.39 145.55,408.16 145.00,408.50 C144.45,408.84 144.00,408.57 144.00,407.89 C144.00,407.22 143.71,406.95 143.36,407.31 C142.07,408.60 123.00,391.44 121.72,387.85 C120.59,384.64 122.20,385.22 125.83,389.32 C131.30,395.49 132.05,396.23 137.59,400.76 C148.98,410.07 165.66,415.96 180.75,415.98 C185.29,415.99 189.00,416.37 189.00,416.83 C189.00,417.28 187.99,418.54 186.75,419.62 ZM 159.61 479.25 C159.25,480.76 158.47,482.00 157.87,482.00 C156.70,482.00 157.44,474.57 159.00,470.62 C161.57,464.12 161.72,463.60 161.88,460.64 C161.94,459.34 163.12,456.62 164.50,454.60 C165.88,452.57 167.00,450.21 167.00,449.36 C167.00,446.61 177.14,426.99 179.10,425.94 C181.61,424.61 181.62,426.32 179.12,429.85 C172.08,439.81 164.12,459.95 159.61,479.25 ZM 351.36 239.42 C352.63,241.37 353.89,242.00 356.50,242.00 C363.01,242.00 365.25,233.44 359.43,230.79 C353.53,228.10 347.89,234.13 351.36,239.42 ZM 155.60 239.83 C157.95,243.20 163.98,242.56 165.80,238.75 C168.83,232.40 161.04,226.96 156.06,231.94 C153.59,234.41 153.45,236.77 155.60,239.83 ZM 110.26 339.75 C109.86,345.77 109.35,348.00 108.36,348.00 C107.47,348.00 107.00,346.78 107.00,344.50 C107.00,338.12 110.12,322.55 112.08,319.19 C113.13,317.37 114.00,315.24 114.00,314.44 C114.00,313.65 114.72,313.00 115.61,313.00 C116.75,313.00 117.00,313.51 116.48,314.75 C113.33,322.26 110.72,332.76 110.26,339.75 ZM 396.58 343.75 C397.09,348.15 396.93,349.00 395.60,349.00 C394.29,349.00 394.00,347.76 393.99,342.25 C393.97,334.26 392.02,325.37 388.59,317.62 C386.70,313.32 386.44,312.00 387.51,312.00 C390.04,312.00 395.73,327.94 395.89,335.50 C395.93,337.15 396.24,340.86 396.58,343.75 ZM 120.01 381.58 C120.59,383.07 120.44,383.67 119.48,383.67 C118.20,383.67 114.00,375.11 114.00,372.50 C114.00,371.82 113.06,370.07 111.90,368.61 C110.75,367.14 110.06,365.28 110.37,364.47 C111.16,362.43 113.00,362.62 113.00,364.75 C113.00,365.71 114.40,369.42 116.10,373.00 C117.80,376.58 119.56,380.44 120.01,381.58 ZM 359.25 252.34 C361.68,253.32 362.94,252.98 363.96,251.07 C364.74,249.61 364.61,248.75 363.43,247.57 C361.54,245.69 360.78,245.62 359.20,247.20 C357.63,248.77 357.66,251.70 359.25,252.34 ZM 163.25 252.35 C165.75,253.38 167.51,252.43 167.80,249.87 C168.15,246.88 165.58,245.27 163.37,247.11 C161.66,248.53 161.58,251.66 163.25,252.35 Z" fill="rgb(136,108,89)"/>
<path d="M 0.00 0.00 L 27.25 0.02 C54.50,0.04 54.50,0.04 50.46,1.88 C49.03,2.53 47.78,3.33 46.71,4.27 C47.79,3.19 49.06,2.20 50.53,1.31 C52.09,0.37 47.01,0.11 26.25,0.06 L 0.00 0.00 L 0.08 117.25 C0.12,181.40 0.32,233.50 0.51,233.50 L 0.52 233.50 C0.71,232.95 1.36,227.79 1.96,222.03 C4.00,202.25 10.18,176.89 17.46,158.41 C21.49,148.17 32.99,125.57 38.52,117.00 C44.97,107.01 56.47,91.83 62.98,84.71 L 68.25 78.95 L 66.24 74.63 C67.88,77.98 69.24,80.57 70.16,82.00 C71.04,83.38 73.66,87.88 76.00,92.00 C80.70,100.32 84.85,106.81 86.75,108.82 C87.44,109.55 88.01,110.67 88.03,111.32 C88.07,113.01 93.59,120.08 94.31,119.36 C94.64,119.03 93.21,116.22 91.12,113.13 C89.04,110.03 86.66,106.15 85.83,104.50 C85.00,102.85 83.29,99.70 82.02,97.50 C78.62,91.59 75.35,85.67 72.25,79.82 C65.95,68.02 60.05,55.70 55.26,44.38 C53.13,39.36 51.23,34.55 49.58,30.00 C51.21,34.51 53.13,39.35 55.26,44.38 C59.95,55.44 65.73,67.49 72.25,79.82 C72.98,81.18 73.72,82.54 74.46,83.89 C82.79,99.10 83.70,100.63 90.21,110.33 C108.49,137.55 127.89,159.06 150.00,176.64 C155.77,181.23 161.03,184.99 161.67,185.00 C162.32,185.00 163.89,183.57 165.17,181.83 C165.83,180.93 167.36,179.16 169.27,177.07 C167.31,179.27 165.72,181.19 165.00,182.24 C163.62,184.28 162.05,185.95 161.50,185.95 C160.95,185.95 156.68,183.08 152.00,179.57 C139.28,170.02 120.08,150.85 107.32,134.95 C104.46,131.40 101.18,127.38 100.02,126.00 L 97.90 123.50 L 99.58 127.00 C100.51,128.93 102.89,132.33 104.88,134.56 C111.61,142.12 114.83,146.00 114.38,146.00 C113.58,146.00 139.81,172.07 142.87,174.31 C149.81,179.39 157.59,185.60 158.74,187.00 C159.46,187.87 159.72,189.56 159.35,191.00 C159.00,192.38 158.78,194.54 158.85,195.80 C158.93,197.07 158.56,197.85 158.04,197.53 C156.99,196.87 154.51,204.42 153.44,211.55 C152.84,215.53 152.29,216.40 149.62,217.51 C142.10,220.66 136.72,227.83 134.36,237.85 C131.15,251.49 134.03,265.26 141.83,273.59 C144.22,276.15 143.67,280.57 140.76,282.13 C139.67,282.71 136.67,285.40 134.09,288.10 C131.52,290.79 128.98,293.00 128.45,293.00 C127.22,293.00 124.67,297.00 125.42,297.75 C126.07,298.40 135.64,289.81 141.69,283.13 L 145.89 278.50 L 152.77 278.50 C155.91,278.50 157.78,278.40 159.30,277.96 C157.83,278.40 156.09,278.52 153.31,278.53 L 146.97 278.56 L 136.70 288.80 L 126.43 299.04 L 118.96 298.08 C114.86,297.56 106.20,296.58 99.71,295.90 C88.43,294.72 87.81,294.75 85.21,296.68 C82.25,298.89 81.28,302.79 82.93,305.87 C84.41,308.63 88.54,309.66 103.75,311.04 C111.04,311.71 117.00,312.39 117.00,312.57 C117.00,312.62 116.90,312.96 116.72,313.54 C116.63,313.17 116.26,313.00 115.61,313.00 C114.72,313.00 114.00,313.65 114.00,314.44 C114.00,315.24 113.13,317.37 112.08,319.19 C110.12,322.55 107.00,338.12 107.00,344.50 C107.00,346.78 107.47,348.00 108.36,348.00 C108.99,348.00 109.43,347.08 109.77,344.84 L 109.50 348.38 L 100.00 350.69 C83.71,354.64 78.92,356.28 77.43,358.40 C74.02,363.27 77.47,369.01 83.79,368.99 C85.83,368.99 92.68,367.65 99.00,366.02 C106.08,364.20 109.58,363.31 111.31,363.22 C110.95,363.43 110.61,363.85 110.37,364.47 C110.06,365.28 110.75,367.14 111.90,368.61 C113.06,370.07 114.00,371.82 114.00,372.50 C114.00,375.11 118.20,383.67 119.48,383.67 C120.44,383.67 120.59,383.07 120.01,381.58 C119.56,380.44 117.80,376.58 116.10,373.00 C115.08,370.87 114.18,368.69 113.61,367.07 C114.47,369.35 116.13,373.00 118.04,376.70 C124.87,389.98 135.20,400.51 147.48,407.31 C143.91,405.39 140.57,403.19 137.59,400.76 C132.05,396.23 131.30,395.49 125.83,389.32 C122.20,385.22 120.59,384.64 121.72,387.85 C123.00,391.44 142.07,408.60 143.36,407.31 C143.71,406.95 144.00,407.22 144.00,407.89 C144.00,408.57 144.45,408.84 145.00,408.50 C145.55,408.16 146.00,408.39 146.00,409.00 C146.00,409.61 146.45,409.84 147.00,409.50 C147.55,409.16 148.00,409.31 148.00,409.84 C148.00,410.93 153.84,413.38 155.75,413.10 C156.44,413.00 157.00,413.43 157.00,414.06 C157.00,414.70 157.70,414.95 158.55,414.62 C159.41,414.29 159.85,414.44 159.53,414.95 C159.22,415.46 160.88,416.11 163.23,416.40 C168.71,417.08 179.20,418.33 180.50,418.45 C181.05,418.51 181.41,419.81 181.30,421.36 C181.08,424.40 181.42,424.29 186.75,419.62 C186.81,419.57 186.87,419.52 186.93,419.46 C186.09,420.56 185.07,421.87 183.96,423.24 C177.79,430.90 171.51,442.83 166.65,455.71 C170.53,445.07 174.99,435.70 179.12,429.85 C181.62,426.32 181.61,424.61 179.10,425.94 C177.14,426.99 167.00,446.61 167.00,449.36 C167.00,450.21 165.88,452.57 164.50,454.60 C163.12,456.62 161.94,459.34 161.88,460.64 C161.72,463.60 161.57,464.12 159.00,470.62 C157.58,474.21 156.84,480.67 157.59,481.82 C152.33,480.95 128.60,469.11 115.32,460.50 C98.02,449.29 87.47,440.63 71.50,424.52 C32.96,385.65 7.23,331.58 1.88,278.20 C1.29,272.31 0.63,267.31 0.41,267.08 L 0.40 267.08 C0.18,267.08 0.00,319.31 0.00,383.33 ZM 347.46 478.75 C340.00,453.93 330.98,432.50 325.50,426.60 C323.38,424.31 321.04,419.02 322.14,418.99 C331.22,418.80 350.00,414.67 350.00,412.86 C350.00,412.39 350.34,412.05 350.75,412.11 C352.23,412.32 356.00,410.75 356.00,409.91 C356.00,409.45 356.59,409.29 357.31,409.57 C358.04,409.84 359.45,409.17 360.45,408.06 C361.45,406.95 362.66,406.29 363.14,406.59 C363.62,406.88 364.28,406.43 364.61,405.57 C364.94,404.71 365.55,404.22 365.97,404.48 C366.80,404.99 378.02,393.60 382.33,387.87 C384.64,384.80 390.61,373.60 390.80,372.00 C390.83,371.73 391.54,370.18 392.38,368.57 C393.62,366.17 393.74,364.63 392.74,364.15 C394.38,364.28 397.51,365.02 403.50,366.49 C409.00,367.84 414.94,368.96 416.71,368.97 C420.43,369.00 424.00,365.79 424.00,362.42 C424.00,357.30 419.19,354.80 402.75,351.40 L 394.00 349.59 L 393.99 342.54 C393.97,337.65 393.30,332.55 392.03,327.58 C393.29,332.51 393.97,337.53 393.99,342.25 C394.00,347.76 394.29,349.00 395.60,349.00 C396.93,349.00 397.09,348.15 396.58,343.75 C396.24,340.86 395.93,337.15 395.89,335.50 C395.73,327.94 390.04,312.00 387.51,312.00 C387.18,312.00 386.98,312.12 386.91,312.42 C386.90,312.15 386.96,312.00 387.09,312.00 C388.87,312.00 407.42,309.99 410.81,309.43 C417.45,308.34 420.22,301.76 415.96,297.19 C413.50,294.55 412.25,294.53 392.50,296.95 L 377.50 298.78 L 367.15 288.45 L 362.73 284.03 L 366.98 288.07 C376.75,297.37 379.01,299.09 378.99,297.25 C378.99,296.84 374.49,292.02 369.00,286.54 L 359.02 276.58 L 361.83 273.54 C366.27,268.74 367.90,265.53 369.61,258.27 C373.57,241.46 367.06,222.86 355.70,218.52 C351.52,216.93 351.49,216.88 349.89,209.21 C349.00,204.97 347.14,198.52 345.74,194.88 C345.57,194.45 345.42,194.04 345.27,193.65 C344.25,191.03 343.69,189.60 343.99,188.38 C344.41,186.74 346.42,185.50 351.02,182.25 C353.49,180.52 357.49,177.28 359.92,175.05 C362.35,172.82 364.79,171.00 365.34,171.00 C365.88,171.00 366.04,170.70 365.67,170.34 C365.03,169.70 369.17,166.23 369.84,166.85 C370.32,167.29 376.00,160.81 376.00,159.82 C376.00,159.37 376.40,159.11 376.89,159.25 C377.80,159.51 378.74,158.55 386.85,149.06 C389.41,146.07 392.20,142.89 393.06,142.00 C398.28,136.58 417.93,109.96 417.97,108.25 C417.99,107.56 418.41,107.00 418.90,107.00 C419.40,107.00 420.30,105.76 420.91,104.25 C421.52,102.74 423.57,99.05 425.47,96.05 C427.37,93.05 428.77,90.43 428.57,90.24 C428.38,90.04 429.52,88.46 431.11,86.72 C432.70,84.98 434.00,82.75 434.00,81.78 C434.00,80.80 434.39,80.00 434.86,80.00 C435.28,80.00 436.59,77.75 438.42,74.11 L 435.14 80.99 L 442.71 90.25 C456.55,107.16 465.13,120.35 474.67,139.33 C487.07,164.04 496.39,197.17 498.54,224.25 C498.92,229.06 499.41,233.00 499.62,233.00 C499.83,233.00 500.00,180.57 500.00,116.50 L 500.00 500.00 L 499.87 383.75 C499.81,319.81 499.39,269.52 498.95,272.00 C498.51,274.48 498.11,278.66 498.07,281.31 C498.03,283.95 497.58,288.00 497.07,290.31 C496.56,292.61 495.60,297.42 494.94,301.00 C493.17,310.65 489.39,324.23 485.32,335.50 C467.21,385.73 434.16,427.82 389.07,458.07 C378.68,465.05 352.81,479.10 347.40,480.82 C347.79,480.53 347.80,479.87 347.46,478.75 ZM 208.19 149.52 C207.54,148.08 207.00,145.46 207.00,143.68 C207.00,141.91 205.92,135.75 204.60,129.98 C202.29,119.89 201.73,117.86 200.05,113.50 C199.62,112.40 198.71,109.70 198.02,107.50 C196.93,104.04 195.68,101.08 190.87,90.50 C188.68,85.69 183.25,78.07 182.50,78.75 C182.05,79.16 182.01,78.93 182.41,78.23 C183.15,76.94 179.00,71.42 170.02,61.72 C164.51,55.78 151.49,44.91 150.63,45.54 C150.28,45.79 150.22,45.70 150.49,45.34 C151.29,44.28 147.11,41.81 145.84,42.60 C145.21,42.99 144.96,42.87 145.29,42.34 C145.62,41.81 142.20,39.43 137.69,37.04 C131.87,33.96 116.75,26.36 105.81,20.95 C109.21,22.59 112.92,24.40 117.00,26.37 C122.22,28.90 127.05,30.98 127.72,30.99 C128.40,30.99 132.22,29.39 136.22,27.42 C162.87,14.30 190.51,5.84 218.00,2.38 C224.32,1.59 230.18,0.78 231.00,0.59 C231.01,0.58 231.01,0.58 231.01,0.58 C231.01,0.43 209.07,0.29 177.93,0.23 C199.35,0.19 223.98,0.18 252.00,0.17 C291.46,0.16 323.15,0.17 348.45,0.20 C277.10,0.26 268.17,0.45 277.64,1.54 C296.00,3.65 319.07,8.90 334.18,14.41 C345.47,18.52 362.19,25.84 368.42,29.39 L 374.28 32.73 C373.47,33.11 372.71,33.46 372.00,33.78 C369.52,34.91 365.79,37.00 363.71,38.42 C361.62,39.84 359.45,41.00 358.90,41.00 C358.34,41.00 358.20,41.52 358.60,42.15 C359.01,42.83 358.87,43.04 358.25,42.66 C357.14,41.97 344.05,51.51 340.25,55.78 C339.01,57.17 338.00,57.97 338.00,57.56 C338.00,57.15 336.38,58.77 334.40,61.16 C332.42,63.54 328.84,67.75 326.45,70.50 C320.89,76.90 317.66,81.73 313.08,90.47 C310.07,96.23 304.38,110.00 304.18,112.00 C304.15,112.28 303.91,113.18 303.64,114.00 C299.94,125.39 298.54,131.11 296.54,142.86 C295.76,147.46 294.98,151.31 294.81,151.43 C294.64,151.54 288.88,151.15 282.00,150.57 C269.20,149.47 215.40,150.15 211.44,151.45 C209.85,151.98 209.11,151.55 208.19,149.52 ZM 236.09 354.63 C230.75,358.70 226.89,358.98 223.45,355.55 C219.87,351.96 220.21,347.86 224.44,343.62 C227.42,340.65 236.74,335.42 242.25,333.63 C243.79,333.13 244.00,331.59 244.00,320.77 L 244.00 308.47 L 232.50 297.00 C222.46,286.99 221.00,285.11 221.00,282.22 C221.00,277.77 224.77,274.00 229.22,274.00 C232.08,274.00 233.85,275.31 242.00,283.50 C247.20,288.73 251.87,293.00 252.37,293.00 C252.87,293.00 257.63,288.73 262.95,283.50 C270.94,275.65 273.15,274.00 275.70,274.00 C280.47,274.00 283.45,277.01 283.45,281.83 C283.45,285.63 282.81,286.51 272.69,296.68 C266.76,302.63 261.49,308.17 260.97,309.00 C259.50,311.34 259.74,331.72 261.25,332.68 C261.94,333.11 264.89,334.45 267.81,335.65 C281.57,341.29 287.38,349.71 281.55,355.55 C278.24,358.85 273.71,358.77 269.64,355.35 C264.71,351.18 259.06,349.05 252.90,349.02 C245.83,348.99 241.66,350.39 236.09,354.63 ZM 342.53 185.84 L 345.49 183.57 C347.35,182.16 349.15,181.00 349.50,181.00 C350.29,181.00 366.05,167.04 375.77,157.72 C376.71,156.82 377.65,155.90 378.58,154.98 C377.68,156.04 377.21,157.10 377.43,157.69 C377.73,158.47 377.55,158.84 377.03,158.52 C376.51,158.20 373.25,160.73 369.79,164.15 C363.07,170.78 344.34,186.00 342.89,186.00 C342.80,186.00 342.68,185.94 342.53,185.84 ZM 370.01 38.27 C353.11,46.64 334.88,62.13 324.11,77.24 C328.17,71.29 329.77,69.31 331.27,68.19 C332.24,67.46 332.77,66.44 332.46,65.93 C332.14,65.42 332.32,65.00 332.86,65.00 C333.40,65.00 336.92,62.19 340.67,58.75 C344.43,55.31 349.98,50.74 353.00,48.58 C356.03,46.43 359.08,43.95 359.80,43.08 C360.51,42.21 361.63,41.48 362.30,41.45 C362.97,41.42 365.20,40.52 370.01,38.27 ZM 156.10 213.78 C156.12,212.12 156.60,209.74 157.41,206.00 C158.61,200.45 160.88,194.78 164.01,189.32 C160.49,196.18 156.98,206.34 156.32,211.93 ZM 167.65 183.60 C170.87,179.03 174.69,174.70 178.97,170.84 C179.63,170.24 180.28,169.64 180.89,169.06 C179.78,170.22 178.54,171.48 177.25,172.77 C173.84,176.17 170.15,180.36 167.65,183.60 ZM 379.70 153.86 C385.06,148.48 390.20,142.79 395.06,136.87 C389.01,144.45 383.54,150.58 379.70,153.86 ZM 407.57 120.19 C412.55,112.97 418.45,103.97 422.38,97.65 C421.40,99.35 420.49,100.86 419.70,102.12 C415.91,108.13 411.77,114.28 407.57,120.19 ZM 59.71 60.55 C52.63,45.03 45.19,26.69 43.22,19.82 C45.21,26.66 52.87,45.25 59.71,60.55 ZM 443.29 63.81 C449.42,50.33 457.11,31.87 460.18,22.50 C460.75,20.76 461.15,19.10 461.39,17.54 C461.15,19.10 460.75,20.76 460.18,22.50 C457.08,31.96 449.76,49.83 443.29,63.81 ZM 440.50 1.43 C439.35,1.80 435.83,3.35 431.16,5.50 C435.88,3.23 439.26,1.62 440.00,1.28 C440.15,1.21 440.16,1.15 440.02,1.09 C440.78,1.19 440.89,1.30 440.50,1.43 ZM 79.04 8.07 C82.76,9.83 87.43,12.07 93.56,15.03 C93.51,15.01 93.47,15.00 93.46,15.00 C93.24,15.00 87.28,12.14 80.21,8.64 C79.82,8.45 79.43,8.26 79.04,8.07 ZM 324.24 428.04 C322.03,424.56 319.80,421.58 317.63,419.25 L 314.61 416.00 L 323.55 415.98 L 314.83 416.00 L 318.67 420.36 C320.47,422.41 322.35,425.01 324.24,428.04 ZM 437.08 69.94 C441.53,60.88 445.63,52.14 447.54,47.50 C449.14,43.59 450.55,40.11 451.79,37.00 C450.55,40.11 449.14,43.59 447.54,47.50 C445.29,53.00 441.39,61.29 437.08,69.94 ZM 63.94 1.07 C63.87,1.12 63.89,1.16 64.00,1.20 C66.10,2.10 68.11,2.98 70.65,4.14 C67.29,2.65 64.58,1.55 63.42,1.24 C63.20,1.18 63.37,1.13 63.94,1.07 ZM 188.91 416.70 C188.31,416.31 184.87,415.99 180.75,415.98 C185.29,415.99 189.00,416.22 189.00,416.49 C189.00,416.53 188.97,416.60 188.91,416.70 ZM 185.98 163.25 C185.75,161.87 182.79,154.82 179.27,146.98 C182.92,155.06 186.00,162.32 186.00,163.16 C186.00,163.18 185.99,163.21 185.98,163.25 ZM 112.99 325.04 C113.79,322.14 114.72,319.27 115.71,316.67 C115.20,318.23 114.58,320.12 113.90,322.13 C113.58,323.08 113.28,324.05 112.99,325.04 ZM 162.54 276.28 C162.79,276.10 163.06,275.90 163.34,275.69 C172.88,268.42 176.24,253.21 173.95,240.08 C176.27,253.20 172.91,268.39 163.34,275.69 C163.06,275.90 162.79,276.10 162.54,276.28 ZM 321.91 80.49 C319.22,84.75 315.47,91.88 312.34,98.49 C315.61,91.56 319.51,84.11 321.91,80.49 ZM 346.68 481.00 C346.66,481.00 346.63,481.00 346.60,481.00 C345.88,481.00 344.57,478.03 343.30,473.57 C344.74,478.34 345.90,480.88 346.68,481.00 ZM 158.23 481.87 C158.45,481.72 158.67,481.46 158.88,481.11 C158.75,481.46 158.65,481.69 158.58,481.75 C158.51,481.82 158.40,481.86 158.23,481.87 ZM 344.85 277.82 C341.42,276.55 338.30,274.06 335.78,270.49 C338.28,274.04 341.42,276.54 344.85,277.82 ZM 330.55 171.88 C333.69,175.20 336.91,178.94 338.94,181.75 C336.87,178.91 333.67,175.18 330.55,171.88 ZM 112.99 364.54 C112.97,364.11 112.86,363.77 112.70,363.52 C112.92,363.75 112.98,364.09 112.99,364.54 ZM 391.26 364.38 C391.09,364.60 390.98,364.91 390.98,365.25 C390.98,364.86 391.04,364.57 391.26,364.38 ZM 160.38 476.05 C160.55,475.40 160.71,474.76 160.88,474.11 C160.72,474.78 160.55,475.42 160.38,476.05 ZM 330.55 171.88 C327.94,169.12 325.39,166.65 323.61,165.26 C325.39,166.66 327.94,169.12 330.55,171.88 Z" fill="rgb(249,129,103)"/>
<path d="M 370.01 38.27 C376.19,35.36 386.64,30.21 403.50,21.79 C411.76,17.66 417.72,14.70 421.98,12.63 C417.71,14.80 413.70,17.05 415.17,16.62 C417.25,16.00 418.44,18.77 416.89,20.63 C416.27,21.38 416.15,21.98 416.63,21.97 C416.81,21.96 417.50,21.47 418.52,20.65 C392.98,43.53 369.40,71.13 349.59,101.40 C338.57,118.23 325.60,143.20 319.48,159.38 C317.67,164.16 317.67,164.28 319.57,165.67 C325.57,170.06 327.54,171.94 332.41,177.98 C339.00,186.13 343.72,195.25 346.14,204.50 C349.01,215.48 348.79,216.62 343.39,219.16 C334.22,223.47 329.46,233.82 329.66,249.00 C329.80,259.48 331.01,263.72 335.78,270.49 C338.28,274.04 341.42,276.54 344.85,277.82 L 344.85 277.82 C347.13,278.67 349.53,278.98 351.96,278.69 L 356.54 278.15 L 362.73 284.03 L 367.15 288.45 L 376.39 297.67 C376.10,297.52 375.84,297.33 375.58,297.11 C374.52,296.22 373.97,296.03 374.34,296.68 C374.72,297.33 374.61,298.12 374.09,298.44 C373.57,298.76 364.00,299.90 352.82,300.97 C300.83,305.94 300.21,306.05 298.15,310.56 C296.84,313.45 298.02,317.33 300.69,318.89 C303.34,320.43 305.88,320.30 338.64,316.94 C383.05,312.38 383.62,312.35 386.16,314.61 C387.27,315.59 387.80,316.06 387.88,315.96 C388.09,316.46 388.32,317.01 388.59,317.62 C390.00,320.79 391.16,324.16 392.03,327.58 C393.30,332.55 393.97,337.65 393.99,342.54 L 394.00 348.38 C393.94,347.75 392.99,347.47 391.71,347.72 C389.33,348.17 387.81,347.83 347.00,337.86 C316.83,330.48 313.03,329.97 310.13,332.87 C307.73,335.27 307.39,339.62 309.40,342.26 C310.76,344.06 312.74,344.59 364.25,356.99 C378.41,360.40 390.00,363.56 390.00,364.00 C390.00,364.35 390.48,364.54 391.16,364.49 C391.02,364.68 390.98,364.93 390.98,365.25 C390.93,367.89 386.22,377.80 381.83,384.50 C374.03,396.43 361.68,406.30 348.20,411.40 C338.59,415.03 333.66,415.95 323.67,415.98 L 323.55 415.98 L 314.61 416.00 L 317.63 419.25 C319.80,421.58 322.03,424.56 324.24,428.04 L 324.24 428.04 C331.10,438.95 338.18,455.37 342.56,471.05 C342.82,471.95 343.06,472.79 343.30,473.57 C344.57,478.03 345.88,481.00 346.60,481.00 C346.63,481.00 346.66,481.00 346.68,481.00 C346.70,481.00 346.72,481.00 346.74,481.00 C347.02,481.00 347.24,480.94 347.40,480.82 C352.81,479.10 378.68,465.05 389.07,458.07 C434.16,427.82 467.21,385.73 485.32,335.50 C489.39,324.23 493.17,310.65 494.94,301.00 C495.60,297.42 496.56,292.61 497.07,290.31 C497.58,288.00 498.03,283.95 498.07,281.31 C498.08,280.82 498.10,280.29 498.13,279.72 C498.26,280.42 498.59,280.76 499.00,280.50 C499.10,280.44 499.19,280.29 499.28,280.06 C499.58,296.56 499.82,336.42 499.87,383.75 L 500.00 500.00 L 243.84 500.00 L 261.17 499.97 C280.23,499.93 283.92,499.36 278.25,495.48 C281.16,497.16 283.50,498.02 284.66,497.58 C285.01,497.44 285.13,497.24 284.99,496.93 C285.23,497.21 285.32,497.41 285.23,497.50 C284.83,497.94 285.62,497.96 287.00,497.54 C288.38,497.13 290.95,496.57 292.71,496.29 C299.34,495.26 298.54,493.56 289.25,488.92 C280.57,484.57 271.01,478.42 270.99,477.16 C270.99,476.80 269.43,475.44 267.53,474.15 C265.63,472.85 264.15,471.50 264.26,471.15 C264.36,470.79 263.59,469.22 262.55,467.66 C261.02,465.37 260.91,464.67 262.00,464.00 C262.26,463.84 262.34,463.68 262.25,463.52 C263.84,464.08 265.34,464.78 266.48,465.55 C270.33,468.16 272.00,468.61 272.00,467.01 C272.00,465.01 264.00,460.82 258.00,459.68 L 254.40 459.00 C254.47,459.00 254.55,459.00 254.62,459.00 C256.58,459.00 256.99,458.68 256.26,457.75 C255.72,457.06 254.94,455.15 254.52,453.50 C254.13,451.93 253.91,451.24 253.65,451.29 C256.14,447.06 261.60,446.92 269.61,450.99 C270.05,451.21 270.47,451.42 270.85,451.62 C274.53,453.49 275.60,454.03 275.89,453.75 C276.01,453.64 276.00,453.39 275.99,453.04 C275.99,452.95 275.99,452.85 275.99,452.75 C275.97,450.82 269.11,446.82 264.81,446.25 C262.69,445.96 260.72,445.36 260.44,444.91 C259.45,443.31 265.01,440.81 270.73,440.29 C281.82,439.29 296.91,445.24 310.68,456.07 C316.82,460.90 319.00,461.94 319.00,460.07 C319.00,457.29 297.57,443.35 288.83,440.45 L 283.78 438.77 L 290.32 432.87 C298.00,425.94 301.82,420.42 300.13,418.73 C299.32,417.92 294.77,418.15 289.55,418.95 C293.81,418.25 297.57,417.92 298.95,418.28 C300.08,418.57 301.00,418.42 301.00,417.94 C301.00,417.46 301.79,417.36 302.75,417.73 C304.39,418.35 304.39,418.28 302.82,416.70 C301.98,415.85 300.75,415.34 299.94,415.49 C300.56,415.07 301.25,414.23 302.19,412.96 C303.54,411.13 305.25,409.98 306.47,410.07 C310.01,410.34 312.45,410.00 313.98,409.03 C315.22,408.25 315.00,407.61 312.63,405.13 C310.59,403.01 309.40,400.25 308.39,395.34 C307.31,390.10 306.34,387.97 304.24,386.23 C302.73,384.98 301.05,383.47 300.50,382.86 C299.95,382.26 297.98,380.22 296.13,378.33 C292.89,375.04 292.83,374.84 294.63,373.43 C301.05,368.38 309.32,366.06 314.02,368.01 C317.15,369.31 317.74,370.42 315.89,371.57 C314.82,372.23 315.01,376.56 316.61,387.84 C316.99,390.50 316.80,392.60 316.11,393.29 C312.63,396.77 317.86,398.38 322.92,395.39 C325.44,393.90 325.91,393.90 328.78,395.39 C333.17,397.66 333.69,397.47 334.67,393.31 C335.38,390.34 336.15,389.46 338.61,388.82 C341.85,387.98 346.19,383.95 344.50,383.35 C340.94,382.08 336.91,378.61 335.48,375.60 C333.42,371.25 329.27,367.00 327.10,367.00 C326.20,367.00 323.90,365.95 321.98,364.66 C317.90,361.93 312.68,360.00 309.33,360.00 C304.87,360.00 296.09,363.81 290.29,368.27 L 284.50 372.72 L 281.69 369.86 C279.31,367.44 278.08,367.00 273.69,367.00 C270.27,367.01 267.38,367.69 265.23,369.00 C263.43,370.10 260.58,371.00 258.91,371.00 C254.95,371.00 252.52,372.33 246.79,377.64 C243.38,380.80 241.25,382.00 239.04,382.00 C236.96,382.00 236.00,382.49 236.00,383.55 C236.00,385.29 240.35,390.00 241.95,390.00 C242.53,390.00 243.00,391.81 243.00,394.03 C243.00,398.73 244.75,399.91 249.20,398.23 C251.56,397.34 252.22,397.41 252.68,398.60 C253.31,400.25 258.12,403.00 260.36,403.00 C261.47,403.00 261.69,402.08 261.28,399.08 C260.86,395.92 261.37,394.09 263.96,389.58 C266.42,385.28 267.08,383.03 266.85,379.84 C266.52,375.21 267.73,374.20 273.78,374.07 C276.31,374.02 277.26,374.52 277.90,376.25 C278.95,379.08 278.50,380.36 274.36,386.23 C270.05,392.36 264.05,403.77 259.50,413.92 C259.65,413.56 259.80,413.21 259.95,412.87 C262.05,407.99 263.37,404.00 262.89,404.00 C262.40,404.00 262.00,404.50 262.00,405.11 C262.00,405.83 261.03,405.96 259.25,405.49 C255.56,404.51 249.99,404.21 249.52,404.96 C249.31,405.30 247.06,405.50 244.51,405.40 C241.23,405.28 239.09,404.54 237.20,402.86 C235.72,401.56 236.89,403.07 239.79,406.22 C240.92,407.45 242.03,408.81 243.09,410.26 C236.89,402.60 226.84,393.82 225.21,395.46 C224.84,395.83 224.69,397.38 224.71,399.52 L 224.11 403.50 C223.58,406.99 223.05,407.64 220.00,408.62 C211.39,411.36 209.38,411.27 205.63,407.98 C195.34,398.94 186.37,374.61 185.74,353.99 C185.50,346.00 185.52,345.94 188.75,343.41 C192.71,340.30 193.22,335.41 189.91,332.42 C186.33,329.18 185.82,327.36 187.43,323.52 C188.81,320.22 189.18,320.00 193.49,320.00 C197.04,320.00 198.65,319.44 200.55,317.55 C201.90,316.20 203.00,314.27 203.00,313.27 C203.00,310.30 200.14,307.09 196.71,306.21 C192.08,305.02 191.94,301.39 196.24,294.17 C208.26,273.99 210.07,264.94 209.79,226.50 C209.64,204.62 210.40,197.72 214.22,186.50 C220.52,168.00 229.79,154.84 237.90,152.87 C239.16,152.56 238.99,152.35 237.92,152.24 C257.96,151.98 287.02,152.69 291.88,153.94 C294.29,154.56 296.40,154.93 296.57,154.76 C296.74,154.59 297.63,150.41 298.55,145.47 C300.67,133.99 304.55,118.34 307.19,110.57 C308.17,107.69 310.11,103.21 312.34,98.49 C312.34,98.49 312.34,98.49 312.34,98.49 C315.47,91.88 319.22,84.75 321.91,80.49 C321.95,80.43 321.99,80.37 322.03,80.31 C322.79,79.19 323.48,78.17 324.11,77.24 C334.88,62.13 353.11,46.64 370.01,38.27 ZM 219.67 499.33 C220.03,499.70 224.31,500.00 229.17,500.00 L 0.00 500.00 L 0.00 383.33 C0.00,335.00 0.10,293.40 0.25,275.90 C0.36,277.15 0.52,278.17 0.72,278.67 C1.58,280.84 1.94,279.68 1.72,276.65 C1.78,277.16 1.83,277.68 1.88,278.20 C7.23,331.58 32.96,385.65 71.50,424.52 C87.47,440.63 98.02,449.29 115.32,460.50 C128.60,469.11 152.33,480.95 157.59,481.82 C157.65,481.91 157.72,481.97 157.79,481.99 C158.20,483.47 196.38,494.54 206.24,495.96 C208.84,496.33 211.28,496.94 211.65,497.32 C212.03,497.69 213.27,497.99 214.42,497.98 C215.91,497.97 216.18,497.84 215.41,497.28 C215.54,497.34 215.70,497.41 215.90,497.47 C216.88,497.78 220.03,496.44 223.76,494.36 C218.98,497.34 218.47,498.13 219.67,499.33 ZM 0.00 0.00 L 26.25 0.06 C47.01,0.11 52.09,0.37 50.53,1.31 C49.06,2.20 47.79,3.19 46.71,4.27 C42.77,7.74 41.40,13.04 43.03,19.17 C43.09,19.37 43.15,19.59 43.22,19.82 L 43.22 19.83 C45.20,26.70 52.63,45.04 59.71,60.55 C62.07,65.84 64.34,70.74 66.24,74.63 L 68.25 78.95 L 62.98 84.71 C56.47,91.83 44.97,107.01 38.52,117.00 C32.99,125.57 21.49,148.17 17.46,158.41 C10.18,176.89 4.00,202.25 1.96,222.03 C1.65,224.98 1.33,227.78 1.07,229.88 C1.18,228.93 1.30,227.80 1.42,226.50 C1.89,221.57 1.79,219.94 1.06,221.00 C0.79,221.39 0.55,222.33 0.36,223.57 C0.23,205.48 0.11,164.66 0.08,117.25 ZM 443.29 63.81 C449.76,49.83 457.08,31.96 460.18,22.50 C460.75,20.76 461.15,19.10 461.39,17.54 C461.41,17.43 461.43,17.32 461.44,17.21 C461.52,16.65 461.58,16.11 461.61,15.58 L 461.61 15.58 C462.04,9.22 459.45,4.56 453.91,1.80 L 453.88 1.78 C453.86,1.63 453.73,1.37 453.50,1.00 C453.39,0.82 453.22,0.64 453.02,0.50 C454.72,0.11 460.68,0.08 475.25,0.05 L 500.00 0.00 L 500.00 116.50 C500.00,163.16 499.91,203.65 499.78,222.20 C499.68,220.28 499.39,219.03 498.92,218.60 C498.33,218.05 498.07,218.25 498.10,219.51 C495.30,193.37 486.36,162.61 474.67,139.33 C465.13,120.35 456.55,107.16 442.71,90.25 L 435.14 80.99 L 438.42 74.11 C439.80,71.35 441.47,67.80 443.29,63.81 ZM 236.09 354.63 C241.66,350.39 245.83,348.99 252.90,349.02 C259.06,349.05 264.71,351.18 269.64,355.35 C273.71,358.77 278.24,358.85 281.55,355.55 C287.38,349.71 281.57,341.29 267.81,335.65 C264.89,334.45 261.94,333.11 261.25,332.68 C259.74,331.72 259.50,311.34 260.97,309.00 C261.49,308.17 266.76,302.63 272.69,296.68 C282.81,286.51 283.45,285.63 283.45,281.83 C283.45,277.01 280.47,274.00 275.70,274.00 C273.15,274.00 270.94,275.65 262.95,283.50 C257.63,288.73 252.87,293.00 252.37,293.00 C251.87,293.00 247.20,288.73 242.00,283.50 C233.85,275.31 232.08,274.00 229.22,274.00 C224.77,274.00 221.00,277.77 221.00,282.22 C221.00,285.11 222.46,286.99 232.50,297.00 L 244.00 308.47 L 244.00 320.77 C244.00,331.59 243.79,333.13 242.25,333.63 C236.74,335.42 227.42,340.65 224.44,343.62 C220.21,347.86 219.87,351.96 223.45,355.55 C226.89,358.98 230.75,358.70 236.09,354.63 ZM 438.50 1.00 C438.15,1.57 438.22,1.89 438.60,1.94 C437.05,2.68 434.43,3.93 431.16,5.50 C426.92,7.46 421.73,9.93 416.50,12.48 C398.15,21.43 383.15,28.63 374.28,32.73 L 368.42 29.39 C362.19,25.84 345.47,18.52 334.18,14.41 C319.63,9.11 297.72,4.05 279.73,1.79 C281.24,1.82 281.09,1.68 279.50,1.00 C279.17,0.86 278.64,0.73 277.97,0.62 C285.38,0.32 305.73,0.24 348.45,0.20 C407.48,0.28 431.69,0.49 438.53,0.95 C438.52,0.97 438.51,0.98 438.50,1.00 ZM 220.00 1.00 C218.85,1.74 219.62,2.04 221.92,1.88 C220.66,2.05 219.34,2.22 218.00,2.38 C190.51,5.84 162.87,14.30 136.22,27.42 C132.22,29.39 128.40,30.99 127.72,30.99 C127.05,30.98 122.22,28.90 117.00,26.37 C112.92,24.40 109.21,22.59 105.81,20.95 C99.35,17.75 94.34,15.32 93.56,15.03 C87.43,12.07 82.76,9.83 79.04,8.07 C76.14,6.65 73.20,5.28 70.65,4.14 C68.75,3.28 67.14,2.56 65.58,1.88 C65.79,1.76 65.79,1.47 65.50,1.00 C65.50,0.99 65.49,0.98 65.49,0.98 C74.23,0.57 109.88,0.33 177.93,0.23 C197.20,0.27 212.94,0.34 222.15,0.42 C221.13,0.57 220.35,0.77 220.00,1.00 ZM 244.40 457.41 C243.96,458.55 244.38,459.00 245.89,459.00 L 245.91 459.00 C245.35,459.14 244.64,459.26 243.75,459.40 C238.23,460.26 229.00,464.74 229.00,466.57 L 229.00 466.60 C229.00,467.19 229.00,467.58 229.20,467.75 C229.61,468.11 230.90,467.46 234.94,465.44 L 235.03 465.39 C237.07,464.37 239.15,463.55 241.04,462.99 C240.62,463.42 240.47,464.06 240.70,464.65 C241.04,465.55 239.74,467.71 237.38,470.13 C227.43,480.36 216.29,486.01 205.84,486.14 C199.26,486.22 196.86,485.57 191.68,482.30 C184.77,477.94 180.74,465.32 184.75,460.60 C185.31,459.93 185.68,459.49 185.87,459.25 C187.45,458.27 189.33,456.91 191.00,455.43 C195.62,451.36 209.44,444.14 216.81,441.95 C224.92,439.53 233.35,439.58 238.47,442.06 L 238.50 442.07 C238.25,442.19 238.21,442.53 238.57,443.11 C238.95,443.72 238.64,444.62 237.88,445.10 C236.99,445.66 236.98,445.90 237.98,445.97 C237.83,445.99 237.67,446.01 237.50,446.04 C233.09,446.63 224.88,450.78 224.24,452.75 C223.65,454.56 225.78,454.28 228.85,452.15 C232.50,449.61 237.60,448.00 241.99,448.00 C244.97,448.00 245.90,448.49 246.84,450.55 C247.02,450.95 247.20,451.44 247.35,451.96 C246.83,451.11 246.10,451.46 245.61,453.41 C245.28,454.73 244.73,456.53 244.40,457.41 ZM 284.81 411.25 C283.49,410.65 282.26,410.34 281.93,410.55 C281.53,410.79 280.95,410.32 280.64,409.49 C280.32,408.67 278.89,408.00 277.47,408.00 C276.04,408.00 274.01,407.54 272.96,406.98 C271.81,406.36 271.18,406.40 270.27,407.75 C271.16,405.89 272.02,404.18 272.78,402.72 C280.02,388.95 284.77,382.59 288.12,382.20 C291.74,381.77 293.75,384.39 291.52,386.63 C289.14,389.00 288.00,392.46 288.00,397.32 C287.99,401.51 284.97,408.00 283.01,408.00 C281.00,408.00 282.02,409.76 284.81,411.25 ZM 228.16 419.69 C226.20,414.49 225.02,409.07 224.86,404.04 L 224.78 401.64 C224.99,405.65 225.63,410.74 226.52,414.29 C226.99,416.15 227.54,417.95 228.16,419.69 ZM 221.74 492.64 C226.46,489.66 232.44,485.27 236.22,481.84 C232.14,485.71 227.16,489.45 221.74,492.64 ZM 499.20 230.39 C499.30,232.09 499.55,230.41 499.74,226.65 C499.70,230.76 499.66,233.00 499.62,233.00 C499.41,233.00 498.92,229.06 498.54,224.25 C498.50,223.74 498.46,223.23 498.41,222.72 C498.75,225.36 499.09,228.75 499.20,230.39 ZM 428.90 9.36 C431.26,8.31 432.00,8.14 432.00,8.43 C432.00,8.58 429.23,11.15 425.32,14.63 C431.61,8.76 432.03,8.12 429.00,9.32 C428.97,9.33 428.93,9.34 428.90,9.36 ZM 275.12 493.52 C270.37,490.70 264.00,485.21 259.17,480.12 C263.82,484.93 269.95,490.05 275.12,493.52 ZM 239.24 478.76 C241.63,476.01 244.00,472.53 245.67,469.46 C245.62,469.57 245.57,469.68 245.52,469.79 C244.18,472.67 242.01,475.72 239.24,478.76 ZM 215.14 497.09 C215.10,497.06 215.05,497.03 215.00,497.00 C213.67,496.14 213.67,496.03 215.00,496.02 C215.33,496.01 215.83,495.86 216.48,495.58 C215.22,496.34 214.84,496.77 215.14,497.09 ZM 251.51 428.03 C251.37,427.58 251.23,427.06 251.07,426.50 C250.51,424.52 249.63,422.04 248.75,419.84 C250.11,422.77 251.09,425.61 251.51,428.03 ZM 422.31 366.41 C425.16,363.02 424.26,359.31 420.30,356.68 C422.99,358.27 424.00,360.07 424.00,362.42 C424.00,363.86 423.35,365.27 422.31,366.41 ZM 387.50 314.99 C387.39,314.78 387.26,314.53 387.11,314.25 C386.30,312.71 386.27,312.00 387.00,312.00 C387.94,312.00 393.20,311.48 398.59,310.90 C393.22,311.48 388.00,312.00 387.09,312.00 C386.96,312.00 386.90,312.15 386.91,312.42 C386.81,312.86 386.99,313.66 387.50,314.99 ZM 1.38 273.51 C1.31,273.03 1.23,272.52 1.14,271.99 L 0.38 267.36 C0.39,267.18 0.40,267.08 0.40,267.08 L 0.41 267.08 C0.57,267.25 0.95,269.87 1.38,273.51 ZM 260.00 432.47 C260.00,431.59 261.57,427.43 263.74,422.29 C261.74,427.27 260.00,431.91 260.00,432.47 ZM 182.22 459.85 C182.31,459.49 182.56,459.03 183.00,458.50 C183.96,457.34 186.00,455.62 188.58,453.71 C185.15,456.31 182.71,458.61 182.22,459.85 ZM 252.75 458.68 L 251.82 458.51 L 252.07 456.98 C252.07,457.87 252.24,458.39 252.75,458.68 ZM 414.36 368.72 C416.47,368.94 418.03,368.86 419.26,368.50 C418.45,368.81 417.58,368.98 416.71,368.97 C416.22,368.97 415.40,368.88 414.36,368.72 ZM 257.57 462.33 C255.31,462.09 253.37,462.23 252.91,462.69 C253.55,462.05 255.38,461.99 257.57,462.33 ZM 184.76 459.89 L 184.73 459.91 C183.71,460.70 182.90,460.90 182.48,460.70 C182.89,460.75 183.72,460.44 184.76,459.89 ZM 247.99 463.18 C247.94,462.63 247.20,462.26 246.17,462.09 C247.31,462.13 247.99,462.46 247.99,463.12 C247.99,463.14 247.99,463.16 247.99,463.18 ZM 253.58 429.39 C253.57,429.43 253.56,429.47 253.56,429.50 C253.26,430.64 253.06,431.32 252.83,431.35 C253.03,430.89 253.29,430.21 253.58,429.39 ZM 230.79 0.55 C230.94,0.56 231.01,0.57 231.01,0.58 C231.01,0.58 231.01,0.58 231.00,0.59 C230.66,0.67 229.49,0.85 227.78,1.09 C227.85,1.08 227.93,1.06 228.00,1.05 ZM 214.16 153.90 C210.67,154.39 209.02,154.45 208.09,153.67 C208.03,153.61 207.97,153.55 207.91,153.48 C207.94,153.52 207.98,153.56 208.03,153.60 C208.93,154.41 210.59,154.37 214.16,153.90 ZM 285.78 411.72 C287.58,412.54 288.74,412.64 289.37,412.03 C288.70,412.70 287.56,412.61 285.78,411.72 ZM 276.04 422.26 C272.99,423.47 268.29,426.27 265.41,428.62 C268.35,426.23 273.10,423.39 276.04,422.26 ZM 411.64 353.46 C408.93,352.77 405.63,352.00 402.75,351.40 C406.21,352.12 409.15,352.79 411.64,353.46 ZM 235.08 486.78 C235.38,486.53 235.67,486.29 235.96,486.04 C237.84,484.43 239.53,483.26 239.74,483.40 C239.53,483.26 237.84,484.44 235.96,486.06 C235.71,486.27 235.41,486.52 235.08,486.78 ZM 0.50 233.40 C0.58,233.14 0.67,232.69 0.78,232.05 C0.66,232.84 0.57,233.35 0.52,233.50 L 0.51 233.50 C0.51,233.50 0.50,233.47 0.50,233.40 ZM 295.80 413.46 C293.30,410.87 291.05,410.37 289.38,412.02 C291.04,410.36 293.32,410.88 295.80,413.46 ZM 248.00 455.80 C248.00,455.84 248.00,455.88 248.00,455.92 C248.00,456.44 247.98,456.87 247.92,457.23 C247.97,456.84 247.99,456.37 248.00,455.80 ZM 166.58 455.90 L 166.65 455.71 C167.47,453.54 168.33,451.39 169.22,449.29 C168.30,451.45 167.42,453.66 166.58,455.90 ZM 160.80 474.44 C160.83,474.33 160.86,474.22 160.88,474.11 L 160.90 474.06 C160.87,474.19 160.83,474.31 160.80,474.44 Z" fill="rgb(253,253,252)"/>
<path d="M 219.67 499.33 C218.32,497.98 219.14,497.14 225.75,493.13 C229.46,490.88 234.06,487.70 235.96,486.06 C237.86,484.42 239.56,483.23 239.74,483.41 C239.92,483.59 239.61,485.71 239.06,488.12 C238.50,490.53 238.04,494.19 238.02,496.25 L 238.00 500.00 L 229.17 500.00 C224.31,500.00 220.03,499.70 219.67,499.33 ZM 244.42 497.25 C244.74,495.74 245.70,490.47 246.54,485.55 C248.41,474.66 249.66,469.01 250.33,468.34 C250.60,468.06 251.65,469.56 252.64,471.67 C255.24,477.14 267.36,488.92 275.13,493.53 C284.67,499.18 283.05,499.93 261.17,499.97 L 243.84 500.00 L 244.42 497.25 ZM 211.65 497.32 C211.28,496.94 208.84,496.33 206.24,495.96 C196.04,494.49 155.48,482.67 157.89,481.87 C158.53,481.66 159.89,478.11 160.91,473.99 C165.69,454.78 174.91,434.47 183.96,423.24 C186.73,419.80 189.00,416.77 189.00,416.49 C189.00,416.22 185.29,415.99 180.75,415.98 C154.52,415.94 130.47,400.87 118.04,376.70 C115.27,371.31 113.00,366.03 113.00,364.95 C113.00,362.46 112.73,362.48 99.00,366.02 C92.68,367.65 85.83,368.99 83.79,368.99 C77.47,369.01 74.02,363.27 77.43,358.40 C78.92,356.28 83.71,354.64 100.00,350.69 L 109.50 348.38 L 110.15 339.88 C110.56,334.54 111.96,327.93 113.90,322.13 C115.61,317.05 117.00,312.74 117.00,312.57 C117.00,312.39 111.04,311.71 103.75,311.04 C88.54,309.66 84.41,308.63 82.93,305.87 C81.28,302.79 82.25,298.89 85.21,296.68 C87.81,294.75 88.43,294.72 99.71,295.90 C106.20,296.58 114.86,297.56 118.96,298.08 L 126.43 299.04 L 136.70 288.80 L 146.97 278.56 L 153.31 278.53 C158.70,278.50 160.21,278.08 163.34,275.69 C179.80,263.14 177.88,227.23 160.29,218.69 L 155.78 216.50 L 156.32 211.93 C157.06,205.68 161.37,193.68 165.27,187.01 C167.04,183.98 172.43,177.57 177.25,172.77 C182.06,167.97 186.00,163.65 186.00,163.16 C186.00,161.49 173.98,134.83 169.32,126.18 C157.36,103.95 141.21,80.60 123.60,60.09 C113.80,48.67 89.33,23.69 79.10,14.65 C75.58,11.54 73.18,9.00 73.76,9.00 C74.71,9.00 125.89,33.21 138.60,39.67 C151.25,46.11 167.61,60.44 178.36,74.50 C183.72,81.51 194.00,99.68 194.00,102.14 C194.00,102.62 194.84,104.93 195.88,107.26 C198.72,113.69 202.72,129.23 206.36,148.00 C207.79,155.36 206.81,154.97 219.32,153.14 C227.48,151.95 242.60,151.73 237.90,152.87 C229.79,154.84 220.52,168.00 214.22,186.50 C210.40,197.72 209.64,204.62 209.79,226.50 C210.07,264.94 208.26,273.99 196.24,294.17 C191.94,301.39 192.08,305.02 196.71,306.21 C200.14,307.09 203.00,310.30 203.00,313.27 C203.00,314.27 201.90,316.20 200.55,317.55 C198.65,319.44 197.04,320.00 193.49,320.00 C189.18,320.00 188.81,320.22 187.43,323.52 C185.82,327.36 186.33,329.18 189.91,332.42 C193.22,335.41 192.71,340.30 188.75,343.41 C185.52,345.94 185.50,346.00 185.74,353.99 C186.37,374.61 195.34,398.94 205.63,407.98 C209.38,411.27 211.39,411.36 220.00,408.62 C223.05,407.64 223.58,406.99 224.11,403.50 L 224.72 399.50 L 224.86 404.04 C225.20,414.85 230.27,427.46 237.65,435.87 C241.90,440.71 242.08,441.09 239.43,439.76 C231.21,435.59 217.59,437.17 204.39,443.80 C196.83,447.61 185.69,455.26 183.00,458.50 C181.26,460.60 182.52,461.62 184.73,459.91 C186.42,458.60 186.42,458.63 184.75,460.60 C180.74,465.32 184.77,477.94 191.68,482.30 C196.86,485.57 199.26,486.22 205.84,486.14 C216.29,486.01 227.43,480.36 237.38,470.13 C239.74,467.71 241.04,465.55 240.70,464.65 C240.38,463.82 240.80,462.91 241.64,462.58 C244.30,461.56 248.00,461.95 247.99,463.25 C247.96,466.54 242.50,475.63 237.62,480.51 C231.98,486.16 217.63,495.99 215.00,496.02 C213.67,496.03 213.67,496.14 215.00,497.00 C216.23,497.80 216.13,497.97 214.42,497.98 C213.27,497.99 212.03,497.69 211.65,497.32 ZM 285.23 497.50 C285.63,497.07 282.51,494.66 278.30,492.16 C267.71,485.86 258.78,477.25 255.03,469.74 C253.12,465.93 252.33,463.27 252.91,462.69 C253.44,462.16 255.92,462.06 258.59,462.46 C261.72,462.93 262.88,463.46 262.00,464.00 C260.91,464.67 261.02,465.37 262.55,467.66 C263.59,469.22 264.36,470.79 264.26,471.15 C264.15,471.50 265.63,472.85 267.53,474.15 C269.43,475.44 270.99,476.80 270.99,477.16 C271.01,478.42 280.57,484.57 289.25,488.92 C298.54,493.56 299.34,495.26 292.71,496.29 C290.95,496.57 288.38,497.13 287.00,497.54 C285.62,497.96 284.83,497.94 285.23,497.50 ZM 244.40 457.41 C244.73,456.53 245.28,454.73 245.61,453.41 C246.46,450.05 248.00,451.43 248.00,455.56 C248.00,458.39 247.63,459.00 245.89,459.00 C244.38,459.00 243.96,458.55 244.40,457.41 ZM 252.07 456.75 C252.11,455.51 252.51,453.60 252.96,452.50 C253.69,450.70 253.85,450.80 254.52,453.50 C254.94,455.15 255.72,457.06 256.26,457.75 C256.99,458.68 256.58,459.00 254.62,459.00 C252.55,459.00 252.01,458.53 252.07,456.75 ZM 237.88 445.10 C238.64,444.62 238.95,443.72 238.57,443.11 C237.59,441.53 239.53,441.73 240.87,443.34 C242.23,444.99 241.35,446.01 238.58,445.98 C237.01,445.97 236.84,445.76 237.88,445.10 ZM 260.00 432.47 C260.00,431.36 266.88,414.16 268.93,410.13 C270.76,406.55 271.33,406.10 272.96,406.98 C274.01,407.54 276.04,408.00 277.47,408.00 C278.89,408.00 280.32,408.67 280.64,409.49 C280.95,410.32 281.53,410.79 281.93,410.55 C282.32,410.30 283.93,410.77 285.49,411.58 C287.45,412.59 288.67,412.73 289.37,412.03 C291.06,410.34 293.35,410.88 295.90,413.57 C297.22,414.96 298.94,415.85 299.73,415.55 C300.51,415.25 301.90,415.77 302.82,416.70 C304.39,418.28 304.39,418.35 302.75,417.73 C301.79,417.36 301.00,417.46 301.00,417.94 C301.00,418.42 300.08,418.57 298.95,418.28 C296.04,417.51 282.47,419.86 276.16,422.22 C273.22,423.31 268.38,426.19 265.41,428.62 C262.43,431.04 260.00,432.78 260.00,432.47 ZM 251.52 428.11 C250.44,421.71 245.40,412.31 239.79,406.22 C236.89,403.07 235.72,401.56 237.20,402.86 C239.09,404.54 241.23,405.28 244.51,405.40 C247.06,405.50 249.31,405.30 249.52,404.96 C249.99,404.21 255.56,404.51 259.25,405.49 C261.03,405.96 262.00,405.83 262.00,405.11 C262.00,404.50 262.40,404.00 262.89,404.00 C263.37,404.00 262.05,407.99 259.95,412.87 C257.85,417.75 255.37,424.05 254.45,426.87 C253.52,429.69 252.64,432.00 252.47,432.00 C252.31,432.00 251.88,430.25 251.52,428.11 ZM 295.06 407.92 C292.77,404.76 292.26,403.19 292.68,400.58 C292.99,398.65 292.76,396.97 292.11,396.57 C291.50,396.19 291.00,395.21 291.00,394.38 C291.00,393.56 291.35,393.10 291.78,393.37 C292.21,393.63 293.62,392.31 294.91,390.42 C298.01,385.90 301.32,385.83 304.01,390.25 C305.10,392.04 305.99,395.12 306.00,397.11 C306.00,399.29 306.97,402.15 308.45,404.34 L 310.91 407.95 L 308.10 407.62 C306.55,407.44 304.77,406.98 304.15,406.59 C303.48,406.18 302.54,406.91 301.87,408.39 C300.03,412.43 298.23,412.30 295.06,407.92 ZM 255.42 397.25 C254.30,395.35 252.94,394.21 252.16,394.50 C247.15,396.39 246.30,396.21 246.55,393.32 C246.69,391.77 246.90,390.27 247.02,390.00 C247.14,389.73 247.17,389.13 247.09,388.68 C247.01,388.22 247.38,388.12 247.90,388.44 C249.04,389.14 250.10,386.18 250.22,381.99 C250.27,380.33 250.53,379.20 250.81,379.48 C251.09,379.76 251.84,379.55 252.49,379.01 C253.13,378.48 254.62,377.89 255.80,377.71 C256.98,377.53 258.26,377.07 258.64,376.69 C260.11,375.22 263.10,376.10 263.89,378.24 C264.89,380.94 263.86,384.91 260.88,389.85 C259.67,391.86 258.38,395.08 258.01,397.00 L 257.35 400.50 L 255.42 397.25 ZM 328.53 390.46 C326.91,388.59 324.32,386.79 322.79,386.45 C320.27,385.90 319.40,384.41 319.94,381.58 C320.04,381.07 320.43,378.15 320.81,375.08 C321.40,370.35 321.84,369.45 323.70,369.19 C327.20,368.69 329.62,370.59 333.00,376.50 C334.74,379.54 337.31,382.62 338.72,383.36 C340.69,384.39 340.97,384.90 339.92,385.55 C339.17,386.01 337.31,386.30 335.78,386.18 C333.73,386.02 332.98,386.43 332.92,387.73 C332.82,390.03 332.24,393.09 331.82,393.51 C331.64,393.70 330.16,392.32 328.53,390.46 ZM 403.00 366.40 C397.77,365.07 392.71,364.17 391.75,364.40 C390.79,364.63 390.00,364.45 390.00,364.00 C390.00,363.56 378.41,360.40 364.25,356.99 C312.74,344.59 310.76,344.06 309.40,342.26 C307.39,339.62 307.73,335.27 310.13,332.87 C313.03,329.97 316.83,330.48 347.00,337.86 C387.81,347.83 389.33,348.17 391.71,347.72 C393.03,347.46 394.00,347.77 394.00,348.43 C394.00,349.08 397.84,350.38 402.75,351.40 C407.56,352.40 413.52,353.87 416.00,354.68 C423.62,357.16 426.15,362.31 421.96,366.81 C419.34,369.63 415.38,369.54 403.00,366.40 ZM 300.69 318.89 C298.02,317.33 296.84,313.45 298.15,310.56 C300.21,306.05 300.83,305.94 352.82,300.97 C364.00,299.90 373.57,298.76 374.09,298.44 C374.61,298.12 374.72,297.33 374.34,296.68 C373.97,296.03 374.52,296.22 375.58,297.11 C377.35,298.59 378.70,298.57 392.50,296.92 C412.30,294.54 413.50,294.55 415.96,297.19 C420.22,301.76 417.45,308.34 410.81,309.43 C407.33,310.01 388.85,312.00 387.00,312.00 C386.27,312.00 386.30,312.71 387.11,314.25 C388.28,316.48 388.28,316.49 386.16,314.61 C383.62,312.35 383.05,312.38 338.64,316.94 C305.88,320.30 303.34,320.43 300.69,318.89 ZM 498.07 278.81 C498.11,277.54 498.51,274.48 498.95,272.00 L 499.75 267.50 L 499.87 273.69 C499.94,277.10 499.55,280.16 499.00,280.50 C498.44,280.85 498.03,280.11 498.07,278.81 ZM 0.72 278.67 C0.32,277.66 0.05,274.51 0.12,271.67 L 0.23 266.50 L 1.14 271.99 C2.16,278.14 1.93,281.75 0.72,278.67 ZM 163.25 252.35 C161.58,251.66 161.66,248.53 163.37,247.11 C165.58,245.27 168.15,246.88 167.80,249.87 C167.51,252.43 165.75,253.38 163.25,252.35 ZM 359.25 252.34 C357.66,251.70 357.63,248.77 359.20,247.20 C360.78,245.62 361.54,245.69 363.43,247.57 C364.61,248.75 364.74,249.61 363.96,251.07 C362.94,252.98 361.68,253.32 359.25,252.34 ZM 155.60 239.83 C153.45,236.77 153.59,234.41 156.06,231.94 C161.04,226.96 168.83,232.40 165.80,238.75 C163.98,242.56 157.95,243.20 155.60,239.83 ZM 351.36 239.42 C347.89,234.13 353.53,228.10 359.43,230.79 C365.25,233.44 363.01,242.00 356.50,242.00 C353.89,242.00 352.63,241.37 351.36,239.42 ZM 0.02 228.42 C0.02,225.16 0.49,221.82 1.06,221.00 C1.79,219.94 1.89,221.57 1.42,226.50 C0.58,235.30 -0.00,236.10 0.02,228.42 ZM 499.20 230.39 C499.09,228.68 498.72,225.08 498.37,222.39 C497.89,218.66 498.02,217.76 498.92,218.60 C499.68,219.31 499.97,222.16 499.74,226.60 C499.55,230.39 499.30,232.10 499.20,230.39 ZM 338.99 181.82 C335.22,176.61 327.54,168.34 323.61,165.26 L 320.75 163.02 L 325.56 151.41 C331.23,137.71 342.49,116.77 351.79,102.61 C358.19,92.87 374.04,71.42 379.74,64.79 C399.01,42.39 428.31,13.82 440.39,5.63 C446.11,1.76 451.22,2.02 455.60,6.40 C461.30,12.10 460.62,15.59 447.54,47.50 C444.01,56.11 432.92,78.81 426.05,91.50 C423.34,96.50 413.52,111.68 406.31,122.00 C397.33,134.88 386.99,146.96 375.77,157.72 C366.05,167.04 350.29,181.00 349.50,181.00 C349.15,181.00 347.35,182.16 345.49,183.57 L 342.12 186.15 L 338.99 181.82 ZM 150.00 176.64 C127.89,159.06 108.49,137.55 90.21,110.33 C83.70,100.63 82.79,99.10 74.46,83.89 C64.49,65.70 55.32,45.84 49.58,30.00 C48.08,25.88 46.44,21.47 45.93,20.20 C44.63,17.00 44.83,11.93 46.35,9.19 C49.47,3.57 58.01,1.26 63.03,4.69 C76.48,13.87 111.27,48.61 128.43,70.00 C150.39,97.38 165.01,121.09 177.85,150.15 C180.68,156.55 183.00,162.03 183.00,162.32 C183.00,162.60 179.51,166.40 175.25,170.75 C170.99,175.09 166.45,180.08 165.17,181.83 C163.89,183.57 162.32,185.00 161.67,185.00 C161.03,184.99 155.77,181.23 150.00,176.64 ZM 416.89 20.63 C418.44,18.77 417.25,16.00 415.17,16.62 C412.79,17.32 424.80,10.98 429.00,9.32 C432.08,8.10 431.59,8.78 425.00,14.93 C420.88,18.78 417.11,21.95 416.63,21.97 C416.15,21.98 416.27,21.38 416.89,20.63 ZM 63.00 1.00 C61.71,0.16 61.73,0.03 63.19,0.02 C64.12,0.01 65.16,0.45 65.50,1.00 C66.28,2.27 64.96,2.27 63.00,1.00 ZM 220.00 1.00 C220.82,0.47 223.98,0.08 227.00,0.14 L 232.50 0.25 L 228.00 1.05 C221.36,2.23 218.13,2.21 220.00,1.00 ZM 271.50 1.00 L 266.50 0.31 L 272.00 0.23 C275.02,0.18 278.40,0.53 279.50,1.00 C281.31,1.78 281.26,1.85 279.00,1.77 C277.62,1.72 274.25,1.38 271.50,1.00 ZM 438.50 1.00 C438.84,0.45 439.88,0.01 440.81,0.02 C442.27,0.03 442.29,0.16 441.00,1.00 C439.04,2.27 437.72,2.27 438.50,1.00 ZM 452.00 1.00 C451.10,0.42 450.98,0.02 451.69,0.02 C452.35,0.01 453.16,0.45 453.50,1.00 C454.27,2.24 453.92,2.24 452.00,1.00 Z" fill="rgb(247,219,188)"/>
</g>
</svg>